<?xml version="1.0" encoding="utf-8"?>
<!-- Generator: Adobe Illustrator 23.0.3, SVG Export Plug-In . SVG Version: 6.00 Build 0)  -->
<svg version="1.1" xmlns="http://www.w3.org/2000/svg" xmlns:xlink="http://www.w3.org/1999/xlink" x="0px" y="0px"
	 viewBox="0 0 650 295" style="enable-background:new 0 0 650 295;" xml:space="preserve">
<style type="text/css">
	.st0{fill:#00AE22;}
	.st1{fill:#FFFFFF;}
</style>
<g id="レイヤー_1">
</g>
<g id="レイヤー_2">
</g>
<g id="レイヤー_3">
	<g>
		<g>
			<g>
				<path class="st0" d="M94.8,85.26h22.33v3.86h-7.42v1.95h6.6v17.04h-3.75v-1.06H99.34v1.06h-3.72V91.07h5.7v-1.95H94.8V85.26z
					 M99.34,100.05v3.24h13.22v-2.03c-0.35,0.3-0.82,0.47-1.27,0.47h-3.27c-0.82,0-1.7-0.64-1.7-1.88v-5.07h-1.67
					c-0.19,4.72-2.31,6.9-3.2,7.84L99.34,100.05z M99.34,94.78v4.55c1.74-1.88,1.91-3.59,1.98-4.55H99.34z M104.71,89.12v1.95h1.6
					v-1.95H104.71z M112.56,96.51v-1.73h-2.85v2.84c0,0.5,0,0.74,0.4,0.74c0.75,0,0.9,0,0.99-2.15L112.56,96.51z"/>
				<path class="st0" d="M129.74,106.19v0.27c-2.59,0.67-7.96,1.41-9.26,1.56l-0.33-3.83c0.97-0.07,1.93-0.15,3.58-0.35v-5.86h-3.39
					v-3.39h3.39v-1.04h-1.81v-1.01c-0.64,0.54-0.85,0.67-1.23,0.89l-0.97-4.08c0.75-0.54,2.69-1.9,4.1-4.72h3.75
					c0.64,1.29,1.74,2.67,2.9,3.49c0.17-1.46,0.14-2.2,0.12-2.77l3.37,0.37c-0.02,0.72-0.02,1.41-0.17,2.87h0.9v-3.96h3.51v3.96
					h3.91v3.69h-3.91v1.66c0,0.32-0.02,0.59-0.05,0.79h4.38v3.83h-3.82c1.27,3.49,3.44,5.22,4.29,5.91l-2.24,3.71
					c-2.62-2.35-3.58-4.65-4.17-6.53c-1.79,4.28-4.55,6.04-5.49,6.63L129.74,106.19z M122.44,98.54c0.42,1.29,0.75,3.59,0.82,4.2
					l-2.59,0.79c-0.02-1.21-0.28-2.99-0.61-4.25L122.44,98.54z M127.39,90.06c-0.87-1.01-1.25-1.66-1.58-2.23
					c-0.35,0.62-0.66,1.11-1.56,2.23H127.39z M130.07,98.54v-3.83h4.59c0.02-0.27,0.02-0.37,0.02-0.57v-1.88h-1.48
					c-0.26,1.06-0.45,1.53-0.66,2.1l-3.16-1.51c0.68-1.9,0.87-3.24,1.08-4.7l-1.74,3.07v2.33h-1.79v1.04h2.45v3.39h-2.45v5.42
					c1.37-0.2,2-0.32,2.78-0.45l0.02,1.34c1.13-0.69,3.18-2.32,4.22-5.74H130.07z M130.42,99.06c-0.26,1.46-0.87,3.22-0.99,3.59
					l-2.26-0.54c0.49-1.21,0.75-3.22,0.8-3.59L130.42,99.06z"/>
				<path class="st0" d="M145.77,103.74c1.11-1.56,4.05-5.59,4.48-17.56l4.08,0.57c-0.8,11.72-2.59,16.75-5.11,20.28L145.77,103.74z
					 M161.63,86.3c0.42,1.31,0.71,3.07,0.8,3.61l0.49-0.12c0.92,6.08,1.84,9.62,4.9,13.9l-3.79,3.14c-2.9-4.5-4.71-10.09-5.4-20.08
					L161.63,86.3z M163.09,89.17c-0.28-1.41-0.59-2.7-1.06-4.01l1.86-0.47c0.54,1.24,0.87,2.3,1.22,3.88L163.09,89.17z
					 M166.22,88.85c-0.19-0.82-0.78-2.97-1.2-3.98l2.03-0.37c0.59,1.39,0.85,2.25,1.2,3.88L166.22,88.85z"/>
				<path class="st0" d="M171.53,103.71c5.84-2.52,10.32-7.05,12.6-13.11h-11.17V86.5h16.66c-0.68,4.21-1.86,7.22-4.12,10.71
					c4.15,3.14,6.29,5.37,7.59,6.75l-3.51,3.59c-2.26-2.77-5.32-5.91-6.62-7.1c-4.52,4.87-7.47,6.18-9.12,6.9L171.53,103.71z"/>
				<path class="st0" d="M216.66,82.1h-7.25v26.37h-5.39V76.45h12.63V82.1z"/>
				<path class="st0" d="M224.19,92l-3.66-3.53c2.64-3.39,4.11-6.85,5.22-11.92l5.55,0.68c-0.33,1.37-0.65,2.77-1.17,4.55h3.69
					v-5.38h5.58v5.38h11.1v5.48h-11.1V92h10.09v5.27H239.4v5.34h12.4v5.44h-30.88v-5.44h12.89v-5.34h-10.54V92H224.19z M233.82,92
					v-4.73h-5.65c-0.82,1.71-1.7,3.18-2.87,4.73H233.82z"/>
				<path class="st0" d="M270.53,102.03c2.84-0.24,10.44-0.92,10.44-10.1c0-4.76-2.38-7.7-6.49-8.15
					c-0.03,0.58-0.88,21.13-10.44,21.13c-5.48,0-7.25-6.4-7.25-10.72c0-10.61,7.7-16.16,15.96-16.16c9.43,0,14.3,6.2,14.3,14.28
					c0,2.84-0.65,8.05-4.7,11.74c-3.13,2.91-8.23,3.56-9.79,3.77L270.53,102.03z M262.3,94.33c0,0.86,0.2,4.01,1.96,4.01
					c2.22,0,4.08-6.13,4.77-14.24C262.3,86.38,262.3,93.33,262.3,94.33z"/>
				<path class="st0" d="M303.09,88.61c0.46-0.58,0.62-0.82,1.01-1.44h-2.81v1.34c1.53,2.81,3.52,4.59,4.93,5.79l-2.48,5
					c-0.72-0.79-1.24-1.37-2.45-3.39v13.18h-4.93V97.14c-1.47,3.49-2.45,4.93-3.3,6.16l-1.57-6.92c2.97-4.04,4.21-7.46,4.77-9.21
					h-4.24v-5.24h4.34v-5.48h4.93v5.48h3.72v3.7c1.83-3.6,2.42-7.4,2.74-9.42l4.83,1.13c-0.26,1.44-1.5,8.97-5.81,15.34
					L303.09,88.61z M315.36,90.05c-1.89,5.96-3.59,10.1-4.96,12.84c0.59-0.03,3.56-0.24,5.58-0.51c-0.98-3.22-1.53-4.38-1.83-5.07
					l4.6-2.57c1.57,3.46,2.9,7.05,4.28,12.7l-5.25,2.12c-0.13-0.89-0.2-1.3-0.39-2.23c-2.55,0.38-9.04,1.1-13.81,1.27l-0.46-5.44
					c0.55,0.03,1.5,0,1.99,0c0.55-1.34,3.98-9.69,5.03-14.42L315.36,90.05z M319.64,92.72c-1.17-2.16-3.79-6.85-5.42-15.51
					l4.83-0.92c0.91,5.17,2.38,9.07,4.57,12.53L319.64,92.72z"/>
				<path class="st0" d="M333.14,105.22c2.25-2.16,3.79-5.14,4.37-6.61h-1.57V83.95h6.79c0.16-0.55,0.29-1.47,0.33-1.61h-8.55v11.16
					c0,9.45-2.12,13.25-3.33,15.44l-4.7-4.49c1.89-3.18,2.71-7.6,2.71-11.37V77.28h29.02v5.07h-9.24c-0.1,0.41-0.42,1.27-0.52,1.61
					h8.19v14.65h-1.86c1.08,2.29,2.35,4.52,4.01,6.37l-4.24,3.83c-1.83-1.95-3.72-5.48-4.63-8.29l4.15-1.92h-4.9v7.02
					c0,1.58-0.42,3.36-3.36,3.36h-4.31l-1.01-4.45c-1.47,2.5-2.45,3.53-3.2,4.31L333.14,105.22z M342.38,100.53
					c-0.36,0.96-0.72,1.85-1.4,3.12h1.96c0.59,0,0.62-0.14,0.62-0.99v-4.04h-5.58L342.38,100.53z M341.14,88.1v1.51h10.38V88.1
					H341.14z M341.14,92.89v1.54h10.38v-1.54H341.14z"/>
				<path class="st0" d="M375.01,109.05h-12.63v-5.65h7.25V77.04h5.39V109.05z"/>
				<path class="st0" d="M388.26,94.64c-0.49,0.58-0.69,0.79-1.21,1.37l-1.24-8.22c3.1-4.14,3.82-9.07,4.08-11.5l5.19,0.48
					c-0.03,0.21-0.16,1.16-0.2,1.4h8.13v-1.71h5.19v1.71h9.04v4.14h-22.52v-3.05c-0.16,0.89-0.52,2.88-1.37,5.72v24.07h-5.09V94.64z
					 M414.99,99.02v2.74h-6.33v3.83c0,3.25-1.83,3.46-3.59,3.46H399l-0.75-4.73h4.37c0.69,0,0.82-0.34,0.82-0.89v-1.68h-6.98v-2.74
					h-2.02v-6.64h22.42v6.64H414.99z M415.31,83.37v7.84h-19.42v-7.84H415.31z M411.95,96.25h-12.7v1.37h12.7V96.25z M401.12,86.56
					v1.51h8.88v-1.51H401.12z"/>
				<path class="st0" d="M421.12,81.49c2.12-1.4,3.98-3.46,4.83-5.31l5.06,1.54c-1.8,3.66-4.8,7.22-7.77,9.59L421.12,81.49z
					 M429.15,105.7v3.32h-5.16v-11.4c-0.59,0.55-0.91,0.82-1.5,1.34l-1.34-7.19c2.35-1.61,5.29-5.31,6.53-7.6l4.01,2.64h7.64v-2.36
					h-7.21v-5.2h7.21v-2.84h5.29v2.84h7.21v5.2h-7.21v2.36h8V92h-8v2.33h6.76v5.2h-6.76v3.42c0.65,0.03,1.8,0.1,3.53,0.1
					c2.09,0,3.49-0.07,4.86-0.14l-1.08,5.41c-10.31,0.1-13.12-0.17-16.55-4.21c-1.24,2.94-2.55,4.42-3.23,5.21L429.15,105.7z
					 M437.6,93.75c-0.1,1.13-0.2,2.71-0.65,5c0.26,0.48,0.88,1.54,2.38,2.6V92h-7.93v-3.83c-0.39,0.75-0.98,1.85-2.25,3.6v12.74
					c1.21-1.37,3.13-4.07,3.62-11.2L437.6,93.75z"/>
				<path class="st0" d="M457.96,103.61c2.09,0,10.8-0.07,15.41-2.43c-0.2,0.07-0.49,0.14-0.98,0.14h-6.27l-0.85-4.62
					c-1.66,1.75-3.33,3.12-5.16,4.11l-3.43-4.52c3.72-2.02,5.91-4.14,6.85-5.44h-6.53v-5.17h4.41v-7.7h5.35v7.7h3.3v-9.11h5.32v2.16
					h10.12v5.03h-10.12v1.92h12.5v5.17h-6.1c0.82,0.92,3.56,3.77,6.69,5.62l-3.43,4.45c-1.99-1.16-5.32-4.28-7.9-7.67l3.46-2.4
					h-5.22v7.19c0,0.45,0,1.71-0.78,2.4c2.22-1.51,3.43-3.15,4.11-4.14l3.85,3.77c-2.42,3.22-7.25,8.8-22.85,9.21L457.96,103.61z
					 M468.17,93.23c-0.36,0.58-0.91,1.47-2.55,3.08h3.46c0.98,0,0.98-0.92,0.98-1.23v-4.25h-5.55L468.17,93.23z"/>
				<path class="st0" d="M501.69,96.76c-1.7,0.21-2.74,0.51-2.74,2.53v0.86h17.27v5.62H493.1v-5.38c0-2.6,0-8.22,6.36-9.01
					l8.36-1.03c1.89-0.24,2.77-0.58,2.77-2.88c0-2.4-0.72-3.36-5.55-3.36c-5.45,0-5.65,0.72-5.71,4.07h-5.74
					c0-5.75,0.29-9.69,11-9.69c6.79,0,11.81,0.48,11.81,8.63c0,3.49-0.85,5.27-1.99,6.33c-2.09,1.92-3.98,2.16-4.8,2.26
					L501.69,96.76z"/>
				<path class="st0" d="M526.29,91.21c-0.78,0.72-1.27,1.13-1.99,1.75l-3.52-5.27c6.36-4.21,8.23-9.07,9.01-11.4l5.35,1.06
					c-0.55,1.64-1.89,5.75-5.52,10.31h14.52c-2.71-3.56-4.44-7.53-5.45-10.13l5.35-1.3c1.73,4.08,4.31,8.59,8.98,11.81l-3.62,4.93
					c-0.69-0.51-1.21-0.92-1.79-1.47c-0.23,5.82-0.46,12.16-1.53,14.79c-0.72,1.75-1.6,2.81-4.15,2.81h-6.1l-1.08-5.68h4.83
					c0.72,0,1.27-0.38,1.47-0.79c0.26-0.55,0.78-3.63,0.98-9.52h-5.55c-0.98,8.59-5.48,12.98-12.17,16.09l-3.17-5.44
					c8.55-3.05,9.56-7.81,9.79-10.65h-4.63V91.21z"/>
			</g>
		</g>
		<path class="st0" d="M569.66,180.51H80.34c-13.05,0-23.62-10.58-23.62-23.62v-5.97c0-13.05,10.58-23.62,23.62-23.62h489.32
			c13.05,0,23.62,10.58,23.62,23.62v5.97C593.29,169.93,582.71,180.51,569.66,180.51z"/>
		<g>
			<path class="st0" d="M248.13,34.51h-10.81v4.22h9.59v22.87h-4.02v-1.48h-20.27v1.48h-4.09V38.73h8.04v-4.22h-9.29v-4.02h30.85
				V34.51z M222.62,42.61v13.53h20.27V42.61h-5.57v6.01c0,0.45,0.2,0.82,0.56,0.82h0.73c0.72,0,1.05-0.58,1.05-3.98l3.03,0.69
				c-0.33,5.08-0.86,6.87-3.07,6.87h-3.1c-1.52,0-2.97-0.27-2.97-2.75v-7.66h-3.36c-0.36,5.67-2.37,8.93-4.75,11.54l-2.77-3.16
				c2.64-2.81,3.53-4.84,3.89-8.38H222.62z M230.27,34.51v4.22h3.3v-4.22H230.27z"/>
			<path class="st0" d="M254.46,30.56h29.2v4.09h-25.02v21.8h25.74v4.09h-25.74v1.3h-4.19V30.56z M259.54,52.12
				c2.41-1.3,5.97-3.33,9.29-6.8c-4.02-2.44-6.53-3.54-7.84-4.15l2.18-3.4c1.85,0.86,4.45,2.09,8.34,4.43
				c1.12-1.48,2.44-3.43,4.05-7.04l4.15,1.65c-0.99,1.99-2.47,4.7-4.71,7.66c4.42,3.16,6.63,5.15,7.75,6.18l-2.9,3.74
				c-1.35-1.37-3.92-3.91-7.61-6.7c-3.86,3.88-7.51,6.28-10.08,7.86L259.54,52.12z"/>
			<path class="st0" d="M296.19,40.03c-1.61,3.16-2.9,4.6-3.76,5.49l-3.13-3.16c1.12-1.24,3.99-4.43,5.93-12.46l4.15,0.69
				c-0.3,1.24-0.66,2.92-1.52,5.32h5.37v-6.45h4.22v6.45h11.73v4.12h-11.73v5.87h10.98v4.09h-10.98v6.52h13.18v4.19H289.8v-4.19
				h13.45v-6.52h-11.17V45.9h11.17v-5.87H296.19z"/>
			<path class="st0" d="M340.03,55.89c5.9-0.27,11.4-2.03,11.4-10.44c0-3.88-1.35-8.72-7.78-9.24c-0.33,4.12-0.96,11.91-3.69,16.72
				c-0.56,1-2.67,4.6-6.46,4.6c-4.45,0-6.69-5.18-6.69-10.16c0-9,6.26-15.42,15.56-15.42c8.54,0,13.81,5.12,13.81,13.73
				c0,10.16-6.13,13.97-14.77,14.59L340.03,55.89z M331.13,47.76c0,4.33,1.85,5.12,2.64,5.12c2.44,0,4.75-5.73,5.5-16.45
				C333.01,37.9,331.13,43.12,331.13,47.76z"/>
			<path class="st0" d="M361.55,49.75c2.01-2.81,3.79-6.08,5.14-10.23h-4.45v-3.98h4.65v-6.04h3.89v6.04h4.09v3.98h-4.09v1.99
				c1.55,2.78,3.03,4.39,4.88,6.15l-2.08,3.67c-1.29-1.44-1.85-2.27-2.8-3.98v14.49h-3.89V47.45c-1.65,4.5-2.93,6.28-3.79,7.48
				L361.55,49.75z M382.22,30.11c-0.69,5.6-2.11,10.06-5.7,15.17l-3.23-2.92c2.04-2.68,3.96-5.77,5.08-12.94L382.22,30.11z
				 M373.88,56.92c0.33-0.03,1.88-0.07,2.24-0.07c1.25-2.95,3.49-9.68,4.38-15.24l4.05,0.86c-0.3,1.75-1.05,5.8-4.55,14.18
				c0.53-0.03,5.11-0.41,7.71-0.82c-1.05-3.19-1.88-4.7-2.5-5.84l3.43-1.79c3,4.94,4.38,10.99,4.71,12.33l-4.09,1.61
				c-0.13-0.86-0.23-1.61-0.46-2.58c-3.89,0.65-10.58,1.24-14.44,1.51L373.88,56.92z M390.82,45.66c-3.16-4.36-4.98-10.2-5.8-15.55
				l3.82-0.69c0.59,4.19,2.5,9.75,5.04,13.18L390.82,45.66z"/>
			<path class="st0" d="M414.95,51.09h-8.01V36.98h7.09c0.2-0.72,0.4-1.75,0.49-2.37h-9.59v11.78c0,2.03-0.26,5.08-0.82,8.21
				c-0.59,3.5-1.98,5.8-2.7,7.04l-3.46-3.19c2.93-4.81,2.93-10.33,2.93-12.81V30.76h28.48v3.85h-10.42
				c-0.4,1.41-0.46,1.61-0.73,2.37h9.1v14.11h-8.17v7.9c0,2.44-1.29,2.75-2.74,2.75h-4.48l-0.96-4.05h3.23
				c0.59,0,0.76-0.24,0.76-0.96V51.09z M412.67,53.73c-0.89,1.85-2.74,4.98-5.64,7.62l-3.13-2.95c1.71-1.3,3.96-3.98,5.17-6.42
				L412.67,53.73z M410.86,40.38v2.16h12.52v-2.16H410.86z M410.86,45.49v2.16h12.52v-2.16H410.86z M424.8,52.02
				c1.58,2.44,2.8,4.15,5.04,6.35l-3.26,2.85c-2.04-2.03-4.12-4.94-5.37-7.48L424.8,52.02z"/>
		</g>
		<g>
			<g>
				<path d="M194.77,220.61c1.61,1.36,2.38,3.11,2.38,5.18c0,4.3-3.53,7.38-8.15,7.38c-3.78,0-6.96-2.13-6.96-4.93
					c0-1.54,1.01-2.24,1.99-2.24c1.19,0,1.71,1.01,1.71,1.75c0,0.52-0.1,0.84-0.21,1.12c-0.07,0.21-0.1,0.46-0.1,0.8
					c0,1.33,1.5,2.31,3.15,2.31c2.69,0,5.42-2.66,5.42-6.19c0-3.6-2.66-6.4-5.46-6.4c-0.21,0-1.19,0.14-1.4,0.14
					c-0.52,0-0.77-0.32-0.77-0.73c0-0.46,0.35-0.81,0.8-0.81c0.21,0,1.26,0.21,1.5,0.21c2.94,0,4.79-2.62,4.79-5.46
					c0-2.73-1.64-5.25-4.41-5.25c-1.85,0-2.83,1.33-2.83,2.34c0,0.17,0.07,0.35,0.1,0.52c0.07,0.24,0.1,0.59,0.1,0.84
					c0,1.08-0.8,1.92-1.78,1.92c-1.15,0-1.75-1.01-1.75-1.92c0-1.92,2.24-4.9,6.72-4.9c4.3,0,7,2.8,7,5.88
					c0,1.22-0.46,2.41-1.29,3.57c-1.43,1.89-3.01,2.48-4.44,2.97C192.5,219.21,193.55,219.56,194.77,220.61z"/>
				<path d="M211.6,208.12h-1.22c-1.5,0-2.48,0.84-2.48,2.41v18.44c0,1.47,0.87,2.41,2.48,2.41h0.94c2.13,0,4.2-0.73,5.42-1.47
					c2.31-1.4,3.32-3.08,4.06-4.3l0.91,0.45l-2.48,6.44h-17.81v-1.12h1.19c1.43,0,2.52-0.77,2.52-2.41v-18.44
					c0-1.57-0.98-2.41-2.52-2.41h-1.19v-1.15h10.18V208.12z"/>
				<path d="M225.98,206.96h10.04c8.19,0,13.26,4.2,13.26,12.6c0,5.98-3.15,12.95-12.95,12.95h-10.36v-1.12h1.19
					c1.5,0,2.52-0.8,2.52-2.41v-18.44c0-1.57-0.98-2.41-2.52-2.41h-1.19V206.96z M232.46,228.97c0,1.47,0.87,2.41,2.48,2.41h1.68
					c6.33,0,9.52-5.67,9.52-12.11c0-4.44-1.82-11.16-9.38-11.16h-1.82c-1.5,0-2.48,0.84-2.48,2.41V228.97z"/>
				<path d="M266.29,216.76l7.77,12.42c0.81,1.29,2.41,2.2,4.13,2.2h0.49v1.12h-9.9v-1.12h0.84c0.67,0,1.4-0.38,1.4-1.15
					c0-0.52-0.24-1.05-0.49-1.43l-6.19-9.9l-3.32,3.6v6.47c0,1.54,0.98,2.41,2.52,2.41h0.98v1.12h-9.73v-1.12h0.98
					c1.43,0,2.48-0.77,2.48-2.41v-18.44c0-1.57-0.98-2.41-2.48-2.41h-0.98v-1.15h9.73v1.15h-0.98c-1.5,0-2.52,0.84-2.52,2.41v10.32
					l9.55-10.43c0.35-0.39,0.45-0.84,0.45-1.12c0-1.01-1.08-1.19-1.85-1.19h-0.91v-1.15h9.87v1.15h-0.63c-3.18,0-4.69,1.5-5.6,2.52
					L266.29,216.76z"/>
				<path d="M283.61,222.95h6.05v-6.02h1.25v6.02h6.07v1.25h-6.07v6.02h-1.25v-6.02h-6.05V222.95z"/>
				<path d="M312.25,220.46c-2.79,5.46-4.92,7.74-7.62,9.55l-0.1-0.15c2.57-2.69,5.14-8.33,5.56-9.77c0.15-0.54,0.17-0.96,0.17-1.76
					l2.5,1.05c0.32,0.12,0.49,0.2,0.49,0.47C313.25,220.21,312.59,220.38,312.25,220.46z M317.83,213.87
					c-0.22,0.17-0.29,0.24-0.54,0.42c-0.02,0.98-0.02,1.3-0.02,3.87c0,2.03,0.07,11,0.07,12.83c0,0.98,0,2.72-2.87,3.01
					c-0.29-1.54-2.18-2.28-2.77-2.52v-0.2c0.61,0.05,2.52,0.15,3.04,0.15c0.78,0,0.78-0.37,0.78-0.64c0-3.35-0.02-10.56-0.07-14.4
					c-0.05-2.62-0.07-3.01-0.42-4.07l2.57,0.71c0.25,0.07,0.51,0.17,0.51,0.42C318.12,213.57,318.1,213.67,317.83,213.87z
					 M325.94,228.15c-0.83,0-1.03-0.47-1.74-2.2c-1.13-2.77-3.45-5.34-4.82-6.39l0.05-0.15c3.75,1.45,7.64,4.75,7.64,7.45
					C327.06,228,326.3,228.15,325.94,228.15z"/>
				<path d="M351.36,214.58c0,0.39,0.07,2.13,0.07,2.5c0,0.98-1.03,1-1.18,1c-0.54,0-0.54-0.47-0.51-0.83H336.5
					c-0.05,5.36-0.1,7.35-0.69,9.5c-0.69,2.57-2.2,5.53-4.02,7.1l-0.12-0.12c2.77-4.63,3.01-8.96,3.01-14.72
					c0-2.13-0.02-4.97-0.34-6.81l2.52,1.05h12.59l0.61-0.64c0.12-0.15,0.25-0.24,0.39-0.24c0.12,0,0.24,0.07,0.42,0.2l1.08,0.78
					c0.17,0.12,0.29,0.25,0.29,0.42C352.24,214.02,351.78,214.31,351.36,214.58z M353.81,233.14h-15.28c-0.61,0-1.79,0.02-2.89,0.22
					l-0.49-0.98c1.69,0.15,3.43,0.17,3.77,0.17h4.53V229h-2.77c-0.61,0-1.79,0.02-2.89,0.22l-0.49-0.98
					c1.69,0.15,3.45,0.17,3.77,0.17h2.38c0-2.28,0-2.52-0.32-3.4l2.18,0.59c0.22,0.05,0.54,0.17,0.54,0.44
					c0,0.17-0.1,0.24-0.71,0.69c-0.02,0.54-0.02,0.66-0.02,1.69h3.87l0.78-1.13c0.12-0.2,0.22-0.32,0.37-0.32
					c0.1,0,0.34,0.15,0.47,0.25l1.4,1.15c0.12,0.1,0.25,0.2,0.25,0.37c0,0.25-0.2,0.27-0.37,0.27h-6.76c0,0.37-0.02,3.45-0.02,3.55
					h5.44l1.03-1.3c0.15-0.2,0.24-0.32,0.39-0.32c0.1,0,0.2,0.07,0.44,0.27l1.54,1.3c0.1,0.1,0.24,0.22,0.24,0.37
					C354.18,233.09,353.96,233.14,353.81,233.14z M349.74,213.84H336.5c0.02,0.39,0,1.89,0,2.82h13.25V213.84z M353.39,220.21h-9.43
					c-0.59,0.91-1.89,2.4-2.89,3.55c0.22-0.02,0.47-0.02,0.83-0.05c0.78-0.07,1.32-0.12,6.22-0.56c-0.64-0.69-1.03-1.05-2.11-1.79
					l0.1-0.17c2.45,0.42,5.66,2.01,5.66,3.75c0,0.66-0.42,0.98-0.88,0.98c-0.54,0-0.91-0.42-1.05-0.64c-0.61-0.91-0.69-1-1.3-1.69
					c-2.69,0.61-7.05,1.49-9.75,2.16c-0.42,0.56-0.47,0.61-0.61,0.61c-0.17,0-0.27-0.15-0.32-0.27l-0.86-2.4
					c0.44,0.1,0.73,0.17,1.74,0.17c0.69,0,1.18-0.05,1.44-0.05c0.44-0.88,1.15-2.62,1.47-3.6h-1.57c-0.66,0-1.84,0.02-2.89,0.22
					l-0.49-0.98c2.01,0.15,3.48,0.17,3.77,0.17h9.72l0.88-1.15c0.15-0.2,0.27-0.32,0.39-0.32s0.25,0.1,0.44,0.25l1.59,1.18
					c0.15,0.1,0.25,0.22,0.25,0.37C353.76,220.19,353.54,220.21,353.39,220.21z"/>
				<path d="M368.61,217.93h-3.4v2.4c0.42,0.2,3.18,1.89,3.18,3.58c0,0.56-0.29,1.1-0.91,1.1c-0.81,0-0.93-0.54-1.27-2.08
					c-0.15-0.61-0.56-1.71-1-2.25c0,7.13,0,7.94,0.02,9.94c0,0.42,0.07,2.18,0.07,2.55c0,0.25,0,1.22-1.15,1.22
					c-0.81,0-0.81-0.51-0.81-0.73c0-0.25,0.05-0.56,0.05-0.71c0.1-1.71,0.34-9.85,0.37-10.92c-0.91,2.35-2.96,5.49-4.8,6.81
					l-0.12-0.1c1.59-2.03,3.7-6.69,4.6-10.8c-0.93,0-2.08,0-3.28,0.22l-0.49-0.98c1.47,0.12,2.96,0.17,4.09,0.17
					c-0.07-3.85-0.42-4.65-0.78-5.56l2.62,0.86c0.34,0.12,0.42,0.22,0.42,0.42c0,0.39-0.51,0.59-0.81,0.69v3.6h1.1l0.51-0.88
					c0.1-0.17,0.2-0.32,0.37-0.32c0.15,0,0.39,0.2,0.47,0.24l1.08,0.91c0.12,0.1,0.24,0.2,0.24,0.37
					C368.97,217.88,368.78,217.93,368.61,217.93z M380.17,233.8c-2.28-1.18-3.85-2.64-5.09-4.9c-1.1,0.86-4.24,2.69-6.32,3.75
					c-0.22,0.44-0.34,0.73-0.56,0.73c-0.12,0-0.32-0.15-0.42-0.29l-1.35-2.03c1.22,0.07,1.42,0.02,3.21-0.49
					c0.05-1.93,0.07-8.91,0.07-9.75c0-1.96,0-6.51-0.34-8.13l2.3,1.2h5.41l0.78-0.64c0.17-0.12,0.24-0.17,0.34-0.17
					c0.12,0,0.32,0.15,0.37,0.17l1.08,0.81c0.17,0.15,0.29,0.25,0.29,0.42c0,0.22-0.17,0.47-0.93,0.91c0,0.76,0.02,2.99,0.05,3.58
					c0.02,1.13,0.12,3.26,0.12,3.35c0,0.44,0,1.08-1.18,1.08c-0.73,0-0.71-0.32-0.66-1.1h-3.7c0.39,2.18,1.08,3.5,1.49,4.29
					c1.69-1,3.55-2.52,4.14-3.45l1.49,1.47c0.12,0.12,0.2,0.24,0.2,0.42c0,0.37-0.29,0.42-0.47,0.42c-0.15,0-0.42-0.05-0.56-0.07
					c-1.49,0.76-4.29,1.52-4.6,1.57c0.88,1.42,2.74,4.07,7.37,5.04v0.12C381.39,232.38,380.51,233.44,380.17,233.8z M377.35,214.48
					h-6.02v3.28h6.02V214.48z M377.35,218.35h-6.02v3.35h6.02V218.35z M373.19,222.29h-1.86c0,0.37,0.02,6.83,0.02,7.69
					c1.42-0.47,2.55-0.88,3.58-1.35C374.36,227.56,373.38,225.48,373.19,222.29z"/>
				<path d="M405.74,226.43l0.93-1.15c0.1-0.12,0.22-0.32,0.37-0.32c0.15,0,0.27,0.12,0.44,0.27l1.2,1.15
					c0.12,0.1,0.25,0.24,0.25,0.39c0,0.17-0.12,0.24-0.37,0.24h-5.09l1.52,1.18c0.1,0.07,0.29,0.27,0.29,0.44
					c0,0.17-0.15,0.27-0.47,0.27c-0.12,0-0.34-0.05-0.44-0.07c-1.1,0.25-1.64,0.37-2.74,0.66c2.3,1.67,5.12,2.4,7.96,2.4v0.15
					c-1.13,0.51-1.76,1.3-2.13,2.08c-0.88-0.24-3.21-0.88-5.8-3.35c-3.18,1.15-6.39,2.2-9.62,3.16c-0.07,0.15-0.17,0.34-0.25,0.47
					c-0.1,0.17-0.17,0.2-0.32,0.2c-0.17,0-0.27-0.12-0.37-0.32l-1.1-2.11c0.32,0.05,0.51,0.1,1.18,0.1c0.39,0,0.83,0,2.99-0.34
					v-2.67c-2.33,1.08-4.75,1.94-7.27,2.35v-0.2c2.25-0.66,7.05-3.55,8.11-4.38h-4.7c-0.25,0-1.76,0-2.89,0.22l-0.49-0.96
					c1.64,0.12,3.33,0.15,3.77,0.15h6.22v-1.98h-5.34c-0.64,0-1.81,0.02-2.89,0.22l-0.49-0.98c1.69,0.15,3.45,0.17,3.77,0.17h4.95
					v-1.81h-4.14c0,0.59-0.51,1.03-1.13,1.03c-0.15,0-0.59-0.1-0.59-0.64c0-0.07,0-0.22,0.02-0.44c0.07-1.22,0.07-2.57,0.07-2.84
					c0-1.84-0.07-2.3-0.2-3.13l2.08,0.86h9.67l0.32-0.37c0.12-0.15,0.27-0.34,0.42-0.34s0.29,0.1,0.47,0.2l0.91,0.59
					c0.15,0.1,0.25,0.22,0.25,0.37s-0.05,0.22-0.2,0.37c-0.15,0.15-0.34,0.32-0.47,0.42v1.49c0,0.29,0.07,1.86,0.07,2.08
					c0,0.86-0.73,1.05-1.05,1.05c-0.56,0-0.61-0.47-0.61-0.69h-4.33v1.81H404l0.78-0.88c0.15-0.15,0.27-0.29,0.39-0.29
					c0.12,0,0.29,0.12,0.47,0.24l1.15,0.91c0.12,0.1,0.25,0.22,0.25,0.37c0,0.22-0.2,0.24-0.37,0.24h-8.2v1.98H405.74z
					 M404.78,214.85l0.86-1.03c0.22-0.27,0.29-0.34,0.42-0.34c0.1,0,0.2,0.05,0.47,0.27l1.27,1.05c0.17,0.12,0.27,0.22,0.27,0.39
					c0,0.22-0.2,0.24-0.37,0.24h-16.87c-0.61,0-1.79,0.02-2.89,0.22l-0.47-0.98c1.67,0.15,3.4,0.17,3.75,0.17h5.68
					c-0.02-1.15-0.22-2.08-0.56-3.13l2.6,0.64c0.29,0.07,0.44,0.12,0.44,0.37c0,0.27-0.17,0.42-0.71,0.69
					c-0.02,0.25-0.02,0.96-0.02,1.45H404.78z M392.76,217.47v1.69h4.14v-1.69H392.76z M392.76,219.75v1.71h4.14v-1.71H392.76z
					 M398.02,227.02c-0.47,0.34-1.15,0.81-2.18,1.37v3.23c1.05-0.17,3.62-0.61,5.51-1.1c-1.62-1.59-2.25-2.87-2.45-3.5H398.02z
					 M402.8,219.16v-1.69h-4.33v1.69H402.8z M402.8,221.46v-1.71h-4.33v1.71H402.8z M399.27,227.02c0.34,0.56,0.96,1.37,2.08,2.25
					c0.59-0.54,1.74-1.64,2.08-2.25H399.27z"/>
				<path d="M422,213.92c0,2.55,0,15.7,0.02,16.97c0,0.34,0.1,1.86,0.1,2.16c0,0.32,0,1.3-1.15,1.3c-0.78,0-0.78-0.59-0.78-0.81
					c0-0.59,0.1-3.21,0.12-3.75c0.02-1.27,0.05-1.93,0.05-3.82c-0.34,0.25-1.3,0.98-1.89,1.37c-1.84,1.22-2.03,1.35-2.33,1.57
					c-0.12,0.59-0.22,0.86-0.49,0.86c-0.17,0-0.32-0.12-0.47-0.34l-1.49-2.25c0.76,0,1.67-0.1,2.52-0.34
					c-0.1-7.13-0.15-10.29-0.29-11.36c-0.05-0.34-0.1-0.59-0.29-1.42l2.5,0.86c0.22,0.07,0.44,0.2,0.44,0.42
					c0,0.25-0.22,0.39-0.76,0.76c-0.05,0.47-0.05,0.86-0.05,1.32c0,1.42,0.02,7.67,0.05,8.94c0.39-0.15,2.2-0.76,2.55-0.88
					c0.02-4.31,0.07-8.89-0.1-11.56c-0.05-0.91-0.17-1.25-0.42-2.01l2.52,0.78c0.37,0.12,0.51,0.22,0.51,0.42
					C422.88,213.31,422.69,213.5,422,213.92z M435.08,233.56c-2.33-1.13-4.16-2.99-5.51-5.19c-0.83,1.08-3.43,4.21-6.96,5.31
					l-0.1-0.15c3.38-2.18,5.51-5.34,6.25-6.61c-1.74-3.72-2.38-7.81-2.42-11.93c-0.32,0-1.4,0.02-2.4,0.22l-0.49-0.98
					c1.25,0.1,2.5,0.17,3.77,0.17h4.73l0.88-0.78c0.17-0.15,0.29-0.22,0.42-0.22c0.12,0,0.25,0.07,0.42,0.22l1.22,1.05
					c0.15,0.12,0.29,0.27,0.29,0.44c0,0.22-0.44,0.54-1.08,0.83c-0.07,0.32-1.25,5.07-1.4,5.63c-0.59,2.38-1.69,4.53-2.18,5.34
					c1.52,1.91,4.31,4.19,6.76,4.58v0.2C435.86,231.99,435.45,232.82,435.08,233.56z M426.68,214.99c0.29,3.72,1.67,8.4,2.87,10.46
					c1.4-2.96,2.4-7.08,2.6-10.46H426.68z"/>
				<path d="M444.27,226.46c-0.49,1.74-1.81,4.48-3.18,6.02l-0.12-0.05c0.86-2.25,1.59-4.58,1.59-7c0-0.37-0.02-0.59-0.05-0.81
					l2.16,0.81c0.12,0.05,0.39,0.15,0.39,0.34C445.05,225.99,444.98,226.04,444.27,226.46z M449.41,224.52
					c-0.59,0-0.73-0.39-0.83-0.71c-0.15-0.42-0.32-1.1-0.44-1.52c-0.1,0.02-0.86,0.2-1.3,0.29c0,0.83-0.02,4.51-0.02,5.27
					c0,0.42,0.15,5.34,0.15,5.49c0,0.69-0.81,0.86-1.08,0.86c-0.71,0-0.71-0.44-0.71-0.78c0-0.17,0.17-5.12,0.17-5.46
					c0-0.78,0.02-4.33,0.02-5.07c-1.62,0.37-2.11,0.49-2.79,0.69c-0.27,0.42-0.37,0.49-0.51,0.49c-0.17,0-0.37-0.17-0.42-0.37
					l-0.61-2.11c0.69,0.25,1.2,0.34,3.26,0.39c1.3-1.69,3.67-5,3.89-6.54l1.89,1.1c0.1,0.05,0.22,0.17,0.22,0.32
					c0,0.29-0.32,0.42-0.76,0.59c-1.37,1.49-3.31,3.36-4.75,4.53c0.49,0,2.23,0,3.23-0.05c-0.17-0.56-0.34-0.86-0.71-1.37l0.1-0.1
					c1.1,0.56,2.94,1.74,2.94,3.18C450.34,224.33,449.73,224.52,449.41,224.52z M447.82,213.79c-0.1,0.07-0.59,0.22-0.69,0.27
					c-0.76,1-1.74,2.16-2.6,2.94c1.05,0.78,1.1,1.47,1.1,1.62c0,0.56-0.44,0.96-0.88,0.96c-0.47,0-0.59-0.17-1.13-1.1
					c-0.81-1.35-1.03-1.62-1.69-2.28l0.05-0.12c0.54,0.1,1.52,0.32,2.28,0.76c0.47-1.08,0.91-2.6,1.15-3.62
					c0.1-0.42,0.1-0.51,0.15-1.2l2.23,1.13c0.17,0.1,0.22,0.27,0.22,0.34C448.01,213.6,447.97,213.7,447.82,213.79z M449.17,229.22
					c-0.64,0-0.83-0.49-0.96-1.32c-0.2-1.4-0.27-1.89-0.69-3.06l0.07-0.05c0.29,0.17,2.55,1.81,2.55,3.38
					C450.15,228.95,449.53,229.22,449.17,229.22z M462.41,217.98c-0.17,0.17-0.54,0.51-0.66,0.64c-0.02,0.54-0.05,0.81-0.05,1.47
					c0,1.71,0.15,9.31,0.15,10.85c0,0.96,0,2.55-2.74,3.26c-0.29-0.78-0.49-1.35-2.13-2.42l0.02-0.1c0.17,0,1.47,0.07,2.08,0.07
					c0.76,0,1,0,1-0.86v-13.2h-3.06c-0.17,2.03-0.39,3.28-0.47,3.67c1.49,0.83,3.21,2.65,3.21,4.09c0,0.78-0.49,1.18-1,1.18
					c-0.69,0-0.83-0.59-0.98-1.44c-0.15-0.76-0.29-1.71-1.32-3.5c-0.56,2.33-2.03,4.73-4.02,5.9c0.02,1.52,0.05,4.14,0.05,5.56
					c0,0.88-1.1,0.91-1.18,0.91c-0.56,0-0.64-0.27-0.64-0.71c0-2.89,0.12-8.94,0.12-9.85c0-2.84-0.02-6.32-0.27-7.44l2.08,1.05h2.74
					c0-1.22,0-4.09-0.34-4.95l2.47,0.73c0.22,0.07,0.32,0.22,0.32,0.37c0,0.2-0.07,0.25-0.64,0.76c-0.02,0.76-0.02,1.64-0.1,3.09
					h2.79l0.64-0.64c0.2-0.2,0.24-0.22,0.37-0.22c0.1,0,0.2,0.02,0.37,0.17l1.1,0.88c0.12,0.1,0.22,0.2,0.22,0.37
					C462.56,217.76,462.54,217.86,462.41,217.98z M452.45,217.69c-0.05,3.18-0.02,6.46,0,9.65c2.6-3.35,2.87-7.15,2.91-9.65H452.45z
					"/>
			</g>
		</g>
		<g>
			<g>
				<path d="M33.58,256.72l0.85-1.12c0.12-0.17,0.19-0.25,0.31-0.25s0.15,0.04,0.39,0.23l1.39,1.1c0.1,0.08,0.21,0.19,0.21,0.33
					c0,0.19-0.19,0.21-0.33,0.21H29.5c0,0.68-0.02,3.67-0.02,4.27c0,0.21,0.02,4.52,0,5.12h5.5l1.04-1.12
					c0.15-0.17,0.21-0.25,0.31-0.25c0.12,0,0.19,0.06,0.39,0.23l1.37,1.1c0.1,0.08,0.21,0.19,0.21,0.31c0,0.19-0.19,0.23-0.31,0.23
					H22.38c-0.21,0-1.49,0-2.45,0.19l-0.41-0.83c1.39,0.12,2.8,0.15,3.19,0.15H28c-0.02-0.19-0.02-4.58-0.02-5.06v-4.33h-4.38
					c-0.27,0-1.43,0-2.45,0.19l-0.42-0.81c1.39,0.1,2.8,0.12,3.19,0.12h4.04c-0.04-4.71-0.04-5.25-0.52-6.76l2.51,0.66
					c0.21,0.06,0.33,0.1,0.33,0.29c0,0.17-0.1,0.25-0.19,0.31c-0.08,0.08-0.48,0.39-0.6,0.48c0,1.68-0.02,3.34-0.02,5.02H33.58z"/>
				<path d="M49.95,256.85h-2.43v6.68c1.68-0.5,2.16-0.68,2.63-0.85l0.08,0.17c-0.73,0.54-1.7,1.1-2.99,1.76
					c-0.85,0.44-1.93,0.97-2.55,1.29c-0.19,0.44-0.27,0.66-0.52,0.66c-0.15,0-0.27-0.15-0.33-0.25l-1.08-1.85
					c0.71,0.04,1.06,0.08,3.4-0.56c0-0.71,0.02-3.86,0.02-4.5v-2.55h-0.42c-0.37,0-1.43,0-2.45,0.19l-0.39-0.83
					c1.22,0.1,2.47,0.15,3.26,0.15c0-1.04,0-2.07-0.02-3.11c-0.02-1.74-0.06-2.2-0.27-3.07l2.09,0.71c0.1,0.04,0.29,0.12,0.29,0.31
					c0,0.25-0.41,0.56-0.71,0.75c-0.04,1.45-0.04,2.16-0.06,4.42h0.5l0.62-0.68c0.19-0.21,0.25-0.27,0.35-0.27
					c0.12,0,0.25,0.15,0.35,0.23l0.73,0.68c0.1,0.1,0.19,0.19,0.19,0.31C50.26,256.83,50.07,256.85,49.95,256.85z M59.21,267.46
					c-0.48,0.08-4.15,0.08-4.73,0.08c-3.4,0-4-0.17-4-2.43c0-0.81,0.06-4.38,0.06-5.1c0-0.21-0.02-1.14-0.02-1.33
					c-0.83,0.37-1.29,0.6-2.01,1.1l-0.71-0.58c1.12-0.37,2.41-0.93,2.72-1.08v-3.67c0-0.97-0.04-1.43-0.23-2.41l1.93,0.66
					c0.15,0.04,0.31,0.12,0.31,0.29c0,0.19-0.17,0.33-0.66,0.68c-0.02,0.62-0.04,3.32-0.04,3.86l2.26-1.02
					c0.02-2.07,0.02-3.55-0.04-5c-0.04-0.77-0.19-1.49-0.25-1.82l1.99,0.66c0.21,0.06,0.35,0.17,0.35,0.31
					c0,0.19-0.29,0.44-0.73,0.77c-0.04,1.87-0.04,2.14-0.04,4.5l2.01-0.89l0.5-0.83c0.1-0.17,0.21-0.35,0.35-0.35
					s0.27,0.08,0.39,0.17l0.97,0.6c0.08,0.04,0.21,0.19,0.21,0.33c0,0.25-0.23,0.46-0.52,0.73c0,6.22-0.04,7.65-2.47,8.29
					c-0.19-1.04-0.95-1.56-1.24-1.74v-0.1c0.35,0.04,0.48,0.04,0.64,0.04c1.45,0,1.68-0.19,1.68-4.56c0-1.41-0.02-1.64-0.04-2.24
					l-2.47,1.12c0.02,3.05,0.04,5.04,0.06,5.6c0,0.27,0.06,1.49,0.06,1.74c0,1-0.87,1.04-1.06,1.04c-0.29,0-0.5-0.1-0.5-0.54
					c0-0.23,0.06-1.29,0.06-1.49c0.04-1.33,0.04-2.12,0.06-5.76l-2.26,1.02c-0.02,0.83,0,7.2,0.02,7.44c0.02,0.27,0.23,0.5,0.5,0.58
					s3.23,0.08,3.63,0.08c2.14,0,2.78,0,3.21-0.77c0.39-0.73,0.83-2.26,0.91-2.51h0.15c0.04,0.75,0.1,1.97,0.39,2.47
					c0.12,0.21,0.48,0.39,0.48,0.6C61.12,266.3,60.77,267.19,59.21,267.46z"/>
				<path d="M72.99,254.81c0.48-1,1.02-2.61,1.22-3.46H68.8c-0.56,0-1.53,0.02-2.45,0.19l-0.41-0.83c1.06,0.08,2.12,0.15,3.19,0.15
					h12.36l0.91-0.89c0.17-0.17,0.33-0.31,0.39-0.31c0.1,0,0.19,0.06,0.39,0.23l1.16,0.93c0.08,0.06,0.21,0.19,0.21,0.31
					c0,0.21-0.21,0.23-0.33,0.23h-8.07c-0.58,0.95-2.14,2.84-2.68,3.46h7.55l0.58-0.6c0.21-0.21,0.27-0.27,0.39-0.27
					c0.1,0,0.27,0.12,0.37,0.21l0.95,0.81c0.12,0.1,0.17,0.21,0.17,0.27c0,0.19-0.08,0.25-0.83,0.66c0,2.34,0.02,5.31,0.04,7.65
					c0.02,0.97,0.1,2.51,0.1,3.46c0,0.89-0.75,0.97-1.04,0.97c-0.62,0-0.62-0.33-0.58-1.51H69.4c0,0.08,0.02,0.56,0.02,0.66
					c0,0.75-0.66,0.95-1.02,0.95c-0.66,0-0.66-0.46-0.66-0.64c0-0.08,0.06-1.1,0.06-1.26c0.04-2.26,0.15-7.03,0.15-9
					c0-1.49-0.04-2.14-0.29-3.4l2.14,1.04H72.99z M69.4,255.31v10.66h2.76v-10.66H69.4z M76.72,258.46v-3.15h-3.17v3.15H76.72z
					 M76.72,262.09v-3.13h-3.17v3.13H76.72z M76.72,265.97v-3.38h-3.17v3.38H76.72z M81.2,265.97v-10.66h-3.07v10.66H81.2z"/>
				<path d="M88.38,263.67c1.58-1.99,3.23-5.68,3.86-7.94h-0.48c-0.19,0-1.47,0-2.45,0.19l-0.39-0.83c1.18,0.1,2.38,0.15,3.46,0.15
					c0-1-0.04-2.47-0.04-3.36c-1.22,0.25-2.28,0.33-3.38,0.37v-0.17c0.42-0.14,4.52-1.51,5.6-2.32c0.27-0.21,0.35-0.35,0.44-0.5
					l1.43,1.2c0.08,0.06,0.15,0.17,0.15,0.29c0,0.21-0.21,0.21-0.39,0.21c0,0-0.25,0-0.6-0.02c-0.44,0.17-0.91,0.35-1.93,0.62
					c0,0.95,0.02,2.86,0.02,3.67h0.39l0.5-0.75c0.08-0.12,0.19-0.27,0.31-0.27s0.29,0.15,0.39,0.23l0.89,0.75
					c0.1,0.08,0.21,0.19,0.21,0.33c0,0.21-0.21,0.21-0.31,0.21h-2.38c0,0.39,0.02,1.33,0.02,1.82c2.03,0.73,2.72,1.97,2.72,2.61
					c0,0.44-0.31,0.83-0.77,0.83c-0.5,0-0.56-0.21-0.97-1.37c-0.27-0.79-0.48-1.39-0.97-1.8c0.04,3.61,0.04,4.02,0.08,5.6
					c0.04,1.41,0.08,3.05,0.08,3.79c0,0.37,0,1.2-1.04,1.2c-0.54,0-0.6-0.31-0.6-0.71c0-0.68,0.17-3.73,0.19-4.35
					c0.04-2.03,0.02-2.84,0.02-4.65c-0.91,1.97-2.22,3.73-3.92,5.06L88.38,263.67z M95.03,268.05c1.45-0.71,3.79-2.07,4.29-2.99
					l1.49,1.1c0.12,0.08,0.19,0.19,0.19,0.31c0,0.29-0.48,0.27-1,0.27c-1.33,0.68-3.75,1.35-4.94,1.43L95.03,268.05z M104.24,251.54
					l0.52-0.83c0.1-0.17,0.21-0.29,0.31-0.29c0.1,0,0.27,0.15,0.39,0.25l1.02,0.83c0.1,0.08,0.21,0.19,0.21,0.33
					c0,0.19-0.17,0.21-0.31,0.21h-4.4v1.7h1.66l0.5-0.75c0.08-0.12,0.17-0.25,0.31-0.25c0.1,0,0.25,0.12,0.37,0.23l0.85,0.73
					c0.12,0.1,0.21,0.21,0.21,0.33c0,0.19-0.19,0.21-0.31,0.21h-3.59v1.87h3.44l0.6-0.85c0.1-0.17,0.23-0.27,0.33-0.27
					c0.12,0,0.25,0.12,0.37,0.25l0.89,0.83c0.1,0.1,0.21,0.21,0.21,0.33c0,0.21-0.17,0.21-0.31,0.21h-8.63c-0.35,0-1.45,0-2.45,0.19
					l-0.41-0.83c1.06,0.08,2.14,0.15,3.19,0.15h1.35v-1.87h-0.5c-0.27,0-1.43,0-2.45,0.21l-0.39-0.83c0.62,0.04,1.53,0.12,3.34,0.12
					c0-0.81-0.02-1.31-0.02-1.7h-1.37c-0.37,0-1.45,0-2.45,0.19l-0.41-0.83c1.51,0.12,2.84,0.15,3.19,0.15h1.02
					c-0.02-0.93-0.04-1.16-0.37-2.22l2.12,0.64c0.1,0.02,0.29,0.08,0.29,0.31c0,0.27-0.48,0.5-0.58,0.54v0.73H104.24z
					 M103.76,258.03l0.48-0.52c0.08-0.08,0.21-0.21,0.29-0.21c0.1,0,0.25,0.12,0.33,0.19l0.81,0.68c0.12,0.1,0.23,0.23,0.23,0.37
					c0,0.21-0.25,0.37-0.6,0.54c-0.02,0.21-0.02,0.35-0.02,0.77c0,0.71,0.17,3.79,0.17,4.42c0,0.29-0.04,0.95-0.95,0.95
					c-0.54,0-0.54-0.27-0.52-0.71h-4.94c0.04,0.48,0.06,0.95-0.93,0.95c-0.35,0-0.54-0.1-0.54-0.48c0-0.04,0.02-0.21,0.04-0.5
					c0.04-0.77,0.04-3.01,0.04-3.92c0-1.82,0-2.01-0.23-3.28l1.64,0.73H103.76z M99.04,258.53V260h4.94v-1.47H99.04z M99.04,260.5
					v1.49h4.94v-1.49H99.04z M99.04,262.49v1.53h4.94v-1.53H99.04z M102.52,265.31c1.87,0.17,4.5,1.1,4.5,2.34
					c0,0.5-0.46,0.81-0.83,0.81c-0.48,0-0.95-0.52-1.31-0.91c-0.12-0.17-1.26-1.47-2.36-2.09V265.31z"/>
				<path d="M114.42,254.79c0,0.66-0.56,1.2-1.2,1.2c-0.66,0-1.2-0.54-1.2-1.2s0.52-1.2,1.2-1.2
					C113.88,253.59,114.42,254.11,114.42,254.79z M114.42,262.96c0,0.68-0.56,1.2-1.2,1.2c-0.66,0-1.2-0.52-1.2-1.2
					c0-0.64,0.52-1.2,1.2-1.2C113.88,261.76,114.42,262.3,114.42,262.96z"/>
				<path d="M119.38,266.1h1.14c1.08,0,1.45-0.42,1.45-1.27v-11.22c0-0.64-0.6-0.75-1-0.75h-1.58v-0.64h0.37
					c1.6,0,3.13-0.73,3.38-0.87c0.15-0.08,0.21-0.12,0.29-0.12c0.19,0,0.23,0.12,0.23,0.29v13.31c0,0.89,0.44,1.27,1.45,1.27h1.14
					v0.66h-6.88V266.1z"/>
				<path d="M138.75,259.71c0.95,0.81,1.41,1.85,1.41,3.07c0,2.55-2.09,4.38-4.83,4.38c-2.24,0-4.13-1.27-4.13-2.92
					c0-0.91,0.6-1.33,1.18-1.33c0.71,0,1.02,0.6,1.02,1.04c0,0.31-0.06,0.5-0.12,0.66c-0.04,0.12-0.06,0.27-0.06,0.48
					c0,0.79,0.89,1.37,1.87,1.37c1.6,0,3.21-1.58,3.21-3.67c0-2.14-1.58-3.79-3.23-3.79c-0.12,0-0.71,0.08-0.83,0.08
					c-0.31,0-0.46-0.19-0.46-0.44c0-0.27,0.21-0.48,0.48-0.48c0.12,0,0.75,0.12,0.89,0.12c1.74,0,2.84-1.56,2.84-3.23
					c0-1.62-0.97-3.11-2.61-3.11c-1.1,0-1.68,0.79-1.68,1.39c0,0.1,0.04,0.21,0.06,0.31c0.04,0.15,0.06,0.35,0.06,0.5
					c0,0.64-0.48,1.14-1.06,1.14c-0.68,0-1.04-0.6-1.04-1.14c0-1.14,1.33-2.9,3.98-2.9c2.55,0,4.15,1.66,4.15,3.48
					c0,0.73-0.27,1.43-0.77,2.12c-0.85,1.12-1.78,1.47-2.63,1.76C137.4,258.88,138.03,259.09,138.75,259.71z"/>
				<path d="M152.04,266.76h-8.15v-0.56c0.42-1.31,1.39-2.76,3.05-4.65c3.05-3.53,4.08-4.71,4.08-6.78c0-1.56-1-2.84-2.76-2.84
					c-1.45,0-2.32,0.87-2.32,1.62c0,0.06,0,0.33,0.21,0.64c0.27,0.42,0.44,0.64,0.44,1.04c0,0.62-0.5,1.16-1.12,1.16
					c-0.73,0-1.18-0.68-1.18-1.45c0-1.51,1.47-3.71,4.46-3.71c2.57,0,4.15,1.62,4.15,3.86c0,2.09-1.2,3.24-3.07,4.83
					c-0.71,0.58-3.44,2.92-4.48,5.21h2.86c2.9,0,3.59-1.12,4.21-2.84l0.62,0.23L152.04,266.76z"/>
				<path d="M159.35,265.95c0.02,0.68-0.56,1.2-1.2,1.2c-0.68,0-1.2-0.54-1.2-1.2s0.52-1.2,1.2-1.2
					C158.79,264.75,159.35,265.29,159.35,265.95z"/>
				<path d="M164.8,253.26l-0.19,5.23c0.89-0.79,1.68-1.43,3.21-1.43c2.99,0,4.42,2.47,4.42,4.75c0,3.01-2.38,5.35-5.12,5.35
					c-2.36,0-3.92-1.76-3.92-3.05c0-0.79,0.5-1.29,1.2-1.29c0.62,0,1.08,0.41,1.08,1.08c0,0.21-0.02,0.29-0.1,0.62
					c-0.04,0.17-0.06,0.46-0.06,0.58c0,0.89,0.93,1.35,1.76,1.35c1.68,0,3.26-1.6,3.26-4.38c0-2.63-1.39-4.08-2.9-4.08
					c-0.83,0-2.09,0.46-3.23,1.8l-0.31-0.17l0.31-8h7.22l-0.42,1.64H164.8z"/>
				<path d="M182.2,251.23h0.85v10.53h2.34v0.66h-2.34v2.41c0,0.91,0.46,1.27,1.45,1.27h0.33v0.66h-5.27v-0.66h0.33
					c0.97,0,1.45-0.33,1.45-1.27v-2.41h-5.58v-0.73L182.2,251.23z M181.35,253.97l-4.79,7.8h4.79V253.97z"/>
				<path d="M192.16,256.56v1.64c0.56-0.56,1.62-1.64,3.42-1.64c1.93,0,2.3,1.26,2.49,1.87c0.68-0.68,1.85-1.87,3.71-1.87
					c1.82,0,2.65,1.1,2.65,3.4v4.89c0,0.79,0.41,1.24,1.04,1.24h0.37v0.66h-4.33v-0.66h0.39c0.73,0,1.04-0.56,1.04-1.24v-4.77
					c0-0.58-0.08-2.63-1.8-2.63c-0.58,0-1.89,0.33-2.94,1.8c0.02,0.17,0.04,0.33,0.04,0.71v4.89c0,0.87,0.48,1.24,1.04,1.24h0.6
					v0.66h-4.77v-0.66h0.6c0.58,0,1.06-0.39,1.06-1.24v-4.77c0-0.44-0.06-2.63-1.8-2.63c-0.5,0-1.82,0.27-2.8,1.64v5.77
					c0,0.87,0.48,1.24,1.04,1.24h0.37v0.66h-4.31v-0.66h0.37c0.62,0,1.04-0.44,1.04-1.24v-6.24c0-0.64-0.37-0.97-0.85-0.97
					c-0.25,0-0.46,0.02-0.62,0.08l-0.1-0.39L192.16,256.56z M202.88,255.33c0.31-0.41,0.48-0.58,1.2-1.33
					c0.44-0.48,1.18-1.29,1.18-2.01c0-0.27-0.17-0.77-0.64-0.77c-0.37,0-0.71,0.29-0.71,0.56c0,0.08,0.19,0.46,0.19,0.54
					c0,0.25-0.23,0.54-0.58,0.54c-0.41,0-0.62-0.35-0.62-0.71c0-0.71,0.79-1.49,1.83-1.49c0.85,0,1.51,0.54,1.51,1.41
					c0,0.77-0.39,1.12-0.64,1.35c-0.23,0.23-1.51,1.27-1.72,1.56h1.29c0.54,0,0.71-0.41,0.81-0.71l0.33,0.1l-0.44,1.43h-2.99V255.33
					z"/>
				<path d="M218.28,268.92c-3.23-2.59-4.91-6.32-4.91-10.04c0-3.71,1.68-7.44,4.91-10.04l0.19,0.29c-3.86,4.08-3.94,8.23-3.94,9.75
					s0.08,5.66,3.94,9.75L218.28,268.92z"/>
				<path d="M226.23,253.8c-0.04,2.09,0.02,11.34,0.02,13.23c0,0.68-0.6,1-1.18,1c-0.48,0-0.54-0.29-0.54-0.56
					c0-0.1,0.02-0.37,0.02-0.5c0.15-2.22,0.25-7.11,0.25-9.21c0-1.95,0-4.02-0.31-5.64l1.99,1.18h5.29
					c0.02-0.27,0.04-0.68,0.04-1.33c0-1.41-0.1-2.03-0.35-2.86l2.26,0.6c0.19,0.04,0.29,0.1,0.29,0.29c0,0.23-0.31,0.44-0.64,0.56
					c0,0.93-0.02,1.76-0.1,2.74h5.5l0.64-0.66c0.1-0.13,0.23-0.25,0.31-0.25c0.12,0,0.27,0.12,0.37,0.21l0.93,0.79
					c0.1,0.08,0.25,0.23,0.25,0.31c0,0.21-0.31,0.41-0.81,0.68c-0.04,2.92,0.08,7.59,0.08,10.49c0,1.76,0,2.59-2.41,3.26
					c-0.27-1.06-0.75-1.49-2.61-2.28l0.02-0.17c0.85,0.08,2.07,0.17,2.43,0.17c0.93,0,1-0.06,1.02-1c0-0.29,0.04-9.81,0-11.05h-5.77
					c-0.25,1.93-0.54,2.84-0.73,3.36c2.34,0.75,5.21,2.59,5.21,4.33c0,0.39-0.25,0.89-0.87,0.89c-0.58,0-0.79-0.37-1.12-1
					c-0.64-1.16-1.41-2.55-3.3-3.96c-0.79,2.14-2.76,4.52-5.89,5.41l-0.04-0.15c4.04-2.63,4.96-5.87,5.25-8.9H226.23z"/>
				<path d="M261.69,256.93c-0.31,0.04-0.48,0.17-0.71,0.37c-1.29,1.22-2.03,1.85-3.69,2.94l-0.12-0.1
					c0.75-0.87,2.03-2.63,2.63-4.02c-0.73,0.23-4.15,1.31-4.67,1.47c-0.23,0.06-1.24,0.39-1.45,0.46c-0.06,1.66-0.08,2.88-0.08,3.53
					c0,2.38,0,3.05,2.53,3.05c1.41,0,2.76-0.29,3.48-0.44c0.27-0.06,0.42-0.08,0.58-0.08c0.37,0,1.26,0.19,1.47,0.37
					c0.1,0.1,0.19,0.25,0.19,0.46c0,0.37-0.23,0.54-0.66,0.66c-0.5,0.17-2.2,0.27-3.69,0.27c-2.12,0-4.42,0-4.91-2.03
					c-0.25-0.95-0.19-4.17-0.15-5.41c-1.89,0.6-2.05,0.68-3.59,1.43c-0.27,0.15-0.39,0.19-0.54,0.19c-0.46,0-1.76-0.97-1.76-2.05
					c0-0.39,0.08-0.73,0.17-1.02c0.77,1.06,0.97,1.37,1.74,1.37c0.79,0,2.14-0.39,4-0.93c0.02-0.83,0.1-4.42-0.19-4.94
					c-0.1-0.19-0.41-0.62-1.6-0.89c0.64-0.39,1.14-0.52,1.45-0.52c0.83,0,2.26,0.48,2.26,1.06c0,0.12-0.19,0.83-0.21,0.89
					c-0.27,0.95-0.37,2.97-0.44,4.04c0.62-0.19,5.6-1.62,5.85-1.78c0.1-0.08,0.56-0.44,0.66-0.52c0.08-0.06,0.17-0.12,0.29-0.12
					c0.33,0,2.14,1.31,2.14,1.8C262.69,256.79,262.63,256.81,261.69,256.93z"/>
				<path d="M269.37,259.73c-0.46,0-0.66-0.48-0.89-1c-0.27-0.58-0.83-1.51-1.51-2.24c1.37,0.21,3.01,1.33,3.01,2.47
					C269.97,259.38,269.76,259.73,269.37,259.73z M277.91,257.64c-0.12,0.15-0.97,1.97-1.16,2.32c-2.99,5.62-6.68,6.59-8.13,6.99
					l-0.04-0.21c6.22-2.9,8-9.54,8-9.83c0-0.5-0.83-0.97-1.1-1.12c0.27-0.06,0.54-0.15,0.91-0.15c0.89,0,1.95,1.1,1.95,1.35
					C278.35,257.14,278.31,257.2,277.91,257.64z M272.93,258.84c-0.44,0-0.5-0.19-0.85-1.14c-0.27-0.77-0.77-1.51-1.24-2.14
					c1.41,0.41,2.72,1.58,2.72,2.47C273.56,258.46,273.33,258.84,272.93,258.84z"/>
				<path d="M291.64,261.22c-0.31,0-0.58-0.27-0.91-0.62c-1.91-2.12-2.99-2.86-4.42-3.4c0,0.81-0.04,4.42-0.02,5.16
					c0,0.54,0.12,2.92,0.12,3.4c0,0.44,0,1.66-0.81,1.66c-0.68,0-0.97-1.2-0.97-1.74c0-0.31,0.02-0.5,0.15-1.39
					c0.25-1.64,0.27-4.91,0.27-6.68c0-0.89-0.02-5.02-0.19-5.68c-0.12-0.46-0.58-0.66-1.66-1.04c0.41-0.25,0.91-0.5,1.37-0.5
					c0.31,0,2.34,0.44,2.34,1.1c0,0.17-0.25,0.87-0.29,1.04c-0.23,0.79-0.27,3.17-0.29,4.19c2.11,0.33,4.21,1.24,5.35,2.24
					c0.37,0.33,0.62,0.85,0.62,1.39C292.3,261.04,291.89,261.22,291.64,261.22z"/>
				<path d="M303.86,256.41c-0.35,0.44-1.56,2.55-1.82,2.97c-1.24,1.97-2.74,3.67-5.74,5.23l-0.04-0.19
					c3.9-3.44,5.83-7.76,5.83-8.65c0-0.52-0.19-1-1.31-1.49c0.23-0.08,0.64-0.19,1.06-0.19c0.97,0,2.47,1.35,2.47,1.7
					C304.29,255.89,304.06,256.18,303.86,256.41z M313.02,263.48c-0.6,0-0.73-0.46-1.26-2.16c-0.85-2.76-3.11-5.64-4.48-6.95
					c2.63,0.79,6.51,4.87,6.51,7.96C313.79,262.9,313.48,263.48,313.02,263.48z M312.46,255.25c-0.29,0-0.37-0.1-1.1-0.95
					c-0.08-0.1-0.85-1.02-1.95-1.66c1.31-0.02,3.52,0.7,3.52,1.99C312.94,255.04,312.69,255.25,312.46,255.25z M314.18,253.36
					c-0.25,0-0.31-0.06-0.87-0.66c-0.19-0.21-1.12-1.04-2.3-1.62c1.33-0.08,3.67,0.5,3.67,1.7
					C314.68,253.18,314.41,253.36,314.18,253.36z"/>
				<path d="M321.01,259.73c-0.46,0-0.66-0.48-0.89-1c-0.27-0.58-0.83-1.51-1.51-2.24c1.37,0.21,3.01,1.33,3.01,2.47
					C321.61,259.38,321.4,259.73,321.01,259.73z M329.55,257.64c-0.12,0.15-0.97,1.97-1.16,2.32c-2.99,5.62-6.68,6.59-8.13,6.99
					l-0.04-0.21c6.22-2.9,8-9.54,8-9.83c0-0.5-0.83-0.97-1.1-1.12c0.27-0.06,0.54-0.15,0.91-0.15c0.89,0,1.95,1.1,1.95,1.35
					C329.99,257.14,329.95,257.2,329.55,257.64z M324.58,258.84c-0.44,0-0.5-0.19-0.85-1.14c-0.27-0.77-0.77-1.51-1.24-2.14
					c1.41,0.41,2.72,1.58,2.72,2.47C325.2,258.46,324.97,258.84,324.58,258.84z"/>
				<path d="M346.87,255.69c-0.48,0.21-0.66,0.39-1.12,1.29c-1.99,3.88-4.17,6.47-7.34,8.44c-1.1,0.68-2.51,1.41-4.06,1.76
					l-0.04-0.15c4.52-2.51,8.71-7.09,10.62-11.92c-0.85,0.08-2.26,0.29-3.11,0.41c-0.15,0.02-0.56,0.08-0.66,0.08
					c-0.21,0-0.58-0.08-1.06-0.35c-1.93,2.55-3.44,3.73-5.5,4.81l-0.1-0.17c3.4-3.11,5.41-6.84,5.41-7.51
					c0-0.21-0.04-0.37-1.14-1.04c0.5-0.17,0.95-0.17,1.02-0.17c0.83,0,2.34,0.95,2.34,1.49c0,0.19-0.08,0.29-0.48,0.66
					c-0.21,0.19-0.75,0.89-1.02,1.22c0.93,0.1,3.53-0.19,4.06-0.37c0.19-0.06,0.89-0.62,1.1-0.62c0.23,0,1.72,1.24,1.72,1.64
					C347.51,255.35,347.45,255.42,346.87,255.69z"/>
				<path d="M355.66,257.66c0.44-0.27,1.08-0.54,1.8-0.54c2.05,0,3.71,2.07,3.71,4.58c0,2.88-2.05,5.45-4.44,5.45
					c-2.36,0-4.77-2.68-4.77-7.15c0-4.79,2.7-8.77,5.87-8.77c1.39,0,2.36,0.83,2.36,1.82c0,0.75-0.58,1.08-1.06,1.08
					c-0.41,0-1.1-0.27-1.14-1.45c-0.02-0.46-0.06-0.75-0.62-0.75c-0.56,0-1.12,0.31-1.51,0.75c-1.85,2.03-1.95,5.08-2.03,6.95
					C354.23,258.98,354.67,258.26,355.66,257.66z M354.98,265.33c0.35,0.56,0.89,1.12,1.68,1.12c1.1,0,2.65-1.14,2.65-4.56
					c0-0.93-0.23-3.84-2.36-3.84c-0.79,0-2.12,0.58-3.09,2.82C353.94,262.01,354.11,264,354.98,265.33z"/>
				<path d="M367.38,265.95c0.02,0.68-0.56,1.2-1.2,1.2c-0.68,0-1.2-0.54-1.2-1.2s0.52-1.2,1.2-1.2
					C366.82,264.75,367.38,265.29,367.38,265.95z"/>
				<path d="M375.76,267.15c-1.43,0-2.63-1-3.4-2.24c-0.87-1.43-1.26-3.98-1.26-5.91c0-4.42,1.89-7.78,4.67-7.78
					c2.14,0,4.67,2.3,4.67,7.96C380.43,264.27,378.29,267.15,375.76,267.15z M373.44,254.69c-0.29,1.04-0.48,2.78-0.48,4.5
					c0,4.62,1.1,7.26,2.8,7.26c1.43,0,2.07-1.91,2.3-2.7c0.29-1.06,0.5-2.82,0.5-4.56c0-4.73-1.14-7.26-2.8-7.26
					C374.29,251.93,373.65,253.97,373.44,254.69z"/>
				<path d="M385.7,253.26l-0.19,5.23c0.89-0.79,1.68-1.43,3.21-1.43c2.99,0,4.42,2.47,4.42,4.75c0,3.01-2.38,5.35-5.12,5.35
					c-2.36,0-3.92-1.76-3.92-3.05c0-0.79,0.5-1.29,1.2-1.29c0.62,0,1.08,0.41,1.08,1.08c0,0.21-0.02,0.29-0.1,0.62
					c-0.04,0.17-0.06,0.46-0.06,0.58c0,0.89,0.93,1.35,1.76,1.35c1.68,0,3.26-1.6,3.26-4.38c0-2.63-1.39-4.08-2.9-4.08
					c-0.83,0-2.09,0.46-3.24,1.8l-0.31-0.17l0.31-8h7.22l-0.42,1.64H385.7z"/>
				<path d="M400.19,256.56v1.64c0.56-0.56,1.62-1.64,3.42-1.64c1.93,0,2.3,1.26,2.49,1.87c0.68-0.68,1.85-1.87,3.71-1.87
					c1.82,0,2.65,1.1,2.65,3.4v4.89c0,0.79,0.41,1.24,1.04,1.24h0.37v0.66h-4.33v-0.66h0.39c0.73,0,1.04-0.56,1.04-1.24v-4.77
					c0-0.58-0.08-2.63-1.8-2.63c-0.58,0-1.89,0.33-2.94,1.8c0.02,0.17,0.04,0.33,0.04,0.71v4.89c0,0.87,0.48,1.24,1.04,1.24h0.6
					v0.66h-4.77v-0.66h0.6c0.58,0,1.06-0.39,1.06-1.24v-4.77c0-0.44-0.06-2.63-1.8-2.63c-0.5,0-1.82,0.27-2.8,1.64v5.77
					c0,0.87,0.48,1.24,1.04,1.24h0.37v0.66h-4.31v-0.66h0.37c0.62,0,1.04-0.44,1.04-1.24v-6.24c0-0.64-0.37-0.97-0.85-0.97
					c-0.25,0-0.46,0.02-0.62,0.08l-0.1-0.39L400.19,256.56z M410.91,255.33c0.31-0.41,0.48-0.58,1.2-1.33
					c0.44-0.48,1.18-1.29,1.18-2.01c0-0.27-0.17-0.77-0.64-0.77c-0.37,0-0.71,0.29-0.71,0.56c0,0.08,0.19,0.46,0.19,0.54
					c0,0.25-0.23,0.54-0.58,0.54c-0.41,0-0.62-0.35-0.62-0.71c0-0.71,0.79-1.49,1.83-1.49c0.85,0,1.51,0.54,1.51,1.41
					c0,0.77-0.39,1.12-0.64,1.35c-0.23,0.23-1.51,1.27-1.72,1.56h1.29c0.54,0,0.71-0.41,0.81-0.71l0.33,0.1l-0.44,1.43h-2.99V255.33
					z"/>
				<path d="M418.86,268.92l-0.19-0.29c3.86-4.08,3.94-8.23,3.94-9.75s-0.08-5.66-3.94-9.75l0.19-0.29
					c3.23,2.59,4.91,6.32,4.91,10.04C423.77,262.59,422.09,266.32,418.86,268.92z"/>
				<path d="M471.84,267.67c-7.53-0.1-10.76-0.15-13.56-2.86c-1.26,1.87-2.45,2.7-4.23,3.59l-0.12-0.13
					c1.64-1.41,2.67-2.51,3.59-4.31c-1.33-1.66-1.74-3.26-1.93-4l0.21-0.17c0.66,1.89,1.76,3.07,2.09,3.4
					c0.64-1.49,1.16-3.4,1.16-5.64h-1.74c-0.41,1.16-0.52,1.47-1.2,1.47c-0.15,0-0.75-0.02-0.75-0.48c0-0.12,0.31-0.97,0.5-1.47
					c1.08-2.78,1.93-5.04,2.18-5.95h-0.75c-0.35,0-1.51,0-2.45,0.19l-0.39-0.83c1.06,0.08,2.11,0.15,3.17,0.15h0.37l0.54-0.44
					c0.19-0.15,0.29-0.21,0.39-0.21c0.08,0,0.21,0.08,0.35,0.21l0.81,0.68c0.17,0.12,0.21,0.25,0.21,0.37
					c0,0.25-0.42,0.44-0.95,0.66c-0.46,1.16-0.73,1.87-1.87,5.14h1.41l0.56-0.44c0.17-0.13,0.29-0.21,0.39-0.21
					c0.15,0,0.25,0.08,0.39,0.23l0.64,0.66c0.17,0.17,0.25,0.31,0.25,0.44c0,0.19-0.21,0.31-0.64,0.58c-0.19,1.99-0.71,3.92-1.7,5.7
					c1.99,1.6,4.67,2.05,7.22,2.05c2.47,0,5.37-0.27,7.3-0.6l0.04,0.17C472.13,266.24,471.97,267.09,471.84,267.67z M473.07,254.75
					h-2.86c0.08,2.47,0.08,2.47,0.08,2.61c0,0.42,0,1.06-1,1.06c-0.56,0-0.54-0.33-0.52-0.68h-2.55v2.16h3.11l0.62-0.79
					c0.15-0.17,0.23-0.27,0.35-0.27s0.23,0.1,0.39,0.23l0.93,0.79c0.1,0.1,0.21,0.23,0.21,0.31c0,0.19-0.15,0.23-0.31,0.23h-5.31
					l0.02,2.2h3.69l0.79-0.91c0.17-0.19,0.25-0.27,0.35-0.27c0.12,0,0.23,0.08,0.37,0.23l0.97,0.91c0.15,0.12,0.21,0.25,0.21,0.35
					c0,0.12-0.12,0.19-0.31,0.19h-6.08c0,0.25,0.04,1.47,0,1.74c-0.02,0.27-0.39,0.75-0.91,0.75c-0.66,0-0.66-0.37-0.66-0.6
					c0-0.27,0.1-1.58,0.1-1.89h-1.41c-0.15,0-1.47,0-2.43,0.19l-0.41-0.81c1.62,0.12,3.15,0.12,3.19,0.12h1.08
					c0.02-0.56,0.02-1.08,0.04-2.2h-0.62c-0.54,0-1.53,0.02-2.43,0.19l-0.41-0.81c0.62,0.04,1.78,0.13,3.48,0.13v-2.16h-0.42
					c-0.17,0-1.47,0-2.45,0.19l-0.41-0.81c1.49,0.1,3.07,0.13,3.28,0.13l0.02-2.49h-1.93c-0.54,0-1.53,0.02-2.43,0.19l-0.41-0.83
					c1.06,0.1,2.11,0.15,3.17,0.15h1.6l-0.02-2.43h-0.5c-0.35,0-1.47,0.02-2.45,0.19l-0.39-0.83c1.45,0.13,2.8,0.15,3.32,0.15
					c0-1.04-0.02-1.27-0.31-1.93l1.99,0.48c0.23,0.06,0.35,0.15,0.35,0.33c0,0.21-0.25,0.37-0.58,0.56v0.56h2.41l0.52-0.46
					c0.15-0.13,0.25-0.21,0.37-0.21s0.23,0.1,0.37,0.23l0.58,0.56c0.15,0.13,0.25,0.27,0.25,0.39c0,0.17-0.17,0.29-0.58,0.58
					c-0.04,0.39-0.04,0.42,0,1.83h0.75l0.6-0.77c0.12-0.17,0.23-0.25,0.33-0.25c0.12,0,0.25,0.08,0.39,0.21l0.89,0.77
					c0.1,0.1,0.21,0.21,0.21,0.31C473.38,254.65,473.28,254.75,473.07,254.75z M468.82,254.75h-2.57l-0.02,2.49h2.59V254.75z
					 M468.82,251.83h-2.53l-0.04,2.43h2.57V251.83z"/>
				<path d="M483.09,260.64c0,2.51,0,2.94,0.04,4.15c0.02,0.73,0.08,1.89,0.08,2.61c0,0.85-0.89,0.95-1.08,0.95
					c-0.46,0-0.56-0.27-0.56-0.58c0-0.08,0.04-0.85,0.04-1c0.08-1.56,0.08-2.12,0.12-5.43c-1.51,0.79-2.11,1.02-2.55,1.18
					c-0.02,0.37-0.06,0.73-0.39,0.73c-0.23,0-0.35-0.23-0.41-0.35l-0.98-1.87c1.29,0.06,1.64,0.04,4.35-0.79
					c0-1.83,0.02-3.88,0-5.45h-1.87c-0.62,2.51-1.51,4.02-1.85,4.58l-0.12-0.04c0.79-3.07,0.93-6.3,0.93-7.2
					c0-0.77-0.08-1.04-0.21-1.41l1.99,0.48c0.17,0.04,0.35,0.08,0.35,0.31c0,0.29-0.29,0.42-0.62,0.54c-0.1,0.97-0.21,1.6-0.35,2.24
					h1.72c-0.04-2.92-0.1-3.77-0.56-4.81l2.28,0.66c0.12,0.04,0.31,0.15,0.31,0.29c0,0.25-0.35,0.44-0.66,0.6
					c-0.02,0.44-0.02,2.63-0.02,3.26h0.41l0.58-0.79c0.1-0.12,0.21-0.27,0.31-0.27c0.12,0,0.27,0.12,0.37,0.23l0.83,0.79
					c0.08,0.08,0.19,0.19,0.19,0.31c0,0.19-0.19,0.23-0.31,0.23h-2.38c0,1.33-0.02,3.65,0,4.98c0.41-0.15,2.34-0.81,2.72-0.95
					l0.06,0.15C485.29,259.38,484.64,259.79,483.09,260.64z M495.32,255.02c-0.17,4.33-0.33,8.27-1.64,10.97
					c-0.79,1.64-2.28,1.91-3.21,2.09c-0.15-0.93-0.48-1.51-1.76-2.45l0.06-0.15c1.37,0.39,2.16,0.44,2.51,0.44
					c0.5,0,0.83,0,1.41-1.47c0.73-1.91,1.31-6.45,1.16-10.04h-1.18c-0.6,4.69-2.59,10.72-8.58,12.98l-0.06-0.15
					c4.4-3.3,6.26-6.8,7.13-12.84h-1.16c-0.85,4.37-3.19,8.15-6.2,9.56l-0.06-0.12c2.55-2.55,4.19-6.06,4.75-9.44h-1.04
					c-0.66,1.49-1.58,2.94-2.8,4.13l-0.1-0.1c2.03-3.82,2.67-7.59,2.67-8.46c0-0.23-0.02-0.39-0.1-0.71l2.07,0.83
					c0.21,0.08,0.31,0.21,0.31,0.33c0,0.27-0.39,0.37-0.73,0.46c-0.54,1.66-0.89,2.51-1.1,3.03h5.97l0.5-0.52
					c0.12-0.14,0.23-0.23,0.31-0.23s0.23,0.08,0.37,0.19l0.97,0.73c0.15,0.1,0.23,0.17,0.23,0.29
					C496.03,254.69,495.55,254.92,495.32,255.02z"/>
				<path d="M508.1,254.81c0.48-1,1.02-2.61,1.22-3.46h-5.41c-0.56,0-1.53,0.02-2.45,0.19l-0.41-0.83c1.06,0.08,2.12,0.15,3.19,0.15
					h12.36l0.91-0.89c0.17-0.17,0.33-0.31,0.39-0.31c0.1,0,0.19,0.06,0.39,0.23l1.16,0.93c0.08,0.06,0.21,0.19,0.21,0.31
					c0,0.21-0.21,0.23-0.33,0.23h-8.07c-0.58,0.95-2.14,2.84-2.68,3.46h7.55l0.58-0.6c0.21-0.21,0.27-0.27,0.39-0.27
					c0.1,0,0.27,0.12,0.37,0.21l0.95,0.81c0.12,0.1,0.17,0.21,0.17,0.27c0,0.19-0.08,0.25-0.83,0.66c0,2.34,0.02,5.31,0.04,7.65
					c0.02,0.97,0.1,2.51,0.1,3.46c0,0.89-0.75,0.97-1.04,0.97c-0.62,0-0.62-0.33-0.58-1.51h-11.8c0,0.08,0.02,0.56,0.02,0.66
					c0,0.75-0.66,0.95-1.02,0.95c-0.66,0-0.66-0.46-0.66-0.64c0-0.08,0.06-1.1,0.06-1.26c0.04-2.26,0.15-7.03,0.15-9
					c0-1.49-0.04-2.14-0.29-3.4l2.14,1.04H508.1z M504.51,255.31v10.66h2.76v-10.66H504.51z M511.83,258.46v-3.15h-3.17v3.15H511.83
					z M511.83,262.09v-3.13h-3.17v3.13H511.83z M511.83,265.97v-3.38h-3.17v3.38H511.83z M516.31,265.97v-10.66h-3.07v10.66H516.31z
					"/>
				<path d="M523.49,263.67c1.58-1.99,3.23-5.68,3.86-7.94h-0.48c-0.19,0-1.47,0-2.45,0.19l-0.39-0.83c1.18,0.1,2.38,0.15,3.46,0.15
					c0-1-0.04-2.47-0.04-3.36c-1.22,0.25-2.28,0.33-3.38,0.37v-0.17c0.42-0.14,4.52-1.51,5.6-2.32c0.27-0.21,0.35-0.35,0.44-0.5
					l1.43,1.2c0.08,0.06,0.15,0.17,0.15,0.29c0,0.21-0.21,0.21-0.39,0.21c0,0-0.25,0-0.6-0.02c-0.44,0.17-0.91,0.35-1.93,0.62
					c0,0.95,0.02,2.86,0.02,3.67h0.39l0.5-0.75c0.08-0.12,0.19-0.27,0.31-0.27s0.29,0.15,0.39,0.23l0.89,0.75
					c0.1,0.08,0.21,0.19,0.21,0.33c0,0.21-0.21,0.21-0.31,0.21h-2.38c0,0.39,0.02,1.33,0.02,1.82c2.03,0.73,2.72,1.97,2.72,2.61
					c0,0.44-0.31,0.83-0.77,0.83c-0.5,0-0.56-0.21-0.97-1.37c-0.27-0.79-0.48-1.39-0.97-1.8c0.04,3.61,0.04,4.02,0.08,5.6
					c0.04,1.41,0.08,3.05,0.08,3.79c0,0.37,0,1.2-1.04,1.2c-0.54,0-0.6-0.31-0.6-0.71c0-0.68,0.17-3.73,0.19-4.35
					c0.04-2.03,0.02-2.84,0.02-4.65c-0.91,1.97-2.22,3.73-3.92,5.06L523.49,263.67z M530.14,268.05c1.45-0.71,3.79-2.07,4.29-2.99
					l1.49,1.1c0.12,0.08,0.19,0.19,0.19,0.31c0,0.29-0.48,0.27-1,0.27c-1.33,0.68-3.75,1.35-4.94,1.43L530.14,268.05z
					 M539.35,251.54l0.52-0.83c0.1-0.17,0.21-0.29,0.31-0.29c0.1,0,0.27,0.15,0.39,0.25l1.02,0.83c0.1,0.08,0.21,0.19,0.21,0.33
					c0,0.19-0.17,0.21-0.31,0.21h-4.4v1.7h1.66l0.5-0.75c0.08-0.12,0.17-0.25,0.31-0.25c0.1,0,0.25,0.12,0.37,0.23l0.85,0.73
					c0.12,0.1,0.21,0.21,0.21,0.33c0,0.19-0.19,0.21-0.31,0.21h-3.59v1.87h3.44l0.6-0.85c0.1-0.17,0.23-0.27,0.33-0.27
					c0.12,0,0.25,0.12,0.37,0.25l0.89,0.83c0.1,0.1,0.21,0.21,0.21,0.33c0,0.21-0.17,0.21-0.31,0.21H534c-0.35,0-1.45,0-2.45,0.19
					l-0.41-0.83c1.06,0.08,2.14,0.15,3.19,0.15h1.35v-1.87h-0.5c-0.27,0-1.43,0-2.45,0.21l-0.39-0.83c0.62,0.04,1.53,0.12,3.34,0.12
					c0-0.81-0.02-1.31-0.02-1.7h-1.37c-0.37,0-1.45,0-2.45,0.19l-0.41-0.83c1.51,0.12,2.84,0.15,3.19,0.15h1.02
					c-0.02-0.93-0.04-1.16-0.37-2.22l2.12,0.64c0.1,0.02,0.29,0.08,0.29,0.31c0,0.27-0.48,0.5-0.58,0.54v0.73H539.35z
					 M538.87,258.03l0.48-0.52c0.08-0.08,0.21-0.21,0.29-0.21c0.1,0,0.25,0.12,0.33,0.19l0.81,0.68c0.12,0.1,0.23,0.23,0.23,0.37
					c0,0.21-0.25,0.37-0.6,0.54c-0.02,0.21-0.02,0.35-0.02,0.77c0,0.71,0.17,3.79,0.17,4.42c0,0.29-0.04,0.95-0.95,0.95
					c-0.54,0-0.54-0.27-0.52-0.71h-4.94c0.04,0.48,0.06,0.95-0.93,0.95c-0.35,0-0.54-0.1-0.54-0.48c0-0.04,0.02-0.21,0.04-0.5
					c0.04-0.77,0.04-3.01,0.04-3.92c0-1.82,0-2.01-0.23-3.28l1.64,0.73H538.87z M534.15,258.53V260h4.94v-1.47H534.15z
					 M534.15,260.5v1.49h4.94v-1.49H534.15z M534.15,262.49v1.53h4.94v-1.53H534.15z M537.63,265.31c1.87,0.17,4.5,1.1,4.5,2.34
					c0,0.5-0.46,0.81-0.83,0.81c-0.48,0-0.95-0.52-1.31-0.91c-0.12-0.17-1.26-1.47-2.36-2.09V265.31z"/>
				<path d="M549.53,254.79c0,0.66-0.56,1.2-1.2,1.2c-0.66,0-1.2-0.54-1.2-1.2s0.52-1.2,1.2-1.2
					C549,253.59,549.53,254.11,549.53,254.79z M549.53,262.96c0,0.68-0.56,1.2-1.2,1.2c-0.66,0-1.2-0.52-1.2-1.2
					c0-0.64,0.52-1.2,1.2-1.2C549,261.76,549.53,262.3,549.53,262.96z"/>
				<path d="M562.56,251.62v1.1c-3.3,5.08-4.46,7.96-4.73,12.59c-0.04,0.54-0.1,1.85-1.16,1.85c-0.52,0-1.06-0.44-1.06-1.14
					c0-1.47,1.45-5.83,5.83-12.75h-3.55c-3.01,0-3.46,1.39-3.92,2.72l-0.62-0.15l0.85-4.21H562.56z"/>
				<path d="M571.71,260.75c-0.44,0.27-1.08,0.54-1.8,0.54c-2.05,0-3.71-2.07-3.71-4.6c0-2.86,2.05-5.45,4.44-5.45
					c2.36,0,4.77,2.7,4.77,7.15c0,4.79-2.7,8.77-5.87,8.77c-1.39,0-2.36-0.83-2.36-1.8c0-0.75,0.58-1.08,1.06-1.08
					c0.41,0,1.1,0.27,1.14,1.43c0.02,0.46,0.06,0.75,0.62,0.75s1.12-0.27,1.51-0.73c1.85-2.03,1.95-5.1,2.03-6.95
					C573.14,259.42,572.7,260.12,571.71,260.75z M572.39,253.05c-0.35-0.56-0.89-1.12-1.68-1.12c-1.1,0-2.65,1.16-2.65,4.56
					c0,0.95,0.23,3.86,2.36,3.86c0.79,0,2.12-0.58,3.09-2.82C573.43,256.39,573.26,254.4,572.39,253.05z"/>
				<path d="M581.6,265.95c0.02,0.68-0.56,1.2-1.2,1.2c-0.68,0-1.2-0.54-1.2-1.2s0.52-1.2,1.2-1.2
					C581.04,264.75,581.6,265.29,581.6,265.95z"/>
				<path d="M593.05,259.71c0.95,0.81,1.41,1.85,1.41,3.07c0,2.55-2.09,4.38-4.83,4.38c-2.24,0-4.13-1.27-4.13-2.92
					c0-0.91,0.6-1.33,1.18-1.33c0.71,0,1.02,0.6,1.02,1.04c0,0.31-0.06,0.5-0.12,0.66c-0.04,0.12-0.06,0.27-0.06,0.48
					c0,0.79,0.89,1.37,1.87,1.37c1.6,0,3.21-1.58,3.21-3.67c0-2.14-1.58-3.79-3.23-3.79c-0.12,0-0.71,0.08-0.83,0.08
					c-0.31,0-0.46-0.19-0.46-0.44c0-0.27,0.21-0.48,0.48-0.48c0.12,0,0.75,0.12,0.89,0.12c1.74,0,2.84-1.56,2.84-3.23
					c0-1.62-0.97-3.11-2.61-3.11c-1.1,0-1.68,0.79-1.68,1.39c0,0.1,0.04,0.21,0.06,0.31c0.04,0.15,0.06,0.35,0.06,0.5
					c0,0.64-0.48,1.14-1.06,1.14c-0.68,0-1.04-0.6-1.04-1.14c0-1.14,1.33-2.9,3.98-2.9c2.55,0,4.15,1.66,4.15,3.48
					c0,0.73-0.27,1.43-0.77,2.12c-0.85,1.12-1.78,1.47-2.63,1.76C591.7,258.88,592.32,259.09,593.05,259.71z"/>
				<path d="M607.52,262.59c0,2.41-1.89,4.56-4.89,4.56c-2.36,0-4.48-1.37-4.48-3.73c0-2.24,1.78-3.3,3.69-4.42
					c-1.1-0.64-3.09-1.8-3.09-4.06c0-2.05,1.62-3.71,4.15-3.71c2.84,0,3.79,2.11,3.79,3.28c0,1.76-1.7,3.05-2.59,3.71
					C606.05,259.42,607.52,260.46,607.52,262.59z M599.89,263.36c0,1.82,1.37,3.09,2.99,3.09c1.8,0,3.15-1.6,3.15-3.13
					c0-1.97-2.05-3.13-3.57-3.98C601.53,260.04,599.89,261.31,599.89,263.36z M605.18,254.73c0-1.58-1.06-2.8-2.57-2.8
					c-1.47,0-2.45,1.12-2.45,2.47c0,1.45,1.18,2.18,3.34,3.46C604.1,257.35,605.18,256.45,605.18,254.73z"/>
				<path d="M614.41,256.56v1.64c0.56-0.56,1.62-1.64,3.42-1.64c1.93,0,2.3,1.26,2.49,1.87c0.68-0.68,1.85-1.87,3.71-1.87
					c1.82,0,2.65,1.1,2.65,3.4v4.89c0,0.79,0.41,1.24,1.04,1.24h0.37v0.66h-4.33v-0.66h0.39c0.73,0,1.04-0.56,1.04-1.24v-4.77
					c0-0.58-0.08-2.63-1.8-2.63c-0.58,0-1.89,0.33-2.94,1.8c0.02,0.17,0.04,0.33,0.04,0.71v4.89c0,0.87,0.48,1.24,1.04,1.24h0.6
					v0.66h-4.77v-0.66h0.6c0.58,0,1.06-0.39,1.06-1.24v-4.77c0-0.44-0.06-2.63-1.8-2.63c-0.5,0-1.82,0.27-2.8,1.64v5.77
					c0,0.87,0.48,1.24,1.04,1.24h0.37v0.66h-4.31v-0.66h0.37c0.62,0,1.04-0.44,1.04-1.24v-6.24c0-0.64-0.37-0.97-0.85-0.97
					c-0.25,0-0.46,0.02-0.62,0.08l-0.1-0.39L614.41,256.56z M625.13,255.33c0.31-0.41,0.48-0.58,1.2-1.33
					c0.44-0.48,1.18-1.29,1.18-2.01c0-0.27-0.17-0.77-0.64-0.77c-0.37,0-0.71,0.29-0.71,0.56c0,0.08,0.19,0.46,0.19,0.54
					c0,0.25-0.23,0.54-0.58,0.54c-0.41,0-0.62-0.35-0.62-0.71c0-0.71,0.79-1.49,1.83-1.49c0.85,0,1.51,0.54,1.51,1.41
					c0,0.77-0.39,1.12-0.64,1.35c-0.23,0.23-1.51,1.27-1.72,1.56h1.29c0.54,0,0.71-0.41,0.81-0.71l0.33,0.1l-0.44,1.43h-2.99V255.33
					z"/>
			</g>
		</g>
		<g>
			<g>
				<path class="st1" d="M110.54,165.4c2.14-1.51,4.61-3.33,6.69-6.42h-5.73v-3.16h6.69v-3.19h-6.86v-3.12h3.66
					c-0.03-0.27-0.36-3.06-0.99-4.91h-2.01v-3.12h6.2v-2.85h3.16v2.85h5.7v3.12h-1.55c-0.69,3.16-0.76,3.54-1.19,4.91h3.23v3.12
					h-6.2v3.19h5.44v3.16h-4.81c0.76,0.96,2.14,2.68,4.05,3.91l-1.65,3.09c-1.71-1.72-2.11-2.27-3.03-3.67v8.62h-3.16v-8.55
					c-2.7,3.74-4.58,5.25-5.83,6.18L110.54,165.4z M117,144.59c0.49,1.65,0.99,4.5,1.02,4.91h3.33c0.4-1.37,0.86-3.67,1.02-4.91H117
					z M142.15,141.85c-3,1.48-6.66,2.44-10.18,2.58v5.22h10.18v3.3h-3.23v17.99h-3.43v-17.99h-3.53v0.93
					c0,9.58-1.81,13.25-4.42,17.06l-3.2-2.3c2.87-3.57,4.32-7.07,4.32-14.66v-12.77c5.8,0.1,9.46-1.51,11.6-2.57L142.15,141.85z"/>
				<path class="st1" d="M159.62,155.41c-2.27,0.51-9.46,1.68-11.67,1.96l-0.53-3.16c0.3-0.03,4.68-0.48,5.47-0.58v-3.43h-3.92
					v-2.75h0.23l-2.08-2.23c0.89-0.79,3.69-3.09,4.98-6.69l3.23,0.62c-0.13,0.45-0.17,0.55-0.53,1.44h7.71v2.75h-5.01
					c0.36,0.65,0.63,1.17,0.89,1.79l-3.23,1.24c-0.2-0.82-0.66-2.23-1.05-3.02h-0.86c-0.23,0.41-1.55,2.4-3.49,4.12h10.09v2.75
					h-3.86v3.09c2.24-0.27,2.93-0.41,3.86-0.58v1.99c2.67-1.75,3-3.64,3.13-7.76h11.87v6.39c0,0.62,0.13,0.76,0.4,0.76
					c0.72,0,0.79,0,0.86-0.93c0-0.27,0.03-1.61,0.03-1.92l2.83,0.79c-0.16,3.64-0.26,4.81-2.08,4.81h-3.06
					c-1.05,0-2.04-0.65-2.04-2.33v-4.88h-5.93c-0.07,1.27-0.36,5.25-4.05,7.79h2.83v1.41h13.91v2.95H167.3
					c1.55,1.27,3.72,3.02,11.73,5.01l-1.48,3.23c-4.75-1.37-9.23-3.5-12.92-6.9v7.72h-3.2v-7.76c-3.92,4.05-9.36,6.01-12.79,6.93
					l-1.35-3.26c4.25-0.76,8.96-2.85,11.6-4.98h-11.27v-2.95h13.81v-1.17L159.62,155.41z M166.97,143.32
					c-1.02,1.75-1.61,2.4-2.34,3.12l-2.8-2.03c2.14-1.99,3.03-3.85,3.66-5.73l3.33,0.51c-0.2,0.58-0.3,0.89-0.46,1.37h10.18v2.75
					h-6.53c0.36,0.58,0.63,1.13,0.86,1.75l-2.97,1.27c-0.26-0.69-0.92-2.27-1.29-3.02H166.97z M168.05,150.19
					c1.62,1.44,2.64,2.47,3.46,3.57l-2.14,2.09c-0.53-0.65-1.85-2.3-3.36-3.6L168.05,150.19z"/>
				<path class="st1" d="M188.76,151.25c-1.55,1.44-2.5,2.2-3.39,2.88l-2.37-3.12c4.19-2.4,8.37-7.52,9.89-12.5l3.43,0.93
					c-1.19,3.26-2.9,7.11-7.19,11.4h20.3c0,3.47-0.1,12.39-1.35,16.93c-0.86,3.09-3.1,3.19-4.55,3.19h-5.04l-0.66-3.64h5.04
					c1.88,0,2.18-1.72,2.44-3.23c0.26-1.54,0.69-4.77,0.66-9.78h-7.65c-0.86,9.27-5.44,13.66-12.26,16.65l-2.01-3.3
					c7.15-3.12,9.92-6.25,10.74-13.36h-6.03V151.25z M213.08,153.86c-2.7-1.89-8.4-7.93-10.68-14.32l3.43-1.03
					c1.71,4.29,5.24,9.61,9.66,12.36L213.08,153.86z"/>
				<path class="st1" d="M220.03,144.46h10.91v3.06h-10.91V144.46z M220.86,139.37h9.03v3.09h-9.03V139.37z M220.86,149.43h9.03
					v3.12h-9.03V149.43z M220.86,154.55h9.03v3.06h-9.03V154.55z M220.86,159.8h9.03v9.78h-6.06v1.44h-2.97V159.8z M223.83,162.75
					v4.02h3.1v-4.02H223.83z M250.85,162.07c-0.73,0.72-1.09,1.06-3.59,3.09c1.55,1.41,2.93,2.09,3.96,2.64l-1.68,3.23
					c-4.22-2.4-7.88-6.01-9-10.85c-0.13,0.17-1.12,1.24-2.34,2.13v4.6c2.6-0.21,3.66-0.38,4.91-0.55v3.23
					c-2.47,0.38-7.65,0.96-10.98,1.06l-0.56-3.47c0.99,0,1.81,0,3.56-0.07v-2.81c-1.29,0.72-2.34,1.13-3.69,1.65l-1.35-2.99
					c1.15-0.34,4.29-1.17,6.86-3.3h-6v-2.57h4.68v-1.75h-3.49v-2.37h3.49v-1.51h-4.05v-2.44h4.05v-1.13h2.97v1.13h4.98v-1.13h3v1.13
					h4.29v2.44h-4.29v1.51h3.63v2.37h-3.63v1.75h4.48v2.57h-7.78c0.4,0.82,0.92,1.82,1.81,3.09c1.32-1.03,1.91-1.61,3.1-2.85
					L250.85,162.07z M231.54,145.62c1.71-0.38,3.33-0.76,6.06-2.06h-6.39v-2.88h8.17v-1.92h3.33v1.92h8.34v2.88h-6.33
					c1.52,0.86,3.59,1.58,6.33,2.16l-1.35,2.44c-1.12-0.17-4.25-0.79-6.99-2.44l1.68-2.16h-6.59l1.98,2.16
					c-2.57,1.51-6.13,2.44-6.92,2.64L231.54,145.62z M238.59,151.46v1.51h4.98v-1.51H238.59z M238.59,155.34v1.75h4.98v-1.75H238.59
					z"/>
				<path class="st1" d="M259.42,154.41c-1.09,1.54-1.65,2.16-2.27,2.85l-1.48-4.39c1.78-1.99,4.91-7.38,5.7-14.15l3.43,0.45
					c-0.1,1.3-0.36,4.15-2.01,8.55v23.17h-3.36V154.41z M277.75,145.55c-1.94-1.75-4.15-3.12-6.46-4.33l2.11-2.88
					c2.14,1.06,4.55,2.58,6.63,4.12l-2.04,3.09h8.54v3.4h-8.83v6.49h7.61v3.4h-7.61v7.62h9.59v3.33h-22.64v-3.33h9.56v-7.62h-7.65
					v-3.4h7.65v-6.49h-8.73v-3.4H277.75z"/>
				<path class="st1" d="M307.58,156.2l15.66-1.72l0.26,3.4l-15.92,1.75v6.8c0,0.65,0.46,0.65,0.69,0.65h9.06
					c0.53,0,0.92-0.21,1.05-0.89c0.13-0.58,0.23-3.43,0.23-4.6l3.59,0.93c-0.13,5.18-0.3,8.14-3.59,8.14h-11.34
					c-0.86,0-3.16,0-3.16-2.54v-8.1l-11.34,1.27l-0.23-3.43l11.57-1.27v-4.15c-1.91,0.24-4.05,0.38-5.93,0.52l-1.09-3.5
					c2.54-0.1,11.96-0.45,19.51-3.23l1.71,3.23c-3.82,1.44-6.79,1.96-10.74,2.54V156.2z M306.36,138.65h3.43v3.02h12.82v8.21h-3.43
					v-4.77h-22.21v4.77h-3.46v-8.21h12.85V138.65z"/>
				<path class="st1" d="M334.05,150.53c-1.48,0.89-2.7,1.48-4.02,2.13l-1.68-3.47c5.11-1.89,10.84-6.15,14.04-10.57h3.69
					c3.16,4.19,7.78,8.27,14.24,10.47l-1.85,3.5c-1.02-0.45-2.04-0.89-3.96-2.06v2.57h-8.54v4.63h10.42v3.09h-10.42v5.56h13.35v3.5
					h-30.26v-3.5h13.38v-5.56H332.1v-3.09h10.35v-4.63h-8.4V150.53z M353.29,149.74c-2.77-1.85-6-4.39-9.1-8.1
					c-1.65,2.03-4.55,5.32-8.9,8.1H353.29z"/>
				<path class="st1" d="M373.93,158.19c-2.27,0.38-4.09,0.89-4.09,5.18v0.76h17.3v3.71h-21.23v-2.99c0-4.26,0.33-9.27,6.66-10.23
					l6.46-1c2.9-0.45,4.32-1.27,4.32-4.63c0-3.33-1.52-4.77-6.39-4.77c-5.5,0-6.69,1.34-6.72,5.63h-3.89
					c0.07-5.84,1.68-9.34,10.38-9.34c4.98,0,10.51,0.65,10.51,8.48c0,3.6-1.09,5.32-2.87,6.52c-1.05,0.69-2.34,1.34-4.19,1.65
					L373.93,158.19z"/>
				<path class="st1" d="M392.88,159.32c0.79-1.2,3.49-5.12,4.75-11.09h-4.25v-3.3h4.35v-6.25h3.16v6.25h3.66v3.3h-3.66v1.2
					c1.61,3.84,3.16,5.49,4.05,6.42l-1.68,3.16c-0.49-0.69-1.55-2.27-2.37-4.29v16.17h-3.16v-15.11c-1.42,5.08-2.74,6.87-3.63,8.1
					L392.88,159.32z M402.67,166.57c5.5-3.02,7.98-6.9,8.37-7.55h-5.67v-12.39h7.42v-1.96h-8.24v-3.36h8.24v-2.61h3.1v2.61h8.5v3.36
					h-8.5v1.96h7.45v12.39h-5.44c0.49,0.79,2.83,4.46,7.02,7.24l-1.91,3.06c-2.87-2.2-4.94-4.39-7.12-8.51v10.09h-3.1v-9.65
					c-3.13,5.08-6.43,7.28-8.24,8.41L402.67,166.57z M408.44,149.33v2.27h4.35v-2.27H408.44z M408.44,154.03v2.23h4.35v-2.23H408.44
					z M415.88,149.33v2.27h4.45v-2.27H415.88z M415.88,154.03v2.23h4.45v-2.23H415.88z"/>
				<path class="st1" d="M458.63,140.78v27.05h-3.96v-23.35h-5.04v-3.71H458.63z"/>
				<path class="st1" d="M479.3,161.79c-0.33,0.62-0.66,1.17-1.29,2.13l-3.43-1.37c0.76-1.17,1.71-2.64,3.76-7.24h-6v-3.26h30.92
					v3.26h-21.13c-0.26,0.69-1.09,2.71-1.35,3.26h19.48c-0.2,2.64-0.66,7.97-1.71,9.99c-0.73,1.37-1.91,2.37-3.82,2.37h-5.8
					l-0.76-3.6h5.93c1.19,0,2.08-0.62,2.44-5.53H479.3z M500.49,139.79v9.78h-25.18v-9.78H500.49z M478.61,142.91v3.57h18.59v-3.57
					H478.61z"/>
				<path class="st1" d="M507.65,159.32c0.79-1.2,3.49-5.12,4.75-11.09h-4.25v-3.3h4.35v-6.25h3.16v6.25h3.66v3.3h-3.66v1.2
					c1.61,3.84,3.16,5.49,4.05,6.42l-1.68,3.16c-0.49-0.69-1.55-2.27-2.37-4.29v16.17h-3.16v-15.11c-1.42,5.08-2.74,6.87-3.63,8.1
					L507.65,159.32z M517.44,166.57c5.5-3.02,7.98-6.9,8.37-7.55h-5.67v-12.39h7.42v-1.96h-8.24v-3.36h8.24v-2.61h3.1v2.61h8.5v3.36
					h-8.5v1.96h7.45v12.39h-5.44c0.49,0.79,2.83,4.46,7.02,7.24l-1.91,3.06c-2.87-2.2-4.94-4.39-7.12-8.51v10.09h-3.1v-9.65
					c-3.13,5.08-6.43,7.28-8.24,8.41L517.44,166.57z M523.2,149.33v2.27h4.35v-2.27H523.2z M523.2,154.03v2.23h4.35v-2.23H523.2z
					 M530.65,149.33v2.27h4.45v-2.27H530.65z M530.65,154.03v2.23h4.45v-2.23H530.65z"/>
			</g>
		</g>
	</g>
</g>
</svg>
