<?xml version="1.0" encoding="utf-8"?>
<!-- Generator: Adobe Illustrator 23.0.3, SVG Export Plug-In . SVG Version: 6.00 Build 0)  -->
<svg version="1.1" xmlns="http://www.w3.org/2000/svg" xmlns:xlink="http://www.w3.org/1999/xlink" x="0px" y="0px"
	 viewBox="0 0 700 500" style="enable-background:new 0 0 700 500;" xml:space="preserve">
<style type="text/css">
	.グラフィックスタイル_x0020_4{fill:#FFFFFF;stroke:#000000;stroke-width:1.2664;stroke-miterlimit:10;}
	.グラフィックスタイル_x0020_8{fill:#FFFFFF;stroke:#000000;stroke-width:1.5;stroke-miterlimit:10;}
	.st0{fill:#FFFFFF;}
	.st1{fill:#D8EACC;stroke:#000000;stroke-width:2;}
	.st2{fill:none;stroke:#000000;stroke-width:1.4318;stroke-linecap:round;stroke-linejoin:round;}
	.st3{fill:none;stroke:#000000;stroke-width:1.8264;stroke-linecap:round;stroke-linejoin:round;}
	.st4{fill:none;stroke:#000000;stroke-width:2;stroke-miterlimit:10;}
	.st5{fill:#FFFFFF;stroke:#000000;stroke-width:2;stroke-miterlimit:10;}
	.st6{fill:#FFFFFF;stroke:#000000;stroke-width:1.2664;stroke-miterlimit:10;}
	.st7{fill:#030201;}
	.st8{fill:#242323;}
	.st9{fill:none;stroke:#000000;stroke-width:2;stroke-linejoin:round;stroke-miterlimit:10;}
	.st10{fill:none;stroke:#000000;stroke-width:2;stroke-linejoin:bevel;stroke-miterlimit:10;}
	.st11{fill:#E83589;}
	.st12{fill:none;stroke:#000000;stroke-width:2;stroke-miterlimit:10;stroke-dasharray:5.901,5.901;}
	.st13{fill:none;stroke:#000000;stroke-width:1.5;stroke-linejoin:bevel;stroke-miterlimit:10;}
	.st14{fill:#D8EACC;stroke:#000000;stroke-width:1.5;}
	.st15{fill:none;stroke:#000000;stroke-width:1.5;stroke-miterlimit:10;}
	.st16{fill:none;stroke:#000000;stroke-linejoin:bevel;stroke-miterlimit:10;}
	.st17{fill:#FFFFFF;stroke:#000000;stroke-width:1.5;stroke-miterlimit:10;}
	.st18{fill:#FFFFFF;stroke:#DE0000;stroke-width:2;stroke-miterlimit:10;}
	.st19{fill:#DE0000;}
	.st20{fill:none;stroke:#000000;stroke-miterlimit:10;}
	.st21{fill:none;stroke:#000000;stroke-miterlimit:10;stroke-dasharray:3.0312,3.0312;}
	.st22{fill:url(#);stroke:#000000;stroke-width:1.1494;}
	.st23{fill:#FFFFFF;stroke:#000000;stroke-miterlimit:10;}
	.st24{fill:none;stroke:#000000;stroke-width:3;stroke-miterlimit:10;stroke-dasharray:5;}
	.st25{fill:none;stroke:#FFFFFF;stroke-width:0.75;stroke-linejoin:round;}
	.st26{fill:none;stroke:#000000;stroke-miterlimit:10;stroke-dasharray:5;}
	.st27{fill:none;stroke:#FFFFFF;stroke-width:3;stroke-linejoin:round;}
	.st28{fill:none;stroke:#000000;stroke-width:1.3;stroke-linejoin:bevel;stroke-miterlimit:10;}
	.st29{fill:none;stroke:#000000;stroke-width:1.5;stroke-miterlimit:10;stroke-dasharray:5;}
	.st30{fill:none;stroke:#47738A;stroke-linejoin:bevel;stroke-miterlimit:10;}
	.st31{fill:none;}
	.st32{fill:none;stroke:#FFFFFF;stroke-width:5;stroke-linejoin:round;}
	.st33{fill:#D8EACC;}
	.st34{fill:#D8EACC;stroke:#000000;stroke-width:0.25;}
	.st35{fill:none;stroke:#000000;stroke-width:2;}
	.st36{fill:none;stroke:#FFFFFF;stroke-linejoin:round;}
	.st37{fill:none;stroke:#000000;stroke-width:1.9773;stroke-linecap:round;stroke-linejoin:round;}
	.st38{fill:none;stroke:#000000;stroke-width:2.5222;stroke-linecap:round;stroke-linejoin:round;}
	.st39{fill:#FFFFFF;stroke:#000000;stroke-width:1.0238;stroke-miterlimit:10;}
	.st40{fill:#FFFFFF;stroke:#000000;stroke-width:1.089;stroke-miterlimit:10;}
	.st41{fill:#FFFFFF;stroke:#000000;stroke-width:1.2553;stroke-miterlimit:10;}
	.st42{fill:url(#);}
	.st43{fill:none;stroke:#000000;stroke-width:1.7765;stroke-linejoin:bevel;stroke-miterlimit:10;}
	.st44{fill:none;stroke:#000000;stroke-width:2.3687;stroke-miterlimit:10;}
	.st45{fill:#D8EACC;stroke:#000000;stroke-width:2.0455;}
	.st46{fill:none;stroke:#000000;stroke-width:2.0455;stroke-linecap:round;stroke-miterlimit:10;stroke-dasharray:0,6.1366;}
	.st47{fill:#FFFFFF;stroke:#000000;stroke-width:2.3687;stroke-miterlimit:10;}
	.st48{fill:#FFFFFF;stroke:#000000;stroke-width:1.4998;stroke-miterlimit:10;}
	.st49{fill:#FFFFFF;stroke:#000000;stroke-width:0.6137;stroke-miterlimit:10;}
	.st50{fill:url(#);stroke:#000000;stroke-width:1.0228;}
	.st51{fill:none;stroke:#FFFFFF;stroke-width:4.0911;stroke-linejoin:round;}
	.st52{fill:none;stroke:#000000;stroke-width:2.4559;stroke-linecap:round;stroke-linejoin:round;}
	.st53{fill:none;stroke:#000000;stroke-width:3.1327;stroke-linecap:round;stroke-linejoin:round;}
	.st54{fill:none;stroke:#FFFFFF;stroke-width:4;stroke-linejoin:round;}
</style>
<g id="レイヤー_5">
	<rect x="-369.06" y="-1158.14" class="st0" width="5667.56" height="5248"/>
</g>
<g id="レイヤー_1">
</g>
<g id="レイヤー_3">
</g>
<g id="レイヤー_4">
</g>
<g id="レイヤー_2">
	<rect y="0" class="st0" width="700" height="500"/>
	<g>
		<g>
			<path d="M588.26,314.33l-0.54,1.35l-8.26-3.33l-0.97,2.4l6.37,2.56l-3.02,7.49c-0.44,1.09-1.09,1.29-2.42,0.75
				c-0.77-0.31-1.53-0.66-2.27-1.04l0.33-1.53c0.89,0.51,1.58,0.85,2.2,1.1c0.49,0.2,0.64,0.15,0.82-0.3l2.32-5.77l-4.86-1.96
				l-4.11,10.2l-1.48-0.6l4.11-10.2l-4.62-1.86l-3.17,7.87l-1.48-0.6l3.7-9.18l6.1,2.46l0.97-2.4l-8.1-3.26l0.54-1.35l8.1,3.26
				l1.04-2.57l1.48,0.6l-1.04,2.57L588.26,314.33z"/>
			<path d="M562.03,340.12c0.91,2.13,2.42,3.42,5.57,4.71l7.38,2.97c-0.35,0.34-0.68,0.71-0.99,1.15l-7.14-2.87
				c-3.27-1.36-4.84-2.71-5.8-5c-1.25,0.66-2.73,1.24-4.04,1.58l-0.29-1.67c1.1-0.17,2.39-0.52,3.71-1.02l2.03-5.03l-2.78-1.12
				l0.51-1.28l4.21,1.69L562.03,340.12z M564.99,330.42c-0.38-1.61-0.88-3.13-1.46-4.3l1.38-0.45c0.7,1.4,1.25,2.82,1.59,4.2
				L564.99,330.42z M567.23,330.16l0.48-1.18l3.33,1.34c-0.08-0.73-0.24-1.52-0.48-2.29l1.52,0.02c0.26,1.09,0.37,1.9,0.42,2.85
				l2.44,0.98c0.62-0.51,1.45-1.33,1.98-1.93l1.33,0.97c-0.56,0.54-1.26,1.13-1.86,1.54l3.51,1.41l-0.48,1.18l-5.43-2.19
				c-0.22,0.28-0.84,0.95-1.21,1.32l4.71,1.9l-3.86,9.58l-9.56-3.85l3.86-9.58l3.46,1.39c0.47-0.53,0.85-0.97,1.12-1.36
				L567.23,330.16z M565.92,341.29l6.76,2.72l0.76-1.88l-6.76-2.72L565.92,341.29z M567.11,338.34l6.76,2.72l0.69-1.71l-6.76-2.72
				L567.11,338.34z M568.2,335.62l6.76,2.72l0.7-1.73l-6.76-2.72L568.2,335.62z"/>
			<path d="M570.04,243.79c1.7-1.02,3.77-2.74,5.79-4.83l0.81,1.4c-1.87,1.98-3.98,3.81-5.84,5.03L570.04,243.79z M575.59,237.14
				c-0.48-1.46-1.11-2.89-1.77-4.07l1.41-0.63c0.75,1.22,1.42,2.67,1.85,4.02L575.59,237.14z M583.49,240.95l-0.03,0.03
				c-1.19,1.38-3.37,3.43-5.01,4.75l-0.14,0.14l1.44,0.45c1.44,0.45,3.65,1.08,5.41,1.52c-0.19-1.21-0.46-2.5-0.77-3.78l1.45-0.18
				c0.74,2.55,1.23,5.02,1.41,7.18l-1.67,0.31c-0.08-1.06-0.11-1.51-0.21-2.2l-0.2-0.04c-2.25-0.43-6.92-1.63-10.1-2.61l0.11-1.68
				l0.77,0.26l0.23,0.07c0.04,0.01,0.27,0.09,0.52,0.17c1.72-1.4,3.71-3.31,5.29-5.12l-4.73-1.91l0.51-1.26l5.73,2.31l1.53-3.79
				l-4.71-1.9l0.52-1.3l4.71,1.9l1.22-3.02l1.46,0.59l-1.22,3.02l5,2.01l-0.52,1.3l-5-2.01l-1.53,3.79l5.97,2.41l-0.51,1.26
				l-6.84-2.75L583.49,240.95z M578.2,232.62c-0.33-1.23-1-2.83-1.67-4.08l1.37-0.58c0.71,1.16,1.4,2.66,1.8,3.98L578.2,232.62z"/>
			<path d="M562.69,288.6l-1.45-0.58l2.42-6.01c-2.57,1.45-5.97,2.31-9.42,2.32l-0.38-1.55c3.24,0.08,6.17-0.46,8.73-1.62
				l-6.88-2.77l0.51-1.26l8.09,3.26l0.82-2.05l1.45,0.58l-0.82,2.05l8.23,3.31l-0.51,1.26l-6.95-2.8c1.08,2.31,2.88,4.56,5.46,6.83
				l-1.45,0.94c-2.68-2.63-4.43-5.21-5.39-8.04L562.69,288.6z M574.25,274.57c-1.57,0.96-3.67,1.73-5.9,2.19
				c1.35,1.59,3.19,3.09,6.25,5.09l-1.28,0.97c-2.47-1.63-4.95-3.8-6.56-5.76c-2.74,0.4-5.96,0.28-9.03-0.29l-0.28-1.47
				c3.06,0.64,6.16,0.85,8.45,0.54c-0.52-0.82-1.21-2.21-1.72-3.44c-1.38,0.4-2.63,0.62-4.08,0.69l-0.53-1.35
				c2.65-0.02,5.56-0.9,7.42-2.23l1.31,0.86c-0.46,0.32-0.56,0.36-0.97,0.61l6.42,2.59L574.25,274.57z M565.88,271.74
				c-0.19,0.1-0.26,0.11-0.42,0.18c0.43,1.2,1.15,2.51,1.96,3.65c2.03-0.43,3.45-0.88,4.47-1.41L565.88,271.74z"/>
			<path d="M559.74,292.74c-1.03,0.02-2.74-0.14-4.13-0.37l0.17-1.5c1.9,0.28,4.12,0.35,5.2,0.15l1.22,0.49l-6.24,15.5l-1.69-0.68
				L559.74,292.74z"/>
			<path d="M544.06,318.93l0.13,0.01l0.09-0.01c0.79,0.05,1.8,0.07,2.45,0.05l-0.39,1.39c-1.87,0.08-4.78,0-6.96-0.23l0.06-1.66
				c1.17,0.14,1.33,0.16,2.47,0.27l0.5,0.05l3.55-8.83l-2.44-0.98l0.54-1.33l5.95,2.4l-0.54,1.33l-2.05-0.82L544.06,318.93z
				 M543.41,324.39c1.72,0.01,3.57-0.35,4.99-1l0.84,1.23c-1.65,0.73-3.59,1.22-5.23,1.28L543.41,324.39z M559.49,315.95
				l-4.03,10.01l-9.02-3.63l4.03-10.01l2.93,1.18c0.46-0.54,0.89-1.13,1.28-1.71l-4.7-1.89l0.5-1.24l11.61,4.67l-0.5,1.24
				l-5.45-2.19c-0.52,0.69-1.04,1.28-1.41,1.66L559.49,315.95z M548.3,321.73l6.22,2.5l0.78-1.93l-6.22-2.5L548.3,321.73z
				 M549.52,318.71l6.22,2.5l0.7-1.75l-6.22-2.5L549.52,318.71z M551.4,314.03l-0.73,1.82l6.22,2.5l0.73-1.82L551.4,314.03z
				 M554.22,329.92c-0.7-1.46-1.64-3.02-2.62-4.33l1.37-0.41c1.25,1.57,2.05,2.77,2.79,4.13L554.22,329.92z"/>
			<path d="M544.23,331.25c-1.03,0.02-2.74-0.14-4.13-0.37l0.17-1.5c1.9,0.28,4.12,0.35,5.2,0.15l1.22,0.49l-6.24,15.5l-1.69-0.68
				L544.23,331.25z"/>
			<path d="M531.37,355.39c-0.46,0.6-0.94,1.15-1.36,1.59l10.56,4.25c-1.07,2.23-2.27,4.13-3.16,4.97
				c-0.89,0.86-1.61,0.92-3.31,0.24c-1-0.4-2.31-0.99-3.2-1.44l0.24-1.56c1.25,0.63,2.48,1.22,3.38,1.58
				c0.94,0.38,1.28,0.34,1.79-0.15c0.46-0.49,1.29-1.69,2.05-3.04l-9.37-3.77c-0.46,0.43-0.94,0.87-1.43,1.28l-1.35-1.04
				c1.16-0.93,2.35-2.11,3.58-3.53l-4.19-1.69l0.51-1.28l17.84,7.18l-0.51,1.28L531.37,355.39z M541.85,356.14l-12.27-4.94
				l2.15-5.33L544,350.8L541.85,356.14z M531.59,350.61l9.22,3.71l1.16-2.89l-9.22-3.71L531.59,350.61z"/>
			<path d="M519.87,379.47c0.91,2.13,2.42,3.42,5.57,4.71l7.38,2.97c-0.35,0.34-0.68,0.71-0.99,1.15l-7.14-2.87
				c-3.27-1.36-4.84-2.71-5.8-5c-1.25,0.66-2.73,1.24-4.04,1.58l-0.29-1.67c1.1-0.17,2.39-0.52,3.71-1.02l2.03-5.03l-2.78-1.12
				l0.51-1.28l4.21,1.69L519.87,379.47z M522.83,369.77c-0.38-1.61-0.88-3.13-1.46-4.3l1.38-0.45c0.7,1.4,1.25,2.82,1.59,4.2
				L522.83,369.77z M525.07,369.51l0.48-1.18l3.33,1.34c-0.08-0.73-0.24-1.52-0.48-2.29l1.52,0.02c0.26,1.09,0.37,1.9,0.42,2.86
				l2.44,0.98c0.62-0.51,1.45-1.34,1.98-1.93l1.33,0.97c-0.57,0.54-1.26,1.13-1.86,1.54l3.51,1.41l-0.48,1.18l-5.43-2.19
				c-0.22,0.28-0.84,0.95-1.21,1.32l4.71,1.9l-3.86,9.58l-9.56-3.85l3.86-9.58l3.46,1.39c0.47-0.53,0.85-0.97,1.12-1.36
				L525.07,369.51z M523.76,380.64l6.76,2.72l0.76-1.88l-6.76-2.72L523.76,380.64z M524.95,377.69l6.76,2.72l0.69-1.71l-6.76-2.72
				L524.95,377.69z M526.04,374.97l6.76,2.72l0.7-1.73l-6.76-2.72L526.04,374.97z"/>
			<path d="M517.73,393.54l-2.42-0.98l-1.19,2.97l2.44,0.98l-0.5,1.24l-2.44-0.98l-1.58,3.93c0.56,0.07,2.15,0.23,3.21,0.31
				l-0.36,1.27c-2.55-0.11-5.57-0.43-8.25-0.88l0.05-1.53l1.08,0.19l2.95-7.33l1.28,0.51l-2.84,7.04l0.51,0.08l0.5,0.07l0.43,0.06
				l3.41-8.47l-2.74-1.1l2.46-6.11l6.46,2.6L517.73,393.54z M513.1,390.26l3.79,1.53l1.46-3.63l-3.79-1.53L513.1,390.26z
				 M522.48,408.2l-1.37-0.55l0.45-1.11l-4.79-1.93l-0.45,1.11l-1.37-0.55l2.98-7.4l7.53,3.03L522.48,408.2z M528.95,392.36
				c-1.42,1.46-2.94,2.59-4.58,3.42c0.77,1.51,1.87,3,3.25,4.34l-1.21,0.95c-1.39-1.43-2.55-3.1-3.31-4.74
				c-1.89,0.74-3.92,1.13-6.11,1.14l-0.28-1.47c1.91,0.14,3.95-0.22,5.85-0.98c-0.34-0.94-0.62-2.08-0.73-3.07l-0.11,0.06
				l-0.06,0.04c-0.74,0.42-1.56,0.79-2.34,1.04l-0.52-1.37c1.84-0.5,4.01-1.94,5.44-3.59l1.3,0.78c-0.4,0.41-0.52,0.53-0.8,0.79
				l3.64,1.47L528.95,392.36z M517.27,403.37l4.79,1.93l1.53-3.79l-4.79-1.93L517.27,403.37z M522.92,391.22
				c0.15,1.15,0.38,2.05,0.85,3.27c1.24-0.64,2.28-1.37,3.31-2.36l-3.49-1.41c-0.13,0.1-0.26,0.2-0.54,0.42L522.92,391.22z"/>
		</g>
		<g>
			<path d="M572.73,249.35l-4.09,10.16l2.91,1.17l-0.58,1.45l-2.91-1.17l-1.49,3.7l-1.65-0.67l1.49-3.7l-7.74-3.12l0.57-1.43
				l11.42-7.23L572.73,249.35z M569.16,253.43c0.35-0.86,0.98-2.31,1.4-3.21l-0.08-0.03c-0.91,0.79-1.74,1.46-2.33,1.83l-7,4.47
				l5.82,2.34L569.16,253.43z"/>
			<path d="M571.77,265.02c1.3-1.81,3.76-3.16,6.98-3.83l0.62-0.12c3.32-0.65,4.35-1.2,4.9-2.57c0.62-1.54-0.24-3.09-2.18-3.87
				c-1.58-0.63-2.92-0.5-4.7,0.44l-0.78-1.47c2.14-1.19,3.96-1.33,6.16-0.45c2.93,1.18,4.38,3.77,3.42,6.16
				c-0.76,1.9-1.85,2.49-6.08,3.27l-0.85,0.16c-2.83,0.57-4.88,1.61-5.6,2.9l8.81,3.55l-0.64,1.6l-10.65-4.29L571.77,265.02z"/>
		</g>
	</g>
	<g>
		<g>
			<path d="M239.26,331.36c-1.02,2.04-2.26,3.82-3.66,5.29l-0.81-1.54c1.83-1.74,3.27-3.81,4.42-6.29l-3.78-0.26l0.1-1.39l4,0.28
				l0.23-3.23c-0.94,0.16-2.01,0.27-2.99,0.34l-0.58-1.3c2.63-0.18,5.39-0.68,7.44-1.31l0.85,1.26c-1.06,0.31-1.74,0.47-3.14,0.73
				l-0.25,3.62l3.6,0.25l-0.1,1.39l-3.6-0.25l-0.11,1.6c1.29,0.96,2.34,1.91,3.3,2.97l-1.01,1.33c-0.61-0.81-1.46-1.79-2.41-2.75
				l-0.61,8.77l-1.56-0.11L239.26,331.36z M243.6,338.07c1.73-4.93,3.32-10.3,4.49-15.21l1.57,0.41
				c-1.54,6.06-3.09,11.03-4.64,15.04l0.41-0.03c1.92-0.11,4.7-0.4,5.87-0.58c-0.6-2.09-1.05-3.52-1.62-5.21l1.39-0.49
				c1.05,2.73,2.03,5.85,2.68,8.65l-1.55,0.66c-0.2-0.91-0.32-1.46-0.57-2.35l-0.2,0.03c-2.8,0.52-6.28,0.92-8.95,1.08l-0.44-1.59
				c0.45-0.01,0.9-0.04,1.04-0.05c0.26,0,0.28,0,0.39-0.01L243.6,338.07z"/>
			<path d="M260.63,338.07c1.52,1.75,3.36,2.51,6.75,2.77l7.94,0.56c-0.23,0.43-0.43,0.88-0.58,1.4l-7.68-0.54
				c-3.53-0.29-5.44-1.09-7.06-2.97c-0.98,1.01-2.21,2.02-3.36,2.75l-0.79-1.5c0.99-0.5,2.12-1.23,3.21-2.11l0.38-5.41l-2.99-0.21
				l0.1-1.37l4.52,0.32L260.63,338.07z M260.47,327.93c-0.85-1.42-1.8-2.7-2.71-3.64l1.18-0.85c1.1,1.11,2.05,2.29,2.8,3.5
				L260.47,327.93z M262.52,327l0.09-1.27l3.58,0.25c-0.3-0.67-0.7-1.37-1.16-2.03l1.45-0.45c0.58,0.95,0.94,1.69,1.28,2.59
				l2.63,0.18c0.43-0.68,0.97-1.72,1.29-2.45l1.57,0.52c-0.37,0.68-0.85,1.46-1.3,2.04l3.78,0.26l-0.09,1.27l-5.84-0.41
				c-0.13,0.34-0.51,1.16-0.74,1.63l5.07,0.35l-0.72,10.3l-10.28-0.72l0.72-10.3l3.72,0.26c0.29-0.65,0.51-1.18,0.64-1.64
				L262.52,327z M264.69,337.99l7.27,0.51l0.14-2.02l-7.27-0.51L264.69,337.99z M264.92,334.82l7.27,0.51l0.13-1.84l-7.27-0.51
				L264.92,334.82z M265.12,331.89l7.27,0.51l0.13-1.86l-7.27-0.51L265.12,331.89z"/>
			<path d="M277.73,342.1c1.3-1.49,2.74-3.77,4.02-6.38l1.2,1.08c-1.17,2.46-2.61,4.85-4.01,6.58L277.73,342.1z M280.97,334.07
				c-0.91-1.24-1.94-2.41-2.93-3.33l1.15-1.04c1.09,0.93,2.17,2.1,3,3.25L280.97,334.07z M282.05,328.97
				c-0.7-1.06-1.82-2.38-2.85-3.37l1.12-0.98c1.03,0.88,2.15,2.1,2.94,3.23L282.05,328.97z M289.65,335.27l-0.02,0.04
				c-0.71,1.68-2.15,4.3-3.31,6.06l-0.09,0.18l1.5-0.02c1.5-0.02,3.8-0.1,5.62-0.22c-0.55-1.09-1.2-2.24-1.9-3.36l1.32-0.62
				c1.49,2.19,2.72,4.39,3.55,6.4l-1.5,0.81c-0.4-0.98-0.57-1.4-0.87-2.03l-0.2,0.03c-2.27,0.29-7.08,0.58-10.42,0.63l-0.41-1.63
				l0.81,0.02l0.24,0c0.04,0,0.28,0,0.55,0c1.21-1.86,2.51-4.29,3.46-6.5l-5.09-0.36l0.09-1.35l6.16,0.43l0.29-4.08l-5.07-0.35
				l0.1-1.39l5.07,0.35l0.23-3.25l1.58,0.11l-0.23,3.25l5.37,0.38l-0.1,1.39l-5.37-0.38l-0.29,4.08l6.42,0.45l-0.09,1.35l-7.35-0.51
				L289.65,335.27z"/>
			<path d="M310.25,327.8l-0.76,10.93l3.13,0.22l-0.11,1.56l-3.13-0.22l-0.28,3.98l-1.78-0.12l0.28-3.98l-8.32-0.58l0.11-1.53
				l8.64-10.4L310.25,327.8z M308.12,332.78c0.06-0.93,0.22-2.5,0.34-3.49l-0.08-0.01c-0.62,1.03-1.21,1.93-1.65,2.46l-5.28,6.41
				l6.26,0.44L308.12,332.78z"/>
			<path d="M316.79,343.19c0.68-2.12,2.6-4.16,5.46-5.79l0.55-0.31c2.96-1.64,3.77-2.48,3.87-3.95c0.12-1.66-1.18-2.86-3.26-3.01
				c-1.7-0.12-2.93,0.42-4.33,1.87l-1.2-1.16c1.67-1.79,3.36-2.48,5.72-2.32c3.15,0.22,5.32,2.24,5.14,4.81
				c-0.14,2.04-1,2.93-4.77,4.98l-0.76,0.41c-2.51,1.41-4.15,3.04-4.43,4.48l9.47,0.66l-0.12,1.72l-11.45-0.8L316.79,343.19z"/>
			<path d="M342.07,347.99l-1.56-0.11l0.45-6.46c-2,2.17-4.97,4.04-8.25,5.11l-0.84-1.36c3.11-0.92,5.73-2.34,7.81-4.22l-7.39-0.52
				l0.09-1.35l8.71,0.61l0.15-2.2l1.56,0.11l-0.15,2.2l8.85,0.62l-0.09,1.35l-7.47-0.52c1.74,1.87,4.14,3.46,7.3,4.81l-1.09,1.34
				c-3.35-1.68-5.82-3.59-7.6-5.99L342.07,347.99z M348.76,331.08c-1.19,1.4-2.96,2.78-4.94,3.9c1.77,1.1,3.98,1.96,7.51,2.92
				l-0.92,1.32c-2.85-0.79-5.88-2.1-8.02-3.46c-2.48,1.23-5.59,2.11-8.68,2.5l-0.72-1.31c3.11-0.33,6.13-1.09,8.2-2.08
				c-0.75-0.62-1.83-1.73-2.69-2.75c-1.19,0.81-2.31,1.4-3.67,1.92l-0.92-1.12c2.52-0.84,5.01-2.57,6.38-4.41l1.51,0.41
				c-0.34,0.44-0.42,0.52-0.73,0.88l6.91,0.48L348.76,331.08z M339.92,330.97c-0.15,0.15-0.22,0.19-0.35,0.3
				c0.78,1.01,1.87,2.04,2.99,2.87c1.8-1.03,3.02-1.9,3.82-2.72L339.92,330.97z"/>
			<path d="M359.98,333.14c-0.98,0.34-2.65,0.71-4.04,0.92l-0.3-1.48c1.89-0.31,4.02-0.94,4.99-1.46l1.31,0.09l-1.17,16.66
				l-1.82-0.13L359.98,333.14z"/>
			<path d="M371.94,343.64l0.12-0.03l0.08-0.03c0.76-0.19,1.74-0.49,2.34-0.71l0.06,1.45c-1.75,0.65-4.55,1.47-6.69,1.93l-0.46-1.6
				c1.15-0.22,1.32-0.25,2.43-0.5l0.49-0.11l0.66-9.49l-2.63-0.18l0.1-1.43l6.4,0.45l-0.1,1.43l-2.2-0.15L371.94,343.64z
				 M373,349.03c1.64-0.51,3.29-1.43,4.44-2.49l1.17,0.91c-1.34,1.21-3.04,2.26-4.58,2.83L373,349.03z M385.7,336.06l-0.75,10.77
				l-9.7-0.68l0.75-10.77l3.15,0.22c0.27-0.65,0.5-1.35,0.69-2.02l-5.05-0.35l0.09-1.33l12.48,0.87l-0.09,1.33l-5.86-0.41
				c-0.28,0.81-0.6,1.54-0.83,2.01L385.7,336.06z M376.84,345l6.69,0.47l0.15-2.08l-6.69-0.47L376.84,345z M377.06,341.75l6.69,0.47
				l0.13-1.88l-6.69-0.47L377.06,341.75z M377.42,336.72l-0.14,1.96l6.69,0.47l0.14-1.96L377.42,336.72z M384.98,350.97
				c-1.12-1.17-2.49-2.37-3.83-3.31l1.17-0.81c1.67,1.11,2.8,2,3.93,3.08L384.98,350.97z"/>
			<path d="M401.8,334.3l-0.11,1.64l-7.68-0.54l-1.03,5.69l0.08,0.01c1.01-0.82,2.36-1.22,3.87-1.11c3.21,0.22,5.26,2.5,5.05,5.55
				c-0.22,3.21-2.83,5.32-6.28,5.08c-2.24-0.16-4.02-0.91-5.46-2.33l1.2-1.21c1.08,1.07,2.74,1.79,4.35,1.91
				c2.24,0.16,4.01-1.38,4.17-3.59c0.16-2.22-1.22-3.76-3.48-3.92c-1.48-0.1-3.08,0.52-3.84,1.48l-1.68-0.4l1.52-8.91L401.8,334.3z"
				/>
			<path d="M411.96,343.47c-0.25,0.71-0.54,1.38-0.81,1.93l11.35,0.79c-0.33,2.45-0.89,4.63-1.47,5.7c-0.58,1.1-1.25,1.37-3.07,1.25
				c-1.07-0.08-2.5-0.24-3.48-0.39l-0.26-1.56c1.39,0.22,2.73,0.39,3.7,0.46c1.01,0.07,1.32-0.07,1.65-0.7
				c0.29-0.61,0.71-2,1.02-3.52l-10.08-0.71c-0.3,0.55-0.63,1.11-0.97,1.66l-1.6-0.58c0.82-1.24,1.59-2.73,2.32-4.47l-4.5-0.31
				l0.1-1.37l19.19,1.34l-0.1,1.37L411.96,343.47z M422.17,340.96l-13.19-0.92l0.4-5.74l13.19,0.92L422.17,340.96z M410.7,338.86
				l9.92,0.69l0.22-3.11l-9.92-0.69L410.7,338.86z"/>
			<path d="M431.34,350.01c1.52,1.75,3.36,2.51,6.75,2.77l7.94,0.56c-0.23,0.43-0.43,0.88-0.58,1.4l-7.68-0.54
				c-3.53-0.29-5.45-1.09-7.06-2.97c-0.98,1.01-2.21,2.02-3.36,2.75l-0.79-1.5c0.99-0.5,2.12-1.23,3.21-2.11l0.38-5.41l-2.99-0.21
				l0.1-1.37l4.52,0.32L431.34,350.01z M431.18,339.87c-0.86-1.42-1.8-2.7-2.71-3.64l1.18-0.85c1.1,1.11,2.05,2.29,2.8,3.5
				L431.18,339.87z M433.23,338.93l0.09-1.27l3.57,0.25c-0.3-0.67-0.7-1.37-1.16-2.03l1.45-0.45c0.58,0.95,0.94,1.69,1.28,2.59
				l2.63,0.18c0.43-0.68,0.97-1.72,1.29-2.45l1.57,0.52c-0.37,0.68-0.85,1.46-1.3,2.04l3.78,0.26l-0.09,1.27l-5.84-0.41
				c-0.12,0.34-0.51,1.16-0.74,1.63l5.07,0.35l-0.72,10.3l-10.28-0.72l0.72-10.3l3.72,0.26c0.29-0.65,0.51-1.18,0.64-1.64
				L433.23,338.93z M435.41,349.92l7.27,0.51l0.14-2.02l-7.27-0.51L435.41,349.92z M435.63,346.75l7.27,0.51l0.13-1.84l-7.27-0.51
				L435.63,346.75z M435.83,343.82l7.27,0.51l0.13-1.86l-7.27-0.51L435.83,343.82z"/>
			<path d="M456.56,344.14l-2.61-0.18l-0.22,3.19l2.63,0.18l-0.09,1.33l-2.63-0.18l-0.3,4.22c0.56-0.1,2.12-0.44,3.15-0.69
				l0.05,1.32c-2.46,0.68-5.43,1.31-8.12,1.71l-0.42-1.47l1.09-0.15l0.55-7.88l1.37,0.1l-0.53,7.57l0.51-0.09l0.49-0.09l0.43-0.07
				l0.64-9.11l-2.95-0.21l0.46-6.56l6.95,0.49L456.56,344.14z M451.14,342.44l4.08,0.29l0.27-3.9l-4.08-0.29L451.14,342.44z
				 M466.87,339.56c-0.9,1.82-2,3.37-3.31,4.66c1.19,1.2,2.7,2.28,4.43,3.13l-0.86,1.28c-1.76-0.93-3.38-2.17-4.61-3.49
				c-1.57,1.29-3.39,2.28-5.46,2.97l-0.72-1.31c1.86-0.46,3.69-1.43,5.27-2.74c-0.61-0.79-1.24-1.79-1.64-2.69l-0.09,0.1l-0.04,0.06
				c-0.57,0.63-1.24,1.23-1.91,1.71l-0.92-1.14c1.6-1.05,3.22-3.08,4.07-5.09l1.48,0.35c-0.26,0.51-0.33,0.67-0.52,1l3.92,0.27
				L466.87,339.56z M465.59,356.62l-1.47-0.1l0.08-1.19l-5.15-0.36l-0.08,1.19l-1.48-0.1l0.56-7.96l8.1,0.57L465.59,356.62z
				 M459.14,353.63l5.15,0.36l0.29-4.08l-5.15-0.36L459.14,353.63z M460.78,340.33c0.5,1.05,0.99,1.83,1.81,2.85
				c0.98-0.99,1.74-2.01,2.42-3.26l-3.76-0.26c-0.09,0.14-0.18,0.27-0.38,0.56L460.78,340.33z"/>
		</g>
	</g>
	<g>
		<path d="M603.66,178.46l-0.51,1.22l-5.73-2.37l-2.24,4.09l0.06,0.03c0.98-0.37,2.11-0.33,3.24,0.14c2.4,0.99,3.39,3.25,2.44,5.53
			c-0.99,2.4-3.52,3.34-6.1,2.28c-1.67-0.69-2.84-1.72-3.58-3.17l1.23-0.62c0.55,1.09,1.63,2.07,2.84,2.57
			c1.67,0.69,3.42-0.03,4.1-1.67c0.69-1.66,0.03-3.18-1.66-3.88c-1.1-0.46-2.49-0.39-3.31,0.15l-1.18-0.74l3.43-6.42L603.66,178.46z
			"/>
		<path d="M603.77,190.28l-0.89,2.16l-2.16-0.89l0.89-2.16L603.77,190.28z"/>
		<path d="M619.06,184.83l-0.42,1.01c-3.55,2.91-6.38,5.99-8.72,9.51l-1.42-0.59c1.7-2.67,5.15-6.47,8.47-9.38l-5.88-2.43
			l-1.17,2.82l-1.31-0.54l1.67-4.02L619.06,184.83z"/>
		<path d="M619.4,192.21c1.13-0.86,2.56-1.02,3.96-0.44c2.2,0.91,3.23,3.29,2.33,5.47c-1.02,2.46-3.44,3.48-5.83,2.49
			c-1.51-0.62-2.44-1.73-2.78-3.3c-0.29-1.35-0.15-2.53,0.5-4.1c0.63-1.52,2.11-3.05,3.79-3.92c1.62-0.85,3.46-1.16,5.61-0.98
			l0.1,1.29c-3.53-0.17-6.3,1.06-7.74,3.47L619.4,192.21z M618.68,194.37c-0.66,1.6,0.08,3.51,1.62,4.15
			c1.55,0.64,3.21-0.12,3.9-1.79c0.69-1.67,0.07-3.27-1.55-3.94C621.18,192.17,619.28,192.92,618.68,194.37z"/>
		<path d="M637.22,199.5c-1.62,3.92-4.35,5.61-7.14,4.46c-2.79-1.15-3.52-4.3-1.9-8.2c1.62-3.92,4.35-5.61,7.16-4.45
			C638.11,192.45,638.83,195.59,637.22,199.5z M629.65,196.37c-1.31,3.17-0.96,5.6,0.94,6.39c1.87,0.77,3.84-0.71,5.15-3.87
			c1.32-3.2,0.97-5.62-0.93-6.41C632.94,191.71,630.96,193.2,629.65,196.37z"/>
	</g>
	<g>
		<path d="M178.53,337.13l7.01,0.58l0.17-2.01l1,0.08l-0.17,2.01l2.55,0.21l-0.09,1.14l-2.55-0.21l-0.44,5.34l-0.98-0.08l-6.6-5.64
			L178.53,337.13z M181.71,338.54c-0.6-0.05-1.6-0.16-2.24-0.25l0,0.05c0.66,0.41,1.23,0.79,1.57,1.08l4.07,3.44l0.33-4.02
			L181.71,338.54z"/>
		<path d="M187.63,333.12l1.85,0.15l-0.15,1.85l-1.85-0.15L187.63,333.12z"/>
		<path d="M185.02,323.38c3.37,0.28,5.32,1.94,5.12,4.34c-0.2,2.4-2.41,3.71-5.76,3.43c-3.37-0.28-5.32-1.94-5.12-4.35
			C179.46,324.42,181.67,323.1,185.02,323.38z M184.48,329.89c2.72,0.23,4.49-0.63,4.62-2.26c0.13-1.61-1.47-2.75-4.19-2.97
			c-2.75-0.23-4.5,0.63-4.64,2.26C180.15,328.52,181.76,329.66,184.48,329.89z"/>
		<path d="M185.76,314.44c3.37,0.28,5.32,1.94,5.12,4.34c-0.2,2.4-2.41,3.71-5.76,3.43c-3.37-0.28-5.32-1.94-5.12-4.35
			C180.2,315.48,182.41,314.16,185.76,314.44z M185.22,320.95c2.72,0.23,4.49-0.63,4.62-2.26c0.13-1.61-1.47-2.75-4.19-2.97
			c-2.75-0.23-4.5,0.63-4.64,2.26C180.89,319.58,182.5,320.72,185.22,320.95z"/>
		<path d="M186.51,305.5c3.37,0.28,5.32,1.94,5.12,4.34c-0.2,2.4-2.41,3.71-5.76,3.43c-3.37-0.28-5.32-1.94-5.12-4.35
			C180.94,306.54,183.15,305.22,186.51,305.5z M185.97,312.01c2.72,0.23,4.49-0.63,4.62-2.26c0.13-1.61-1.47-2.75-4.19-2.97
			c-2.75-0.23-4.5,0.63-4.64,2.26C181.63,310.64,183.25,311.78,185.97,312.01z"/>
	</g>
	<g>
		
			<rect x="507.7" y="206.04" transform="matrix(-1.836970e-16 1 -1 -1.836970e-16 728.155 -311.9695)" class="グラフィックスタイル_x0020_4" width="24.73" height="4.12"/>
		
			<rect x="511.81" y="206.04" transform="matrix(-1.836970e-16 1 -1 -1.836970e-16 732.2705 -316.085)" class="グラフィックスタイル_x0020_4" width="24.73" height="4.12"/>
		
			<rect x="499.61" y="202.06" transform="matrix(-1.836970e-16 1 -1 -1.836970e-16 720.0671 -303.8817)" class="st6" width="24.73" height="12.06"/>
		<polygon points="506.95,207.77 514.03,212.62 514.03,202.91 		"/>
	</g>
	<polyline class="st2" points="234.16,102.85 234.16,91.11 241.06,102.85 241.06,91.11 	"/>
	<g>
		<circle class="st3" cx="229.62" cy="133.15" r="24.35"/>
		<polygon points="226.74,146.5 236.38,155.77 234.63,109.93 214.14,150.97 		"/>
	</g>
	<g>
		
			<rect x="105.66" y="76.54" transform="matrix(6.123234e-17 -1 1 6.123234e-17 1.0047 249.6169)" class="st11" width="39.3" height="95.53"/>
		<g>
			<path class="st0" d="M94.78,130.15h15.55v2.09H94.78v1.41h-2.32V115.1h17.34v2.01H94.78V130.15z M95.46,127.81
				c2.12-1.08,3.67-2.24,5.41-4.02c-1.33-1.12-3.09-2.38-4.83-3.52l1.41-1.58c1.72,1.08,3.21,2.14,4.85,3.4
				c1.02-1.35,1.85-2.72,2.7-4.44l2.09,1.02c-0.93,1.85-1.97,3.5-3.01,4.85c1.16,0.95,2.7,2.32,4.25,3.79l-1.64,1.72
				c-1.35-1.35-2.86-2.74-4.08-3.79c-1.74,1.85-3.55,3.19-5.76,4.35L95.46,127.81z"/>
			<path class="st0" d="M123.94,116.92h-8.69v-1.87h19.7v1.87h-8.81v1.99h4.44v10.35h-10.97v-10.35h4.33V116.92z M132.15,130.61
				v-11.7h2.12v14.74h-2.12v-1.14h-14.12v1.14h-2.09v-14.74h2.09v11.7H132.15z M121.58,120.61v2.51h2.45v-2.51H121.58z
				 M121.58,124.72v2.8h2.45v-2.8H121.58z M126.05,123.12h2.55v-2.51h-2.55V123.12z M126.05,127.52h2.55v-2.8h-2.55V127.52z"/>
			<path class="st0" d="M158.14,133.65h-2.26v-1.06h-13.44v1.06h-2.24v-18.75h17.94V133.65z M142.44,130.65h13.44V116.8h-13.44
				V130.65z M153.95,129.76c-1.31-0.81-2.84-1.68-4.23-2.38c-1.51,1.27-3.34,2.28-5.37,3.01l-1.29-1.56
				c1.89-0.6,3.23-1.31,4.67-2.45l-0.54-0.25c-1.35-0.66-2.34-1.1-4.11-1.82l0.93-1.53c2.09,0.77,3.3,1.24,5.29,2.18
				c1.68-1.78,3.09-4.33,3.86-7.03l2.01,0.62c-0.85,2.63-2.38,5.5-3.94,7.34c0.1,0.06,0.1,0.06,0.19,0.1
				c1.04,0.52,2.18,1.14,3.75,2.07L153.95,129.76z M145.22,122.98c-0.48-1.62-1.04-2.99-1.66-4.06l1.91-0.77
				c0.66,1.16,1.22,2.49,1.72,4.04L145.22,122.98z M148.79,122.17c-0.5-1.58-1.06-2.92-1.68-4.09l1.82-0.73
				c0.75,1.33,1.39,2.8,1.72,4L148.79,122.17z"/>
		</g>
	</g>
	<line class="st13" x1="577.3" y1="191.28" x2="37.72" y2="191.28"/>
	<polygon class="st14" points="64.66,292.84 67.71,191.28 206.34,191.28 199.23,302.49 	"/>
	<polygon class="st14" points="322.29,312.48 331.43,191.28 206.34,191.28 199.23,302.49 	"/>
	<polygon class="st14" points="436.04,320.27 445.85,191.28 331.43,191.28 322.29,312.48 	"/>
	<polygon class="st14" points="521.01,326.36 575.85,191.28 445.85,191.28 436.04,320.27 	"/>
	<line class="st15" x1="605.3" y1="113.42" x2="575.85" y2="191.28"/>
	<line class="st15" x1="669.46" y1="140" x2="561.8" y2="413.19"/>
	<polyline class="st15" points="99.19,366.48 99.19,352.26 106.3,345.15 505.94,373.59 499.34,392.37 	"/>
	<polyline class="st16" points="203.63,309.35 199.23,302.49 196.85,351.59 190.27,344.73 	"/>
	<polygon class="st17" points="77.53,275.43 80.24,197.04 191.58,202.12 189.26,243.14 104.95,240.71 103.93,276.64 	"/>
	<polygon class="st17" points="212.94,197.04 207.69,271.24 289.67,277.6 292.67,223.45 315.53,225.14 316.84,204.32 	"/>
	<polygon class="st17" points="333.46,280.98 338.8,200.65 436.04,204.8 432.51,236.69 387.63,232.24 377.47,284.89 	"/>
	<g>
		<g>
			<g>
				<path class="st0" d="M177.88,251.13c2.7-0.34,5.4-0.34,8.1,0c3.11,0.42,5.44,3.77,5.27,6.83c-0.48,10.02-0.47,20.05,0.01,30.07
					c0.16,2.91-2.05,6.09-5,6.51c-2.89,0.39-5.78,0.39-8.66,0c-2.95-0.42-5.16-3.6-5-6.51c0.49-10.02,0.49-20.05,0.01-30.07
					C172.45,254.9,174.77,251.55,177.88,251.13z"/>
				<path class="st7" d="M181.93,250.77c1.36,0,2.71,0.08,4.06,0.25c3.04,0.41,5.54,3.65,5.36,6.95
					c-0.48,9.97-0.47,20.08,0.01,30.06c0.17,3.12-2.21,6.21-5.09,6.62c-2.88,0.39-5.81,0.39-8.69,0c-2.88-0.41-5.26-3.51-5.09-6.62
					c0.48-9.97,0.49-20.09,0.01-30.06c-0.18-3.29,2.32-6.54,5.36-6.95h0C179.22,250.85,180.57,250.77,181.93,250.77z M181.93,294.71
					c1.44,0,2.89-0.1,4.32-0.29c2.78-0.4,5.07-3.38,4.91-6.39c-0.48-9.98-0.49-20.1-0.01-30.08c0.17-3.18-2.24-6.32-5.18-6.71
					c-2.68-0.34-5.39-0.34-8.07,0c-2.93,0.39-5.35,3.53-5.18,6.71c0.48,9.98,0.47,20.1-0.01,30.08c-0.17,3.01,2.13,5.99,4.91,6.39
					C179.04,294.62,180.49,294.71,181.93,294.71z"/>
			</g>
		</g>
		<g>
			<path class="st8" d="M175.47,256.77h12.92c-0.02-0.16-0.03-0.32-0.05-0.48h-12.81C175.5,256.45,175.49,256.61,175.47,256.77z"/>
		</g>
		<g>
			<path class="st7" d="M174.16,261.69l0.11,0.41c0.8,2.93,1.24,6.82,1.24,10.94c0,0.45-0.01,0.91-0.02,1.37l-0.01,0.03l-1.96,4.9
				l-0.01-0.39c-0.03-1.14-0.04-2.26-0.04-3.35c0-4.63,0.21-9.17,0.63-13.5L174.16,261.69z M175.34,274.39
				c0.01-0.45,0.02-0.9,0.02-1.35c0-3.91-0.4-7.61-1.12-10.47c-0.39,4.19-0.59,8.57-0.59,13.04c0,0.96,0.01,1.95,0.03,2.96
				L175.34,274.39z"/>
		</g>
		<g>
			<path class="st7" d="M189.7,261.69l0.04,0.42c0.42,4.32,0.63,8.86,0.63,13.5c0,1.08-0.01,2.2-0.04,3.35l-0.01,0.39l-1.96-4.93
				c-0.01-0.46-0.02-0.92-0.02-1.37c0-4.13,0.44-8.01,1.24-10.94L189.7,261.69z M190.19,278.57c0.02-1.01,0.03-2.01,0.03-2.96
				c0-4.47-0.2-8.86-0.59-13.04c-0.73,2.86-1.12,6.56-1.12,10.47c0,0.44,0.01,0.9,0.02,1.35L190.19,278.57z"/>
		</g>
		<g>
			<path class="st0" d="M173.66,280.28v7.21c0,4.23,3.25,7.7,7.23,7.7h2.08c3.97,0,7.23-3.46,7.23-7.7v-7.21
				c-2.7,0.66-5.48,1-8.26,0.99C179.15,281.28,176.37,280.94,173.66,280.28z"/>
			<path d="M173.59,280.18l0.1,0.02c2.73,0.67,5.5,1.01,8.25,0.99c0.04,0,0.07,0,0.11,0c2.71,0,5.45-0.33,8.14-0.99l0.1-0.02v7.31
				c0,4.29-3.28,7.78-7.31,7.78h-2.08c-4.03,0-7.31-3.49-7.31-7.78V280.18z M182.97,295.1c3.94,0,7.15-3.41,7.15-7.61v-7.1
				c-2.67,0.64-5.39,0.97-8.08,0.97c-0.07,0-0.15,0-0.22,0c-2.69,0-5.41-0.33-8.08-0.97v7.1c0,4.2,3.21,7.61,7.15,7.61H182.97z"/>
		</g>
		<g>
			<path class="st0" d="M175.96,263.4c3.98,0.64,7.96,0.64,11.94,0c0.55-2.21,0.72-4.43,0.51-6.64h-12.96
				C175.24,258.98,175.41,261.19,175.96,263.4z"/>
			<path d="M175.38,256.68h13.1l0.01,0.07c0.21,2.21,0.04,4.46-0.51,6.67l-0.01,0.05l-0.05,0.01c-3.97,0.64-8,0.64-11.97,0
				l-0.05-0.01l-0.01-0.05c-0.55-2.21-0.72-4.45-0.51-6.67L175.38,256.68z M188.34,256.85h-12.82c-0.2,2.15-0.03,4.33,0.5,6.48
				c3.92,0.62,7.9,0.62,11.82,0C188.37,261.18,188.54,259,188.34,256.85z"/>
		</g>
		<g>
			<path class="st8" d="M175.45,256.76h12.96c-0.02-0.16-0.03-0.32-0.05-0.48H175.5C175.48,256.44,175.46,256.6,175.45,256.76z"/>
		</g>
		<g>
			<path class="st0" d="M188.36,256.28v-3.46c-1.58-0.91-3.88-1.48-6.43-1.48s-4.85,0.57-6.43,1.48v3.46H188.36z"/>
			<path d="M181.93,251.26c2.46,0,4.82,0.54,6.47,1.49l0.04,0.02v3.59h-13.01v-3.59l0.04-0.02
				C177.11,251.8,179.47,251.26,181.93,251.26z M188.28,252.87c-1.63-0.92-3.94-1.45-6.35-1.45c-2.41,0-4.72,0.53-6.35,1.45v3.33
				h12.7V252.87z"/>
		</g>
		<g>
			<path class="st8" d="M173.72,280.33l-0.16,0.47c5.47,1.61,11.27,1.61,16.74,0l-0.16-0.47
				C184.77,281.87,179.09,281.87,173.72,280.33z"/>
		</g>
		<g>
			<path class="st0" d="M189.91,280.35l-2.01-5.85h-11.94l-2.01,5.85C179.17,281.85,184.69,281.85,189.91,280.35z"/>
			<path d="M175.9,274.42h12.05l2.06,5.99l-0.08,0.02c-5.23,1.51-10.77,1.51-16,0l-0.08-0.02L175.9,274.42z M187.85,274.59h-11.83
				l-1.96,5.71c5.16,1.47,10.6,1.47,15.76,0L187.85,274.59z"/>
		</g>
		<g>
			<g>
				<path class="st7" d="M175.52,252.83h-0.08c-0.97,0-1.77,0.85-1.77,1.88v0.14C174.08,253.97,174.73,253.27,175.52,252.83z"/>
			</g>
			<g>
				<path class="st7" d="M188.33,252.83h0.08c0.97,0,1.77,0.85,1.77,1.88v0.14C189.78,253.97,189.13,253.27,188.33,252.83z"/>
			</g>
		</g>
		<g>
			<g>
				<path class="st0" d="M171.47,275.71c-0.06,0.26,0,0.56,0.13,0.67l1.44,1.32c0.02,0.02,0.05,0.04,0.08,0.04v-1.24l-1.61-0.96
					L171.47,275.71z"/>
				<path class="st7" d="M171.45,275.43l1.74,1.04v1.39l-0.09-0.02c-0.04-0.01-0.08-0.03-0.11-0.06l-1.44-1.32
					c-0.15-0.14-0.21-0.47-0.15-0.76L171.45,275.43z M173.03,276.57l-1.48-0.88l-0.01,0.05c-0.05,0.24,0.01,0.51,0.1,0.59l1.39,1.28
					V276.57z"/>
			</g>
			<g>
				<path class="st0" d="M192.39,275.71c0.06,0.26,0,0.56-0.13,0.67l-1.44,1.32c-0.02,0.02-0.05,0.04-0.08,0.04v-1.24l1.61-0.96
					L192.39,275.71z"/>
				<path class="st7" d="M192.41,275.43l0.06,0.26c0.06,0.29,0,0.62-0.15,0.76l-1.44,1.32c-0.03,0.03-0.07,0.05-0.11,0.06
					l-0.09,0.02v-1.39L192.41,275.43z M190.83,277.6l1.39-1.28c0.09-0.08,0.15-0.35,0.1-0.59l-0.01-0.05l-1.48,0.88V277.6z"/>
			</g>
		</g>
		<g>
			<g>
				<path class="st7" d="M177.68,284.73c0,2.77,0.46,5.2,1.16,6.61c-0.52-1.44-0.84-3.53-0.84-5.85c0-1.12,0.08-2.19,0.21-3.16
					h-0.41C177.72,283.09,177.68,283.89,177.68,284.73z"/>
			</g>
			<g>
				<path class="st7" d="M186.18,284.73c0,2.77-0.46,5.2-1.16,6.61c0.52-1.44,0.84-3.53,0.84-5.85c0-1.12-0.08-2.19-0.21-3.16h0.41
					C186.14,283.09,186.18,283.89,186.18,284.73z"/>
			</g>
		</g>
		<g>
			
				<rect x="175.96" y="263.4" transform="matrix(-1 -1.224647e-16 1.224647e-16 -1 363.8589 537.903)" class="st0" width="11.94" height="11.11"/>
			<path d="M175.88,263.32h12.1v11.27h-12.1V263.32z M187.82,263.48h-11.79v10.94h11.79V263.48z"/>
		</g>
	</g>
	<g>
		<g>
			<g>
				<path class="st0" d="M303.14,256.68c2.7-0.34,5.4-0.34,8.1,0c3.11,0.42,5.44,3.77,5.27,6.83c-0.48,10.02-0.47,20.05,0.01,30.07
					c0.16,2.91-2.05,6.09-5,6.51c-2.89,0.39-5.78,0.39-8.66,0c-2.95-0.42-5.16-3.6-5-6.51c0.49-10.02,0.49-20.05,0.01-30.07
					C297.7,260.44,300.03,257.09,303.14,256.68z"/>
				<path class="st7" d="M307.19,256.31c1.36,0,2.71,0.08,4.06,0.25c3.04,0.41,5.54,3.65,5.36,6.95
					c-0.48,9.97-0.47,20.08,0.01,30.06c0.17,3.12-2.21,6.21-5.09,6.62c-2.88,0.39-5.81,0.39-8.69,0c-2.88-0.41-5.26-3.51-5.09-6.62
					c0.48-9.97,0.49-20.09,0.01-30.06c-0.18-3.29,2.32-6.54,5.36-6.95h0C304.47,256.4,305.83,256.31,307.19,256.31z M307.19,300.26
					c1.44,0,2.89-0.1,4.32-0.29c2.78-0.4,5.07-3.38,4.91-6.39c-0.48-9.98-0.49-20.1-0.01-30.08c0.17-3.18-2.24-6.32-5.18-6.71
					c-2.68-0.34-5.39-0.34-8.07,0c-2.93,0.39-5.35,3.53-5.18,6.71c0.48,9.98,0.47,20.1-0.01,30.08c-0.17,3.01,2.13,5.99,4.91,6.39
					C304.3,300.16,305.74,300.26,307.19,300.26z"/>
			</g>
		</g>
		<g>
			<path class="st8" d="M300.73,262.32h12.92c-0.02-0.16-0.03-0.32-0.05-0.48h-12.81C300.76,262,300.74,262.16,300.73,262.32z"/>
		</g>
		<g>
			<path class="st7" d="M299.41,267.23l0.11,0.41c0.8,2.93,1.24,6.82,1.24,10.94c0,0.45-0.01,0.91-0.02,1.37l-0.01,0.03l-1.96,4.9
				l-0.01-0.39c-0.03-1.14-0.04-2.26-0.04-3.35c0-4.63,0.21-9.17,0.63-13.5L299.41,267.23z M300.59,279.94
				c0.01-0.45,0.02-0.9,0.02-1.35c0-3.91-0.4-7.61-1.12-10.47c-0.39,4.19-0.59,8.57-0.59,13.04c0,0.96,0.01,1.95,0.03,2.96
				L300.59,279.94z"/>
		</g>
		<g>
			<path class="st7" d="M314.96,267.23l0.04,0.42c0.42,4.32,0.63,8.86,0.63,13.5c0,1.08-0.01,2.2-0.04,3.35l-0.01,0.39l-1.96-4.93
				c-0.01-0.46-0.02-0.92-0.02-1.37c0-4.13,0.44-8.01,1.24-10.94L314.96,267.23z M315.45,284.11c0.02-1.01,0.03-2.01,0.03-2.96
				c0-4.47-0.2-8.86-0.59-13.04c-0.73,2.86-1.12,6.56-1.12,10.47c0,0.44,0.01,0.9,0.02,1.35L315.45,284.11z"/>
		</g>
		<g>
			<path class="st0" d="M298.92,285.83v7.21c0,4.23,3.25,7.7,7.23,7.7h2.08c3.97,0,7.23-3.46,7.23-7.7v-7.21
				c-2.7,0.66-5.48,1-8.26,0.99C304.41,286.83,301.63,286.49,298.92,285.83z"/>
			<path d="M298.84,285.72l0.1,0.02c2.73,0.67,5.5,1.01,8.25,0.99c0.04,0,0.07,0,0.11,0c2.71,0,5.45-0.33,8.14-0.99l0.1-0.02v7.31
				c0,4.29-3.28,7.78-7.31,7.78h-2.08c-4.03,0-7.31-3.49-7.31-7.78V285.72z M308.23,300.65c3.94,0,7.15-3.41,7.15-7.61v-7.1
				c-2.67,0.64-5.39,0.97-8.08,0.97c-0.07,0-0.15,0-0.22,0c-2.69,0-5.41-0.33-8.08-0.97v7.1c0,4.2,3.21,7.61,7.15,7.61H308.23z"/>
		</g>
		<g>
			<path class="st0" d="M301.22,268.95c3.98,0.64,7.96,0.64,11.94,0c0.55-2.21,0.72-4.43,0.51-6.64h-12.96
				C300.5,264.52,300.66,266.74,301.22,268.95z"/>
			<path d="M300.64,262.23h13.1l0.01,0.07c0.21,2.21,0.04,4.46-0.51,6.67l-0.01,0.05l-0.05,0.01c-3.97,0.64-8,0.64-11.97,0
				l-0.05-0.01l-0.01-0.05c-0.55-2.21-0.72-4.45-0.51-6.67L300.64,262.23z M313.6,262.39h-12.82c-0.2,2.15-0.03,4.33,0.5,6.48
				c3.92,0.62,7.9,0.62,11.82,0C313.63,266.72,313.79,264.54,313.6,262.39z"/>
		</g>
		<g>
			<path class="st8" d="M300.71,262.31h12.96c-0.02-0.16-0.03-0.32-0.05-0.48h-12.86C300.74,261.99,300.72,262.15,300.71,262.31z"/>
		</g>
		<g>
			<path class="st0" d="M313.62,261.83v-3.46c-1.58-0.91-3.88-1.48-6.43-1.48s-4.85,0.57-6.43,1.48v3.46H313.62z"/>
			<path d="M307.19,256.81c2.46,0,4.82,0.54,6.47,1.49l0.04,0.02v3.59h-13.01v-3.59l0.04-0.02
				C302.37,257.35,304.73,256.81,307.19,256.81z M313.54,258.42c-1.63-0.92-3.94-1.45-6.35-1.45s-4.72,0.53-6.35,1.45v3.33h12.7
				V258.42z"/>
		</g>
		<g>
			<path class="st8" d="M298.98,285.87l-0.16,0.47c5.47,1.61,11.27,1.61,16.74,0l-0.16-0.47
				C310.03,287.42,304.34,287.42,298.98,285.87z"/>
		</g>
		<g>
			<path class="st0" d="M315.17,285.9l-2.01-5.85h-11.94l-2.01,5.85C304.42,287.4,309.95,287.4,315.17,285.9z"/>
			<path d="M301.16,279.97h12.05l2.06,5.99l-0.08,0.02c-5.23,1.51-10.77,1.51-16,0l-0.08-0.02L301.16,279.97z M313.1,280.13h-11.83
				l-1.96,5.71c5.16,1.47,10.6,1.47,15.76,0L313.1,280.13z"/>
		</g>
		<g>
			<g>
				<path class="st7" d="M300.78,258.37h-0.08c-0.97,0-1.77,0.85-1.77,1.88v0.14C299.34,259.52,299.99,258.81,300.78,258.37z"/>
			</g>
			<g>
				<path class="st7" d="M313.59,258.37h0.08c0.97,0,1.77,0.85,1.77,1.88v0.14C315.04,259.52,314.39,258.81,313.59,258.37z"/>
			</g>
		</g>
		<g>
			<g>
				<path class="st0" d="M296.72,281.26c-0.06,0.26,0,0.56,0.13,0.67l1.44,1.32c0.02,0.02,0.05,0.04,0.08,0.04v-1.24l-1.61-0.96
					L296.72,281.26z"/>
				<path class="st7" d="M296.71,280.98l1.74,1.04v1.39l-0.09-0.02c-0.04-0.01-0.08-0.03-0.11-0.06L296.8,282
					c-0.15-0.14-0.21-0.47-0.15-0.76L296.71,280.98z M298.29,282.11l-1.48-0.88l-0.01,0.05c-0.05,0.24,0.01,0.51,0.1,0.59l1.39,1.28
					V282.11z"/>
			</g>
			<g>
				<path class="st0" d="M317.65,281.26c0.06,0.26,0,0.56-0.13,0.67l-1.44,1.32c-0.02,0.02-0.05,0.04-0.08,0.04v-1.24l1.61-0.96
					L317.65,281.26z"/>
				<path class="st7" d="M317.67,280.98l0.06,0.26c0.06,0.29,0,0.62-0.15,0.76l-1.44,1.32c-0.03,0.03-0.07,0.05-0.11,0.06
					l-0.09,0.02v-1.39L317.67,280.98z M316.09,283.14l1.39-1.28c0.09-0.08,0.15-0.35,0.1-0.59l-0.01-0.05l-1.48,0.88V283.14z"/>
			</g>
		</g>
		<g>
			<g>
				<path class="st7" d="M302.93,290.28c0,2.77,0.46,5.2,1.16,6.61c-0.52-1.44-0.84-3.53-0.84-5.85c0-1.12,0.08-2.19,0.21-3.16
					h-0.41C302.98,288.63,302.93,289.44,302.93,290.28z"/>
			</g>
			<g>
				<path class="st7" d="M311.44,290.28c0,2.77-0.46,5.2-1.16,6.61c0.52-1.44,0.84-3.53,0.84-5.85c0-1.12-0.08-2.19-0.21-3.16h0.41
					C311.4,288.63,311.44,289.44,311.44,290.28z"/>
			</g>
		</g>
		<g>
			
				<rect x="301.22" y="268.95" transform="matrix(-1 -1.224647e-16 1.224647e-16 -1 614.3749 548.9966)" class="st0" width="11.94" height="11.11"/>
			<path d="M301.14,268.86h12.1v11.27h-12.1V268.86z M313.08,269.03h-11.79v10.94h11.79V269.03z"/>
		</g>
	</g>
	<g>
		<g>
			<g>
				<path class="st0" d="M221.95,292.47c-0.13-2.72,0.08-5.41,0.63-8.07c0.66-3.07,4.18-5.12,7.22-4.72
					c9.96,1.26,19.95,2.03,29.98,2.33c2.91,0.07,5.91,2.52,6.1,5.49c0.16,2.91-0.06,5.79-0.68,8.64c-0.65,2.91-3.99,4.86-6.88,4.48
					c-9.95-1.27-19.95-2.05-29.98-2.36C225.28,298.19,222.12,295.61,221.95,292.47z"/>
				<path class="st7" d="M221.9,288.41c0.11-1.35,0.3-2.7,0.57-4.03c0.64-2.99,4.07-5.24,7.34-4.8c9.9,1.25,19.98,2.03,29.97,2.33
					c3.12,0.07,6.02,2.68,6.21,5.59c0.16,2.91-0.07,5.82-0.68,8.67c-0.63,2.84-3.9,4.97-7,4.56c-9.9-1.26-19.99-2.05-29.96-2.36
					c-3.3-0.08-6.34-2.83-6.51-5.88l0,0C221.78,291.12,221.8,289.76,221.9,288.41z M265.72,291.84c0.11-1.44,0.13-2.89,0.05-4.33
					c-0.18-2.8-2.98-5.32-5.99-5.39c-9.99-0.3-20.08-1.08-29.99-2.33c-3.16-0.42-6.48,1.75-7.1,4.64c-0.54,2.64-0.75,5.35-0.63,8.05
					c0.16,2.95,3.1,5.61,6.29,5.68c9.99,0.3,20.07,1.1,29.99,2.36c2.99,0.4,6.14-1.65,6.75-4.39
					C265.4,294.71,265.6,293.27,265.72,291.84z"/>
			</g>
		</g>
		<g>
			<path class="st8" d="M227.39,295.32l1.01-12.88c-0.16,0-0.32,0.01-0.48,0.01l-1,12.77C227.07,295.26,227.23,295.29,227.39,295.32
				z"/>
		</g>
		<g>
			<path class="st7" d="M232.19,297.01l0.42-0.08c2.99-0.57,6.89-0.71,11.01-0.39c0.45,0.04,0.91,0.08,1.36,0.12l0.03,0.01
				l4.73,2.33l-0.38-0.02c-1.14-0.06-2.26-0.14-3.34-0.22c-4.62-0.36-9.13-0.93-13.41-1.68L232.19,297.01z M244.94,296.82
				c-0.45-0.05-0.9-0.09-1.34-0.12c-3.9-0.31-7.62-0.2-10.53,0.3c4.14,0.72,8.5,1.26,12.96,1.61c0.96,0.07,1.95,0.14,2.95,0.2
				L244.94,296.82z"/>
		</g>
		<g>
			<path class="st7" d="M233.4,281.51l0.43-0.01c4.34-0.08,8.89,0.06,13.5,0.42c1.07,0.08,2.19,0.18,3.34,0.3l0.38,0.04l-5.07,1.57
				c-0.46-0.02-0.92-0.06-1.37-0.09c-4.11-0.32-7.95-1.06-10.81-2.09L233.4,281.51z M250.26,282.34c-1.01-0.1-2-0.19-2.95-0.26
				c-4.46-0.35-8.84-0.49-13.05-0.43c2.8,0.95,6.45,1.63,10.35,1.94c0.44,0.03,0.9,0.06,1.35,0.09L250.26,282.34z"/>
		</g>
		<g>
			<path class="st0" d="M250.69,298.95l7.19,0.56c4.22,0.33,7.93-2.64,8.24-6.6l0.16-2.07c0.31-3.96-2.89-7.47-7.11-7.8l-7.19-0.56
				c0.45,2.75,0.57,5.55,0.34,8.32C252.11,293.56,251.56,296.31,250.69,298.95z"/>
			<path d="M250.58,299.02l0.03-0.09c0.88-2.67,1.43-5.4,1.63-8.14c0-0.04,0.01-0.07,0.01-0.11c0.21-2.7,0.09-5.46-0.35-8.19
				l-0.02-0.1l7.29,0.57c4.28,0.33,7.5,3.87,7.19,7.89l-0.16,2.07c-0.31,4.02-4.05,7.01-8.32,6.68L250.58,299.02z M266.19,290.83
				c0.31-3.93-2.85-7.39-7.03-7.72l-7.08-0.55c0.43,2.71,0.55,5.45,0.34,8.13c-0.01,0.07-0.01,0.15-0.02,0.22
				c-0.21,2.68-0.75,5.37-1.6,7.98l7.08,0.55c4.18,0.33,7.84-2.6,8.15-6.53L266.19,290.83z"/>
		</g>
		<g>
			<path class="st0" d="M234.04,295.35c0.95-3.92,1.26-7.89,0.93-11.91c-2.16-0.72-4.36-1.06-6.58-1.03l-1.01,12.92
				C229.57,295.72,231.79,295.73,234.04,295.35z"/>
			<path d="M227.29,295.4l1.02-13.06l0.08,0c2.22-0.04,4.45,0.31,6.61,1.03l0.05,0.02l0,0.05c0.33,4.01,0.01,8.02-0.93,11.93
				l-0.01,0.05l-0.05,0.01c-2.25,0.38-4.5,0.37-6.69-0.01L227.29,295.4z M228.47,282.49l-1,12.78c2.13,0.36,4.32,0.37,6.5,0.01
				c0.93-3.86,1.24-7.82,0.92-11.78C232.79,282.8,230.63,282.46,228.47,282.49z"/>
		</g>
		<g>
			<path class="st8" d="M227.38,295.34l1.01-12.92c-0.16,0-0.32,0.01-0.48,0.02l-1,12.82C227.06,295.28,227.22,295.31,227.38,295.34
				z"/>
		</g>
		<g>
			<path class="st0" d="M227.91,282.43l-3.45-0.27c-1.03,1.51-1.78,3.75-1.98,6.29c-0.2,2.54,0.19,4.88,0.97,6.52l3.45,0.27
				L227.91,282.43z"/>
			<path d="M222.4,288.45c0.19-2.45,0.92-4.76,1.99-6.33l0.03-0.04l3.58,0.28l-1.01,12.97l-3.58-0.28l-0.02-0.04
				C222.56,293.29,222.21,290.9,222.4,288.45z M224.5,282.24c-1.04,1.55-1.75,3.81-1.94,6.22c-0.19,2.41,0.16,4.75,0.95,6.44
				l3.32,0.26l0.99-12.66L224.5,282.24z"/>
		</g>
		<g>
			<path class="st8" d="M250.74,298.9l0.45,0.2c2.03-5.33,2.48-11.11,1.31-16.69l-0.48,0.12C253.14,288,252.69,293.67,250.74,298.9z
				"/>
		</g>
		<g>
			<path class="st0" d="M252.02,282.76l-5.99,1.55l-0.93,11.91l5.67,2.46C252.68,293.59,253.11,288.08,252.02,282.76z"/>
			<path d="M245.02,296.26l0.94-12.02l6.13-1.58l0.02,0.08c1.09,5.34,0.66,10.85-1.25,15.95l-0.03,0.08L245.02,296.26z
				 M246.11,284.37l-0.92,11.8l5.54,2.4c1.86-5.03,2.29-10.45,1.23-15.71L246.11,284.37z"/>
		</g>
		<g>
			<g>
				<path class="st7" d="M223.46,294.96l-0.01,0.08c-0.08,0.97,0.71,1.83,1.74,1.91l0.14,0.01
					C224.49,296.49,223.83,295.78,223.46,294.96z"/>
			</g>
			<g>
				<path class="st7" d="M224.46,282.18l0.01-0.08c0.08-0.97,0.98-1.7,2.01-1.62l0.14,0.01
					C225.72,280.83,224.96,281.43,224.46,282.18z"/>
			</g>
		</g>
		<g>
			<g>
				<path class="st0" d="M245.96,300.79c0.25,0.08,0.56,0.04,0.68-0.07l1.43-1.33c0.02-0.02,0.04-0.05,0.05-0.07l-1.23-0.1
					l-1.08,1.53L245.96,300.79z"/>
				<path class="st7" d="M245.68,300.78l1.17-1.65l1.38,0.11l-0.03,0.09c-0.01,0.04-0.03,0.07-0.07,0.11l-1.43,1.33
					c-0.15,0.14-0.48,0.18-0.77,0.09L245.68,300.78z M246.93,299.29l-0.99,1.4l0.05,0.01c0.24,0.07,0.51,0.03,0.6-0.05l1.38-1.28
					L246.93,299.29z"/>
			</g>
			<g>
				<path class="st0" d="M247.59,279.92c0.26-0.04,0.56,0.04,0.66,0.18l1.21,1.54c0.02,0.03,0.03,0.05,0.04,0.08l-1.23-0.1
					l-0.83-1.68L247.59,279.92z"/>
				<path class="st7" d="M247.31,279.88l0.27-0.04c0.29-0.04,0.62,0.05,0.74,0.21l1.21,1.54c0.03,0.04,0.05,0.08,0.05,0.12
					l0.01,0.09l-1.38-0.11L247.31,279.88z M249.35,281.63l-1.16-1.48c-0.08-0.1-0.33-0.18-0.58-0.15l-0.05,0.01l0.76,1.54
					L249.35,281.63z"/>
			</g>
		</g>
		<g>
			<g>
				<path class="st7" d="M255.44,295.3c2.76,0.22,5.22-0.05,6.68-0.64c-1.48,0.4-3.59,0.56-5.9,0.38c-1.12-0.09-2.18-0.25-3.13-0.46
					l-0.03,0.41C253.8,295.13,254.6,295.23,255.44,295.3z"/>
			</g>
			<g>
				<path class="st7" d="M256.1,286.82c2.76,0.22,5.15,0.87,6.5,1.67c-1.4-0.63-3.45-1.12-5.77-1.3c-1.12-0.09-2.19-0.09-3.16-0.03
					l0.03-0.41C254.45,286.73,255.26,286.75,256.1,286.82z"/>
			</g>
		</g>
		<g>
			
				<rect x="234.06" y="284.27" transform="matrix(-0.078 0.997 -0.997 -0.078 547.692 73.1169)" class="st0" width="11.94" height="11.11"/>
			<path d="M233.94,295.42l0.94-12.06l11.24,0.88l-0.94,12.06L233.94,295.42z M235.04,283.53l-0.92,11.75l10.91,0.85l0.92-11.75
				L235.04,283.53z"/>
		</g>
	</g>
	<g>
		<g>
			<g>
				<path class="st0" d="M338.95,301.55c-0.13-2.72,0.08-5.41,0.63-8.07c0.66-3.07,4.18-5.12,7.22-4.72
					c9.96,1.26,19.95,2.03,29.98,2.33c2.91,0.07,5.91,2.52,6.1,5.49c0.16,2.91-0.06,5.79-0.68,8.64c-0.65,2.91-3.99,4.86-6.88,4.48
					c-9.95-1.27-19.95-2.05-29.98-2.36C342.28,307.27,339.12,304.68,338.95,301.55z"/>
				<path class="st7" d="M338.9,297.49c0.11-1.35,0.3-2.7,0.57-4.03c0.64-2.99,4.07-5.24,7.34-4.8c9.9,1.25,19.98,2.03,29.97,2.33
					c3.12,0.07,6.02,2.68,6.21,5.59c0.16,2.91-0.07,5.82-0.68,8.67c-0.63,2.84-3.9,4.97-7,4.56c-9.9-1.26-19.99-2.05-29.96-2.36
					c-3.3-0.08-6.34-2.83-6.51-5.88l0,0C338.77,300.2,338.79,298.84,338.9,297.49z M382.71,300.91c0.11-1.44,0.13-2.89,0.05-4.33
					c-0.18-2.8-2.98-5.32-5.99-5.39c-9.99-0.3-20.08-1.08-29.99-2.33c-3.16-0.42-6.48,1.75-7.1,4.64c-0.54,2.64-0.75,5.35-0.63,8.05
					c0.16,2.95,3.1,5.61,6.29,5.68c9.99,0.3,20.07,1.1,29.99,2.36c2.99,0.4,6.14-1.65,6.75-4.39
					C382.39,303.78,382.6,302.35,382.71,300.91z"/>
			</g>
		</g>
		<g>
			<path class="st8" d="M344.38,304.39l1.01-12.88c-0.16,0-0.32,0.01-0.48,0.01l-1,12.77C344.06,304.34,344.22,304.37,344.38,304.39
				z"/>
		</g>
		<g>
			<path class="st7" d="M349.18,306.09l0.42-0.08c2.99-0.57,6.89-0.71,11.01-0.39c0.45,0.04,0.91,0.08,1.36,0.12l0.03,0.01
				l4.73,2.33l-0.38-0.02c-1.14-0.06-2.26-0.14-3.34-0.22c-4.62-0.36-9.13-0.93-13.41-1.68L349.18,306.09z M361.94,305.9
				c-0.45-0.05-0.9-0.09-1.34-0.12c-3.9-0.31-7.62-0.2-10.53,0.3c4.14,0.72,8.5,1.26,12.96,1.61c0.96,0.07,1.95,0.14,2.95,0.2
				L361.94,305.9z"/>
		</g>
		<g>
			<path class="st7" d="M350.39,290.59l0.43-0.01c4.34-0.08,8.89,0.06,13.5,0.42c1.07,0.08,2.19,0.18,3.34,0.3l0.38,0.04l-5.07,1.57
				c-0.46-0.02-0.92-0.06-1.37-0.09c-4.11-0.32-7.95-1.06-10.81-2.09L350.39,290.59z M367.26,291.42c-1.01-0.1-2-0.19-2.95-0.26
				c-4.46-0.35-8.84-0.49-13.05-0.43c2.8,0.95,6.45,1.63,10.35,1.94c0.44,0.03,0.9,0.06,1.35,0.09L367.26,291.42z"/>
		</g>
		<g>
			<path class="st0" d="M367.68,308.03l7.19,0.56c4.22,0.33,7.93-2.64,8.24-6.6l0.16-2.07c0.31-3.96-2.89-7.47-7.11-7.8l-7.19-0.56
				c0.45,2.75,0.57,5.55,0.34,8.32C369.11,302.64,368.55,305.38,367.68,308.03z"/>
			<path d="M367.57,308.1l0.03-0.09c0.88-2.67,1.43-5.4,1.63-8.14c0-0.04,0.01-0.07,0.01-0.11c0.21-2.7,0.09-5.46-0.35-8.19
				l-0.02-0.1l7.29,0.57c4.28,0.33,7.5,3.87,7.19,7.89l-0.16,2.07c-0.31,4.02-4.05,7.01-8.32,6.68L367.57,308.1z M383.18,299.91
				c0.31-3.93-2.85-7.39-7.03-7.72l-7.08-0.55c0.43,2.71,0.55,5.45,0.34,8.13c-0.01,0.07-0.01,0.15-0.02,0.22
				c-0.21,2.68-0.75,5.37-1.6,7.98l7.08,0.55c4.18,0.33,7.84-2.6,8.15-6.53L383.18,299.91z"/>
		</g>
		<g>
			<path class="st0" d="M351.03,304.43c0.95-3.92,1.26-7.89,0.93-11.91c-2.16-0.72-4.36-1.06-6.58-1.02l-1.01,12.92
				C346.56,304.8,348.78,304.8,351.03,304.43z"/>
			<path d="M344.28,304.48l1.02-13.06l0.08,0c2.22-0.04,4.45,0.31,6.61,1.03l0.05,0.02l0,0.05c0.33,4.01,0.01,8.02-0.93,11.93
				l-0.01,0.05l-0.05,0.01c-2.25,0.38-4.5,0.37-6.69-0.01L344.28,304.48z M345.46,291.57l-1,12.78c2.13,0.36,4.32,0.37,6.5,0.01
				c0.93-3.86,1.24-7.82,0.92-11.78C349.78,291.88,347.62,291.54,345.46,291.57z"/>
		</g>
		<g>
			<path class="st8" d="M344.37,304.42l1.01-12.92c-0.16,0-0.32,0.01-0.48,0.01l-1,12.82C344.06,304.36,344.21,304.39,344.37,304.42
				z"/>
		</g>
		<g>
			<path class="st0" d="M344.9,291.51l-3.45-0.27c-1.03,1.51-1.78,3.75-1.98,6.29c-0.2,2.54,0.19,4.88,0.97,6.52l3.45,0.27
				L344.9,291.51z"/>
			<path d="M339.39,297.53c0.19-2.45,0.92-4.76,1.99-6.33l0.03-0.04l3.58,0.28l-1.01,12.97l-3.58-0.28l-0.02-0.04
				C339.56,302.37,339.2,299.98,339.39,297.53z M341.49,291.32c-1.04,1.55-1.75,3.81-1.94,6.22c-0.19,2.41,0.16,4.75,0.95,6.44
				l3.32,0.26l0.99-12.66L341.49,291.32z"/>
		</g>
		<g>
			<path class="st8" d="M367.73,307.98l0.45,0.2c2.03-5.33,2.48-11.11,1.31-16.69l-0.48,0.12
				C370.13,297.08,369.69,302.75,367.73,307.98z"/>
		</g>
		<g>
			<path class="st0" d="M369.02,291.84l-5.99,1.55l-0.93,11.91l5.67,2.46C369.68,302.67,370.11,297.16,369.02,291.84z"/>
			<path d="M362.01,305.34l0.94-12.02l6.13-1.58l0.02,0.08c1.09,5.34,0.66,10.85-1.25,15.95l-0.03,0.08L362.01,305.34z
				 M363.11,293.45l-0.92,11.8l5.54,2.4c1.86-5.03,2.29-10.45,1.23-15.71L363.11,293.45z"/>
		</g>
		<g>
			<g>
				<path class="st7" d="M340.45,304.03l-0.01,0.08c-0.08,0.97,0.71,1.83,1.74,1.91l0.14,0.01
					C341.49,305.56,340.83,304.86,340.45,304.03z"/>
			</g>
			<g>
				<path class="st7" d="M341.45,291.26l0.01-0.08c0.08-0.97,0.98-1.7,2.01-1.62l0.14,0.01
					C342.71,289.91,341.95,290.5,341.45,291.26z"/>
			</g>
		</g>
		<g>
			<g>
				<path class="st0" d="M362.95,309.86c0.25,0.08,0.56,0.04,0.68-0.07l1.43-1.33c0.02-0.02,0.04-0.05,0.05-0.07l-1.23-0.1
					l-1.08,1.53L362.95,309.86z"/>
				<path class="st7" d="M362.67,309.86l1.17-1.65l1.38,0.11l-0.03,0.09c-0.01,0.04-0.03,0.07-0.07,0.11l-1.43,1.33
					c-0.15,0.14-0.48,0.18-0.77,0.09L362.67,309.86z M363.93,308.37l-0.99,1.4l0.05,0.01c0.24,0.07,0.51,0.03,0.6-0.05l1.38-1.28
					L363.93,308.37z"/>
			</g>
			<g>
				<path class="st0" d="M364.58,289c0.26-0.04,0.56,0.04,0.66,0.18l1.21,1.54c0.02,0.03,0.03,0.05,0.04,0.08l-1.23-0.1l-0.83-1.68
					L364.58,289z"/>
				<path class="st7" d="M364.31,288.96l0.27-0.04c0.29-0.04,0.62,0.05,0.74,0.21l1.21,1.54c0.03,0.04,0.05,0.08,0.05,0.12
					l0.01,0.09l-1.38-0.11L364.31,288.96z M366.34,290.71l-1.16-1.48c-0.08-0.1-0.33-0.18-0.58-0.15l-0.05,0.01l0.76,1.54
					L366.34,290.71z"/>
			</g>
		</g>
		<g>
			<g>
				<path class="st7" d="M372.43,304.38c2.76,0.22,5.22-0.05,6.68-0.64c-1.48,0.4-3.59,0.56-5.9,0.38
					c-1.12-0.09-2.18-0.25-3.13-0.46l-0.03,0.41C370.79,304.21,371.59,304.31,372.43,304.38z"/>
			</g>
			<g>
				<path class="st7" d="M373.09,295.89c2.76,0.22,5.15,0.87,6.5,1.67c-1.4-0.63-3.45-1.12-5.77-1.3c-1.12-0.09-2.19-0.09-3.16-0.03
					l0.03-0.41C371.45,295.81,372.26,295.83,373.09,295.89z"/>
			</g>
		</g>
		<g>
			
				<rect x="351.06" y="293.35" transform="matrix(-0.078 0.997 -0.997 -0.078 682.8568 -33.7359)" class="st0" width="11.94" height="11.11"/>
			<path d="M350.94,304.5l0.94-12.06l11.24,0.88l-0.94,12.06L350.94,304.5z M352.04,292.6l-0.92,11.75l10.91,0.85l0.92-11.75
				L352.04,292.6z"/>
		</g>
	</g>
	<g>
		<g>
			<g>
				<path class="st0" d="M420.52,259.53c2.72-0.13,5.41,0.08,8.07,0.63c3.07,0.66,5.12,4.18,4.72,7.22
					c-1.26,9.96-2.03,19.95-2.33,29.98c-0.07,2.91-2.52,5.91-5.49,6.1c-2.91,0.16-5.79-0.06-8.64-0.68
					c-2.91-0.65-4.86-3.99-4.48-6.88c1.27-9.95,2.05-19.95,2.36-29.98C414.8,262.86,417.38,259.7,420.52,259.53z"/>
				<path class="st7" d="M424.58,259.48c1.35,0.11,2.7,0.3,4.03,0.57c2.99,0.64,5.24,4.07,4.8,7.34c-1.25,9.9-2.03,19.98-2.33,29.97
					c-0.07,3.12-2.68,6.02-5.59,6.21c-2.91,0.16-5.82-0.07-8.67-0.68c-2.84-0.63-4.97-3.9-4.56-7c1.26-9.9,2.05-19.99,2.36-29.96
					c0.08-3.3,2.83-6.34,5.88-6.51l0,0C421.87,259.35,423.23,259.37,424.58,259.48z M421.15,303.29c1.44,0.11,2.88,0.13,4.33,0.05
					c2.8-0.18,5.32-2.98,5.39-5.99c0.3-9.99,1.08-20.08,2.33-29.99c0.42-3.16-1.75-6.48-4.64-7.1c-2.64-0.54-5.35-0.75-8.05-0.63
					c-2.95,0.16-5.61,3.1-5.68,6.29c-0.3,9.99-1.1,20.07-2.36,29.99c-0.4,2.99,1.65,6.14,4.39,6.75
					C418.28,302.97,419.72,303.18,421.15,303.29z"/>
			</g>
		</g>
		<g>
			<path class="st8" d="M417.67,264.96l12.88,1.01c0-0.16-0.01-0.32-0.01-0.48l-12.77-1C417.73,264.64,417.7,264.8,417.67,264.96z"
				/>
		</g>
		<g>
			<path class="st7" d="M415.98,269.76l0.08,0.42c0.57,2.99,0.71,6.89,0.39,11.01c-0.04,0.45-0.08,0.91-0.12,1.36l-0.01,0.03
				l-2.33,4.73l0.02-0.38c0.06-1.14,0.14-2.26,0.22-3.34c0.36-4.62,0.93-9.13,1.68-13.41L415.98,269.76z M416.17,282.52
				c0.05-0.45,0.09-0.9,0.12-1.34c0.31-3.9,0.2-7.62-0.3-10.53c-0.72,4.14-1.26,8.5-1.61,12.96c-0.07,0.96-0.14,1.95-0.2,2.95
				L416.17,282.52z"/>
		</g>
		<g>
			<path class="st7" d="M431.48,270.97l0.01,0.43c0.08,4.34-0.06,8.89-0.42,13.5c-0.08,1.07-0.18,2.19-0.3,3.34l-0.04,0.38
				l-1.57-5.07c0.02-0.46,0.06-0.92,0.09-1.37c0.32-4.11,1.06-7.95,2.09-10.81L431.48,270.97z M430.65,287.84
				c0.1-1.01,0.19-2,0.26-2.95c0.35-4.46,0.49-8.84,0.43-13.05c-0.95,2.8-1.63,6.45-1.94,10.35c-0.03,0.44-0.06,0.9-0.09,1.35
				L430.65,287.84z"/>
		</g>
		<g>
			<path class="st0" d="M414.04,288.26l-0.56,7.19c-0.33,4.22,2.64,7.93,6.6,8.24l2.07,0.16c3.96,0.31,7.47-2.89,7.8-7.11l0.56-7.19
				c-2.75,0.45-5.55,0.57-8.32,0.34C419.43,289.69,416.68,289.13,414.04,288.26z"/>
			<path d="M413.97,288.15l0.09,0.03c2.67,0.88,5.4,1.43,8.14,1.63c0.04,0,0.07,0.01,0.11,0.01c2.7,0.21,5.46,0.09,8.19-0.35
				l0.1-0.02l-0.57,7.29c-0.33,4.28-3.87,7.5-7.89,7.19l-2.07-0.16c-4.02-0.31-7.01-4.05-6.68-8.32L413.97,288.15z M422.16,303.76
				c3.93,0.31,7.39-2.85,7.72-7.03l0.55-7.08c-2.71,0.43-5.45,0.55-8.13,0.34c-0.07-0.01-0.15-0.01-0.22-0.02
				c-2.68-0.21-5.37-0.75-7.98-1.6l-0.55,7.08c-0.33,4.18,2.6,7.84,6.53,8.15L422.16,303.76z"/>
		</g>
		<g>
			<path class="st0" d="M417.64,271.61c3.92,0.95,7.89,1.26,11.91,0.93c0.72-2.16,1.06-4.36,1.02-6.58l-12.92-1.01
				C417.27,267.14,417.26,269.36,417.64,271.61z"/>
			<path d="M417.59,264.87l13.06,1.02l0,0.08c0.04,2.22-0.31,4.45-1.03,6.61l-0.02,0.05l-0.05,0c-4.01,0.33-8.02,0.01-11.93-0.93
				l-0.05-0.01l-0.01-0.05c-0.38-2.25-0.37-4.5,0.01-6.69L417.59,264.87z M430.5,266.04l-12.78-1c-0.36,2.13-0.37,4.32-0.01,6.5
				c3.86,0.93,7.82,1.24,11.78,0.92C430.19,270.36,430.53,268.2,430.5,266.04z"/>
		</g>
		<g>
			<path class="st8" d="M417.65,264.95l12.92,1.01c0-0.16-0.01-0.32-0.02-0.48l-12.82-1C417.71,264.64,417.68,264.8,417.65,264.95z"
				/>
		</g>
		<g>
			<path class="st0" d="M430.56,265.48l0.27-3.45c-1.51-1.03-3.75-1.78-6.29-1.98c-2.54-0.2-4.88,0.19-6.52,0.97l-0.27,3.45
				L430.56,265.48z"/>
			<path d="M424.54,259.97c2.45,0.19,4.76,0.92,6.33,1.99l0.04,0.03l-0.28,3.58l-12.97-1.01l0.28-3.58l0.04-0.02
				C419.7,260.14,422.09,259.78,424.54,259.97z M430.75,262.07c-1.55-1.04-3.81-1.75-6.22-1.94s-4.75,0.16-6.44,0.95l-0.26,3.32
				l12.66,0.99L430.75,262.07z"/>
		</g>
		<g>
			<path class="st8" d="M414.09,288.31l-0.2,0.45c5.33,2.03,11.11,2.48,16.69,1.31l-0.12-0.48
				C424.99,290.71,419.32,290.27,414.09,288.31z"/>
		</g>
		<g>
			<path class="st0" d="M430.23,289.6l-1.55-5.99l-11.91-0.93l-2.46,5.67C419.4,290.26,424.91,290.69,430.23,289.6z"/>
			<path d="M416.73,282.59l12.02,0.94l1.58,6.13l-0.08,0.02c-5.34,1.09-10.85,0.66-15.95-1.25l-0.08-0.03L416.73,282.59z
				 M428.62,283.69l-11.8-0.92l-2.4,5.54c5.03,1.86,10.45,2.29,15.71,1.23L428.62,283.69z"/>
		</g>
		<g>
			<g>
				<path class="st7" d="M418.03,261.03l-0.08-0.01c-0.97-0.08-1.83,0.71-1.91,1.74l-0.01,0.14
					C416.5,262.07,417.21,261.41,418.03,261.03z"/>
			</g>
			<g>
				<path class="st7" d="M430.8,262.03l0.08,0.01c0.97,0.08,1.7,0.98,1.62,2.01l-0.01,0.14
					C432.16,263.29,431.56,262.53,430.8,262.03z"/>
			</g>
		</g>
		<g>
			<g>
				<path class="st0" d="M412.2,283.53c-0.08,0.25-0.04,0.56,0.07,0.68l1.33,1.43c0.02,0.02,0.05,0.04,0.07,0.05l0.1-1.23
					l-1.53-1.08L412.2,283.53z"/>
				<path class="st7" d="M412.21,283.25l1.65,1.17l-0.11,1.38l-0.09-0.03c-0.04-0.01-0.07-0.03-0.11-0.07l-1.33-1.43
					c-0.14-0.15-0.18-0.48-0.09-0.77L412.21,283.25z M413.7,284.51l-1.4-0.99l-0.01,0.05c-0.07,0.24-0.03,0.51,0.05,0.6l1.28,1.38
					L413.7,284.51z"/>
			</g>
			<g>
				<path class="st0" d="M433.07,285.16c0.04,0.26-0.04,0.56-0.18,0.66l-1.54,1.21c-0.03,0.02-0.05,0.03-0.08,0.04l0.1-1.23
					l1.68-0.83L433.07,285.16z"/>
				<path class="st7" d="M433.11,284.89l0.04,0.27c0.04,0.29-0.05,0.62-0.21,0.74l-1.54,1.21c-0.04,0.03-0.08,0.05-0.12,0.05
					l-0.09,0.01l0.11-1.38L433.11,284.89z M431.36,286.92l1.48-1.16c0.1-0.08,0.18-0.33,0.15-0.58l-0.01-0.05l-1.54,0.76
					L431.36,286.92z"/>
			</g>
		</g>
		<g>
			<g>
				<path class="st7" d="M417.69,293.01c-0.22,2.76,0.05,5.22,0.64,6.68c-0.4-1.48-0.56-3.59-0.38-5.9
					c0.09-1.12,0.25-2.18,0.46-3.13l-0.41-0.03C417.86,291.37,417.76,292.18,417.69,293.01z"/>
			</g>
			<g>
				<path class="st7" d="M426.17,293.67c-0.22,2.76-0.87,5.15-1.67,6.5c0.63-1.4,1.12-3.45,1.3-5.77c0.09-1.12,0.09-2.19,0.03-3.16
					l0.41,0.03C426.26,292.03,426.24,292.84,426.17,293.67z"/>
			</g>
		</g>
		<g>
			
				<rect x="417.19" y="272.06" transform="matrix(-0.997 -0.078 0.078 -0.997 823.3962 587.3628)" class="st0" width="11.94" height="11.11"/>
			<path d="M417.57,271.52l12.06,0.94l-0.88,11.24l-12.06-0.94L417.57,271.52z M429.46,272.62l-11.75-0.92l-0.85,10.91l11.75,0.92
				L429.46,272.62z"/>
		</g>
	</g>
	<g>
		<g>
			<g>
				<path class="st0" d="M538.27,200.98c2.7-0.32,5.4-0.29,8.1,0.07c3.11,0.44,5.4,3.81,5.21,6.87
					c-0.56,10.02-0.63,20.04-0.23,30.07c0.14,2.91-2.1,6.07-5.05,6.47c-2.89,0.36-5.78,0.34-8.66-0.07
					c-2.95-0.44-5.13-3.64-4.95-6.55c0.57-10.02,0.65-20.04,0.26-30.07C532.8,204.71,535.16,201.38,538.27,200.98z"/>
				<path class="st7" d="M542.32,200.65c1.36,0.01,2.71,0.11,4.06,0.29c3.03,0.43,5.51,3.7,5.3,6.99
					c-0.56,9.97-0.63,20.08-0.23,30.06c0.15,3.12-2.26,6.19-5.14,6.58c-2.89,0.36-5.81,0.34-8.69-0.07
					c-2.88-0.43-5.23-3.55-5.04-6.66c0.56-9.97,0.65-20.08,0.26-30.06c-0.15-3.29,2.38-6.52,5.41-6.9h0
					C539.61,200.72,540.96,200.64,542.32,200.65z M541.97,244.6c1.44,0.01,2.89-0.07,4.32-0.25c2.78-0.37,5.1-3.34,4.96-6.35
					c-0.4-9.99-0.33-20.11,0.23-30.08c0.2-3.18-2.19-6.34-5.12-6.75c-2.67-0.36-5.39-0.38-8.07-0.06c-2.93,0.37-5.38,3.49-5.23,6.67
					c0.4,9.98,0.31,20.1-0.26,30.08c-0.19,3.01,2.08,6.01,4.86,6.43C539.08,244.48,540.52,244.59,541.97,244.6z"/>
			</g>
		</g>
		<g>
			<path class="st8" d="M535.82,206.6l12.92,0.1c-0.01-0.16-0.03-0.32-0.05-0.48l-12.81-0.1
				C535.85,206.28,535.83,206.44,535.82,206.6z"/>
		</g>
		<g>
			<path class="st7" d="M534.46,211.51l0.11,0.41c0.78,2.94,1.19,6.83,1.15,10.95c0,0.45-0.01,0.91-0.03,1.37l-0.01,0.03l-2,4.89
				l-0.01-0.39c-0.02-1.14-0.02-2.27-0.01-3.35c0.04-4.63,0.29-9.17,0.74-13.49L534.46,211.51z M535.54,224.22
				c0.01-0.45,0.02-0.9,0.03-1.35c0.03-3.91-0.34-7.61-1.04-10.48c-0.43,4.18-0.66,8.56-0.7,13.04c-0.01,0.96-0.01,1.95,0.01,2.96
				L535.54,224.22z"/>
		</g>
		<g>
			<path class="st7" d="M550.01,211.64l0.04,0.42c0.39,4.33,0.56,8.87,0.53,13.5c-0.01,1.08-0.03,2.2-0.07,3.35l-0.01,0.39
				l-1.93-4.95c-0.01-0.46-0.01-0.92-0.01-1.37c0.03-4.13,0.51-8.01,1.33-10.93L550.01,211.64z M550.36,228.52
				c0.03-1.01,0.05-2.01,0.05-2.96c0.04-4.47-0.13-8.86-0.49-13.05c-0.75,2.86-1.18,6.55-1.21,10.46c0,0.44,0,0.9,0.01,1.35
				L550.36,228.52z"/>
		</g>
		<g>
			<path class="st0" d="M533.82,230.1l-0.06,7.21c-0.03,4.23,3.19,7.72,7.16,7.75l2.08,0.02c3.97,0.03,7.25-3.4,7.29-7.64l0.06-7.21
				c-2.71,0.64-5.49,0.96-8.27,0.93C539.3,231.15,536.52,230.79,533.82,230.1z"/>
			<path d="M533.74,230l0.1,0.02c2.72,0.69,5.49,1.05,8.24,1.06c0.04,0,0.07,0,0.11,0c2.71,0.02,5.45-0.29,8.15-0.92l0.1-0.02
				l-0.06,7.31c-0.03,4.29-3.34,7.75-7.37,7.72l-2.08-0.02c-4.03-0.03-7.28-3.55-7.24-7.84L533.74,230z M543,245
				c3.94,0.03,7.18-3.36,7.21-7.55l0.06-7.1c-2.68,0.62-5.39,0.93-8.09,0.91c-0.07,0-0.15,0-0.22,0c-2.69-0.02-5.4-0.37-8.07-1.04
				l-0.06,7.1c-0.03,4.2,3.15,7.64,7.09,7.67L543,245z"/>
		</g>
		<g>
			<path class="st0" d="M536.25,213.24c3.98,0.67,7.96,0.7,11.94,0.1c0.57-2.21,0.76-4.42,0.56-6.63l-12.96-0.1
				C535.56,208.81,535.71,211.02,536.25,213.24z"/>
			<path d="M535.72,206.52l13.1,0.11l0.01,0.07c0.19,2.21,0,4.46-0.57,6.66l-0.01,0.05l-0.05,0.01c-3.98,0.61-8,0.57-11.97-0.1
				l-0.05-0.01l-0.01-0.05c-0.53-2.22-0.69-4.46-0.46-6.67L535.72,206.52z M548.68,206.79l-12.82-0.1
				c-0.21,2.15-0.06,4.33,0.45,6.48c3.92,0.66,7.89,0.69,11.82,0.1C548.68,211.12,548.86,208.94,548.68,206.79z"/>
		</g>
		<g>
			<path class="st8" d="M535.79,206.6l12.96,0.1c-0.01-0.16-0.03-0.32-0.05-0.48l-12.86-0.1
				C535.83,206.28,535.81,206.44,535.79,206.6z"/>
		</g>
		<g>
			<path class="st0" d="M548.71,206.22l0.03-3.46c-1.58-0.92-3.86-1.51-6.42-1.53s-4.85,0.53-6.44,1.43l-0.03,3.46L548.71,206.22z"
				/>
			<path d="M542.32,201.15c2.46,0.02,4.81,0.58,6.45,1.54l0.04,0.02l-0.03,3.59l-13.01-0.1l0.03-3.59l0.04-0.02
				C537.5,201.65,539.86,201.13,542.32,201.15z M548.65,202.81c-1.62-0.93-3.92-1.48-6.34-1.5s-4.73,0.49-6.36,1.39l-0.03,3.33
				l12.7,0.1L548.65,202.81z"/>
		</g>
		<g>
			<path class="st8" d="M533.87,230.15l-0.16,0.46c5.46,1.65,11.26,1.7,16.74,0.13l-0.16-0.47
				C544.91,231.78,539.23,231.74,533.87,230.15z"/>
		</g>
		<g>
			<path class="st0" d="M550.06,230.3l-1.96-5.86l-11.94-0.1l-2.06,5.83C539.31,231.72,544.83,231.76,550.06,230.3z"/>
			<path d="M536.1,224.26l12.05,0.1l2.01,6l-0.08,0.02c-5.25,1.46-10.78,1.42-16-0.13l-0.08-0.02L536.1,224.26z M548.05,224.52
				l-11.83-0.1l-2.01,5.69c5.14,1.51,10.59,1.55,15.76,0.13L548.05,224.52z"/>
		</g>
		<g>
			<g>
				<path class="st7" d="M535.9,202.66l-0.08,0c-0.97-0.01-1.78,0.83-1.78,1.87l0,0.14C534.45,203.8,535.1,203.09,535.9,202.66z"/>
			</g>
			<g>
				<path class="st7" d="M548.71,202.76l0.08,0c0.97,0.01,1.76,0.86,1.75,1.89l0,0.14C550.14,203.93,549.5,203.21,548.71,202.76z"/>
			</g>
		</g>
		<g>
			<g>
				<path class="st0" d="M531.66,225.51c-0.06,0.25,0,0.56,0.12,0.67l1.43,1.34c0.02,0.02,0.05,0.04,0.08,0.04l0.01-1.24l-1.6-0.97
					L531.66,225.51z"/>
				<path class="st7" d="M531.64,225.23l1.73,1.05l-0.01,1.39l-0.09-0.02c-0.04-0.01-0.08-0.03-0.11-0.06l-1.43-1.34
					c-0.15-0.14-0.21-0.47-0.14-0.76L531.64,225.23z M533.22,226.38l-1.47-0.89l-0.01,0.05c-0.06,0.24,0,0.51,0.1,0.59l1.38,1.29
					L533.22,226.38z"/>
			</g>
			<g>
				<path class="st0" d="M552.58,225.68c0.05,0.26,0,0.56-0.13,0.67l-1.45,1.31c-0.02,0.02-0.05,0.04-0.08,0.04l0.01-1.24l1.62-0.95
					L552.58,225.68z"/>
				<path class="st7" d="M552.6,225.4l0.06,0.26c0.06,0.29-0.01,0.62-0.16,0.76l-1.45,1.31c-0.03,0.03-0.07,0.05-0.11,0.06
					l-0.09,0.02l0.01-1.39L552.6,225.4z M551,227.56l1.4-1.26c0.09-0.08,0.16-0.35,0.1-0.59l-0.01-0.05l-1.48,0.87L551,227.56z"/>
			</g>
		</g>
		<g>
			<g>
				<path class="st7" d="M537.79,234.59c-0.02,2.77,0.42,5.2,1.11,6.61c-0.51-1.45-0.81-3.54-0.8-5.86
					c0.01-1.12,0.09-2.19,0.24-3.16l-0.41,0C537.85,232.94,537.8,233.75,537.79,234.59z"/>
			</g>
			<g>
				<path class="st7" d="M546.3,234.65c-0.02,2.77-0.5,5.2-1.21,6.6c0.53-1.44,0.87-3.52,0.89-5.85c0.01-1.12-0.06-2.19-0.19-3.16
					l0.41,0C546.27,233.01,546.31,233.81,546.3,234.65z"/>
			</g>
		</g>
		<g>
			
				<rect x="536.2" y="213.29" transform="matrix(-1 -8.046840e-03 8.046840e-03 -1 1082.5714 442.0327)" class="st0" width="11.94" height="11.11"/>
			<path d="M536.17,213.15l12.1,0.1l-0.09,11.27l-12.1-0.1L536.17,213.15z M548.11,213.42l-11.79-0.09l-0.09,10.94l11.79,0.09
				L548.11,213.42z"/>
		</g>
	</g>
	<g>
		<g>
			<g>
				<path class="st0" d="M474.7,315.24c-0.23-2.71-0.13-5.41,0.31-8.09c0.54-3.09,3.98-5.28,7.03-5c10,0.87,20.01,1.25,30.05,1.15
					c2.91-0.05,6,2.28,6.31,5.25c0.28,2.9,0.16,5.79-0.34,8.66c-0.53,2.93-3.8,5.02-6.7,4.74c-10-0.88-20.01-1.27-30.05-1.18
					C478.25,320.82,474.99,318.37,474.7,315.24z"/>
				<path class="st7" d="M474.49,311.18c0.05-1.36,0.19-2.71,0.41-4.05c0.52-3.02,3.86-5.39,7.15-5.09
					c9.94,0.86,20.05,1.25,30.03,1.15c3.12-0.05,6.12,2.44,6.42,5.34c0.27,2.9,0.16,5.82-0.34,8.68c-0.52,2.87-3.71,5.12-6.82,4.83
					c-9.95-0.87-20.05-1.27-30.03-1.18c-3.3,0.05-6.44-2.58-6.73-5.62l0,0C474.47,313.9,474.44,312.54,474.49,311.18z M518.4,312.89
					c0.06-1.44,0.02-2.89-0.12-4.33c-0.29-2.79-3.18-5.2-6.19-5.15c-9.99,0.1-20.11-0.29-30.06-1.15c-3.18-0.3-6.4,2-6.91,4.91
					c-0.44,2.66-0.54,5.38-0.31,8.07c0.28,2.94,3.32,5.48,6.51,5.43c9.99-0.09,20.1,0.31,30.06,1.18c3,0.28,6.07-1.89,6.58-4.66
					C518.2,315.77,518.35,314.33,518.4,312.89z"/>
			</g>
		</g>
		<g>
			<path class="st8" d="M480.24,317.87l0.5-12.91c-0.16,0.01-0.32,0.02-0.48,0.03l-0.5,12.8
				C479.92,317.82,480.08,317.85,480.24,317.87z"/>
		</g>
		<g>
			<path class="st7" d="M485.1,319.37l0.41-0.1c2.96-0.69,6.86-0.98,10.98-0.82c0.45,0.02,0.91,0.04,1.37,0.07l0.03,0.01l4.82,2.15
				l-0.39-0.01c-1.14-0.02-2.26-0.05-3.35-0.09c-4.63-0.18-9.16-0.57-13.46-1.16L485.1,319.37z M497.84,318.69
				c-0.45-0.03-0.9-0.05-1.35-0.07c-3.91-0.15-7.62,0.1-10.51,0.72c4.17,0.55,8.54,0.92,13.01,1.1c0.96,0.04,1.95,0.07,2.96,0.08
				L497.84,318.69z"/>
		</g>
		<g>
			<path class="st7" d="M485.71,303.84l0.43-0.02c4.34-0.25,8.88-0.29,13.51-0.11c1.07,0.04,2.2,0.1,3.35,0.17l0.38,0.02l-5.01,1.77
				c-0.46-0.01-0.92-0.02-1.37-0.04c-4.12-0.16-7.99-0.75-10.89-1.67L485.71,303.84z M502.59,304.01c-1.01-0.06-2-0.11-2.96-0.15
				c-4.47-0.17-8.86-0.14-13.05,0.08c2.83,0.84,6.51,1.38,10.42,1.53c0.44,0.02,0.9,0.03,1.35,0.04L502.59,304.01z"/>
		</g>
		<g>
			<path class="st0" d="M503.67,320.59l7.2,0.28c4.23,0.16,7.82-2.95,7.97-6.92l0.08-2.07c0.15-3.97-3.18-7.36-7.41-7.52l-7.2-0.28
				c0.56,2.73,0.79,5.52,0.67,8.3C504.88,315.15,504.43,317.91,503.67,320.59z"/>
			<path d="M503.56,320.66l0.03-0.09c0.77-2.7,1.22-5.45,1.31-8.2c0-0.04,0-0.07,0-0.11c0.11-2.71-0.12-5.46-0.67-8.17l-0.02-0.1
				l7.31,0.28c4.29,0.17,7.65,3.58,7.49,7.6l-0.08,2.07c-0.16,4.02-3.77,7.16-8.06,7L503.56,320.66z M518.84,311.87
				c0.15-3.94-3.13-7.28-7.33-7.44l-7.1-0.28c0.54,2.69,0.76,5.42,0.66,8.11c0,0.07-0.01,0.15-0.01,0.22
				c-0.1,2.69-0.54,5.39-1.28,8.03l7.1,0.28c4.19,0.16,7.73-2.91,7.88-6.85L518.84,311.87z"/>
		</g>
		<g>
			<path class="st0" d="M486.89,317.64c0.79-3.95,0.95-7.93,0.46-11.94c-2.19-0.64-4.39-0.89-6.61-0.77l-0.5,12.95
				C482.44,318.19,484.65,318.1,486.89,317.64z"/>
			<path d="M480.15,317.96l0.51-13.09l0.08,0c2.22-0.13,4.45,0.13,6.64,0.77l0.05,0.02l0.01,0.05c0.48,3.99,0.33,8.02-0.46,11.96
				l-0.01,0.05l-0.05,0.01c-2.23,0.46-4.48,0.55-6.68,0.25L480.15,317.96z M480.82,305.01l-0.5,12.81c2.14,0.28,4.33,0.2,6.49-0.25
				c0.78-3.89,0.93-7.87,0.46-11.81C485.15,305.15,482.97,304.9,480.82,305.01z"/>
		</g>
		<g>
			<path class="st8" d="M480.23,317.89l0.5-12.95c-0.16,0.01-0.32,0.02-0.48,0.03l-0.5,12.85
				C479.91,317.85,480.07,317.87,480.23,317.89z"/>
		</g>
		<g>
			<path class="st0" d="M480.25,304.97l-3.46-0.13c-0.97,1.55-1.63,3.82-1.73,6.37s0.38,4.86,1.23,6.48l3.46,0.13L480.25,304.97z"/>
			<path d="M474.99,311.2c0.1-2.46,0.73-4.79,1.74-6.4l0.03-0.04l3.59,0.14l-0.51,13l-3.59-0.14l-0.02-0.04
				C475.34,316.04,474.89,313.66,474.99,311.2z M476.84,304.92c-0.98,1.59-1.6,3.88-1.69,6.29c-0.09,2.41,0.34,4.74,1.2,6.4
				l3.32,0.13l0.49-12.69L476.84,304.92z"/>
		</g>
		<g>
			<path class="st8" d="M503.71,320.54l0.46,0.18c1.82-5.4,2.04-11.2,0.65-16.73l-0.47,0.14
				C505.69,309.55,505.46,315.23,503.71,320.54z"/>
		</g>
		<g>
			<path class="st0" d="M504.36,304.36l-5.92,1.78l-0.46,11.93l5.76,2.23C505.45,315.15,505.66,309.63,504.36,304.36z"/>
			<path d="M497.9,318.12l0.47-12.04l6.06-1.82l0.02,0.08c1.3,5.29,1.09,10.82-0.62,15.99l-0.03,0.08L497.9,318.12z M498.53,306.19
				l-0.46,11.83l5.63,2.18c1.67-5.1,1.88-10.53,0.61-15.74L498.53,306.19z"/>
		</g>
		<g>
			<g>
				<path class="st7" d="M476.3,317.66l0,0.08c-0.04,0.97,0.78,1.8,1.81,1.84l0.14,0.01C477.39,319.15,476.71,318.47,476.3,317.66z"
					/>
			</g>
			<g>
				<path class="st7" d="M476.8,304.86l0-0.08c0.04-0.97,0.91-1.73,1.95-1.69l0.14,0.01C478,303.46,477.27,304.08,476.8,304.86z"/>
			</g>
		</g>
		<g>
			<g>
				<path class="st0" d="M499.01,322.61c0.25,0.07,0.56,0.02,0.68-0.1l1.38-1.39c0.02-0.02,0.04-0.05,0.04-0.07l-1.23-0.05
					l-1.02,1.57L499.01,322.61z"/>
				<path class="st7" d="M498.73,322.61l1.1-1.7l1.38,0.05l-0.02,0.09c-0.01,0.04-0.03,0.08-0.06,0.11l-1.38,1.39
					c-0.14,0.14-0.48,0.2-0.76,0.12L498.73,322.61z M499.93,321.08l-0.94,1.44l0.05,0.01c0.24,0.06,0.51,0.01,0.6-0.08l1.33-1.34
					L499.93,321.08z"/>
			</g>
			<g>
				<path class="st0" d="M499.82,301.7c0.26-0.05,0.56,0.02,0.67,0.15l1.27,1.49c0.02,0.03,0.03,0.05,0.04,0.08l-1.23-0.05
					l-0.9-1.64L499.82,301.7z"/>
				<path class="st7" d="M499.54,301.67l0.26-0.05c0.29-0.05,0.62,0.03,0.75,0.18l1.27,1.49c0.03,0.04,0.05,0.07,0.06,0.11
					l0.02,0.09l-1.38-0.05L499.54,301.67z M501.65,303.33l-1.22-1.44c-0.08-0.09-0.34-0.17-0.59-0.12l-0.05,0.01l0.82,1.51
					L501.65,303.33z"/>
			</g>
		</g>
		<g>
			<g>
				<path class="st7" d="M508.27,316.75c2.76,0.11,5.21-0.26,6.65-0.9c-1.46,0.46-3.56,0.7-5.88,0.61
					c-1.12-0.04-2.19-0.16-3.15-0.34l-0.02,0.41C506.62,316.65,507.43,316.72,508.27,316.75z"/>
			</g>
			<g>
				<path class="st7" d="M508.6,308.25c2.76,0.11,5.18,0.66,6.56,1.41c-1.42-0.57-3.5-0.98-5.82-1.07
					c-1.12-0.04-2.19-0.01-3.16,0.09l0.02-0.41C506.95,308.23,507.76,308.22,508.6,308.25z"/>
			</g>
		</g>
		<g>
			
				<rect x="486.69" y="306.34" transform="matrix(-0.0388 0.9992 -0.9992 -0.0388 823.4425 -168.2965)" class="st0" width="11.94" height="11.11"/>
			<path d="M486.8,317.72l0.47-12.09l11.26,0.44l-0.47,12.09L486.8,317.72z M487.43,305.79l-0.46,11.78l10.93,0.42l0.46-11.78
				L487.43,305.79z"/>
		</g>
	</g>
	<g>
		<g>
			<g>
				<path class="st0" d="M149.11,251.13c2.7-0.34,5.4-0.34,8.1,0c3.11,0.42,5.44,3.77,5.27,6.83c-0.48,10.02-0.47,20.05,0.01,30.07
					c0.16,2.91-2.05,6.09-5,6.51c-2.89,0.39-5.78,0.39-8.66,0c-2.95-0.42-5.16-3.6-5-6.51c0.49-10.02,0.49-20.05,0.01-30.07
					C143.67,254.9,146,251.55,149.11,251.13z"/>
				<path class="st7" d="M153.15,250.77c1.36,0,2.71,0.08,4.06,0.25c3.04,0.41,5.54,3.65,5.36,6.95
					c-0.48,9.97-0.47,20.08,0.01,30.06c0.17,3.12-2.21,6.21-5.09,6.62c-2.88,0.39-5.81,0.39-8.69,0c-2.88-0.41-5.26-3.51-5.09-6.62
					c0.48-9.97,0.49-20.09,0.01-30.06c-0.18-3.29,2.32-6.54,5.36-6.95h0C150.44,250.85,151.8,250.77,153.15,250.77z M153.15,294.71
					c1.44,0,2.89-0.1,4.32-0.29c2.78-0.4,5.07-3.38,4.91-6.39c-0.48-9.98-0.49-20.1-0.01-30.08c0.17-3.18-2.24-6.32-5.18-6.71
					c-2.68-0.34-5.39-0.34-8.07,0c-2.93,0.39-5.35,3.53-5.18,6.71c0.48,9.98,0.47,20.1-0.01,30.08c-0.17,3.01,2.13,5.99,4.91,6.39
					C150.27,294.62,151.71,294.71,153.15,294.71z"/>
			</g>
		</g>
		<g>
			<path class="st8" d="M146.7,256.77h12.92c-0.02-0.16-0.03-0.32-0.05-0.48h-12.81C146.73,256.45,146.71,256.61,146.7,256.77z"/>
		</g>
		<g>
			<path class="st7" d="M145.38,261.69l0.11,0.41c0.8,2.93,1.24,6.82,1.24,10.94c0,0.45-0.01,0.91-0.02,1.37l-0.01,0.03l-1.96,4.9
				l-0.01-0.39c-0.03-1.14-0.04-2.26-0.04-3.35c0-4.63,0.21-9.17,0.63-13.5L145.38,261.69z M146.56,274.39
				c0.01-0.45,0.02-0.9,0.02-1.35c0-3.91-0.4-7.61-1.12-10.47c-0.39,4.19-0.59,8.57-0.59,13.04c0,0.96,0.01,1.95,0.03,2.96
				L146.56,274.39z"/>
		</g>
		<g>
			<path class="st7" d="M160.93,261.69l0.04,0.42c0.42,4.32,0.63,8.86,0.63,13.5c0,1.08-0.01,2.2-0.04,3.35l-0.01,0.39l-1.96-4.93
				c-0.01-0.46-0.02-0.92-0.02-1.37c0-4.13,0.44-8.01,1.24-10.94L160.93,261.69z M161.42,278.57c0.02-1.01,0.03-2.01,0.03-2.96
				c0-4.47-0.2-8.86-0.59-13.04c-0.73,2.86-1.12,6.56-1.12,10.47c0,0.44,0.01,0.9,0.02,1.35L161.42,278.57z"/>
		</g>
		<g>
			<path class="st0" d="M144.89,280.28v7.21c0,4.23,3.25,7.7,7.23,7.7h2.08c3.97,0,7.23-3.46,7.23-7.7v-7.21
				c-2.7,0.66-5.48,1-8.26,0.99C150.37,281.28,147.59,280.94,144.89,280.28z"/>
			<path d="M144.81,280.18l0.1,0.02c2.73,0.67,5.5,1.01,8.25,0.99c0.04,0,0.07,0,0.11,0c2.71,0,5.45-0.33,8.14-0.99l0.1-0.02v7.31
				c0,4.29-3.28,7.78-7.31,7.78h-2.08c-4.03,0-7.31-3.49-7.31-7.78V280.18z M154.19,295.1c3.94,0,7.15-3.41,7.15-7.61v-7.1
				c-2.67,0.64-5.39,0.97-8.08,0.97c-0.07,0-0.15,0-0.22,0c-2.69,0-5.41-0.33-8.08-0.97v7.1c0,4.2,3.21,7.61,7.15,7.61H154.19z"/>
		</g>
		<g>
			<path class="st0" d="M147.18,263.4c3.98,0.64,7.96,0.64,11.94,0c0.55-2.21,0.72-4.43,0.51-6.64h-12.96
				C146.46,258.98,146.63,261.19,147.18,263.4z"/>
			<path d="M146.6,256.68h13.1l0.01,0.07c0.21,2.21,0.04,4.46-0.51,6.67l-0.01,0.05l-0.05,0.01c-3.97,0.64-8,0.64-11.97,0
				l-0.05-0.01l-0.01-0.05c-0.55-2.21-0.72-4.45-0.51-6.67L146.6,256.68z M159.56,256.85h-12.82c-0.2,2.15-0.03,4.33,0.5,6.48
				c3.92,0.62,7.9,0.62,11.82,0C159.59,261.18,159.76,259,159.56,256.85z"/>
		</g>
		<g>
			<path class="st8" d="M146.67,256.76h12.96c-0.02-0.16-0.03-0.32-0.05-0.48h-12.86C146.71,256.44,146.69,256.6,146.67,256.76z"/>
		</g>
		<g>
			<path class="st0" d="M159.58,256.28v-3.46c-1.58-0.91-3.88-1.48-6.43-1.48c-2.55,0-4.85,0.57-6.43,1.48v3.46H159.58z"/>
			<path d="M153.15,251.26c2.46,0,4.82,0.54,6.47,1.49l0.04,0.02v3.59h-13.01v-3.59l0.04-0.02
				C148.34,251.8,150.69,251.26,153.15,251.26z M159.5,252.87c-1.63-0.92-3.94-1.45-6.35-1.45s-4.72,0.53-6.35,1.45v3.33h12.7
				V252.87z"/>
		</g>
		<g>
			<path class="st8" d="M144.94,280.33l-0.16,0.47c5.47,1.61,11.27,1.61,16.74,0l-0.16-0.47C156,281.87,150.31,281.87,144.94,280.33
				z"/>
		</g>
		<g>
			<path class="st0" d="M161.13,280.35l-2.01-5.85h-11.94l-2.01,5.85C150.39,281.85,155.92,281.85,161.13,280.35z"/>
			<path d="M147.13,274.42h12.05l2.06,5.99l-0.08,0.02c-5.23,1.51-10.77,1.51-16,0l-0.08-0.02L147.13,274.42z M159.07,274.59h-11.83
				l-1.96,5.71c5.16,1.47,10.6,1.47,15.76,0L159.07,274.59z"/>
		</g>
		<g>
			<g>
				<path class="st7" d="M146.75,252.83h-0.08c-0.97,0-1.77,0.85-1.77,1.88v0.14C145.3,253.97,145.95,253.27,146.75,252.83z"/>
			</g>
			<g>
				<path class="st7" d="M159.56,252.83h0.08c0.97,0,1.77,0.85,1.77,1.88v0.14C161,253.97,160.35,253.27,159.56,252.83z"/>
			</g>
		</g>
		<g>
			<g>
				<path class="st0" d="M142.69,275.71c-0.06,0.26,0,0.56,0.13,0.67l1.44,1.32c0.02,0.02,0.05,0.04,0.08,0.04v-1.24l-1.61-0.96
					L142.69,275.71z"/>
				<path class="st7" d="M142.67,275.43l1.74,1.04v1.39l-0.09-0.02c-0.04-0.01-0.08-0.03-0.11-0.06l-1.44-1.32
					c-0.15-0.14-0.21-0.47-0.15-0.76L142.67,275.43z M144.26,276.57l-1.48-0.88l-0.01,0.05c-0.05,0.24,0.01,0.51,0.1,0.59l1.39,1.28
					V276.57z"/>
			</g>
			<g>
				<path class="st0" d="M163.62,275.71c0.06,0.26,0,0.56-0.13,0.67l-1.44,1.32c-0.02,0.02-0.05,0.04-0.08,0.04v-1.24l1.61-0.96
					L163.62,275.71z"/>
				<path class="st7" d="M163.64,275.43l0.06,0.26c0.06,0.29,0,0.62-0.15,0.76l-1.44,1.32c-0.03,0.03-0.07,0.05-0.11,0.06
					l-0.09,0.02v-1.39L163.64,275.43z M162.05,277.6l1.39-1.28c0.09-0.08,0.15-0.35,0.1-0.59l-0.01-0.05l-1.48,0.88V277.6z"/>
			</g>
		</g>
		<g>
			<g>
				<path class="st7" d="M148.9,284.73c0,2.77,0.46,5.2,1.16,6.61c-0.52-1.44-0.84-3.53-0.84-5.85c0-1.12,0.08-2.19,0.21-3.16h-0.41
					C148.94,283.09,148.9,283.89,148.9,284.73z"/>
			</g>
			<g>
				<path class="st7" d="M157.41,284.73c0,2.77-0.46,5.2-1.16,6.61c0.52-1.44,0.84-3.53,0.84-5.85c0-1.12-0.08-2.19-0.21-3.16h0.41
					C157.37,283.09,157.41,283.89,157.41,284.73z"/>
			</g>
		</g>
		<g>
			
				<rect x="147.18" y="263.4" transform="matrix(-1 -1.224647e-16 1.224647e-16 -1 306.308 537.903)" class="st0" width="11.94" height="11.11"/>
			<path d="M147.1,263.32h12.1v11.27h-12.1V263.32z M159.05,263.48h-11.79v10.94h11.79V263.48z"/>
		</g>
	</g>
	<g>
		
			<rect x="290.38" y="236.05" transform="matrix(-0.998 -0.0637 0.0637 -0.998 589.3774 494.9535)" class="グラフィックスタイル_x0020_4" width="24.39" height="4.06"/>
		
			<rect x="290.12" y="240.1" transform="matrix(-0.998 -0.0637 0.0637 -0.998 588.6028 503.0316)" class="グラフィックスタイル_x0020_4" width="24.39" height="4.06"/>
		
			<rect x="290.89" y="224.17" transform="matrix(-0.998 -0.0637 0.0637 -0.998 590.8997 479.078)" class="st6" width="24.39" height="11.9"/>
		<polygon points="303.72,225.2 298.5,231.86 308.06,232.47 		"/>
	</g>
	<g>
		<polygon class="st6" points="103.91,290.95 76.93,289.76 77.45,275.58 104.42,276.78 		"/>
		<polygon points="90.11,289.15 95.71,281.07 85.11,280.6 		"/>
	</g>
	<g>
		<circle class="st18" cx="132.51" cy="246.02" r="45.95"/>
		<g>
			<path class="st19" d="M110.57,232.78c-3.58-3.13-7.82-6.21-11.05-8.08l2.88-3.87c3.49,1.83,7.77,4.84,11.06,7.75L110.57,232.78z
				 M111.33,249.53c-3.9-3.4-7.59-6.05-11.25-8.12l2.85-4.06c3.85,2.03,8.05,4.92,11.39,7.76L111.33,249.53z M107.62,277.22
				c2.96-5.66,5.68-13.86,7.64-23.37l4.51,2.38c-1.66,8.93-4.37,17.58-7.32,24.04L107.62,277.22z M151.7,222.53
				c-2.25,4.48-4.81,7.9-8.75,11.76c5.62,1.19,12.97,1.75,20.07,1.62l-1.67,4.78c-2.38-0.04-3.45-0.12-5.52-0.28l5.58,31.8
				l-4.86,0.85l-2.48-14.14l-22.39,3.93c0.03,6.19-1.91,10.89-6.37,15.56l-4.4-2.92c5.13-4.59,6.77-10.29,5.3-18.67l-1.74-9.92
				c-1.7,0.83-3.36,1.51-5.09,2.21l-3.5-3.41c7.12-2.63,13.71-6.03,18.63-9.6c-4.42-1.86-9.08-4.74-13.12-8.25l-6.33,1.11
				l-0.73-4.16l19-3.33l-1.19-6.78l4.99-0.88l1.19,6.78l20.03-3.51l0.73,4.16L151.7,222.53z M126.81,226.9
				c3.37,2.64,7.37,4.77,11.42,6.11c3.07-2.78,5.9-6.25,7.7-9.46L126.81,226.9z M138.73,238.06c-2.49,1.95-5.74,4.11-9.69,6.38
				l0.65,3.71l21.82-3.83l-0.77-4.41c-4.1-0.47-8.07-1.29-11.48-2.27L138.73,238.06z M130.38,252.12l0.39,2.24
				c0.35,1.98,0.51,2.88,0.63,4.31l21.94-3.85l-1.15-6.53L130.38,252.12z"/>
		</g>
	</g>
	<g>
		<circle class="st18" cx="384.99" cy="248.93" r="45.95"/>
		<g>
			<path class="st19" d="M363.04,235.69c-3.58-3.13-7.82-6.21-11.05-8.09l2.88-3.87c3.49,1.83,7.77,4.84,11.06,7.75L363.04,235.69z
				 M363.81,252.44c-3.89-3.41-7.59-6.05-11.25-8.12l2.85-4.06c3.85,2.03,8.05,4.92,11.39,7.76L363.81,252.44z M360.09,280.13
				c2.96-5.66,5.68-13.86,7.64-23.37l4.51,2.38c-1.66,8.93-4.37,17.58-7.32,24.04L360.09,280.13z M404.18,225.43
				c-2.25,4.48-4.81,7.9-8.75,11.76c5.62,1.19,12.97,1.75,20.07,1.62l-1.67,4.78c-2.38-0.04-3.45-0.12-5.52-0.28l5.58,31.8
				l-4.86,0.85l-2.48-14.14l-22.39,3.93c0.03,6.19-1.91,10.89-6.37,15.56l-4.4-2.92c5.13-4.59,6.77-10.29,5.3-18.67l-1.74-9.92
				c-1.7,0.83-3.36,1.51-5.09,2.21l-3.5-3.41c7.12-2.63,13.71-6.03,18.63-9.6c-4.42-1.86-9.08-4.74-13.12-8.25l-6.33,1.11
				l-0.73-4.16l19-3.33l-1.19-6.78l4.99-0.88l1.19,6.78l20.02-3.51l0.73,4.16L404.18,225.43z M379.29,229.8
				c3.37,2.64,7.37,4.78,11.43,6.11c3.07-2.78,5.9-6.24,7.7-9.46L379.29,229.8z M391.21,240.97c-2.49,1.95-5.74,4.11-9.7,6.38
				l0.65,3.71l21.82-3.83l-0.77-4.41c-4.1-0.47-8.07-1.29-11.48-2.27L391.21,240.97z M382.86,255.03l0.39,2.24
				c0.35,1.98,0.5,2.88,0.62,4.31l21.95-3.85l-1.15-6.53L382.86,255.03z"/>
		</g>
	</g>
	<polygon class="グラフィックスタイル_x0020_8" points="451.61,197.04 451.61,297.96 525.75,297.96 525.75,220.34 
		506.17,220.34 506.17,197.04 	"/>
	<polyline class="st16" points="628.83,216.34 639.68,215.56 576.48,189.62 585.91,188.58 	"/>
	<g>
		<path d="M239.45,232.96c0.68-2.8,2.98-5.6,6.52-7.96l0.68-0.44c3.67-2.38,4.63-3.54,4.63-5.45c0-2.15-1.78-3.59-4.48-3.59
			c-2.2,0-3.74,0.81-5.42,2.8l-1.65-1.39c1.99-2.46,4.11-3.51,7.17-3.51c4.08,0,7.07,2.41,7.07,5.73c0,2.64-1.02,3.88-5.71,6.86
			l-0.94,0.6c-3.12,2.04-5.08,4.29-5.32,6.18h12.28v2.23h-14.85V232.96z"/>
		<path d="M228.69,252.15c-0.26,0.94-0.58,1.83-0.86,2.57h14.72c-0.21,3.19-0.73,6.05-1.39,7.49c-0.65,1.47-1.49,1.89-3.85,1.89
			c-1.39,0-3.25-0.08-4.53-0.18l-0.47-1.99c1.81,0.16,3.56,0.26,4.82,0.26c1.31,0,1.7-0.21,2.07-1.05c0.31-0.81,0.73-2.64,1-4.63
			h-13.07c-0.34,0.73-0.71,1.49-1.1,2.23l-2.12-0.6c0.94-1.68,1.81-3.67,2.59-5.97h-5.84v-1.78h24.87v1.78H228.69z M241.62,247.98
			h-17.1v-7.44h17.1V247.98z M226.65,246.31h12.86v-4.03h-12.86V246.31z"/>
		<path d="M252.28,251.28c-0.84,2.67-1.91,5.08-3.17,7.1l-0.97-2.09c1.7-2.54,3.04-5.71,3.95-9.45h-3.59V245h3.77v-5.6h1.94v5.6
			h2.72v1.83h-2.72v2.44c1.18,0.97,2.28,2.02,3.22,3.06l-1.1,1.75c-0.47-0.71-1.34-1.81-2.12-2.7v12.88h-1.94V251.28z
			 M266.89,254.92c1.68,2.41,3.88,4.35,6.68,5.92l-1.23,1.83c-2.75-1.73-5.18-4.14-6.76-6.7v8.3h-1.86v-8.14
			c-1.65,2.8-3.88,5.11-6.73,6.91l-1.31-1.6c2.85-1.6,5.13-3.74,6.86-6.52h-4.84v-9.32h6.02v-1.94h-7.38v-1.7h7.38v-2.57h1.86v2.57
			h7.54v1.7h-7.54v1.94h6.21v9.32H266.89z M259.56,247.2v2.23h4.16v-2.23H259.56z M259.56,251.02v2.28h4.16v-2.28H259.56z
			 M265.58,249.42h4.37v-2.23h-4.37V249.42z M265.58,253.3h4.37v-2.28h-4.37V253.3z"/>
	</g>
	<g>
		<path d="M491.84,228.26v14.17h4.06v2.02h-4.06v5.16h-2.3v-5.16h-10.79v-1.99l10.21-14.19H491.84z M489.54,234.89
			c0-1.2,0.05-3.25,0.13-4.53h-0.1c-0.71,1.39-1.39,2.59-1.91,3.33l-6.23,8.75h8.12V234.89z"/>
		<path d="M469.43,266.72c-0.26,0.94-0.58,1.83-0.86,2.57h14.72c-0.21,3.19-0.73,6.05-1.39,7.49c-0.65,1.47-1.49,1.89-3.85,1.89
			c-1.39,0-3.25-0.08-4.53-0.18l-0.47-1.99c1.81,0.16,3.56,0.26,4.82,0.26c1.31,0,1.7-0.21,2.07-1.05c0.31-0.81,0.73-2.64,1-4.63
			h-13.07c-0.34,0.73-0.71,1.49-1.1,2.23l-2.12-0.6c0.94-1.68,1.81-3.67,2.59-5.97h-5.84v-1.78h24.87v1.78H469.43z M482.37,262.55
			h-17.1v-7.44h17.1V262.55z M467.39,260.88h12.86v-4.03h-12.86V260.88z"/>
		<path d="M493.02,265.85c-0.84,2.67-1.91,5.08-3.17,7.1l-0.97-2.09c1.7-2.54,3.04-5.71,3.95-9.45h-3.59v-1.83h3.77v-5.6h1.94v5.6
			h2.72v1.83h-2.72v2.44c1.18,0.97,2.28,2.02,3.22,3.06l-1.1,1.75c-0.47-0.71-1.34-1.81-2.12-2.7v12.88h-1.94V265.85z
			 M507.63,269.49c1.68,2.41,3.88,4.35,6.68,5.92l-1.23,1.83c-2.75-1.73-5.18-4.14-6.76-6.7v8.3h-1.86v-8.14
			c-1.65,2.8-3.88,5.11-6.73,6.91l-1.31-1.6c2.85-1.6,5.13-3.74,6.86-6.52h-4.84v-9.32h6.02v-1.94h-7.38v-1.7h7.38v-2.57h1.86v2.57
			h7.54v1.7h-7.54v1.94h6.21v9.32H507.63z M500.3,261.77v2.23h4.16v-2.23H500.3z M500.3,265.59v2.28h4.16v-2.28H500.3z
			 M506.32,263.99h4.37v-2.23h-4.37V263.99z M506.32,267.87h4.37v-2.28h-4.37V267.87z"/>
	</g>
</g>
</svg>
