<?xml version="1.0" encoding="utf-8"?>
<!-- Generator: Adobe Illustrator 23.0.3, SVG Export Plug-In . SVG Version: 6.00 Build 0)  -->
<svg version="1.1" xmlns="http://www.w3.org/2000/svg" xmlns:xlink="http://www.w3.org/1999/xlink" x="0px" y="0px"
	 viewBox="0 0 700 500" style="enable-background:new 0 0 700 500;" xml:space="preserve">
<style type="text/css">
	.st0{fill:none;}
	.st1{fill:none;stroke:#000000;stroke-width:2.16;}
	.グラフィックスタイル{fill:none;stroke:#000000;stroke-width:2;stroke-miterlimit:10;}
	.グラフィックスタイル_x0020_2{fill:#D8EACC;stroke:#000000;stroke-width:2;}
	.グラフィックスタイル_x0020_6{fill:url(#SVGID_1_);stroke:#000000;stroke-width:1.1494;}
	.グラフィックスタイル_x0020_7{fill:none;stroke:#000000;stroke-width:1.5;stroke-linejoin:bevel;stroke-miterlimit:10;}
	.st2{fill:#FFFFFF;}
	.st3{fill:#D8EACC;stroke:#000000;stroke-width:2;}
	.st4{fill:none;stroke:#000000;stroke-width:1.4318;stroke-linecap:round;stroke-linejoin:round;}
	.st5{fill:none;stroke:#000000;stroke-width:1.8264;stroke-linecap:round;stroke-linejoin:round;}
	.st6{fill:#FFFFFF;stroke:#000000;stroke-width:2;stroke-miterlimit:10;}
	.st7{fill:#FFFFFF;stroke:#000000;stroke-width:1.2664;stroke-miterlimit:10;}
	.st8{fill:#030201;}
	.st9{fill:#242323;}
	.st10{fill:none;stroke:#000000;stroke-width:2;stroke-linejoin:round;stroke-miterlimit:10;}
	.st11{fill:none;stroke:#000000;stroke-width:2;stroke-miterlimit:10;}
	.st12{fill:none;stroke:#000000;stroke-width:2;stroke-linejoin:bevel;stroke-miterlimit:10;}
	.st13{fill:#E83589;}
	.st14{fill:none;stroke:#000000;stroke-width:2;stroke-miterlimit:10;stroke-dasharray:5.901,5.901;}
	.st15{fill:none;stroke:#000000;stroke-width:1.5;stroke-linejoin:bevel;stroke-miterlimit:10;}
	.st16{fill:#D8EACC;stroke:#000000;stroke-width:1.5;}
	.st17{fill:none;stroke:#000000;stroke-width:1.5;stroke-miterlimit:10;}
	.st18{fill:none;stroke:#000000;stroke-linejoin:bevel;stroke-miterlimit:10;}
	.st19{fill:#FFFFFF;stroke:#000000;stroke-width:1.5;stroke-miterlimit:10;}
	.st20{fill:#FFFFFF;stroke:#DE0000;stroke-width:2;stroke-miterlimit:10;}
	.st21{fill:#DE0000;}
	.st22{fill:none;stroke:#000000;stroke-miterlimit:10;}
	.st23{fill:none;stroke:#000000;stroke-miterlimit:10;stroke-dasharray:3.0312,3.0312;}
	.st24{fill:url(#SVGID_2_);stroke:#000000;stroke-width:1.1494;}
	.st25{fill:#FFFFFF;stroke:#000000;stroke-miterlimit:10;}
	.st26{fill:url(#SVGID_3_);stroke:#000000;stroke-width:1.1494;}
	.st27{fill:none;stroke:#000000;stroke-width:3;stroke-miterlimit:10;stroke-dasharray:5;}
	.st28{fill:none;stroke:#FFFFFF;stroke-width:0.75;stroke-linejoin:round;}
	.st29{fill:none;stroke:#000000;stroke-miterlimit:10;stroke-dasharray:5;}
	.st30{fill:none;stroke:#FFFFFF;stroke-width:3;stroke-linejoin:round;}
	.st31{fill:none;stroke:#000000;stroke-width:1.3;stroke-linejoin:bevel;stroke-miterlimit:10;}
	.st32{fill:none;stroke:#000000;stroke-width:1.5;stroke-miterlimit:10;stroke-dasharray:5;}
	.st33{fill:none;stroke:#47738A;stroke-linejoin:bevel;stroke-miterlimit:10;}
	.st34{fill:none;stroke:#FFFFFF;stroke-width:5;stroke-linejoin:round;}
	.st35{fill:#D8EACC;}
	.st36{fill:#D8EACC;stroke:#000000;stroke-width:0.25;}
	.st37{fill:none;stroke:#000000;stroke-width:2;}
	.st38{fill:none;stroke:#FFFFFF;stroke-linejoin:round;}
	.st39{fill:none;stroke:#000000;stroke-width:1.9773;stroke-linecap:round;stroke-linejoin:round;}
	.st40{fill:none;stroke:#000000;stroke-width:2.5222;stroke-linecap:round;stroke-linejoin:round;}
	.st41{fill:#FFFFFF;stroke:#000000;stroke-width:1.0238;stroke-miterlimit:10;}
	.st42{fill:#FFFFFF;stroke:#000000;stroke-width:1.089;stroke-miterlimit:10;}
	.st43{fill:#FFFFFF;stroke:#000000;stroke-width:1.2553;stroke-miterlimit:10;}
	.st44{fill:url(#SVGID_4_);}
	.st45{fill:none;stroke:#000000;stroke-width:1.7765;stroke-linejoin:bevel;stroke-miterlimit:10;}
	.st46{fill:none;stroke:#000000;stroke-width:2.3687;stroke-miterlimit:10;}
	.st47{fill:#D8EACC;stroke:#000000;stroke-width:2.0455;}
	.st48{fill:none;stroke:#000000;stroke-width:2.0455;stroke-linecap:round;stroke-miterlimit:10;stroke-dasharray:0,6.1366;}
	.st49{fill:#FFFFFF;stroke:#000000;stroke-width:2.3687;stroke-miterlimit:10;}
	.st50{fill:#FFFFFF;stroke:#000000;stroke-width:1.4998;stroke-miterlimit:10;}
	.st51{fill:#FFFFFF;stroke:#000000;stroke-width:0.6137;stroke-miterlimit:10;}
	.st52{fill:url(#SVGID_5_);stroke:#000000;stroke-width:1.0228;}
	.st53{fill:none;stroke:#FFFFFF;stroke-width:4.0911;stroke-linejoin:round;}
	.st54{fill:none;stroke:#000000;stroke-width:2.4559;stroke-linecap:round;stroke-linejoin:round;}
	.st55{fill:none;stroke:#000000;stroke-width:3.1327;stroke-linecap:round;stroke-linejoin:round;}
	.st56{fill:none;stroke:#FFFFFF;stroke-width:4;stroke-linejoin:round;}
</style>
<pattern  x="69.08" y="-633.81" width="72" height="72" patternUnits="userSpaceOnUse" id="_x31_0_lpi_30_x25_" viewBox="72.25 -72 72 72" style="overflow:visible;">
	<g>
		<rect x="72.25" y="-72" class="st0" width="72" height="72"/>
		<g>
			<line class="st1" x1="144" y1="-3.6" x2="216.5" y2="-3.6"/>
			<line class="st1" x1="144" y1="-18" x2="216.5" y2="-18"/>
			<line class="st1" x1="144" y1="-32.4" x2="216.5" y2="-32.4"/>
			<line class="st1" x1="144" y1="-46.8" x2="216.5" y2="-46.8"/>
			<line class="st1" x1="144" y1="-61.2" x2="216.5" y2="-61.2"/>
			<line class="st1" x1="144" y1="-10.8" x2="216.5" y2="-10.8"/>
			<line class="st1" x1="144" y1="-25.2" x2="216.5" y2="-25.2"/>
			<line class="st1" x1="144" y1="-39.6" x2="216.5" y2="-39.6"/>
			<line class="st1" x1="144" y1="-54" x2="216.5" y2="-54"/>
			<line class="st1" x1="144" y1="-68.4" x2="216.5" y2="-68.4"/>
		</g>
		<g>
			<line class="st1" x1="72" y1="-3.6" x2="144.5" y2="-3.6"/>
			<line class="st1" x1="72" y1="-18" x2="144.5" y2="-18"/>
			<line class="st1" x1="72" y1="-32.4" x2="144.5" y2="-32.4"/>
			<line class="st1" x1="72" y1="-46.8" x2="144.5" y2="-46.8"/>
			<line class="st1" x1="72" y1="-61.2" x2="144.5" y2="-61.2"/>
			<line class="st1" x1="72" y1="-10.8" x2="144.5" y2="-10.8"/>
			<line class="st1" x1="72" y1="-25.2" x2="144.5" y2="-25.2"/>
			<line class="st1" x1="72" y1="-39.6" x2="144.5" y2="-39.6"/>
			<line class="st1" x1="72" y1="-54" x2="144.5" y2="-54"/>
			<line class="st1" x1="72" y1="-68.4" x2="144.5" y2="-68.4"/>
		</g>
		<g>
			<line class="st1" x1="0" y1="-3.6" x2="72.5" y2="-3.6"/>
			<line class="st1" x1="0" y1="-18" x2="72.5" y2="-18"/>
			<line class="st1" x1="0" y1="-32.4" x2="72.5" y2="-32.4"/>
			<line class="st1" x1="0" y1="-46.8" x2="72.5" y2="-46.8"/>
			<line class="st1" x1="0" y1="-61.2" x2="72.5" y2="-61.2"/>
			<line class="st1" x1="0" y1="-10.8" x2="72.5" y2="-10.8"/>
			<line class="st1" x1="0" y1="-25.2" x2="72.5" y2="-25.2"/>
			<line class="st1" x1="0" y1="-39.6" x2="72.5" y2="-39.6"/>
			<line class="st1" x1="0" y1="-54" x2="72.5" y2="-54"/>
			<line class="st1" x1="0" y1="-68.4" x2="72.5" y2="-68.4"/>
		</g>
	</g>
</pattern>
<pattern  id="SVGID_1_" xlink:href="#_x31_0_lpi_30_x25_" patternTransform="matrix(-0.3364 -0.3364 0.3364 -0.3364 -8106.2651 -10879.0088)">
</pattern>
<g id="レイヤー_5">
	<rect x="-1164.06" y="-1158.14" class="st2" width="5667.56" height="5248"/>
</g>
<g id="レイヤー_1">
</g>
<g id="レイヤー_3">
</g>
<g id="レイヤー_4">
</g>
<g id="レイヤー_2">
	<rect y="0" class="st2" width="700" height="500"/>
	<polygon class="グラフィックスタイル_x0020_2" points="101.9,162.77 111.16,335.47 348.3,335.47 348.3,162.77 	"/>
	<polygon class="st3" points="594.7,162.77 348.3,162.77 348.3,335.47 568.71,335.47 	"/>
	<g>
		<g>
			<path d="M92.51,215.31l0.06,1.33L84.45,217l0.11,2.36l6.25-0.28l0.33,7.36c0.05,1.07-0.42,1.48-1.72,1.54
				c-0.76,0.03-1.51,0.03-2.27-0.01l-0.3-1.39c0.93,0.09,1.63,0.11,2.24,0.09c0.48-0.02,0.59-0.12,0.57-0.56l-0.25-5.66l-4.78,0.21
				l0.45,10.02l-1.46,0.06l-0.45-10.02l-4.54,0.2l0.34,7.73l-1.46,0.06l-0.4-9.02l5.99-0.27L83,217.07l-7.95,0.35l-0.06-1.33
				l7.95-0.35l-0.11-2.53l1.46-0.06l0.11,2.53L92.51,215.31z"/>
			<path d="M80.48,246.61c1.56,1.43,3.3,1.92,6.4,1.8l7.25-0.32c-0.17,0.41-0.3,0.84-0.39,1.33l-7.01,0.31
				c-3.23,0.11-5.04-0.42-6.7-1.96c-0.79,1.01-1.79,2.06-2.76,2.84l-0.87-1.27c0.84-0.55,1.79-1.34,2.69-2.25l-0.22-4.94l-2.73,0.12
				l-0.06-1.25l4.13-0.18L80.48,246.61z M79.28,237.44c-0.92-1.2-1.91-2.26-2.83-3.02l0.98-0.89c1.11,0.89,2.1,1.87,2.9,2.88
				L79.28,237.44z M81.05,236.39l-0.05-1.16l3.26-0.15c-0.34-0.58-0.77-1.17-1.26-1.72l1.27-0.56c0.63,0.8,1.02,1.43,1.43,2.21
				l2.4-0.11c0.32-0.66,0.7-1.66,0.91-2.35l1.47,0.3c-0.27,0.66-0.62,1.41-0.97,1.98l3.45-0.15l0.05,1.16l-5.33,0.24
				c-0.08,0.32-0.34,1.11-0.5,1.56l4.63-0.21l0.42,9.41l-9.39,0.42l-0.42-9.41l3.39-0.15c0.19-0.62,0.34-1.12,0.41-1.55
				L81.05,236.39z M83.91,240.55l6.64-0.3l-0.08-1.7l-6.64,0.3L83.91,240.55z M84.03,243.22l6.64-0.3l-0.08-1.68l-6.64,0.3
				L84.03,243.22z M84.16,246.12l6.64-0.3l-0.08-1.85l-6.64,0.3L84.16,246.12z"/>
			<path d="M52.85,156.07c-0.95-1.03-2.01-1.98-3-2.71l0.93-1.06c1.09,0.73,2.18,1.68,3.06,2.64L52.85,156.07z M53.31,151.34
				c-0.74-0.89-1.9-1.97-2.93-2.75l0.92-1c1.03,0.69,2.16,1.68,3,2.62L53.31,151.34z M50.75,163.69c1.02-1.49,2.09-3.7,2.98-6.19
				l1.2,0.85c-0.8,2.35-1.86,4.67-2.95,6.38L50.75,163.69z M60.84,156.25l-0.02,0.04c-0.46,1.59-1.5,4.11-2.37,5.83l-0.07,0.17
				l1.36-0.17c1.36-0.17,3.43-0.49,5.07-0.78c-0.61-0.93-1.32-1.9-2.07-2.85l1.13-0.7c1.58,1.83,2.92,3.7,3.88,5.43l-1.27,0.89
				c-0.46-0.85-0.66-1.21-1-1.75l-0.18,0.04c-2.03,0.5-6.36,1.26-9.37,1.65l-0.54-1.44l0.74-0.07l0.22-0.03
				c0.04,0,0.26-0.03,0.5-0.06c0.9-1.81,1.83-4.15,2.46-6.24l-4.65,0.21l-0.05-1.24l5.63-0.25l-0.17-3.73l-4.63,0.21l-0.06-1.27
				l4.63-0.21l-0.13-2.97l1.44-0.06l0.13,2.97l4.91-0.22l0.06,1.27l-4.91,0.22l0.17,3.73l5.87-0.26l0.05,1.24l-6.71,0.3
				L60.84,156.25z"/>
			<path d="M61.59,203.63l-1.42,0.06l-0.26-5.9c-1.58,2.18-4.08,4.17-6.94,5.48l-0.9-1.14c2.72-1.16,4.94-2.71,6.63-4.64l-6.75,0.3
				l-0.05-1.24l7.95-0.35l-0.09-2.01l1.42-0.06l0.09,2.01l8.08-0.36l0.05,1.24l-6.83,0.3c1.77,1.51,4.11,2.7,7.11,3.6l-0.85,1.33
				c-3.21-1.17-5.64-2.65-7.51-4.64L61.59,203.63z M65.88,187.62c-0.94,1.39-2.39,2.82-4.07,4.04c1.72,0.81,3.81,1.36,7.11,1.86
				l-0.7,1.29c-2.66-0.42-5.55-1.29-7.63-2.3c-2.12,1.37-4.84,2.49-7.6,3.17l-0.79-1.11c2.78-0.62,5.43-1.63,7.22-2.74
				c-0.74-0.48-1.84-1.38-2.72-2.21c-1,0.86-1.95,1.51-3.12,2.12l-0.95-0.92c2.19-1.02,4.27-2.85,5.32-4.65l1.41,0.21
				c-0.26,0.44-0.33,0.51-0.57,0.88l6.31-0.28L65.88,187.62z M57.86,188.44c-0.12,0.15-0.18,0.19-0.28,0.31
				c0.81,0.83,1.9,1.65,3,2.29c1.52-1.12,2.54-2.03,3.18-2.86L57.86,188.44z"/>
			<path d="M60.7,208.17c-0.85,0.41-2.33,0.92-3.57,1.25l-0.43-1.31c1.68-0.48,3.55-1.27,4.37-1.84l1.2-0.05l0.68,15.22l-1.66,0.07
				L60.7,208.17z"/>
			<path d="M57.58,235.82l0.11-0.04l0.07-0.04c0.67-0.25,1.53-0.62,2.05-0.89l0.21,1.3c-1.52,0.77-3.97,1.8-5.86,2.44l-0.58-1.4
				c1.02-0.32,1.17-0.37,2.15-0.7l0.44-0.15l-0.38-8.67l-2.4,0.11l-0.06-1.31l5.85-0.26l0.06,1.31l-2.01,0.09L57.58,235.82z
				 M69.26,227.52l0.44,9.83l-8.85,0.39l-0.44-9.83l2.88-0.13c0.18-0.62,0.31-1.27,0.41-1.9l-4.61,0.21l-0.05-1.22l11.4-0.51
				l0.05,1.22l-5.35,0.24c-0.17,0.77-0.38,1.46-0.54,1.91L69.26,227.52z M59.11,240.6c1.43-0.64,2.83-1.64,3.76-2.72l1.16,0.71
				c-1.09,1.23-2.52,2.37-3.86,3.04L59.11,240.6z M61.82,228.98l0.08,1.79l6.11-0.27l-0.08-1.79L61.82,228.98z M62.03,233.57
				l6.11-0.27l-0.08-1.72l-6.11,0.27L62.03,233.57z M62.16,236.54l6.11-0.27l-0.08-1.9l-6.11,0.27L62.16,236.54z M70.16,241.1
				c-1.13-0.95-2.51-1.88-3.81-2.6l0.98-0.86c1.63,0.83,2.75,1.52,3.88,2.38L70.16,241.1z"/>
			<path d="M62.38,245.97c-0.85,0.41-2.33,0.92-3.57,1.25l-0.43-1.31c1.68-0.48,3.55-1.27,4.37-1.84l1.2-0.05l0.68,15.22l-1.66,0.07
				L62.38,245.97z"/>
			<path d="M60.82,270.86c-0.16,0.67-0.35,1.31-0.53,1.83l10.37-0.46c-0.05,2.26-0.33,4.28-0.74,5.32
				c-0.42,1.05-0.99,1.38-2.65,1.45c-0.98,0.04-2.29,0.05-3.2,0.01l-0.39-1.39c1.28,0.05,2.52,0.07,3.4,0.03
				c0.92-0.04,1.19-0.2,1.42-0.8c0.2-0.58,0.43-1.89,0.56-3.3l-9.2,0.41c-0.22,0.53-0.45,1.07-0.7,1.6l-1.51-0.36
				c0.61-1.21,1.16-2.64,1.64-4.29l-4.11,0.18l-0.06-1.25l17.52-0.78l0.06,1.25L60.82,270.86z M69.8,267.52l-12.04,0.54l-0.23-5.24
				l12.04-0.54L69.8,267.52z M59.2,266.81l9.06-0.4l-0.13-2.84l-9.06,0.4L59.2,266.81z"/>
			<path d="M60.37,295.17c1.56,1.43,3.3,1.92,6.4,1.8l7.25-0.32c-0.17,0.41-0.29,0.85-0.38,1.33l-7.01,0.31
				c-3.23,0.11-5.05-0.42-6.7-1.96c-0.79,1.01-1.79,2.06-2.76,2.84l-0.87-1.27c0.84-0.55,1.79-1.34,2.69-2.24l-0.22-4.94l-2.73,0.12
				l-0.06-1.25l4.13-0.18L60.37,295.17z M59.17,286c-0.92-1.2-1.91-2.26-2.83-3.02l0.98-0.89c1.11,0.89,2.1,1.87,2.9,2.88L59.17,286
				z M60.93,284.95l-0.05-1.16l3.26-0.15c-0.34-0.58-0.77-1.17-1.26-1.72l1.27-0.56c0.63,0.8,1.02,1.43,1.43,2.21l2.4-0.11
				c0.32-0.66,0.7-1.66,0.91-2.35l1.47,0.3c-0.27,0.66-0.62,1.41-0.96,1.98l3.45-0.15l0.05,1.16l-5.33,0.24
				c-0.08,0.32-0.34,1.11-0.5,1.56L71.7,286l0.42,9.41l-9.39,0.42l-0.42-9.41l3.39-0.15c0.19-0.62,0.34-1.12,0.41-1.55L60.93,284.95
				z M63.8,289.11l6.64-0.3l-0.08-1.7l-6.64,0.3L63.8,289.11z M63.91,291.78l6.64-0.3l-0.08-1.68l-6.64,0.3L63.91,291.78z
				 M64.04,294.68l6.64-0.3l-0.08-1.84l-6.64,0.3L64.04,294.68z"/>
			<path d="M63.92,307.65l-2.38,0.11l0.13,2.91l2.4-0.11l0.05,1.22l-2.4,0.11l0.17,3.86c0.49-0.15,1.88-0.62,2.78-0.96l0.18,1.19
				c-2.16,0.87-4.78,1.75-7.17,2.39l-0.54-1.29l0.97-0.25l-0.32-7.19l1.25-0.06l0.31,6.92l0.46-0.13l0.44-0.13l0.38-0.11l-0.37-8.32
				l-2.69,0.12l-0.27-6l6.34-0.28L63.92,307.65z M58.83,306.67l3.73-0.17l-0.16-3.56l-3.73,0.17L58.83,306.67z M72.78,302.43
				c-0.62,1.75-1.46,3.26-2.51,4.57c1.21,0.96,2.69,1.78,4.34,2.38l-0.65,1.25c-1.69-0.66-3.29-1.61-4.54-2.68
				c-1.29,1.33-2.83,2.42-4.64,3.26l-0.79-1.11c1.64-0.61,3.2-1.68,4.49-3.03c-0.64-0.66-1.3-1.49-1.76-2.27l-0.07,0.1l-0.04,0.06
				c-0.45,0.63-1,1.25-1.55,1.75l-0.95-0.94c1.34-1.11,2.6-3.13,3.16-5.04l1.38,0.16c-0.18,0.49-0.23,0.64-0.36,0.96l3.58-0.16
				L72.78,302.43z M73.4,318.02l-1.35,0.06L72,316.99l-4.7,0.21l0.05,1.09L66,318.35l-0.32-7.27l7.4-0.33L73.4,318.02z
				 M67.25,315.99l4.7-0.21l-0.17-3.73l-4.7,0.21L67.25,315.99z M67.35,303.76c0.56,0.9,1.08,1.56,1.94,2.39
				c0.79-1,1.37-2,1.85-3.21l-3.43,0.15c-0.07,0.13-0.14,0.26-0.29,0.55L67.35,303.76z"/>
		</g>
		<g>
			<path d="M55.09,167.28l0.44,9.98l2.86-0.13l0.06,1.42l-2.86,0.13l0.16,3.63l-1.62,0.07l-0.16-3.63l-7.6,0.34l-0.06-1.4
				l6.75-10.32L55.09,167.28z M53.67,172.01c-0.04-0.85-0.06-2.29-0.05-3.2l-0.07,0c-0.46,1-0.9,1.87-1.24,2.4l-4.12,6.36l5.72-0.25
				L53.67,172.01z"/>
			<path d="M60.21,180.65c0.39-2,1.93-4.04,4.34-5.81l0.46-0.33c2.51-1.79,3.16-2.63,3.09-3.98c-0.07-1.51-1.37-2.47-3.27-2.39
				c-1.55,0.07-2.61,0.69-3.73,2.14l-1.21-0.93c1.33-1.8,2.79-2.6,4.94-2.7c2.88-0.13,5.05,1.48,5.16,3.82
				c0.08,1.86-0.6,2.76-3.81,5.01l-0.65,0.45c-2.13,1.54-3.44,3.18-3.55,4.52l8.65-0.38l0.07,1.57l-10.46,0.47L60.21,180.65z"/>
		</g>
	</g>
	<g>
		<g>
			<path d="M623.43,153.27c1.34-1.3,2.87-3.32,4.27-5.67l1.04,1.11c-1.29,2.21-2.84,4.35-4.29,5.86L623.43,153.27z M627.11,145.98
				c-0.75-1.24-1.63-2.41-2.49-3.36l1.16-0.88c0.95,0.96,1.87,2.14,2.56,3.29L627.11,145.98z M628.53,141.28
				c-0.57-1.05-1.52-2.38-2.41-3.38l1.13-0.83c0.9,0.91,1.85,2.14,2.51,3.26L628.53,141.28z M635.17,147.79l-0.03,0.03
				c-0.8,1.52-2.35,3.86-3.58,5.43l-0.1,0.16l1.41,0.1c1.41,0.1,3.58,0.21,5.29,0.24c-0.43-1.07-0.95-2.19-1.51-3.3l1.29-0.48
				c1.23,2.18,2.2,4.34,2.83,6.29l-1.47,0.64c-0.3-0.95-0.43-1.36-0.66-1.97l-0.19,0.01c-2.16,0.09-6.69-0.01-9.83-0.23l-0.26-1.56
				l0.76,0.08l0.23,0.02c0.04,0.01,0.27,0.02,0.52,0.04c1.28-1.65,2.7-3.83,3.76-5.83l-4.75-0.74l0.2-1.26l5.75,0.89l0.59-3.81
				l-4.73-0.73l0.2-1.3l4.73,0.73l0.47-3.03l1.47,0.23l-0.47,3.03l5.01,0.78l-0.2,1.3l-5.01-0.78l-0.59,3.81l5.99,0.93l-0.2,1.26
				l-6.86-1.06L635.17,147.79z"/>
			<path d="M626.28,195.93l-1.45-0.23l0.94-6.03c-2.05,1.88-4.98,3.4-8.15,4.14l-0.68-1.34c2.99-0.62,5.56-1.74,7.66-3.35l-6.9-1.07
				l0.2-1.26l8.12,1.26l0.32-2.05l1.45,0.23l-0.32,2.05l8.26,1.28l-0.2,1.26l-6.97-1.08c1.48,1.89,3.62,3.57,6.47,5.09l-1.13,1.18
				c-3.02-1.84-5.18-3.83-6.66-6.22L626.28,195.93z M633.88,180.59c-1.23,1.22-2.99,2.37-4.95,3.27c1.57,1.17,3.58,2.16,6.82,3.33
				l-0.97,1.16c-2.61-0.96-5.36-2.43-7.25-3.88c-2.43,0.96-5.41,1.54-8.35,1.66l-0.57-1.29c2.94-0.06,5.84-0.54,7.87-1.31
				c-0.65-0.64-1.58-1.77-2.31-2.79c-1.18,0.67-2.28,1.13-3.59,1.51l-0.77-1.12c2.43-0.59,4.91-2.02,6.33-3.63l1.39,0.5
				c-0.35,0.39-0.44,0.45-0.76,0.77l6.45,1L633.88,180.59z M625.59,179.79c-0.16,0.13-0.22,0.16-0.35,0.25
				c0.65,1.01,1.59,2.06,2.58,2.93c1.77-0.83,2.98-1.54,3.8-2.25L625.59,179.79z"/>
			<path d="M617.66,211.89c0.81-1.88,2.67-3.52,5.59-4.92l0.58-0.28c1.39-0.65,2.03-1,2.55-1.36c0.81-0.59,1.23-1.24,1.36-2.05
				c0.24-1.55-0.92-2.81-2.82-3.1c-1.53-0.24-2.89,0.19-4.28,1.36l-1.03-1.22c1.53-1.4,3.41-1.96,5.56-1.63
				c3,0.46,4.82,2.5,4.45,4.94c-0.19,1.24-0.81,2.09-2.09,2.9c-0.51,0.33-1.27,0.71-2.71,1.39l-0.73,0.35
				c-2.6,1.24-4.11,2.49-4.63,3.82l8.84,1.37l-0.25,1.6l-10.63-1.65L617.66,211.89z"/>
			<path d="M615.58,228.29l0.12-0.02l0.08-0.03c0.73-0.12,1.67-0.32,2.26-0.48l-0.06,1.36c-1.69,0.47-4.38,1.02-6.43,1.28l-0.3-1.53
				c1.1-0.12,1.26-0.13,2.32-0.28l0.47-0.06l1.37-8.86l-2.45-0.38l0.21-1.34l5.97,0.93l-0.21,1.34l-2.05-0.32L615.58,228.29z
				 M616.16,233.44c1.58-0.35,3.2-1.09,4.36-1.99l1.03,0.95c-1.36,1.02-3.03,1.88-4.52,2.29L616.16,233.44z M629.1,222.26
				l-1.56,10.05l-9.05-1.4l1.56-10.05l2.94,0.46c0.3-0.59,0.58-1.22,0.81-1.84l-4.71-0.73l0.19-1.24l11.65,1.81l-0.19,1.24
				l-5.47-0.85c-0.33,0.74-0.68,1.4-0.94,1.82L629.1,222.26z M620.08,229.96l6.24,0.97l0.3-1.94l-6.24-0.97L620.08,229.96z
				 M620.55,226.92l6.24,0.97l0.27-1.75l-6.24-0.97L620.55,226.92z M621.27,222.23l-0.28,1.83l6.24,0.97l0.28-1.83L621.27,222.23z
				 M627.25,236.2c-0.95-1.19-2.15-2.42-3.33-3.41l1.17-0.67c1.48,1.18,2.47,2.1,3.44,3.2L627.25,236.2z"/>
			<path d="M611.59,251.08c0.81-1.88,2.67-3.52,5.59-4.92l0.58-0.28c1.39-0.65,2.03-1,2.55-1.36c0.81-0.59,1.23-1.24,1.36-2.05
				c0.24-1.55-0.92-2.81-2.82-3.1c-1.53-0.24-2.89,0.19-4.28,1.36l-1.03-1.22c1.53-1.4,3.41-1.96,5.56-1.63
				c3,0.46,4.82,2.5,4.45,4.94c-0.19,1.24-0.81,2.09-2.09,2.9c-0.51,0.33-1.27,0.71-2.71,1.4l-0.73,0.35
				c-2.6,1.24-4.11,2.49-4.63,3.82l8.84,1.37l-0.25,1.6l-10.63-1.65L611.59,251.08z"/>
			<path d="M611.65,265c-0.29,0.65-0.62,1.26-0.91,1.75l10.59,1.64c-0.51,2.28-1.2,4.27-1.83,5.24c-0.64,0.98-1.28,1.19-2.98,0.93
				c-1-0.15-2.33-0.42-3.24-0.64l-0.12-1.49c1.28,0.32,2.53,0.59,3.44,0.73c0.94,0.15,1.25,0.04,1.61-0.52
				c0.32-0.55,0.82-1.82,1.23-3.23l-9.41-1.46c-0.33,0.49-0.68,1-1.04,1.48l-1.46-0.67c0.86-1.1,1.71-2.44,2.53-4.01l-4.2-0.65
				l0.2-1.28l17.91,2.78l-0.2,1.28L611.65,265z M621.43,263.45l-12.31-1.91l0.83-5.35l12.31,1.91L621.43,263.45z M610.83,260.57
				l9.25,1.43l0.45-2.9l-9.25-1.43L610.83,260.57z"/>
			<path d="M606.25,289.54c1.29,1.76,2.95,2.62,6.12,3.13l7.41,1.15c-0.25,0.39-0.47,0.8-0.66,1.27l-7.16-1.11
				c-3.29-0.55-5.02-1.45-6.39-3.35c-1,0.87-2.24,1.72-3.37,2.31l-0.62-1.47c0.97-0.39,2.08-0.99,3.18-1.73l0.78-5.05l-2.79-0.43
				l0.2-1.28l4.22,0.65L606.25,289.54z M606.89,280.01c-0.69-1.4-1.48-2.68-2.25-3.63l1.17-0.71c0.94,1.13,1.75,2.32,2.35,3.51
				L606.89,280.01z M608.9,279.3l0.18-1.19l3.34,0.52c-0.23-0.65-0.55-1.34-0.93-2l1.4-0.3c0.47,0.94,0.75,1.66,1,2.53l2.45,0.38
				c0.46-0.6,1.05-1.54,1.4-2.2l1.43,0.61c-0.4,0.61-0.92,1.31-1.38,1.81l3.52,0.55l-0.18,1.19l-5.45-0.84
				c-0.14,0.31-0.57,1.05-0.83,1.47l4.73,0.73l-1.49,9.61l-9.59-1.49l1.49-9.61l3.47,0.54c0.32-0.59,0.57-1.07,0.73-1.49
				L608.9,279.3z M610.07,289.79l6.79,1.05l0.29-1.88l-6.79-1.05L610.07,289.79z M610.53,286.83l6.79,1.05l0.27-1.72l-6.79-1.05
				L610.53,286.83z M610.95,284.09l6.79,1.05l0.27-1.73l-6.79-1.05L610.95,284.09z"/>
			<path d="M607.3,302.9l-2.43-0.38l-0.46,2.98l2.45,0.38l-0.19,1.24l-2.45-0.38l-0.61,3.94c0.53-0.05,2.03-0.25,3.01-0.4
				l-0.06,1.25c-2.37,0.44-5.2,0.8-7.75,0.96l-0.28-1.41l1.03-0.05l1.14-7.35l1.28,0.2l-1.1,7.07l0.49-0.04l0.47-0.04l0.41-0.03
				l1.32-8.5l-2.75-0.43l0.95-6.13l6.48,1L607.3,302.9z M602.35,300.88l3.81,0.59l0.56-3.64l-3.81-0.59L602.35,300.88z
				 M617.34,299.42c-0.99,1.64-2.15,3.01-3.47,4.11c1.03,1.22,2.36,2.35,3.91,3.29l-0.91,1.13c-1.58-1.02-3-2.3-4.05-3.64
				c-1.58,1.09-3.36,1.87-5.36,2.35l-0.57-1.29c1.78-0.28,3.58-1.05,5.16-2.15c-0.51-0.79-1.02-1.78-1.33-2.66l-0.09,0.08
				l-0.05,0.05c-0.59,0.55-1.26,1.06-1.93,1.46l-0.77-1.14c1.58-0.86,3.27-2.64,4.22-4.46l1.36,0.44c-0.28,0.46-0.36,0.6-0.56,0.9
				l3.66,0.57L617.34,299.42z M614.8,315.34l-1.38-0.21l0.17-1.11l-4.81-0.75l-0.17,1.11l-1.38-0.21l1.15-7.43l7.56,1.17
				L614.8,315.34z M608.98,312.02l4.81,0.75l0.59-3.81l-4.81-0.75L608.98,312.02z M611.57,299.66c0.38,1.02,0.78,1.8,1.48,2.81
				c1-0.85,1.79-1.75,2.53-2.87l-3.51-0.54c-0.1,0.12-0.19,0.24-0.41,0.5L611.57,299.66z"/>
		</g>
		<g>
			<path d="M627,158.35l-1.58,10.2l2.92,0.45l-0.23,1.45L625.2,170l-0.58,3.71l-1.66-0.26l0.58-3.71l-7.77-1.2l0.22-1.43l8.93-9.08
				L627,158.35z M624.61,162.86c0.13-0.87,0.4-2.33,0.6-3.25l-0.08-0.01c-0.66,0.92-1.29,1.71-1.75,2.18l-5.46,5.6l5.84,0.91
				L624.61,162.86z"/>
			<path d="M634.7,166.3c2.7,0.42,4.34-0.33,4.61-2.1c0.24-1.56-0.87-2.74-2.9-3.06c-1.53-0.24-2.62,0.06-3.95,1.07l-0.95-1.23
				c1.37-1.12,3.3-1.61,5.16-1.32c3.04,0.47,4.9,2.4,4.54,4.7c-0.29,1.9-1.89,2.99-4.25,2.91l-0.01,0.08
				c2.7,0.61,4.06,2.33,3.7,4.65c-0.42,2.7-2.91,4.07-6.45,3.52c-2.3-0.36-3.93-1.3-5.04-2.96l1.29-0.94
				c0.96,1.31,2.28,2.09,3.98,2.35c2.41,0.37,4.04-0.53,4.33-2.4c0.33-2.11-1.03-3.32-4.31-3.83l-1.22-0.19l0.22-1.43L634.7,166.3z"
				/>
		</g>
	</g>
	<g>
		<path d="M351.99,368.28v3.91l8.14-1.09l0.85,0.83c-0.93,2.69-2.4,4.62-4.28,5.71l-1-0.88c1.62-0.85,3.09-2.62,3.64-4.33
			l-7.34,1.05v6.08c0,0.73,0.15,1.04,0.58,1.19c0.37,0.14,1.43,0.22,2.86,0.22c1.53,0,2.82-0.07,4.62-0.24v1.39
			c-1.38,0.1-2.67,0.15-4.08,0.15c-2.46,0-3.76-0.1-4.32-0.32c-0.71-0.31-1.02-0.94-1.02-2.11v-6.19l-3.59,0.51l-0.14-1.31
			l3.72-0.49v-4.1H351.99z"/>
		<path d="M366.27,376.77c-0.31-1.41-0.87-3.16-1.43-4.37l1.12-0.56c0.54,1.1,1.12,2.77,1.53,4.44L366.27,376.77z M367.71,381.61
			c4.67-1.29,6.44-3.82,7.12-10.27l1.28,0.37c-0.88,6.82-2.7,9.42-7.7,10.98L367.71,381.61z M370.01,376.03
			c-0.31-1.43-0.82-3.01-1.39-4.33l1.21-0.49c0.53,1.14,0.97,2.55,1.41,4.37L370.01,376.03z"/>
		<path d="M383.25,368.27v4.73c3.26,1,6.37,2.19,8.14,3.11l-0.7,1.26c-1.97-1.02-4.98-2.24-7.45-3.04v8.5h-1.39v-14.55H383.25z"/>
		<path d="M394.67,381.1c1.79-2.38,3.43-7.51,3.74-11.68l1.36,0.29c-0.68,5.29-2.16,9.94-3.98,12.41L394.67,381.1z M407.58,382.12
			c-1.65-2.6-3.45-7.75-4.38-12.44l1.29-0.41c0.8,4.27,2.55,9.16,4.27,11.92L407.58,382.12z M406.85,371.14
			c-0.32-0.85-0.9-1.94-1.5-2.79l1.02-0.39c0.58,0.82,1.16,1.85,1.51,2.75L406.85,371.14z M408.97,370.54
			c-0.37-0.99-0.92-2.02-1.48-2.79l1-0.36c0.56,0.73,1.14,1.77,1.5,2.7L408.97,370.54z"/>
		<path d="M414.55,376.77c-0.31-1.41-0.87-3.16-1.43-4.37l1.12-0.56c0.54,1.1,1.12,2.77,1.53,4.44L414.55,376.77z M415.99,381.61
			c4.67-1.29,6.44-3.82,7.12-10.27l1.28,0.37c-0.88,6.82-2.7,9.42-7.7,10.98L415.99,381.61z M418.29,376.03
			c-0.31-1.43-0.82-3.01-1.39-4.33l1.21-0.49c0.53,1.14,0.97,2.55,1.41,4.37L418.29,376.03z"/>
		<path d="M441.07,371.22c-1.14,6.43-3.93,9.67-9.98,11.56l-0.78-1.19c5.46-1.55,8.31-4.64,9.26-10.03h-6.07
			c-1.04,1.67-2.41,3.11-3.96,4.15l-0.97-0.97c2.4-1.55,4.11-3.76,5.01-6.48l1.31,0.37c-0.22,0.61-0.48,1.21-0.71,1.72h5.86
			L441.07,371.22z"/>
		<path d="M446.97,375.68c0.75-1.27,2.06-2.01,3.64-2.01c2.48,0,4.42,1.89,4.42,4.33c0,2.77-1.92,4.73-4.62,4.73
			c-1.7,0-3.04-0.7-3.99-2.07c-0.82-1.19-1.16-2.38-1.16-4.15c0-1.72,0.82-3.77,2.09-5.29c1.22-1.46,2.87-2.5,5.01-3.18l0.61,1.21
			c-3.47,1.24-5.64,3.54-6.07,6.43H446.97z M447.14,378.04c0,1.8,1.48,3.35,3.21,3.35c1.75,0,3.04-1.39,3.04-3.28
			c0-1.89-1.24-3.18-3.06-3.18C448.67,374.93,447.14,376.41,447.14,378.04z"/>
		<path d="M461.64,380.05v2.43h-2.43v-2.43H461.64z"/>
		<path d="M476.6,375.59c0,4.42-1.95,7.14-5.1,7.14c-3.14,0-5.1-2.74-5.1-7.14c0-4.42,1.95-7.14,5.12-7.14
			C474.64,368.45,476.6,371.19,476.6,375.59z M468.06,375.59c0,3.57,1.31,5.78,3.45,5.78c2.11,0,3.42-2.21,3.42-5.78
			c0-3.6-1.31-5.8-3.45-5.8C469.37,369.8,468.06,372.02,468.06,375.59z"/>
		<path d="M489.86,368.71v1.38h-6.46l-0.53,4.83h0.07c0.8-0.75,1.9-1.16,3.18-1.16c2.7,0,4.55,1.79,4.55,4.35
			c0,2.7-2.06,4.62-4.96,4.62c-1.89,0-3.42-0.53-4.71-1.63l0.94-1.09c0.97,0.83,2.4,1.34,3.76,1.34c1.89,0,3.28-1.39,3.28-3.25
			c0-1.87-1.24-3.08-3.14-3.08c-1.24,0-2.55,0.61-3.13,1.46l-1.43-0.24l0.75-7.55H489.86z"/>
		<path d="M496.93,374.18c0.51-1.14,1.65-1.92,2.8-1.92c1.38,0,2.35,0.73,2.77,2.09c0.61-1.33,1.68-2.09,2.97-2.09
			c1.07,0,1.92,0.44,2.52,1.29c0.42,0.61,0.59,1.38,0.59,2.58v6.34h-1.51v-6.31c0-1.67-0.68-2.6-1.89-2.6
			c-1.05,0-2.07,1.02-2.4,2.38v6.53h-1.5v-6.39c0-1.53-0.73-2.52-1.87-2.52c-1.07,0-2.06,1.05-2.43,2.58v6.32h-1.53v-10.03h1.46
			V374.18z M506.24,370.94c0.22-0.56,0.51-0.9,1.14-1.29l0.36-0.22l0.14-0.08c0.71-0.42,0.87-0.58,0.87-0.85s-0.37-0.49-0.82-0.49
			c-0.44,0-0.83,0.22-1.12,0.6l-0.56-0.53c0.39-0.53,0.97-0.8,1.7-0.8c1,0,1.73,0.51,1.73,1.21c0,0.49-0.24,0.83-0.78,1.14
			l-0.34,0.19c-0.68,0.37-1.05,0.65-1.22,0.95h2.48v0.76h-3.57V370.94z"/>
	</g>
	<g>
		<path d="M515.15,405.68c0.24-1.05,0.37-1.75,0.54-2.67l1.36,0.17l-0.02,0.12c-0.24,1.12-0.39,1.82-0.53,2.38h5.69v1.19h-5.98
			c-1.05,4.3-2.31,8.09-3.65,10.98l-1.29-0.49c1.41-3.09,2.63-6.66,3.59-10.49h-3.55v-1.19H515.15z M525.55,417.37
			c-0.82,0.12-1.75,0.19-2.84,0.19c-1.56,0-3.11-0.17-3.93-0.44c-0.97-0.32-1.5-1.02-1.5-2.01c0-0.63,0.22-1.26,0.58-1.67l1.07,0.66
			c-0.15,0.2-0.27,0.54-0.27,0.83c0,0.49,0.24,0.85,0.68,0.99c0.61,0.19,1.8,0.32,2.86,0.32c1.04,0,2.23-0.08,3.2-0.24
			L525.55,417.37z M518.11,409.5c1.92-0.24,4.11-0.37,6.07-0.37h0.73l0.08,1.24h-1.07c-1.82,0-3.72,0.1-5.64,0.32L518.11,409.5z"/>
		<path d="M533.34,405.68c0.24-1.05,0.37-1.75,0.54-2.67l1.36,0.17l-0.02,0.12c-0.24,1.12-0.39,1.82-0.53,2.38h4.76v1.19h-5.05
			c-1.05,4.3-2.31,8.09-3.65,10.98l-1.29-0.49c1.41-3.09,2.63-6.66,3.59-10.49h-3.55v-1.19H533.34z M543.74,417.37
			c-0.82,0.12-1.75,0.19-2.84,0.19c-1.56,0-3.11-0.17-3.93-0.44c-0.97-0.32-1.5-1.02-1.5-2.01c0-0.63,0.22-1.26,0.58-1.67l1.07,0.66
			c-0.15,0.2-0.27,0.54-0.27,0.83c0,0.49,0.24,0.85,0.68,0.99c0.61,0.19,1.8,0.32,2.86,0.32c1.04,0,2.23-0.08,3.2-0.24
			L543.74,417.37z M536.3,409.5c1.92-0.24,4.11-0.37,6.07-0.37h0.73l0.09,1.24h-1.07c-1.82,0-3.72,0.1-5.64,0.32L536.3,409.5z
			 M541.62,406.34c-0.34-0.87-0.85-1.84-1.48-2.75l1.02-0.39c0.61,0.9,1.16,1.9,1.48,2.72L541.62,406.34z M543.73,405.68
			c-0.36-0.94-0.9-1.97-1.46-2.75l0.99-0.37c0.56,0.75,1.14,1.77,1.5,2.67L543.73,405.68z"/>
		<path d="M550.09,403.55v9.59c0,2.21,1.21,3.37,3.54,3.37c1.48,0,2.89-0.75,3.72-1.97c0.7-1.04,1.26-2.33,1.72-3.99l1.21,0.76
			c-0.54,1.85-1.09,3.08-1.79,4.06c-1.16,1.62-2.87,2.46-4.93,2.46c-3.14,0-4.84-1.65-4.84-4.71v-9.57H550.09z"/>
		<path d="M570.18,402.48h1.31v1.02h5.46v1.95h2.02v0.94h-2.02v2.01h-5.46v0.93h6.38v0.93h-6.38v0.95h7.48v0.97h-16.15v-0.97h7.36
			v-0.95h-6.14v-0.93h6.14v-0.93h-5.42v-0.92h5.42v-1.09h-7.36v-0.94h7.36v-1.04h-5.42v-0.92h5.42V402.48z M576.9,418.63h-1.34
			v-0.75h-9.31v0.75h-1.34v-5.58h12V418.63z M566.24,414.96h9.31v-0.97h-9.31V414.96z M566.24,416.91h9.31v-1.05h-9.31V416.91z
			 M571.49,404.42v1.04h4.15v-1.04H571.49z M571.49,406.39v1.09h4.15v-1.09H571.49z"/>
		<path d="M587.66,405.08c-0.19-0.51-0.51-1.53-0.65-1.97l1.33-0.08c0.14,0.49,0.48,1.51,0.68,2.06h5.78v1.16h-5.35
			c0.31,0.82,0.82,1.94,1.22,2.75h5.27v1.16h-4.66c0.53,0.99,1.26,2.09,1.9,2.96l-1.33,0.44c-0.73-1.05-1.44-2.21-2.06-3.4h-7.63
			v-1.16h7.07c-0.42-0.9-0.83-1.87-1.16-2.75h-5.63v-1.16H587.66z M593.08,417.59c-1.33,0.07-2.02,0.1-2.72,0.1
			c-2.14,0-3.69-0.17-4.71-0.49c-1.6-0.51-2.48-1.56-2.48-2.92c0-0.66,0.2-1.29,0.53-1.68l1.05,0.59c-0.17,0.41-0.26,0.77-0.26,1.11
			c0,1.48,1.73,2.14,5.58,2.14c0.92,0,1.82-0.05,2.89-0.14L593.08,417.59z"/>
		<path d="M602.85,415.08c1.28,1.33,2.89,1.89,5.7,1.94h6.97c-0.19,0.34-0.31,0.68-0.44,1.19h-6.54c-3.03-0.03-4.84-0.68-6.22-2.19
			c-0.8,1.07-1.67,1.99-2.45,2.62l-0.7-1.21c0.78-0.58,1.62-1.29,2.4-2.06v-4.44h-2.36v-1.16h3.65V415.08z M602.19,406.66
			c-0.75-1.12-1.58-2.16-2.43-2.97l0.93-0.78c0.83,0.73,1.65,1.65,2.52,2.84L602.19,406.66z M614.18,406.58v8.36
			c0,0.92-0.31,1.22-1.24,1.22c-0.49,0-1.12-0.03-1.73-0.1l-0.2-1.09c0.53,0.08,1.04,0.12,1.53,0.12c0.36,0,0.41-0.05,0.41-0.42
			v-1.79h-3.04v3.03h-1.19v-3.03h-2.94v3.23h-1.24v-9.54h4.56c-0.93-0.51-1.92-1-2.96-1.46l0.8-0.7c0.95,0.44,1.41,0.66,2.28,1.12
			c0.78-0.39,1.9-1.04,2.4-1.38h-7v-1.05h8.55l0.7,0.71c-0.88,0.7-2.31,1.56-3.69,2.24l0.2,0.14c0.39,0.22,0.42,0.24,0.63,0.37
			H614.18z M605.76,409.23h2.94v-1.67h-2.94V409.23z M605.76,411.9h2.94v-1.7h-2.94V411.9z M609.89,409.23h3.04v-1.67h-3.04V409.23z
			 M612.93,410.2h-3.04v1.7h3.04V410.2z"/>
		<path d="M624.12,408.7h-2.19v2.69h2.21v1.12h-2.21v3.55c0.46-0.12,1.75-0.49,2.6-0.76l0.12,1.1c-2.02,0.71-4.47,1.41-6.7,1.9
			l-0.44-1.21l0.9-0.19v-6.63h1.16v6.37l0.42-0.1l0.41-0.1l0.36-0.08v-7.67h-2.48v-5.52h5.85V408.7z M619.48,407.6h3.43v-3.28h-3.43
			V407.6z M632.48,404.27c-0.65,1.58-1.48,2.94-2.5,4.1c1.07,0.93,2.4,1.75,3.89,2.36l-0.65,1.12c-1.53-0.68-2.96-1.61-4.06-2.65
			c-1.24,1.17-2.7,2.11-4.4,2.8l-0.68-1.05c1.53-0.49,3.01-1.41,4.25-2.6c-0.56-0.63-1.14-1.43-1.53-2.16l-0.07,0.08l-0.03,0.05
			c-0.44,0.56-0.97,1.11-1.5,1.55l-0.83-0.9c1.28-0.97,2.52-2.77,3.11-4.5l1.26,0.2c-0.19,0.44-0.24,0.58-0.37,0.87h3.3
			L632.48,404.27z M632.42,418.63h-1.24v-1h-4.33v1h-1.24v-6.7h6.82V418.63z M626.84,416.51h4.33v-3.43h-4.33V416.51z
			 M627.44,405.27c0.48,0.85,0.94,1.48,1.68,2.28c0.77-0.88,1.34-1.78,1.84-2.87h-3.16c-0.07,0.12-0.14,0.24-0.29,0.49
			L627.44,405.27z"/>
	</g>
	<g>
		<path d="M589.06,336.44c1.98,0.32,3.19-0.22,3.4-1.52c0.19-1.15-0.62-2.02-2.11-2.26c-1.12-0.18-1.92,0.03-2.91,0.76l-0.69-0.91
			c1.01-0.81,2.43-1.16,3.8-0.94c2.22,0.36,3.58,1.79,3.31,3.48c-0.23,1.4-1.41,2.18-3.14,2.11l-0.01,0.06
			c1.98,0.47,2.97,1.74,2.69,3.44c-0.32,1.98-2.16,2.97-4.76,2.54c-1.69-0.28-2.88-0.98-3.68-2.21l0.95-0.68
			c0.69,0.97,1.66,1.55,2.91,1.75c1.77,0.29,2.97-0.37,3.2-1.73c0.25-1.55-0.74-2.45-3.14-2.84l-0.9-0.15l0.17-1.05L589.06,336.44z"
			/>
		<path d="M596.51,342.23l-0.32,1.98l-1.98-0.32l0.32-1.98L596.51,342.23z"/>
		<path d="M606.15,334.27l-1.22,7.48l2.14,0.35l-0.17,1.06l-2.14-0.35l-0.45,2.72l-1.22-0.2l0.45-2.72l-5.7-0.93l0.17-1.05
			l6.62-6.61L606.15,334.27z M604.36,337.57c0.1-0.64,0.31-1.71,0.46-2.38l-0.06-0.01c-0.49,0.67-0.96,1.25-1.3,1.59l-4.05,4.08
			l4.29,0.7L604.36,337.57z"/>
		<path d="M616.72,341.82c-0.59,3.59-2.54,5.55-5.1,5.13c-2.56-0.42-3.78-2.9-3.2-6.48c0.59-3.59,2.54-5.55,5.11-5.13
			C616.08,335.75,617.31,338.24,616.72,341.82z M609.78,340.68c-0.48,2.9,0.29,4.87,2.04,5.16c1.71,0.28,3.07-1.34,3.55-4.25
			c0.48-2.93-0.29-4.89-2.04-5.17C611.62,336.14,610.26,337.78,609.78,340.68z"/>
		<path d="M622.55,338.29c-0.67,0.17-1.95,0.35-2.82,0.39l-0.13-1.09c1.31-0.05,2.83-0.35,3.55-0.68l0.93,0.15l-1.87,11.4
			l-1.29-0.21L622.55,338.29z"/>
	</g>
	<g>
		<path d="M59.7,343.65v9.19h2.63v1.31H59.7v3.35h-1.49v-3.35h-7v-1.29l6.62-9.2H59.7z M58.21,347.94c0-0.78,0.03-2.11,0.08-2.94
			h-0.07c-0.46,0.9-0.9,1.68-1.24,2.16l-4.04,5.67h5.27V347.94z"/>
		<path d="M65.9,355.06v2.43h-2.43v-2.43H65.9z"/>
		<path d="M78.3,350.61c0,4.42-1.95,7.13-5.09,7.13c-3.14,0-5.1-2.73-5.1-7.13c0-4.42,1.95-7.13,5.11-7.13
			C76.34,343.48,78.3,346.21,78.3,350.61z M69.77,350.61c0,3.57,1.31,5.77,3.45,5.77c2.11,0,3.41-2.21,3.41-5.77
			c0-3.6-1.31-5.79-3.45-5.79C71.08,344.82,69.77,347.04,69.77,350.61z"/>
		<path d="M90.01,350.61c0,4.42-1.95,7.13-5.09,7.13c-3.14,0-5.09-2.73-5.09-7.13c0-4.42,1.95-7.13,5.11-7.13
			C88.06,343.48,90.01,346.21,90.01,350.61z M81.49,350.61c0,3.57,1.31,5.77,3.45,5.77c2.11,0,3.41-2.21,3.41-5.77
			c0-3.6-1.31-5.79-3.45-5.79C82.8,344.82,81.49,347.04,81.49,350.61z"/>
		<path d="M101.73,350.61c0,4.42-1.95,7.13-5.09,7.13c-3.14,0-5.09-2.73-5.09-7.13c0-4.42,1.95-7.13,5.11-7.13
			C99.78,343.48,101.73,346.21,101.73,350.61z M93.21,350.61c0,3.57,1.31,5.77,3.45,5.77c2.11,0,3.41-2.21,3.41-5.77
			c0-3.6-1.31-5.79-3.45-5.79C94.51,344.82,93.21,347.04,93.21,350.61z"/>
	</g>
	<polyline class="st4" points="309.84,126.63 309.84,114.89 316.74,126.63 316.74,114.89 	"/>
	<g>
		<circle class="st5" cx="278.08" cy="116.14" r="24.35"/>
		<polygon points="264.42,115.73 257.06,126.89 301.82,116.85 257.74,104.15 		"/>
	</g>
	<g>
		
			<rect x="154.11" y="59.53" transform="matrix(6.123234e-17 -1 1 6.123234e-17 66.4655 281.0597)" class="st13" width="39.3" height="95.53"/>
		<g>
			<path class="st2" d="M143.23,113.14h15.55v2.09h-15.55v1.41h-2.32V98.09h17.34v2.01h-15.01V113.14z M143.91,110.8
				c2.12-1.08,3.67-2.24,5.41-4.02c-1.33-1.12-3.09-2.38-4.83-3.52l1.41-1.58c1.72,1.08,3.21,2.14,4.85,3.4
				c1.02-1.35,1.85-2.72,2.7-4.44l2.09,1.02c-0.93,1.85-1.97,3.5-3.01,4.85c1.16,0.95,2.7,2.32,4.25,3.79l-1.64,1.72
				c-1.35-1.35-2.86-2.74-4.08-3.79c-1.74,1.85-3.55,3.19-5.76,4.35L143.91,110.8z"/>
			<path class="st2" d="M172.39,99.91h-8.69v-1.87h19.7v1.87h-8.81v1.99h4.44v10.35h-10.97V101.9h4.33V99.91z M180.6,113.6v-11.7
				h2.12v14.74h-2.12v-1.14h-14.12v1.14h-2.09V101.9h2.09v11.7H180.6z M170.03,103.6v2.51h2.45v-2.51H170.03z M170.03,107.71v2.8
				h2.45v-2.8H170.03z M174.51,106.11h2.55v-2.51h-2.55V106.11z M174.51,110.51h2.55v-2.8h-2.55V110.51z"/>
			<path class="st2" d="M206.59,116.65h-2.26v-1.06H190.9v1.06h-2.24V97.9h17.94V116.65z M190.9,113.64h13.44V99.79H190.9V113.64z
				 M202.4,112.75c-1.31-0.81-2.84-1.68-4.23-2.38c-1.51,1.27-3.34,2.28-5.37,3.01l-1.29-1.56c1.89-0.6,3.23-1.31,4.67-2.45
				l-0.54-0.25c-1.35-0.66-2.34-1.1-4.11-1.82l0.93-1.53c2.09,0.77,3.3,1.24,5.29,2.18c1.68-1.78,3.09-4.33,3.86-7.03l2.01,0.62
				c-0.85,2.63-2.38,5.5-3.94,7.34c0.1,0.06,0.1,0.06,0.19,0.1c1.04,0.52,2.18,1.14,3.75,2.07L202.4,112.75z M193.67,105.97
				c-0.48-1.62-1.04-2.99-1.66-4.06l1.91-0.77c0.66,1.16,1.22,2.49,1.72,4.04L193.67,105.97z M197.24,105.16
				c-0.5-1.58-1.06-2.92-1.68-4.09l1.82-0.73c0.75,1.33,1.39,2.8,1.72,4L197.24,105.16z"/>
		</g>
	</g>
	<g>
		<g>
			<g>
				<path class="st2" d="M194.45,190.54c0.53,4.56,0.5,9.11-0.11,13.66c-0.74,5.24-6.43,9.12-11.6,8.8
					c-16.91-0.94-33.82-1.07-50.74-0.39c-4.91,0.23-10.24-3.54-10.91-8.52c-0.61-4.88-0.58-9.75,0.12-14.62
					c0.75-4.97,6.14-8.66,11.05-8.35c16.91,0.96,33.82,1.1,50.74,0.43C188.17,181.32,193.79,185.29,194.45,190.54z"/>
				<path class="st8" d="M195.01,197.38c-0.02,2.29-0.18,4.58-0.48,6.85c-0.73,5.12-6.24,9.3-11.79,8.95
					c-16.82-0.94-33.88-1.07-50.72-0.39c-5.26,0.25-10.45-3.81-11.11-8.68c-0.61-4.87-0.57-9.81,0.12-14.67
					c0.73-4.86,5.99-8.83,11.25-8.5c16.82,0.95,33.89,1.1,50.72,0.43c5.56-0.26,11,4.01,11.65,9.14l0,0
					C194.91,192.8,195.03,195.09,195.01,197.38z M120.85,196.78c-0.02,2.44,0.12,4.87,0.43,7.29c0.63,4.7,5.64,8.61,10.72,8.37
					c16.85-0.68,33.93-0.55,50.76,0.39c5.37,0.34,10.7-3.7,11.4-8.64c0.6-4.51,0.64-9.1,0.11-13.62c-0.62-4.95-5.88-9.08-11.26-8.83
					c-16.85,0.67-33.92,0.52-50.76-0.43c-5.08-0.32-10.14,3.51-10.85,8.19C121.06,191.91,120.87,194.35,120.85,196.78z"/>
			</g>
		</g>
		<g>
			<path class="st9" d="M184.97,186.4l-0.18,21.8c0.27-0.02,0.54-0.05,0.81-0.08l0.17-21.62
				C185.51,186.46,185.24,186.43,184.97,186.4z"/>
		</g>
		<g>
			<path class="st8" d="M176.69,184.11l-0.69,0.18c-4.96,1.31-11.52,2-18.48,1.95c-0.76-0.01-1.54-0.02-2.31-0.05l-0.05-0.01
				l-8.25-3.37l0.65-0.01c1.92-0.03,3.82-0.04,5.65-0.02c7.82,0.06,15.48,0.48,22.77,1.25L176.69,184.11z M155.24,185.93
				c0.76,0.02,1.53,0.04,2.28,0.05c6.61,0.05,12.85-0.57,17.69-1.76c-7.06-0.72-14.45-1.11-22-1.18c-1.62-0.01-3.3-0.01-4.99,0.01
				L155.24,185.93z"/>
		</g>
		<g>
			<path class="st8" d="M176.48,210.35l-0.72,0.06c-7.3,0.65-14.96,0.95-22.78,0.89c-1.81-0.01-3.72-0.05-5.65-0.11l-0.65-0.02
				l8.35-3.25c0.77-0.01,1.55-0.02,2.31-0.01c6.96,0.06,13.51,0.85,18.45,2.24L176.48,210.35z M147.99,210.94
				c1.71,0.05,3.39,0.08,4.99,0.09c7.54,0.06,14.95-0.22,22.01-0.82c-4.82-1.26-11.05-1.99-17.66-2.04c-0.75-0.01-1.52,0-2.28,0.01
				L147.99,210.94z"/>
		</g>
		<g>
			<path class="st2" d="M145.31,183.03l-12.17-0.1c-7.14-0.06-13.03,5.38-13.08,12.09l-0.03,3.5c-0.05,6.71,5.75,12.24,12.89,12.3
				l12.17,0.1c-1.08-4.57-1.61-9.27-1.56-13.96C143.55,192.27,144.16,187.58,145.31,183.03z"/>
			<path d="M145.49,182.9l-0.04,0.16c-1.16,4.59-1.77,9.26-1.78,13.9c0,0.06,0,0.12,0,0.18c-0.04,4.58,0.49,9.2,1.56,13.75
				l0.04,0.16l-12.34-0.1c-7.24-0.06-13.08-5.64-13.03-12.43l0.03-3.5c0.05-6.8,5.99-12.28,13.23-12.22L145.49,182.9z
				 M120.18,198.53c-0.05,6.65,5.67,12.11,12.75,12.17l11.99,0.1c-1.05-4.51-1.57-9.1-1.53-13.64c0-0.12,0-0.25,0-0.37
				c0.04-4.54,0.62-9.12,1.75-13.62l-11.99-0.1c-7.08-0.06-12.89,5.31-12.94,11.96L120.18,198.53z"/>
		</g>
		<g>
			<path class="st2" d="M173.77,187.13c-1.13,6.71-1.19,13.43-0.16,20.16c3.73,0.96,7.46,1.28,11.19,0.95l0.18-21.87
				C181.25,185.97,177.51,186.23,173.77,187.13z"/>
			<path d="M185.12,186.24l-0.18,22.11l-0.13,0.01c-3.74,0.33-7.52,0.01-11.24-0.95l-0.09-0.02l-0.01-0.09
				c-1.02-6.71-0.97-13.5,0.16-20.19l0.01-0.09l0.09-0.02c3.74-0.9,7.53-1.16,11.26-0.77L185.12,186.24z M184.66,208.11l0.17-21.63
				c-3.63-0.36-7.31-0.11-10.94,0.76c-1.11,6.61-1.16,13.32-0.16,19.94C177.36,208.1,181.03,208.42,184.66,208.11z"/>
		</g>
		<g>
			<path class="st9" d="M184.98,186.36l-0.18,21.87c0.27-0.02,0.54-0.05,0.81-0.08l0.17-21.7
				C185.52,186.42,185.25,186.39,184.98,186.36z"/>
		</g>
		<g>
			<path class="st2" d="M185.62,208.15l5.84,0.05c1.55-2.66,2.55-6.52,2.58-10.83c0.03-4.31-0.9-8.19-2.41-10.87l-5.84-0.05
				L185.62,208.15z"/>
			<path d="M194.18,197.37c-0.03,4.15-0.98,8.12-2.6,10.89l-0.04,0.07l-6.06-0.05l0.18-21.96l6.06,0.05l0.04,0.07
				C193.33,189.24,194.21,193.22,194.18,197.37z M191.37,208.07c1.57-2.73,2.49-6.62,2.53-10.7c0.03-4.07-0.82-7.98-2.35-10.74
				l-5.61-0.05l-0.17,21.43L191.37,208.07z"/>
		</g>
		<g>
			<path class="st9" d="M145.24,183.12l-0.78-0.28c-2.79,9.21-2.87,19-0.23,28.25l0.79-0.26
				C142.48,201.75,142.56,192.16,145.24,183.12z"/>
		</g>
		<g>
			<path class="st2" d="M144.98,210.44l9.89-3.31l0.16-20.15l-9.84-3.47C142.59,192.29,142.52,201.62,144.98,210.44z"/>
			<path d="M155.18,186.89l-0.16,20.34l-10.13,3.39l-0.04-0.14c-2.47-8.85-2.4-18.19,0.22-27l0.04-0.14L155.18,186.89z
				 M154.73,207.04l0.16-19.97l-9.6-3.39c-2.55,8.68-2.62,17.87-0.21,26.59L154.73,207.04z"/>
		</g>
		<g>
			<g>
				<path class="st8" d="M191.62,186.54l0-0.14c0.01-1.64-1.4-3-3.15-3.01l-0.24,0C189.7,184.09,190.89,185.2,191.62,186.54z"/>
			</g>
			<g>
				<path class="st8" d="M191.45,208.16l0,0.14c-0.01,1.64-1.45,2.97-3.2,2.96l-0.24,0C189.49,210.58,190.7,209.49,191.45,208.16z"
					/>
			</g>
		</g>
		<g>
			<g>
				<path class="st2" d="M153.06,179.38c-0.43-0.1-0.94-0.01-1.14,0.2l-2.25,2.42c-0.04,0.04-0.06,0.08-0.07,0.13l2.08,0.02
					l1.64-2.7L153.06,179.38z"/>
				<path class="st8" d="M153.53,179.36l-1.77,2.92l-2.34-0.02l0.03-0.16c0.01-0.07,0.05-0.13,0.1-0.19l2.25-2.42
					c0.23-0.25,0.79-0.35,1.28-0.24L153.53,179.36z M151.6,182.01l1.51-2.48l-0.08-0.02c-0.41-0.1-0.86,0.01-1,0.16l-2.17,2.32
					L151.6,182.01z"/>
			</g>
			<g>
				<path class="st2" d="M152.77,214.7c-0.43,0.09-0.94-0.01-1.14-0.22l-2.22-2.45c-0.04-0.04-0.06-0.09-0.07-0.13l2.08,0.02
					l1.6,2.73L152.77,214.7z"/>
				<path class="st8" d="M153.25,214.73l-0.44,0.09c-0.49,0.1-1.05-0.01-1.27-0.26l-2.22-2.45c-0.05-0.06-0.09-0.12-0.1-0.19
					l-0.03-0.16l2.34,0.02L153.25,214.73z M149.61,212.03l2.13,2.36c0.14,0.15,0.58,0.27,1,0.18l0.08-0.02l-1.47-2.51L149.61,212.03
					z"/>
			</g>
		</g>
		<g>
			<g>
				<path class="st8" d="M137.75,189.74c-4.67-0.04-8.78,0.71-11.16,1.87c2.44-0.85,5.97-1.37,9.89-1.34
					c1.89,0.02,3.7,0.16,5.33,0.4l0.01-0.69C140.53,189.83,139.17,189.75,137.75,189.74z"/>
			</g>
			<g>
				<path class="st8" d="M137.64,204.1c-4.67-0.04-8.77-0.85-11.13-2.05c2.43,0.89,5.95,1.47,9.87,1.5c1.89,0.02,3.7-0.1,5.33-0.32
					l-0.01,0.69C140.41,204.05,139.05,204.11,137.64,204.1z"/>
			</g>
		</g>
		<g>
			
				<rect x="154.25" y="187.76" transform="matrix(8.046840e-03 -1 1 8.046840e-03 -34.1239 359.864)" class="st2" width="20.16" height="18.74"/>
			<path d="M173.92,187l-0.16,20.42l-19.02-0.15l0.16-20.42L173.92,187z M173.47,207.15l0.16-19.89l-18.46-0.15L155.01,207
				L173.47,207.15z"/>
		</g>
	</g>
	<g>
		<g>
			<g>
				<path class="st2" d="M391.24,318.18c-0.53-4.56-0.5-9.11,0.11-13.66c0.74-5.24,6.43-9.12,11.6-8.8
					c16.91,0.94,33.82,1.07,50.74,0.39c4.91-0.23,10.24,3.54,10.91,8.52c0.61,4.88,0.58,9.75-0.12,14.62
					c-0.75,4.97-6.14,8.66-11.05,8.35c-16.91-0.96-33.82-1.1-50.74-0.43C397.52,327.41,391.9,323.43,391.24,318.18z"/>
				<path class="st8" d="M390.68,311.34c0.02-2.29,0.18-4.58,0.48-6.85c0.73-5.12,6.24-9.3,11.79-8.95
					c16.82,0.94,33.88,1.07,50.72,0.39c5.26-0.25,10.45,3.81,11.11,8.68c0.61,4.87,0.57,9.81-0.12,14.67
					c-0.73,4.86-5.99,8.83-11.25,8.5c-16.82-0.95-33.89-1.1-50.72-0.43c-5.56,0.26-11-4.01-11.65-9.14l0,0
					C390.78,315.93,390.66,313.63,390.68,311.34z M464.83,311.94c0.02-2.44-0.12-4.87-0.43-7.29c-0.63-4.7-5.64-8.61-10.72-8.37
					c-16.85,0.68-33.93,0.55-50.76-0.39c-5.37-0.34-10.7,3.7-11.4,8.64c-0.6,4.51-0.64,9.1-0.11,13.62
					c0.62,4.95,5.88,9.08,11.26,8.83c16.85-0.67,33.92-0.52,50.76,0.43c5.08,0.32,10.14-3.51,10.85-8.19
					C464.63,316.81,464.81,314.38,464.83,311.94z"/>
			</g>
		</g>
		<g>
			<path class="st9" d="M400.72,322.32l0.18-21.8c-0.27,0.02-0.54,0.05-0.81,0.08l-0.17,21.62
				C400.18,322.26,400.45,322.3,400.72,322.32z"/>
		</g>
		<g>
			<path class="st8" d="M409,324.61l0.69-0.18c4.96-1.31,11.52-2,18.48-1.95c0.76,0.01,1.54,0.02,2.31,0.05l0.05,0.01l8.25,3.37
				l-0.65,0.01c-1.92,0.03-3.82,0.04-5.65,0.02c-7.82-0.06-15.48-0.48-22.77-1.25L409,324.61z M430.45,322.79
				c-0.76-0.02-1.53-0.04-2.28-0.05c-6.61-0.05-12.85,0.57-17.69,1.76c7.06,0.72,14.45,1.11,22,1.18c1.62,0.01,3.3,0.01,4.99-0.01
				L430.45,322.79z"/>
		</g>
		<g>
			<path class="st8" d="M409.21,298.37l0.72-0.06c7.3-0.65,14.96-0.95,22.78-0.89c1.81,0.01,3.72,0.05,5.65,0.11l0.65,0.02
				l-8.35,3.25c-0.77,0.01-1.55,0.02-2.31,0.01c-6.96-0.06-13.51-0.85-18.45-2.24L409.21,298.37z M437.7,297.78
				c-1.71-0.05-3.39-0.08-4.99-0.09c-7.54-0.06-14.95,0.22-22.01,0.82c4.82,1.26,11.05,1.99,17.66,2.04c0.75,0.01,1.52,0,2.28-0.01
				L437.7,297.78z"/>
		</g>
		<g>
			<path class="st2" d="M440.37,325.69l12.17,0.1c7.14,0.06,13.03-5.38,13.08-12.09l0.03-3.5c0.05-6.71-5.75-12.24-12.89-12.3
				l-12.17-0.1c1.08,4.57,1.61,9.27,1.56,13.96C442.14,316.45,441.53,321.14,440.37,325.69z"/>
			<path d="M440.2,325.82l0.04-0.16c1.16-4.59,1.77-9.26,1.78-13.9c0-0.06,0-0.12,0-0.18c0.04-4.58-0.49-9.2-1.56-13.75l-0.04-0.16
				l12.34,0.1c7.24,0.06,13.08,5.64,13.03,12.43l-0.03,3.5c-0.05,6.8-5.99,12.28-13.23,12.22L440.2,325.82z M465.51,310.2
				c0.05-6.65-5.67-12.11-12.75-12.17l-11.99-0.1c1.05,4.51,1.57,9.1,1.53,13.64c0,0.12,0,0.25,0,0.37
				c-0.04,4.54-0.62,9.12-1.75,13.62l11.99,0.1c7.08,0.06,12.89-5.31,12.94-11.96L465.51,310.2z"/>
		</g>
		<g>
			<path class="st2" d="M411.92,321.59c1.13-6.71,1.19-13.43,0.16-20.16c-3.73-0.96-7.46-1.28-11.19-0.95l-0.18,21.87
				C404.44,322.75,408.18,322.49,411.92,321.59z"/>
			<path d="M400.57,322.48l0.18-22.11l0.13-0.01c3.74-0.33,7.52-0.01,11.24,0.95l0.09,0.02l0.01,0.09
				c1.02,6.71,0.97,13.5-0.16,20.19l-0.01,0.09l-0.09,0.02c-3.74,0.9-7.53,1.16-11.26,0.77L400.57,322.48z M401.03,300.61
				l-0.17,21.63c3.63,0.36,7.31,0.11,10.94-0.76c1.11-6.61,1.16-13.32,0.16-19.94C408.33,300.62,404.66,300.31,401.03,300.61z"/>
		</g>
		<g>
			<path class="st9" d="M400.71,322.36l0.18-21.87c-0.27,0.02-0.54,0.05-0.81,0.08l-0.17,21.7
				C400.17,322.3,400.44,322.33,400.71,322.36z"/>
		</g>
		<g>
			<path class="st2" d="M400.07,300.57l-5.84-0.05c-1.55,2.66-2.55,6.52-2.58,10.83c-0.03,4.31,0.9,8.19,2.41,10.87l5.84,0.05
				L400.07,300.57z"/>
			<path d="M391.51,311.35c0.03-4.15,0.98-8.12,2.6-10.89l0.04-0.07l6.06,0.05l-0.18,21.96l-6.06-0.05l-0.04-0.07
				C392.36,319.49,391.48,315.5,391.51,311.35z M394.32,300.66c-1.57,2.73-2.49,6.62-2.53,10.7s0.82,7.98,2.35,10.74l5.61,0.05
				l0.17-21.43L394.32,300.66z"/>
		</g>
		<g>
			<path class="st9" d="M440.45,325.6l0.78,0.28c2.79-9.21,2.87-19,0.23-28.25l-0.79,0.26C443.21,306.97,443.13,316.56,440.45,325.6
				z"/>
		</g>
		<g>
			<path class="st2" d="M440.71,298.28l-9.89,3.31l-0.16,20.15l9.84,3.47C443.1,316.43,443.17,307.1,440.71,298.28z"/>
			<path d="M430.51,321.84l0.16-20.34l10.13-3.39l0.04,0.14c2.47,8.85,2.4,18.19-0.22,27l-0.04,0.14L430.51,321.84z M430.96,301.68
				l-0.16,19.97l9.6,3.39c2.55-8.68,2.62-17.87,0.21-26.59L430.96,301.68z"/>
		</g>
		<g>
			<g>
				<path class="st8" d="M394.07,322.18l0,0.14c-0.01,1.64,1.4,3,3.15,3.01l0.24,0C395.99,324.63,394.8,323.53,394.07,322.18z"/>
			</g>
			<g>
				<path class="st8" d="M394.24,300.56l0-0.14c0.01-1.64,1.45-2.97,3.2-2.96l0.24,0C396.2,298.14,394.99,299.23,394.24,300.56z"/>
			</g>
		</g>
		<g>
			<g>
				<path class="st2" d="M432.63,329.34c0.43,0.1,0.94,0.01,1.14-0.2l2.26-2.42c0.04-0.04,0.06-0.08,0.07-0.13l-2.08-0.02l-1.64,2.7
					L432.63,329.34z"/>
				<path class="st8" d="M432.16,329.37l1.77-2.92l2.34,0.02l-0.03,0.16c-0.01,0.07-0.05,0.13-0.1,0.19l-2.25,2.42
					c-0.23,0.25-0.79,0.35-1.28,0.24L432.16,329.37z M434.09,326.71l-1.51,2.48l0.08,0.02c0.41,0.1,0.86-0.01,1-0.16l2.17-2.32
					L434.09,326.71z"/>
			</g>
			<g>
				<path class="st2" d="M432.91,294.03c0.43-0.09,0.94,0.01,1.14,0.22l2.22,2.45c0.04,0.04,0.06,0.09,0.07,0.13l-2.08-0.02
					l-1.6-2.73L432.91,294.03z"/>
				<path class="st8" d="M432.44,293.99l0.44-0.09c0.49-0.1,1.05,0.01,1.27,0.26l2.22,2.45c0.05,0.06,0.09,0.12,0.1,0.19l0.03,0.16
					l-2.34-0.02L432.44,293.99z M436.08,296.69l-2.13-2.36c-0.14-0.15-0.58-0.27-1-0.18l-0.08,0.02l1.47,2.51L436.08,296.69z"/>
			</g>
		</g>
		<g>
			<g>
				<path class="st8" d="M447.94,318.98c4.67,0.04,8.78-0.71,11.16-1.87c-2.44,0.85-5.97,1.37-9.89,1.34
					c-1.89-0.02-3.7-0.16-5.33-0.4l-0.01,0.69C445.16,318.89,446.52,318.97,447.94,318.98z"/>
			</g>
			<g>
				<path class="st8" d="M448.05,304.63c4.67,0.04,8.77,0.85,11.13,2.05c-2.43-0.89-5.95-1.47-9.87-1.5
					c-1.89-0.02-3.7,0.1-5.33,0.32l0.01-0.69C445.27,304.68,446.64,304.62,448.05,304.63z"/>
			</g>
		</g>
		<g>
			
				<rect x="411.29" y="302.22" transform="matrix(-8.046840e-03 1 -1 -8.046840e-03 736.3368 -107.252)" class="st2" width="20.16" height="18.74"/>
			<path d="M411.77,321.72l0.16-20.42l19.02,0.15l-0.16,20.42L411.77,321.72z M412.22,301.57l-0.16,19.89l18.46,0.15l0.16-19.89
				L412.22,301.57z"/>
		</g>
	</g>
	<g>
		<g>
			<g>
				<path class="st2" d="M483.72,318.18c-0.53-4.56-0.5-9.11,0.11-13.66c0.74-5.24,6.43-9.12,11.6-8.8
					c16.91,0.94,33.82,1.07,50.74,0.39c4.91-0.23,10.24,3.54,10.91,8.52c0.61,4.88,0.58,9.75-0.12,14.62
					c-0.75,4.97-6.14,8.66-11.05,8.35c-16.91-0.96-33.82-1.1-50.74-0.43C490.01,327.41,484.38,323.43,483.72,318.18z"/>
				<path class="st8" d="M483.17,311.34c0.02-2.29,0.18-4.58,0.48-6.85c0.73-5.12,6.24-9.3,11.79-8.95
					c16.82,0.94,33.88,1.07,50.72,0.39c5.26-0.25,10.45,3.81,11.11,8.68c0.61,4.87,0.57,9.81-0.12,14.67
					c-0.73,4.86-5.99,8.83-11.25,8.5c-16.82-0.95-33.89-1.1-50.72-0.43c-5.56,0.26-11-4.01-11.65-9.14v0
					C483.27,315.93,483.15,313.63,483.17,311.34z M557.32,311.94c0.02-2.44-0.12-4.87-0.43-7.29c-0.63-4.7-5.64-8.61-10.72-8.37
					c-16.85,0.68-33.93,0.55-50.76-0.39c-5.37-0.34-10.7,3.7-11.4,8.64c-0.6,4.51-0.64,9.1-0.11,13.62
					c0.62,4.95,5.88,9.08,11.26,8.83c16.85-0.67,33.92-0.52,50.76,0.43c5.08,0.32,10.14-3.51,10.85-8.19
					C557.12,316.81,557.3,314.38,557.32,311.94z"/>
			</g>
		</g>
		<g>
			<path class="st9" d="M493.21,322.32l0.18-21.8c-0.27,0.02-0.54,0.05-0.81,0.08l-0.17,21.62
				C492.67,322.26,492.94,322.3,493.21,322.32z"/>
		</g>
		<g>
			<path class="st8" d="M501.49,324.61l0.69-0.18c4.96-1.31,11.52-2,18.48-1.95c0.76,0.01,1.54,0.02,2.31,0.05l0.05,0.01l8.25,3.37
				l-0.65,0.01c-1.92,0.03-3.82,0.04-5.65,0.02c-7.82-0.06-15.48-0.48-22.77-1.25L501.49,324.61z M522.94,322.79
				c-0.76-0.02-1.53-0.04-2.28-0.05c-6.61-0.05-12.85,0.57-17.69,1.76c7.06,0.72,14.45,1.11,22,1.18c1.62,0.01,3.3,0.01,4.99-0.01
				L522.94,322.79z"/>
		</g>
		<g>
			<path class="st8" d="M501.7,298.37l0.72-0.06c7.3-0.65,14.96-0.95,22.78-0.89c1.81,0.01,3.72,0.05,5.65,0.11l0.65,0.02
				l-8.35,3.25c-0.77,0.01-1.55,0.02-2.31,0.01c-6.96-0.06-13.51-0.85-18.45-2.24L501.7,298.37z M530.19,297.78
				c-1.71-0.05-3.39-0.08-4.99-0.09c-7.54-0.06-14.95,0.22-22.01,0.82c4.82,1.26,11.05,1.99,17.66,2.04c0.75,0.01,1.52,0,2.28-0.01
				L530.19,297.78z"/>
		</g>
		<g>
			<path class="st2" d="M532.86,325.69l12.17,0.1c7.14,0.06,13.03-5.38,13.08-12.09l0.03-3.5c0.05-6.71-5.75-12.24-12.89-12.3
				l-12.17-0.1c1.08,4.57,1.61,9.27,1.56,13.96C534.63,316.45,534.01,321.14,532.86,325.69z"/>
			<path d="M532.69,325.82l0.04-0.16c1.16-4.59,1.77-9.26,1.78-13.9c0-0.06,0-0.12,0-0.18c0.04-4.58-0.49-9.2-1.56-13.75l-0.04-0.16
				l12.34,0.1c7.24,0.06,13.08,5.64,13.03,12.43l-0.03,3.5c-0.05,6.8-5.99,12.28-13.23,12.22L532.69,325.82z M558,310.2
				c0.05-6.65-5.67-12.11-12.75-12.17l-11.99-0.1c1.05,4.51,1.57,9.1,1.53,13.64c0,0.12,0,0.25,0,0.37
				c-0.04,4.54-0.62,9.12-1.75,13.62l11.99,0.1c7.08,0.06,12.89-5.31,12.94-11.96L558,310.2z"/>
		</g>
		<g>
			<path class="st2" d="M504.41,321.59c1.13-6.71,1.19-13.43,0.16-20.16c-3.73-0.96-7.46-1.28-11.19-0.95l-0.18,21.87
				C496.93,322.75,500.67,322.49,504.41,321.59z"/>
			<path d="M493.06,322.48l0.18-22.11l0.13-0.01c3.74-0.33,7.52-0.01,11.24,0.95l0.09,0.02l0.01,0.09
				c1.02,6.71,0.97,13.5-0.16,20.19l-0.01,0.09l-0.09,0.02c-3.74,0.9-7.53,1.16-11.26,0.77L493.06,322.48z M493.52,300.61
				l-0.17,21.63c3.63,0.36,7.31,0.11,10.94-0.76c1.11-6.61,1.16-13.32,0.16-19.94C500.82,300.62,497.15,300.31,493.52,300.61z"/>
		</g>
		<g>
			<path class="st9" d="M493.2,322.36l0.18-21.87c-0.27,0.02-0.54,0.05-0.81,0.08l-0.17,21.7
				C492.66,322.3,492.93,322.33,493.2,322.36z"/>
		</g>
		<g>
			<path class="st2" d="M492.56,300.57l-5.84-0.05c-1.55,2.66-2.55,6.52-2.58,10.83c-0.03,4.31,0.9,8.19,2.41,10.87l5.84,0.05
				L492.56,300.57z"/>
			<path d="M484,311.35c0.03-4.15,0.98-8.12,2.6-10.89l0.04-0.07l6.06,0.05l-0.18,21.96l-6.06-0.05l-0.04-0.07
				C484.85,319.49,483.97,315.5,484,311.35z M486.81,300.66c-1.57,2.73-2.49,6.62-2.53,10.7c-0.03,4.07,0.82,7.98,2.35,10.74
				l5.61,0.05l0.17-21.43L486.81,300.66z"/>
		</g>
		<g>
			<path class="st9" d="M532.94,325.6l0.78,0.28c2.79-9.21,2.87-19,0.23-28.25l-0.79,0.26C535.7,306.97,535.62,316.56,532.94,325.6z
				"/>
		</g>
		<g>
			<path class="st2" d="M533.2,298.28l-9.89,3.31l-0.16,20.15l9.84,3.47C535.59,316.43,535.66,307.1,533.2,298.28z"/>
			<path d="M523,321.84l0.16-20.34l10.13-3.39l0.04,0.14c2.47,8.85,2.4,18.19-0.22,27l-0.04,0.14L523,321.84z M523.45,301.68
				l-0.16,19.97l9.6,3.39c2.55-8.68,2.62-17.87,0.21-26.59L523.45,301.68z"/>
		</g>
		<g>
			<g>
				<path class="st8" d="M486.55,322.18l0,0.14c-0.01,1.64,1.4,3,3.15,3.01l0.24,0C488.47,324.63,487.29,323.53,486.55,322.18z"/>
			</g>
			<g>
				<path class="st8" d="M486.73,300.56l0-0.14c0.01-1.64,1.45-2.97,3.2-2.96l0.24,0C488.69,298.14,487.48,299.23,486.73,300.56z"/>
			</g>
		</g>
		<g>
			<g>
				<path class="st2" d="M525.12,329.34c0.43,0.1,0.94,0.01,1.14-0.2l2.26-2.42c0.04-0.04,0.06-0.08,0.07-0.13l-2.08-0.02l-1.64,2.7
					L525.12,329.34z"/>
				<path class="st8" d="M524.65,329.37l1.77-2.92l2.34,0.02l-0.03,0.16c-0.01,0.07-0.05,0.13-0.1,0.19l-2.25,2.42
					c-0.23,0.25-0.79,0.35-1.28,0.24L524.65,329.37z M526.58,326.71l-1.51,2.48l0.08,0.02c0.41,0.1,0.86-0.01,1-0.16l2.17-2.32
					L526.58,326.71z"/>
			</g>
			<g>
				<path class="st2" d="M525.4,294.03c0.43-0.09,0.94,0.01,1.14,0.22l2.22,2.45c0.04,0.04,0.06,0.09,0.07,0.13l-2.08-0.02
					l-1.6-2.73L525.4,294.03z"/>
				<path class="st8" d="M524.93,293.99l0.44-0.09c0.49-0.1,1.05,0.01,1.27,0.26l2.22,2.45c0.05,0.06,0.09,0.12,0.1,0.19l0.03,0.16
					l-2.34-0.02L524.93,293.99z M528.56,296.69l-2.13-2.36c-0.14-0.15-0.58-0.27-1-0.18l-0.08,0.02l1.47,2.51L528.56,296.69z"/>
			</g>
		</g>
		<g>
			<g>
				<path class="st8" d="M540.43,318.98c4.67,0.04,8.78-0.71,11.16-1.87c-2.44,0.85-5.97,1.37-9.89,1.34
					c-1.89-0.02-3.7-0.16-5.33-0.4l-0.01,0.69C537.65,318.89,539.01,318.97,540.43,318.98z"/>
			</g>
			<g>
				<path class="st8" d="M540.54,304.63c4.67,0.04,8.77,0.85,11.13,2.05c-2.43-0.89-5.95-1.47-9.87-1.5
					c-1.89-0.02-3.7,0.1-5.33,0.32l0.01-0.69C537.76,304.68,539.13,304.62,540.54,304.63z"/>
			</g>
		</g>
		<g>
			
				<rect x="503.78" y="302.22" transform="matrix(-8.046840e-03 1 -1 -8.046840e-03 829.5706 -199.7385)" class="st2" width="20.16" height="18.74"/>
			<path d="M504.26,321.72l0.16-20.42l19.02,0.15l-0.16,20.42L504.26,321.72z M504.7,301.57l-0.16,19.89l18.46,0.15l0.16-19.89
				L504.7,301.57z"/>
		</g>
	</g>
	<g>
		<g>
			<g>
				<path class="st2" d="M561.28,283.66c-3.94,0.07-7.83-0.34-11.66-1.24c-4.41-1.08-7.25-6.26-6.54-10.64
					c2.23-14.36,3.76-28.79,4.6-43.3c0.21-4.21,3.88-8.45,8.2-8.6c4.22-0.11,8.38,0.33,12.48,1.33c4.18,1.06,6.88,5.97,6.2,10.14
					c-2.24,14.36-3.79,28.79-4.64,43.3C569.68,279.07,565.82,283.54,561.28,283.66z"/>
				<path class="st8" d="M555.39,283.56c-1.95-0.21-3.89-0.54-5.81-0.99c-4.31-1.05-7.42-6.11-6.65-10.83
					c2.22-14.28,3.76-28.85,4.6-43.29c0.23-4.52,4.13-8.61,8.34-8.75c4.21-0.11,8.42,0.33,12.52,1.33
					c4.09,1.03,7.04,5.86,6.31,10.32c-2.23,14.29-3.79,28.85-4.64,43.28c-0.25,4.77-4.35,9.06-8.78,9.18l0,0
					C559.31,283.86,557.35,283.77,555.39,283.56z M562.14,220.28c-2.08-0.22-4.17-0.3-6.26-0.25c-4.06,0.14-7.83,4.09-8.05,8.45
					c-0.84,14.45-2.38,29.02-4.6,43.32c-0.74,4.56,2.26,9.45,6.42,10.46c3.8,0.89,7.72,1.31,11.62,1.24
					c4.28-0.12,8.25-4.26,8.49-8.87c0.85-14.44,2.41-29.02,4.64-43.32c0.7-4.31-2.14-8.96-6.09-9.96
					C566.28,220.86,564.22,220.5,562.14,220.28z"/>
			</g>
		</g>
		<g>
			<path class="st9" d="M565.61,275.91l-18.6-1.98c0,0.23,0,0.47,0,0.7l18.45,1.97C565.52,276.37,565.57,276.14,565.61,275.91z"/>
		</g>
		<g>
			<path class="st8" d="M568.26,269.03l-0.1-0.61c-0.7-4.35-0.74-10.01-0.11-15.95c0.07-0.65,0.15-1.31,0.23-1.97l0.01-0.04
				l3.57-6.76l-0.05,0.56c-0.14,1.64-0.29,3.27-0.46,4.83c-0.71,6.67-1.72,13.18-2.99,19.34L568.26,269.03z M568.51,250.56
				c-0.08,0.65-0.16,1.3-0.23,1.94c-0.6,5.64-0.6,11.02,0.01,15.26c1.21-5.97,2.17-12.25,2.85-18.69c0.15-1.38,0.29-2.82,0.41-4.27
				L568.51,250.56z"/>
		</g>
		<g>
			<path class="st8" d="M545.87,266.64l0.01-0.62c0.06-6.29,0.45-12.86,1.16-19.53c0.17-1.55,0.36-3.17,0.57-4.82l0.07-0.55
				l2.07,7.4c-0.05,0.66-0.12,1.33-0.19,1.97c-0.63,5.94-1.87,11.47-3.47,15.57L545.87,266.64z M547.76,242.26
				c-0.18,1.46-0.35,2.88-0.5,4.26c-0.69,6.44-1.07,12.78-1.15,18.87c1.49-4.01,2.63-9.27,3.23-14.91c0.07-0.64,0.13-1.29,0.18-1.95
				L547.76,242.26z"/>
		</g>
		<g>
			<path class="st2" d="M571.83,242.32l1.11-10.38c0.65-6.1-3.5-11.58-9.23-12.19l-2.99-0.32c-5.72-0.61-10.94,3.88-11.59,9.97
				l-1.11,10.38c4-0.54,8.05-0.6,12.05-0.16C564.08,240.04,568.03,240.96,571.83,242.32z"/>
			<path d="M571.92,242.49l-0.13-0.05c-3.82-1.38-7.76-2.29-11.72-2.69c-0.05-0.01-0.1-0.01-0.16-0.02
				c-3.91-0.42-7.9-0.36-11.87,0.18l-0.14,0.02l1.12-10.53c0.66-6.18,5.91-10.7,11.71-10.08l2.99,0.32
				c5.8,0.62,9.98,6.15,9.33,12.32L571.92,242.49z M560.71,219.55c-5.68-0.61-10.82,3.82-11.46,9.86l-1.09,10.23
				c3.94-0.52,7.91-0.57,11.78-0.16c0.1,0.01,0.21,0.02,0.31,0.03c3.88,0.41,7.74,1.3,11.48,2.64l1.09-10.23
				c0.64-6.04-3.45-11.45-9.13-12.06L560.71,219.55z"/>
		</g>
		<g>
			<path class="st2" d="M565.93,266.28c-5.64-1.53-11.37-2.14-17.2-1.83c-1.13,3.1-1.72,6.26-1.75,9.48l18.67,1.99
				C566.29,272.77,566.39,269.55,565.93,266.28z"/>
			<path d="M565.74,276.05l-18.87-2.01l0-0.11c0.04-3.22,0.63-6.42,1.76-9.52l0.03-0.07l0.07,0c5.82-0.31,11.61,0.31,17.23,1.84
				l0.07,0.02l0.01,0.08c0.45,3.27,0.36,6.53-0.29,9.68L565.74,276.05z M547.09,273.82l18.46,1.97c0.61-3.07,0.71-6.23,0.27-9.41
				c-5.55-1.5-11.28-2.11-17.02-1.82C547.72,267.58,547.14,270.69,547.09,273.82z"/>
		</g>
		<g>
			<path class="st9" d="M565.65,275.92l-18.67-1.99c0,0.23,0,0.47,0,0.7l18.52,1.97C565.55,276.38,565.6,276.15,565.65,275.92z"/>
		</g>
		<g>
			<path class="st2" d="M546.98,274.63l-0.53,4.98c2.14,1.55,5.35,2.72,9.03,3.12c3.68,0.39,7.07-0.08,9.48-1.14l0.53-4.98
				L546.98,274.63z"/>
			<path d="M555.47,282.85c-3.54-0.38-6.85-1.52-9.08-3.14l-0.06-0.04l0.55-5.18l18.74,2l-0.55,5.18l-0.06,0.03
				C562.49,282.81,559.01,283.23,555.47,282.85z M546.57,279.55c2.2,1.57,5.45,2.69,8.92,3.06s6.89-0.03,9.37-1.11l0.51-4.79
				l-18.29-1.95L546.57,279.55z"/>
		</g>
		<g>
			<path class="st9" d="M571.76,242.25l0.3-0.65c-7.63-3.15-15.99-4.05-24.11-2.57l0.16,0.69
				C556.08,238.33,564.26,239.2,571.76,242.25z"/>
		</g>
		<g>
			<path class="st2" d="M548.44,239.73l2,8.73l17.2,1.83l3.79-8.11C564.15,239.22,556.19,238.37,548.44,239.73z"/>
			<path d="M567.7,250.42l-17.36-1.85l-2.04-8.94l0.12-0.02c7.77-1.37,15.74-0.52,23.05,2.46l0.12,0.05L567.7,250.42z
				 M550.53,248.35l17.04,1.82l3.7-7.92c-7.2-2.91-15.04-3.74-22.69-2.42L550.53,248.35z"/>
		</g>
		<g>
			<g>
				<path class="st8" d="M564.93,281.58l0.12,0.01c1.4,0.15,2.68-0.95,2.84-2.44l0.02-0.2
					C567.19,280.15,566.14,281.07,564.93,281.58z"/>
			</g>
			<g>
				<path class="st8" d="M546.48,279.61l-0.12-0.01c-1.4-0.15-2.42-1.49-2.26-2.98l0.02-0.2
					C544.58,277.74,545.41,278.86,546.48,279.61z"/>
			</g>
		</g>
		<g>
			<g>
				<path class="st2" d="M574.29,249.25c0.12-0.36,0.09-0.8-0.08-0.99l-1.87-2.13c-0.03-0.04-0.07-0.06-0.1-0.07l-0.19,1.78
					l2.17,1.63L574.29,249.25z"/>
				<path class="st8" d="M574.27,249.65l-2.35-1.76l0.21-2l0.13,0.04c0.06,0.02,0.11,0.05,0.15,0.1l1.87,2.13
					c0.19,0.22,0.24,0.71,0.1,1.11L574.27,249.65z M572.17,247.78l1.99,1.5l0.02-0.07c0.12-0.34,0.07-0.73-0.05-0.87l-1.8-2.05
					L572.17,247.78z"/>
			</g>
			<g>
				<path class="st2" d="M544.16,246.03c-0.04-0.38,0.09-0.8,0.28-0.95l2.28-1.69c0.04-0.03,0.08-0.04,0.12-0.05l-0.19,1.78
					l-2.46,1.13L544.16,246.03z"/>
				<path class="st8" d="M544.09,246.43l-0.04-0.39c-0.05-0.42,0.1-0.89,0.33-1.07l2.28-1.69c0.05-0.04,0.11-0.06,0.17-0.07
					l0.14-0.01l-0.21,2L544.09,246.43z M546.7,243.56l-2.19,1.62c-0.14,0.11-0.28,0.48-0.23,0.84l0.01,0.07l2.26-1.04L546.7,243.56z
					"/>
			</g>
		</g>
		<g>
			<g>
				<path class="st8" d="M566.73,235.3c0.42-3.98,0.13-7.56-0.65-9.69c0.52,2.16,0.67,5.21,0.31,8.56
					c-0.17,1.62-0.45,3.14-0.79,4.51l0.59,0.06C566.42,237.66,566.61,236.51,566.73,235.3z"/>
			</g>
			<g>
				<path class="st8" d="M554.48,233.99c0.42-3.98,1.46-7.42,2.68-9.33c-0.97,2-1.76,4.95-2.11,8.3c-0.17,1.62-0.23,3.17-0.18,4.58
					l-0.59-0.06C554.29,236.37,554.35,235.2,554.48,233.99z"/>
			</g>
		</g>
		<g>
			
				<rect x="549.54" y="249.33" transform="matrix(0.9944 0.1061 -0.1061 0.9944 30.4424 -57.7445)" class="st2" width="17.3" height="16.08"/>
			<path d="M566.03,266.42l-17.43-1.86l1.73-16.23l17.43,1.86L566.03,266.42z M548.86,264.34l16.97,1.81l1.68-15.75l-16.97-1.81
				L548.86,264.34z"/>
		</g>
	</g>
	<g>
		<g>
			<g>
				<path class="st2" d="M194.45,241.56c0.53,4.56,0.5,9.11-0.11,13.66c-0.74,5.24-6.43,9.12-11.6,8.8
					c-16.91-0.94-33.82-1.07-50.74-0.39c-4.91,0.23-10.24-3.54-10.91-8.52c-0.61-4.88-0.58-9.75,0.12-14.62
					c0.75-4.97,6.14-8.66,11.05-8.35c16.91,0.96,33.82,1.1,50.74,0.43C188.17,232.33,193.79,236.3,194.45,241.56z"/>
				<path class="st8" d="M195.01,248.39c-0.02,2.29-0.18,4.58-0.48,6.85c-0.73,5.12-6.24,9.3-11.79,8.95
					c-16.82-0.94-33.88-1.07-50.72-0.39c-5.26,0.25-10.45-3.81-11.11-8.68c-0.61-4.87-0.57-9.81,0.12-14.67
					c0.73-4.86,5.99-8.83,11.25-8.5c16.82,0.95,33.89,1.1,50.72,0.43c5.56-0.26,11,4.01,11.65,9.14l0,0
					C194.91,243.81,195.03,246.1,195.01,248.39z M120.85,247.8c-0.02,2.44,0.12,4.87,0.43,7.29c0.63,4.7,5.64,8.61,10.72,8.37
					c16.85-0.68,33.93-0.55,50.76,0.39c5.37,0.34,10.7-3.7,11.4-8.64c0.6-4.51,0.64-9.1,0.11-13.62c-0.62-4.95-5.88-9.08-11.26-8.83
					c-16.85,0.67-33.92,0.52-50.76-0.43c-5.08-0.32-10.14,3.51-10.85,8.19C121.06,242.93,120.87,245.36,120.85,247.8z"/>
			</g>
		</g>
		<g>
			<path class="st9" d="M184.97,237.41l-0.18,21.8c0.27-0.02,0.54-0.05,0.81-0.08l0.17-21.62
				C185.51,237.47,185.24,237.44,184.97,237.41z"/>
		</g>
		<g>
			<path class="st8" d="M176.69,235.13l-0.69,0.18c-4.96,1.31-11.52,2-18.48,1.95c-0.76-0.01-1.54-0.02-2.31-0.05l-0.05-0.01
				l-8.25-3.37l0.65-0.01c1.92-0.03,3.82-0.04,5.65-0.02c7.82,0.06,15.48,0.48,22.77,1.25L176.69,235.13z M155.24,236.95
				c0.76,0.02,1.53,0.04,2.28,0.05c6.61,0.05,12.85-0.57,17.69-1.76c-7.06-0.72-14.45-1.11-22-1.18c-1.62-0.01-3.3-0.01-4.99,0.01
				L155.24,236.95z"/>
		</g>
		<g>
			<path class="st8" d="M176.48,261.36l-0.72,0.06c-7.3,0.65-14.96,0.95-22.78,0.89c-1.81-0.01-3.72-0.05-5.65-0.11l-0.65-0.02
				l8.35-3.25c0.77-0.01,1.55-0.02,2.31-0.01c6.96,0.06,13.51,0.85,18.45,2.24L176.48,261.36z M147.99,261.96
				c1.71,0.05,3.39,0.08,4.99,0.09c7.54,0.06,14.95-0.22,22.01-0.82c-4.82-1.26-11.05-1.99-17.66-2.04c-0.75-0.01-1.52,0-2.28,0.01
				L147.99,261.96z"/>
		</g>
		<g>
			<path class="st2" d="M145.31,234.05l-12.17-0.1c-7.14-0.06-13.03,5.38-13.08,12.09l-0.03,3.5c-0.05,6.71,5.75,12.24,12.89,12.3
				l12.17,0.1c-1.08-4.57-1.61-9.27-1.56-13.96C143.55,243.29,144.16,238.6,145.31,234.05z"/>
			<path d="M145.49,233.92l-0.04,0.16c-1.16,4.59-1.77,9.26-1.78,13.9c0,0.06,0,0.12,0,0.18c-0.04,4.58,0.49,9.2,1.56,13.75
				l0.04,0.16l-12.34-0.1c-7.24-0.06-13.08-5.64-13.03-12.43l0.03-3.5c0.05-6.8,5.99-12.28,13.23-12.22L145.49,233.92z
				 M120.18,249.54c-0.05,6.65,5.67,12.11,12.75,12.17l11.99,0.1c-1.05-4.51-1.57-9.1-1.53-13.64c0-0.12,0-0.25,0-0.37
				c0.04-4.54,0.62-9.12,1.75-13.62l-11.99-0.1c-7.08-0.06-12.89,5.31-12.94,11.96L120.18,249.54z"/>
		</g>
		<g>
			<path class="st2" d="M173.77,238.14c-1.13,6.71-1.19,13.43-0.16,20.16c3.73,0.96,7.46,1.28,11.19,0.95l0.18-21.87
				C181.25,236.99,177.51,237.24,173.77,238.14z"/>
			<path d="M185.12,237.26l-0.18,22.11l-0.13,0.01c-3.74,0.33-7.52,0.01-11.24-0.95l-0.09-0.02l-0.01-0.09
				c-1.02-6.71-0.97-13.5,0.16-20.19l0.01-0.09l0.09-0.02c3.74-0.9,7.53-1.16,11.26-0.77L185.12,237.26z M184.66,259.13l0.17-21.63
				c-3.63-0.36-7.31-0.11-10.94,0.76c-1.11,6.61-1.16,13.32-0.16,19.94C177.36,259.12,181.03,259.43,184.66,259.13z"/>
		</g>
		<g>
			<path class="st9" d="M184.98,237.38l-0.18,21.87c0.27-0.02,0.54-0.05,0.81-0.08l0.17-21.7
				C185.52,237.44,185.25,237.4,184.98,237.38z"/>
		</g>
		<g>
			<path class="st2" d="M185.62,259.17l5.84,0.05c1.55-2.66,2.55-6.52,2.58-10.83c0.03-4.31-0.9-8.19-2.41-10.87l-5.84-0.05
				L185.62,259.17z"/>
			<path d="M194.18,248.39c-0.03,4.15-0.98,8.12-2.6,10.89l-0.04,0.07l-6.06-0.05l0.18-21.96l6.06,0.05l0.04,0.07
				C193.33,240.25,194.21,244.24,194.18,248.39z M191.37,259.08c1.57-2.73,2.49-6.62,2.53-10.7c0.03-4.07-0.82-7.98-2.35-10.74
				l-5.61-0.05l-0.17,21.43L191.37,259.08z"/>
		</g>
		<g>
			<path class="st9" d="M145.24,234.14l-0.78-0.28c-2.79,9.21-2.87,19-0.23,28.25l0.79-0.26
				C142.48,252.77,142.56,243.17,145.24,234.14z"/>
		</g>
		<g>
			<path class="st2" d="M144.98,261.46l9.89-3.31l0.16-20.15l-9.84-3.47C142.59,243.31,142.52,252.63,144.98,261.46z"/>
			<path d="M155.18,237.9l-0.16,20.34l-10.13,3.39l-0.04-0.14c-2.47-8.85-2.4-18.19,0.22-27l0.04-0.14L155.18,237.9z M154.73,258.05
				l0.16-19.97l-9.6-3.39c-2.55,8.68-2.62,17.87-0.21,26.59L154.73,258.05z"/>
		</g>
		<g>
			<g>
				<path class="st8" d="M191.62,237.56l0-0.14c0.01-1.64-1.4-3-3.15-3.01l-0.24,0C189.7,235.1,190.89,236.21,191.62,237.56z"/>
			</g>
			<g>
				<path class="st8" d="M191.45,259.17l0,0.14c-0.01,1.64-1.45,2.97-3.2,2.96l-0.24,0C189.49,261.6,190.7,260.51,191.45,259.17z"/>
			</g>
		</g>
		<g>
			<g>
				<path class="st2" d="M153.06,230.4c-0.43-0.1-0.94-0.01-1.14,0.2l-2.25,2.42c-0.04,0.04-0.06,0.08-0.07,0.13l2.08,0.02l1.64-2.7
					L153.06,230.4z"/>
				<path class="st8" d="M153.53,230.37l-1.77,2.92l-2.34-0.02l0.03-0.16c0.01-0.07,0.05-0.13,0.1-0.19l2.25-2.42
					c0.23-0.25,0.79-0.35,1.28-0.24L153.53,230.37z M151.6,233.03l1.51-2.48l-0.08-0.02c-0.41-0.1-0.86,0.01-1,0.16l-2.17,2.32
					L151.6,233.03z"/>
			</g>
			<g>
				<path class="st2" d="M152.77,265.71c-0.43,0.09-0.94-0.01-1.14-0.22l-2.22-2.45c-0.04-0.04-0.06-0.09-0.07-0.13l2.08,0.02
					l1.6,2.73L152.77,265.71z"/>
				<path class="st8" d="M153.25,265.75l-0.44,0.09c-0.49,0.1-1.05-0.01-1.27-0.26l-2.22-2.45c-0.05-0.06-0.09-0.12-0.1-0.19
					l-0.03-0.16l2.34,0.02L153.25,265.75z M149.61,263.05l2.13,2.36c0.14,0.15,0.58,0.27,1,0.18l0.08-0.02l-1.47-2.51L149.61,263.05
					z"/>
			</g>
		</g>
		<g>
			<g>
				<path class="st8" d="M137.75,240.75c-4.67-0.04-8.78,0.71-11.16,1.87c2.44-0.85,5.97-1.37,9.89-1.34
					c1.89,0.02,3.7,0.16,5.33,0.4l0.01-0.69C140.53,240.85,139.17,240.76,137.75,240.75z"/>
			</g>
			<g>
				<path class="st8" d="M137.64,255.11c-4.67-0.04-8.77-0.85-11.13-2.05c2.43,0.89,5.95,1.47,9.87,1.5c1.89,0.02,3.7-0.1,5.33-0.32
					l-0.01,0.69C140.41,255.06,139.05,255.12,137.64,255.11z"/>
			</g>
		</g>
		<g>
			
				<rect x="154.25" y="238.78" transform="matrix(8.046840e-03 -1 1 8.046840e-03 -85.137 410.4683)" class="st2" width="20.16" height="18.74"/>
			<path d="M173.92,238.01l-0.16,20.42l-19.02-0.15l0.16-20.42L173.92,238.01z M173.47,258.17l0.16-19.89l-18.46-0.15l-0.16,19.89
				L173.47,258.17z"/>
		</g>
	</g>
	<g>
		<g>
			<g>
				<path class="st2" d="M194.45,292.57c0.53,4.56,0.5,9.11-0.11,13.66c-0.74,5.24-6.43,9.12-11.6,8.8
					c-16.91-0.94-33.82-1.07-50.74-0.39c-4.91,0.23-10.24-3.54-10.91-8.52c-0.61-4.88-0.58-9.75,0.12-14.62
					c0.75-4.97,6.14-8.66,11.05-8.35c16.91,0.96,33.82,1.1,50.74,0.43C188.17,283.35,193.79,287.32,194.45,292.57z"/>
				<path class="st8" d="M195.01,299.41c-0.02,2.29-0.18,4.58-0.48,6.85c-0.73,5.12-6.24,9.3-11.79,8.95
					c-16.82-0.94-33.88-1.07-50.72-0.39c-5.26,0.25-10.45-3.81-11.11-8.68c-0.61-4.87-0.57-9.81,0.12-14.67
					c0.73-4.86,5.99-8.83,11.25-8.5c16.82,0.95,33.89,1.1,50.72,0.43c5.56-0.26,11,4.01,11.65,9.14l0,0
					C194.91,294.83,195.03,297.12,195.01,299.41z M120.85,298.81c-0.02,2.44,0.12,4.87,0.43,7.29c0.63,4.7,5.64,8.61,10.72,8.37
					c16.85-0.68,33.93-0.55,50.76,0.39c5.37,0.34,10.7-3.7,11.4-8.64c0.6-4.51,0.64-9.1,0.11-13.62c-0.62-4.95-5.88-9.08-11.26-8.83
					c-16.85,0.67-33.92,0.52-50.76-0.43c-5.08-0.32-10.14,3.51-10.85,8.19C121.06,293.94,120.87,296.38,120.85,298.81z"/>
			</g>
		</g>
		<g>
			<path class="st9" d="M184.97,288.43l-0.18,21.8c0.27-0.02,0.54-0.05,0.81-0.08l0.17-21.62
				C185.51,288.49,185.24,288.46,184.97,288.43z"/>
		</g>
		<g>
			<path class="st8" d="M176.69,286.14l-0.69,0.18c-4.96,1.31-11.52,2-18.48,1.95c-0.76-0.01-1.54-0.02-2.31-0.05l-0.05-0.01
				l-8.25-3.37l0.65-0.01c1.92-0.03,3.82-0.04,5.65-0.02c7.82,0.06,15.48,0.48,22.77,1.25L176.69,286.14z M155.24,287.96
				c0.76,0.02,1.53,0.04,2.28,0.05c6.61,0.05,12.85-0.57,17.69-1.76c-7.06-0.72-14.45-1.11-22-1.18c-1.62-0.01-3.3-0.01-4.99,0.01
				L155.24,287.96z"/>
		</g>
		<g>
			<path class="st8" d="M176.48,312.38l-0.72,0.06c-7.3,0.65-14.96,0.95-22.78,0.89c-1.81-0.01-3.72-0.05-5.65-0.11l-0.65-0.02
				l8.35-3.25c0.77-0.01,1.55-0.02,2.31-0.01c6.96,0.06,13.51,0.85,18.45,2.24L176.48,312.38z M147.99,312.97
				c1.71,0.05,3.39,0.08,4.99,0.09c7.54,0.06,14.95-0.22,22.01-0.82c-4.82-1.26-11.05-1.99-17.66-2.04c-0.75-0.01-1.52,0-2.28,0.01
				L147.99,312.97z"/>
		</g>
		<g>
			<path class="st2" d="M145.31,285.06l-12.17-0.1c-7.14-0.06-13.03,5.38-13.08,12.09l-0.03,3.5c-0.05,6.71,5.75,12.24,12.89,12.3
				l12.17,0.1c-1.08-4.57-1.61-9.27-1.56-13.96C143.55,294.3,144.16,289.61,145.31,285.06z"/>
			<path d="M145.49,284.93l-0.04,0.16c-1.16,4.59-1.77,9.26-1.78,13.9c0,0.06,0,0.12,0,0.18c-0.04,4.58,0.49,9.2,1.56,13.75
				l0.04,0.16l-12.34-0.1c-7.24-0.06-13.08-5.64-13.03-12.43l0.03-3.5c0.05-6.8,5.99-12.28,13.23-12.22L145.49,284.93z
				 M120.18,300.56c-0.05,6.65,5.67,12.11,12.75,12.17l11.99,0.1c-1.05-4.51-1.57-9.1-1.53-13.64c0-0.12,0-0.25,0-0.37
				c0.04-4.54,0.62-9.12,1.75-13.62l-11.99-0.1c-7.08-0.06-12.89,5.31-12.94,11.96L120.18,300.56z"/>
		</g>
		<g>
			<path class="st2" d="M173.77,289.16c-1.13,6.71-1.19,13.43-0.16,20.16c3.73,0.96,7.46,1.28,11.19,0.95l0.18-21.87
				C181.25,288,177.51,288.26,173.77,289.16z"/>
			<path d="M185.12,288.27l-0.18,22.11l-0.13,0.01c-3.74,0.33-7.52,0.01-11.24-0.95l-0.09-0.02l-0.01-0.09
				c-1.02-6.71-0.97-13.5,0.16-20.19l0.01-0.09l0.09-0.02c3.74-0.9,7.53-1.16,11.26-0.77L185.12,288.27z M184.66,310.14l0.17-21.63
				c-3.63-0.36-7.31-0.11-10.94,0.76c-1.11,6.61-1.16,13.32-0.16,19.94C177.36,310.13,181.03,310.45,184.66,310.14z"/>
		</g>
		<g>
			<path class="st9" d="M184.98,288.39l-0.18,21.87c0.27-0.02,0.54-0.05,0.81-0.08l0.17-21.7
				C185.52,288.45,185.25,288.42,184.98,288.39z"/>
		</g>
		<g>
			<path class="st2" d="M185.62,310.18l5.84,0.05c1.55-2.66,2.55-6.52,2.58-10.83c0.03-4.31-0.9-8.19-2.41-10.87l-5.84-0.05
				L185.62,310.18z"/>
			<path d="M194.18,299.4c-0.03,4.15-0.98,8.12-2.6,10.89l-0.04,0.07l-6.06-0.05l0.18-21.96l6.06,0.05l0.04,0.07
				C193.33,291.27,194.21,295.25,194.18,299.4z M191.37,310.1c1.57-2.73,2.49-6.62,2.53-10.7c0.03-4.07-0.82-7.98-2.35-10.74
				l-5.61-0.05l-0.17,21.43L191.37,310.1z"/>
		</g>
		<g>
			<path class="st9" d="M145.24,285.15l-0.78-0.28c-2.79,9.21-2.87,19-0.23,28.25l0.79-0.26
				C142.48,303.78,142.56,294.19,145.24,285.15z"/>
		</g>
		<g>
			<path class="st2" d="M144.98,312.47l9.89-3.31l0.16-20.15l-9.84-3.47C142.59,294.32,142.52,303.65,144.98,312.47z"/>
			<path d="M155.18,288.92l-0.16,20.34l-10.13,3.39l-0.04-0.14c-2.47-8.85-2.4-18.19,0.22-27l0.04-0.14L155.18,288.92z
				 M154.73,309.07l0.16-19.97l-9.6-3.39c-2.55,8.68-2.62,17.87-0.21,26.59L154.73,309.07z"/>
		</g>
		<g>
			<g>
				<path class="st8" d="M191.62,288.57l0-0.14c0.01-1.64-1.4-3-3.15-3.01l-0.24,0C189.7,286.12,190.89,287.22,191.62,288.57z"/>
			</g>
			<g>
				<path class="st8" d="M191.45,310.19l0,0.14c-0.01,1.64-1.45,2.97-3.2,2.96l-0.24,0C189.49,312.61,190.7,311.52,191.45,310.19z"
					/>
			</g>
		</g>
		<g>
			<g>
				<path class="st2" d="M153.06,281.41c-0.43-0.1-0.94-0.01-1.14,0.2l-2.25,2.42c-0.04,0.04-0.06,0.08-0.07,0.13l2.08,0.02
					l1.64-2.7L153.06,281.41z"/>
				<path class="st8" d="M153.53,281.39l-1.77,2.92l-2.34-0.02l0.03-0.16c0.01-0.07,0.05-0.13,0.1-0.19l2.25-2.42
					c0.23-0.25,0.79-0.35,1.28-0.24L153.53,281.39z M151.6,284.04l1.51-2.48l-0.08-0.02c-0.41-0.1-0.86,0.01-1,0.16l-2.17,2.32
					L151.6,284.04z"/>
			</g>
			<g>
				<path class="st2" d="M152.77,316.73c-0.43,0.09-0.94-0.01-1.14-0.22l-2.22-2.45c-0.04-0.04-0.06-0.09-0.07-0.13l2.08,0.02
					l1.6,2.73L152.77,316.73z"/>
				<path class="st8" d="M153.25,316.76l-0.44,0.09c-0.49,0.1-1.05-0.01-1.27-0.26l-2.22-2.45c-0.05-0.06-0.09-0.12-0.1-0.19
					l-0.03-0.16l2.34,0.02L153.25,316.76z M149.61,314.06l2.13,2.36c0.14,0.15,0.58,0.27,1,0.18l0.08-0.02l-1.47-2.51L149.61,314.06
					z"/>
			</g>
		</g>
		<g>
			<g>
				<path class="st8" d="M137.75,291.77c-4.67-0.04-8.78,0.71-11.16,1.87c2.44-0.85,5.97-1.37,9.89-1.34
					c1.89,0.02,3.7,0.16,5.33,0.4l0.01-0.69C140.53,291.86,139.17,291.78,137.75,291.77z"/>
			</g>
			<g>
				<path class="st8" d="M137.64,306.13c-4.67-0.04-8.77-0.85-11.13-2.05c2.43,0.89,5.95,1.47,9.87,1.5c1.89,0.02,3.7-0.1,5.33-0.32
					l-0.01,0.69C140.41,306.08,139.05,306.14,137.64,306.13z"/>
			</g>
		</g>
		<g>
			
				<rect x="154.25" y="289.79" transform="matrix(8.046840e-03 -1 1 8.046840e-03 -136.1502 461.0726)" class="st2" width="20.16" height="18.74"/>
			<path d="M173.92,289.03l-0.16,20.42l-19.02-0.15l0.16-20.42L173.92,289.03z M173.47,309.18l0.16-19.89l-18.46-0.15l-0.16,19.89
				L173.47,309.18z"/>
		</g>
	</g>
	<line class="グラフィックスタイル" x1="612.86" y1="126.81" x2="575.65" y2="367.16"/>
	<line class="グラフィックスタイル" x1="658.97" y1="130.08" x2="624.79" y2="376.24"/>
	<g>
		<g>
			<line class="st22" x1="667.68" y1="130.08" x2="667.47" y2="131.56"/>
			<line class="st23" x1="667.06" y1="134.56" x2="633.91" y2="373.25"/>
			<line class="st22" x1="633.7" y1="374.75" x2="633.5" y2="376.24"/>
		</g>
	</g>
	<polyline class="st15" points="622.48,332.26 631.52,327.81 571.18,319.08 583.88,314.01 	"/>
	
		<pattern  id="SVGID_2_" xlink:href="#_x31_0_lpi_30_x25_" patternTransform="matrix(-0.3364 -0.3364 0.3364 -0.3364 -8106.2651 -10879.0088)">
	</pattern>
	<polygon class="st24" points="607.3,162.77 594.7,162.77 568.71,335.47 580.56,335.47 	"/>
	<polyline class="グラフィックスタイル" points="101.9,126.81 101.9,162.77 111.16,335.47 111.16,369.29 	"/>
	<line class="グラフィックスタイル" x1="31.4" y1="130.08" x2="43.15" y2="375.7"/>
	<polyline class="グラフィックスタイル_x0020_7" points="47.82,328.7 41.22,335.47 111.16,335.47 102.57,340.45 	"/>
	<rect x="204.81" y="202.3" class="st19" width="121.06" height="111.09"/>
	<polygon class="st19" points="390.67,191.61 390.67,284.91 516.01,284.91 516.01,226.15 539.16,226.15 539.16,191.61 	"/>
	<g>
		
			<rect x="299.51" y="176.65" transform="matrix(6.123234e-17 -1 1 6.123234e-17 115.0367 501.8079)" class="st25" width="17.82" height="33.47"/>
		
			<rect x="280.19" y="191.16" transform="matrix(6.123234e-17 -1 1 6.123234e-17 95.7199 482.4911)" class="st25" width="17.82" height="4.45"/>
		<polygon points="308.42,199.56 314.47,190.76 302.38,190.76 		"/>
	</g>
	
		<rect x="514.52" y="164.8" transform="matrix(6.123234e-17 -1 1 6.123234e-17 343.1541 706.1393)" class="st25" width="20.24" height="33.38"/>
	
		<rect x="533.62" y="179.09" transform="matrix(6.123234e-17 -1 1 6.123234e-17 362.2484 725.2336)" class="st25" width="20.24" height="4.81"/>
	<polygon points="524.65,188.66 531.16,179.17 518.13,179.17 	"/>
	
		<pattern  id="SVGID_3_" xlink:href="#_x31_0_lpi_30_x25_" patternTransform="matrix(-0.3364 -0.3364 0.3364 -0.3364 -8106.2651 -10879.0088)">
	</pattern>
	<rect x="279.74" y="365.73" class="st26" width="56.47" height="19.95"/>
	<line class="グラフィックスタイル_x0020_7" x1="598.02" y1="360.44" x2="584.98" y2="396.59"/>
	<g>
		<path d="M252.41,251.58c0.87-3.59,3.82-7.17,8.35-10.19l0.87-0.57c4.69-3.05,5.93-4.53,5.93-6.97c0-2.75-2.28-4.59-5.73-4.59
			c-2.82,0-4.79,1.04-6.94,3.59l-2.11-1.78c2.55-3.15,5.26-4.49,9.19-4.49c5.23,0,9.05,3.08,9.05,7.34c0,3.39-1.31,4.96-7.31,8.78
			l-1.21,0.77c-3.99,2.61-6.5,5.5-6.81,7.91h15.72v2.85h-19.01V251.58z"/>
		<path d="M238.62,276.14c-0.34,1.21-0.74,2.35-1.11,3.29h18.84c-0.27,4.09-0.94,7.74-1.78,9.59c-0.84,1.88-1.91,2.41-4.93,2.41
			c-1.78,0-4.16-0.1-5.8-0.23l-0.6-2.55c2.31,0.2,4.56,0.34,6.17,0.34c1.68,0,2.18-0.27,2.65-1.34c0.4-1.04,0.94-3.39,1.27-5.93
			h-16.73c-0.44,0.94-0.91,1.91-1.41,2.85l-2.72-0.77c1.21-2.15,2.31-4.69,3.32-7.64h-7.48v-2.28h31.85v2.28H238.62z M255.19,270.81
			h-21.89v-9.52h21.89V270.81z M236.01,268.67h16.46v-5.16h-16.46V268.67z"/>
		<path d="M268.84,275.04c-1.07,3.42-2.45,6.5-4.06,9.08l-1.24-2.68c2.18-3.25,3.89-7.31,5.06-12.1h-4.59v-2.35h4.83v-7.17h2.48
			v7.17h3.49v2.35h-3.49v3.12c1.51,1.24,2.92,2.58,4.12,3.92l-1.41,2.25c-0.6-0.91-1.71-2.31-2.72-3.45v16.49h-2.48V275.04z
			 M287.54,279.7c2.15,3.08,4.96,5.56,8.55,7.58l-1.58,2.35c-3.52-2.21-6.64-5.3-8.65-8.58v10.63h-2.38v-10.43
			c-2.11,3.59-4.96,6.54-8.62,8.85l-1.68-2.05c3.65-2.04,6.57-4.79,8.78-8.35h-6.2v-11.93h7.71v-2.48h-9.45v-2.18h9.45v-3.29h2.38
			v3.29h9.65v2.18h-9.65v2.48h7.94v11.93H287.54z M278.15,269.81v2.85h5.33v-2.85H278.15z M278.15,274.7v2.92h5.33v-2.92H278.15z
			 M285.87,272.66h5.6v-2.85h-5.6V272.66z M285.87,277.62h5.6v-2.92h-5.6V277.62z"/>
	</g>
	<g>
		<path d="M452.36,207.77c-1.51,0.67-4.46,1.58-6.5,2.01l-0.74-2.51c3.08-0.64,6.54-1.91,8.11-2.98h2.25v27.66h-3.12V207.77z"/>
		<path d="M429.63,253.86c-0.34,1.21-0.74,2.35-1.11,3.29h18.84c-0.27,4.09-0.94,7.74-1.78,9.59c-0.84,1.88-1.91,2.41-4.93,2.41
			c-1.78,0-4.16-0.1-5.8-0.23l-0.6-2.55c2.31,0.2,4.56,0.34,6.17,0.34c1.68,0,2.18-0.27,2.65-1.34c0.4-1.04,0.94-3.39,1.27-5.93
			h-16.73c-0.44,0.94-0.91,1.91-1.41,2.85l-2.72-0.77c1.21-2.15,2.31-4.69,3.32-7.64h-7.48v-2.28h31.85v2.28H429.63z M446.19,248.53
			H424.3v-9.52h21.89V248.53z M427.01,246.38h16.46v-5.16h-16.46V246.38z"/>
		<path d="M459.84,252.75c-1.07,3.42-2.45,6.5-4.06,9.08l-1.24-2.68c2.18-3.25,3.89-7.31,5.06-12.1h-4.59v-2.35h4.83v-7.17h2.48
			v7.17h3.49v2.35h-3.49v3.12c1.51,1.24,2.92,2.58,4.12,3.92l-1.41,2.25c-0.6-0.91-1.71-2.31-2.72-3.45v16.49h-2.48V252.75z
			 M478.54,257.41c2.15,3.08,4.96,5.56,8.55,7.58l-1.58,2.35c-3.52-2.21-6.64-5.3-8.65-8.58v10.63h-2.38v-10.43
			c-2.11,3.59-4.96,6.54-8.62,8.85l-1.68-2.05c3.65-2.04,6.57-4.79,8.78-8.35h-6.2v-11.93h7.71v-2.48h-9.45v-2.18h9.45v-3.29h2.38
			v3.29h9.65v2.18h-9.65v2.48h7.94v11.93H478.54z M469.16,247.52v2.85h5.33v-2.85H469.16z M469.16,252.41v2.92h5.33v-2.92H469.16z
			 M476.87,250.37h5.6v-2.85h-5.6V250.37z M476.87,255.33h5.6v-2.92h-5.6V255.33z"/>
	</g>
</g>
</svg>
