<?xml version="1.0" encoding="utf-8"?>
<!-- Generator: Adobe Illustrator 23.0.3, SVG Export Plug-In . SVG Version: 6.00 Build 0)  -->
<svg version="1.1" xmlns="http://www.w3.org/2000/svg" xmlns:xlink="http://www.w3.org/1999/xlink" x="0px" y="0px"
	 viewBox="0 0 700 500" style="enable-background:new 0 0 700 500;" xml:space="preserve">
<style type="text/css">
	.グラフィックスタイル{fill:none;stroke:#000000;stroke-width:2;stroke-miterlimit:10;}
	.グラフィックスタイル_x0020_2{fill:#D8EACC;stroke:#000000;stroke-width:2;}
	.グラフィックスタイル_x0020_3{fill:#FFFFFF;stroke:#000000;stroke-width:2;stroke-miterlimit:10;}
	.グラフィックスタイル_x0020_4{fill:#FFFFFF;stroke:#000000;stroke-width:1.2664;stroke-miterlimit:10;}
	.st0{fill:#FFFFFF;}
	.st1{fill:#D8EACC;stroke:#000000;stroke-width:2;}
	.st2{fill:none;stroke:#000000;stroke-width:1.4318;stroke-linecap:round;stroke-linejoin:round;}
	.st3{fill:none;stroke:#000000;stroke-width:1.8264;stroke-linecap:round;stroke-linejoin:round;}
	.st4{fill:#FFFFFF;stroke:#000000;stroke-width:1.2664;stroke-miterlimit:10;}
	.st5{fill:#030201;}
	.st6{fill:#242323;}
	.st7{fill:none;stroke:#000000;stroke-width:2;stroke-linejoin:round;stroke-miterlimit:10;}
	.st8{fill:none;stroke:#000000;stroke-width:2;stroke-miterlimit:10;}
	.st9{fill:none;stroke:#000000;stroke-width:2;stroke-linejoin:bevel;stroke-miterlimit:10;}
	.st10{fill:#E83589;}
	.st11{fill:none;stroke:#000000;stroke-width:2;stroke-miterlimit:10;stroke-dasharray:5.901,5.901;}
	.st12{fill:none;stroke:#000000;stroke-width:1.5;stroke-linejoin:bevel;stroke-miterlimit:10;}
	.st13{fill:#D8EACC;stroke:#000000;stroke-width:1.5;}
	.st14{fill:none;stroke:#000000;stroke-width:1.5;stroke-miterlimit:10;}
	.st15{fill:none;stroke:#000000;stroke-linejoin:bevel;stroke-miterlimit:10;}
	.st16{fill:#FFFFFF;stroke:#000000;stroke-width:1.5;stroke-miterlimit:10;}
	.st17{fill:#FFFFFF;stroke:#DE0000;stroke-width:2;stroke-miterlimit:10;}
	.st18{fill:#DE0000;}
	.st19{fill:none;stroke:#000000;stroke-miterlimit:10;}
	.st20{fill:none;stroke:#000000;stroke-miterlimit:10;stroke-dasharray:3.0312,3.0312;}
	.st21{fill:url(#);stroke:#000000;stroke-width:1.1494;}
	.st22{fill:#FFFFFF;stroke:#000000;stroke-miterlimit:10;}
	.st23{fill:none;stroke:#000000;stroke-width:3;stroke-miterlimit:10;stroke-dasharray:5;}
	.st24{fill:none;stroke:#FFFFFF;stroke-width:0.75;stroke-linejoin:round;}
	.st25{fill:none;stroke:#000000;stroke-miterlimit:10;stroke-dasharray:5;}
	.st26{fill:none;stroke:#FFFFFF;stroke-width:3;stroke-linejoin:round;}
	.st27{fill:none;stroke:#000000;stroke-width:1.3;stroke-linejoin:bevel;stroke-miterlimit:10;}
	.st28{fill:none;stroke:#000000;stroke-width:1.5;stroke-miterlimit:10;stroke-dasharray:5;}
	.st29{fill:none;stroke:#47738A;stroke-linejoin:bevel;stroke-miterlimit:10;}
	.st30{fill:none;}
	.st31{fill:none;stroke:#FFFFFF;stroke-width:5;stroke-linejoin:round;}
	.st32{fill:#D8EACC;}
	.st33{fill:#D8EACC;stroke:#000000;stroke-width:0.25;}
	.st34{fill:none;stroke:#000000;stroke-width:2;}
	.st35{fill:none;stroke:#FFFFFF;stroke-linejoin:round;}
	.st36{fill:none;stroke:#000000;stroke-width:1.9773;stroke-linecap:round;stroke-linejoin:round;}
	.st37{fill:none;stroke:#000000;stroke-width:2.5222;stroke-linecap:round;stroke-linejoin:round;}
	.st38{fill:#FFFFFF;stroke:#000000;stroke-width:2;stroke-miterlimit:10;}
	.st39{fill:#FFFFFF;stroke:#000000;stroke-width:1.0238;stroke-miterlimit:10;}
	.st40{fill:#FFFFFF;stroke:#000000;stroke-width:1.089;stroke-miterlimit:10;}
	.st41{fill:#FFFFFF;stroke:#000000;stroke-width:1.2553;stroke-miterlimit:10;}
	.st42{fill:url(#);}
	.st43{fill:none;stroke:#000000;stroke-width:1.7765;stroke-linejoin:bevel;stroke-miterlimit:10;}
	.st44{fill:none;stroke:#000000;stroke-width:2.3687;stroke-miterlimit:10;}
	.st45{fill:#D8EACC;stroke:#000000;stroke-width:2.0455;}
	.st46{fill:none;stroke:#000000;stroke-width:2.0455;stroke-linecap:round;stroke-miterlimit:10;stroke-dasharray:0,6.1366;}
	.st47{fill:#FFFFFF;stroke:#000000;stroke-width:2.3687;stroke-miterlimit:10;}
	.st48{fill:#FFFFFF;stroke:#000000;stroke-width:1.4998;stroke-miterlimit:10;}
	.st49{fill:#FFFFFF;stroke:#000000;stroke-width:0.6137;stroke-miterlimit:10;}
	.st50{fill:url(#);stroke:#000000;stroke-width:1.0228;}
	.st51{fill:none;stroke:#FFFFFF;stroke-width:4.0911;stroke-linejoin:round;}
	.st52{fill:none;stroke:#000000;stroke-width:2.4559;stroke-linecap:round;stroke-linejoin:round;}
	.st53{fill:none;stroke:#000000;stroke-width:3.1327;stroke-linecap:round;stroke-linejoin:round;}
	.st54{fill:none;stroke:#FFFFFF;stroke-width:4;stroke-linejoin:round;}
</style>
<g id="レイヤー_5">
	<rect x="-3643.06" y="-577.14" class="st0" width="5667.56" height="5248"/>
</g>
<g id="レイヤー_1">
</g>
<g id="レイヤー_3">
</g>
<g id="レイヤー_4">
</g>
<g id="レイヤー_2">
	<rect class="st0" width="700" height="500"/>
	<polygon class="グラフィックスタイル_x0020_2" points="190.53,46.01 190.53,268.76 213.64,292.04 534,292.04 534,46.01 	
		"/>
	<g>
		<path d="M373.6,346.49v1.87h-11.45v3.33h8.82v10.38c0,1.51-0.68,2.06-2.52,2.06c-1.07,0-2.13-0.05-3.2-0.16l-0.34-1.98
			c1.3,0.18,2.29,0.26,3.15,0.26c0.68,0,0.83-0.13,0.83-0.75v-7.99h-6.74v14.13h-2.06v-14.13h-6.4v10.9h-2.06v-12.72h8.46v-3.33
			h-11.21v-1.87h11.21v-3.56h2.06v3.56H373.6z"/>
		<path d="M382.28,362.23c2.11,2.11,4.53,2.91,8.9,2.94h10.22c-0.26,0.57-0.47,1.17-0.62,1.85h-9.89c-4.55-0.05-7.08-0.91-9.31-3.17
			c-1.17,1.38-2.65,2.78-4.06,3.82l-1.14-1.85c1.22-0.73,2.6-1.77,3.93-2.99v-6.97h-3.85v-1.77h5.83V362.23z M381.17,349.25
			c-1.22-1.74-2.55-3.3-3.8-4.42l1.43-1.2c1.51,1.33,2.83,2.76,3.9,4.24L381.17,349.25z M383.72,347.87v-1.64h4.6
			c-0.44-0.83-1.01-1.69-1.67-2.5l1.82-0.7c0.83,1.17,1.35,2.08,1.87,3.2h3.38c0.5-0.91,1.09-2.29,1.43-3.25l2.05,0.52
			c-0.42,0.91-0.96,1.95-1.48,2.73h4.87v1.64h-7.52c-0.13,0.44-0.55,1.54-0.81,2.16h6.53v13.27h-13.24v-13.27h4.79
			c0.31-0.86,0.55-1.56,0.68-2.16H383.72z M387.49,353.9h9.37v-2.39h-9.37V353.9z M387.49,357.68h9.37v-2.37h-9.37V357.68z
			 M387.49,361.76h9.37v-2.6h-9.37V361.76z"/>
		<path d="M258.41,386.65c-1.27-1.51-2.71-2.91-4.06-4.01l1.38-1.43c1.48,1.09,2.97,2.5,4.14,3.9L258.41,386.65z M254.97,397.23
			c1.54-2.03,3.17-5.07,4.58-8.53l1.64,1.27c-1.27,3.25-2.91,6.45-4.55,8.79L254.97,397.23z M259.34,380.01
			c-0.99-1.3-2.55-2.89-3.95-4.06l1.35-1.35c1.41,1.04,2.94,2.5,4.06,3.88L259.34,380.01z M269.65,387.4l-0.03,0.05
			c-0.75,2.21-2.37,5.7-3.69,8.06l-0.1,0.23l1.92-0.16c1.93-0.16,4.87-0.47,7.18-0.78c-0.81-1.35-1.74-2.76-2.73-4.14l1.64-0.91
			c2.11,2.68,3.88,5.39,5.13,7.88l-1.85,1.17c-0.6-1.22-0.86-1.74-1.3-2.52l-0.26,0.05c-2.89,0.57-9.03,1.38-13.29,1.74l-0.68-2.06
			l1.04-0.05l0.31-0.03c0.05,0,0.36-0.03,0.7-0.05c1.38-2.5,2.84-5.72,3.85-8.64h-6.56v-1.74h7.93v-5.26h-6.53v-1.79h6.53v-4.19
			h2.03v4.19h6.92v1.79h-6.92v5.26h8.27v1.74h-9.47L269.65,387.4z"/>
		<path d="M295.37,375.98v14.07h4.03v2h-4.03v5.13h-2.29v-5.13h-10.72v-1.98l10.15-14.1H295.37z M293.08,382.56
			c0-1.2,0.05-3.23,0.13-4.5h-0.1c-0.7,1.38-1.38,2.58-1.9,3.3l-6.19,8.69h8.06V382.56z"/>
		<path d="M305.13,395.13c0.68-2.78,2.97-5.57,6.48-7.91l0.68-0.44c3.64-2.37,4.6-3.51,4.6-5.41c0-2.13-1.77-3.56-4.45-3.56
			c-2.19,0-3.72,0.81-5.39,2.78l-1.64-1.38c1.98-2.45,4.08-3.49,7.13-3.49c4.06,0,7.02,2.39,7.02,5.7c0,2.63-1.01,3.85-5.67,6.82
			l-0.94,0.6c-3.1,2.03-5.05,4.27-5.28,6.14h12.2v2.21h-14.75V395.13z"/>
		<path d="M337.96,399h-2v-8.33c-2.37,2.97-6.01,5.62-10.12,7.28l-1.2-1.67c3.9-1.46,7.13-3.51,9.63-6.11h-9.52v-1.74h11.21v-2.84h2
			v2.84h11.39v1.74h-9.63c2.39,2.24,5.62,4.06,9.78,5.52l-1.27,1.82c-4.45-1.85-7.78-4.08-10.28-7V399z M345.01,376.73
			c-1.4,1.9-3.54,3.82-5.98,5.44c2.37,1.25,5.28,2.16,9.89,3.07l-1.07,1.77c-3.72-0.75-7.73-2.16-10.59-3.72
			c-3.07,1.79-6.97,3.2-10.9,3.98l-1.04-1.61c3.96-0.7,7.75-1.95,10.33-3.41c-1.01-0.73-2.5-2.06-3.69-3.28
			c-1.46,1.15-2.84,2-4.53,2.78l-1.27-1.35c3.15-1.3,6.19-3.75,7.78-6.22l1.98,0.39c-0.39,0.6-0.49,0.7-0.86,1.2h8.9L345.01,376.73z
			 M333.66,377.38c-0.18,0.21-0.26,0.26-0.42,0.42c1.09,1.22,2.58,2.45,4.08,3.41c2.21-1.48,3.69-2.71,4.66-3.82H333.66z"/>
		<path d="M359.57,378.37c-1.22,0.52-3.33,1.14-5.1,1.53l-0.52-1.87c2.39-0.57,5.07-1.56,6.27-2.32h1.69v21.46h-2.34V378.37z"/>
		<path d="M375.83,390.76l0.16-0.05l0.1-0.05c0.96-0.31,2.19-0.78,2.94-1.12l0.21,1.85c-2.18,0.99-5.7,2.29-8.4,3.07l-0.73-2
			c1.46-0.39,1.67-0.44,3.07-0.86l0.62-0.18v-12.23h-3.38v-1.85h8.25v1.85h-2.84V390.76z M377.68,397.57
			c2.05-0.81,4.08-2.13,5.46-3.59l1.59,1.07c-1.61,1.67-3.69,3.17-5.62,4.03L377.68,397.57z M392.79,379.8v13.87h-12.49V379.8h4.06
			c0.29-0.86,0.52-1.77,0.7-2.65h-6.5v-1.72h16.08v1.72h-7.54c-0.29,1.07-0.63,2.03-0.88,2.65H392.79z M382.23,381.39v2.52h8.61
			v-2.52H382.23z M382.23,387.87h8.61v-2.42h-8.61V387.87z M382.23,392.06h8.61v-2.68h-8.61V392.06z M393.21,398.98
			c-1.53-1.4-3.41-2.81-5.2-3.9l1.43-1.14c2.24,1.27,3.77,2.32,5.31,3.59L393.21,398.98z"/>
		<path d="M405.1,378.37c-1.22,0.52-3.33,1.14-5.1,1.53l-0.52-1.87c2.39-0.57,5.07-1.56,6.27-2.32h1.69v21.46h-2.34V378.37z"/>
		<path d="M423.72,386.96c-0.26,0.94-0.57,1.82-0.86,2.55h14.62c-0.21,3.17-0.73,6.01-1.38,7.44c-0.65,1.46-1.48,1.87-3.83,1.87
			c-1.38,0-3.23-0.08-4.5-0.18l-0.47-1.98c1.79,0.16,3.54,0.26,4.79,0.26c1.3,0,1.69-0.21,2.06-1.04c0.31-0.81,0.73-2.63,0.99-4.6
			h-12.98c-0.34,0.73-0.7,1.48-1.09,2.21l-2.11-0.6c0.94-1.67,1.8-3.64,2.58-5.93h-5.8v-1.77h24.72v1.77H423.72z M436.58,382.82
			h-16.99v-7.39h16.99V382.82z M421.69,381.16h12.77v-4.01h-12.77V381.16z"/>
		<path d="M449.14,393.59c2.11,2.11,4.53,2.91,8.9,2.94h10.22c-0.26,0.57-0.47,1.17-0.62,1.85h-9.89c-4.55-0.05-7.08-0.91-9.31-3.17
			c-1.17,1.38-2.65,2.78-4.06,3.82l-1.14-1.85c1.22-0.73,2.6-1.77,3.93-2.99v-6.97h-3.85v-1.77h5.83V393.59z M448.02,380.61
			c-1.22-1.74-2.55-3.3-3.8-4.42l1.43-1.2c1.51,1.33,2.84,2.76,3.9,4.24L448.02,380.61z M450.57,379.23v-1.64h4.6
			c-0.44-0.83-1.01-1.69-1.67-2.5l1.82-0.7c0.83,1.17,1.35,2.08,1.87,3.2h3.38c0.5-0.91,1.09-2.29,1.43-3.25l2.05,0.52
			c-0.42,0.91-0.96,1.95-1.48,2.73h4.87v1.64h-7.52c-0.13,0.44-0.55,1.54-0.81,2.16h6.53v13.27h-13.24v-13.27h4.79
			c0.31-0.86,0.55-1.56,0.68-2.16H450.57z M454.34,385.27h9.37v-2.39h-9.37V385.27z M454.34,389.04h9.37v-2.37h-9.37V389.04z
			 M454.34,393.12h9.37v-2.6h-9.37V393.12z"/>
		<path d="M480.93,383.81h-3.36v4.11h3.38v1.72h-3.38v5.44c0.7-0.18,2.68-0.75,3.98-1.17l0.18,1.69c-3.1,1.09-6.84,2.16-10.25,2.91
			l-0.68-1.85l1.38-0.29v-10.15h1.77v9.76l0.65-0.16l0.62-0.16l0.55-0.13v-11.73h-3.8v-8.46h8.95V383.81z M473.83,382.12h5.26v-5.02
			h-5.26V382.12z M493.73,377.02c-0.99,2.42-2.26,4.5-3.82,6.27c1.64,1.43,3.67,2.68,5.96,3.62l-0.99,1.72
			c-2.34-1.04-4.53-2.47-6.22-4.06c-1.9,1.79-4.14,3.23-6.74,4.29l-1.04-1.61c2.34-0.75,4.6-2.16,6.5-3.98
			c-0.86-0.96-1.74-2.19-2.34-3.3l-0.1,0.13l-0.05,0.08c-0.68,0.86-1.48,1.69-2.29,2.37l-1.27-1.38c1.95-1.48,3.85-4.24,4.76-6.89
			l1.93,0.31c-0.29,0.68-0.36,0.88-0.57,1.33h5.05L493.73,377.02z M493.62,399h-1.9v-1.54h-6.63V399h-1.9v-10.25h10.43V399z
			 M485.09,395.75h6.63v-5.26h-6.63V395.75z M486,378.55c0.73,1.3,1.43,2.26,2.58,3.49c1.17-1.35,2.05-2.73,2.81-4.4h-4.84
			c-0.1,0.18-0.21,0.36-0.44,0.75L486,378.55z"/>
	</g>
	<g>
		<path d="M180.97,395.51h1.61c5.95,3.19,11.74,5.3,17.83,6.5v2.26c-4.58-0.82-11.69-3.36-17.52-6.24v9.36h4.49v2.09h-6.41V395.51z"
			/>
		<path d="M196.98,390.35h3.43v3.43h-3.43V390.35z"/>
		<path d="M190.69,372.83c6.24,0,10.08,2.76,10.08,7.2s-3.86,7.2-10.08,7.2c-6.24,0-10.08-2.76-10.08-7.23
			C180.61,375.59,184.48,372.83,190.69,372.83z M190.69,384.88c5.04,0,8.16-1.85,8.16-4.87c0-2.98-3.12-4.82-8.16-4.82
			c-5.09,0-8.18,1.85-8.18,4.87C182.51,383.03,185.65,384.88,190.69,384.88z"/>
		<path d="M190.81,368.03c-1.8-1.06-2.83-2.9-2.83-5.14c0-3.5,2.66-6.24,6.12-6.24c3.91,0,6.67,2.71,6.67,6.53
			c0,2.4-0.98,4.3-2.93,5.64c-1.68,1.15-3.36,1.63-5.86,1.63c-2.42,0-5.33-1.15-7.46-2.95c-2.06-1.73-3.53-4.06-4.49-7.08l1.7-0.86
			c1.75,4.9,4.99,7.97,9.07,8.57V368.03z M194.15,367.79c2.54,0,4.73-2.09,4.73-4.54c0-2.47-1.97-4.3-4.63-4.3s-4.49,1.75-4.49,4.32
			C189.76,365.63,191.85,367.79,194.15,367.79z"/>
		<path d="M190.69,339.71c6.24,0,10.08,2.76,10.08,7.2s-3.86,7.2-10.08,7.2c-6.24,0-10.08-2.76-10.08-7.23
			C180.61,342.47,184.48,339.71,190.69,339.71z M190.69,351.76c5.04,0,8.16-1.85,8.16-4.87c0-2.98-3.12-4.82-8.16-4.82
			c-5.09,0-8.18,1.85-8.18,4.87C182.51,349.91,185.65,351.76,190.69,351.76z"/>
	</g>
	
		<rect x="209.77" y="71.91" transform="matrix(-1 -1.224647e-16 1.224647e-16 -1 664.2159 272.795)" class="グラフィックスタイル_x0020_3" width="244.67" height="128.97"/>
	<g>
		<g>
			<g>
				<path class="st0" d="M321.83,258.25c-0.86-6.47-0.86-12.95,0-19.42c1.05-7.46,9.55-13.03,17.3-12.63
					c25.4,1.14,50.79,1.13,76.19-0.03c7.37-0.39,15.42,4.91,16.48,11.99c0.98,6.93,0.98,13.85,0,20.78
					c-1.06,7.08-9.12,12.37-16.48,11.99c-25.4-1.17-50.79-1.18-76.19-0.03C331.38,271.29,322.89,265.71,321.83,258.25z"/>
				<path class="st5" d="M320.91,248.54c0-3.25,0.21-6.51,0.64-9.74c1.03-7.28,9.25-13.29,17.6-12.85
					c25.26,1.14,50.88,1.13,76.15-0.03c7.9-0.41,15.74,5.29,16.78,12.2c0.98,6.92,0.98,13.93,0,20.84
					c-1.04,6.92-8.88,12.62-16.78,12.2c-25.27-1.16-50.89-1.17-76.15-0.03c-8.34,0.43-16.57-5.57-17.6-12.85v0
					C321.13,255.05,320.91,251.79,320.91,248.54z M432.26,248.54c0-3.46-0.24-6.92-0.73-10.36c-1-6.67-8.57-12.17-16.19-11.77
					c-25.29,1.16-50.93,1.17-76.22,0.03c-8.07-0.42-16.02,5.38-17.01,12.41c-0.85,6.42-0.85,12.94,0,19.36
					c0.99,7.03,8.94,12.83,17.01,12.41c25.28-1.14,50.93-1.13,76.22,0.03c7.62,0.4,15.19-5.1,16.19-11.77
					C432.02,255.46,432.26,252,432.26,248.54z"/>
			</g>
		</g>
		<g>
			<path class="st6" d="M336.12,264.03v-30.98c-0.41,0.04-0.81,0.08-1.22,0.13v30.72C335.31,263.95,335.72,263.99,336.12,264.03z"/>
		</g>
		<g>
			<path class="st5" d="M348.58,267.18l1.04-0.27c7.43-1.92,17.28-2.98,27.73-2.98c1.14,0,2.31,0.01,3.47,0.04l0.08,0.02l12.42,4.7
				l-0.98,0.02c-2.88,0.06-5.74,0.09-8.49,0.09c-11.74,0-23.24-0.51-34.2-1.52L348.58,267.18z M380.77,264.35
				c-1.14-0.03-2.29-0.04-3.42-0.04c-9.92,0-19.28,0.95-26.54,2.7c10.6,0.94,21.71,1.42,33.04,1.42c2.43,0,4.95-0.02,7.5-0.07
				L380.77,264.35z"/>
		</g>
		<g>
			<path class="st5" d="M348.58,229.89l1.07-0.1c10.95-1.01,22.46-1.52,34.2-1.52c2.72,0,5.58,0.03,8.49,0.09l0.98,0.02l-12.5,4.71
				c-1.16,0.03-2.33,0.04-3.47,0.04c-10.45,0-20.3-1.06-27.73-2.98L348.58,229.89z M391.35,228.72c-2.57-0.05-5.08-0.07-7.5-0.07
				c-11.33,0-22.44,0.48-33.04,1.42c7.25,1.74,16.62,2.7,26.54,2.7c1.13,0,2.28-0.01,3.42-0.04L391.35,228.72z"/>
		</g>
		<g>
			<path class="st0" d="M395.7,268.36h18.27c10.72,0,19.5-7.8,19.5-17.33v-4.98c0-9.53-8.77-17.33-19.5-17.33H395.7
				c1.67,6.48,2.54,13.15,2.51,19.82C398.24,255.21,397.38,261.88,395.7,268.36z"/>
			<path d="M395.44,268.55l0.06-0.23c1.69-6.54,2.55-13.18,2.51-19.78c0-0.09,0-0.17,0-0.26c0-6.5-0.84-13.07-2.51-19.52l-0.06-0.23
				h18.53c10.87,0,19.71,7.86,19.71,17.52v4.98c0,9.66-8.84,17.52-19.71,17.52H395.44z M433.26,246.05
				c0-9.45-8.65-17.14-19.29-17.14h-18c1.63,6.4,2.46,12.92,2.46,19.37c0,0.17,0,0.35,0,0.52c0,6.45-0.83,12.97-2.46,19.37h18
				c10.64,0,19.29-7.69,19.29-17.14V246.05z"/>
		</g>
		<g>
			<path class="st0" d="M352.93,262.86c1.62-9.55,1.62-19.1,0-28.64c-5.61-1.32-11.21-1.73-16.82-1.22v31.09
				C341.72,264.59,347.32,264.18,352.93,262.86z"/>
			<path d="M335.9,264.25v-31.43l0.19-0.02c5.61-0.51,11.29-0.09,16.89,1.23l0.13,0.03l0.02,0.12c1.62,9.52,1.62,19.18,0,28.7
				l-0.02,0.12l-0.13,0.03c-5.6,1.32-11.29,1.73-16.89,1.23L335.9,264.25z M336.32,233.17v30.75c5.45,0.47,10.97,0.07,16.42-1.2
				c1.58-9.41,1.58-18.94,0-28.34C347.29,233.1,341.77,232.7,336.32,233.17z"/>
		</g>
		<g>
			<path class="st6" d="M336.11,264.08V233c-0.41,0.04-0.81,0.08-1.22,0.13v30.83C335.3,264,335.7,264.05,336.11,264.08z"/>
		</g>
		<g>
			<path class="st0" d="M334.89,233.12h-8.77c-2.3,3.8-3.75,9.3-3.75,15.42s1.45,11.62,3.75,15.42h8.77V233.12z"/>
			<path d="M322.16,248.54c0-5.9,1.37-11.55,3.77-15.51l0.06-0.1h9.11v31.21H326l-0.06-0.1
				C323.54,260.09,322.16,254.44,322.16,248.54z M326.25,233.31c-2.33,3.9-3.66,9.44-3.66,15.23s1.33,11.33,3.66,15.23h8.43v-30.46
				H326.25z"/>
		</g>
		<g>
			<path class="st6" d="M395.81,268.23l1.18,0.38c4.07-13.11,4.07-27.04,0-40.15l-1.18,0.38
				C399.73,241.72,399.73,255.36,395.81,268.23z"/>
		</g>
		<g>
			<path class="st0" d="M395.87,229.4l-14.81,4.82v28.64l14.81,4.82C399.68,255.17,399.68,241.91,395.87,229.4z"/>
			<path d="M380.85,262.99v-28.91l15.17-4.93l0.06,0.2c3.82,12.55,3.82,25.82,0,38.38l-0.06,0.2L380.85,262.99z M381.27,234.35
				v28.38l14.46,4.7c3.72-12.36,3.72-25.42,0-37.79L381.27,234.35z"/>
		</g>
		<g>
			<g>
				<path class="st5" d="M326.13,263.9v0.2c0,2.33,2.14,4.24,4.77,4.24h0.35C329.04,267.37,327.25,265.81,326.13,263.9z"/>
			</g>
			<g>
				<path class="st5" d="M326.13,233.18v-0.2c0-2.33,2.14-4.24,4.77-4.24h0.35C329.04,229.71,327.25,231.27,326.13,233.18z"/>
			</g>
		</g>
		<g>
			<g>
				<path class="st0" d="M384.12,273.63c0.65,0.14,1.42,0,1.71-0.3l3.36-3.46c0.06-0.06,0.09-0.12,0.11-0.18h-3.13l-2.43,3.86
					L384.12,273.63z"/>
				<path class="st5" d="M383.41,273.68l2.63-4.17h3.51l-0.05,0.22c-0.02,0.09-0.07,0.18-0.15,0.27l-3.36,3.46
					c-0.34,0.36-1.19,0.51-1.92,0.36L383.41,273.68z M386.28,269.88l-2.23,3.54l0.12,0.02c0.62,0.13,1.29-0.02,1.5-0.24l3.23-3.33
					H386.28z"/>
			</g>
			<g>
				<path class="st0" d="M384.12,223.45c0.65-0.14,1.42,0,1.71,0.3l3.36,3.46c0.06,0.06,0.09,0.12,0.11,0.18h-3.13l-2.43-3.86
					L384.12,223.45z"/>
				<path class="st5" d="M383.41,223.4l0.66-0.14c0.73-0.15,1.57,0,1.92,0.36l3.36,3.46c0.08,0.08,0.13,0.17,0.15,0.27l0.05,0.22
					h-3.51L383.41,223.4z M388.9,227.2l-3.23-3.33c-0.21-0.22-0.88-0.37-1.5-0.24l-0.12,0.02l2.23,3.54H388.9z"/>
			</g>
		</g>
		<g>
			<g>
				<path class="st5" d="M406.98,258.74c7.01,0,13.17-1.11,16.74-2.78c-3.65,1.24-8.95,2.02-14.83,2.02c-2.85,0-5.55-0.18-8-0.51
					v0.98C402.8,258.64,404.85,258.74,406.98,258.74z"/>
			</g>
			<g>
				<path class="st5" d="M406.98,238.34c7.01,0,13.17,1.11,16.74,2.78c-3.65-1.24-8.95-2.02-14.83-2.02c-2.85,0-5.55,0.18-8,0.51
					v-0.98C402.8,238.44,404.85,238.34,406.98,238.34z"/>
			</g>
		</g>
		<g>
			
				<rect x="352.67" y="234.47" transform="matrix(-1.836970e-16 1 -1 -1.836970e-16 615.5307 -118.451)" class="st0" width="28.64" height="28.14"/>
			<path d="M352.71,263.05v-29.02h28.56v29.02H352.71z M353.13,234.41v28.27h27.72v-28.27H353.13z"/>
		</g>
	</g>
	<g>
		<g>
			<g>
				<path class="st0" d="M484.3,155.47c6.47-0.86,12.95-0.86,19.42,0c7.46,1.05,13.03,9.55,12.63,17.3
					c-1.14,25.4-1.13,50.79,0.03,76.19c0.39,7.37-4.91,15.42-11.99,16.48c-6.93,0.98-13.85,0.98-20.78,0
					c-7.08-1.06-12.37-9.12-11.99-16.48c1.17-25.4,1.18-50.79,0.03-76.19C471.27,165.02,476.85,156.53,484.3,155.47z"/>
				<path class="st5" d="M494.02,154.55c3.25,0,6.51,0.21,9.74,0.64c7.28,1.03,13.29,9.25,12.85,17.6
					c-1.14,25.26-1.13,50.88,0.03,76.15c0.41,7.9-5.29,15.74-12.2,16.78c-6.92,0.98-13.93,0.98-20.84,0
					c-6.92-1.04-12.62-8.88-12.2-16.78c1.16-25.27,1.17-50.89,0.03-76.15c-0.43-8.34,5.57-16.57,12.85-17.6h0
					C487.51,154.76,490.76,154.55,494.02,154.55z M494.01,265.9c3.46,0,6.92-0.24,10.36-0.73c6.67-1,12.17-8.57,11.77-16.19
					c-1.16-25.29-1.17-50.93-0.03-76.22c0.42-8.07-5.38-16.02-12.41-17.01c-6.42-0.85-12.94-0.85-19.36,0
					c-7.03,0.99-12.83,8.94-12.41,17.01c1.14,25.28,1.13,50.93-0.03,76.22c-0.4,7.62,5.1,15.19,11.77,16.19
					C487.09,265.65,490.55,265.9,494.01,265.9z"/>
			</g>
		</g>
		<g>
			<path class="st6" d="M478.53,169.76h30.98c-0.04-0.41-0.08-0.81-0.13-1.22h-30.72C478.61,168.95,478.56,169.35,478.53,169.76z"/>
		</g>
		<g>
			<path class="st5" d="M475.37,182.22l0.27,1.04c1.92,7.43,2.98,17.28,2.98,27.73c0,1.14-0.01,2.31-0.04,3.47l-0.02,0.08
				l-4.7,12.42l-0.02-0.98c-0.06-2.88-0.09-5.74-0.09-8.49c0-11.74,0.51-23.24,1.52-34.2L475.37,182.22z M478.2,214.4
				c0.03-1.14,0.04-2.29,0.04-3.42c0-9.92-0.95-19.28-2.7-26.54c-0.94,10.6-1.42,21.71-1.42,33.04c0,2.43,0.02,4.95,0.07,7.5
				L478.2,214.4z"/>
		</g>
		<g>
			<path class="st5" d="M512.66,182.22l0.1,1.07c1.01,10.95,1.52,22.46,1.52,34.2c0,2.72-0.03,5.58-0.09,8.49l-0.02,0.98l-4.71-12.5
				c-0.03-1.16-0.04-2.33-0.04-3.47c0-10.45,1.06-20.3,2.98-27.73L512.66,182.22z M513.83,224.99c0.05-2.57,0.07-5.08,0.07-7.5
				c0-11.33-0.48-22.44-1.42-33.04c-1.74,7.25-2.7,16.62-2.7,26.54c0,1.13,0.01,2.28,0.04,3.42L513.83,224.99z"/>
		</g>
		<g>
			<path class="st0" d="M474.19,229.34v18.27c0,10.72,7.8,19.5,17.33,19.5h4.98c9.53,0,17.33-8.77,17.33-19.5v-18.27
				c-6.48,1.67-13.15,2.54-19.82,2.51C487.35,231.88,480.68,231.01,474.19,229.34z"/>
			<path d="M474.01,229.07l0.23,0.06c6.54,1.69,13.18,2.55,19.78,2.51c0.09,0,0.17,0,0.26,0c6.5,0,13.07-0.84,19.52-2.51l0.23-0.06
				v18.53c0,10.87-7.86,19.71-17.52,19.71h-4.98c-9.66,0-17.52-8.84-17.52-19.71V229.07z M496.5,266.89
				c9.45,0,17.14-8.65,17.14-19.29v-18c-6.4,1.63-12.92,2.46-19.37,2.46c-0.17,0-0.35,0-0.52,0c-6.45,0-12.97-0.83-19.37-2.46v18
				c0,10.64,7.69,19.29,17.14,19.29H496.5z"/>
		</g>
		<g>
			<path class="st0" d="M479.69,186.57c9.55,1.62,19.1,1.62,28.64,0c1.32-5.61,1.73-11.21,1.22-16.82h-31.09
				C477.97,175.35,478.37,180.96,479.69,186.57z"/>
			<path d="M478.3,169.54h31.43l0.02,0.19c0.51,5.61,0.09,11.29-1.23,16.89l-0.03,0.13l-0.12,0.02c-9.52,1.62-19.18,1.62-28.7,0
				l-0.12-0.02l-0.03-0.13c-1.32-5.6-1.73-11.29-1.23-16.89L478.3,169.54z M509.39,169.96h-30.75c-0.47,5.45-0.07,10.97,1.2,16.42
				c9.41,1.58,18.94,1.58,28.34,0C509.46,180.93,509.86,175.41,509.39,169.96z"/>
		</g>
		<g>
			<path class="st6" d="M478.47,169.75h31.09c-0.04-0.41-0.08-0.81-0.13-1.22H478.6C478.55,168.93,478.51,169.34,478.47,169.75z"/>
		</g>
		<g>
			<path class="st0" d="M509.43,168.53v-8.77c-3.8-2.3-9.3-3.75-15.42-3.75c-6.12,0-11.62,1.45-15.42,3.75v8.77H509.43z"/>
			<path d="M494.02,155.8c5.9,0,11.55,1.37,15.51,3.77l0.1,0.06v9.11h-31.21v-9.11l0.1-0.06
				C482.46,157.18,488.12,155.8,494.02,155.8z M509.24,159.89c-3.9-2.33-9.44-3.66-15.23-3.66c-5.79,0-11.33,1.33-15.23,3.66v8.43
				h30.46V159.89z"/>
		</g>
		<g>
			<path class="st6" d="M474.32,229.45l-0.38,1.18c13.11,4.07,27.04,4.07,40.15,0l-0.38-1.18
				C500.83,233.37,487.2,233.37,474.32,229.45z"/>
		</g>
		<g>
			<path class="st0" d="M513.15,229.51l-4.82-14.81h-28.64l-4.82,14.81C487.39,233.32,500.64,233.32,513.15,229.51z"/>
			<path d="M479.56,214.49h28.91l4.93,15.17l-0.2,0.06c-12.55,3.82-25.82,3.82-38.38,0l-0.2-0.06L479.56,214.49z M508.21,214.91
				h-28.38l-4.7,14.46c12.36,3.72,25.42,3.72,37.79,0L508.21,214.91z"/>
		</g>
		<g>
			<g>
				<path class="st5" d="M478.66,159.77h-0.2c-2.33,0-4.24,2.14-4.24,4.77v0.35C475.19,162.68,476.75,160.88,478.66,159.77z"/>
			</g>
			<g>
				<path class="st5" d="M509.38,159.77h0.2c2.33,0,4.24,2.14,4.24,4.77v0.35C512.84,162.68,511.28,160.88,509.38,159.77z"/>
			</g>
		</g>
		<g>
			<g>
				<path class="st0" d="M468.92,217.76c-0.14,0.65,0,1.42,0.3,1.71l3.46,3.36c0.06,0.06,0.12,0.09,0.18,0.11v-3.13l-3.86-2.43
					L468.92,217.76z"/>
				<path class="st5" d="M468.88,217.04l4.17,2.63v3.51l-0.22-0.05c-0.09-0.02-0.18-0.07-0.27-0.15l-3.46-3.36
					c-0.36-0.34-0.51-1.19-0.36-1.92L468.88,217.04z M472.67,219.92l-3.54-2.23l-0.02,0.12c-0.13,0.62,0.02,1.29,0.24,1.5l3.33,3.23
					V219.92z"/>
			</g>
			<g>
				<path class="st0" d="M519.11,217.76c0.14,0.65,0,1.42-0.3,1.71l-3.46,3.36c-0.06,0.06-0.12,0.09-0.18,0.11v-3.13l3.86-2.43
					L519.11,217.76z"/>
				<path class="st5" d="M519.15,217.04l0.14,0.66c0.15,0.73,0,1.57-0.36,1.92l-3.46,3.36c-0.08,0.08-0.17,0.13-0.27,0.15
					l-0.22,0.05v-3.51L519.15,217.04z M515.36,222.53l3.33-3.23c0.22-0.21,0.37-0.88,0.24-1.5l-0.02-0.12l-3.54,2.23V222.53z"/>
			</g>
		</g>
		<g>
			<g>
				<path class="st5" d="M483.81,240.61c0,7.01,1.11,13.17,2.78,16.74c-1.24-3.65-2.02-8.95-2.02-14.83c0-2.85,0.18-5.55,0.51-8
					h-0.98C483.91,236.44,483.81,238.49,483.81,240.61z"/>
			</g>
			<g>
				<path class="st5" d="M504.22,240.61c0,7.01-1.11,13.17-2.78,16.74c1.24-3.65,2.02-8.95,2.02-14.83c0-2.85-0.18-5.55-0.51-8h0.98
					C504.12,236.44,504.22,238.49,504.22,240.61z"/>
			</g>
		</g>
		<g>
			
				<rect x="479.69" y="186.56" transform="matrix(-1 -1.224647e-16 1.224647e-16 -1 988.03 401.2555)" class="st0" width="28.64" height="28.14"/>
			<path d="M479.51,186.35h29.02v28.56h-29.02V186.35z M508.15,186.77h-28.27v27.72h28.27V186.77z"/>
		</g>
	</g>
	<g>
		<path d="M278.94,125.23c-2.39,1.06-7.08,2.5-10.33,3.19l-1.17-3.99c4.9-1.01,10.38-3.03,12.88-4.74h3.57v43.91h-4.95V125.23z"/>
		<path d="M312.57,142.68c-0.53,1.92-1.17,3.73-1.76,5.22h29.91c-0.43,6.49-1.49,12.29-2.82,15.22c-1.33,2.98-3.03,3.83-7.82,3.83
			c-2.82,0-6.6-0.16-9.21-0.37l-0.96-4.04c3.67,0.32,7.24,0.53,9.79,0.53c2.66,0,3.46-0.43,4.2-2.13c0.64-1.65,1.49-5.38,2.02-9.42
			h-26.56c-0.69,1.49-1.44,3.03-2.24,4.52l-4.31-1.22c1.92-3.41,3.67-7.45,5.27-12.13h-11.87v-3.62h50.56v3.62H312.57z
			 M338.86,134.22h-34.75v-15.12h34.75V134.22z M308.42,130.81h26.13v-8.2h-26.13V130.81z"/>
		<path d="M360.52,140.93c-1.7,5.43-3.89,10.33-6.44,14.42l-1.97-4.26c3.46-5.16,6.17-11.6,8.04-19.21h-7.29v-3.73h7.66v-11.39h3.94
			v11.39h5.54v3.73h-5.54v4.95c2.4,1.97,4.63,4.1,6.55,6.23l-2.24,3.57c-0.96-1.44-2.71-3.67-4.31-5.48v26.19h-3.94V140.93z
			 M390.22,148.33c3.41,4.9,7.88,8.83,13.57,12.03l-2.5,3.73c-5.59-3.51-10.54-8.41-13.73-13.63v16.87h-3.78v-16.55
			c-3.35,5.69-7.88,10.38-13.68,14.05l-2.66-3.25c5.8-3.25,10.43-7.61,13.95-13.25h-9.85v-18.95h12.24v-3.94h-15.01v-3.46h15.01
			v-5.22h3.78v5.22h15.33v3.46h-15.33v3.94h12.61v18.95H390.22z M375.32,132.62v4.52h8.46v-4.52H375.32z M375.32,140.4v4.63h8.46
			v-4.63H375.32z M387.56,137.15h8.89v-4.52h-8.89V137.15z M387.56,145.03h8.89v-4.63h-8.89V145.03z"/>
	</g>
	<g>
		<polyline class="st2" points="99.3,138.25 99.3,126.5 106.2,138.25 106.2,126.5 		"/>
		<g>
			<circle class="st3" cx="94.77" cy="168.55" r="24.35"/>
			<polygon points="91.89,181.9 101.52,191.17 99.77,145.33 79.28,186.37 			"/>
		</g>
	</g>
	<g>
		
			<rect x="78.13" y="30.57" transform="matrix(6.123234e-17 -1 1 6.123234e-17 19.4445 176.1195)" class="st10" width="39.3" height="95.53"/>
		<g>
			<path class="st0" d="M67.25,84.18H82.8v2.09H67.25v1.41h-2.32V69.13h17.34v2.01H67.25V84.18z M67.93,81.84
				c2.12-1.08,3.67-2.24,5.41-4.02c-1.33-1.12-3.09-2.38-4.83-3.52l1.41-1.58c1.72,1.08,3.21,2.14,4.85,3.4
				c1.02-1.35,1.85-2.72,2.7-4.44l2.09,1.02c-0.93,1.85-1.97,3.5-3.01,4.85c1.16,0.95,2.7,2.32,4.25,3.79l-1.64,1.72
				c-1.35-1.35-2.86-2.74-4.09-3.79c-1.74,1.85-3.54,3.19-5.76,4.35L67.93,81.84z"/>
			<path class="st0" d="M96.41,70.95h-8.69v-1.87h19.7v1.87h-8.81v1.99h4.44v10.35H92.08V72.94h4.33V70.95z M104.62,84.64v-11.7
				h2.12v14.74h-2.12v-1.14H90.5v1.14h-2.09V72.94h2.09v11.7H104.62z M94.05,74.64v2.51h2.45v-2.51H94.05z M94.05,78.75v2.8h2.45
				v-2.8H94.05z M98.53,77.15h2.55v-2.51h-2.55V77.15z M98.53,81.55h2.55v-2.8h-2.55V81.55z"/>
			<path class="st0" d="M130.61,87.69h-2.26v-1.06h-13.44v1.06h-2.24V68.94h17.94V87.69z M114.92,84.68h13.44V70.83h-13.44V84.68z
				 M126.42,83.79c-1.31-0.81-2.84-1.68-4.23-2.38c-1.51,1.27-3.34,2.28-5.37,3.01l-1.29-1.56c1.89-0.6,3.24-1.31,4.67-2.45
				l-0.54-0.25c-1.35-0.66-2.34-1.1-4.11-1.82l0.93-1.53c2.09,0.77,3.3,1.24,5.29,2.18c1.68-1.78,3.09-4.33,3.86-7.03l2.01,0.62
				c-0.85,2.63-2.38,5.5-3.94,7.34c0.1,0.06,0.1,0.06,0.19,0.1c1.04,0.52,2.18,1.14,3.75,2.07L126.42,83.79z M117.69,77.01
				c-0.48-1.62-1.04-2.99-1.66-4.06l1.91-0.77c0.66,1.16,1.22,2.49,1.72,4.04L117.69,77.01z M121.26,76.2
				c-0.5-1.58-1.06-2.92-1.68-4.09l1.83-0.73c0.75,1.33,1.39,2.8,1.72,4L121.26,76.2z"/>
		</g>
	</g>
	<g>
		
			<rect x="438.24" y="88.11" transform="matrix(-1.836970e-16 1 -1 -1.836970e-16 549.6445 -366.3303)" class="グラフィックスタイル_x0020_4" width="39.49" height="7.09"/>
		
			<rect x="424.32" y="81.27" transform="matrix(-1.836970e-16 1 -1 -1.836970e-16 535.7188 -352.4045)" class="st4" width="39.49" height="20.77"/>
		<polygon points="437.77,91.66 448.31,98.89 448.31,84.43 		"/>
	</g>
	<polyline class="グラフィックスタイル" points="115.07,292.04 213.64,292.04 609.46,292.04 	"/>
	<polyline class="グラフィックスタイル" points="115.07,457.78 213.64,457.78 609.46,457.78 	"/>
	<polyline class="st7" points="201.82,306.14 213.64,292.04 213.64,457.78 222.62,443.67 	"/>
</g>
</svg>
