<?xml version="1.0" encoding="utf-8"?>
<!-- Generator: Adobe Illustrator 23.0.3, SVG Export Plug-In . SVG Version: 6.00 Build 0)  -->
<svg version="1.1" xmlns="http://www.w3.org/2000/svg" xmlns:xlink="http://www.w3.org/1999/xlink" x="0px" y="0px"
	 viewBox="0 0 700 500" style="enable-background:new 0 0 700 500;" xml:space="preserve">
<style type="text/css">
	.グラフィックスタイル{fill:none;stroke:#000000;stroke-width:2;stroke-miterlimit:10;}
	.グラフィックスタイル_x0020_2{fill:#D8EACC;stroke:#000000;stroke-width:2;}
	.グラフィックスタイル_x0020_3{fill:#FFFFFF;stroke:#000000;stroke-width:2;stroke-miterlimit:10;}
	.グラフィックスタイル_x0020_4{fill:#FFFFFF;stroke:#000000;stroke-width:1.2664;stroke-miterlimit:10;}
	.st0{fill:#FFFFFF;}
	.st1{fill:#D8EACC;stroke:#000000;stroke-width:2;}
	.st2{fill:none;stroke:#000000;stroke-width:1.4318;stroke-linecap:round;stroke-linejoin:round;}
	.st3{fill:none;stroke:#000000;stroke-width:1.8264;stroke-linecap:round;stroke-linejoin:round;}
	.st4{fill:#FFFFFF;stroke:#000000;stroke-width:1.2664;stroke-miterlimit:10;}
	.st5{fill:#030201;}
	.st6{fill:#242323;}
	.st7{fill:none;stroke:#000000;stroke-width:2;stroke-linejoin:round;stroke-miterlimit:10;}
	.st8{fill:none;stroke:#000000;stroke-width:2;stroke-miterlimit:10;}
	.st9{fill:none;stroke:#000000;stroke-width:2;stroke-linejoin:bevel;stroke-miterlimit:10;}
	.st10{fill:#E83589;}
	.st11{fill:none;stroke:#000000;stroke-width:2;stroke-miterlimit:10;stroke-dasharray:5.901,5.901;}
	.st12{fill:none;stroke:#000000;stroke-width:1.5;stroke-linejoin:bevel;stroke-miterlimit:10;}
	.st13{fill:#D8EACC;stroke:#000000;stroke-width:1.5;}
	.st14{fill:none;stroke:#000000;stroke-width:1.5;stroke-miterlimit:10;}
	.st15{fill:none;stroke:#000000;stroke-linejoin:bevel;stroke-miterlimit:10;}
	.st16{fill:#FFFFFF;stroke:#000000;stroke-width:1.5;stroke-miterlimit:10;}
	.st17{fill:#FFFFFF;stroke:#DE0000;stroke-width:2;stroke-miterlimit:10;}
	.st18{fill:#DE0000;}
	.st19{fill:none;stroke:#000000;stroke-miterlimit:10;}
	.st20{fill:none;stroke:#000000;stroke-miterlimit:10;stroke-dasharray:3.0312,3.0312;}
	.st21{fill:url(#);stroke:#000000;stroke-width:1.1494;}
	.st22{fill:#FFFFFF;stroke:#000000;stroke-miterlimit:10;}
	.st23{fill:none;stroke:#000000;stroke-width:3;stroke-miterlimit:10;stroke-dasharray:5;}
	.st24{fill:none;stroke:#FFFFFF;stroke-width:0.75;stroke-linejoin:round;}
	.st25{fill:none;stroke:#000000;stroke-miterlimit:10;stroke-dasharray:5;}
	.st26{fill:none;stroke:#FFFFFF;stroke-width:3;stroke-linejoin:round;}
	.st27{fill:none;stroke:#000000;stroke-width:1.3;stroke-linejoin:bevel;stroke-miterlimit:10;}
	.st28{fill:none;stroke:#000000;stroke-width:1.5;stroke-miterlimit:10;stroke-dasharray:5;}
	.st29{fill:none;stroke:#47738A;stroke-linejoin:bevel;stroke-miterlimit:10;}
	.st30{fill:none;}
	.st31{fill:none;stroke:#FFFFFF;stroke-width:5;stroke-linejoin:round;}
	.st32{fill:#D8EACC;}
	.st33{fill:#D8EACC;stroke:#000000;stroke-width:0.25;}
	.st34{fill:none;stroke:#000000;stroke-width:2;}
	.st35{fill:none;stroke:#FFFFFF;stroke-linejoin:round;}
	.st36{fill:none;stroke:#000000;stroke-width:1.9773;stroke-linecap:round;stroke-linejoin:round;}
	.st37{fill:none;stroke:#000000;stroke-width:2.5222;stroke-linecap:round;stroke-linejoin:round;}
	.st38{fill:#FFFFFF;stroke:#000000;stroke-width:2;stroke-miterlimit:10;}
	.st39{fill:#FFFFFF;stroke:#000000;stroke-width:1.0238;stroke-miterlimit:10;}
	.st40{fill:#FFFFFF;stroke:#000000;stroke-width:1.089;stroke-miterlimit:10;}
	.st41{fill:#FFFFFF;stroke:#000000;stroke-width:1.2553;stroke-miterlimit:10;}
	.st42{fill:url(#);}
	.st43{fill:none;stroke:#000000;stroke-width:1.7765;stroke-linejoin:bevel;stroke-miterlimit:10;}
	.st44{fill:none;stroke:#000000;stroke-width:2.3687;stroke-miterlimit:10;}
	.st45{fill:#D8EACC;stroke:#000000;stroke-width:2.0455;}
	.st46{fill:none;stroke:#000000;stroke-width:2.0455;stroke-linecap:round;stroke-miterlimit:10;stroke-dasharray:0,6.1366;}
	.st47{fill:#FFFFFF;stroke:#000000;stroke-width:2.3687;stroke-miterlimit:10;}
	.st48{fill:#FFFFFF;stroke:#000000;stroke-width:1.4998;stroke-miterlimit:10;}
	.st49{fill:#FFFFFF;stroke:#000000;stroke-width:0.6137;stroke-miterlimit:10;}
	.st50{fill:url(#);stroke:#000000;stroke-width:1.0228;}
	.st51{fill:none;stroke:#FFFFFF;stroke-width:4.0911;stroke-linejoin:round;}
	.st52{fill:none;stroke:#000000;stroke-width:2.4559;stroke-linecap:round;stroke-linejoin:round;}
	.st53{fill:none;stroke:#000000;stroke-width:3.1327;stroke-linecap:round;stroke-linejoin:round;}
	.st54{fill:none;stroke:#FFFFFF;stroke-width:4;stroke-linejoin:round;}
</style>
<g id="レイヤー_5">
	<rect x="-2806.06" y="-577.14" class="st0" width="5667.56" height="5248"/>
</g>
<g id="レイヤー_1">
</g>
<g id="レイヤー_3">
</g>
<g id="レイヤー_4">
</g>
<g id="レイヤー_2">
	<rect class="st0" width="700" height="500"/>
	<polygon class="グラフィックスタイル_x0020_2" points="228.81,69.93 254.29,37.93 650.74,37.93 637.41,159.7 
		229.65,159.7 	"/>
	<polygon class="グラフィックスタイル_x0020_2" points="637.41,159.7 623.18,254.19 623.18,329.73 630.29,396.15 
		475.63,392.59 475.63,208.05 230.29,208.05 229.65,159.7 	"/>
	<polygon class="グラフィックスタイル_x0020_2" points="232.07,378.83 475.63,392.59 475.63,208.05 230.29,208.05 	"/>
	<g>
		<polyline class="st2" points="85.53,138.25 85.53,126.5 92.43,138.25 92.43,126.5 		"/>
		<g>
			<circle class="st3" cx="80.99" cy="168.55" r="24.35"/>
			<polygon points="78.11,181.9 87.75,191.17 86,145.33 65.51,186.37 			"/>
		</g>
	</g>
	<g>
		<g>
			<path d="M211.86,287.73v1.36h-8.3v2.42h6.4v7.53c0,1.09-0.49,1.49-1.83,1.49c-0.77,0-1.55-0.04-2.32-0.11l-0.25-1.43
				c0.94,0.13,1.66,0.19,2.28,0.19c0.49,0,0.6-0.09,0.6-0.55v-5.79h-4.89v10.25h-1.49v-10.25h-4.64v7.91h-1.49v-9.23h6.13v-2.42
				h-8.14v-1.36h8.14v-2.59h1.49v2.59H211.86z"/>
			<path d="M198.15,319.15c1.53,1.53,3.28,2.11,6.46,2.13h7.42c-0.19,0.42-0.34,0.85-0.45,1.34h-7.17c-3.3-0.04-5.13-0.66-6.76-2.3
				c-0.85,1-1.93,2.02-2.94,2.77l-0.83-1.34c0.89-0.53,1.89-1.28,2.85-2.17v-5.06h-2.79v-1.28h4.23V319.15z M197.34,309.73
				c-0.89-1.26-1.85-2.4-2.76-3.21l1.04-0.87c1.09,0.96,2.06,2,2.83,3.08L197.34,309.73z M199.19,308.73v-1.19h3.34
				c-0.32-0.6-0.74-1.23-1.21-1.81l1.32-0.51c0.6,0.85,0.98,1.51,1.36,2.32h2.45c0.36-0.66,0.79-1.66,1.04-2.36l1.49,0.38
				c-0.3,0.66-0.7,1.42-1.08,1.98h3.53v1.19h-5.46c-0.09,0.32-0.4,1.11-0.58,1.57h4.74v9.63h-9.61v-9.63H204
				c0.23-0.62,0.4-1.13,0.49-1.57H199.19z M201.93,313.11h6.79v-1.74h-6.79V313.11z M201.93,315.85h6.79v-1.72h-6.79V315.85z
				 M201.93,318.81h6.79v-1.89h-6.79V318.81z"/>
			<path d="M174.05,204.86c-0.92-1.09-1.96-2.11-2.94-2.91l1-1.04c1.08,0.79,2.15,1.81,3,2.83L174.05,204.86z M171.56,212.54
				c1.11-1.47,2.3-3.68,3.32-6.19l1.19,0.93c-0.92,2.36-2.11,4.68-3.3,6.38L171.56,212.54z M174.73,200.05
				c-0.72-0.94-1.85-2.1-2.87-2.94l0.98-0.98c1.02,0.75,2.13,1.81,2.94,2.81L174.73,200.05z M182.2,205.41l-0.02,0.04
				c-0.55,1.6-1.72,4.13-2.68,5.85l-0.08,0.17l1.4-0.11c1.4-0.11,3.53-0.34,5.21-0.57c-0.58-0.98-1.26-2-1.98-3l1.19-0.66
				c1.53,1.94,2.81,3.91,3.72,5.72l-1.34,0.85c-0.43-0.89-0.62-1.26-0.94-1.83l-0.19,0.04c-2.09,0.42-6.55,1-9.64,1.26l-0.49-1.49
				l0.75-0.04l0.23-0.02c0.04,0,0.26-0.02,0.51-0.04c1-1.81,2.06-4.15,2.79-6.27h-4.76v-1.26h5.76v-3.81h-4.74v-1.3h4.74v-3.04h1.47
				v3.04h5.02v1.3h-5.02v3.81h6v1.26h-6.87L182.2,205.41z"/>
			<path d="M177.01,218.69c0.3,0.45,0.58,0.96,0.83,1.51l-1.4,0.42c-0.25-0.66-0.58-1.34-0.96-1.93h-1.32
				c-0.58,0.91-1.17,1.62-1.85,2.23l-1.06-0.91c1.23-1.08,2.13-2.45,2.7-4.13l1.47,0.25c-0.23,0.58-0.34,0.87-0.58,1.38h4.85v1.19
				H177.01z M179.6,228.49c-1.7,1.93-4.04,3.47-6.89,4.57l-0.96-1.17c2.49-0.77,4.85-2.1,6.55-3.7l0.09-0.09h-5.66
				c0.32-1.53,0.55-2.98,0.68-4.25h6.19v-1.74h-6.72v-1.19h14.51v4.06h-6.36v1.94h7.38c-0.11,2.06-0.36,3.64-0.7,4.4
				c-0.32,0.77-0.87,1.04-2.06,1.04c-0.7,0-1.47-0.04-2.26-0.13l-0.36-1.4c0.87,0.11,1.76,0.19,2.3,0.19c0.7,0,0.92-0.13,1.09-0.64
				c0.17-0.45,0.32-1.26,0.42-2.28h-5.81v5.74h-1.43V228.49z M174.76,224.98c-0.04,0.42-0.17,1.42-0.26,1.94h5.1v-1.94H174.76z
				 M184.75,218.69c0.26,0.32,0.62,0.87,0.92,1.42l-1.38,0.45c-0.36-0.74-0.7-1.32-1.09-1.87h-1.26c-0.4,0.77-0.94,1.51-1.45,2.04
				l-1.09-0.81c0.98-1.02,1.75-2.45,2.21-4.08l1.45,0.21c-0.19,0.57-0.3,0.91-0.53,1.45h6.25v1.19H184.75z M185.94,222.11h-4.91
				v1.74h4.91V222.11z"/>
			<path d="M180.8,273.83h-1.45v-6.04c-1.72,2.15-4.36,4.08-7.34,5.29l-0.87-1.21c2.83-1.06,5.17-2.55,6.98-4.44h-6.91v-1.26h8.13
				v-2.06h1.45v2.06h8.27v1.26h-6.98c1.74,1.62,4.08,2.94,7.1,4l-0.92,1.32c-3.23-1.34-5.64-2.96-7.46-5.08V273.83z M185.92,257.67
				c-1.02,1.38-2.57,2.77-4.34,3.94c1.72,0.91,3.83,1.57,7.17,2.23l-0.77,1.28c-2.7-0.55-5.61-1.57-7.68-2.7
				c-2.23,1.3-5.06,2.32-7.91,2.89l-0.75-1.17c2.87-0.51,5.63-1.42,7.49-2.47c-0.74-0.53-1.81-1.49-2.68-2.38
				c-1.06,0.83-2.06,1.45-3.28,2.02l-0.92-0.98c2.28-0.94,4.49-2.72,5.64-4.51l1.43,0.28c-0.28,0.43-0.36,0.51-0.62,0.87h6.46
				L185.92,257.67z M177.69,258.14c-0.13,0.15-0.19,0.19-0.3,0.3c0.79,0.89,1.87,1.77,2.96,2.47c1.6-1.08,2.68-1.96,3.38-2.77
				H177.69z"/>
			<path d="M176.39,279.26c0.26-1.17,0.42-1.94,0.6-2.96l1.51,0.19l-0.02,0.13c-0.26,1.25-0.43,2.02-0.58,2.64h6.32v1.32h-6.64
				c-1.17,4.78-2.57,8.98-4.06,12.19l-1.43-0.55c1.57-3.44,2.93-7.4,3.98-11.65h-3.94v-1.32H176.39z M187.94,292.24
				c-0.91,0.13-1.94,0.21-3.15,0.21c-1.74,0-3.45-0.19-4.36-0.49c-1.08-0.36-1.66-1.13-1.66-2.23c0-0.7,0.25-1.4,0.64-1.85
				l1.19,0.74c-0.17,0.23-0.3,0.6-0.3,0.92c0,0.55,0.26,0.94,0.75,1.09c0.68,0.21,2,0.36,3.17,0.36c1.15,0,2.47-0.09,3.55-0.26
				L187.94,292.24z M179.67,283.5c2.13-0.26,4.57-0.42,6.74-0.42h0.81l0.09,1.38h-1.19c-2.02,0-4.13,0.11-6.27,0.36L179.67,283.5z"
				/>
			<path d="M176.39,299.07c0.26-1.17,0.42-1.94,0.6-2.96l1.51,0.19l-0.02,0.13c-0.26,1.25-0.43,2.02-0.58,2.64h5.29v1.32h-5.61
				c-1.17,4.78-2.57,8.98-4.06,12.19l-1.43-0.55c1.57-3.44,2.93-7.4,3.98-11.65h-3.94v-1.32H176.39z M187.94,312.06
				c-0.91,0.13-1.94,0.21-3.15,0.21c-1.74,0-3.45-0.19-4.36-0.49c-1.08-0.36-1.66-1.13-1.66-2.23c0-0.7,0.25-1.4,0.64-1.85
				l1.19,0.74c-0.17,0.23-0.3,0.6-0.3,0.92c0,0.55,0.26,0.94,0.75,1.09c0.68,0.21,2,0.36,3.17,0.36c1.15,0,2.47-0.09,3.55-0.26
				L187.94,312.06z M179.67,303.32c2.13-0.26,4.57-0.42,6.74-0.42h0.81l0.09,1.38h-1.19c-2.02,0-4.13,0.11-6.27,0.36L179.67,303.32z
				 M185.58,299.81c-0.38-0.96-0.94-2.04-1.64-3.06l1.13-0.43c0.68,1,1.28,2.11,1.64,3.02L185.58,299.81z M187.92,299.07
				c-0.4-1.04-1-2.19-1.62-3.06l1.09-0.42c0.62,0.83,1.26,1.96,1.66,2.96L187.92,299.07z"/>
			<path d="M176.1,315.96v10.65c0,2.45,1.34,3.74,3.93,3.74c1.64,0,3.21-0.83,4.13-2.19c0.77-1.15,1.4-2.59,1.91-4.44l1.34,0.85
				c-0.6,2.06-1.21,3.42-1.98,4.51c-1.28,1.79-3.19,2.74-5.47,2.74c-3.49,0-5.38-1.83-5.38-5.23v-10.63H176.1z"/>
			<path d="M179.35,334.58h1.45v1.13h6.06v2.17h2.25v1.04h-2.25v2.23h-6.06v1.04h7.08v1.04h-7.08v1.06h8.3v1.08h-17.93v-1.08h8.17
				v-1.06h-6.81v-1.04h6.81v-1.04h-6.02v-1.02h6.02v-1.21h-8.17v-1.04h8.17v-1.15h-6.02v-1.02h6.02V334.58z M186.81,352.51h-1.49
				v-0.83h-10.34v0.83h-1.49v-6.19h13.33V352.51z M174.97,348.43h10.34v-1.08h-10.34V348.43z M174.97,350.6h10.34v-1.17h-10.34
				V350.6z M180.8,336.73v1.15h4.61v-1.15H180.8z M180.8,338.92v1.21h4.61v-1.21H180.8z"/>
			<path d="M178.56,357.28c-0.21-0.57-0.57-1.7-0.72-2.19l1.47-0.09c0.15,0.55,0.53,1.68,0.75,2.28h6.42v1.28h-5.95
				c0.34,0.91,0.91,2.15,1.36,3.06h5.85v1.28h-5.17c0.59,1.09,1.4,2.32,2.11,3.28l-1.47,0.49c-0.81-1.17-1.6-2.45-2.28-3.77h-8.47
				v-1.28h7.85c-0.47-1-0.92-2.08-1.28-3.06h-6.25v-1.28H178.56z M184.58,371.17c-1.47,0.08-2.25,0.11-3.02,0.11
				c-2.38,0-4.1-0.19-5.23-0.55c-1.77-0.57-2.76-1.74-2.76-3.25c0-0.74,0.23-1.43,0.58-1.87l1.17,0.66
				c-0.19,0.45-0.28,0.85-0.28,1.23c0,1.64,1.93,2.38,6.19,2.38c1.02,0,2.02-0.06,3.21-0.15L184.58,371.17z"/>
			<path d="M175.24,388.38c1.42,1.47,3.21,2.1,6.32,2.15h7.74c-0.21,0.38-0.34,0.75-0.49,1.32h-7.27c-3.36-0.04-5.38-0.75-6.91-2.44
				c-0.89,1.19-1.85,2.21-2.72,2.91l-0.77-1.34c0.87-0.64,1.79-1.43,2.66-2.28v-4.93h-2.62v-1.28h4.06V388.38z M174.5,379.03
				c-0.83-1.25-1.76-2.4-2.7-3.3l1.04-0.87c0.92,0.81,1.83,1.83,2.79,3.15L174.5,379.03z M187.81,378.94v9.29
				c0,1.02-0.34,1.36-1.38,1.36c-0.55,0-1.25-0.04-1.92-0.11l-0.23-1.21c0.58,0.09,1.15,0.13,1.7,0.13c0.4,0,0.45-0.06,0.45-0.47
				v-1.98h-3.38v3.36h-1.32v-3.36h-3.27v3.59h-1.38v-10.59h5.06c-1.04-0.57-2.13-1.11-3.28-1.62l0.89-0.77
				c1.06,0.49,1.57,0.74,2.53,1.25c0.87-0.43,2.11-1.15,2.66-1.53h-7.78v-1.17h9.49l0.77,0.79c-0.98,0.77-2.57,1.74-4.1,2.49
				l0.23,0.15c0.43,0.25,0.47,0.26,0.7,0.42H187.81z M178.46,381.88h3.27v-1.85h-3.27V381.88z M178.46,384.85h3.27v-1.89h-3.27
				V384.85z M183.05,381.88h3.38v-1.85h-3.38V381.88z M186.43,382.96h-3.38v1.89h3.38V382.96z"/>
			<path d="M178.46,401.3h-2.43v2.98h2.45v1.25h-2.45v3.94c0.51-0.13,1.94-0.55,2.89-0.85l0.13,1.23c-2.25,0.79-4.96,1.57-7.44,2.11
				l-0.49-1.34l1-0.21v-7.36h1.28v7.08l0.47-0.11l0.45-0.11l0.4-0.09v-8.51h-2.76v-6.13h6.49V401.3z M173.31,400.07h3.81v-3.64
				h-3.81V400.07z M187.75,396.37c-0.72,1.76-1.64,3.27-2.77,4.55c1.19,1.04,2.66,1.94,4.32,2.62l-0.72,1.25
				c-1.7-0.76-3.28-1.79-4.51-2.94c-1.38,1.3-3,2.34-4.89,3.11l-0.75-1.17c1.7-0.55,3.34-1.57,4.72-2.89
				c-0.62-0.7-1.26-1.59-1.7-2.4l-0.08,0.09l-0.04,0.06c-0.49,0.62-1.08,1.23-1.66,1.72l-0.92-1c1.42-1.08,2.79-3.08,3.45-5
				l1.4,0.23c-0.21,0.49-0.26,0.64-0.42,0.96h3.66L187.75,396.37z M187.67,412.32h-1.38v-1.11h-4.81v1.11h-1.38v-7.44h7.57V412.32z
				 M181.48,409.96h4.81v-3.81h-4.81V409.96z M182.14,397.49c0.53,0.94,1.04,1.64,1.87,2.53c0.85-0.98,1.49-1.98,2.04-3.19h-3.51
				c-0.08,0.13-0.15,0.26-0.32,0.55L182.14,397.49z"/>
		</g>
		<g>
			<path d="M177.66,237.46v10.21h2.92v1.45h-2.92v3.72H176v-3.72h-7.78v-1.43l7.36-10.23H177.66z M176,242.24
				c0-0.87,0.04-2.34,0.09-3.27h-0.08c-0.51,1-1,1.87-1.38,2.4l-4.49,6.3H176V242.24z"/>
			<path d="M186.4,244.07c2.7,0,4.19-0.98,4.19-2.76c0-1.57-1.26-2.55-3.3-2.55c-1.53,0-2.55,0.45-3.7,1.64l-1.11-1.06
				c1.17-1.3,2.98-2.08,4.85-2.08c3.04,0,5.15,1.6,5.15,3.91c0,1.91-1.4,3.21-3.72,3.49v0.08c2.74,0.19,4.32,1.66,4.32,3.98
				c0,2.7-2.23,4.42-5.78,4.42c-2.3,0-4.04-0.68-5.38-2.13l1.11-1.11c1.13,1.13,2.55,1.7,4.25,1.7c2.42,0,3.87-1.13,3.87-3
				c0-2.11-1.51-3.1-4.79-3.1h-1.23v-1.43H186.4z"/>
		</g>
	</g>
	<g>
		<path d="M127.29,294.41l0.95,0.76c-0.7,2.5-1.06,3.69-1.46,4.79c1.28,0.14,2.79,0.59,4.54,1.35c0.07-0.88,0.11-1.66,0.11-2.45
			l-0.02-1.28l1.4,0.16c-0.02,1.67-0.07,3.01-0.2,4.18c0.81,0.41,1.5,0.81,2.34,1.33l-0.59,1.37c-0.86-0.58-1.24-0.81-1.96-1.24
			c-0.63,2.93-2.16,4.79-4.83,5.89l-0.83-1.08c2.47-1.01,3.85-2.75,4.37-5.51c-1.44-0.77-3.28-1.35-4.77-1.55
			c-0.94,2.52-2.09,4.81-2.97,5.96c-0.68,0.86-1.51,1.37-2.29,1.37c-1.3,0-2.23-1.37-2.23-3.26c0-3.22,2.52-5.29,6.55-5.35
			c0.45-1.17,0.97-2.9,1.28-4.18h-6.12v-1.26H127.29z M124.97,301.06c-1.3,0-2.68,0.49-3.51,1.21c-0.79,0.72-1.24,1.76-1.24,2.92
			c0,1.04,0.41,1.84,0.97,1.84c0.86,0,2.12-1.94,3.65-5.65L124.97,301.06z"/>
		<path d="M122.77,315.54c0.29-0.94,0.5-1.71,0.77-2.79l1.4,0.2c-0.23,0.85-0.5,1.78-0.76,2.59h3.35v1.26h-3.76
			c-1.04,3.06-2.23,5.56-3.58,7.56l-1.21-0.7c1.28-1.84,2.39-4.11,3.37-6.86h-2.83v-1.26H122.77z M130.3,318.59v4.95
			c1.26,0.56,2.79,1.42,4.23,2.41l-0.76,1.21c-1.12-0.81-2.38-1.6-3.47-2.16c-0.04,2.3-1.22,3.48-3.53,3.48
			c-2.29,0-3.75-1.08-3.75-2.77c0-1.75,1.58-2.88,4-2.88c0.59,0,1.17,0.07,1.85,0.23v-4.47H130.3z M128.88,324.38
			c-0.72-0.25-1.39-0.38-2.07-0.38c-1.48,0-2.47,0.67-2.47,1.66c0,0.97,0.95,1.62,2.41,1.62c1.3,0,2.12-0.9,2.12-2.32V324.38z
			 M133.92,319.23c-1.12-1.24-2.83-2.72-4.25-3.71l0.83-0.95c1.3,0.81,3.15,2.34,4.39,3.58L133.92,319.23z"/>
		<path d="M122.9,332.12v10.15c0,2.34,1.28,3.57,3.75,3.57c1.57,0,3.06-0.79,3.94-2.09c0.74-1.1,1.33-2.47,1.82-4.23l1.28,0.81
			c-0.58,1.96-1.15,3.26-1.89,4.3c-1.22,1.71-3.04,2.61-5.22,2.61c-3.33,0-5.13-1.75-5.13-4.99v-10.14H122.9z"/>
		<path d="M122.07,363.59c1.35,1.4,3.06,2,6.03,2.05h7.38c-0.2,0.36-0.32,0.72-0.47,1.26h-6.93c-3.21-0.04-5.13-0.72-6.59-2.32
			c-0.85,1.13-1.76,2.11-2.59,2.77l-0.74-1.28c0.83-0.61,1.71-1.37,2.54-2.18v-4.7h-2.5v-1.22h3.87V363.59z M121.37,354.68
			c-0.79-1.19-1.67-2.29-2.58-3.15l0.99-0.83c0.88,0.77,1.75,1.75,2.67,3.01L121.37,354.68z M134.06,354.59v8.86
			c0,0.97-0.32,1.3-1.31,1.3c-0.52,0-1.19-0.04-1.84-0.11l-0.22-1.15c0.56,0.09,1.1,0.13,1.62,0.13c0.38,0,0.43-0.05,0.43-0.45
			v-1.89h-3.22v3.21h-1.26v-3.21h-3.11v3.42h-1.31v-10.1h4.83c-0.99-0.54-2.03-1.06-3.13-1.55l0.85-0.74
			c1.01,0.47,1.49,0.7,2.41,1.19c0.83-0.41,2.02-1.1,2.54-1.46h-7.42v-1.12h9.06l0.74,0.76c-0.94,0.74-2.45,1.66-3.91,2.38
			l0.22,0.14c0.41,0.23,0.45,0.25,0.67,0.4H134.06z M125.15,357.4h3.11v-1.76h-3.11V357.4z M125.15,360.22h3.11v-1.8h-3.11V360.22z
			 M129.52,357.4h3.22v-1.76h-3.22V357.4z M132.75,358.42h-3.22v1.8h3.22V358.42z"/>
		<path d="M125.15,376.28h-2.32v2.84h2.34v1.19h-2.34v3.76c0.49-0.13,1.85-0.52,2.75-0.81l0.13,1.17c-2.14,0.76-4.74,1.49-7.09,2.02
			l-0.47-1.28l0.95-0.2v-7.02h1.22v6.75l0.45-0.11l0.43-0.11l0.38-0.09v-8.12h-2.63v-5.85h6.19V376.28z M120.23,375.11h3.64v-3.48
			h-3.64V375.11z M134.01,371.58c-0.68,1.67-1.57,3.11-2.65,4.34c1.13,0.99,2.54,1.85,4.12,2.5l-0.68,1.19
			c-1.62-0.72-3.13-1.71-4.3-2.81c-1.31,1.24-2.86,2.23-4.66,2.97l-0.72-1.12c1.62-0.52,3.19-1.49,4.5-2.75
			c-0.59-0.67-1.21-1.51-1.62-2.29l-0.07,0.09l-0.04,0.05c-0.47,0.59-1.03,1.17-1.58,1.64l-0.88-0.95c1.35-1.03,2.67-2.94,3.29-4.77
			l1.33,0.22c-0.2,0.47-0.25,0.61-0.4,0.92h3.49L134.01,371.58z M133.94,386.79h-1.31v-1.06h-4.59v1.06h-1.31v-7.09h7.22V386.79z
			 M128.03,384.54h4.59v-3.64h-4.59V384.54z M128.66,372.64c0.5,0.9,0.99,1.57,1.78,2.41c0.81-0.94,1.42-1.89,1.95-3.04h-3.35
			c-0.07,0.13-0.14,0.25-0.31,0.52L128.66,372.64z"/>
	</g>
	<g>
		<path d="M286.06,431.58v4.14l8.63-1.15l0.9,0.88c-0.99,2.85-2.54,4.9-4.54,6.05l-1.06-0.94c1.71-0.9,3.28-2.77,3.85-4.59
			l-7.78,1.12v6.45c0,0.77,0.16,1.1,0.61,1.26c0.4,0.14,1.51,0.23,3.03,0.23c1.62,0,2.99-0.07,4.9-0.25v1.48
			c-1.46,0.11-2.83,0.16-4.32,0.16c-2.61,0-3.98-0.11-4.57-0.34c-0.76-0.32-1.08-0.99-1.08-2.23v-6.55l-3.8,0.54l-0.14-1.39
			l3.94-0.52v-4.34H286.06z"/>
		<path d="M301.18,440.56c-0.32-1.49-0.92-3.35-1.51-4.63l1.19-0.59c0.58,1.17,1.19,2.94,1.62,4.7L301.18,440.56z M302.71,445.69
			c4.95-1.37,6.82-4.05,7.54-10.88l1.35,0.4c-0.94,7.22-2.86,9.98-8.16,11.63L302.71,445.69z M305.15,439.79
			c-0.32-1.51-0.86-3.19-1.48-4.59l1.28-0.52c0.56,1.21,1.03,2.7,1.49,4.63L305.15,439.79z"/>
		<path d="M319.17,431.56v5.01c3.46,1.06,6.75,2.32,8.62,3.29l-0.74,1.33c-2.09-1.08-5.28-2.38-7.89-3.22v9h-1.48v-15.41H319.17z"/>
		<path d="M331.26,445.15c1.89-2.52,3.64-7.96,3.96-12.37l1.44,0.31c-0.72,5.6-2.29,10.53-4.21,13.14L331.26,445.15z M344.93,446.23
			c-1.75-2.75-3.65-8.21-4.64-13.18l1.37-0.43c0.85,4.52,2.7,9.71,4.52,12.62L344.93,446.23z M344.15,434.6
			c-0.34-0.9-0.96-2.05-1.58-2.95l1.08-0.41c0.61,0.86,1.22,1.96,1.6,2.92L344.15,434.6z M346.4,433.97
			c-0.4-1.04-0.97-2.14-1.57-2.95l1.06-0.38c0.59,0.77,1.21,1.87,1.58,2.86L346.4,433.97z"/>
		<path d="M352.3,440.56c-0.32-1.49-0.92-3.35-1.51-4.63l1.19-0.59c0.58,1.17,1.19,2.94,1.62,4.7L352.3,440.56z M353.83,445.69
			c4.95-1.37,6.82-4.05,7.54-10.88l1.35,0.4c-0.94,7.22-2.86,9.98-8.16,11.63L353.83,445.69z M356.27,439.79
			c-0.32-1.51-0.86-3.19-1.48-4.59l1.28-0.52c0.56,1.21,1.03,2.7,1.49,4.63L356.27,439.79z"/>
		<path d="M380.39,434.69c-1.21,6.81-4.16,10.25-10.57,12.24l-0.83-1.26c5.78-1.64,8.8-4.92,9.81-10.62h-6.43
			c-1.1,1.76-2.56,3.29-4.19,4.39l-1.03-1.03c2.54-1.64,4.36-3.98,5.31-6.86l1.39,0.4c-0.23,0.65-0.5,1.28-0.76,1.82h6.21
			L380.39,434.69z"/>
		<path d="M398.17,436.58v9.65c0,1.17-0.38,1.49-1.75,1.49c-0.88,0-1.82-0.04-2.68-0.11l-0.27-1.31c1.04,0.11,2.07,0.16,2.63,0.16
			c0.56,0,0.65-0.09,0.65-0.56v-2.18h-7.6v4.14h-1.42v-9.63c-0.97,1.03-2.14,1.98-3.28,2.7l-0.9-1.1c2.34-1.4,4.3-3.44,5.37-5.56
			h-5.08v-1.19h5.64c0.41-1.01,0.59-1.51,0.81-2.36l1.48,0.18c-0.22,0.79-0.4,1.35-0.74,2.18h9.58v1.19h-10.14
			c-0.45,0.88-0.88,1.62-1.37,2.3H398.17z M389.15,439.54h7.6v-1.78h-7.6V439.54z M389.15,442.61h7.6v-1.96h-7.6V442.61z"/>
		<path d="M409.44,438.87c-1.03,1.82-2.14,2.92-2.95,2.92c-1.04,0-1.62-1.71-1.62-4.84c0-1.4,0.23-3.64,0.56-5.24l1.4,0.2
			c-0.34,1.91-0.54,3.75-0.54,5.06c0,1.98,0.16,3.1,0.47,3.1c0.34,0,1.3-1.21,1.84-2.3L409.44,438.87z M408.7,445.93
			c1.73-0.49,3.13-1.31,4.05-2.36c1.1-1.28,1.62-3.08,1.62-5.62c0-1.67-0.22-4.02-0.56-6.3l1.46-0.14c0.38,2.25,0.59,4.63,0.59,6.52
			c0,5.02-1.76,7.54-6.39,9.11L408.7,445.93z"/>
		<path d="M154.89,459.98c-0.81,0.36-2.4,0.85-3.49,1.08l-0.4-1.35c1.66-0.34,3.51-1.03,4.36-1.6h1.21v14.85h-1.67V459.98z"/>
		<path d="M169.51,465.89c-0.18,0.65-0.4,1.26-0.59,1.76h10.12c-0.14,2.2-0.5,4.16-0.96,5.15c-0.45,1.01-1.03,1.3-2.65,1.3
			c-0.95,0-2.23-0.05-3.12-0.13l-0.32-1.37c1.24,0.11,2.45,0.18,3.31,0.18c0.9,0,1.17-0.14,1.42-0.72c0.22-0.56,0.5-1.82,0.68-3.19
			h-8.98c-0.23,0.5-0.49,1.03-0.76,1.53l-1.46-0.41c0.65-1.15,1.24-2.52,1.78-4.1h-4.02v-1.22h17.11v1.22H169.51z M178.4,463.02
			h-11.76v-5.11h11.76V463.02z M168.1,461.87h8.84v-2.77h-8.84V461.87z"/>
		<path d="M186.08,465.29c-0.58,1.84-1.31,3.49-2.18,4.88l-0.67-1.44c1.17-1.75,2.09-3.93,2.72-6.5h-2.47v-1.26h2.59v-3.85h1.33
			v3.85h1.87v1.26h-1.87v1.67c0.81,0.67,1.57,1.39,2.21,2.11l-0.76,1.21c-0.32-0.49-0.92-1.24-1.46-1.85v8.86h-1.33V465.29z
			 M196.13,467.8c1.15,1.66,2.67,2.99,4.59,4.07l-0.85,1.26c-1.89-1.19-3.57-2.85-4.65-4.61v5.71h-1.28v-5.6
			c-1.13,1.93-2.67,3.51-4.63,4.75l-0.9-1.1c1.96-1.1,3.53-2.58,4.72-4.48h-3.33v-6.41h4.14v-1.33h-5.08v-1.17h5.08v-1.76h1.28v1.76
			h5.19v1.17h-5.19v1.33h4.27v6.41H196.13z M191.09,462.48v1.53h2.86v-1.53H191.09z M191.09,465.11v1.57h2.86v-1.57H191.09z
			 M195.23,464.01h3.01v-1.53h-3.01V464.01z M195.23,466.68h3.01v-1.57h-3.01V466.68z"/>
		<path d="M214.65,465.67c0,4.68-2.07,7.56-5.4,7.56s-5.4-2.9-5.4-7.56c0-4.68,2.07-7.56,5.42-7.56
			C212.58,458.11,214.65,461.01,214.65,465.67z M205.61,465.67c0,3.78,1.39,6.12,3.66,6.12c2.23,0,3.62-2.34,3.62-6.12
			c0-3.82-1.39-6.14-3.66-6.14C207,459.53,205.61,461.89,205.61,465.67z"/>
		<path d="M221.36,470.39v2.57h-2.57v-2.57H221.36z"/>
		<path d="M231.44,459.98c-0.81,0.36-2.39,0.85-3.49,1.08l-0.4-1.35c1.66-0.34,3.51-1.03,4.36-1.6h1.21v14.85h-1.67V459.98z"/>
		<path d="M252.32,465.67c0,4.68-2.07,7.56-5.4,7.56s-5.4-2.9-5.4-7.56c0-4.68,2.07-7.56,5.42-7.56
			C250.25,458.11,252.32,461.01,252.32,465.67z M243.29,465.67c0,3.78,1.39,6.12,3.66,6.12c2.23,0,3.62-2.34,3.62-6.12
			c0-3.82-1.39-6.14-3.66-6.14C244.67,459.53,243.29,461.89,243.29,465.67z"/>
		<path d="M258.73,464.18c0.54-1.21,1.75-2.03,2.97-2.03c1.46,0,2.48,0.77,2.93,2.21c0.65-1.4,1.78-2.21,3.15-2.21
			c1.13,0,2.03,0.47,2.67,1.37c0.45,0.65,0.63,1.46,0.63,2.74v6.72h-1.6v-6.68c0-1.76-0.72-2.75-2-2.75c-1.12,0-2.2,1.08-2.54,2.52
			v6.91h-1.58v-6.77c0-1.62-0.77-2.67-1.98-2.67c-1.13,0-2.18,1.12-2.57,2.74v6.7h-1.62v-10.62h1.55V464.18z M268.6,460.74
			c0.23-0.59,0.54-0.95,1.21-1.37l0.38-0.23l0.14-0.09c0.76-0.45,0.92-0.61,0.92-0.9s-0.4-0.52-0.86-0.52
			c-0.47,0-0.88,0.23-1.19,0.63l-0.59-0.56c0.41-0.56,1.03-0.85,1.8-0.85c1.06,0,1.84,0.54,1.84,1.28c0,0.52-0.25,0.88-0.83,1.21
			l-0.36,0.2c-0.72,0.4-1.12,0.68-1.3,1.01h2.63v0.81h-3.78V460.74z"/>
		<path d="M279.27,473.95c-0.94-1.33-2.14-2.77-3.37-4.03l1.08-0.97c1.19,1.15,2.48,2.63,3.44,3.98L279.27,473.95z"/>
		<path d="M288.63,471.5c0.49-1.87,1.98-3.67,4.5-5.4l0.5-0.34c1.21-0.81,1.75-1.22,2.18-1.64c0.67-0.67,0.97-1.33,0.97-2.11
			c0-1.48-1.26-2.48-3.08-2.48c-1.46,0-2.66,0.59-3.8,1.89l-1.13-0.99c1.22-1.53,2.9-2.32,4.95-2.32c2.86,0,4.86,1.64,4.86,3.96
			c0,1.19-0.45,2.07-1.53,3.01c-0.43,0.38-1.08,0.85-2.32,1.69l-0.63,0.43c-2.25,1.53-3.47,2.92-3.76,4.23h8.45v1.53h-10.16V471.5z"
			/>
		<path d="M307.98,465.89c-0.18,0.65-0.4,1.26-0.59,1.76h10.12c-0.14,2.2-0.5,4.16-0.95,5.15c-0.45,1.01-1.03,1.3-2.65,1.3
			c-0.95,0-2.23-0.05-3.11-0.13l-0.32-1.37c1.24,0.11,2.45,0.18,3.31,0.18c0.9,0,1.17-0.14,1.42-0.72c0.22-0.56,0.5-1.82,0.68-3.19
			h-8.98c-0.23,0.5-0.49,1.03-0.76,1.53l-1.46-0.41c0.65-1.15,1.24-2.52,1.78-4.1h-4.01v-1.22h17.11v1.22H307.98z M316.87,463.02
			h-11.76v-5.11h11.76V463.02z M306.58,461.87h8.84v-2.77h-8.84V461.87z"/>
		<path d="M324.56,465.29c-0.58,1.84-1.31,3.49-2.18,4.88l-0.67-1.44c1.17-1.75,2.09-3.93,2.72-6.5h-2.47v-1.26h2.59v-3.85h1.33
			v3.85h1.87v1.26h-1.87v1.67c0.81,0.67,1.57,1.39,2.21,2.11l-0.76,1.21c-0.32-0.49-0.92-1.24-1.46-1.85v8.86h-1.33V465.29z
			 M334.6,467.8c1.15,1.66,2.67,2.99,4.59,4.07l-0.85,1.26c-1.89-1.19-3.57-2.85-4.65-4.61v5.71h-1.28v-5.6
			c-1.13,1.93-2.67,3.51-4.63,4.75l-0.9-1.1c1.96-1.1,3.53-2.58,4.72-4.48h-3.33v-6.41h4.14v-1.33h-5.08v-1.17h5.08v-1.76h1.28v1.76
			h5.19v1.17h-5.19v1.33h4.27v6.41H334.6z M329.56,462.48v1.53h2.86v-1.53H329.56z M329.56,465.11v1.57h2.86v-1.57H329.56z
			 M333.7,464.01h3.01v-1.53h-3.01V464.01z M333.7,466.68h3.01v-1.57h-3.01V466.68z"/>
		<path d="M353.13,465.67c0,4.68-2.07,7.56-5.4,7.56s-5.4-2.9-5.4-7.56c0-4.68,2.07-7.56,5.42-7.56
			C351.06,458.11,353.13,461.01,353.13,465.67z M344.09,465.67c0,3.78,1.39,6.12,3.66,6.12c2.23,0,3.62-2.34,3.62-6.12
			c0-3.82-1.39-6.14-3.66-6.14C345.47,459.53,344.09,461.89,344.09,465.67z"/>
		<path d="M359.84,470.39v2.57h-2.57v-2.57H359.84z"/>
		<path d="M369.92,459.98c-0.81,0.36-2.4,0.85-3.49,1.08l-0.4-1.35c1.66-0.34,3.51-1.03,4.36-1.6h1.21v14.85h-1.67V459.98z"/>
		<path d="M380.23,471.54c0.47-1.93,2.05-3.85,4.48-5.47l0.47-0.31c2.52-1.64,3.19-2.43,3.19-3.75c0-1.48-1.22-2.47-3.08-2.47
			c-1.51,0-2.58,0.56-3.73,1.93l-1.13-0.95c1.37-1.69,2.83-2.41,4.93-2.41c2.81,0,4.86,1.66,4.86,3.94c0,1.82-0.7,2.66-3.92,4.72
			l-0.65,0.41c-2.14,1.4-3.49,2.95-3.65,4.25h8.44v1.53h-10.21V471.54z"/>
		<path d="M397.2,464.18c0.54-1.21,1.75-2.03,2.97-2.03c1.46,0,2.48,0.77,2.93,2.21c0.65-1.4,1.78-2.21,3.15-2.21
			c1.13,0,2.03,0.47,2.67,1.37c0.45,0.65,0.63,1.46,0.63,2.74v6.72h-1.6v-6.68c0-1.76-0.72-2.75-2-2.75c-1.12,0-2.2,1.08-2.54,2.52
			v6.91h-1.58v-6.77c0-1.62-0.77-2.67-1.98-2.67c-1.13,0-2.18,1.12-2.58,2.74v6.7h-1.62v-10.62h1.55V464.18z M407.07,460.74
			c0.23-0.59,0.54-0.95,1.21-1.37l0.38-0.23l0.14-0.09c0.76-0.45,0.92-0.61,0.92-0.9s-0.4-0.52-0.86-0.52
			c-0.47,0-0.88,0.23-1.19,0.63l-0.59-0.56c0.42-0.56,1.03-0.85,1.8-0.85c1.06,0,1.84,0.54,1.84,1.28c0,0.52-0.25,0.88-0.83,1.21
			l-0.36,0.2c-0.72,0.4-1.12,0.68-1.3,1.01h2.63v0.81h-3.78V460.74z"/>
		<path d="M417.74,473.95c-0.94-1.33-2.14-2.77-3.37-4.03l1.08-0.97c1.19,1.15,2.48,2.63,3.44,3.98L417.74,473.95z"/>
		<path d="M430.86,464.59c2.54,0,4.02-0.99,4.02-2.68c0-1.46-1.24-2.41-3.12-2.41c-1.4,0-2.54,0.49-3.69,1.58l-1.03-1.1
			c1.22-1.19,2.97-1.87,4.79-1.87c2.84,0,4.83,1.49,4.83,3.66c0,1.89-1.31,3.19-3.49,3.46v0.07c2.58,0.27,4.02,1.62,4.02,3.76
			c0,2.57-2.07,4.2-5.4,4.2c-2.16,0-3.87-0.67-5.22-2.05l1.04-1.12c1.04,1.1,2.58,1.73,4.18,1.73c2.23,0,3.6-1.06,3.6-2.79
			c0-1.1-0.49-1.98-1.33-2.43c-0.74-0.4-1.96-0.63-3.22-0.63h-1.1v-1.37H430.86z"/>
		<path d="M446.45,465.89c-0.18,0.65-0.4,1.26-0.59,1.76h10.12c-0.14,2.2-0.5,4.16-0.95,5.15c-0.45,1.01-1.03,1.3-2.65,1.3
			c-0.95,0-2.23-0.05-3.11-0.13l-0.32-1.37c1.24,0.11,2.45,0.18,3.31,0.18c0.9,0,1.17-0.14,1.42-0.72c0.22-0.56,0.5-1.82,0.68-3.19
			h-8.98c-0.23,0.5-0.49,1.03-0.76,1.53l-1.46-0.41c0.65-1.15,1.24-2.52,1.78-4.1h-4.01v-1.22h17.11v1.22H446.45z M455.35,463.02
			h-11.76v-5.11h11.76V463.02z M445.05,461.87h8.84v-2.77h-8.84V461.87z"/>
		<path d="M463.03,465.29c-0.58,1.84-1.31,3.49-2.18,4.88l-0.67-1.44c1.17-1.75,2.09-3.93,2.72-6.5h-2.47v-1.26h2.59v-3.85h1.33
			v3.85h1.87v1.26h-1.87v1.67c0.81,0.67,1.57,1.39,2.21,2.11l-0.76,1.21c-0.32-0.49-0.92-1.24-1.46-1.85v8.86h-1.33V465.29z
			 M473.08,467.8c1.15,1.66,2.67,2.99,4.59,4.07l-0.85,1.26c-1.89-1.19-3.57-2.85-4.65-4.61v5.71h-1.28v-5.6
			c-1.13,1.93-2.67,3.51-4.63,4.75l-0.9-1.1c1.96-1.1,3.53-2.58,4.72-4.48h-3.33v-6.41h4.14v-1.33h-5.08v-1.17h5.08v-1.76h1.28v1.76
			h5.19v1.17h-5.19v1.33h4.27v6.41H473.08z M468.04,462.48v1.53h2.86v-1.53H468.04z M468.04,465.11v1.57h2.86v-1.57H468.04z
			 M472.18,464.01h3.01v-1.53h-3.01V464.01z M472.18,466.68h3.01v-1.57h-3.01V466.68z"/>
		<path d="M491.6,465.67c0,4.68-2.07,7.56-5.4,7.56s-5.4-2.9-5.4-7.56c0-4.68,2.07-7.56,5.42-7.56
			C489.53,458.11,491.6,461.01,491.6,465.67z M482.56,465.67c0,3.78,1.39,6.12,3.66,6.12c2.23,0,3.62-2.34,3.62-6.12
			c0-3.82-1.39-6.14-3.66-6.14C483.95,459.53,482.56,461.89,482.56,465.67z"/>
		<path d="M498.31,470.39v2.57h-2.57v-2.57H498.31z"/>
		<path d="M507.51,464.59c2.58,0,4-0.94,4-2.63c0-1.49-1.21-2.43-3.15-2.43c-1.46,0-2.43,0.43-3.53,1.57l-1.06-1.01
			c1.12-1.24,2.84-1.98,4.63-1.98c2.9,0,4.92,1.53,4.92,3.73c0,1.82-1.33,3.06-3.55,3.33v0.07c2.61,0.18,4.12,1.58,4.12,3.8
			c0,2.57-2.13,4.21-5.51,4.21c-2.2,0-3.85-0.65-5.13-2.03l1.06-1.06c1.08,1.08,2.43,1.62,4.05,1.62c2.3,0,3.69-1.08,3.69-2.86
			c0-2.02-1.44-2.95-4.57-2.95h-1.17v-1.37H507.51z"/>
		<path d="M527.26,465.67c-0.74,1.53-2.25,2.47-3.93,2.47c-2.72,0-4.7-2.02-4.7-4.79c0-1.37,0.54-2.72,1.48-3.71
			c0.97-1.03,2.16-1.53,3.6-1.53c3.22,0,5.26,2.56,5.26,6.61c0,5.64-2.39,8.21-8.12,8.75l-0.74-1.33c4.63-0.2,6.88-2.21,7.22-6.46
			H527.26z M520.34,463.2c0,2.11,1.3,3.56,3.2,3.56c0.96,0,1.95-0.49,2.56-1.26c0.58-0.72,0.9-1.57,0.9-2.29c0-0.94-0.4-2-1.01-2.72
			c-0.59-0.68-1.33-1.01-2.3-1.01C521.84,459.49,520.34,461.15,520.34,463.2z"/>
		<path d="M535.68,464.18c0.54-1.21,1.75-2.03,2.97-2.03c1.46,0,2.48,0.77,2.93,2.21c0.65-1.4,1.78-2.21,3.15-2.21
			c1.13,0,2.03,0.47,2.67,1.37c0.45,0.65,0.63,1.46,0.63,2.74v6.72h-1.6v-6.68c0-1.76-0.72-2.75-2-2.75c-1.12,0-2.2,1.08-2.54,2.52
			v6.91h-1.58v-6.77c0-1.62-0.77-2.67-1.98-2.67c-1.13,0-2.18,1.12-2.57,2.74v6.7h-1.62v-10.62h1.55V464.18z M545.55,460.74
			c0.23-0.59,0.54-0.95,1.21-1.37l0.38-0.23l0.14-0.09c0.76-0.45,0.92-0.61,0.92-0.9s-0.4-0.52-0.86-0.52
			c-0.47,0-0.88,0.23-1.19,0.63l-0.59-0.56c0.41-0.56,1.03-0.85,1.8-0.85c1.06,0,1.84,0.54,1.84,1.28c0,0.52-0.25,0.88-0.83,1.21
			l-0.36,0.2c-0.72,0.4-1.12,0.68-1.3,1.01h2.63v0.81h-3.78V460.74z"/>
	</g>
	<g>
		<path d="M164.49,163.48c2.88,0,4.48-1.05,4.48-2.94c0-1.67-1.35-2.72-3.53-2.72c-1.63,0-2.72,0.48-3.95,1.75l-1.19-1.13
			c1.25-1.39,3.19-2.22,5.18-2.22c3.25,0,5.51,1.71,5.51,4.18c0,2.04-1.49,3.43-3.97,3.73v0.08c2.92,0.2,4.62,1.77,4.62,4.26
			c0,2.88-2.38,4.72-6.17,4.72c-2.46,0-4.32-0.73-5.75-2.28l1.19-1.19c1.21,1.21,2.72,1.82,4.54,1.82c2.58,0,4.13-1.21,4.13-3.21
			c0-2.26-1.61-3.31-5.12-3.31h-1.31v-1.53H164.49z"/>
		<path d="M176.43,169.98v2.88h-2.88v-2.88H176.43z"/>
		<path d="M188.89,164.69c-0.83,1.71-2.52,2.76-4.4,2.76c-3.05,0-5.27-2.26-5.27-5.37c0-1.53,0.61-3.05,1.65-4.16
			c1.09-1.15,2.42-1.71,4.03-1.71c3.61,0,5.89,2.86,5.89,7.4c0,6.31-2.68,9.2-9.1,9.8l-0.83-1.49c5.18-0.22,7.71-2.48,8.09-7.24
			H188.89z M181.15,161.93c0,2.36,1.45,3.99,3.59,3.99c1.07,0,2.18-0.54,2.86-1.41c0.65-0.81,1.01-1.75,1.01-2.56
			c0-1.05-0.44-2.24-1.13-3.05c-0.67-0.77-1.49-1.13-2.58-1.13C182.82,157.77,181.15,159.63,181.15,161.93z"/>
		<path d="M195.18,164.79c0.89-1.51,2.44-2.38,4.32-2.38c2.95,0,5.25,2.24,5.25,5.14c0,3.29-2.28,5.61-5.49,5.61
			c-2.02,0-3.61-0.83-4.74-2.46c-0.97-1.41-1.37-2.82-1.37-4.92c0-2.04,0.97-4.48,2.48-6.27c1.45-1.73,3.41-2.97,5.95-3.77
			l0.73,1.43c-4.12,1.47-6.7,4.2-7.2,7.63H195.18z M195.39,167.6c0,2.14,1.75,3.97,3.81,3.97c2.08,0,3.61-1.65,3.61-3.89
			c0-2.24-1.47-3.77-3.63-3.77C197.2,163.91,195.39,165.66,195.39,167.6z"/>
		<path d="M217.77,156.52v1.63h-7.67l-0.63,5.73h0.08c0.95-0.89,2.26-1.37,3.77-1.37c3.21,0,5.41,2.12,5.41,5.16
			c0,3.21-2.44,5.49-5.89,5.49c-2.24,0-4.05-0.63-5.59-1.94l1.11-1.29c1.15,0.99,2.84,1.59,4.46,1.59c2.24,0,3.89-1.65,3.89-3.85
			c0-2.22-1.47-3.65-3.73-3.65c-1.47,0-3.03,0.73-3.71,1.73l-1.7-0.28l0.89-8.96H217.77z"/>
	</g>
	<rect x="250.89" y="225.01" class="グラフィックスタイル_x0020_3" width="210.32" height="106.14"/>
	
		<rect x="463.47" y="206.23" transform="matrix(-1.836970e-16 1 -1 -1.836970e-16 816.5256 -288.0639)" class="グラフィックスタイル_x0020_3" width="177.66" height="116"/>
	
		<rect x="360.47" y="51.49" transform="matrix(-1 -1.224647e-16 1.224647e-16 -1 977.1918 196.0827)" class="グラフィックスタイル_x0020_3" width="256.26" height="93.09"/>
	<g>
		<g>
			<g>
				<path class="st0" d="M326.21,74.87c0.57,4.31,0.57,8.63,0,12.94c-0.7,4.97-6.36,8.69-11.53,8.42
					c-16.92-0.76-33.85-0.76-50.77,0.02c-4.91,0.26-10.28-3.27-10.99-7.99c-0.65-4.62-0.65-9.23,0-13.85
					c0.71-4.72,6.08-8.25,10.99-7.99c16.92,0.78,33.85,0.79,50.77,0.02C319.85,66.18,325.51,69.9,326.21,74.87z"/>
				<path class="st5" d="M326.82,81.34c0,2.17-0.14,4.34-0.43,6.49c-0.69,4.85-6.17,8.85-11.73,8.57
					c-16.84-0.76-33.91-0.75-50.75,0.02c-5.26,0.28-10.49-3.52-11.18-8.13c-0.65-4.61-0.65-9.28,0-13.89
					c0.69-4.61,5.92-8.41,11.18-8.13c16.84,0.77,33.92,0.78,50.75,0.02c5.56-0.29,11.04,3.71,11.73,8.57v0
					C326.68,77,326.82,79.17,326.82,81.34z M252.61,81.34c0,2.31,0.16,4.61,0.49,6.9c0.67,4.44,5.71,8.11,10.79,7.84
					c16.86-0.77,33.95-0.78,50.79-0.02c5.38,0.28,10.67-3.59,11.34-8.27c0.57-4.28,0.57-8.62,0-12.9
					c-0.66-4.69-5.96-8.55-11.34-8.27c-16.85,0.76-33.94,0.75-50.79-0.02c-5.08-0.27-10.12,3.4-10.79,7.84
					C252.78,76.73,252.61,79.03,252.61,81.34z"/>
			</g>
		</g>
		<g>
			<path class="st6" d="M316.69,71.02v20.64c0.27-0.02,0.54-0.05,0.81-0.08V71.1C317.23,71.07,316.96,71.04,316.69,71.02z"/>
		</g>
		<g>
			<path class="st5" d="M308.38,68.91l-0.69,0.18c-4.95,1.28-11.51,1.99-18.48,1.99c-0.76,0-1.54-0.01-2.31-0.03l-0.05-0.01
				l-8.28-3.13l0.65-0.01c1.92-0.04,3.82-0.06,5.66-0.06c7.82,0,15.49,0.34,22.79,1.01L308.38,68.91z M286.93,70.8
				c0.76,0.02,1.53,0.03,2.28,0.03c6.61,0,12.85-0.64,17.69-1.8c-7.07-0.63-14.47-0.95-22.02-0.95c-1.62,0-3.3,0.02-5,0.05
				L286.93,70.8z"/>
		</g>
		<g>
			<path class="st5" d="M308.38,93.77l-0.72,0.07c-7.3,0.67-14.97,1.01-22.79,1.01c-1.82,0-3.72-0.02-5.66-0.06l-0.65-0.01
				l8.33-3.14c0.77-0.02,1.55-0.03,2.31-0.03c6.97,0,13.53,0.7,18.48,1.99L308.38,93.77z M279.88,94.55c1.71,0.03,3.39,0.05,5,0.05
				c7.55,0,14.95-0.32,22.02-0.95c-4.83-1.16-11.08-1.8-17.69-1.8c-0.75,0-1.52,0.01-2.28,0.03L279.88,94.55z"/>
		</g>
		<g>
			<path class="st0" d="M276.98,68.13h-12.17c-7.15,0-13,5.2-13,11.55V83c0,6.35,5.85,11.55,13,11.55h12.17
				c-1.12-4.32-1.69-8.77-1.68-13.21C275.29,76.9,275.86,72.45,276.98,68.13z"/>
			<path d="M277.16,68.01l-0.04,0.15c-1.12,4.36-1.7,8.78-1.67,13.18c0,0.06,0,0.12,0,0.17c0,4.33,0.56,8.71,1.67,13.01l0.04,0.15
				h-12.35c-7.24,0-13.14-5.24-13.14-11.68v-3.32c0-6.44,5.89-11.68,13.14-11.68H277.16z M251.95,83c0,6.3,5.77,11.43,12.85,11.43
				h12c-1.09-4.27-1.64-8.61-1.64-12.91c0-0.12,0-0.23,0-0.35c0-4.3,0.55-8.64,1.64-12.91h-12c-7.09,0-12.85,5.13-12.85,11.43V83z"
				/>
		</g>
		<g>
			<path class="st0" d="M305.49,71.79c-1.08,6.36-1.08,12.73,0,19.09c3.74,0.88,7.47,1.15,11.21,0.81V70.98
				C312.96,70.64,309.22,70.91,305.49,71.79z"/>
			<path d="M316.84,70.87v20.94l-0.13,0.01c-3.74,0.34-7.52,0.06-11.26-0.82l-0.09-0.02l-0.01-0.08c-1.08-6.35-1.08-12.78,0-19.13
				l0.01-0.08l0.09-0.02c3.73-0.88,7.52-1.15,11.26-0.82L316.84,70.87z M316.55,91.59V71.09c-3.63-0.31-7.31-0.05-10.94,0.8
				c-1.05,6.27-1.05,12.62,0,18.89C309.24,91.63,312.92,91.9,316.55,91.59z"/>
		</g>
		<g>
			<path class="st6" d="M316.69,70.98V91.7c0.27-0.02,0.54-0.05,0.81-0.08V71.07C317.24,71.03,316.97,71.01,316.69,70.98z"/>
		</g>
		<g>
			<path class="st0" d="M317.51,91.61h5.84c1.53-2.53,2.5-6.2,2.5-10.27s-0.96-7.75-2.5-10.27h-5.84V91.61z"/>
			<path d="M325.99,81.34c0,3.93-0.92,7.7-2.51,10.33l-0.04,0.07h-6.07v-20.8h6.07l0.04,0.07
				C325.07,73.64,325.99,77.41,325.99,81.34z M323.27,91.49c1.55-2.6,2.44-6.29,2.44-10.15s-0.89-7.55-2.44-10.15h-5.62v20.3H323.27
				z"/>
		</g>
		<g>
			<path class="st6" d="M276.9,68.22l-0.79-0.26c-2.71,8.74-2.71,18.02,0,26.76l0.79-0.26C274.3,85.88,274.3,76.8,276.9,68.22z"/>
		</g>
		<g>
			<path class="st0" d="M276.87,94.1l9.87-3.21V71.8l-9.87-3.21C274.33,76.92,274.33,85.76,276.87,94.1z"/>
			<path d="M286.88,71.71v19.27l-10.11,3.29l-0.04-0.13c-2.54-8.37-2.54-17.21,0-25.58l0.04-0.13L286.88,71.71z M286.6,90.8V71.88
				l-9.64-3.13c-2.48,8.24-2.48,16.94,0,25.18L286.6,90.8z"/>
		</g>
		<g>
			<g>
				<path class="st5" d="M323.34,71.1v-0.13c0-1.55-1.43-2.83-3.18-2.83h-0.24C321.4,68.79,322.6,69.83,323.34,71.1z"/>
			</g>
			<g>
				<path class="st5" d="M323.34,91.58v0.13c0,1.55-1.43,2.83-3.18,2.83h-0.24C321.4,93.89,322.6,92.85,323.34,91.58z"/>
			</g>
		</g>
		<g>
			<g>
				<path class="st0" d="M284.7,64.62c-0.43-0.09-0.94,0-1.14,0.2l-2.24,2.3c-0.04,0.04-0.06,0.08-0.07,0.12h2.09l1.62-2.57
					L284.7,64.62z"/>
				<path class="st5" d="M285.17,64.59l-1.75,2.78h-2.34l0.03-0.15c0.01-0.06,0.05-0.12,0.1-0.18l2.24-2.3
					c0.23-0.24,0.79-0.34,1.28-0.24L285.17,64.59z M283.26,67.12l1.49-2.36l-0.08-0.02c-0.41-0.09-0.86,0.01-1,0.16l-2.15,2.22
					H283.26z"/>
			</g>
			<g>
				<path class="st0" d="M284.7,98.06c-0.43,0.09-0.94,0-1.14-0.2l-2.24-2.3c-0.04-0.04-0.06-0.08-0.07-0.12h2.09l1.62,2.57
					L284.7,98.06z"/>
				<path class="st5" d="M285.17,98.09l-0.44,0.09c-0.49,0.1-1.05,0-1.28-0.24l-2.24-2.3c-0.05-0.05-0.09-0.11-0.1-0.18l-0.03-0.15
					h2.34L285.17,98.09z M281.51,95.56l2.15,2.22c0.14,0.15,0.59,0.25,1,0.16l0.08-0.02l-1.49-2.36H281.51z"/>
			</g>
		</g>
		<g>
			<g>
				<path class="st5" d="M269.46,74.54c-4.67,0-8.78,0.74-11.15,1.85c2.44-0.83,5.96-1.35,9.88-1.35c1.9,0,3.7,0.12,5.33,0.34v-0.65
					C272.25,74.61,270.88,74.54,269.46,74.54z"/>
			</g>
			<g>
				<path class="st5" d="M269.46,88.14c-4.67,0-8.78-0.74-11.15-1.85c2.44,0.83,5.96,1.35,9.88,1.35c1.9,0,3.7-0.12,5.33-0.34v0.65
					C272.25,88.07,270.88,88.14,269.46,88.14z"/>
			</g>
		</g>
		<g>
			
				<rect x="286.57" y="71.96" transform="matrix(6.123234e-17 -1 1 6.123234e-17 214.7739 377.4541)" class="st0" width="19.09" height="18.75"/>
			<path d="M305.63,71.67v19.34H286.6V71.67H305.63z M305.35,90.76V71.92h-18.47v18.84H305.35z"/>
		</g>
	</g>
	<g>
		<g>
			<g>
				<path class="st0" d="M326.21,127.76c0.57,4.31,0.57,8.63,0,12.94c-0.7,4.97-6.36,8.69-11.53,8.42
					c-16.92-0.76-33.85-0.76-50.77,0.02c-4.91,0.26-10.28-3.27-10.99-7.99c-0.65-4.62-0.65-9.23,0-13.85
					c0.71-4.72,6.08-8.25,10.99-7.99c16.92,0.78,33.85,0.79,50.77,0.02C319.85,119.07,325.51,122.79,326.21,127.76z"/>
				<path class="st5" d="M326.82,134.23c0,2.17-0.14,4.34-0.43,6.49c-0.69,4.85-6.17,8.85-11.73,8.57
					c-16.84-0.76-33.91-0.75-50.75,0.02c-5.26,0.28-10.49-3.52-11.18-8.13c-0.65-4.61-0.65-9.28,0-13.89
					c0.69-4.61,5.92-8.41,11.18-8.13c16.84,0.77,33.92,0.78,50.75,0.02c5.56-0.29,11.04,3.71,11.73,8.57v0
					C326.68,129.89,326.82,132.06,326.82,134.23z M252.61,134.23c0,2.31,0.16,4.61,0.49,6.9c0.67,4.44,5.71,8.11,10.79,7.84
					c16.86-0.77,33.95-0.78,50.79-0.02c5.38,0.28,10.67-3.59,11.34-8.27c0.57-4.28,0.57-8.62,0-12.9
					c-0.66-4.69-5.96-8.55-11.34-8.27c-16.85,0.76-33.94,0.75-50.79-0.02c-5.08-0.27-10.12,3.4-10.79,7.84
					C252.78,129.62,252.61,131.92,252.61,134.23z"/>
			</g>
		</g>
		<g>
			<path class="st6" d="M316.69,123.91v20.64c0.27-0.02,0.54-0.05,0.81-0.08v-20.48C317.23,123.96,316.96,123.93,316.69,123.91z"/>
		</g>
		<g>
			<path class="st5" d="M308.38,121.8l-0.69,0.18c-4.95,1.28-11.51,1.99-18.48,1.99c-0.76,0-1.54-0.01-2.31-0.03l-0.05-0.01
				l-8.28-3.13l0.65-0.01c1.92-0.04,3.82-0.06,5.66-0.06c7.82,0,15.49,0.34,22.79,1.01L308.38,121.8z M286.93,123.69
				c0.76,0.02,1.53,0.03,2.28,0.03c6.61,0,12.85-0.64,17.69-1.8c-7.07-0.63-14.47-0.95-22.02-0.95c-1.62,0-3.3,0.02-5,0.05
				L286.93,123.69z"/>
		</g>
		<g>
			<path class="st5" d="M308.38,146.66l-0.72,0.07c-7.3,0.67-14.97,1.01-22.79,1.01c-1.82,0-3.72-0.02-5.66-0.06l-0.65-0.01
				l8.33-3.14c0.77-0.02,1.55-0.03,2.31-0.03c6.97,0,13.53,0.7,18.48,1.99L308.38,146.66z M279.88,147.43
				c1.71,0.03,3.39,0.05,5,0.05c7.55,0,14.95-0.32,22.02-0.95c-4.83-1.16-11.08-1.8-17.69-1.8c-0.75,0-1.52,0.01-2.28,0.03
				L279.88,147.43z"/>
		</g>
		<g>
			<path class="st0" d="M276.98,121.02h-12.17c-7.15,0-13,5.2-13,11.55v3.32c0,6.35,5.85,11.55,13,11.55h12.17
				c-1.12-4.32-1.69-8.77-1.68-13.21C275.29,129.78,275.86,125.34,276.98,121.02z"/>
			<path d="M277.16,120.89l-0.04,0.15c-1.12,4.36-1.7,8.78-1.67,13.18c0,0.06,0,0.12,0,0.17c0,4.33,0.56,8.71,1.67,13.01l0.04,0.15
				h-12.35c-7.24,0-13.14-5.24-13.14-11.68v-3.32c0-6.44,5.89-11.68,13.14-11.68H277.16z M251.95,135.89
				c0,6.3,5.77,11.43,12.85,11.43h12c-1.09-4.27-1.64-8.61-1.64-12.91c0-0.12,0-0.23,0-0.35c0-4.3,0.55-8.64,1.64-12.91h-12
				c-7.09,0-12.85,5.13-12.85,11.43V135.89z"/>
		</g>
		<g>
			<path class="st0" d="M305.49,124.68c-1.08,6.36-1.08,12.73,0,19.09c3.74,0.88,7.47,1.15,11.21,0.81v-20.72
				C312.96,123.53,309.22,123.8,305.49,124.68z"/>
			<path d="M316.84,123.76v20.94l-0.13,0.01c-3.74,0.34-7.52,0.06-11.26-0.82l-0.09-0.02l-0.01-0.08c-1.08-6.35-1.08-12.78,0-19.13
				l0.01-0.08l0.09-0.02c3.73-0.88,7.52-1.15,11.26-0.82L316.84,123.76z M316.55,144.47v-20.49c-3.63-0.31-7.31-0.05-10.94,0.8
				c-1.05,6.27-1.05,12.62,0,18.89C309.24,144.52,312.92,144.79,316.55,144.47z"/>
		</g>
		<g>
			<path class="st6" d="M316.69,123.87v20.72c0.27-0.02,0.54-0.05,0.81-0.08v-20.55C317.24,123.92,316.97,123.89,316.69,123.87z"/>
		</g>
		<g>
			<path class="st0" d="M317.51,144.5h5.84c1.53-2.53,2.5-6.2,2.5-10.27c0-4.08-0.96-7.75-2.5-10.27h-5.84V144.5z"/>
			<path d="M325.99,134.23c0,3.93-0.92,7.7-2.51,10.33l-0.04,0.07h-6.07v-20.8h6.07l0.04,0.07
				C325.07,126.53,325.99,130.3,325.99,134.23z M323.27,144.38c1.55-2.6,2.44-6.29,2.44-10.15s-0.89-7.55-2.44-10.15h-5.62v20.3
				H323.27z"/>
		</g>
		<g>
			<path class="st6" d="M276.9,121.1l-0.79-0.26c-2.71,8.74-2.71,18.02,0,26.76l0.79-0.26C274.3,138.77,274.3,129.69,276.9,121.1z"
				/>
		</g>
		<g>
			<path class="st0" d="M276.87,146.98l9.87-3.21v-19.09l-9.87-3.21C274.33,129.81,274.33,138.65,276.87,146.98z"/>
			<path d="M286.88,124.6v19.27l-10.11,3.29l-0.04-0.13c-2.54-8.37-2.54-17.21,0-25.58l0.04-0.13L286.88,124.6z M286.6,143.69
				v-18.91l-9.64-3.13c-2.48,8.24-2.48,16.94,0,25.18L286.6,143.69z"/>
		</g>
		<g>
			<g>
				<path class="st5" d="M323.34,123.99v-0.13c0-1.55-1.43-2.83-3.18-2.83h-0.24C321.4,121.68,322.6,122.72,323.34,123.99z"/>
			</g>
			<g>
				<path class="st5" d="M323.34,144.47v0.13c0,1.55-1.43,2.83-3.18,2.83h-0.24C321.4,146.78,322.6,145.74,323.34,144.47z"/>
			</g>
		</g>
		<g>
			<g>
				<path class="st0" d="M284.7,117.51c-0.43-0.09-0.94,0-1.14,0.2l-2.24,2.3c-0.04,0.04-0.06,0.08-0.07,0.12h2.09l1.62-2.57
					L284.7,117.51z"/>
				<path class="st5" d="M285.17,117.48l-1.75,2.78h-2.34l0.03-0.15c0.01-0.06,0.05-0.12,0.1-0.18l2.24-2.3
					c0.23-0.24,0.79-0.34,1.28-0.24L285.17,117.48z M283.26,120.01l1.49-2.36l-0.08-0.02c-0.41-0.09-0.86,0.01-1,0.16l-2.15,2.22
					H283.26z"/>
			</g>
			<g>
				<path class="st0" d="M284.7,150.95c-0.43,0.09-0.94,0-1.14-0.2l-2.24-2.3c-0.04-0.04-0.06-0.08-0.07-0.12h2.09l1.62,2.57
					L284.7,150.95z"/>
				<path class="st5" d="M285.17,150.98l-0.44,0.09c-0.49,0.1-1.05,0-1.28-0.24l-2.24-2.3c-0.05-0.05-0.09-0.11-0.1-0.18l-0.03-0.15
					h2.34L285.17,150.98z M281.51,148.45l2.15,2.22c0.14,0.15,0.59,0.25,1,0.16l0.08-0.02l-1.49-2.36H281.51z"/>
			</g>
		</g>
		<g>
			<g>
				<path class="st5" d="M269.46,127.43c-4.67,0-8.78,0.74-11.15,1.85c2.44-0.83,5.96-1.35,9.88-1.35c1.9,0,3.7,0.12,5.33,0.34
					v-0.65C272.25,127.5,270.88,127.43,269.46,127.43z"/>
			</g>
			<g>
				<path class="st5" d="M269.46,141.03c-4.67,0-8.78-0.74-11.15-1.85c2.44,0.83,5.96,1.35,9.88,1.35c1.9,0,3.7-0.12,5.33-0.34v0.65
					C272.25,140.96,270.88,141.03,269.46,141.03z"/>
			</g>
		</g>
		<g>
			
				<rect x="286.57" y="124.85" transform="matrix(6.123234e-17 -1 1 6.123234e-17 161.885 430.343)" class="st0" width="19.09" height="18.75"/>
			<path d="M305.63,124.56v19.34H286.6v-19.34H305.63z M305.35,143.65v-18.84h-18.47v18.84H305.35z"/>
		</g>
	</g>
	<g>
		<g>
			<g>
				<path class="st0" d="M326.21,180.65c0.57,4.31,0.57,8.63,0,12.94c-0.7,4.97-6.36,8.69-11.53,8.42
					c-16.92-0.76-33.85-0.76-50.77,0.02c-4.91,0.26-10.28-3.27-10.99-7.99c-0.65-4.62-0.65-9.23,0-13.85
					c0.71-4.72,6.08-8.25,10.99-7.99c16.92,0.78,33.85,0.79,50.77,0.02C319.85,171.96,325.51,175.68,326.21,180.65z"/>
				<path class="st5" d="M326.82,187.12c0,2.17-0.14,4.34-0.43,6.49c-0.69,4.85-6.17,8.85-11.73,8.57
					c-16.84-0.76-33.91-0.75-50.75,0.02c-5.26,0.28-10.49-3.52-11.18-8.13c-0.65-4.61-0.65-9.28,0-13.89
					c0.69-4.61,5.92-8.41,11.18-8.13c16.84,0.77,33.92,0.78,50.75,0.02c5.56-0.29,11.04,3.71,11.73,8.57v0
					C326.68,182.78,326.82,184.95,326.82,187.12z M252.61,187.12c0,2.31,0.16,4.61,0.49,6.9c0.67,4.44,5.71,8.11,10.79,7.84
					c16.86-0.77,33.95-0.78,50.79-0.02c5.38,0.28,10.67-3.59,11.34-8.27c0.57-4.28,0.57-8.62,0-12.9
					c-0.66-4.69-5.96-8.55-11.34-8.27c-16.85,0.76-33.94,0.75-50.79-0.02c-5.08-0.27-10.12,3.4-10.79,7.84
					C252.78,182.51,252.61,184.81,252.61,187.12z"/>
			</g>
		</g>
		<g>
			<path class="st6" d="M316.69,176.8v20.64c0.27-0.02,0.54-0.05,0.81-0.08v-20.48C317.23,176.85,316.96,176.82,316.69,176.8z"/>
		</g>
		<g>
			<path class="st5" d="M308.38,174.69l-0.69,0.18c-4.95,1.28-11.51,1.99-18.48,1.99c-0.76,0-1.54-0.01-2.31-0.03l-0.05-0.01
				l-8.28-3.13l0.65-0.01c1.92-0.04,3.82-0.06,5.66-0.06c7.82,0,15.49,0.34,22.79,1.01L308.38,174.69z M286.93,176.58
				c0.76,0.02,1.53,0.03,2.28,0.03c6.61,0,12.85-0.64,17.69-1.8c-7.07-0.63-14.47-0.95-22.02-0.95c-1.62,0-3.3,0.02-5,0.05
				L286.93,176.58z"/>
		</g>
		<g>
			<path class="st5" d="M308.38,199.54l-0.72,0.07c-7.3,0.67-14.97,1.01-22.79,1.01c-1.82,0-3.72-0.02-5.66-0.06l-0.65-0.01
				l8.33-3.14c0.77-0.02,1.55-0.03,2.31-0.03c6.97,0,13.53,0.7,18.48,1.99L308.38,199.54z M279.88,200.32
				c1.71,0.03,3.39,0.05,5,0.05c7.55,0,14.95-0.32,22.02-0.95c-4.83-1.16-11.08-1.8-17.69-1.8c-0.75,0-1.52,0.01-2.28,0.03
				L279.88,200.32z"/>
		</g>
		<g>
			<path class="st0" d="M276.98,173.91h-12.17c-7.15,0-13,5.2-13,11.55v3.32c0,6.35,5.85,11.55,13,11.55h12.17
				c-1.12-4.32-1.69-8.77-1.68-13.21C275.29,182.67,275.86,178.23,276.98,173.91z"/>
			<path d="M277.16,173.78l-0.04,0.15c-1.12,4.36-1.7,8.78-1.67,13.18c0,0.06,0,0.12,0,0.17c0,4.33,0.56,8.71,1.67,13.01l0.04,0.15
				h-12.35c-7.24,0-13.14-5.24-13.14-11.68v-3.32c0-6.44,5.89-11.68,13.14-11.68H277.16z M251.95,188.78
				c0,6.3,5.77,11.43,12.85,11.43h12c-1.09-4.27-1.64-8.61-1.64-12.91c0-0.12,0-0.23,0-0.35c0-4.3,0.55-8.64,1.64-12.91h-12
				c-7.09,0-12.85,5.13-12.85,11.43V188.78z"/>
		</g>
		<g>
			<path class="st0" d="M305.49,177.57c-1.08,6.36-1.08,12.73,0,19.09c3.74,0.88,7.47,1.15,11.21,0.81v-20.72
				C312.96,176.42,309.22,176.69,305.49,177.57z"/>
			<path d="M316.84,176.65v20.94l-0.13,0.01c-3.74,0.34-7.52,0.06-11.26-0.82l-0.09-0.02l-0.01-0.08c-1.08-6.35-1.08-12.78,0-19.13
				l0.01-0.08l0.09-0.02c3.73-0.88,7.52-1.15,11.26-0.82L316.84,176.65z M316.55,197.36v-20.49c-3.63-0.31-7.31-0.05-10.94,0.8
				c-1.05,6.27-1.05,12.62,0,18.89C309.24,197.41,312.92,197.68,316.55,197.36z"/>
		</g>
		<g>
			<path class="st6" d="M316.69,176.76v20.72c0.27-0.02,0.54-0.05,0.81-0.08v-20.55C317.24,176.81,316.97,176.78,316.69,176.76z"/>
		</g>
		<g>
			<path class="st0" d="M317.51,197.39h5.84c1.53-2.53,2.5-6.2,2.5-10.27c0-4.08-0.96-7.75-2.5-10.27h-5.84V197.39z"/>
			<path d="M325.99,187.12c0,3.93-0.92,7.7-2.51,10.33l-0.04,0.07h-6.07v-20.8h6.07l0.04,0.07
				C325.07,179.42,325.99,183.19,325.99,187.12z M323.27,197.27c1.55-2.6,2.44-6.29,2.44-10.15c0-3.86-0.89-7.55-2.44-10.15h-5.62
				v20.3H323.27z"/>
		</g>
		<g>
			<path class="st6" d="M276.9,173.99l-0.79-0.26c-2.71,8.74-2.71,18.02,0,26.76l0.79-0.26C274.3,191.66,274.3,182.57,276.9,173.99z
				"/>
		</g>
		<g>
			<path class="st0" d="M276.87,199.87l9.87-3.21v-19.09l-9.87-3.21C274.33,182.7,274.33,191.53,276.87,199.87z"/>
			<path d="M286.88,177.49v19.27l-10.11,3.29l-0.04-0.13c-2.54-8.37-2.54-17.21,0-25.58l0.04-0.13L286.88,177.49z M286.6,196.58
				v-18.91l-9.64-3.13c-2.48,8.24-2.48,16.94,0,25.18L286.6,196.58z"/>
		</g>
		<g>
			<g>
				<path class="st5" d="M323.34,176.88v-0.13c0-1.55-1.43-2.83-3.18-2.83h-0.24C321.4,174.57,322.6,175.61,323.34,176.88z"/>
			</g>
			<g>
				<path class="st5" d="M323.34,197.35v0.13c0,1.55-1.43,2.83-3.18,2.83h-0.24C321.4,199.66,322.6,198.63,323.34,197.35z"/>
			</g>
		</g>
		<g>
			<g>
				<path class="st0" d="M284.7,170.39c-0.43-0.09-0.94,0-1.14,0.2l-2.24,2.3c-0.04,0.04-0.06,0.08-0.07,0.12h2.09l1.62-2.57
					L284.7,170.39z"/>
				<path class="st5" d="M285.17,170.37l-1.75,2.78h-2.34l0.03-0.15c0.01-0.06,0.05-0.12,0.1-0.18l2.24-2.3
					c0.23-0.24,0.79-0.34,1.28-0.24L285.17,170.37z M283.26,172.89l1.49-2.36l-0.08-0.02c-0.41-0.09-0.86,0.01-1,0.16l-2.15,2.22
					H283.26z"/>
			</g>
			<g>
				<path class="st0" d="M284.7,203.84c-0.43,0.09-0.94,0-1.14-0.2l-2.24-2.3c-0.04-0.04-0.06-0.08-0.07-0.12h2.09l1.62,2.57
					L284.7,203.84z"/>
				<path class="st5" d="M285.17,203.87l-0.44,0.09c-0.49,0.1-1.05,0-1.28-0.24l-2.24-2.3c-0.05-0.05-0.09-0.11-0.1-0.18l-0.03-0.15
					h2.34L285.17,203.87z M281.51,201.34l2.15,2.22c0.14,0.15,0.59,0.25,1,0.16l0.08-0.02l-1.49-2.36H281.51z"/>
			</g>
		</g>
		<g>
			<g>
				<path class="st5" d="M269.46,180.32c-4.67,0-8.78,0.74-11.15,1.85c2.44-0.83,5.96-1.35,9.88-1.35c1.9,0,3.7,0.12,5.33,0.34
					v-0.65C272.25,180.39,270.88,180.32,269.46,180.32z"/>
			</g>
			<g>
				<path class="st5" d="M269.46,193.92c-4.67,0-8.78-0.74-11.15-1.85c2.44,0.83,5.96,1.35,9.88,1.35c1.9,0,3.7-0.12,5.33-0.34v0.65
					C272.25,193.85,270.88,193.92,269.46,193.92z"/>
			</g>
		</g>
		<g>
			
				<rect x="286.57" y="177.74" transform="matrix(6.123234e-17 -1 1 6.123234e-17 108.9961 483.2319)" class="st0" width="19.09" height="18.75"/>
			<path d="M305.63,177.45v19.34H286.6v-19.34H305.63z M305.35,196.54V177.7h-18.47v18.84H305.35z"/>
		</g>
	</g>
	<g>
		<g>
			<g>
				<path class="st0" d="M418.65,180.65c0.57,4.31,0.57,8.63,0,12.94c-0.7,4.97-6.36,8.69-11.53,8.42
					c-16.92-0.76-33.85-0.76-50.77,0.02c-4.91,0.26-10.28-3.27-10.99-7.99c-0.65-4.62-0.65-9.23,0-13.85
					c0.71-4.72,6.08-8.25,10.99-7.99c16.92,0.78,33.85,0.79,50.77,0.02C412.29,171.96,417.95,175.68,418.65,180.65z"/>
				<path class="st5" d="M419.27,187.12c0,2.17-0.14,4.34-0.43,6.49c-0.69,4.85-6.17,8.85-11.73,8.57
					c-16.84-0.76-33.91-0.75-50.75,0.02c-5.26,0.28-10.49-3.52-11.18-8.13c-0.65-4.61-0.65-9.28,0-13.89
					c0.69-4.61,5.92-8.41,11.18-8.13c16.84,0.77,33.92,0.78,50.75,0.02c5.56-0.29,11.04,3.71,11.73,8.57v0
					C419.13,182.78,419.27,184.95,419.27,187.12z M345.06,187.12c0,2.31,0.16,4.61,0.49,6.9c0.67,4.44,5.71,8.11,10.79,7.84
					c16.86-0.77,33.95-0.78,50.79-0.02c5.38,0.28,10.67-3.59,11.34-8.27c0.57-4.28,0.57-8.62,0-12.9
					c-0.66-4.69-5.96-8.55-11.34-8.27c-16.85,0.76-33.94,0.75-50.79-0.02c-5.08-0.27-10.12,3.4-10.79,7.84
					C345.22,182.51,345.06,184.81,345.06,187.12z"/>
			</g>
		</g>
		<g>
			<path class="st6" d="M409.13,176.8v20.64c0.27-0.02,0.54-0.05,0.81-0.08v-20.48C409.67,176.85,409.4,176.82,409.13,176.8z"/>
		</g>
		<g>
			<path class="st5" d="M400.83,174.69l-0.69,0.18c-4.95,1.28-11.51,1.99-18.48,1.99c-0.76,0-1.54-0.01-2.31-0.03l-0.05-0.01
				l-8.28-3.13l0.65-0.01c1.92-0.04,3.82-0.06,5.66-0.06c7.82,0,15.49,0.34,22.79,1.01L400.83,174.69z M379.38,176.58
				c0.76,0.02,1.53,0.03,2.28,0.03c6.61,0,12.85-0.64,17.69-1.8c-7.07-0.63-14.47-0.95-22.02-0.95c-1.62,0-3.3,0.02-5,0.05
				L379.38,176.58z"/>
		</g>
		<g>
			<path class="st5" d="M400.83,199.54l-0.72,0.07c-7.3,0.67-14.97,1.01-22.79,1.01c-1.82,0-3.72-0.02-5.66-0.06l-0.65-0.01
				l8.33-3.14c0.77-0.02,1.55-0.03,2.31-0.03c6.97,0,13.53,0.7,18.48,1.99L400.83,199.54z M372.32,200.32
				c1.71,0.03,3.39,0.05,5,0.05c7.55,0,14.95-0.32,22.02-0.95c-4.83-1.16-11.08-1.8-17.69-1.8c-0.75,0-1.52,0.01-2.28,0.03
				L372.32,200.32z"/>
		</g>
		<g>
			<path class="st0" d="M369.42,173.91h-12.17c-7.15,0-13,5.2-13,11.55v3.32c0,6.35,5.85,11.55,13,11.55h12.17
				c-1.12-4.32-1.69-8.77-1.68-13.21C367.73,182.67,368.31,178.23,369.42,173.91z"/>
			<path d="M369.6,173.78l-0.04,0.15c-1.12,4.36-1.7,8.78-1.67,13.18c0,0.06,0,0.12,0,0.17c0,4.33,0.56,8.71,1.67,13.01l0.04,0.15
				h-12.35c-7.24,0-13.14-5.24-13.14-11.68v-3.32c0-6.44,5.89-11.68,13.14-11.68H369.6z M344.4,188.78c0,6.3,5.77,11.43,12.85,11.43
				h12c-1.09-4.27-1.64-8.61-1.64-12.91c0-0.12,0-0.23,0-0.35c0-4.3,0.55-8.64,1.64-12.91h-12c-7.09,0-12.85,5.13-12.85,11.43
				V188.78z"/>
		</g>
		<g>
			<path class="st0" d="M397.93,177.57c-1.08,6.36-1.08,12.73,0,19.09c3.74,0.88,7.47,1.15,11.21,0.81v-20.72
				C405.4,176.42,401.67,176.69,397.93,177.57z"/>
			<path d="M409.28,176.65v20.94l-0.13,0.01c-3.74,0.34-7.52,0.06-11.26-0.82l-0.09-0.02l-0.01-0.08c-1.08-6.35-1.08-12.78,0-19.13
				l0.01-0.08l0.09-0.02c3.73-0.88,7.52-1.15,11.26-0.82L409.28,176.65z M409,197.36v-20.49c-3.63-0.31-7.31-0.05-10.94,0.8
				c-1.05,6.27-1.05,12.62,0,18.89C401.69,197.41,405.37,197.68,409,197.36z"/>
		</g>
		<g>
			<path class="st6" d="M409.14,176.76v20.72c0.27-0.02,0.54-0.05,0.81-0.08v-20.55C409.68,176.81,409.41,176.78,409.14,176.76z"/>
		</g>
		<g>
			<path class="st0" d="M409.95,197.39h5.84c1.53-2.53,2.5-6.2,2.5-10.27c0-4.08-0.96-7.75-2.5-10.27h-5.84V197.39z"/>
			<path d="M418.43,187.12c0,3.93-0.92,7.7-2.51,10.33l-0.04,0.07h-6.07v-20.8h6.07l0.04,0.07
				C417.52,179.42,418.43,183.19,418.43,187.12z M415.71,197.27c1.55-2.6,2.44-6.29,2.44-10.15c0-3.86-0.89-7.55-2.44-10.15h-5.62
				v20.3H415.71z"/>
		</g>
		<g>
			<path class="st6" d="M369.35,173.99l-0.79-0.26c-2.71,8.74-2.71,18.02,0,26.76l0.79-0.26
				C366.74,191.66,366.74,182.57,369.35,173.99z"/>
		</g>
		<g>
			<path class="st0" d="M369.31,199.87l9.87-3.21v-19.09l-9.87-3.21C366.77,182.7,366.77,191.53,369.31,199.87z"/>
			<path d="M379.32,177.49v19.27l-10.11,3.29l-0.04-0.13c-2.54-8.37-2.54-17.21,0-25.58l0.04-0.13L379.32,177.49z M379.04,196.58
				v-18.91l-9.64-3.13c-2.48,8.24-2.48,16.94,0,25.18L379.04,196.58z"/>
		</g>
		<g>
			<g>
				<path class="st5" d="M415.79,176.88v-0.13c0-1.55-1.43-2.83-3.18-2.83h-0.24C413.85,174.57,415.05,175.61,415.79,176.88z"/>
			</g>
			<g>
				<path class="st5" d="M415.79,197.35v0.13c0,1.55-1.43,2.83-3.18,2.83h-0.24C413.85,199.66,415.05,198.63,415.79,197.35z"/>
			</g>
		</g>
		<g>
			<g>
				<path class="st0" d="M377.14,170.39c-0.43-0.09-0.94,0-1.14,0.2l-2.24,2.3c-0.04,0.04-0.06,0.08-0.07,0.12h2.09l1.62-2.57
					L377.14,170.39z"/>
				<path class="st5" d="M377.62,170.37l-1.75,2.78h-2.34l0.03-0.15c0.01-0.06,0.05-0.12,0.1-0.18l2.24-2.3
					c0.23-0.24,0.79-0.34,1.28-0.24L377.62,170.37z M375.7,172.89l1.49-2.36l-0.08-0.02c-0.41-0.09-0.86,0.01-1,0.16l-2.15,2.22
					H375.7z"/>
			</g>
			<g>
				<path class="st0" d="M377.14,203.84c-0.43,0.09-0.94,0-1.14-0.2l-2.24-2.3c-0.04-0.04-0.06-0.08-0.07-0.12h2.09l1.62,2.57
					L377.14,203.84z"/>
				<path class="st5" d="M377.62,203.87l-0.44,0.09c-0.49,0.1-1.05,0-1.28-0.24l-2.24-2.3c-0.05-0.05-0.09-0.11-0.1-0.18l-0.03-0.15
					h2.34L377.62,203.87z M373.96,201.34l2.15,2.22c0.14,0.15,0.59,0.25,1,0.16l0.08-0.02l-1.49-2.36H373.96z"/>
			</g>
		</g>
		<g>
			<g>
				<path class="st5" d="M361.91,180.32c-4.67,0-8.78,0.74-11.15,1.85c2.44-0.83,5.96-1.35,9.88-1.35c1.9,0,3.7,0.12,5.33,0.34
					v-0.65C364.69,180.39,363.33,180.32,361.91,180.32z"/>
			</g>
			<g>
				<path class="st5" d="M361.91,193.92c-4.67,0-8.78-0.74-11.15-1.85c2.44,0.83,5.96,1.35,9.88,1.35c1.9,0,3.7-0.12,5.33-0.34v0.65
					C364.69,193.85,363.33,193.92,361.91,193.92z"/>
			</g>
		</g>
		<g>
			
				<rect x="379.01" y="177.74" transform="matrix(6.123234e-17 -1 1 6.123234e-17 201.4405 575.6763)" class="st0" width="19.09" height="18.75"/>
			<path d="M398.08,177.45v19.34h-19.03v-19.34H398.08z M397.79,196.54V177.7h-18.47v18.84H397.79z"/>
		</g>
	</g>
	<g>
		<g>
			<g>
				<path class="st0" d="M326.21,353.39c0.57,4.31,0.57,8.63,0,12.94c-0.7,4.97-6.36,8.69-11.53,8.42
					c-16.92-0.76-33.85-0.76-50.77,0.02c-4.91,0.26-10.28-3.27-10.99-7.99c-0.65-4.62-0.65-9.23,0-13.85
					c0.71-4.72,6.08-8.25,10.99-7.99c16.92,0.78,33.85,0.79,50.77,0.02C319.85,344.7,325.51,348.42,326.21,353.39z"/>
				<path class="st5" d="M326.82,359.86c0,2.17-0.14,4.34-0.43,6.49c-0.69,4.85-6.17,8.85-11.73,8.57
					c-16.84-0.76-33.91-0.75-50.75,0.02c-5.26,0.28-10.49-3.52-11.18-8.13c-0.65-4.61-0.65-9.28,0-13.89
					c0.69-4.61,5.92-8.41,11.18-8.13c16.84,0.77,33.92,0.78,50.75,0.02c5.56-0.29,11.04,3.71,11.73,8.57v0
					C326.68,355.52,326.82,357.69,326.82,359.86z M252.61,359.86c0,2.31,0.16,4.61,0.49,6.9c0.67,4.44,5.71,8.11,10.79,7.84
					c16.86-0.77,33.95-0.78,50.79-0.02c5.38,0.28,10.67-3.59,11.34-8.27c0.57-4.28,0.57-8.62,0-12.9
					c-0.66-4.69-5.96-8.55-11.34-8.27c-16.85,0.76-33.94,0.75-50.79-0.02c-5.08-0.27-10.12,3.4-10.79,7.84
					C252.78,355.25,252.61,357.55,252.61,359.86z"/>
			</g>
		</g>
		<g>
			<path class="st6" d="M316.69,349.54v20.64c0.27-0.02,0.54-0.05,0.81-0.08v-20.48C317.23,349.59,316.96,349.56,316.69,349.54z"/>
		</g>
		<g>
			<path class="st5" d="M308.38,347.43l-0.69,0.18c-4.95,1.28-11.51,1.98-18.48,1.98c-0.76,0-1.54-0.01-2.31-0.03l-0.05-0.01
				l-8.28-3.13l0.65-0.01c1.92-0.04,3.82-0.06,5.66-0.06c7.82,0,15.49,0.34,22.79,1.01L308.38,347.43z M286.93,349.32
				c0.76,0.02,1.53,0.03,2.28,0.03c6.61,0,12.85-0.64,17.69-1.8c-7.07-0.63-14.47-0.95-22.02-0.95c-1.62,0-3.3,0.02-5,0.05
				L286.93,349.32z"/>
		</g>
		<g>
			<path class="st5" d="M308.38,372.29l-0.72,0.07c-7.3,0.67-14.97,1.01-22.79,1.01c-1.82,0-3.72-0.02-5.66-0.06l-0.65-0.01
				l8.33-3.14c0.77-0.02,1.55-0.03,2.31-0.03c6.97,0,13.53,0.7,18.48,1.98L308.38,372.29z M279.88,373.06
				c1.71,0.03,3.39,0.05,5,0.05c7.55,0,14.95-0.32,22.02-0.95c-4.83-1.16-11.08-1.8-17.69-1.8c-0.75,0-1.52,0.01-2.28,0.03
				L279.88,373.06z"/>
		</g>
		<g>
			<path class="st0" d="M276.98,346.65h-12.17c-7.15,0-13,5.2-13,11.55v3.32c0,6.35,5.85,11.55,13,11.55h12.17
				c-1.12-4.32-1.69-8.77-1.68-13.21C275.29,355.41,275.86,350.97,276.98,346.65z"/>
			<path d="M277.16,346.52l-0.04,0.15c-1.12,4.36-1.7,8.78-1.67,13.18c0,0.06,0,0.12,0,0.17c0,4.33,0.56,8.71,1.67,13.01l0.04,0.15
				h-12.35c-7.24,0-13.14-5.24-13.14-11.68v-3.32c0-6.44,5.89-11.68,13.14-11.68H277.16z M251.95,361.52
				c0,6.3,5.77,11.43,12.85,11.43h12c-1.09-4.27-1.64-8.61-1.64-12.91c0-0.12,0-0.23,0-0.35c0-4.3,0.55-8.64,1.64-12.91h-12
				c-7.09,0-12.85,5.13-12.85,11.43V361.52z"/>
		</g>
		<g>
			<path class="st0" d="M305.49,350.31c-1.08,6.36-1.08,12.73,0,19.09c3.74,0.88,7.47,1.15,11.21,0.81V349.5
				C312.96,349.16,309.22,349.43,305.49,350.31z"/>
			<path d="M316.84,349.39v20.94l-0.13,0.01c-3.74,0.34-7.52,0.06-11.26-0.82l-0.09-0.02l-0.01-0.08c-1.08-6.35-1.08-12.78,0-19.13
				l0.01-0.08l0.09-0.02c3.73-0.88,7.52-1.15,11.26-0.82L316.84,349.39z M316.55,370.1v-20.49c-3.63-0.31-7.31-0.05-10.94,0.8
				c-1.05,6.27-1.05,12.62,0,18.89C309.24,370.15,312.92,370.42,316.55,370.1z"/>
		</g>
		<g>
			<path class="st6" d="M316.69,349.5v20.72c0.27-0.02,0.54-0.05,0.81-0.08v-20.55C317.24,349.55,316.97,349.52,316.69,349.5z"/>
		</g>
		<g>
			<path class="st0" d="M317.51,370.13h5.84c1.53-2.53,2.5-6.2,2.5-10.27c0-4.08-0.96-7.75-2.5-10.27h-5.84V370.13z"/>
			<path d="M325.99,359.86c0,3.93-0.92,7.7-2.51,10.33l-0.04,0.07h-6.07v-20.8h6.07l0.04,0.07
				C325.07,352.16,325.99,355.93,325.99,359.86z M323.27,370.01c1.55-2.6,2.44-6.29,2.44-10.15s-0.89-7.55-2.44-10.15h-5.62v20.3
				H323.27z"/>
		</g>
		<g>
			<path class="st6" d="M276.9,346.73l-0.79-0.26c-2.71,8.74-2.71,18.02,0,26.76l0.79-0.26C274.3,364.4,274.3,355.32,276.9,346.73z"
				/>
		</g>
		<g>
			<path class="st0" d="M276.87,372.61l9.87-3.21v-19.09l-9.87-3.21C274.33,355.44,274.33,364.28,276.87,372.61z"/>
			<path d="M286.88,350.23v19.27l-10.11,3.29l-0.04-0.13c-2.54-8.37-2.54-17.21,0-25.58l0.04-0.13L286.88,350.23z M286.6,369.32
				V350.4l-9.64-3.13c-2.48,8.24-2.48,16.94,0,25.18L286.6,369.32z"/>
		</g>
		<g>
			<g>
				<path class="st5" d="M323.34,349.62v-0.13c0-1.55-1.43-2.83-3.18-2.83h-0.24C321.4,347.31,322.6,348.35,323.34,349.62z"/>
			</g>
			<g>
				<path class="st5" d="M323.34,370.1v0.13c0,1.55-1.43,2.83-3.18,2.83h-0.24C321.4,372.41,322.6,371.37,323.34,370.1z"/>
			</g>
		</g>
		<g>
			<g>
				<path class="st0" d="M284.7,343.14c-0.43-0.09-0.94,0-1.14,0.2l-2.24,2.3c-0.04,0.04-0.06,0.08-0.07,0.12h2.09l1.62-2.57
					L284.7,343.14z"/>
				<path class="st5" d="M285.17,343.11l-1.75,2.78h-2.34l0.03-0.15c0.01-0.06,0.05-0.12,0.1-0.18l2.24-2.3
					c0.23-0.24,0.79-0.34,1.28-0.24L285.17,343.11z M283.26,345.64l1.49-2.36l-0.08-0.02c-0.41-0.09-0.86,0.01-1,0.16l-2.15,2.22
					H283.26z"/>
			</g>
			<g>
				<path class="st0" d="M284.7,376.58c-0.43,0.09-0.94,0-1.14-0.2l-2.24-2.3c-0.04-0.04-0.06-0.08-0.07-0.12h2.09l1.62,2.57
					L284.7,376.58z"/>
				<path class="st5" d="M285.17,376.61l-0.44,0.09c-0.49,0.1-1.05,0-1.28-0.24l-2.24-2.3c-0.05-0.05-0.09-0.11-0.1-0.18l-0.03-0.15
					h2.34L285.17,376.61z M281.51,374.08l2.15,2.22c0.14,0.15,0.59,0.25,1,0.16l0.08-0.02l-1.49-2.36H281.51z"/>
			</g>
		</g>
		<g>
			<g>
				<path class="st5" d="M269.46,353.06c-4.67,0-8.78,0.74-11.15,1.85c2.44-0.83,5.96-1.35,9.88-1.35c1.9,0,3.7,0.12,5.33,0.34
					v-0.65C272.25,353.13,270.88,353.06,269.46,353.06z"/>
			</g>
			<g>
				<path class="st5" d="M269.46,366.66c-4.67,0-8.78-0.74-11.15-1.85c2.44,0.83,5.96,1.35,9.88,1.35c1.9,0,3.7-0.12,5.33-0.34v0.65
					C272.25,366.59,270.88,366.66,269.46,366.66z"/>
			</g>
		</g>
		<g>
			
				<rect x="286.57" y="350.48" transform="matrix(6.123234e-17 -1 1 6.123234e-17 -63.745 655.973)" class="st0" width="19.09" height="18.75"/>
			<path d="M305.63,350.19v19.34H286.6v-19.34H305.63z M305.35,369.28v-18.84h-18.47v18.84H305.35z"/>
		</g>
	</g>
	<g>
		<g>
			<g>
				<path class="st0" d="M429.1,353.39c0.57,4.31,0.57,8.63,0,12.94c-0.7,4.97-6.36,8.69-11.53,8.42
					c-16.92-0.76-33.85-0.76-50.77,0.02c-4.91,0.26-10.28-3.27-10.99-7.99c-0.65-4.62-0.65-9.23,0-13.85
					c0.71-4.72,6.08-8.25,10.99-7.99c16.92,0.78,33.85,0.79,50.77,0.02C422.73,344.7,428.4,348.42,429.1,353.39z"/>
				<path class="st5" d="M429.71,359.86c0,2.17-0.14,4.34-0.43,6.49c-0.69,4.85-6.17,8.85-11.73,8.57
					c-16.84-0.76-33.91-0.75-50.75,0.02c-5.26,0.28-10.49-3.52-11.18-8.13c-0.65-4.61-0.65-9.28,0-13.89
					c0.69-4.61,5.92-8.41,11.18-8.13c16.84,0.77,33.92,0.78,50.75,0.02c5.56-0.29,11.04,3.71,11.73,8.57v0
					C429.57,355.52,429.71,357.69,429.71,359.86z M355.5,359.86c0,2.31,0.16,4.61,0.49,6.9c0.67,4.44,5.71,8.11,10.79,7.84
					c16.86-0.77,33.95-0.78,50.79-0.02c5.38,0.28,10.67-3.59,11.34-8.27c0.57-4.28,0.57-8.62,0-12.9
					c-0.66-4.69-5.96-8.55-11.34-8.27c-16.85,0.76-33.94,0.75-50.79-0.02c-5.08-0.27-10.12,3.4-10.79,7.84
					C355.67,355.25,355.5,357.55,355.5,359.86z"/>
			</g>
		</g>
		<g>
			<path class="st6" d="M419.57,349.54v20.64c0.27-0.02,0.54-0.05,0.81-0.08v-20.48C420.12,349.59,419.85,349.56,419.57,349.54z"/>
		</g>
		<g>
			<path class="st5" d="M411.27,347.43l-0.69,0.18c-4.95,1.28-11.51,1.98-18.48,1.98c-0.76,0-1.54-0.01-2.31-0.03l-0.05-0.01
				l-8.28-3.13l0.65-0.01c1.92-0.04,3.82-0.06,5.66-0.06c7.82,0,15.49,0.34,22.79,1.01L411.27,347.43z M389.82,349.32
				c0.76,0.02,1.53,0.03,2.28,0.03c6.61,0,12.85-0.64,17.69-1.8c-7.07-0.63-14.47-0.95-22.02-0.95c-1.62,0-3.3,0.02-5,0.05
				L389.82,349.32z"/>
		</g>
		<g>
			<path class="st5" d="M411.27,372.29l-0.72,0.07c-7.3,0.67-14.97,1.01-22.79,1.01c-1.82,0-3.72-0.02-5.66-0.06l-0.65-0.01
				l8.33-3.14c0.77-0.02,1.55-0.03,2.31-0.03c6.97,0,13.53,0.7,18.48,1.98L411.27,372.29z M382.77,373.06
				c1.71,0.03,3.39,0.05,5,0.05c7.55,0,14.95-0.32,22.02-0.95c-4.83-1.16-11.08-1.8-17.69-1.8c-0.75,0-1.52,0.01-2.28,0.03
				L382.77,373.06z"/>
		</g>
		<g>
			<path class="st0" d="M379.87,346.65h-12.17c-7.15,0-13,5.2-13,11.55v3.32c0,6.35,5.85,11.55,13,11.55h12.17
				c-1.12-4.32-1.69-8.77-1.68-13.21C378.18,355.41,378.75,350.97,379.87,346.65z"/>
			<path d="M380.05,346.52l-0.04,0.15c-1.12,4.36-1.7,8.78-1.67,13.18c0,0.06,0,0.12,0,0.17c0,4.33,0.56,8.71,1.67,13.01l0.04,0.15
				h-12.35c-7.24,0-13.14-5.24-13.14-11.68v-3.32c0-6.44,5.89-11.68,13.14-11.68H380.05z M354.84,361.52
				c0,6.3,5.77,11.43,12.85,11.43h12c-1.09-4.27-1.64-8.61-1.64-12.91c0-0.12,0-0.23,0-0.35c0-4.3,0.55-8.64,1.64-12.91h-12
				c-7.09,0-12.85,5.13-12.85,11.43V361.52z"/>
		</g>
		<g>
			<path class="st0" d="M408.38,350.31c-1.08,6.36-1.08,12.73,0,19.09c3.74,0.88,7.47,1.15,11.21,0.81V349.5
				C415.85,349.16,412.11,349.43,408.38,350.31z"/>
			<path d="M419.73,349.39v20.94l-0.13,0.01c-3.74,0.34-7.52,0.06-11.26-0.82l-0.09-0.02l-0.01-0.08c-1.08-6.35-1.08-12.78,0-19.13
				l0.01-0.08l0.09-0.02c3.73-0.88,7.52-1.15,11.26-0.82L419.73,349.39z M419.44,370.1v-20.49c-3.63-0.31-7.31-0.05-10.94,0.8
				c-1.05,6.27-1.05,12.62,0,18.89C412.13,370.15,415.81,370.42,419.44,370.1z"/>
		</g>
		<g>
			<path class="st6" d="M419.58,349.5v20.72c0.27-0.02,0.54-0.05,0.81-0.08v-20.55C420.13,349.55,419.86,349.52,419.58,349.5z"/>
		</g>
		<g>
			<path class="st0" d="M420.4,370.13h5.84c1.53-2.53,2.5-6.2,2.5-10.27c0-4.08-0.96-7.75-2.5-10.27h-5.84V370.13z"/>
			<path d="M428.88,359.86c0,3.93-0.92,7.7-2.51,10.33l-0.04,0.07h-6.07v-20.8h6.07l0.04,0.07
				C427.96,352.16,428.88,355.93,428.88,359.86z M426.16,370.01c1.55-2.6,2.44-6.29,2.44-10.15s-0.89-7.55-2.44-10.15h-5.62v20.3
				H426.16z"/>
		</g>
		<g>
			<path class="st6" d="M379.79,346.73l-0.79-0.26c-2.71,8.74-2.71,18.02,0,26.76l0.79-0.26
				C377.19,364.4,377.19,355.32,379.79,346.73z"/>
		</g>
		<g>
			<path class="st0" d="M379.75,372.61l9.87-3.21v-19.09l-9.87-3.21C377.22,355.44,377.22,364.28,379.75,372.61z"/>
			<path d="M389.77,350.23v19.27l-10.11,3.29l-0.04-0.13c-2.54-8.37-2.54-17.21,0-25.58l0.04-0.13L389.77,350.23z M389.49,369.32
				V350.4l-9.64-3.13c-2.48,8.24-2.48,16.94,0,25.18L389.49,369.32z"/>
		</g>
		<g>
			<g>
				<path class="st5" d="M426.23,349.62v-0.13c0-1.55-1.43-2.83-3.18-2.83h-0.24C424.29,347.31,425.49,348.35,426.23,349.62z"/>
			</g>
			<g>
				<path class="st5" d="M426.23,370.1v0.13c0,1.55-1.43,2.83-3.18,2.83h-0.24C424.29,372.41,425.49,371.37,426.23,370.1z"/>
			</g>
		</g>
		<g>
			<g>
				<path class="st0" d="M387.59,343.14c-0.43-0.09-0.94,0-1.14,0.2l-2.24,2.3c-0.04,0.04-0.06,0.08-0.07,0.12h2.09l1.62-2.57
					L387.59,343.14z"/>
				<path class="st5" d="M388.06,343.11l-1.75,2.78h-2.34l0.03-0.15c0.01-0.06,0.05-0.12,0.1-0.18l2.24-2.3
					c0.23-0.24,0.79-0.34,1.28-0.24L388.06,343.11z M386.15,345.64l1.49-2.36l-0.08-0.02c-0.41-0.09-0.86,0.01-1,0.16l-2.15,2.22
					H386.15z"/>
			</g>
			<g>
				<path class="st0" d="M387.59,376.58c-0.43,0.09-0.94,0-1.14-0.2l-2.24-2.3c-0.04-0.04-0.06-0.08-0.07-0.12h2.09l1.62,2.57
					L387.59,376.58z"/>
				<path class="st5" d="M388.06,376.61l-0.44,0.09c-0.49,0.1-1.05,0-1.28-0.24l-2.24-2.3c-0.05-0.05-0.09-0.11-0.1-0.18l-0.03-0.15
					h2.34L388.06,376.61z M384.4,374.08l2.15,2.22c0.14,0.15,0.59,0.25,1,0.16l0.08-0.02l-1.49-2.36H384.4z"/>
			</g>
		</g>
		<g>
			<g>
				<path class="st5" d="M372.35,353.06c-4.67,0-8.78,0.74-11.15,1.85c2.44-0.83,5.96-1.35,9.88-1.35c1.9,0,3.7,0.12,5.33,0.34
					v-0.65C375.14,353.13,373.77,353.06,372.35,353.06z"/>
			</g>
			<g>
				<path class="st5" d="M372.35,366.66c-4.67,0-8.78-0.74-11.15-1.85c2.44,0.83,5.96,1.35,9.88,1.35c1.9,0,3.7-0.12,5.33-0.34v0.65
					C375.14,366.59,373.77,366.66,372.35,366.66z"/>
			</g>
		</g>
		<g>
			
				<rect x="389.46" y="350.48" transform="matrix(6.123234e-17 -1 1 6.123234e-17 39.1446 758.8625)" class="st0" width="19.09" height="18.75"/>
			<path d="M408.52,350.19v19.34h-19.03v-19.34H408.52z M408.24,369.28v-18.84h-18.47v18.84H408.24z"/>
		</g>
	</g>
	<g>
		<path d="M439.91,87.68c-2.01,0.89-5.95,2.1-8.67,2.68l-0.98-3.35c4.11-0.85,8.72-2.55,10.82-3.98h3v36.88h-4.16V87.68z"/>
		<path d="M468.17,102.35c-0.45,1.61-0.98,3.13-1.47,4.38h25.13c-0.36,5.45-1.25,10.33-2.37,12.79c-1.12,2.5-2.55,3.22-6.57,3.22
			c-2.37,0-5.54-0.13-7.73-0.31l-0.8-3.4c3.08,0.27,6.08,0.45,8.23,0.45c2.24,0,2.91-0.36,3.53-1.79c0.54-1.39,1.25-4.52,1.7-7.91
			h-22.31c-0.58,1.25-1.21,2.55-1.88,3.8l-3.62-1.03c1.61-2.86,3.08-6.26,4.43-10.19h-9.97v-3.04h42.47v3.04H468.17z M490.26,95.24
			h-29.19v-12.7h29.19V95.24z M464.69,92.38h21.95v-6.89h-21.95V92.38z"/>
		<path d="M508.46,100.87c-1.43,4.56-3.26,8.67-5.41,12.12l-1.65-3.58c2.91-4.34,5.19-9.75,6.75-16.14h-6.13v-3.13h6.44v-9.57h3.31
			v9.57h4.65v3.13h-4.65v4.16c2.01,1.65,3.89,3.44,5.5,5.23l-1.88,3c-0.8-1.21-2.28-3.08-3.62-4.6v22h-3.31V100.87z M533.41,107.09
			c2.86,4.11,6.62,7.42,11.4,10.1l-2.1,3.13c-4.69-2.95-8.85-7.06-11.54-11.45v14.17H528v-13.9c-2.82,4.78-6.62,8.72-11.49,11.8
			l-2.24-2.73c4.87-2.73,8.76-6.39,11.71-11.13h-8.27V91.17H528v-3.31h-12.61v-2.91H528v-4.38h3.17v4.38h12.88v2.91h-12.88v3.31
			h10.6v15.92H533.41z M520.89,93.9v3.8H528v-3.8H520.89z M520.89,100.43v3.89H528v-3.89H520.89z M531.18,97.7h7.47v-3.8h-7.47V97.7
			z M531.18,104.32h7.47v-3.89h-7.47V104.32z"/>
	</g>
	<g>
		<path d="M307.29,280.65c6.39,0,9.92-2.32,9.92-6.53c0-3.71-3-6.04-7.82-6.04c-3.62,0-6.04,1.07-8.76,3.89l-2.64-2.5
			c2.77-3.08,7.06-4.92,11.49-4.92c7.2,0,12.21,3.8,12.21,9.25c0,4.52-3.31,7.6-8.81,8.27v0.18c6.48,0.45,10.24,3.93,10.24,9.43
			c0,6.39-5.28,10.46-13.68,10.46c-5.45,0-9.57-1.61-12.74-5.05l2.64-2.64c2.68,2.68,6.04,4.02,10.06,4.02
			c5.72,0,9.17-2.68,9.17-7.11c0-5.01-3.58-7.33-11.36-7.33h-2.91v-3.4H307.29z"/>
		<path d="M344.9,283.87c-0.45,1.61-0.98,3.13-1.47,4.38h25.13c-0.36,5.45-1.25,10.33-2.37,12.79c-1.12,2.5-2.55,3.22-6.57,3.22
			c-2.37,0-5.54-0.13-7.73-0.31l-0.8-3.4c3.08,0.27,6.08,0.45,8.23,0.45c2.24,0,2.91-0.36,3.53-1.79c0.54-1.39,1.25-4.52,1.7-7.91
			h-22.31c-0.58,1.25-1.21,2.55-1.88,3.8l-3.62-1.03c1.61-2.86,3.08-6.26,4.43-10.19h-9.97v-3.04h42.47v3.04H344.9z M366.98,276.76
			h-29.19v-12.7h29.19V276.76z M341.41,273.9h21.95v-6.89h-21.95V273.9z"/>
		<path d="M385.19,282.39c-1.43,4.56-3.26,8.67-5.41,12.12l-1.65-3.58c2.91-4.34,5.19-9.75,6.75-16.14h-6.13v-3.13h6.44v-9.57h3.31
			v9.57h4.65v3.13h-4.65v4.16c2.01,1.65,3.89,3.44,5.5,5.23l-1.88,3c-0.8-1.21-2.28-3.08-3.62-4.6v22h-3.31V282.39z M410.14,288.61
			c2.86,4.11,6.62,7.42,11.4,10.1l-2.1,3.13c-4.69-2.95-8.85-7.06-11.54-11.45v14.17h-3.17v-13.9c-2.82,4.78-6.62,8.72-11.49,11.8
			l-2.24-2.73c4.87-2.73,8.76-6.39,11.71-11.13h-8.27v-15.92h10.28v-3.31h-12.61v-2.91h12.61v-4.38h3.17v4.38h12.88v2.91H407.9v3.31
			h10.6v15.92H410.14z M397.62,275.42v3.8h7.11v-3.8H397.62z M397.62,281.94v3.89h7.11v-3.89H397.62z M407.9,279.22h7.47v-3.8h-7.47
			V279.22z M407.9,285.83h7.47v-3.89h-7.47V285.83z"/>
	</g>
	<g>
		<path d="M536.38,264.65c1.16-4.78,5.1-9.57,11.13-13.59l1.16-0.76c6.26-4.07,7.91-6.04,7.91-9.3c0-3.67-3.04-6.13-7.65-6.13
			c-3.75,0-6.39,1.39-9.25,4.78l-2.82-2.37c3.4-4.2,7.02-5.99,12.25-5.99c6.97,0,12.07,4.11,12.07,9.79c0,4.52-1.74,6.62-9.75,11.71
			l-1.61,1.03c-5.32,3.49-8.67,7.33-9.08,10.55h20.97v3.8h-25.35V264.65z"/>
		<path d="M518,298.55c-0.45,1.61-0.98,3.13-1.47,4.38h25.13c-0.36,5.45-1.25,10.33-2.37,12.79c-1.12,2.5-2.55,3.22-6.57,3.22
			c-2.37,0-5.54-0.13-7.73-0.31l-0.8-3.4c3.08,0.27,6.08,0.45,8.23,0.45c2.24,0,2.91-0.36,3.53-1.79c0.54-1.39,1.25-4.52,1.7-7.91
			h-22.31c-0.58,1.25-1.21,2.55-1.88,3.8l-3.62-1.03c1.61-2.86,3.08-6.26,4.43-10.19h-9.97v-3.04h42.47v3.04H518z M540.08,291.44
			h-29.19v-12.7h29.19V291.44z M514.51,288.58h21.95v-6.89h-21.95V288.58z"/>
		<path d="M558.29,297.08c-1.43,4.56-3.26,8.67-5.41,12.12l-1.65-3.58c2.91-4.34,5.19-9.75,6.75-16.14h-6.13v-3.13h6.44v-9.57h3.31
			v9.57h4.65v3.13h-4.65v4.16c2.01,1.65,3.89,3.44,5.5,5.23l-1.88,3c-0.8-1.21-2.28-3.08-3.62-4.6v22h-3.31V297.08z M583.23,303.29
			c2.86,4.11,6.62,7.42,11.4,10.1l-2.1,3.13c-4.69-2.95-8.85-7.06-11.54-11.45v14.17h-3.17v-13.9c-2.82,4.78-6.62,8.72-11.49,11.8
			l-2.24-2.73c4.87-2.73,8.76-6.39,11.71-11.13h-8.27v-15.92h10.28v-3.31h-12.61v-2.91h12.61v-4.38H581v4.38h12.88v2.91H581v3.31
			h10.6v15.92H583.23z M570.72,290.1v3.8h7.11v-3.8H570.72z M570.72,296.63v3.89h7.11v-3.89H570.72z M581,293.9h7.47v-3.8H581V293.9
			z M581,300.52h7.47v-3.89H581V300.52z"/>
	</g>
	<g>
		
			<rect x="64.36" y="30.57" transform="matrix(6.123234e-17 -1 1 6.123234e-17 5.6678 162.3429)" class="st10" width="39.3" height="95.53"/>
		<g>
			<path class="st0" d="M53.47,84.18h15.55v2.09H53.47v1.41h-2.32V69.13h17.34v2.01H53.47V84.18z M54.16,81.84
				c2.12-1.08,3.67-2.24,5.41-4.02c-1.33-1.12-3.09-2.38-4.83-3.52l1.41-1.58c1.72,1.08,3.21,2.14,4.85,3.4
				c1.02-1.35,1.85-2.72,2.7-4.44l2.09,1.02c-0.93,1.85-1.97,3.5-3.01,4.85c1.16,0.95,2.7,2.32,4.25,3.79l-1.64,1.72
				c-1.35-1.35-2.86-2.74-4.08-3.79c-1.74,1.85-3.55,3.19-5.76,4.35L54.16,81.84z"/>
			<path class="st0" d="M82.64,70.95h-8.69v-1.87h19.7v1.87h-8.81v1.99h4.44v10.35H78.3V72.94h4.33V70.95z M90.85,84.64v-11.7h2.12
				v14.74h-2.12v-1.14H76.73v1.14h-2.09V72.94h2.09v11.7H90.85z M80.27,74.64v2.51h2.45v-2.51H80.27z M80.27,78.75v2.8h2.45v-2.8
				H80.27z M84.75,77.15h2.55v-2.51h-2.55V77.15z M84.75,81.55h2.55v-2.8h-2.55V81.55z"/>
			<path class="st0" d="M116.84,87.69h-2.26v-1.06h-13.44v1.06H98.9V68.94h17.94V87.69z M101.14,84.68h13.44V70.83h-13.44V84.68z
				 M112.65,83.79c-1.31-0.81-2.84-1.68-4.23-2.38c-1.51,1.27-3.34,2.28-5.37,3.01l-1.29-1.56c1.89-0.6,3.24-1.31,4.67-2.45
				l-0.54-0.25c-1.35-0.66-2.34-1.1-4.11-1.82l0.93-1.53c2.09,0.77,3.3,1.24,5.29,2.18c1.68-1.78,3.09-4.33,3.86-7.03l2.01,0.62
				c-0.85,2.63-2.38,5.5-3.94,7.34c0.1,0.06,0.1,0.06,0.19,0.1c1.04,0.52,2.18,1.14,3.75,2.07L112.65,83.79z M103.92,77.01
				c-0.48-1.62-1.04-2.99-1.66-4.06l1.91-0.77c0.66,1.16,1.22,2.49,1.72,4.04L103.92,77.01z M107.48,76.2
				c-0.5-1.58-1.06-2.92-1.68-4.09l1.82-0.73c0.75,1.33,1.39,2.8,1.72,4L107.48,76.2z"/>
		</g>
	</g>
	
		<rect x="356.06" y="57.32" transform="matrix(6.123234e-17 -1 1 6.123234e-17 303.1502 438.8779)" class="st4" width="29.9" height="21.1"/>
	<polygon points="376.51,67.86 367.14,61.42 367.14,74.3 	"/>
	<rect x="487.05" y="165.7" class="st4" width="49.02" height="26.36"/>
	<polygon points="520.71,186.87 527.15,177.49 514.27,177.49 	"/>
	<g>
		
			<rect x="230.76" y="238.47" transform="matrix(6.123234e-17 -1 1 6.123234e-17 5.3473 489.3582)" class="グラフィックスタイル_x0020_4" width="33.18" height="7.08"/>
		
			<rect x="223.69" y="238.47" transform="matrix(6.123234e-17 -1 1 6.123234e-17 -1.7285 482.2825)" class="グラフィックスタイル_x0020_4" width="33.18" height="7.08"/>
		
			<rect x="244.67" y="231.64" transform="matrix(6.123234e-17 -1 1 6.123234e-17 19.2528 503.2638)" class="st4" width="33.18" height="20.74"/>
		<polygon points="267.48,242.01 257.35,235.05 257.35,248.96 		"/>
	</g>
	<line class="グラフィックスタイル" x1="228.52" y1="37.93" x2="232.07" y2="420.4"/>
	<line class="グラフィックスタイル" x1="148.52" y1="47.4" x2="148.52" y2="413.93"/>
	<polyline class="st9" points="157.7,134.23 148.52,143.65 230.29,143.65 225.26,149.32 	"/>
</g>
</svg>
