<?xml version="1.0" encoding="utf-8"?>
<!-- Generator: Adobe Illustrator 23.0.3, SVG Export Plug-In . SVG Version: 6.00 Build 0)  -->
<svg version="1.1" xmlns="http://www.w3.org/2000/svg" xmlns:xlink="http://www.w3.org/1999/xlink" x="0px" y="0px"
	 viewBox="0 0 700 500" style="enable-background:new 0 0 700 500;" xml:space="preserve">
<style type="text/css">
	.グラフィックスタイル{fill:none;stroke:#000000;stroke-width:2;stroke-miterlimit:10;}
	.グラフィックスタイル_x0020_2{fill:#D8EACC;stroke:#000000;stroke-width:2;}
	.グラフィックスタイル_x0020_3{fill:#FFFFFF;stroke:#000000;stroke-width:2;stroke-miterlimit:10;}
	.グラフィックスタイル_x0020_4{fill:#FFFFFF;stroke:#000000;stroke-width:1.2664;stroke-miterlimit:10;}
	.st0{fill:#FFFFFF;}
	.st1{fill:#D8EACC;stroke:#000000;stroke-width:2;}
	.st2{fill:none;stroke:#000000;stroke-width:1.4318;stroke-linecap:round;stroke-linejoin:round;}
	.st3{fill:none;stroke:#000000;stroke-width:1.8264;stroke-linecap:round;stroke-linejoin:round;}
	.st4{fill:#FFFFFF;stroke:#000000;stroke-width:1.2664;stroke-miterlimit:10;}
	.st5{fill:#030201;}
	.st6{fill:#242323;}
	.st7{fill:none;stroke:#000000;stroke-width:2;stroke-linejoin:round;stroke-miterlimit:10;}
	.st8{fill:none;stroke:#000000;stroke-width:2;stroke-miterlimit:10;}
	.st9{fill:none;stroke:#000000;stroke-width:2;stroke-linejoin:bevel;stroke-miterlimit:10;}
	.st10{fill:#E83589;}
	.st11{fill:none;stroke:#000000;stroke-width:2;stroke-miterlimit:10;stroke-dasharray:5.901,5.901;}
	.st12{fill:none;stroke:#000000;stroke-width:1.5;stroke-linejoin:bevel;stroke-miterlimit:10;}
	.st13{fill:#D8EACC;stroke:#000000;stroke-width:1.5;}
	.st14{fill:none;stroke:#000000;stroke-width:1.5;stroke-miterlimit:10;}
	.st15{fill:none;stroke:#000000;stroke-linejoin:bevel;stroke-miterlimit:10;}
	.st16{fill:#FFFFFF;stroke:#000000;stroke-width:1.5;stroke-miterlimit:10;}
	.st17{fill:#FFFFFF;stroke:#DE0000;stroke-width:2;stroke-miterlimit:10;}
	.st18{fill:#DE0000;}
	.st19{fill:none;stroke:#000000;stroke-miterlimit:10;}
	.st20{fill:none;stroke:#000000;stroke-miterlimit:10;stroke-dasharray:3.0312,3.0312;}
	.st21{fill:url(#);stroke:#000000;stroke-width:1.1494;}
	.st22{fill:#FFFFFF;stroke:#000000;stroke-miterlimit:10;}
	.st23{fill:none;stroke:#000000;stroke-width:3;stroke-miterlimit:10;stroke-dasharray:5;}
	.st24{fill:none;stroke:#FFFFFF;stroke-width:0.75;stroke-linejoin:round;}
	.st25{fill:none;stroke:#000000;stroke-miterlimit:10;stroke-dasharray:5;}
	.st26{fill:none;stroke:#FFFFFF;stroke-width:3;stroke-linejoin:round;}
	.st27{fill:none;stroke:#000000;stroke-width:1.3;stroke-linejoin:bevel;stroke-miterlimit:10;}
	.st28{fill:none;stroke:#000000;stroke-width:1.5;stroke-miterlimit:10;stroke-dasharray:5;}
	.st29{fill:none;stroke:#47738A;stroke-linejoin:bevel;stroke-miterlimit:10;}
	.st30{fill:none;}
	.st31{fill:none;stroke:#FFFFFF;stroke-width:5;stroke-linejoin:round;}
	.st32{fill:#D8EACC;}
	.st33{fill:#D8EACC;stroke:#000000;stroke-width:0.25;}
	.st34{fill:none;stroke:#000000;stroke-width:2;}
	.st35{fill:none;stroke:#FFFFFF;stroke-linejoin:round;}
	.st36{fill:none;stroke:#000000;stroke-width:1.9773;stroke-linecap:round;stroke-linejoin:round;}
	.st37{fill:none;stroke:#000000;stroke-width:2.5222;stroke-linecap:round;stroke-linejoin:round;}
	.st38{fill:#FFFFFF;stroke:#000000;stroke-width:2;stroke-miterlimit:10;}
	.st39{fill:#FFFFFF;stroke:#000000;stroke-width:1.0238;stroke-miterlimit:10;}
	.st40{fill:#FFFFFF;stroke:#000000;stroke-width:1.089;stroke-miterlimit:10;}
	.st41{fill:#FFFFFF;stroke:#000000;stroke-width:1.2553;stroke-miterlimit:10;}
	.st42{fill:url(#);}
	.st43{fill:none;stroke:#000000;stroke-width:1.7765;stroke-linejoin:bevel;stroke-miterlimit:10;}
	.st44{fill:none;stroke:#000000;stroke-width:2.3687;stroke-miterlimit:10;}
	.st45{fill:#D8EACC;stroke:#000000;stroke-width:2.0455;}
	.st46{fill:none;stroke:#000000;stroke-width:2.0455;stroke-linecap:round;stroke-miterlimit:10;stroke-dasharray:0,6.1366;}
	.st47{fill:#FFFFFF;stroke:#000000;stroke-width:2.3687;stroke-miterlimit:10;}
	.st48{fill:#FFFFFF;stroke:#000000;stroke-width:1.4998;stroke-miterlimit:10;}
	.st49{fill:#FFFFFF;stroke:#000000;stroke-width:0.6137;stroke-miterlimit:10;}
	.st50{fill:url(#);stroke:#000000;stroke-width:1.0228;}
	.st51{fill:none;stroke:#FFFFFF;stroke-width:4.0911;stroke-linejoin:round;}
	.st52{fill:none;stroke:#000000;stroke-width:2.4559;stroke-linecap:round;stroke-linejoin:round;}
	.st53{fill:none;stroke:#000000;stroke-width:3.1327;stroke-linecap:round;stroke-linejoin:round;}
	.st54{fill:none;stroke:#FFFFFF;stroke-width:4;stroke-linejoin:round;}
</style>
<g id="レイヤー_5">
	<rect x="-1164.06" y="-577.14" class="st0" width="5667.56" height="5248"/>
</g>
<g id="レイヤー_1">
</g>
<g id="レイヤー_3">
</g>
<g id="レイヤー_4">
</g>
<g id="レイヤー_2">
	<rect class="st0" width="700" height="500"/>
	<polygon class="グラフィックスタイル_x0020_2" points="576.48,176.92 161.84,182.38 170.3,377.36 585.55,351.55 	"/>
	<polyline class="st2" points="225.31,59 225.31,47.26 232.21,59 232.21,47.26 	"/>
	<g>
		<circle class="st3" cx="220.78" cy="89.31" r="24.35"/>
		<polygon points="217.9,102.66 227.53,111.93 225.78,66.09 205.29,107.13 		"/>
	</g>
	<g>
		<g>
			<path d="M134.47,222.68l0.07,1.48l-9.05,0.41l0.12,2.63l6.97-0.32l0.37,8.2c0.05,1.19-0.46,1.65-1.92,1.72
				c-0.84,0.04-1.69,0.04-2.53-0.01l-0.34-1.55c1.03,0.1,1.82,0.12,2.5,0.09c0.53-0.02,0.65-0.13,0.63-0.63l-0.29-6.31l-5.33,0.24
				l0.51,11.17l-1.62,0.07l-0.51-11.17l-5.06,0.23l0.39,8.62l-1.62,0.07l-0.46-10.06l6.68-0.31l-0.12-2.63l-8.86,0.41l-0.07-1.48
				l8.86-0.41l-0.13-2.82l1.62-0.07l0.13,2.82L134.47,222.68z"/>
			<path d="M121.11,257.6c1.74,1.59,3.68,2.14,7.14,2l8.08-0.37c-0.19,0.46-0.33,0.94-0.43,1.48l-7.81,0.36
				c-3.6,0.12-5.63-0.46-7.48-2.17c-0.88,1.13-2,2.3-3.07,3.17l-0.97-1.42c0.94-0.62,1.99-1.49,3-2.51l-0.25-5.51l-3.04,0.14
				l-0.06-1.4l4.61-0.21L121.11,257.6z M119.76,247.38c-1.03-1.33-2.13-2.52-3.16-3.36l1.09-1c1.24,0.99,2.34,2.08,3.24,3.21
				L119.76,247.38z M121.72,246.2l-0.06-1.3l3.64-0.17c-0.38-0.64-0.86-1.3-1.41-1.91l1.41-0.62c0.7,0.9,1.14,1.6,1.6,2.46
				l2.67-0.12c0.36-0.74,0.78-1.85,1.01-2.62l1.64,0.34c-0.3,0.73-0.69,1.58-1.07,2.21l3.85-0.18l0.06,1.3l-5.94,0.27
				c-0.09,0.35-0.38,1.23-0.56,1.74l5.16-0.24l0.48,10.49l-10.47,0.48l-0.48-10.49l3.78-0.17c0.22-0.69,0.38-1.25,0.46-1.73
				L121.72,246.2z M124.92,250.83l7.4-0.34l-0.09-1.89l-7.4,0.34L124.92,250.83z M125.06,253.81l7.4-0.34l-0.09-1.87l-7.4,0.34
				L125.06,253.81z M125.21,257.04l7.4-0.34l-0.09-2.06l-7.4,0.34L125.21,257.04z"/>
			<path d="M90.17,156.65c-1.06-1.15-2.24-2.21-3.35-3.02l1.04-1.18c1.21,0.81,2.43,1.87,3.41,2.94L90.17,156.65z M90.67,151.37
				c-0.83-0.99-2.12-2.19-3.27-3.07l1.02-1.12c1.15,0.77,2.41,1.87,3.35,2.92L90.67,151.37z M87.84,165.14
				c1.14-1.66,2.33-4.12,3.31-6.91l1.34,0.95c-0.89,2.62-2.07,5.21-3.28,7.11L87.84,165.14z M99.08,156.84l-0.02,0.04
				c-0.52,1.78-1.67,4.59-2.63,6.51l-0.07,0.19l1.52-0.19c1.52-0.19,3.83-0.55,5.65-0.88c-0.69-1.04-1.48-2.12-2.31-3.17l1.26-0.78
				c1.76,2.04,3.26,4.12,4.34,6.05l-1.42,0.99c-0.52-0.95-0.74-1.35-1.12-1.95l-0.2,0.05c-2.26,0.56-7.09,1.42-10.44,1.86l-0.61-1.6
				l0.82-0.08l0.25-0.03c0.04,0,0.29-0.03,0.55-0.07c1-2.02,2.03-4.63,2.73-6.97l-5.18,0.24l-0.06-1.38l6.27-0.29l-0.19-4.15
				l-5.16,0.24l-0.06-1.42l5.16-0.24l-0.15-3.31l1.6-0.07l0.15,3.31l5.47-0.25l0.06,1.42l-5.47,0.25l0.19,4.15l6.54-0.3l0.06,1.38
				l-7.48,0.34L99.08,156.84z"/>
			<path d="M99.97,209.68l-1.58,0.07l-0.3-6.58c-1.76,2.43-4.55,4.66-7.74,6.12l-1.01-1.27c3.03-1.29,5.51-3.03,7.39-5.18
				l-7.53,0.34l-0.06-1.38l8.86-0.4l-0.1-2.24l1.58-0.07l0.1,2.24l9.01-0.41l0.06,1.38l-7.61,0.35c1.97,1.68,4.59,3,7.93,4.01
				l-0.94,1.49c-3.58-1.3-6.3-2.95-8.37-5.16L99.97,209.68z M104.74,191.82c-1.04,1.55-2.66,3.15-4.53,4.51
				c1.92,0.9,4.25,1.52,7.92,2.07l-0.78,1.44c-2.97-0.46-6.19-1.43-8.5-2.56c-2.36,1.53-5.4,2.78-8.47,3.54l-0.88-1.24
				c3.1-0.7,6.06-1.82,8.04-3.07c-0.83-0.54-2.05-1.53-3.04-2.46c-1.11,0.96-2.17,1.69-3.48,2.36l-1.06-1.02
				c2.44-1.14,4.76-3.18,5.92-5.2l1.58,0.24c-0.29,0.49-0.37,0.57-0.64,0.98l7.03-0.32L104.74,191.82z M95.8,192.75
				c-0.14,0.17-0.2,0.21-0.31,0.34c0.91,0.93,2.12,1.84,3.35,2.55c1.69-1.25,2.82-2.27,3.54-3.19L95.8,192.75z"/>
			<path d="M98.98,214.76c-0.95,0.46-2.59,1.02-3.98,1.4l-0.48-1.46c1.87-0.54,3.95-1.42,4.87-2.06l1.34-0.06l0.77,16.96l-1.85,0.08
				L98.98,214.76z"/>
			<path d="M95.55,245.6l0.12-0.05l0.08-0.04c0.75-0.28,1.7-0.7,2.28-0.99l0.23,1.45c-1.69,0.86-4.42,2.02-6.53,2.73l-0.65-1.56
				c1.14-0.36,1.3-0.41,2.4-0.79l0.49-0.17l-0.44-9.66l-2.67,0.12l-0.07-1.46l6.52-0.3l0.07,1.46l-2.24,0.1L95.55,245.6z
				 M108.56,236.33l0.5,10.96l-9.87,0.45l-0.5-10.96l3.21-0.15c0.19-0.69,0.35-1.42,0.46-2.12l-5.14,0.23l-0.06-1.36l12.71-0.58
				l0.06,1.36l-5.96,0.27c-0.19,0.85-0.42,1.63-0.6,2.13L108.56,236.33z M97.26,250.92c1.59-0.71,3.15-1.83,4.19-3.03l1.29,0.79
				c-1.21,1.37-2.81,2.64-4.3,3.39L97.26,250.92z M100.27,237.96l0.09,1.99l6.81-0.31l-0.09-1.99L100.27,237.96z M100.51,243.08
				l6.81-0.31l-0.09-1.91l-6.81,0.31L100.51,243.08z M100.66,246.4l6.81-0.31l-0.1-2.12l-6.81,0.31L100.66,246.4z M109.58,251.47
				c-1.26-1.06-2.8-2.1-4.25-2.9l1.09-0.96c1.81,0.93,3.07,1.69,4.32,2.65L109.58,251.47z"/>
			<path d="M100.91,256.92c-0.95,0.46-2.59,1.02-3.98,1.4l-0.48-1.46c1.87-0.54,3.95-1.42,4.87-2.06l1.34-0.06l0.78,16.96
				l-1.85,0.08L100.91,256.92z"/>
			<path d="M99.21,284.67c-0.17,0.75-0.39,1.46-0.59,2.05l11.56-0.53c-0.05,2.52-0.36,4.78-0.82,5.93c-0.46,1.17-1.1,1.53-2.96,1.62
				c-1.09,0.05-2.55,0.05-3.56,0.02l-0.44-1.55c1.42,0.06,2.81,0.08,3.79,0.03c1.03-0.05,1.33-0.23,1.59-0.9
				c0.22-0.65,0.48-2.1,0.61-3.68l-10.26,0.47c-0.24,0.59-0.5,1.2-0.78,1.79l-1.69-0.4c0.68-1.35,1.29-2.94,1.82-4.78l-4.59,0.21
				l-0.06-1.4l19.53-0.89l0.06,1.4L99.21,284.67z M109.22,280.94l-13.43,0.61l-0.27-5.84l13.43-0.61L109.22,280.94z M97.4,280.16
				l10.1-0.46l-0.14-3.17l-10.1,0.46L97.4,280.16z"/>
			<path d="M98.74,311.79c1.74,1.59,3.68,2.14,7.14,2l8.08-0.37c-0.19,0.46-0.33,0.94-0.43,1.48l-7.81,0.36
				c-3.6,0.12-5.63-0.46-7.48-2.17c-0.88,1.13-2,2.3-3.07,3.17l-0.97-1.42c0.94-0.62,1.99-1.49,3-2.51l-0.25-5.51l-3.04,0.14
				l-0.06-1.4l4.61-0.21L98.74,311.79z M97.39,301.57c-1.03-1.33-2.13-2.52-3.16-3.36l1.09-1c1.24,0.99,2.34,2.08,3.24,3.21
				L97.39,301.57z M99.35,300.39l-0.06-1.3l3.64-0.17c-0.38-0.64-0.86-1.3-1.41-1.91l1.41-0.62c0.7,0.9,1.14,1.6,1.6,2.46l2.67-0.12
				c0.36-0.74,0.78-1.85,1.01-2.62l1.64,0.34c-0.3,0.73-0.69,1.58-1.07,2.21l3.85-0.18l0.06,1.3l-5.94,0.27
				c-0.09,0.35-0.38,1.23-0.56,1.74l5.16-0.24l0.48,10.49l-10.47,0.48l-0.48-10.49l3.78-0.17c0.22-0.69,0.38-1.25,0.46-1.73
				L99.35,300.39z M102.55,305.02l7.4-0.34l-0.09-1.89l-7.4,0.34L102.55,305.02z M102.69,308.01l7.4-0.34l-0.09-1.87l-7.4,0.34
				L102.69,308.01z M102.84,311.24l7.4-0.34l-0.09-2.06l-7.4,0.34L102.84,311.24z"/>
			<path d="M102.71,325.71l-2.65,0.12l0.15,3.25l2.67-0.12l0.06,1.36l-2.67,0.12l0.2,4.3c0.55-0.17,2.09-0.69,3.1-1.07l0.21,1.33
				c-2.41,0.98-5.33,1.95-8,2.67l-0.6-1.44l1.08-0.28l-0.37-8.02l1.4-0.06l0.35,7.71l0.51-0.15l0.49-0.15l0.43-0.12l-0.42-9.27
				l-3,0.14l-0.31-6.68l7.07-0.32L102.71,325.71z M97.04,324.63l4.15-0.19l-0.18-3.97l-4.15,0.19L97.04,324.63z M112.59,319.88
				c-0.69,1.95-1.63,3.64-2.8,5.09c1.35,1.07,3,1.99,4.84,2.64l-0.72,1.39c-1.89-0.74-3.67-1.79-5.06-2.98
				c-1.44,1.49-3.15,2.7-5.17,3.64l-0.88-1.24c1.82-0.68,3.56-1.87,5-3.38c-0.71-0.73-1.46-1.66-1.97-2.53l-0.08,0.11l-0.04,0.06
				c-0.5,0.7-1.11,1.39-1.72,1.95l-1.06-1.04c1.49-1.24,2.89-3.49,3.51-5.62l1.53,0.18c-0.2,0.54-0.26,0.71-0.4,1.07l3.99-0.18
				L112.59,319.88z M113.3,337.26l-1.5,0.07l-0.06-1.21l-5.24,0.24l0.06,1.21l-1.5,0.07l-0.37-8.1l8.25-0.38L113.3,337.26z
				 M106.44,335l5.24-0.24l-0.19-4.15l-5.24,0.24L106.44,335z M106.53,321.37c0.62,1,1.21,1.74,2.16,2.66
				c0.88-1.11,1.53-2.23,2.06-3.58l-3.82,0.17c-0.08,0.15-0.15,0.3-0.32,0.61L106.53,321.37z"/>
		</g>
		<g>
			<path d="M92.67,169.15l0.51,11.12l3.19-0.15l0.07,1.58l-3.19,0.15l0.19,4.05l-1.81,0.08l-0.19-4.05l-8.47,0.39l-0.07-1.56
				l7.51-11.51L92.67,169.15z M91.1,174.43c-0.04-0.95-0.08-2.55-0.06-3.56l-0.08,0c-0.5,1.11-1,2.09-1.38,2.68L85,180.64l6.37-0.29
				L91.1,174.43z"/>
			<path d="M98.41,184.05c0.43-2.22,2.14-4.51,4.83-6.49l0.52-0.37c2.79-2,3.51-2.94,3.44-4.44c-0.08-1.69-1.53-2.75-3.64-2.66
				c-1.73,0.08-2.91,0.77-4.16,2.39l-1.35-1.03c1.47-2,3.1-2.9,5.51-3.01c3.21-0.15,5.64,1.64,5.76,4.25
				c0.1,2.08-0.66,3.08-4.24,5.59l-0.72,0.51c-2.37,1.72-3.84,3.55-3.95,5.04l9.64-0.44l0.08,1.75l-11.66,0.53L98.41,184.05z"/>
		</g>
	</g>
	<g>
		<path d="M604.86,219.16c-1.06-1.15-2.24-2.21-3.35-3.02l1.04-1.18c1.21,0.81,2.43,1.87,3.41,2.94L604.86,219.16z M605.36,213.88
			c-0.83-0.99-2.12-2.19-3.27-3.07l1.02-1.12c1.15,0.77,2.41,1.87,3.35,2.92L605.36,213.88z M602.53,227.65
			c1.14-1.66,2.33-4.12,3.31-6.91l1.34,0.95c-0.89,2.62-2.07,5.2-3.28,7.11L602.53,227.65z M613.77,219.35l-0.02,0.04
			c-0.52,1.78-1.67,4.59-2.63,6.51l-0.07,0.19l1.52-0.19c1.52-0.19,3.83-0.55,5.65-0.88c-0.69-1.04-1.48-2.12-2.31-3.17l1.26-0.78
			c1.76,2.04,3.26,4.12,4.34,6.05l-1.42,0.99c-0.52-0.95-0.74-1.35-1.12-1.95l-0.2,0.05c-2.26,0.56-7.09,1.42-10.44,1.86l-0.61-1.6
			l0.82-0.08l0.25-0.03c0.04,0,0.29-0.03,0.55-0.07c1-2.02,2.03-4.63,2.73-6.97l-5.18,0.24l-0.06-1.38l6.27-0.29l-0.19-4.15
			l-5.16,0.24l-0.06-1.42l5.16-0.24l-0.15-3.31l1.6-0.07l0.15,3.31l5.47-0.25l0.06,1.42l-5.47,0.25l0.19,4.15l6.54-0.3l0.06,1.38
			l-7.48,0.34L613.77,219.35z"/>
		<path d="M612.87,235.4c-0.06,0.85-0.08,0.97-0.19,2.05c0.04,0.06,0.13,0.14,0.22,0.24c0.71,0.75,1.72,1.65,2.62,2.35l-0.37-8.06
			l1.63-0.07l0.43,9.34c1.66,1.06,3.4,1.88,5.39,2.52l-0.9,1.57c-1.53-0.57-2.97-1.31-4.41-2.21l0.38,8.33l-1.63,0.07l-0.44-9.54
			c-0.96-0.68-2.29-1.87-3.18-2.82c-0.91,5.44-3.24,9.34-7.39,12.37l-1.23-1.16c2.38-1.61,4.37-3.99,5.65-6.71
			c-1.12-1.04-2.36-1.97-3.63-2.74c-0.65,1.1-1.13,1.78-1.92,2.68l-1.13-1.21c2.12-2.34,3.44-5.52,4.14-10l1.57,0.18
			c-0.16,1.08-0.26,1.56-0.41,2.29l3.91-0.18L612.87,235.4z M607.72,236.32c-0.26,0.98-0.76,2.3-1.23,3.31
			c1.19,0.69,2.67,1.69,3.59,2.45c0.58-1.72,1.01-3.94,1.15-5.93L607.72,236.32z"/>
		<path d="M608.51,270.63c1.62,1.53,3.6,2.12,7,2.03l8.43-0.38c-0.21,0.42-0.33,0.84-0.47,1.46l-7.92,0.36
			c-3.66,0.13-5.9-0.55-7.65-2.31c-0.91,1.34-1.91,2.5-2.82,3.3l-0.91-1.42c0.91-0.74,1.88-1.65,2.79-2.62l-0.25-5.37l-2.86,0.13
			l-0.06-1.4l4.42-0.2L608.51,270.63z M607.24,260.49c-0.97-1.32-2.03-2.52-3.1-3.46l1.09-1c1.05,0.84,2.08,1.9,3.2,3.3
			L607.24,260.49z M621.73,259.73l0.46,10.12c0.05,1.11-0.3,1.5-1.43,1.55c-0.6,0.03-1.36,0.02-2.1-0.03l-0.31-1.3
			c0.64,0.07,1.26,0.09,1.86,0.06c0.43-0.02,0.49-0.08,0.47-0.54l-0.1-2.16l-3.68,0.17l0.17,3.66l-1.44,0.07l-0.17-3.66l-3.56,0.16
			l0.18,3.91l-1.5,0.07l-0.53-11.54l5.51-0.25c-1.16-0.57-2.38-1.11-3.66-1.6l0.93-0.89c1.18,0.48,1.74,0.72,2.82,1.23
			c0.92-0.52,2.25-1.36,2.82-1.8l-8.47,0.39l-0.06-1.27l10.34-0.47l0.88,0.83c-1.03,0.89-2.71,2.02-4.34,2.92l0.25,0.15
			c0.49,0.25,0.53,0.26,0.78,0.42L621.73,259.73z M611.7,263.4l3.56-0.16l-0.09-2.02l-3.56,0.16L611.7,263.4z M611.85,266.63
			l3.56-0.16l-0.09-2.06l-3.56,0.16L611.85,266.63z M616.7,263.17l3.68-0.17l-0.09-2.02l-3.68,0.17L616.7,263.17z M620.43,264.17
			l-3.68,0.17l0.09,2.06l3.68-0.17L620.43,264.17z"/>
		<path d="M612.72,285.8l-2.65,0.12l0.15,3.25l2.67-0.12l0.06,1.36l-2.67,0.12l0.2,4.3c0.55-0.17,2.09-0.69,3.1-1.07l0.2,1.33
			c-2.41,0.98-5.33,1.95-8,2.67l-0.6-1.44l1.08-0.28l-0.37-8.02l1.4-0.06l0.35,7.71l0.51-0.15l0.49-0.15l0.43-0.12l-0.42-9.27
			l-3,0.14l-0.31-6.68l7.07-0.32L612.72,285.8z M607.05,284.72l4.15-0.19l-0.18-3.97l-4.15,0.19L607.05,284.72z M622.6,279.97
			c-0.69,1.95-1.63,3.64-2.8,5.09c1.35,1.07,3,1.99,4.84,2.64l-0.72,1.39c-1.89-0.74-3.67-1.79-5.06-2.98
			c-1.44,1.49-3.15,2.7-5.17,3.64l-0.88-1.24c1.82-0.68,3.56-1.87,5-3.38c-0.71-0.73-1.46-1.66-1.97-2.53l-0.08,0.11l-0.04,0.06
			c-0.5,0.7-1.11,1.39-1.72,1.95l-1.06-1.04c1.49-1.24,2.89-3.49,3.51-5.62l1.53,0.18c-0.2,0.54-0.26,0.71-0.4,1.07l3.99-0.18
			L622.6,279.97z M623.31,297.35l-1.5,0.07l-0.06-1.21l-5.24,0.24l0.06,1.21l-1.5,0.07l-0.37-8.1l8.25-0.38L623.31,297.35z
			 M616.45,295.08l5.24-0.24l-0.19-4.15l-5.24,0.24L616.45,295.08z M616.54,281.46c0.62,1,1.21,1.74,2.16,2.66
			c0.88-1.11,1.53-2.23,2.06-3.58l-3.82,0.17c-0.08,0.15-0.15,0.29-0.32,0.61L616.54,281.46z"/>
	</g>
	<g>
		<path d="M101.1,389.14l0.5,10.26l2.94-0.14l0.07,1.46l-2.94,0.14l0.18,3.74l-1.67,0.08l-0.18-3.74l-7.82,0.38l-0.07-1.44
			l6.9-10.65L101.1,389.14z M99.66,394.02c-0.04-0.87-0.08-2.36-0.07-3.29l-0.08,0c-0.46,1.03-0.91,1.93-1.27,2.48l-4.21,6.56
			l5.88-0.29L99.66,394.02z"/>
		<path d="M108.65,401.55l0.13,2.71l-2.71,0.13l-0.13-2.71L108.65,401.55z"/>
		<path d="M119.18,388.25l0.5,10.26l2.94-0.14l0.07,1.46l-2.94,0.14l0.18,3.74l-1.67,0.08l-0.18-3.74l-7.82,0.38l-0.07-1.44
			l6.89-10.65L119.18,388.25z M117.74,393.14c-0.04-0.87-0.08-2.36-0.07-3.29l-0.08,0c-0.46,1.03-0.91,1.93-1.27,2.48l-4.21,6.56
			l5.88-0.29L117.74,393.14z"/>
		<path d="M135.12,387.57l0.06,1.27c-2.29,4.83-3.74,9.48-4.45,14.35l-1.78,0.09c0.47-3.66,2.2-9.37,4.25-14.09l-7.4,0.36l0.17,3.55
			l-1.65,0.08l-0.25-5.07L135.12,387.57z"/>
		<path d="M148.43,394.61c0.24,4.93-1.79,8.08-5.3,8.25c-3.51,0.17-5.84-2.78-6.08-7.69c-0.24-4.93,1.79-8.08,5.32-8.25
			C145.86,386.75,148.19,389.7,148.43,394.61z M138.91,395.08c0.2,3.98,1.78,6.38,4.17,6.26c2.35-0.12,3.69-2.65,3.5-6.64
			c-0.2-4.02-1.78-6.4-4.17-6.28C140.05,388.54,138.71,391.1,138.91,395.08z"/>
	</g>
	<rect x="298.33" y="204.54" class="グラフィックスタイル_x0020_3" width="216.66" height="136.27"/>
	<g>
		
			<rect x="274.57" y="221.52" transform="matrix(6.123234e-17 -1 1 6.123234e-17 70.0308 519.8587)" class="グラフィックスタイル_x0020_4" width="40.74" height="6.78"/>
		
			<rect x="267.79" y="221.52" transform="matrix(6.123234e-17 -1 1 6.123234e-17 63.2507 513.0786)" class="グラフィックスタイル_x0020_4" width="40.74" height="6.78"/>
		
			<rect x="287.9" y="214.98" transform="matrix(6.123234e-17 -1 1 6.123234e-17 83.3555 533.1833)" class="st4" width="40.74" height="19.87"/>
		<polygon points="316.54,225.45 304.89,217.45 304.89,233.46 		"/>
	</g>
	<g>
		<g>
			<g>
				<path class="st0" d="M271.64,261.37c0.71,5.65,0.71,11.3,0,16.95c-0.87,6.51-7.89,11.38-14.29,11.02
					c-20.98-1-41.95-0.99-62.93,0.03c-6.09,0.34-12.74-4.29-13.62-10.46c-0.81-6.04-0.81-12.09,0-18.13
					c0.88-6.18,7.53-10.8,13.62-10.46c20.98,1.02,41.95,1.03,62.93,0.03C263.75,249.99,270.76,254.86,271.64,261.37z"/>
				<path class="st5" d="M272.4,269.84c0,2.84-0.18,5.68-0.53,8.5c-0.85,6.35-7.64,11.6-14.54,11.22
					c-20.87-0.99-42.03-0.98-62.9,0.03c-6.52,0.36-13-4.62-13.86-10.65c-0.81-6.04-0.81-12.16,0-18.19
					c0.86-6.04,7.34-11.01,13.86-10.65c20.87,1.01,42.04,1.02,62.9,0.03c6.89-0.38,13.69,4.86,14.54,11.22v0
					C272.22,264.16,272.4,267,272.4,269.84z M180.42,269.84c0,3.02,0.2,6.04,0.6,9.04c0.83,5.82,7.08,10.62,13.37,10.27
					c20.89-1.01,42.07-1.02,62.96-0.03c6.66,0.36,13.23-4.7,14.05-10.83c0.7-5.6,0.7-11.29,0-16.89
					c-0.82-6.14-7.39-11.2-14.05-10.83c-20.89,1-42.07,0.99-62.96-0.03c-6.3-0.35-12.55,4.45-13.37,10.27
					C180.62,263.8,180.42,266.82,180.42,269.84z"/>
			</g>
		</g>
		<g>
			<path class="st6" d="M259.83,256.33v27.03c0.34-0.03,0.67-0.07,1.01-0.11v-26.81C260.5,256.4,260.17,256.36,259.83,256.33z"/>
		</g>
		<g>
			<path class="st5" d="M249.54,253.57l-0.86,0.23c-6.14,1.68-14.27,2.6-22.9,2.6c-0.94,0-1.91-0.01-2.87-0.03l-0.06-0.01
				l-10.26-4.1l0.81-0.02c2.38-0.05,4.74-0.08,7.01-0.08c9.7,0,19.2,0.45,28.25,1.33L249.54,253.57z M222.96,256.04
				c0.94,0.02,1.89,0.03,2.82,0.03c8.19,0,15.93-0.83,21.92-2.35c-8.76-0.82-17.94-1.24-27.29-1.24c-2.01,0-4.09,0.02-6.19,0.06
				L222.96,256.04z"/>
		</g>
		<g>
			<path class="st5" d="M249.54,286.11l-0.89,0.09c-9.05,0.88-18.55,1.33-28.25,1.33c-2.25,0-4.61-0.03-7.01-0.08l-0.81-0.02
				l10.32-4.11c0.96-0.02,1.92-0.03,2.87-0.03c8.63,0,16.77,0.92,22.9,2.6L249.54,286.11z M214.21,287.13
				c2.12,0.04,4.2,0.06,6.19,0.06c9.36,0,18.53-0.42,27.29-1.24c-5.99-1.52-13.73-2.35-21.92-2.35c-0.93,0-1.88,0.01-2.82,0.03
				L214.21,287.13z"/>
		</g>
		<g>
			<path class="st0" d="M210.62,252.55h-15.09c-8.86,0-16.11,6.81-16.11,15.12v4.35c0,8.32,7.25,15.12,16.11,15.12h15.09
				c-1.38-5.66-2.1-11.48-2.08-17.3C208.53,264.02,209.24,258.2,210.62,252.55z"/>
			<path d="M210.84,252.38l-0.05,0.2c-1.39,5.7-2.11,11.5-2.07,17.26c0,0.08,0,0.15,0,0.23c0,5.68,0.7,11.4,2.07,17.03l0.05,0.2
				h-15.31c-8.98,0-16.28-6.86-16.28-15.29v-4.35c0-8.43,7.3-15.29,16.28-15.29H210.84z M179.6,272.02
				c0,8.25,7.15,14.96,15.93,14.96h14.87c-1.35-5.59-2.03-11.27-2.03-16.91c0-0.15,0-0.31,0-0.46c0-5.63,0.68-11.32,2.03-16.9
				h-14.87c-8.78,0-15.93,6.71-15.93,14.96V272.02z"/>
		</g>
		<g>
			<path class="st0" d="M245.95,257.34c-1.34,8.33-1.34,16.67,0,25c4.63,1.15,9.26,1.51,13.89,1.07v-27.13
				C255.21,255.84,250.58,256.19,245.95,257.34z"/>
			<path d="M260.02,256.13v27.43l-0.16,0.01c-4.63,0.44-9.33,0.08-13.95-1.07l-0.11-0.03l-0.02-0.11c-1.34-8.31-1.34-16.74,0-25.05
				l0.02-0.11l0.11-0.03c4.63-1.15,9.32-1.51,13.95-1.07L260.02,256.13z M259.67,283.26v-26.83c-4.5-0.41-9.06-0.06-13.56,1.05
				c-1.31,8.21-1.31,16.53,0,24.74C250.61,283.32,255.17,283.67,259.67,283.26z"/>
		</g>
		<g>
			<path class="st6" d="M259.84,256.28v27.13c0.34-0.03,0.67-0.07,1.01-0.11v-26.91C260.51,256.35,260.18,256.31,259.84,256.28z"/>
		</g>
		<g>
			<path class="st0" d="M260.85,283.3h7.24c1.9-3.31,3.09-8.11,3.09-13.45s-1.19-10.14-3.09-13.45h-7.24V283.3z"/>
			<path d="M271.36,269.84c0,5.15-1.14,10.08-3.12,13.53l-0.05,0.09h-7.52v-27.24h7.52l0.05,0.09
				C270.23,259.76,271.36,264.69,271.36,269.84z M267.99,283.13c1.92-3.4,3.02-8.24,3.02-13.29s-1.1-9.89-3.02-13.29h-6.96v26.58
				H267.99z"/>
		</g>
		<g>
			<path class="st6" d="M210.53,252.66l-0.97-0.33c-3.36,11.45-3.36,23.6,0,35.04l0.97-0.33
				C207.29,275.79,207.29,263.89,210.53,252.66z"/>
		</g>
		<g>
			<path class="st0" d="M210.48,286.55l12.24-4.2v-25l-12.24-4.2C207.34,264.06,207.34,275.63,210.48,286.55z"/>
			<path d="M222.89,257.23v25.23l-12.53,4.3l-0.05-0.17c-3.15-10.95-3.15-22.54,0-33.49l0.05-0.17L222.89,257.23z M222.54,282.23
				v-24.77l-11.94-4.1c-3.07,10.79-3.07,22.18,0,32.98L222.54,282.23z"/>
		</g>
		<g>
			<g>
				<path class="st5" d="M268.09,256.44v-0.17c0-2.04-1.77-3.7-3.94-3.7h-0.29C265.68,253.41,267.17,254.77,268.09,256.44z"/>
			</g>
			<g>
				<path class="st5" d="M268.09,283.25v0.17c0,2.04-1.77,3.7-3.94,3.7h-0.29C265.68,286.27,267.17,284.91,268.09,283.25z"/>
			</g>
		</g>
		<g>
			<g>
				<path class="st0" d="M220.19,247.94c-0.53-0.12-1.17,0-1.41,0.26l-2.77,3.02c-0.05,0.05-0.08,0.1-0.09,0.16h2.59l2.01-3.37
					L220.19,247.94z"/>
				<path class="st5" d="M220.78,247.91l-2.17,3.64h-2.9l0.04-0.2c0.02-0.08,0.06-0.16,0.13-0.23l2.77-3.02
					c0.28-0.31,0.98-0.45,1.58-0.31L220.78,247.91z M218.4,251.22l1.84-3.09l-0.1-0.02c-0.51-0.11-1.06,0.02-1.24,0.21l-2.67,2.9
					H218.4z"/>
			</g>
			<g>
				<path class="st0" d="M220.19,291.74c-0.53,0.12-1.17,0-1.41-0.26l-2.77-3.02c-0.05-0.05-0.08-0.1-0.09-0.16h2.59l2.01,3.37
					L220.19,291.74z"/>
				<path class="st5" d="M220.78,291.78l-0.55,0.12c-0.6,0.13-1.3,0-1.58-0.31l-2.77-3.02c-0.07-0.07-0.11-0.15-0.13-0.23l-0.04-0.2
					h2.9L220.78,291.78z M216.24,288.47l2.67,2.91c0.17,0.19,0.73,0.32,1.24,0.21l0.1-0.02l-1.84-3.09H216.24z"/>
			</g>
		</g>
		<g>
			<g>
				<path class="st5" d="M201.31,260.94c-5.79,0-10.88,0.97-13.82,2.43c3.02-1.08,7.39-1.76,12.25-1.76c2.35,0,4.58,0.16,6.61,0.45
					v-0.85C204.75,261.03,203.06,260.94,201.31,260.94z"/>
			</g>
			<g>
				<path class="st5" d="M201.31,278.75c-5.79,0-10.88-0.97-13.82-2.43c3.02,1.08,7.39,1.76,12.25,1.76c2.35,0,4.58-0.16,6.61-0.45
					v0.85C204.75,278.66,203.06,278.75,201.31,278.75z"/>
			</g>
		</g>
		<g>
			
				<rect x="221.84" y="258.22" transform="matrix(6.123234e-17 -1 1 6.123234e-17 -35.5069 504.1781)" class="st0" width="25" height="23.24"/>
			<path d="M246.13,257.18v25.33h-23.59v-25.33H246.13z M245.78,282.18v-24.67h-22.89v24.67H245.78z"/>
		</g>
	</g>
	<g>
		<g>
			<g>
				<path class="st0" d="M271.64,318.85c0.71,5.65,0.71,11.3,0,16.95c-0.87,6.51-7.89,11.38-14.29,11.02
					c-20.98-1-41.95-0.99-62.93,0.03c-6.09,0.34-12.74-4.29-13.62-10.46c-0.81-6.04-0.81-12.09,0-18.13
					c0.88-6.18,7.53-10.8,13.62-10.46c20.98,1.02,41.95,1.03,62.93,0.03C263.75,307.47,270.76,312.34,271.64,318.85z"/>
				<path class="st5" d="M272.4,327.32c0,2.84-0.18,5.68-0.53,8.5c-0.85,6.35-7.64,11.6-14.54,11.22
					c-20.87-0.99-42.03-0.98-62.9,0.03c-6.52,0.36-13-4.62-13.86-10.65c-0.81-6.04-0.81-12.16,0-18.19
					c0.86-6.04,7.34-11.01,13.86-10.65c20.87,1.01,42.04,1.02,62.9,0.03c6.89-0.38,13.69,4.86,14.54,11.22v0
					C272.22,321.64,272.4,324.48,272.4,327.32z M180.42,327.32c0,3.02,0.2,6.04,0.6,9.04c0.83,5.82,7.08,10.62,13.37,10.27
					c20.89-1.01,42.07-1.02,62.96-0.03c6.66,0.36,13.23-4.7,14.05-10.83c0.7-5.6,0.7-11.29,0-16.89
					c-0.82-6.14-7.39-11.2-14.05-10.83c-20.89,1-42.07,0.99-62.96-0.03c-6.3-0.35-12.55,4.45-13.37,10.27
					C180.62,321.28,180.42,324.3,180.42,327.32z"/>
			</g>
		</g>
		<g>
			<path class="st6" d="M259.83,313.81v27.03c0.34-0.03,0.67-0.07,1.01-0.11v-26.81C260.5,313.88,260.17,313.84,259.83,313.81z"/>
		</g>
		<g>
			<path class="st5" d="M249.54,311.05l-0.86,0.23c-6.14,1.68-14.27,2.6-22.9,2.6c-0.94,0-1.91-0.01-2.87-0.03l-0.06-0.01
				l-10.26-4.1l0.81-0.02c2.38-0.05,4.74-0.08,7.01-0.08c9.7,0,19.2,0.45,28.25,1.33L249.54,311.05z M222.96,313.52
				c0.94,0.02,1.89,0.03,2.82,0.03c8.19,0,15.93-0.83,21.92-2.35c-8.76-0.82-17.94-1.24-27.29-1.24c-2.01,0-4.09,0.02-6.19,0.06
				L222.96,313.52z"/>
		</g>
		<g>
			<path class="st5" d="M249.54,343.6l-0.89,0.09c-9.05,0.88-18.55,1.33-28.25,1.33c-2.25,0-4.61-0.03-7.01-0.08l-0.81-0.02
				l10.32-4.11c0.96-0.02,1.92-0.03,2.87-0.03c8.63,0,16.77,0.92,22.9,2.6L249.54,343.6z M214.21,344.62
				c2.12,0.04,4.2,0.06,6.19,0.06c9.36,0,18.53-0.42,27.29-1.24c-5.99-1.52-13.73-2.35-21.92-2.35c-0.93,0-1.88,0.01-2.82,0.03
				L214.21,344.62z"/>
		</g>
		<g>
			<path class="st0" d="M210.62,310.03h-15.09c-8.86,0-16.11,6.81-16.11,15.12v4.35c0,8.32,7.25,15.12,16.11,15.12h15.09
				c-1.38-5.66-2.1-11.48-2.08-17.3C208.53,321.5,209.24,315.69,210.62,310.03z"/>
			<path d="M210.84,309.86l-0.05,0.2c-1.39,5.7-2.11,11.5-2.07,17.26c0,0.08,0,0.15,0,0.23c0,5.68,0.7,11.4,2.07,17.03l0.05,0.2
				h-15.31c-8.98,0-16.28-6.86-16.28-15.29v-4.35c0-8.43,7.3-15.29,16.28-15.29H210.84z M179.6,329.5c0,8.25,7.15,14.96,15.93,14.96
				h14.87c-1.35-5.59-2.03-11.27-2.03-16.91c0-0.15,0-0.31,0-0.46c0-5.63,0.68-11.32,2.03-16.91h-14.87
				c-8.78,0-15.93,6.71-15.93,14.96V329.5z"/>
		</g>
		<g>
			<path class="st0" d="M245.95,314.83c-1.34,8.33-1.34,16.67,0,25c4.63,1.15,9.26,1.51,13.89,1.07v-27.13
				C255.21,313.32,250.58,313.67,245.95,314.83z"/>
			<path d="M260.02,313.61v27.43l-0.16,0.01c-4.63,0.44-9.33,0.08-13.95-1.07l-0.11-0.03l-0.02-0.11c-1.34-8.31-1.34-16.74,0-25.05
				l0.02-0.11l0.11-0.03c4.63-1.15,9.32-1.51,13.95-1.07L260.02,313.61z M259.67,340.74v-26.83c-4.5-0.41-9.06-0.06-13.56,1.05
				c-1.31,8.21-1.31,16.53,0,24.74C250.61,340.8,255.17,341.15,259.67,340.74z"/>
		</g>
		<g>
			<path class="st6" d="M259.84,313.76v27.13c0.34-0.03,0.67-0.07,1.01-0.11v-26.91C260.51,313.83,260.18,313.79,259.84,313.76z"/>
		</g>
		<g>
			<path class="st0" d="M260.85,340.78h7.24c1.9-3.31,3.09-8.11,3.09-13.45s-1.19-10.14-3.09-13.45h-7.24V340.78z"/>
			<path d="M271.36,327.32c0,5.15-1.14,10.08-3.12,13.53l-0.05,0.09h-7.52v-27.24h7.52l0.05,0.09
				C270.23,317.24,271.36,322.18,271.36,327.32z M267.99,340.61c1.92-3.4,3.02-8.24,3.02-13.29s-1.1-9.89-3.02-13.29h-6.96v26.58
				H267.99z"/>
		</g>
		<g>
			<path class="st6" d="M210.53,310.14l-0.97-0.33c-3.36,11.45-3.36,23.6,0,35.04l0.97-0.33
				C207.29,333.27,207.29,321.37,210.53,310.14z"/>
		</g>
		<g>
			<path class="st0" d="M210.48,344.03l12.24-4.2v-25l-12.24-4.2C207.34,321.54,207.34,333.11,210.48,344.03z"/>
			<path d="M222.89,314.71v25.23l-12.53,4.3l-0.05-0.17c-3.15-10.95-3.15-22.54,0-33.49l0.05-0.17L222.89,314.71z M222.54,339.71
				v-24.77l-11.94-4.1c-3.07,10.79-3.07,22.18,0,32.98L222.54,339.71z"/>
		</g>
		<g>
			<g>
				<path class="st5" d="M268.09,313.92v-0.17c0-2.04-1.77-3.7-3.94-3.7h-0.29C265.68,310.9,267.17,312.26,268.09,313.92z"/>
			</g>
			<g>
				<path class="st5" d="M268.09,340.73v0.17c0,2.04-1.77,3.7-3.94,3.7h-0.29C265.68,343.75,267.17,342.39,268.09,340.73z"/>
			</g>
		</g>
		<g>
			<g>
				<path class="st0" d="M220.19,305.43c-0.53-0.12-1.17,0-1.41,0.26l-2.77,3.02c-0.05,0.05-0.08,0.1-0.09,0.16h2.59l2.01-3.37
					L220.19,305.43z"/>
				<path class="st5" d="M220.78,305.39l-2.17,3.64h-2.9l0.04-0.2c0.02-0.08,0.06-0.16,0.13-0.23l2.77-3.02
					c0.28-0.31,0.98-0.45,1.58-0.31L220.78,305.39z M218.4,308.7l1.84-3.09l-0.1-0.02c-0.51-0.11-1.06,0.02-1.24,0.21l-2.67,2.9
					H218.4z"/>
			</g>
			<g>
				<path class="st0" d="M220.19,349.22c-0.53,0.12-1.17,0-1.41-0.26l-2.77-3.02c-0.05-0.05-0.08-0.1-0.09-0.16h2.59l2.01,3.37
					L220.19,349.22z"/>
				<path class="st5" d="M220.78,349.26l-0.55,0.12c-0.6,0.13-1.3,0-1.58-0.31l-2.77-3.02c-0.07-0.07-0.11-0.15-0.13-0.23l-0.04-0.2
					h2.9L220.78,349.26z M216.24,345.95l2.67,2.91c0.17,0.19,0.73,0.32,1.24,0.21l0.1-0.02l-1.84-3.09H216.24z"/>
			</g>
		</g>
		<g>
			<g>
				<path class="st5" d="M201.31,318.42c-5.79,0-10.88,0.97-13.82,2.43c3.02-1.08,7.39-1.76,12.25-1.76c2.35,0,4.58,0.16,6.61,0.45
					v-0.85C204.75,318.51,203.06,318.42,201.31,318.42z"/>
			</g>
			<g>
				<path class="st5" d="M201.31,336.23c-5.79,0-10.88-0.97-13.82-2.43c3.02,1.08,7.39,1.76,12.25,1.76c2.35,0,4.58-0.16,6.61-0.45
					v0.85C204.75,336.14,203.06,336.23,201.31,336.23z"/>
			</g>
		</g>
		<g>
			
				<rect x="221.84" y="315.7" transform="matrix(6.123234e-17 -1 1 6.123234e-17 -92.9884 561.6595)" class="st0" width="25" height="23.24"/>
			<path d="M246.13,314.66v25.33h-23.59v-25.33H246.13z M245.78,339.66v-24.67h-22.89v24.67H245.78z"/>
		</g>
	</g>
	<g>
		<path d="M353.94,262.84c-2.33,1.03-6.87,2.43-10.03,3.1l-1.14-3.88c4.75-0.98,10.08-2.95,12.51-4.6h3.46v42.64h-4.81V262.84z"/>
		<path d="M386.6,279.79c-0.52,1.86-1.14,3.62-1.71,5.06h29.04c-0.41,6.31-1.45,11.94-2.74,14.78c-1.29,2.89-2.95,3.72-7.6,3.72
			c-2.74,0-6.41-0.15-8.94-0.36l-0.93-3.93c3.57,0.31,7.03,0.52,9.51,0.52c2.58,0,3.36-0.41,4.08-2.07c0.62-1.6,1.45-5.22,1.96-9.15
			H383.5c-0.67,1.45-1.4,2.95-2.17,4.39l-4.19-1.19c1.86-3.31,3.57-7.24,5.12-11.78h-11.52v-3.51h49.1v3.51H386.6z M412.13,271.57
			h-33.75V256.9h33.75V271.57z M382.57,268.27h25.38v-7.96h-25.38V268.27z"/>
		<path d="M433.16,278.09c-1.65,5.27-3.77,10.03-6.25,14.01l-1.91-4.13c3.36-5.01,6-11.27,7.8-18.66h-7.08v-3.62h7.44v-11.06h3.82
			v11.06h5.38v3.62h-5.38v4.81c2.33,1.91,4.5,3.98,6.36,6.05l-2.17,3.46c-0.93-1.4-2.64-3.57-4.19-5.32v25.43h-3.82V278.09z
			 M462,285.27c3.31,4.75,7.65,8.58,13.18,11.68l-2.43,3.62c-5.43-3.41-10.23-8.17-13.33-13.23v16.38h-3.67v-16.07
			c-3.26,5.53-7.65,10.08-13.28,13.64l-2.58-3.15c5.63-3.15,10.13-7.39,13.54-12.87h-9.56v-18.4h11.89v-3.82h-14.57v-3.36h14.57
			v-5.06h3.67v5.06h14.88v3.36h-14.88v3.82h12.25v18.4H462z M447.53,270.02v4.39h8.22v-4.39H447.53z M447.53,277.57v4.5h8.22v-4.5
			H447.53z M459.42,274.42h8.63v-4.39h-8.63V274.42z M459.42,282.07h8.63v-4.5h-8.63V282.07z"/>
	</g>
	<line class="st7" x1="52.78" y1="127.43" x2="69.67" y2="436.04"/>
	<line class="グラフィックスタイル" x1="159.44" y1="127.43" x2="172.78" y2="433.41"/>
	<line class="グラフィックスタイル" x1="573.67" y1="122.7" x2="588.78" y2="413.68"/>
	<line class="グラフィックスタイル" x1="639.44" y1="119.83" x2="653.67" y2="413.68"/>
	<polyline class="st9" points="77.22,389.96 66.68,381.53 170.3,377.36 158.85,368.92 	"/>
	<g>
		
			<rect x="98.84" y="32.7" transform="matrix(6.123234e-17 -1 1 6.123234e-17 38.0301 198.9571)" class="st10" width="39.3" height="95.53"/>
		<g>
			<path class="st0" d="M87.96,86.31h15.55v2.09H87.96v1.41h-2.32V71.25h17.34v2.01H87.96V86.31z M88.64,83.96
				c2.12-1.08,3.67-2.24,5.41-4.02c-1.33-1.12-3.09-2.38-4.83-3.52l1.41-1.58c1.72,1.08,3.21,2.14,4.85,3.4
				c1.02-1.35,1.85-2.72,2.7-4.44l2.09,1.02c-0.93,1.85-1.97,3.5-3.01,4.85c1.16,0.95,2.7,2.32,4.25,3.79l-1.64,1.72
				c-1.35-1.35-2.86-2.74-4.08-3.79c-1.74,1.85-3.55,3.19-5.76,4.35L88.64,83.96z"/>
			<path class="st0" d="M117.12,73.08h-8.69v-1.87h19.7v1.87h-8.81v1.99h4.44v10.35h-10.97V75.07h4.33V73.08z M125.33,86.76v-11.7
				h2.12v14.74h-2.12v-1.14h-14.12v1.14h-2.09V75.07h2.09v11.7H125.33z M114.76,76.77v2.51h2.45v-2.51H114.76z M114.76,80.87v2.8
				h2.45v-2.8H114.76z M119.24,79.28h2.55v-2.51h-2.55V79.28z M119.24,83.67h2.55v-2.8h-2.55V83.67z"/>
			<path class="st0" d="M151.32,89.81h-2.26v-1.06h-13.44v1.06h-2.24V71.07h17.94V89.81z M135.63,86.81h13.44V72.95h-13.44V86.81z
				 M147.13,85.91c-1.31-0.81-2.84-1.68-4.23-2.38c-1.51,1.27-3.34,2.28-5.37,3.01l-1.29-1.56c1.89-0.6,3.23-1.31,4.67-2.45
				l-0.54-0.25c-1.35-0.66-2.34-1.1-4.11-1.82l0.93-1.53c2.09,0.77,3.3,1.24,5.29,2.18c1.68-1.78,3.09-4.33,3.86-7.03l2.01,0.62
				c-0.85,2.63-2.38,5.5-3.94,7.34c0.1,0.06,0.1,0.06,0.19,0.1c1.04,0.52,2.18,1.14,3.75,2.07L147.13,85.91z M138.4,79.13
				c-0.48-1.62-1.04-2.99-1.66-4.06l1.91-0.77c0.66,1.16,1.22,2.49,1.72,4.04L138.4,79.13z M141.97,78.32
				c-0.5-1.58-1.06-2.92-1.68-4.09l1.82-0.73c0.75,1.33,1.39,2.8,1.72,4L141.97,78.32z"/>
		</g>
	</g>
</g>
</svg>
