<?xml version="1.0" encoding="utf-8"?>
<!-- Generator: Adobe Illustrator 23.0.3, SVG Export Plug-In . SVG Version: 6.00 Build 0)  -->
<svg version="1.1" xmlns="http://www.w3.org/2000/svg" xmlns:xlink="http://www.w3.org/1999/xlink" x="0px" y="0px"
	 viewBox="0 0 700 500" style="enable-background:new 0 0 700 500;" xml:space="preserve">
<style type="text/css">
	.グラフィックスタイル{fill:none;stroke:#000000;stroke-width:2;stroke-miterlimit:10;}
	.グラフィックスタイル_x0020_2{fill:#D8EACC;stroke:#000000;stroke-width:2;}
	.グラフィックスタイル_x0020_3{fill:#FFFFFF;stroke:#000000;stroke-width:2;stroke-miterlimit:10;}
	.グラフィックスタイル_x0020_4{fill:#FFFFFF;stroke:#000000;stroke-width:1.2664;stroke-miterlimit:10;}
	.st0{fill:#FFFFFF;}
	.st1{fill:#D8EACC;stroke:#000000;stroke-width:2;}
	.st2{fill:none;stroke:#000000;stroke-width:1.4318;stroke-linecap:round;stroke-linejoin:round;}
	.st3{fill:none;stroke:#000000;stroke-width:1.8264;stroke-linecap:round;stroke-linejoin:round;}
	.st4{fill:#FFFFFF;stroke:#000000;stroke-width:1.2664;stroke-miterlimit:10;}
	.st5{fill:#030201;}
	.st6{fill:#242323;}
	.st7{fill:none;stroke:#000000;stroke-width:2;stroke-linejoin:round;stroke-miterlimit:10;}
	.st8{fill:none;stroke:#000000;stroke-width:2;stroke-miterlimit:10;}
	.st9{fill:none;stroke:#000000;stroke-width:2;stroke-linejoin:bevel;stroke-miterlimit:10;}
	.st10{fill:#E83589;}
	.st11{fill:none;stroke:#000000;stroke-width:2;stroke-miterlimit:10;stroke-dasharray:5.901,5.901;}
	.st12{fill:none;stroke:#000000;stroke-width:1.5;stroke-linejoin:bevel;stroke-miterlimit:10;}
	.st13{fill:#D8EACC;stroke:#000000;stroke-width:1.5;}
	.st14{fill:none;stroke:#000000;stroke-width:1.5;stroke-miterlimit:10;}
	.st15{fill:none;stroke:#000000;stroke-linejoin:bevel;stroke-miterlimit:10;}
	.st16{fill:#FFFFFF;stroke:#000000;stroke-width:1.5;stroke-miterlimit:10;}
	.st17{fill:#FFFFFF;stroke:#DE0000;stroke-width:2;stroke-miterlimit:10;}
	.st18{fill:#DE0000;}
	.st19{fill:none;stroke:#000000;stroke-miterlimit:10;}
	.st20{fill:none;stroke:#000000;stroke-miterlimit:10;stroke-dasharray:3.0312,3.0312;}
	.st21{fill:url(#);stroke:#000000;stroke-width:1.1494;}
	.st22{fill:#FFFFFF;stroke:#000000;stroke-miterlimit:10;}
	.st23{fill:none;stroke:#000000;stroke-width:3;stroke-miterlimit:10;stroke-dasharray:5;}
	.st24{fill:none;stroke:#FFFFFF;stroke-width:0.75;stroke-linejoin:round;}
	.st25{fill:none;stroke:#000000;stroke-miterlimit:10;stroke-dasharray:5;}
	.st26{fill:none;stroke:#FFFFFF;stroke-width:3;stroke-linejoin:round;}
	.st27{fill:none;stroke:#000000;stroke-width:1.3;stroke-linejoin:bevel;stroke-miterlimit:10;}
	.st28{fill:none;stroke:#000000;stroke-width:1.5;stroke-miterlimit:10;stroke-dasharray:5;}
	.st29{fill:none;stroke:#47738A;stroke-linejoin:bevel;stroke-miterlimit:10;}
	.st30{fill:none;}
	.st31{fill:none;stroke:#FFFFFF;stroke-width:5;stroke-linejoin:round;}
	.st32{fill:#D8EACC;}
	.st33{fill:#D8EACC;stroke:#000000;stroke-width:0.25;}
	.st34{fill:none;stroke:#000000;stroke-width:2;}
	.st35{fill:none;stroke:#FFFFFF;stroke-linejoin:round;}
	.st36{fill:none;stroke:#000000;stroke-width:1.9773;stroke-linecap:round;stroke-linejoin:round;}
	.st37{fill:none;stroke:#000000;stroke-width:2.5222;stroke-linecap:round;stroke-linejoin:round;}
	.st38{fill:#FFFFFF;stroke:#000000;stroke-width:2;stroke-miterlimit:10;}
	.st39{fill:#FFFFFF;stroke:#000000;stroke-width:1.0238;stroke-miterlimit:10;}
	.st40{fill:#FFFFFF;stroke:#000000;stroke-width:1.089;stroke-miterlimit:10;}
	.st41{fill:#FFFFFF;stroke:#000000;stroke-width:1.2553;stroke-miterlimit:10;}
	.st42{fill:url(#);}
	.st43{fill:none;stroke:#000000;stroke-width:1.7765;stroke-linejoin:bevel;stroke-miterlimit:10;}
	.st44{fill:none;stroke:#000000;stroke-width:2.3687;stroke-miterlimit:10;}
	.st45{fill:#D8EACC;stroke:#000000;stroke-width:2.0455;}
	.st46{fill:none;stroke:#000000;stroke-width:2.0455;stroke-linecap:round;stroke-miterlimit:10;stroke-dasharray:0,6.1366;}
	.st47{fill:#FFFFFF;stroke:#000000;stroke-width:2.3687;stroke-miterlimit:10;}
	.st48{fill:#FFFFFF;stroke:#000000;stroke-width:1.4998;stroke-miterlimit:10;}
	.st49{fill:#FFFFFF;stroke:#000000;stroke-width:0.6137;stroke-miterlimit:10;}
	.st50{fill:url(#);stroke:#000000;stroke-width:1.0228;}
	.st51{fill:none;stroke:#FFFFFF;stroke-width:4.0911;stroke-linejoin:round;}
	.st52{fill:none;stroke:#000000;stroke-width:2.4559;stroke-linecap:round;stroke-linejoin:round;}
	.st53{fill:none;stroke:#000000;stroke-width:3.1327;stroke-linecap:round;stroke-linejoin:round;}
	.st54{fill:none;stroke:#FFFFFF;stroke-width:4;stroke-linejoin:round;}
</style>
<g id="レイヤー_5">
	<rect x="-1985.06" y="-577.14" class="st0" width="5667.56" height="5248"/>
</g>
<g id="レイヤー_1">
</g>
<g id="レイヤー_3">
</g>
<g id="レイヤー_4">
</g>
<g id="レイヤー_2">
	<rect class="st0" width="700" height="500"/>
	<polygon class="グラフィックスタイル_x0020_2" points="42.58,179.84 42.58,363 404.98,358.95 399.32,173.87 	"/>
	<polyline class="st2" points="229.7,78.48 229.7,66.74 236.6,78.48 236.6,66.74 	"/>
	<g>
		<circle class="st3" cx="239.71" cy="109.13" r="24.35"/>
		<polygon points="242.7,122.46 255.34,126.82 234.5,85.96 233.15,131.81 		"/>
	</g>
	<g>
		<g>
			<path d="M546.7,223.16l0.04,1.48l-9.05,0.23l0.07,2.63l6.98-0.18l0.21,8.21c0.03,1.19-0.49,1.64-1.96,1.68
				c-0.84,0.02-1.69,0-2.53-0.06l-0.31-1.56c1.03,0.12,1.82,0.16,2.5,0.14c0.53-0.01,0.65-0.12,0.64-0.61l-0.16-6.32l-5.33,0.14
				l0.29,11.17l-1.63,0.04l-0.29-11.17l-5.06,0.13l0.22,8.62l-1.63,0.04l-0.26-10.06l6.69-0.17l-0.07-2.63l-8.87,0.23l-0.04-1.48
				l8.87-0.23l-0.07-2.82l1.63-0.04l0.07,2.82L546.7,223.16z"/>
			<path d="M532.64,257.81c1.71,1.62,3.64,2.21,7.1,2.15l8.09-0.21c-0.19,0.46-0.35,0.94-0.46,1.47l-7.82,0.2
				c-3.6,0.05-5.62-0.58-7.43-2.32c-0.9,1.11-2.04,2.26-3.13,3.11l-0.94-1.44c0.95-0.6,2.02-1.45,3.05-2.45l-0.14-5.51l-3.05,0.08
				l-0.04-1.4l4.61-0.12L532.64,257.81z M531.49,247.56c-1-1.35-2.08-2.56-3.09-3.42l1.11-0.98c1.22,1.02,2.3,2.12,3.17,3.28
				L531.49,247.56z M533.48,246.42l-0.03-1.3l3.64-0.09c-0.37-0.65-0.84-1.32-1.37-1.94l1.43-0.59c0.68,0.91,1.11,1.62,1.54,2.49
				l2.68-0.07c0.37-0.73,0.82-1.83,1.07-2.6l1.64,0.37c-0.31,0.73-0.72,1.56-1.12,2.19l3.85-0.1l0.03,1.3l-5.95,0.15
				c-0.09,0.35-0.4,1.23-0.6,1.72l5.17-0.13l0.27,10.49l-10.47,0.27l-0.27-10.49l3.79-0.1c0.23-0.69,0.4-1.25,0.49-1.72
				L533.48,246.42z M536.59,251.12l7.41-0.19l-0.05-1.89l-7.41,0.19L536.59,251.12z M536.66,254.1l7.41-0.19l-0.05-1.87l-7.41,0.19
				L536.66,254.1z M536.75,257.33l7.41-0.19l-0.05-2.06l-7.41,0.19L536.75,257.33z"/>
			<path d="M503.74,156.26c-1.04-1.17-2.2-2.25-3.29-3.09l1.06-1.16c1.2,0.83,2.4,1.92,3.35,3L503.74,156.26z M504.34,150.99
				c-0.81-1.01-2.08-2.23-3.21-3.13l1.04-1.1c1.13,0.79,2.38,1.92,3.29,2.98L504.34,150.99z M501.23,164.7
				c1.17-1.64,2.41-4.08,3.45-6.84l1.32,0.98c-0.94,2.6-2.17,5.16-3.42,7.05L501.23,164.7z M512.64,156.63l-0.02,0.04
				c-0.55,1.76-1.76,4.55-2.76,6.45l-0.08,0.19l1.52-0.16c1.52-0.16,3.84-0.47,5.66-0.76c-0.67-1.05-1.43-2.15-2.24-3.22l1.28-0.75
				c1.72,2.08,3.18,4.18,4.21,6.13l-1.44,0.96c-0.5-0.96-0.71-1.36-1.08-1.97l-0.2,0.05c-2.27,0.51-7.11,1.27-10.48,1.65l-0.58-1.61
				l0.82-0.06l0.25-0.03c0.04,0,0.29-0.03,0.55-0.06c1.04-2,2.13-4.58,2.87-6.91l-5.18,0.13l-0.04-1.38l6.28-0.16l-0.11-4.16
				l-5.17,0.13l-0.04-1.42l5.17-0.13l-0.08-3.31l1.61-0.04l0.08,3.31l5.47-0.14l0.04,1.42l-5.47,0.14l0.11,4.16l6.54-0.17l0.04,1.38
				l-7.49,0.19L512.64,156.63z"/>
			<path d="M512.47,209.48l-1.58,0.04l-0.17-6.58c-1.81,2.39-4.64,4.57-7.86,5.97l-0.98-1.29c3.06-1.23,5.57-2.92,7.49-5.03
				l-7.53,0.19l-0.04-1.38l8.87-0.23l-0.06-2.24l1.58-0.04l0.06,2.24l9.01-0.23l0.04,1.38l-7.61,0.19c1.94,1.72,4.53,3.1,7.85,4.16
				l-0.97,1.47c-3.56-1.37-6.23-3.07-8.27-5.33L512.47,209.48z M517.59,191.72c-1.07,1.53-2.72,3.1-4.62,4.42
				c1.9,0.94,4.22,1.6,7.88,2.23l-0.81,1.42c-2.96-0.52-6.15-1.55-8.45-2.73c-2.39,1.48-5.45,2.67-8.54,3.37l-0.86-1.25
				c3.11-0.64,6.09-1.7,8.1-2.9c-0.82-0.56-2.02-1.58-2.99-2.52c-1.13,0.93-2.2,1.64-3.52,2.29l-1.04-1.04
				c2.46-1.09,4.82-3.09,6.03-5.08l1.57,0.27c-0.3,0.48-0.38,0.56-0.65,0.96l7.04-0.18L517.59,191.72z M508.64,192.46
				c-0.14,0.17-0.2,0.21-0.32,0.34c0.89,0.94,2.09,1.88,3.3,2.61c1.72-1.22,2.87-2.21,3.61-3.12L508.64,192.46z"/>
			<path d="M511.38,214.53c-0.96,0.44-2.61,0.97-4,1.32l-0.45-1.47c1.88-0.5,3.98-1.34,4.91-1.96l1.34-0.03l0.43,16.98l-1.85,0.05
				L511.38,214.53z"/>
			<path d="M507.33,245.3l0.12-0.04l0.08-0.04c0.76-0.27,1.71-0.66,2.3-0.94l0.2,1.46c-1.71,0.83-4.46,1.93-6.58,2.6l-0.62-1.57
				c1.15-0.34,1.31-0.38,2.41-0.74l0.49-0.16l-0.25-9.67l-2.67,0.07l-0.04-1.46l6.52-0.17l0.04,1.46l-2.24,0.06L507.33,245.3z
				 M508.93,250.65c1.61-0.68,3.19-1.77,4.25-2.95l1.28,0.81c-1.24,1.35-2.86,2.58-4.36,3.3L508.93,250.65z M520.52,236.29
				l0.28,10.97l-9.88,0.25l-0.28-10.97l3.21-0.08c0.21-0.69,0.38-1.41,0.5-2.11l-5.14,0.13l-0.03-1.36l12.72-0.32l0.03,1.36
				l-5.97,0.15c-0.21,0.85-0.45,1.62-0.65,2.12L520.52,236.29z M512.2,237.76l0.05,2l6.81-0.17l-0.05-2L512.2,237.76z
				 M512.33,242.88l6.81-0.17l-0.05-1.91l-6.81,0.17L512.33,242.88z M512.42,246.2l6.81-0.17l-0.05-2.12l-6.81,0.17L512.42,246.2z
				 M521.24,251.45c-1.24-1.08-2.75-2.15-4.19-2.98l1.11-0.93c1.79,0.96,3.03,1.75,4.27,2.73L521.24,251.45z"/>
			<path d="M512.46,256.72c-0.96,0.44-2.61,0.97-4,1.32l-0.45-1.47c1.88-0.5,3.98-1.34,4.91-1.96l1.34-0.03l0.43,16.98l-1.85,0.05
				L512.46,256.72z"/>
			<path d="M510.2,284.44c-0.19,0.75-0.42,1.45-0.63,2.03l11.57-0.3c-0.1,2.51-0.46,4.77-0.94,5.91c-0.49,1.17-1.14,1.51-2.99,1.56
				c-1.09,0.03-2.55,0-3.56-0.05l-0.41-1.55c1.42,0.09,2.8,0.13,3.79,0.11c1.03-0.03,1.33-0.2,1.61-0.86
				c0.23-0.64,0.52-2.09,0.69-3.66l-10.27,0.26c-0.25,0.58-0.53,1.19-0.82,1.77l-1.68-0.43c0.71-1.34,1.35-2.92,1.92-4.74
				l-4.59,0.12l-0.04-1.4l19.55-0.5l0.04,1.4L510.2,284.44z M520.28,280.9l-13.44,0.34l-0.15-5.84l13.44-0.34L520.28,280.9z
				 M508.48,279.89l10.1-0.26l-0.08-3.17l-10.1,0.26L508.48,279.89z"/>
			<path d="M509.19,311.54c1.71,1.62,3.64,2.21,7.1,2.15l8.09-0.21c-0.19,0.46-0.35,0.94-0.46,1.47l-7.82,0.2
				c-3.6,0.05-5.62-0.58-7.43-2.32c-0.9,1.11-2.04,2.26-3.13,3.11l-0.94-1.44c0.95-0.6,2.02-1.45,3.05-2.45l-0.14-5.51l-3.05,0.08
				l-0.04-1.4l4.61-0.12L509.19,311.54z M508.04,301.3c-1-1.35-2.08-2.56-3.09-3.42l1.11-0.98c1.22,1.02,2.3,2.12,3.17,3.28
				L508.04,301.3z M510.03,300.16l-0.03-1.3l3.64-0.09c-0.37-0.65-0.84-1.32-1.37-1.94l1.43-0.59c0.68,0.91,1.11,1.62,1.55,2.49
				l2.67-0.07c0.37-0.73,0.82-1.83,1.07-2.6l1.64,0.37c-0.31,0.73-0.72,1.56-1.12,2.19l3.85-0.1l0.03,1.3l-5.95,0.15
				c-0.09,0.35-0.4,1.22-0.59,1.72l5.17-0.13l0.27,10.49l-10.47,0.27l-0.27-10.49l3.79-0.1c0.23-0.69,0.4-1.25,0.49-1.72
				L510.03,300.16z M513.13,304.85l7.41-0.19l-0.05-1.89l-7.41,0.19L513.13,304.85z M513.21,307.84l7.41-0.19l-0.05-1.87l-7.41,0.19
				L513.21,307.84z M513.29,311.07l7.41-0.19l-0.05-2.06l-7.41,0.19L513.29,311.07z"/>
			<path d="M512.88,325.54l-2.65,0.07l0.08,3.25l2.67-0.07l0.04,1.36l-2.67,0.07l0.11,4.3c0.55-0.16,2.1-0.65,3.12-1.01l0.18,1.33
				c-2.43,0.93-5.37,1.85-8.05,2.51l-0.57-1.45l1.08-0.25l-0.21-8.02l1.4-0.04l0.2,7.72l0.51-0.14l0.49-0.14l0.43-0.11l-0.24-9.28
				l-3,0.08l-0.17-6.69l7.08-0.18L512.88,325.54z M507.23,324.34l4.16-0.11l-0.1-3.97l-4.16,0.11L507.23,324.34z M522.87,319.91
				c-0.73,1.93-1.7,3.61-2.9,5.04c1.33,1.1,2.96,2.05,4.79,2.74l-0.75,1.38c-1.87-0.78-3.63-1.86-5-3.08
				c-1.47,1.46-3.21,2.64-5.24,3.53l-0.86-1.25c1.84-0.64,3.6-1.8,5.06-3.28c-0.7-0.74-1.42-1.69-1.92-2.57l-0.08,0.1l-0.04,0.06
				c-0.52,0.69-1.14,1.37-1.76,1.92l-1.04-1.06c1.51-1.21,2.96-3.43,3.63-5.55l1.53,0.21c-0.21,0.54-0.27,0.71-0.43,1.06l3.99-0.1
				L522.87,319.91z M523.23,337.3l-1.5,0.04l-0.03-1.21l-5.25,0.13l0.03,1.21l-1.5,0.04l-0.21-8.11l8.25-0.21L523.23,337.3z
				 M516.41,334.9l5.25-0.13l-0.11-4.16l-5.25,0.13L516.41,334.9z M516.79,321.28c0.6,1.01,1.18,1.76,2.11,2.71
				c0.9-1.09,1.57-2.2,2.13-3.53l-3.83,0.1c-0.08,0.15-0.16,0.29-0.33,0.61L516.79,321.28z"/>
		</g>
		<g>
			<path d="M505.99,168.8l0.29,11.13l3.19-0.08l0.04,1.58l-3.19,0.08l0.1,4.05l-1.81,0.05l-0.1-4.05l-8.48,0.22l-0.04-1.56
				l7.74-11.36L505.99,168.8z M504.31,174.06c-0.02-0.95-0.02-2.55,0.01-3.56l-0.08,0c-0.53,1.1-1.04,2.07-1.44,2.65l-4.72,7
				l6.38-0.16L504.31,174.06z"/>
			<path d="M511.42,183.82c0.48-2.22,2.23-4.46,4.96-6.39l0.53-0.36c2.83-1.95,3.57-2.87,3.53-4.37c-0.04-1.69-1.47-2.78-3.59-2.73
				c-1.73,0.04-2.93,0.71-4.2,2.31l-1.32-1.06c1.51-1.97,3.16-2.84,5.57-2.9c3.21-0.08,5.6,1.75,5.67,4.36
				c0.05,2.08-0.72,3.07-4.35,5.51l-0.73,0.49c-2.41,1.67-3.91,3.48-4.05,4.96l9.65-0.25l0.04,1.75l-11.67,0.3L511.42,183.82z"/>
		</g>
	</g>
	<g>
		<path d="M488.68,407.98c-1.24-1.11-2.01-2.16-2.81-3.76c-0.86-1.76-1.34-3.65-1.34-5.31c0-3.21,1.7-6.92,4.15-9.07h1.39
			c-2.79,3.19-3.95,5.88-3.95,9.09c0,3.19,1.18,5.88,3.95,9.06H488.68z"/>
		<path d="M508.75,392.38v1.28h-5.9v2.66h8.16v1.32h-8.16v4.55c0,0.99-0.46,1.36-1.74,1.36c-0.78,0-1.32-0.02-1.91-0.1l-0.21-1.36
			c0.69,0.1,1.49,0.15,1.87,0.15c0.4,0,0.52-0.11,0.52-0.57v-4.03h-8.14v-1.32h3.23v-4.32h1.51v4.32h3.38v-6.48h1.49v2.54H508.75z
			 M493.62,402.73c1.53-1.01,2.94-2.56,3.92-4.34l1.32,0.57c-1.01,1.91-2.43,3.55-4.11,4.76L493.62,402.73z M494.42,406.72
			c5.52-0.73,9.05-2.45,11.88-5.81l1.17,0.9c-3.15,3.53-6.97,5.46-12.25,6.23L494.42,406.72z M509.74,403.25
			c-1.41-1.72-2.85-3.11-4.24-4.22l1.07-0.82c1.47,1.03,3,2.45,4.34,3.97L509.74,403.25z"/>
		<path d="M517.58,404.01c1.55,1.55,3.32,2.14,6.53,2.16h7.51c-0.19,0.42-0.34,0.86-0.46,1.36h-7.26c-3.34-0.04-5.2-0.67-6.84-2.33
			c-0.86,1.01-1.95,2.04-2.98,2.81l-0.84-1.36c0.9-0.53,1.91-1.3,2.88-2.2v-5.12h-2.83v-1.3h4.28V404.01z M516.76,394.48
			c-0.9-1.28-1.87-2.43-2.79-3.25l1.05-0.88c1.11,0.97,2.08,2.03,2.87,3.11L516.76,394.48z M518.64,393.47v-1.2h3.38
			c-0.33-0.61-0.75-1.24-1.22-1.83l1.34-0.52c0.61,0.86,0.99,1.53,1.38,2.35h2.48c0.36-0.67,0.8-1.68,1.05-2.39l1.51,0.38
			c-0.31,0.67-0.71,1.43-1.09,2.01h3.57v1.2h-5.52c-0.09,0.32-0.4,1.13-0.59,1.59h4.79v9.74h-9.72v-9.74h3.51
			c0.23-0.63,0.4-1.15,0.5-1.59H518.64z M521.41,397.9h6.88v-1.76h-6.88V397.9z M521.41,400.67h6.88v-1.74h-6.88V400.67z
			 M521.41,403.67h6.88v-1.91h-6.88V403.67z"/>
		<path d="M546.02,394.04v1.2h-6.74v-1.18c-1.43,1.05-3.21,2.02-4.95,2.71l-0.9-1.2c3.59-1.28,6.36-3.21,8.21-5.73h1.6
			c2.14,2.33,4.78,3.97,8.58,5.35l-0.82,1.28c-3.34-1.26-6.32-3.19-8.48-5.44c-0.76,0.99-2.03,2.18-3.21,3.02H546.02z
			 M544.01,401.22c0.84-1.01,1.72-2.27,2.1-3.02h-9.92v-1.24h11.19l0.9,0.71c-0.8,1.34-1.62,2.5-2.48,3.55h3.59v6.76h-1.55v-0.99
			h-10.26v0.99h-1.57v-6.76H544.01z M537.59,405.77h10.26v-3.34h-10.26V405.77z"/>
		<path d="M561.44,390.54l-0.31,2.31h3.44v1.34h-3.61l-0.5,3.67c0.31,0.59,0.44,1.2,0.44,2.02c0,0.92-0.13,1.53-0.53,2.27
			c-0.46,0.9-0.78,1.81-0.78,2.23c0,0.78,0.96,1.05,3.84,1.05c1.66,0,2.87-0.13,3.55-0.4c0.71-0.27,0.96-0.69,0.96-1.62
			c0-1.17-0.42-2.62-1.11-3.82l1.34-0.23c0.82,1.45,1.3,2.98,1.3,4.22c0,2.56-1.28,3.25-6.11,3.25c-4.01,0-5.12-0.44-5.12-1.99
			c0-0.27,0.04-0.59,0.13-0.92c-0.44,0.11-0.84,0.19-1.07,0.19c-0.69,0-1.43-0.38-1.85-0.96c-0.42-0.57-0.65-1.43-0.65-2.52
			c0-2.24,1.53-4.07,3.4-4.07c0.36,0,0.61,0.06,0.97,0.19l0.33-2.58h-4.41v-1.34h4.58l0.32-2.45L561.44,390.54z M556.19,400.65
			c0,1.32,0.55,2.16,1.41,2.16c0.99,0,1.97-1.53,1.97-3.06c0-1.17-0.55-1.95-1.38-1.95C557.13,397.8,556.19,399.12,556.19,400.65z
			 M570.27,397.08c-0.88-1.41-2.56-3.32-3.74-4.28l1.07-0.9c1.47,1.24,2.98,2.87,3.8,4.11L570.27,397.08z"/>
		<path d="M574.56,407.98c2.77-3.19,3.96-5.88,3.96-9.07c0-3.19-1.17-5.86-3.96-9.07h1.39c1.24,1.13,2.01,2.16,2.81,3.76
			c0.86,1.76,1.34,3.65,1.34,5.31c0,3.21-1.7,6.92-4.15,9.07H574.56z"/>
	</g>
	<g>
		<path d="M421.92,193.23v1.21h-5.56v2.5h7.69v1.24h-7.69v4.29c0,0.94-0.43,1.28-1.64,1.28c-0.74,0-1.24-0.02-1.8-0.09l-0.2-1.28
			c0.65,0.09,1.4,0.14,1.76,0.14c0.38,0,0.49-0.11,0.49-0.54v-3.8h-7.67v-1.24h3.04v-4.07h1.42v4.07h3.19v-6.1h1.4v2.39H421.92z
			 M407.66,202.99c1.44-0.95,2.77-2.41,3.69-4.09l1.24,0.54c-0.95,1.8-2.29,3.35-3.87,4.48L407.66,202.99z M408.41,206.75
			c5.2-0.68,8.54-2.3,11.2-5.47l1.1,0.85c-2.97,3.33-6.57,5.15-11.54,5.87L408.41,206.75z M422.85,203.47
			c-1.33-1.62-2.68-2.93-4-3.98l1.01-0.77c1.39,0.97,2.83,2.3,4.09,3.75L422.85,203.47z"/>
		<path d="M411.15,223.63c1.46,1.46,3.13,2.02,6.16,2.03h7.08c-0.18,0.4-0.32,0.81-0.43,1.28h-6.84c-3.15-0.04-4.9-0.63-6.45-2.2
			c-0.81,0.95-1.84,1.93-2.81,2.65l-0.79-1.28c0.85-0.5,1.8-1.22,2.72-2.07v-4.83h-2.67V218h4.03V223.63z M410.37,214.65
			c-0.85-1.21-1.76-2.29-2.63-3.06l0.99-0.83c1.04,0.92,1.96,1.91,2.7,2.94L410.37,214.65z M412.14,213.69v-1.13h3.19
			c-0.31-0.58-0.7-1.17-1.15-1.73l1.26-0.49c0.58,0.81,0.94,1.44,1.3,2.21h2.34c0.34-0.63,0.76-1.58,0.99-2.25l1.42,0.36
			c-0.29,0.63-0.67,1.35-1.03,1.89h3.37v1.13h-5.2c-0.09,0.31-0.38,1.06-0.56,1.49h4.52v9.18h-9.17v-9.18h3.31
			c0.22-0.59,0.38-1.08,0.47-1.49H412.14z M414.75,217.87h6.48v-1.66h-6.48V217.87z M414.75,220.48h6.48v-1.64h-6.48V220.48z
			 M414.75,223.31h6.48v-1.8h-6.48V223.31z"/>
	</g>
	<g>
		<path d="M651.56,193.23v1.21H646v2.5h7.69v1.24H646v4.29c0,0.94-0.43,1.28-1.64,1.28c-0.74,0-1.24-0.02-1.8-0.09l-0.2-1.28
			c0.65,0.09,1.4,0.14,1.76,0.14c0.38,0,0.49-0.11,0.49-0.54v-3.8h-7.67v-1.24h3.04v-4.07h1.42v4.07h3.19v-6.1h1.4v2.39H651.56z
			 M637.3,202.99c1.44-0.95,2.77-2.41,3.69-4.09l1.24,0.54c-0.95,1.8-2.29,3.35-3.87,4.48L637.3,202.99z M638.06,206.75
			c5.2-0.68,8.54-2.3,11.2-5.47l1.1,0.85c-2.97,3.33-6.57,5.15-11.54,5.87L638.06,206.75z M652.5,203.47
			c-1.33-1.62-2.68-2.93-4-3.98l1.01-0.77c1.39,0.97,2.83,2.3,4.09,3.75L652.5,203.47z"/>
		<path d="M640.79,223.63c1.46,1.46,3.13,2.02,6.16,2.03h7.08c-0.18,0.4-0.32,0.81-0.43,1.28h-6.84c-3.15-0.04-4.9-0.63-6.45-2.2
			c-0.81,0.95-1.84,1.93-2.81,2.65l-0.79-1.28c0.85-0.5,1.8-1.22,2.72-2.07v-4.83h-2.67V218h4.03V223.63z M640.02,214.65
			c-0.85-1.21-1.76-2.29-2.63-3.06l0.99-0.83c1.04,0.92,1.96,1.91,2.7,2.94L640.02,214.65z M641.78,213.69v-1.13h3.19
			c-0.31-0.58-0.7-1.17-1.15-1.73l1.26-0.49c0.58,0.81,0.94,1.44,1.3,2.21h2.34c0.34-0.63,0.76-1.58,0.99-2.25l1.42,0.36
			c-0.29,0.63-0.67,1.35-1.03,1.89h3.37v1.13h-5.2c-0.09,0.31-0.38,1.06-0.56,1.49h4.52v9.18h-9.17v-9.18h3.31
			c0.22-0.59,0.38-1.08,0.47-1.49H641.78z M644.39,217.87h6.48v-1.66h-6.48V217.87z M644.39,220.48h6.48v-1.64h-6.48V220.48z
			 M644.39,223.31h6.48v-1.8h-6.48V223.31z"/>
	</g>
	<g>
		<path d="M501.44,367.73c-0.91,0.4-2.68,0.95-3.91,1.21l-0.44-1.51c1.86-0.38,3.93-1.15,4.88-1.8h1.35v16.64h-1.88V367.73z"/>
		<path d="M521.81,374.1c0,5.24-2.32,8.47-6.05,8.47c-3.73,0-6.05-3.25-6.05-8.47c0-5.24,2.32-8.47,6.07-8.47
			C519.49,365.63,521.81,368.88,521.81,374.1z M511.68,374.1c0,4.24,1.55,6.86,4.09,6.86c2.5,0,4.05-2.62,4.05-6.86
			c0-4.28-1.55-6.88-4.09-6.88C513.23,367.22,511.68,369.86,511.68,374.1z"/>
		<path d="M526.3,379.39v2.88h-2.88v-2.88H526.3z"/>
		<path d="M538.77,374.1c-0.83,1.71-2.52,2.76-4.4,2.76c-3.05,0-5.27-2.26-5.27-5.37c0-1.53,0.61-3.05,1.65-4.16
			c1.09-1.15,2.42-1.71,4.03-1.71c3.61,0,5.89,2.86,5.89,7.4c0,6.31-2.68,9.2-9.1,9.8l-0.83-1.49c5.18-0.22,7.71-2.48,8.09-7.24
			H538.77z M531.02,371.34c0,2.36,1.45,3.99,3.59,3.99c1.07,0,2.18-0.54,2.86-1.41c0.65-0.81,1.01-1.75,1.01-2.56
			c0-1.05-0.44-2.24-1.13-3.05c-0.67-0.77-1.49-1.13-2.58-1.13C532.69,367.18,531.02,369.04,531.02,371.34z"/>
		<path d="M553.73,365.93v1.63h-7.67l-0.63,5.73h0.08c0.95-0.89,2.26-1.37,3.77-1.37c3.21,0,5.41,2.12,5.41,5.16
			c0,3.21-2.44,5.49-5.89,5.49c-2.24,0-4.05-0.63-5.59-1.94l1.11-1.29c1.15,0.99,2.84,1.59,4.46,1.59c2.24,0,3.89-1.65,3.89-3.85
			c0-2.22-1.47-3.65-3.73-3.65c-1.47,0-3.03,0.73-3.71,1.73l-1.7-0.28l0.89-8.96H553.73z"/>
		<path d="M568.86,374.1c0,5.24-2.32,8.47-6.05,8.47c-3.73,0-6.05-3.25-6.05-8.47c0-5.24,2.32-8.47,6.07-8.47
			C566.54,365.63,568.86,368.88,568.86,374.1z M558.73,374.1c0,4.24,1.55,6.86,4.09,6.86c2.5,0,4.05-2.62,4.05-6.86
			c0-4.28-1.55-6.88-4.09-6.88C560.28,367.22,558.73,369.86,558.73,374.1z"/>
	</g>
	<polygon class="グラフィックスタイル_x0020_3" points="287.01,236.21 264.36,236.21 264.36,196.1 65.47,196.1 
		65.47,347.99 264.36,347.99 264.36,258.34 287.01,258.34 	"/>
	<g>
		<g>
			<g>
				<path class="st0" d="M285.31,317.08c-0.79-6-0.79-12,0-17.99c0.98-6.91,8.85-12.08,16.03-11.7c23.53,1.06,47.06,1.05,70.59-0.03
					c6.83-0.36,14.29,4.55,15.27,11.11c0.91,6.42,0.91,12.84,0,19.25c-0.99,6.56-8.45,11.46-15.27,11.11
					c-23.53-1.08-47.06-1.09-70.59-0.03C294.15,329.16,286.28,323.99,285.31,317.08z"/>
				<path class="st5" d="M284.45,308.09c0-3.01,0.2-6.03,0.6-9.02c0.95-6.75,8.57-12.31,16.31-11.91
					c23.41,1.06,47.15,1.05,70.56-0.03c7.32-0.38,14.58,4.9,15.55,11.31c0.91,6.41,0.91,12.91,0,19.31
					c-0.96,6.41-8.23,11.69-15.55,11.31c-23.41-1.08-47.15-1.09-70.56-0.03c-7.73,0.4-15.35-5.16-16.3-11.91v0
					C284.65,314.12,284.45,311.1,284.45,308.09z M387.62,308.09c0-3.21-0.23-6.41-0.68-9.6c-0.93-6.18-7.94-11.27-15-10.9
					c-23.43,1.08-47.19,1.09-70.62,0.03c-7.48-0.39-14.84,4.99-15.76,11.5c-0.79,5.95-0.79,11.99,0,17.94
					c0.92,6.51,8.29,11.89,15.76,11.5c23.43-1.06,47.19-1.05,70.62,0.03c7.06,0.37,14.07-4.73,15-10.9
					C387.4,314.5,387.62,311.29,387.62,308.09z"/>
			</g>
		</g>
		<g>
			<path class="st6" d="M298.55,322.44v-28.7c-0.38,0.03-0.75,0.07-1.13,0.12v28.47C297.79,322.36,298.17,322.4,298.55,322.44z"/>
		</g>
		<g>
			<path class="st5" d="M310.09,325.36l0.96-0.25c6.88-1.78,16.01-2.76,25.69-2.76c1.06,0,2.14,0.01,3.21,0.04l0.07,0.01l11.51,4.35
				l-0.9,0.02c-2.67,0.06-5.32,0.09-7.86,0.09c-10.88,0-21.54-0.47-31.68-1.41L310.09,325.36z M339.91,322.74
				c-1.06-0.02-2.12-0.04-3.17-0.04c-9.19,0-17.87,0.88-24.59,2.5c9.83,0.87,20.12,1.31,30.62,1.31c2.25,0,4.59-0.02,6.95-0.07
				L339.91,322.74z"/>
		</g>
		<g>
			<path class="st5" d="M310.09,290.81l1-0.09c10.15-0.94,20.81-1.41,31.68-1.41c2.52,0,5.17,0.03,7.86,0.09l0.9,0.02l-11.58,4.37
				c-1.07,0.02-2.16,0.04-3.21,0.04c-9.68,0-18.81-0.98-25.69-2.76L310.09,290.81z M349.72,289.73c-2.38-0.04-4.71-0.07-6.95-0.07
				c-10.5,0-20.79,0.44-30.62,1.31c6.72,1.61,15.4,2.5,24.59,2.5c1.04,0,2.11-0.01,3.17-0.04L349.72,289.73z"/>
		</g>
		<g>
			<path class="st0" d="M353.75,326.45h16.93c9.94,0,18.07-7.23,18.07-16.06v-4.61c0-8.83-8.13-16.06-18.07-16.06h-16.93
				c1.55,6.01,2.35,12.19,2.33,18.36C356.1,314.27,355.3,320.44,353.75,326.45z"/>
			<path d="M353.5,326.63l0.06-0.21c1.56-6.06,2.36-12.21,2.32-18.33c0-0.08,0-0.16,0-0.24c0-6.03-0.78-12.11-2.32-18.09l-0.06-0.21
				h17.17c10.07,0,18.26,7.28,18.26,16.23v4.61c0,8.95-8.19,16.23-18.26,16.23H353.5z M388.55,305.78c0-8.76-8.02-15.88-17.87-15.88
				h-16.68c1.51,5.93,2.28,11.97,2.28,17.95c0,0.16,0,0.32,0,0.48c0,5.98-0.77,12.02-2.28,17.95h16.68
				c9.85,0,17.87-7.13,17.87-15.88V305.78z"/>
		</g>
		<g>
			<path class="st0" d="M314.12,321.36c1.5-8.85,1.5-17.69,0-26.54c-5.19-1.22-10.39-1.6-15.58-1.13v28.8
				C303.73,322.96,308.92,322.58,314.12,321.36z"/>
			<path d="M298.34,322.65v-29.12l0.18-0.02c5.19-0.47,10.46-0.09,15.65,1.14l0.12,0.03l0.02,0.11c1.5,8.82,1.5,17.77,0,26.59
				l-0.02,0.11l-0.12,0.03c-5.19,1.22-10.46,1.61-15.65,1.14L298.34,322.65z M298.73,293.84v28.49c5.05,0.44,10.17,0.06,15.21-1.11
				c1.47-8.71,1.47-17.55,0-26.26C308.9,293.78,303.78,293.41,298.73,293.84z"/>
		</g>
		<g>
			<path class="st6" d="M298.53,322.49v-28.8c-0.38,0.03-0.75,0.07-1.13,0.12v28.57C297.78,322.41,298.16,322.45,298.53,322.49z"/>
		</g>
		<g>
			<path class="st0" d="M297.41,293.8h-8.12c-2.13,3.52-3.47,8.61-3.47,14.28c0,5.67,1.34,10.77,3.47,14.28h8.12V293.8z"/>
			<path d="M285.61,308.09c0-5.47,1.27-10.7,3.49-14.37l0.06-0.09h8.44v28.92h-8.44l-0.06-0.09
				C286.89,318.79,285.61,313.55,285.61,308.09z M289.4,293.98c-2.16,3.61-3.39,8.75-3.39,14.11c0,5.36,1.24,10.5,3.39,14.11h7.81
				v-28.22H289.4z"/>
		</g>
		<g>
			<path class="st6" d="M353.85,326.33l1.09,0.36c3.77-12.15,3.77-25.05,0-37.2l-1.09,0.36
				C357.48,301.77,357.48,314.4,353.85,326.33z"/>
		</g>
		<g>
			<path class="st0" d="M353.91,290.35l-13.73,4.46v26.54l13.73,4.46C357.43,314.23,357.43,301.95,353.91,290.35z"/>
			<path d="M339.99,321.48v-26.78l14.05-4.57l0.06,0.18c3.54,11.63,3.54,23.93,0,35.56l-0.06,0.18L339.99,321.48z M340.38,294.94
				v26.3l13.4,4.36c3.45-11.46,3.45-23.55,0-35.01L340.38,294.94z"/>
		</g>
		<g>
			<g>
				<path class="st5" d="M289.29,322.32v0.18c0,2.16,1.99,3.93,4.42,3.93h0.33C291.99,325.53,290.32,324.09,289.29,322.32z"/>
			</g>
			<g>
				<path class="st5" d="M289.29,293.85v-0.18c0-2.16,1.99-3.93,4.42-3.93h0.33C291.99,290.64,290.32,292.09,289.29,293.85z"/>
			</g>
		</g>
		<g>
			<g>
				<path class="st0" d="M343.02,331.34c0.6,0.13,1.31,0,1.58-0.28l3.11-3.2c0.05-0.05,0.08-0.11,0.1-0.17h-2.9l-2.25,3.57
					L343.02,331.34z"/>
				<path class="st5" d="M342.36,331.38l2.44-3.86h3.25l-0.05,0.21c-0.02,0.09-0.07,0.17-0.14,0.25l-3.11,3.2
					c-0.32,0.33-1.1,0.48-1.78,0.33L342.36,331.38z M345.02,327.86l-2.07,3.28l0.11,0.02c0.57,0.12,1.19-0.02,1.39-0.22l2.99-3.08
					H345.02z"/>
			</g>
			<g>
				<path class="st0" d="M343.02,284.84c0.6-0.13,1.31,0,1.58,0.28l3.11,3.2c0.05,0.05,0.08,0.11,0.1,0.17h-2.9l-2.25-3.57
					L343.02,284.84z"/>
				<path class="st5" d="M342.36,284.8l0.61-0.13c0.68-0.14,1.46,0,1.78,0.33l3.11,3.2c0.07,0.08,0.12,0.16,0.14,0.25l0.05,0.21
					h-3.25L342.36,284.8z M347.45,288.31l-2.99-3.08c-0.2-0.2-0.81-0.34-1.39-0.22l-0.11,0.02l2.07,3.28H347.45z"/>
			</g>
		</g>
		<g>
			<g>
				<path class="st5" d="M364.2,317.54c6.49,0,12.21-1.02,15.51-2.57c-3.39,1.15-8.29,1.87-13.74,1.87c-2.64,0-5.14-0.17-7.41-0.47
					v0.91C360.33,317.45,362.23,317.54,364.2,317.54z"/>
			</g>
			<g>
				<path class="st5" d="M364.2,298.63c6.49,0,12.21,1.02,15.51,2.57c-3.39-1.15-8.29-1.87-13.74-1.87c-2.64,0-5.14,0.17-7.41,0.47
					v-0.91C360.33,298.73,362.23,298.63,364.2,298.63z"/>
			</g>
		</g>
		<g>
			
				<rect x="313.88" y="295.05" transform="matrix(-1.836970e-16 1 -1 -1.836970e-16 635.234 -19.0606)" class="st0" width="26.54" height="26.07"/>
			<path d="M313.92,321.53v-26.89h26.46v26.89H313.92z M314.31,294.99v26.19h25.68v-26.19H314.31z"/>
		</g>
	</g>
	<g>
		<path d="M103.07,261.29c-2.47,1.1-7.3,2.58-10.64,3.29l-1.21-4.12c5.05-1.04,10.7-3.13,13.28-4.88h3.68v45.27h-5.1V261.29z"/>
		<path d="M137.74,279.29c-0.55,1.98-1.21,3.84-1.81,5.38h30.84c-0.44,6.69-1.54,12.67-2.91,15.69c-1.37,3.07-3.13,3.95-8.07,3.95
			c-2.91,0-6.8-0.16-9.49-0.38l-0.99-4.17c3.79,0.33,7.46,0.55,10.1,0.55c2.74,0,3.57-0.44,4.33-2.19c0.66-1.7,1.54-5.54,2.09-9.71
			h-27.38c-0.71,1.54-1.48,3.13-2.3,4.66l-4.44-1.26c1.98-3.51,3.79-7.68,5.43-12.51H120.9v-3.73h52.13v3.73H137.74z M164.85,270.56
			h-35.83v-15.58h35.83V270.56z M133.46,267.05h26.94v-8.45h-26.94V267.05z"/>
		<path d="M187.18,277.48c-1.76,5.6-4,10.64-6.64,14.87l-2.03-4.39c3.57-5.32,6.37-11.96,8.29-19.81h-7.52v-3.84h7.9v-11.74h4.06
			v11.74h5.71v3.84h-5.71v5.1c2.47,2.03,4.77,4.23,6.75,6.42l-2.3,3.68c-0.99-1.48-2.8-3.79-4.45-5.65v27h-4.06V277.48z
			 M217.8,285.11c3.51,5.05,8.12,9.11,13.99,12.4l-2.58,3.84c-5.76-3.62-10.86-8.67-14.16-14.05v17.39h-3.9v-17.06
			c-3.46,5.87-8.12,10.7-14.1,14.49l-2.74-3.35c5.98-3.35,10.75-7.85,14.38-13.66h-10.15v-19.53h12.62v-4.06h-15.47v-3.57h15.47
			v-5.38h3.9v5.38h15.8v3.57h-15.8v4.06h13v19.53H217.8z M202.44,268.92v4.66h8.72v-4.66H202.44z M202.44,276.93v4.77h8.72v-4.77
			H202.44z M215.06,273.58h9.16v-4.66h-9.16V273.58z M215.06,281.7h9.16v-4.77h-9.16V281.7z"/>
	</g>
	<g>
		
			<rect x="100.65" y="32.7" transform="matrix(6.123234e-17 -1 1 6.123234e-17 39.8385 200.7655)" class="st10" width="39.3" height="95.53"/>
		<g>
			<path class="st0" d="M89.77,86.31h15.55v2.09H89.77v1.41h-2.32V71.25h17.34v2.01H89.77V86.31z M90.45,83.96
				c2.12-1.08,3.67-2.24,5.41-4.02c-1.33-1.12-3.09-2.38-4.83-3.52l1.41-1.58c1.72,1.08,3.21,2.14,4.85,3.4
				c1.02-1.35,1.85-2.72,2.7-4.44l2.09,1.02c-0.93,1.85-1.97,3.5-3.01,4.85c1.16,0.95,2.7,2.32,4.25,3.79l-1.64,1.72
				c-1.35-1.35-2.86-2.74-4.08-3.79c-1.74,1.85-3.55,3.19-5.76,4.35L90.45,83.96z"/>
			<path class="st0" d="M118.93,73.08h-8.69v-1.87h19.7v1.87h-8.81v1.99h4.44v10.35H114.6V75.07h4.33V73.08z M127.14,86.76v-11.7
				h2.12v14.74h-2.12v-1.14h-14.12v1.14h-2.09V75.07h2.09v11.7H127.14z M116.57,76.77v2.51h2.45v-2.51H116.57z M116.57,80.87v2.8
				h2.45v-2.8H116.57z M121.05,79.28h2.55v-2.51h-2.55V79.28z M121.05,83.67h2.55v-2.8h-2.55V83.67z"/>
			<path class="st0" d="M153.13,89.81h-2.26v-1.06h-13.44v1.06h-2.24V71.07h17.94V89.81z M137.43,86.81h13.44V72.95h-13.44V86.81z
				 M148.94,85.91c-1.31-0.81-2.84-1.68-4.23-2.38c-1.51,1.27-3.34,2.28-5.37,3.01l-1.29-1.56c1.89-0.6,3.24-1.31,4.67-2.45
				l-0.54-0.25c-1.35-0.66-2.34-1.1-4.11-1.82l0.93-1.53c2.09,0.77,3.3,1.24,5.29,2.18c1.68-1.78,3.09-4.33,3.86-7.03l2.01,0.62
				c-0.85,2.63-2.38,5.5-3.94,7.34c0.1,0.06,0.1,0.06,0.19,0.1c1.04,0.52,2.18,1.14,3.75,2.07L148.94,85.91z M140.21,79.13
				c-0.48-1.62-1.04-2.99-1.66-4.06l1.91-0.77c0.66,1.16,1.22,2.49,1.72,4.04L140.21,79.13z M143.78,78.32
				c-0.5-1.58-1.06-2.92-1.68-4.09l1.82-0.73c0.75,1.33,1.39,2.8,1.72,4L143.78,78.32z"/>
		</g>
	</g>
	<g>
		
			<rect x="267.92" y="210.76" transform="matrix(-1.836970e-16 1 -1 -1.836970e-16 503.9051 -75.1883)" class="グラフィックスタイル_x0020_4" width="43.26" height="7.2"/>
		
			<rect x="275.12" y="210.76" transform="matrix(-1.836970e-16 1 -1 -1.836970e-16 511.1036 -82.3868)" class="グラフィックスタイル_x0020_4" width="43.26" height="7.2"/>
		
			<rect x="253.77" y="203.81" transform="matrix(-1.836970e-16 1 -1 -1.836970e-16 489.7581 -61.0413)" class="st4" width="43.26" height="21.1"/>
		<polygon points="266.62,213.79 278.99,222.28 278.99,205.29 		"/>
	</g>
	<line class="st8" x1="400.26" y1="141.79" x2="404.98" y2="389.68"/>
	<line class="グラフィックスタイル" x1="658.22" y1="141.79" x2="662.62" y2="386.53"/>
	<polyline class="st9" points="417.96,364.51 404.34,356.02 662,352.01 649.17,345.4 	"/>
	<g>
		<g>
			<line class="st8" x1="431.09" y1="141.79" x2="431.15" y2="144.79"/>
			<line class="st11" x1="431.27" y1="150.69" x2="436" y2="383.73"/>
			<line class="st8" x1="436.06" y1="386.68" x2="436.12" y2="389.68"/>
		</g>
	</g>
	<g>
		<g>
			<line class="st8" x1="627.97" y1="141.79" x2="628.03" y2="144.79"/>
			<line class="st11" x1="628.15" y1="150.69" x2="632.88" y2="383.73"/>
			<line class="st8" x1="632.94" y1="386.68" x2="633" y2="389.68"/>
		</g>
	</g>
</g>
</svg>
