<?xml version="1.0" encoding="utf-8"?>
<!-- Generator: Adobe Illustrator 23.0.3, SVG Export Plug-In . SVG Version: 6.00 Build 0)  -->
<svg version="1.1" xmlns="http://www.w3.org/2000/svg" xmlns:xlink="http://www.w3.org/1999/xlink" x="0px" y="0px"
	 viewBox="0 0 700 500" style="enable-background:new 0 0 700 500;" xml:space="preserve">
<style type="text/css">
	.グラフィックスタイル{fill:none;stroke:#000000;stroke-width:2;stroke-miterlimit:10;}
	.グラフィックスタイル_x0020_2{fill:#D8EACC;stroke:#000000;stroke-width:2;}
	.グラフィックスタイル_x0020_3{fill:#FFFFFF;stroke:#000000;stroke-width:2;stroke-miterlimit:10;}
	.グラフィックスタイル_x0020_4{fill:#FFFFFF;stroke:#000000;stroke-width:1.2664;stroke-miterlimit:10;}
	.st0{fill:#FFFFFF;}
	.st1{fill:#D8EACC;stroke:#000000;stroke-width:2;}
	.st2{fill:none;stroke:#000000;stroke-width:1.4318;stroke-linecap:round;stroke-linejoin:round;}
	.st3{fill:none;stroke:#000000;stroke-width:1.8264;stroke-linecap:round;stroke-linejoin:round;}
	.st4{fill:#FFFFFF;stroke:#000000;stroke-width:1.2664;stroke-miterlimit:10;}
	.st5{fill:#030201;}
	.st6{fill:#242323;}
	.st7{fill:none;stroke:#000000;stroke-width:2;stroke-linejoin:round;stroke-miterlimit:10;}
	.st8{fill:none;stroke:#000000;stroke-width:2;stroke-miterlimit:10;}
	.st9{fill:none;stroke:#000000;stroke-width:2;stroke-linejoin:bevel;stroke-miterlimit:10;}
	.st10{fill:#E83589;}
	.st11{fill:none;stroke:#000000;stroke-width:2;stroke-miterlimit:10;stroke-dasharray:5.901,5.901;}
	.st12{fill:none;stroke:#000000;stroke-width:1.5;stroke-linejoin:bevel;stroke-miterlimit:10;}
	.st13{fill:#D8EACC;stroke:#000000;stroke-width:1.5;}
	.st14{fill:none;stroke:#000000;stroke-width:1.5;stroke-miterlimit:10;}
	.st15{fill:none;stroke:#000000;stroke-linejoin:bevel;stroke-miterlimit:10;}
	.st16{fill:#FFFFFF;stroke:#000000;stroke-width:1.5;stroke-miterlimit:10;}
	.st17{fill:#FFFFFF;stroke:#DE0000;stroke-width:2;stroke-miterlimit:10;}
	.st18{fill:#DE0000;}
	.st19{fill:none;stroke:#000000;stroke-miterlimit:10;}
	.st20{fill:none;stroke:#000000;stroke-miterlimit:10;stroke-dasharray:3.0312,3.0312;}
	.st21{fill:url(#);stroke:#000000;stroke-width:1.1494;}
	.st22{fill:#FFFFFF;stroke:#000000;stroke-miterlimit:10;}
	.st23{fill:none;stroke:#000000;stroke-width:3;stroke-miterlimit:10;stroke-dasharray:5;}
	.st24{fill:none;stroke:#FFFFFF;stroke-width:0.75;stroke-linejoin:round;}
	.st25{fill:none;stroke:#000000;stroke-miterlimit:10;stroke-dasharray:5;}
	.st26{fill:none;stroke:#FFFFFF;stroke-width:3;stroke-linejoin:round;}
	.st27{fill:none;stroke:#000000;stroke-width:1.3;stroke-linejoin:bevel;stroke-miterlimit:10;}
	.st28{fill:none;stroke:#000000;stroke-width:1.5;stroke-miterlimit:10;stroke-dasharray:5;}
	.st29{fill:none;stroke:#47738A;stroke-linejoin:bevel;stroke-miterlimit:10;}
	.st30{fill:none;}
	.st31{fill:none;stroke:#FFFFFF;stroke-width:5;stroke-linejoin:round;}
	.st32{fill:#D8EACC;}
	.st33{fill:#D8EACC;stroke:#000000;stroke-width:0.25;}
	.st34{fill:none;stroke:#000000;stroke-width:2;}
	.st35{fill:none;stroke:#FFFFFF;stroke-linejoin:round;}
	.st36{fill:none;stroke:#000000;stroke-width:1.9773;stroke-linecap:round;stroke-linejoin:round;}
	.st37{fill:none;stroke:#000000;stroke-width:2.5222;stroke-linecap:round;stroke-linejoin:round;}
	.st38{fill:#FFFFFF;stroke:#000000;stroke-width:2;stroke-miterlimit:10;}
	.st39{fill:#FFFFFF;stroke:#000000;stroke-width:1.0238;stroke-miterlimit:10;}
	.st40{fill:#FFFFFF;stroke:#000000;stroke-width:1.089;stroke-miterlimit:10;}
	.st41{fill:#FFFFFF;stroke:#000000;stroke-width:1.2553;stroke-miterlimit:10;}
	.st42{fill:url(#);}
	.st43{fill:none;stroke:#000000;stroke-width:1.7765;stroke-linejoin:bevel;stroke-miterlimit:10;}
	.st44{fill:none;stroke:#000000;stroke-width:2.3687;stroke-miterlimit:10;}
	.st45{fill:#D8EACC;stroke:#000000;stroke-width:2.0455;}
	.st46{fill:none;stroke:#000000;stroke-width:2.0455;stroke-linecap:round;stroke-miterlimit:10;stroke-dasharray:0,6.1366;}
	.st47{fill:#FFFFFF;stroke:#000000;stroke-width:2.3687;stroke-miterlimit:10;}
	.st48{fill:#FFFFFF;stroke:#000000;stroke-width:1.4998;stroke-miterlimit:10;}
	.st49{fill:#FFFFFF;stroke:#000000;stroke-width:0.6137;stroke-miterlimit:10;}
	.st50{fill:url(#);stroke:#000000;stroke-width:1.0228;}
	.st51{fill:none;stroke:#FFFFFF;stroke-width:4.0911;stroke-linejoin:round;}
	.st52{fill:none;stroke:#000000;stroke-width:2.4559;stroke-linecap:round;stroke-linejoin:round;}
	.st53{fill:none;stroke:#000000;stroke-width:3.1327;stroke-linecap:round;stroke-linejoin:round;}
	.st54{fill:none;stroke:#FFFFFF;stroke-width:4;stroke-linejoin:round;}
</style>
<g id="レイヤー_5">
	<rect x="-369.06" y="-577.14" class="st0" width="5667.56" height="5248"/>
</g>
<g id="レイヤー_1">
</g>
<g id="レイヤー_3">
</g>
<g id="レイヤー_4">
</g>
<g id="レイヤー_2">
	<rect class="st0" width="700" height="500"/>
	<polyline class="グラフィックスタイル_x0020_2" points="473.43,134.12 76.98,134.12 76.98,352 107.37,382.39 
		510.12,382.39 	"/>
	<polyline class="st2" points="216.71,59 216.71,47.26 223.61,59 223.61,47.26 	"/>
	<g>
		<circle class="st3" cx="212.17" cy="89.31" r="24.35"/>
		<polygon points="209.29,102.66 218.93,111.93 217.18,66.09 196.69,107.13 		"/>
	</g>
	<g>
		<g>
			<path d="M544.12,193.68c-1.18-1.31-2.45-2.49-3.71-3.39l1.06-1.19c1.22,0.79,2.44,1.82,3.79,3.19L544.12,193.68z M546.57,204.44
				c1.9,1.47,4.09,1.89,7.73,1.43l9.01-1.32c-0.18,0.47-0.27,0.94-0.35,1.62l-8.46,1.24c-3.92,0.53-6.39,0.04-8.46-1.66
				c-0.83,1.54-1.78,2.89-2.67,3.85l-1.13-1.43c0.9-0.9,1.84-1.98,2.71-3.11l-0.84-5.74l-3.06,0.45l-0.22-1.5l4.73-0.69
				L546.57,204.44z M559.6,191.3l1.58,10.81c0.17,1.19-0.16,1.64-1.37,1.82c-0.64,0.09-1.46,0.17-2.26,0.2l-0.47-1.37
				c0.7,0.01,1.36-0.04,2-0.14c0.46-0.07,0.52-0.14,0.45-0.63l-0.34-2.31l-3.94,0.58l0.57,3.91l-1.54,0.23l-0.57-3.91l-3.8,0.56
				l0.61,4.18l-1.6,0.23l-1.81-12.33l5.89-0.86c-1.31-0.48-2.67-0.93-4.1-1.33l0.9-1.05c1.32,0.39,1.95,0.59,3.16,1.02
				c0.94-0.65,2.27-1.7,2.84-2.23l-9.06,1.33l-0.2-1.36l11.06-1.62l1.04,0.79c-1.01,1.07-2.69,2.46-4.35,3.6l0.29,0.14
				c0.55,0.21,0.59,0.23,0.88,0.37L559.6,191.3z M549.22,196.32l3.8-0.56l-0.32-2.15l-3.8,0.56L549.22,196.32z M549.72,199.78
				l3.8-0.56l-0.32-2.2l-3.8,0.56L549.72,199.78z M554.56,195.54l3.94-0.58l-0.32-2.15l-3.93,0.58L554.56,195.54z M558.68,196.22
				l-3.94,0.58l0.32,2.2l3.94-0.58L558.68,196.22z"/>
			<path d="M552.53,218.94l-2.84,0.42l0.51,3.47l2.86-0.42l0.21,1.45l-2.86,0.42l0.67,4.59c0.57-0.24,2.17-0.97,3.22-1.48l0.36,1.41
				c-2.48,1.31-5.51,2.67-8.3,3.73l-0.8-1.48l1.13-0.41l-1.26-8.57l1.5-0.22l1.21,8.24l0.53-0.21l0.51-0.21l0.45-0.18l-1.45-9.92
				l-3.21,0.47l-1.05-7.14l7.56-1.11L552.53,218.94z M546.32,218.39l4.44-0.65l-0.62-4.24l-4.44,0.65L546.32,218.39z M562.51,211.62
				c-0.54,2.17-1.36,4.08-2.46,5.77c1.56,1.01,3.43,1.81,5.48,2.32l-0.62,1.57c-2.11-0.59-4.13-1.53-5.76-2.66
				c-1.38,1.75-3.1,3.24-5.16,4.46l-1.08-1.24c1.89-0.93,3.62-2.39,5-4.17c-0.84-0.71-1.74-1.63-2.39-2.5l-0.07,0.12l-0.03,0.07
				c-0.47,0.81-1.04,1.61-1.64,2.28l-1.25-1.01c1.46-1.5,2.73-4.06,3.17-6.42l1.67,0.03c-0.16,0.61-0.2,0.79-0.32,1.19l4.27-0.62
				L562.51,211.62z M565.14,230.21l-1.6,0.23l-0.19-1.3l-5.61,0.82l0.19,1.3l-1.6,0.23l-1.27-8.66l8.82-1.29L565.14,230.21z
				 M556.17,213.87c0.78,1.01,1.49,1.74,2.61,2.63c0.82-1.29,1.4-2.56,1.83-4.06l-4.09,0.6c-0.07,0.17-0.13,0.33-0.28,0.69
				L556.17,213.87z M557.53,228.52l5.61-0.82l-0.65-4.44l-5.61,0.82L557.53,228.52z"/>
			<path d="M502.61,98.72c-1.26-1.12-2.65-2.13-3.92-2.88l0.99-1.38c1.39,0.74,2.82,1.74,3.98,2.79L502.61,98.72z M502.58,93
				c-1-0.98-2.51-2.12-3.84-2.94l0.98-1.31c1.32,0.71,2.79,1.75,3.91,2.77L502.58,93z M501.02,108.09c1.05-1.9,2.06-4.68,2.81-7.78
				l1.54,0.87c-0.67,2.91-1.66,5.81-2.76,7.99L501.02,108.09z M512.2,97.97l-0.02,0.05c-0.36,1.96-1.3,5.11-2.12,7.27L510,105.5
				l1.61-0.37c1.61-0.37,4.05-1,5.97-1.55c-0.85-1.04-1.81-2.12-2.82-3.16l1.27-0.97c2.11,2,3.94,4.07,5.31,6.03l-1.42,1.22
				c-0.66-0.96-0.94-1.37-1.41-1.97l-0.21,0.08c-2.37,0.84-7.46,2.28-11.02,3.12l-0.83-1.65l0.87-0.17l0.26-0.06
				c0.04-0.01,0.3-0.07,0.59-0.13c0.86-2.28,1.69-5.19,2.18-7.77l-5.54,0.81l-0.22-1.47l6.71-0.98l-0.65-4.44l-5.52,0.81l-0.22-1.52
				l5.52-0.81l-0.52-3.54l1.71-0.25l0.52,3.54l5.85-0.86l0.22,1.52l-5.85,0.86l0.65,4.44l6.99-1.02l0.22,1.47l-8,1.17L512.2,97.97z"
				/>
			<path d="M508.42,114.32c0.43,0.48,0.85,1.02,1.22,1.62l-1.56,0.72c-0.4-0.73-0.91-1.46-1.45-2.08l-1.54,0.23
				c-0.53,1.15-1.09,2.09-1.77,2.91l-1.39-0.88c1.25-1.46,2.07-3.22,2.44-5.27l1.76,0.04c-0.16,0.72-0.25,1.07-0.45,1.71l5.65-0.83
				l0.2,1.38L508.42,114.32z M513.1,125.29c-1.65,2.53-4.11,4.73-7.24,6.5l-1.32-1.2c2.77-1.33,5.29-3.27,7-5.43l0.09-0.13
				l-6.59,0.97c0.11-1.83,0.13-3.57,0.07-5.06l7.21-1.06l-0.3-2.02l-7.83,1.15l-0.2-1.38l16.9-2.48l0.69,4.73l-7.41,1.08l0.33,2.26
				l8.6-1.26c0.22,2.42,0.2,4.3-0.06,5.24c-0.24,0.96-0.83,1.36-2.22,1.56c-0.81,0.12-1.72,0.21-2.66,0.23l-0.66-1.57
				c1.03-0.02,2.08-0.08,2.71-0.17c0.81-0.12,1.05-0.31,1.17-0.93c0.12-0.56,0.16-1.53,0.1-2.73l-6.77,0.99l0.98,6.68l-1.67,0.25
				L513.1,125.29z M506.88,122.02c0.03,0.49,0.04,1.68,0.02,2.31l5.94-0.87l-0.33-2.27L506.88,122.02z M517.43,113
				c0.36,0.33,0.87,0.9,1.32,1.49l-1.53,0.76c-0.54-0.8-1.04-1.42-1.59-1.99l-1.47,0.22c-0.33,0.97-0.84,1.92-1.35,2.62l-1.41-0.76
				c0.97-1.35,1.63-3.16,1.88-5.13l1.73-0.01c-0.12,0.69-0.2,1.11-0.37,1.78l7.28-1.07l0.2,1.38L517.43,113z M519.4,116.78
				l-5.72,0.84l0.3,2.02l5.72-0.84L519.4,116.78z"/>
			<path d="M522.24,177.9l-1.69,0.25l-1.03-7.03c-1.63,2.8-4.38,5.49-7.65,7.41l-1.22-1.26c3.12-1.71,5.59-3.85,7.38-6.36
				l-8.04,1.18l-0.22-1.47l9.47-1.39l-0.35-2.4l1.69-0.25l0.35,2.4l9.63-1.41l0.22,1.47l-8.13,1.19c2.3,1.59,5.25,2.73,8.95,3.45
				l-0.85,1.7c-3.99-1.01-7.08-2.49-9.55-4.64L522.24,177.9z M525.44,158.21c-0.95,1.78-2.52,3.67-4.38,5.33
				c2.16,0.76,4.73,1.17,8.73,1.37l-0.68,1.63c-3.24-0.18-6.8-0.87-9.41-1.83c-2.37,1.9-5.5,3.57-8.72,4.71l-1.08-1.24
				c3.25-1.08,6.31-2.61,8.31-4.16c-0.95-0.49-2.36-1.43-3.53-2.31c-1.09,1.15-2.15,2.04-3.48,2.91l-1.25-0.98
				c2.5-1.49,4.77-3.93,5.8-6.22l1.72,0.09c-0.26,0.55-0.33,0.65-0.58,1.12l7.52-1.1L525.44,158.21z M515.94,160.16
				c-0.13,0.2-0.19,0.25-0.3,0.4c1.07,0.9,2.48,1.75,3.87,2.37c1.68-1.53,2.79-2.74,3.46-3.81L515.94,160.16z"/>
			<path d="M518.02,184.98c0.11-1.41,0.15-2.33,0.2-3.55l1.79-0.04l0,0.16c-0.1,1.5-0.16,2.43-0.23,3.18l7.36-1.08l0.23,1.54
				l-7.74,1.13c-0.55,5.76-1.46,10.9-2.65,14.89l-1.76-0.39c1.24-4.27,2.15-9.12,2.65-14.24l-4.59,0.67l-0.23-1.54L518.02,184.98z
				 M533.69,198.13c-1.03,0.31-2.23,0.57-3.64,0.78c-2.02,0.3-4.05,0.37-5.16,0.17c-1.31-0.24-2.13-1.04-2.31-2.31
				c-0.12-0.81,0.05-1.67,0.43-2.26l1.51,0.65c-0.16,0.29-0.25,0.75-0.19,1.13c0.09,0.64,0.47,1.05,1.07,1.15
				c0.83,0.13,2.39,0.08,3.75-0.12c1.34-0.2,2.86-0.53,4.09-0.91L533.69,198.13z M522.57,189.36c2.44-0.67,5.25-1.26,7.78-1.63
				l0.95-0.14l0.34,1.59l-1.39,0.2c-2.35,0.34-4.79,0.84-7.24,1.49L522.57,189.36z"/>
			<path d="M521.4,208.05c0.11-1.41,0.15-2.33,0.2-3.55l1.79-0.04l0,0.16c-0.1,1.5-0.16,2.43-0.23,3.18l6.16-0.9l0.23,1.54
				l-6.53,0.96c-0.55,5.76-1.46,10.9-2.65,14.89l-1.76-0.39c1.24-4.27,2.15-9.12,2.65-14.24l-4.59,0.67l-0.23-1.54L521.4,208.05z
				 M537.07,221.21c-1.03,0.31-2.23,0.57-3.64,0.78c-2.02,0.3-4.05,0.37-5.16,0.17c-1.31-0.24-2.13-1.04-2.31-2.31
				c-0.12-0.81,0.05-1.67,0.43-2.26l1.51,0.65c-0.16,0.29-0.25,0.76-0.19,1.13c0.09,0.64,0.47,1.05,1.07,1.15
				c0.83,0.13,2.39,0.08,3.75-0.12c1.34-0.2,2.86-0.53,4.09-0.91L537.07,221.21z M525.95,212.44c2.44-0.67,5.25-1.26,7.78-1.63
				l0.95-0.14l0.34,1.59l-1.38,0.2c-2.35,0.34-4.79,0.84-7.24,1.49L525.95,212.44z M532.23,207.34c-0.6-1.06-1.45-2.21-2.43-3.28
				l1.25-0.7c0.96,1.05,1.86,2.24,2.43,3.24L532.23,207.34z M534.83,206.09c-0.64-1.14-1.54-2.38-2.41-3.28l1.2-0.67
				c0.87,0.86,1.81,2.07,2.44,3.17L534.83,206.09z"/>
			<path d="M523.95,227.77l1.82,12.4c0.42,2.86,2.2,4.12,5.21,3.68c1.91-0.28,3.6-1.51,4.44-3.25c0.71-1.47,1.19-3.25,1.46-5.49
				l1.71,0.76c-0.35,2.5-0.82,4.19-1.54,5.59c-1.19,2.31-3.25,3.73-5.91,4.12c-4.07,0.6-6.58-1.22-7.16-5.17l-1.81-12.38
				L523.95,227.77z"/>
			<path d="M530.91,248.91l1.69-0.25l0.19,1.32l7.06-1.03l0.37,2.53l2.62-0.38l0.18,1.21l-2.62,0.38l0.38,2.59l-7.06,1.03l0.18,1.21
				l8.24-1.21l0.18,1.21l-8.24,1.21l0.18,1.23l9.67-1.42l0.18,1.25l-20.88,3.06l-0.18-1.25l9.52-1.39l-0.18-1.23l-7.94,1.16
				l-0.18-1.21l7.94-1.16l-0.18-1.21l-7.01,1.03l-0.17-1.19l7.01-1.03l-0.21-1.41l-9.52,1.39l-0.18-1.21l9.52-1.39l-0.2-1.34
				l-7.01,1.03l-0.17-1.19l7.01-1.03L530.91,248.91z M542.65,268.52l-1.74,0.25l-0.14-0.97l-12.05,1.76l0.14,0.97l-1.74,0.25
				l-1.06-7.21l15.52-2.27L542.65,268.52z M528.17,265.79l12.05-1.76l-0.18-1.25l-12.05,1.76L528.17,265.79z M528.54,268.32
				l12.05-1.76l-0.2-1.36l-12.05,1.76L528.54,268.32z M532.97,251.17l0.2,1.34l5.36-0.79l-0.2-1.34L532.97,251.17z M533.34,253.72
				l0.21,1.41l5.36-0.79l-0.21-1.41L533.34,253.72z"/>
			<path d="M533.86,275.48c-0.34-0.62-0.95-1.88-1.21-2.43l1.7-0.36c0.27,0.61,0.9,1.87,1.27,2.53l7.47-1.09l0.22,1.49l-6.92,1.01
				c0.55,1,1.42,2.35,2.1,3.33l6.82-1l0.22,1.49l-6.02,0.88c0.87,1.18,2.02,2.47,3.02,3.47l-1.63,0.82
				c-1.15-1.23-2.29-2.58-3.3-4.01l-9.87,1.44l-0.22-1.49l9.15-1.34c-0.72-1.09-1.43-2.26-2.02-3.34l-7.28,1.07l-0.22-1.49
				L533.86,275.48z M543.24,290.64c-1.7,0.34-2.6,0.52-3.5,0.65c-2.77,0.41-4.8,0.48-6.18,0.25c-2.16-0.36-3.51-1.55-3.76-3.31
				c-0.13-0.86,0.02-1.71,0.36-2.28l1.47,0.57c-0.14,0.56-0.18,1.04-0.12,1.48c0.28,1.91,2.65,2.44,7.62,1.71
				c1.19-0.17,2.34-0.41,3.71-0.72L543.24,290.64z"/>
			<path d="M532.84,301.52c-1.18-1.31-2.45-2.49-3.71-3.39l1.06-1.19c1.22,0.79,2.44,1.82,3.79,3.2L532.84,301.52z M535.29,312.27
				c1.9,1.47,4.09,1.89,7.73,1.43l9.01-1.32c-0.18,0.48-0.27,0.94-0.35,1.62l-8.46,1.24c-3.92,0.53-6.39,0.04-8.46-1.66
				c-0.83,1.54-1.78,2.89-2.67,3.85l-1.13-1.43c0.9-0.89,1.84-1.98,2.71-3.11l-0.84-5.74l-3.06,0.45l-0.22-1.49l4.73-0.69
				L535.29,312.27z M548.32,299.14l1.58,10.82c0.17,1.19-0.16,1.64-1.37,1.82c-0.64,0.09-1.46,0.17-2.26,0.2l-0.47-1.37
				c0.7,0.01,1.36-0.04,2-0.14c0.46-0.07,0.52-0.14,0.45-0.63l-0.34-2.31l-3.93,0.58l0.57,3.91l-1.54,0.23l-0.57-3.91l-3.8,0.56
				l0.61,4.18l-1.6,0.23l-1.81-12.33l5.89-0.86c-1.31-0.48-2.67-0.93-4.1-1.33l0.9-1.05c1.31,0.39,1.95,0.59,3.16,1.02
				c0.94-0.65,2.27-1.7,2.84-2.23l-9.06,1.33l-0.2-1.36l11.06-1.62l1.04,0.79c-1.01,1.07-2.69,2.46-4.35,3.6l0.29,0.14
				c0.55,0.21,0.59,0.23,0.88,0.36L548.32,299.14z M537.95,304.16l3.8-0.56l-0.32-2.15l-3.8,0.56L537.95,304.16z M538.45,307.61
				l3.8-0.56l-0.32-2.2l-3.8,0.56L538.45,307.61z M543.29,303.38l3.93-0.58l-0.32-2.15l-3.93,0.58L543.29,303.38z M547.4,304.05
				l-3.93,0.58l0.32,2.2l3.93-0.58L547.4,304.05z"/>
			<path d="M541.26,326.77l-2.84,0.42l0.51,3.47l2.86-0.42l0.21,1.45l-2.86,0.42l0.67,4.59c0.57-0.24,2.17-0.97,3.22-1.48l0.36,1.41
				c-2.48,1.31-5.51,2.67-8.3,3.73l-0.8-1.48l1.13-0.41l-1.26-8.57l1.49-0.22l1.21,8.24l0.53-0.21l0.51-0.21l0.45-0.18l-1.45-9.91
				l-3.21,0.47l-1.05-7.14l7.56-1.11L541.26,326.77z M535.05,326.23l4.44-0.65l-0.62-4.24l-4.44,0.65L535.05,326.23z M551.23,319.45
				c-0.54,2.17-1.36,4.08-2.46,5.77c1.56,1.01,3.43,1.81,5.48,2.32l-0.62,1.57c-2.11-0.59-4.13-1.53-5.76-2.66
				c-1.38,1.75-3.1,3.24-5.16,4.46l-1.08-1.24c1.89-0.93,3.62-2.39,5-4.17c-0.85-0.71-1.74-1.63-2.39-2.5l-0.07,0.12l-0.03,0.07
				c-0.47,0.81-1.04,1.61-1.64,2.28l-1.25-1.01c1.46-1.5,2.73-4.06,3.17-6.42l1.67,0.03c-0.16,0.61-0.2,0.79-0.32,1.19l4.27-0.62
				L551.23,319.45z M553.86,338.04l-1.6,0.23l-0.19-1.3l-5.6,0.82l0.19,1.3l-1.6,0.24l-1.27-8.66l8.81-1.29L553.86,338.04z
				 M544.89,321.71c0.78,1.01,1.49,1.73,2.61,2.63c0.82-1.29,1.4-2.56,1.83-4.06l-4.09,0.6c-0.06,0.17-0.13,0.33-0.28,0.69
				L544.89,321.71z M546.25,336.35l5.6-0.82l-0.65-4.44l-5.6,0.82L546.25,336.35z"/>
		</g>
		<g>
			<path d="M510.06,134.89l1.74,11.89l3.41-0.5l0.25,1.69l-3.41,0.5l0.63,4.33l-1.93,0.28l-0.63-4.33l-9.06,1.33l-0.24-1.67
				l6.83-13.17L510.06,134.89z M508.94,140.74c-0.15-1.01-0.35-2.73-0.45-3.82l-0.09,0.01c-0.42,1.25-0.85,2.35-1.2,3.03l-4.16,8.11
				l6.81-1L508.94,140.74z"/>
			<path d="M521.36,141.1c3.14-0.46,4.71-1.86,4.41-3.92c-0.27-1.82-1.91-2.75-4.28-2.4c-1.78,0.26-2.89,0.96-4.03,2.54l-1.48-1.04
				c1.14-1.72,3.12-2.93,5.29-3.24c3.54-0.52,6.28,0.99,6.67,3.67c0.33,2.22-1.08,3.98-3.74,4.7l0.01,0.09
				c3.22-0.25,5.32,1.2,5.71,3.9c0.46,3.14-1.84,5.52-5.97,6.13c-2.68,0.39-4.82-0.1-6.63-1.57l1.11-1.49
				c1.51,1.13,3.26,1.54,5.24,1.25c2.81-0.41,4.31-1.98,3.99-4.15c-0.36-2.46-2.29-3.35-6.11-2.79l-1.43,0.21l-0.24-1.67
				L521.36,141.1z"/>
		</g>
	</g>
	<g>
		<path d="M539.44,355.13l1.53,10.16l2.91-0.44l0.22,1.45l-2.91,0.44l0.56,3.7l-1.65,0.25l-0.56-3.7l-7.74,1.16l-0.21-1.43
			l5.8-11.28L539.44,355.13z M538.5,360.13c-0.13-0.86-0.31-2.34-0.39-3.27l-0.08,0.01c-0.36,1.07-0.72,2.01-1.01,2.59l-3.53,6.95
			l5.82-0.88L538.5,360.13z"/>
		<path d="M548.19,366.72l0.4,2.69l-2.69,0.4l-0.4-2.69L548.19,366.72z"/>
		<path d="M561.16,359.74c0.73,4.88-0.97,8.21-4.45,8.74c-3.48,0.52-6.09-2.18-6.82-7.04c-0.73-4.88,0.97-8.22,4.47-8.74
			C557.82,352.17,560.43,354.88,561.16,359.74z M551.73,361.16c0.59,3.94,2.41,6.17,4.77,5.81c2.33-0.35,3.41-3.01,2.82-6.95
			c-0.6-3.98-2.41-6.19-4.78-5.83C552.22,354.53,551.14,357.21,551.73,361.16z"/>
		<path d="M574.13,357.79c0.73,4.88-0.97,8.21-4.45,8.74c-3.48,0.52-6.09-2.18-6.82-7.04c-0.73-4.88,0.97-8.22,4.47-8.74
			C570.78,350.23,573.39,352.93,574.13,357.79z M564.69,359.21c0.59,3.94,2.41,6.17,4.77,5.81c2.33-0.35,3.41-3.01,2.82-6.95
			c-0.6-3.98-2.41-6.19-4.78-5.83C565.18,352.59,564.1,355.27,564.69,359.21z"/>
		<path d="M587.09,355.84c0.73,4.88-0.97,8.21-4.45,8.74c-3.48,0.52-6.09-2.18-6.82-7.04c-0.73-4.88,0.97-8.22,4.47-8.74
			C583.74,348.28,586.36,350.98,587.09,355.84z M577.66,357.26c0.59,3.94,2.41,6.17,4.77,5.81c2.33-0.35,3.41-3.01,2.82-6.95
			c-0.6-3.98-2.41-6.19-4.78-5.83C578.14,350.64,577.06,353.32,577.66,357.26z"/>
	</g>
	<line class="グラフィックスタイル" x1="469.55" y1="107.59" x2="521.48" y2="463.44"/>
	<rect x="100.45" y="162.54" class="グラフィックスタイル_x0020_3" width="277.92" height="136.27"/>
	<g>
		
			<rect x="360.32" y="272.07" transform="matrix(-1.836970e-16 1 -1 -1.836970e-16 661.0179 -106.4056)" class="グラフィックスタイル_x0020_4" width="46.78" height="10.46"/>
		
			<rect x="343.68" y="265.9" transform="matrix(-1.836970e-16 1 -1 -1.836970e-16 644.3785 -89.7663)" class="st4" width="46.78" height="22.81"/>
		<polygon points="357.57,276.69 370.96,285.88 370.96,267.5 		"/>
	</g>
	<g>
		<g>
			<g>
				<path class="st0" d="M421.18,168.01c6.68-0.84,13.36-0.84,20.05,0c7.7,1.03,13.46,9.33,13.04,16.91
					c-1.18,24.81-1.17,49.62,0.03,74.44c0.4,7.2-5.07,15.07-12.37,16.11c-7.15,0.96-14.3,0.96-21.45,0
					c-7.3-1.04-12.77-8.91-12.37-16.11c1.2-24.81,1.22-49.62,0.03-74.44C407.73,177.34,413.49,169.04,421.18,168.01z"/>
				<path class="st5" d="M431.21,167.11c3.36,0,6.72,0.21,10.05,0.63c7.52,1.01,13.71,9.04,13.27,17.2
					c-1.18,24.68-1.16,49.71,0.03,74.4c0.43,7.72-5.46,15.38-12.6,16.39c-7.14,0.96-14.38,0.96-21.52,0
					c-7.14-1.02-13.03-8.68-12.6-16.4c1.2-24.69,1.21-49.72,0.03-74.4c-0.45-8.15,5.75-16.19,13.27-17.19h0
					C424.49,167.32,427.85,167.11,431.21,167.11z M431.21,275.9c3.57,0,7.15-0.24,10.69-0.71c6.88-0.98,12.56-8.37,12.15-15.82
					c-1.2-24.71-1.21-49.76-0.03-74.46c0.43-7.88-5.56-15.65-12.81-16.62c-6.63-0.83-13.35-0.83-19.98,0
					c-7.26,0.97-13.25,8.74-12.81,16.62c1.18,24.7,1.17,49.76-0.03,74.47c-0.41,7.45,5.26,14.84,12.15,15.82
					C424.06,275.66,427.63,275.9,431.21,275.9z"/>
			</g>
		</g>
		<g>
			<path class="st6" d="M415.22,181.97h31.97c-0.04-0.4-0.08-0.79-0.13-1.19h-31.71C415.3,181.17,415.26,181.57,415.22,181.97z"/>
		</g>
		<g>
			<path class="st5" d="M411.96,194.14l0.28,1.01c1.98,7.26,3.07,16.88,3.07,27.09c0,1.12-0.01,2.26-0.04,3.39l-0.02,0.08
				l-4.85,12.13l-0.02-0.95c-0.06-2.82-0.1-5.61-0.1-8.29c0-11.47,0.53-22.71,1.57-33.41L411.96,194.14z M414.88,225.59
				c0.03-1.12,0.04-2.24,0.04-3.34c0-9.69-0.99-18.84-2.78-25.93c-0.97,10.36-1.46,21.22-1.46,32.28c0,2.38,0.03,4.84,0.08,7.32
				L414.88,225.59z"/>
		</g>
		<g>
			<path class="st5" d="M450.45,194.14l0.1,1.05c1.04,10.7,1.57,21.94,1.57,33.41c0,2.66-0.03,5.45-0.1,8.29l-0.02,0.95l-4.86-12.21
				c-0.03-1.13-0.04-2.27-0.04-3.39c0-10.21,1.09-19.83,3.07-27.09L450.45,194.14z M451.66,235.93c0.05-2.51,0.08-4.97,0.08-7.32
				c0-11.07-0.49-21.92-1.46-32.28c-1.8,7.09-2.78,16.24-2.78,25.93c0,1.1,0.01,2.22,0.04,3.34L451.66,235.93z"/>
		</g>
		<g>
			<path class="st0" d="M410.75,240.18v17.85c0,10.48,8.05,19.05,17.89,19.05h5.14c9.84,0,17.89-8.57,17.89-19.05v-17.85
				c-6.69,1.64-13.58,2.48-20.46,2.46C424.32,242.66,417.44,241.81,410.75,240.18z"/>
			<path d="M410.55,239.92l0.24,0.06c6.75,1.65,13.61,2.49,20.42,2.45c0.09,0,0.18,0,0.27,0c6.71,0,13.49-0.82,20.15-2.45l0.24-0.06
				v18.11c0,10.62-8.11,19.26-18.08,19.26h-5.14c-9.97,0-18.08-8.64-18.08-19.26V239.92z M433.78,276.87
				c9.76,0,17.7-8.45,17.7-18.84v-17.59c-6.61,1.6-13.33,2.4-20,2.4c-0.18,0-0.36,0-0.54,0c-6.66,0-13.39-0.81-20-2.4v17.59
				c0,10.39,7.94,18.84,17.7,18.84H433.78z"/>
		</g>
		<g>
			<path class="st0" d="M416.42,198.39c9.86,1.58,19.71,1.58,29.57,0c1.36-5.48,1.78-10.95,1.26-16.43h-32.09
				C414.64,187.43,415.06,192.91,416.42,198.39z"/>
			<path d="M414.99,181.75h32.44l0.02,0.19c0.52,5.48,0.1,11.03-1.27,16.51l-0.03,0.13l-0.13,0.02c-9.83,1.58-19.8,1.58-29.63,0
				l-0.13-0.02l-0.03-0.13c-1.36-5.47-1.79-11.03-1.27-16.51L414.99,181.75z M447.07,182.16h-31.74
				c-0.49,5.33-0.07,10.72,1.24,16.04c9.71,1.55,19.55,1.55,29.26,0C447.15,192.88,447.56,187.49,447.07,182.16z"/>
		</g>
		<g>
			<path class="st6" d="M415.16,181.96h32.09c-0.04-0.4-0.08-0.79-0.13-1.19h-31.83C415.24,181.16,415.2,181.56,415.16,181.96z"/>
		</g>
		<g>
			<path class="st0" d="M447.12,180.76v-8.57c-3.92-2.25-9.6-3.66-15.91-3.66s-12,1.41-15.91,3.66v8.57H447.12z"/>
			<path d="M431.21,168.33c6.09,0,11.92,1.34,16.01,3.69l0.1,0.06v8.9H415.1v-8.9l0.1-0.06
				C419.28,169.67,425.12,168.33,431.21,168.33z M446.93,172.32c-4.02-2.27-9.74-3.58-15.72-3.58s-11.7,1.3-15.72,3.58v8.24h31.44
				V172.32z"/>
		</g>
		<g>
			<path class="st6" d="M410.88,240.29l-0.4,1.15c13.54,3.98,27.91,3.98,41.45,0l-0.4-1.15
				C438.24,244.11,424.17,244.11,410.88,240.29z"/>
		</g>
		<g>
			<path class="st0" d="M450.96,240.35l-4.97-14.47h-29.57l-4.97,14.47C424.37,244.06,438.05,244.06,450.96,240.35z"/>
			<path d="M416.29,225.67h29.84l5.09,14.82l-0.2,0.06c-12.96,3.73-26.66,3.73-39.61,0l-0.2-0.06L416.29,225.67z M445.85,226.08
				h-29.3l-4.85,14.13c12.76,3.63,26.24,3.63,39,0L445.85,226.08z"/>
		</g>
		<g>
			<g>
				<path class="st5" d="M415.35,172.21h-0.2c-2.41,0-4.38,2.1-4.38,4.66v0.35C411.77,175.05,413.38,173.29,415.35,172.21z"/>
			</g>
			<g>
				<path class="st5" d="M447.06,172.21h0.2c2.41,0,4.38,2.1,4.38,4.66v0.35C450.64,175.05,449.03,173.29,447.06,172.21z"/>
			</g>
		</g>
		<g>
			<g>
				<path class="st0" d="M405.3,228.86c-0.14,0.63,0,1.38,0.31,1.67l3.57,3.28c0.06,0.06,0.12,0.09,0.19,0.1v-3.06l-3.98-2.37
					L405.3,228.86z"/>
				<path class="st5" d="M405.26,228.17l4.31,2.57v3.43l-0.23-0.05c-0.1-0.02-0.19-0.07-0.28-0.15l-3.57-3.28
					c-0.37-0.34-0.53-1.16-0.37-1.87L405.26,228.17z M409.18,230.98l-3.66-2.18l-0.03,0.11c-0.13,0.61,0.02,1.26,0.25,1.46
					l3.44,3.16V230.98z"/>
			</g>
			<g>
				<path class="st0" d="M457.11,228.86c0.14,0.63,0,1.38-0.31,1.67l-3.57,3.28c-0.06,0.06-0.12,0.09-0.19,0.1v-3.06l3.98-2.37
					L457.11,228.86z"/>
				<path class="st5" d="M457.15,228.17l0.14,0.65c0.16,0.71-0.01,1.54-0.37,1.87l-3.57,3.28c-0.08,0.08-0.18,0.13-0.28,0.15
					l-0.23,0.05v-3.43L457.15,228.17z M453.24,233.53l3.44-3.16c0.23-0.21,0.38-0.86,0.25-1.46l-0.03-0.11l-3.66,2.18V233.53z"/>
			</g>
		</g>
		<g>
			<g>
				<path class="st5" d="M420.68,251.19c0,6.85,1.14,12.87,2.87,16.35c-1.28-3.57-2.09-8.74-2.09-14.49c0-2.78,0.19-5.42,0.53-7.82
					h-1.01C420.78,247.12,420.68,249.12,420.68,251.19z"/>
			</g>
			<g>
				<path class="st5" d="M441.74,251.19c0,6.85-1.14,12.87-2.87,16.35c1.28-3.57,2.09-8.74,2.09-14.49c0-2.78-0.19-5.42-0.53-7.82
					h1.01C441.63,247.12,441.74,249.12,441.74,251.19z"/>
			</g>
		</g>
		<g>
			
				<rect x="416.42" y="198.38" transform="matrix(-1 -1.224647e-16 1.224647e-16 -1 862.4131 424.2542)" class="st0" width="29.57" height="27.49"/>
			<path d="M416.23,198.18h29.96v27.9h-29.96V198.18z M445.8,198.59h-29.18v27.08h29.18V198.59z"/>
		</g>
	</g>
	<g>
		<g>
			<g>
				<path class="st0" d="M361.82,356.32c-0.84-6.68-0.84-13.36,0-20.05c1.03-7.7,9.33-13.46,16.91-13.04
					c24.81,1.18,49.62,1.17,74.44-0.03c7.2-0.4,15.07,5.07,16.11,12.37c0.96,7.15,0.96,14.3,0,21.45
					c-1.04,7.3-8.91,12.77-16.11,12.37c-24.81-1.2-49.62-1.22-74.44-0.03C371.15,369.78,362.85,364.02,361.82,356.32z"/>
				<path class="st5" d="M360.92,346.3c0-3.36,0.21-6.72,0.63-10.05c1.01-7.52,9.04-13.71,17.2-13.27
					c24.68,1.18,49.71,1.16,74.4-0.03c7.72-0.43,15.38,5.46,16.39,12.6c0.96,7.14,0.96,14.38,0,21.52
					c-1.02,7.14-8.68,13.03-16.4,12.6c-24.69-1.2-49.72-1.21-74.4-0.03c-8.15,0.45-16.19-5.75-17.19-13.27v0
					C361.13,353.02,360.92,349.66,360.92,346.3z M469.71,346.3c0-3.57-0.24-7.15-0.71-10.69c-0.98-6.88-8.37-12.56-15.82-12.15
					c-24.71,1.2-49.76,1.21-74.47,0.03c-7.88-0.43-15.65,5.56-16.62,12.81c-0.83,6.63-0.83,13.35,0,19.98
					c0.97,7.26,8.74,13.25,16.62,12.81c24.7-1.18,49.76-1.17,74.47,0.03c7.45,0.41,14.84-5.26,15.82-12.15
					C469.47,353.44,469.71,349.87,469.71,346.3z"/>
			</g>
		</g>
		<g>
			<path class="st6" d="M375.78,362.29v-31.97c-0.4,0.04-0.79,0.08-1.19,0.13v31.71C374.99,362.2,375.39,362.25,375.78,362.29z"/>
		</g>
		<g>
			<path class="st5" d="M387.96,365.55l1.01-0.28c7.26-1.98,16.88-3.07,27.09-3.07c1.12,0,2.26,0.01,3.39,0.04l0.08,0.02l12.13,4.85
				l-0.95,0.02c-2.82,0.06-5.61,0.1-8.29,0.1c-11.47,0-22.71-0.53-33.41-1.57L387.96,365.55z M419.4,362.62
				c-1.12-0.03-2.24-0.04-3.34-0.04c-9.69,0-18.84,0.99-25.93,2.78c10.36,0.97,21.22,1.46,32.28,1.46c2.38,0,4.84-0.03,7.32-0.08
				L419.4,362.62z"/>
		</g>
		<g>
			<path class="st5" d="M387.96,327.05l1.05-0.1c10.7-1.04,21.94-1.57,33.41-1.57c2.66,0,5.45,0.03,8.29,0.1l0.95,0.02l-12.21,4.86
				c-1.13,0.03-2.27,0.04-3.39,0.04c-10.21,0-19.83-1.09-27.09-3.07L387.96,327.05z M429.74,325.85c-2.51-0.05-4.97-0.08-7.32-0.08
				c-11.07,0-21.92,0.49-32.28,1.46c7.09,1.8,16.24,2.78,25.93,2.78c1.1,0,2.22-0.01,3.34-0.04L429.74,325.85z"/>
		</g>
		<g>
			<path class="st0" d="M433.99,366.76h17.85c10.48,0,19.05-8.05,19.05-17.89v-5.14c0-9.84-8.57-17.89-19.05-17.89h-17.85
				c1.64,6.69,2.48,13.58,2.46,20.46C436.47,353.18,435.63,360.07,433.99,366.76z"/>
			<path d="M433.73,366.95l0.06-0.24c1.65-6.75,2.49-13.61,2.45-20.42c0-0.09,0-0.18,0-0.27c0-6.71-0.82-13.49-2.45-20.15
				l-0.06-0.24h18.11c10.62,0,19.26,8.11,19.26,18.08v5.14c0,9.97-8.64,18.08-19.26,18.08H433.73z M470.68,343.73
				c0-9.76-8.45-17.7-18.84-17.7h-17.59c1.6,6.61,2.4,13.33,2.4,20c0,0.18,0,0.36,0,0.54c0,6.66-0.81,13.39-2.4,20h17.59
				c10.39,0,18.84-7.94,18.84-17.7V343.73z"/>
		</g>
		<g>
			<path class="st0" d="M392.2,361.08c1.58-9.86,1.58-19.71,0-29.57c-5.48-1.36-10.95-1.78-16.43-1.26v32.09
				C381.25,362.87,386.73,362.45,392.2,361.08z"/>
			<path d="M375.56,362.52v-32.44l0.19-0.02c5.48-0.52,11.03-0.1,16.51,1.27l0.13,0.03l0.02,0.13c1.58,9.83,1.58,19.8,0,29.63
				l-0.02,0.13l-0.13,0.03c-5.47,1.36-11.03,1.79-16.51,1.27L375.56,362.52z M375.98,330.43v31.74c5.33,0.49,10.72,0.07,16.04-1.24
				c1.55-9.71,1.55-19.55,0-29.26C386.7,330.36,381.3,329.95,375.98,330.43z"/>
		</g>
		<g>
			<path class="st6" d="M375.77,362.34v-32.09c-0.4,0.04-0.79,0.08-1.19,0.13v31.83C374.98,362.26,375.37,362.31,375.77,362.34z"/>
		</g>
		<g>
			<path class="st0" d="M374.58,330.39h-8.57c-2.25,3.92-3.66,9.6-3.66,15.91s1.41,12,3.66,15.91h8.57V330.39z"/>
			<path d="M362.15,346.3c0-6.09,1.34-11.92,3.69-16.01l0.06-0.1h8.9v32.22h-8.9l-0.06-0.1
				C363.49,358.22,362.15,352.39,362.15,346.3z M366.14,330.58c-2.27,4.02-3.58,9.74-3.58,15.72c0,5.98,1.3,11.7,3.58,15.72h8.24
				v-31.44H366.14z"/>
		</g>
		<g>
			<path class="st6" d="M434.1,366.63l1.15,0.4c3.98-13.54,3.98-27.91,0-41.45l-1.15,0.4C437.93,339.26,437.93,353.34,434.1,366.63z
				"/>
		</g>
		<g>
			<path class="st0" d="M434.16,326.54l-14.47,4.97v29.57l14.47,4.97C437.88,353.14,437.88,339.46,434.16,326.54z"/>
			<path d="M419.48,361.22v-29.84l14.82-5.09l0.06,0.2c3.73,12.96,3.73,26.66,0,39.61l-0.06,0.2L419.48,361.22z M419.89,331.65v29.3
				l14.13,4.85c3.63-12.76,3.63-26.24,0-39L419.89,331.65z"/>
		</g>
		<g>
			<g>
				<path class="st5" d="M366.02,362.16v0.2c0,2.41,2.1,4.38,4.66,4.38h0.35C368.87,365.73,367.11,364.12,366.02,362.16z"/>
			</g>
			<g>
				<path class="st5" d="M366.02,330.45v-0.2c0-2.41,2.1-4.38,4.66-4.38h0.35C368.87,326.87,367.11,328.48,366.02,330.45z"/>
			</g>
		</g>
		<g>
			<g>
				<path class="st0" d="M422.68,372.2c0.63,0.14,1.38,0,1.67-0.31l3.28-3.57c0.06-0.06,0.09-0.12,0.1-0.19h-3.06l-2.37,3.98
					L422.68,372.2z"/>
				<path class="st5" d="M421.98,372.25l2.57-4.31h3.43l-0.05,0.23c-0.02,0.1-0.07,0.19-0.15,0.28l-3.28,3.57
					c-0.34,0.37-1.16,0.53-1.87,0.37L421.98,372.25z M424.79,368.33l-2.18,3.66l0.11,0.03c0.61,0.13,1.26-0.02,1.46-0.25l3.16-3.44
					H424.79z"/>
			</g>
			<g>
				<path class="st0" d="M422.68,320.4c0.63-0.14,1.38,0,1.67,0.31l3.28,3.57c0.06,0.06,0.09,0.12,0.1,0.19h-3.06l-2.37-3.98
					L422.68,320.4z"/>
				<path class="st5" d="M421.98,320.35l0.65-0.14c0.71-0.16,1.54,0.01,1.87,0.37l3.28,3.57c0.08,0.08,0.13,0.18,0.15,0.28
					l0.05,0.23h-3.43L421.98,320.35z M427.35,324.27l-3.16-3.44c-0.21-0.23-0.86-0.38-1.46-0.25l-0.11,0.03l2.18,3.66H427.35z"/>
			</g>
		</g>
		<g>
			<g>
				<path class="st5" d="M445.01,356.83c6.85,0,12.87-1.14,16.35-2.87c-3.57,1.28-8.74,2.09-14.49,2.09c-2.78,0-5.42-0.19-7.82-0.53
					v1.01C440.93,356.73,442.93,356.83,445.01,356.83z"/>
			</g>
			<g>
				<path class="st5" d="M445.01,335.77c6.85,0,12.87,1.14,16.35,2.87c-3.57-1.28-8.74-2.09-14.49-2.09c-2.78,0-5.42,0.19-7.82,0.53
					v-1.01C440.93,335.87,442.93,335.77,445.01,335.77z"/>
			</g>
		</g>
		<g>
			
				<rect x="391.16" y="332.55" transform="matrix(-1.836970e-16 1 -1 -1.836970e-16 752.2424 -59.6416)" class="st0" width="29.57" height="27.49"/>
			<path d="M391.99,361.28v-29.96h27.9v29.96H391.99z M392.4,331.71v29.18h27.08v-29.18H392.4z"/>
		</g>
	</g>
	<polyline class="st7" points="521.48,369.73 509.48,381.23 611.56,365.8 598.73,377.33 	"/>
	<line class="st8" x1="574.66" y1="99.99" x2="624.05" y2="455.84"/>
	<g>
		<path d="M173.68,218.53c-2.33,1.03-6.87,2.43-10.03,3.1l-1.14-3.88c4.75-0.98,10.08-2.95,12.51-4.6h3.46v42.64h-4.81V218.53z"/>
		<path d="M206.35,235.48c-0.52,1.86-1.14,3.62-1.71,5.06h29.04c-0.41,6.31-1.45,11.94-2.74,14.78c-1.29,2.89-2.95,3.72-7.6,3.72
			c-2.74,0-6.41-0.15-8.94-0.36l-0.93-3.93c3.57,0.31,7.03,0.52,9.51,0.52c2.58,0,3.36-0.41,4.08-2.07c0.62-1.6,1.45-5.22,1.96-9.15
			h-25.79c-0.67,1.45-1.4,2.95-2.17,4.39l-4.19-1.19c1.86-3.31,3.57-7.24,5.12-11.78h-11.52v-3.51h49.1v3.51H206.35z M231.88,227.27
			h-33.75v-14.68h33.75V227.27z M202.31,223.96h25.38V216h-25.38V223.96z"/>
		<path d="M252.91,233.78c-1.65,5.27-3.77,10.03-6.25,14.01l-1.91-4.13c3.36-5.01,6-11.27,7.8-18.66h-7.08v-3.62h7.44v-11.06h3.82
			v11.06h5.38v3.62h-5.38v4.81c2.33,1.91,4.5,3.98,6.36,6.05l-2.17,3.46c-0.93-1.4-2.64-3.57-4.19-5.32v25.43h-3.82V233.78z
			 M281.75,240.96c3.31,4.75,7.65,8.58,13.18,11.68l-2.43,3.62c-5.43-3.41-10.23-8.17-13.33-13.23v16.38h-3.67v-16.07
			c-3.26,5.53-7.65,10.08-13.28,13.64l-2.58-3.15c5.63-3.15,10.13-7.39,13.54-12.87h-9.56v-18.4h11.89v-3.82h-14.57v-3.36h14.57
			v-5.06h3.67v5.06h14.88v3.36h-14.88v3.82h12.25v18.4H281.75z M267.28,225.71v4.39h8.22v-4.39H267.28z M267.28,233.26v4.5h8.22
			v-4.5H267.28z M279.16,230.11h8.63v-4.39h-8.63V230.11z M279.16,237.76h8.63v-4.5h-8.63V237.76z"/>
	</g>
	<g>
		
			<rect x="100.7" y="32.7" transform="matrix(6.123234e-17 -1 1 6.123234e-17 39.8866 200.8136)" class="st10" width="39.3" height="95.53"/>
		<g>
			<path class="st0" d="M89.82,86.31h15.55v2.09H89.82v1.41h-2.32V71.25h17.34v2.01H89.82V86.31z M90.5,83.96
				c2.12-1.08,3.67-2.24,5.41-4.02c-1.33-1.12-3.09-2.38-4.83-3.52l1.41-1.58c1.72,1.08,3.21,2.14,4.85,3.4
				c1.02-1.35,1.85-2.72,2.7-4.44l2.09,1.02c-0.93,1.85-1.97,3.5-3.01,4.85c1.16,0.95,2.7,2.32,4.25,3.79l-1.64,1.72
				c-1.35-1.35-2.86-2.74-4.08-3.79c-1.74,1.85-3.55,3.19-5.76,4.35L90.5,83.96z"/>
			<path class="st0" d="M118.98,73.08h-8.69v-1.87h19.7v1.87h-8.81v1.99h4.44v10.35h-10.97V75.07h4.33V73.08z M127.19,86.76v-11.7
				h2.12v14.74h-2.12v-1.14h-14.12v1.14h-2.09V75.07h2.09v11.7H127.19z M116.62,76.77v2.51h2.45v-2.51H116.62z M116.62,80.87v2.8
				h2.45v-2.8H116.62z M121.09,79.28h2.55v-2.51h-2.55V79.28z M121.09,83.67h2.55v-2.8h-2.55V83.67z"/>
			<path class="st0" d="M153.18,89.81h-2.26v-1.06h-13.44v1.06h-2.24V71.07h17.94V89.81z M137.48,86.81h13.44V72.95h-13.44V86.81z
				 M148.99,85.91c-1.31-0.81-2.84-1.68-4.23-2.38c-1.51,1.27-3.34,2.28-5.37,3.01l-1.29-1.56c1.89-0.6,3.23-1.31,4.67-2.45
				l-0.54-0.25c-1.35-0.66-2.34-1.1-4.11-1.82l0.93-1.53c2.09,0.77,3.3,1.24,5.29,2.18c1.68-1.78,3.09-4.33,3.86-7.03l2.01,0.62
				c-0.85,2.63-2.38,5.5-3.94,7.34c0.1,0.06,0.1,0.06,0.19,0.1c1.04,0.52,2.18,1.14,3.75,2.07L148.99,85.91z M140.26,79.13
				c-0.48-1.62-1.04-2.99-1.66-4.06l1.91-0.77c0.66,1.16,1.22,2.49,1.72,4.04L140.26,79.13z M143.83,78.32
				c-0.5-1.58-1.06-2.92-1.68-4.09l1.82-0.73c0.75,1.33,1.39,2.8,1.72,4L143.83,78.32z"/>
		</g>
	</g>
</g>
</svg>
