<?xml version="1.0" encoding="utf-8"?>
<!-- Generator: Adobe Illustrator 23.0.3, SVG Export Plug-In . SVG Version: 6.00 Build 0)  -->
<svg version="1.1" xmlns="http://www.w3.org/2000/svg" xmlns:xlink="http://www.w3.org/1999/xlink" x="0px" y="0px"
	 viewBox="0 0 700 500" style="enable-background:new 0 0 700 500;" xml:space="preserve">
<style type="text/css">
	.グラフィックスタイル{fill:none;stroke:#000000;stroke-width:2;stroke-miterlimit:10;}
	.グラフィックスタイル_x0020_2{fill:#D8EACC;stroke:#000000;stroke-width:2;}
	.グラフィックスタイル_x0020_3{fill:#FFFFFF;stroke:#000000;stroke-width:2;stroke-miterlimit:10;}
	.グラフィックスタイル_x0020_4{fill:#FFFFFF;stroke:#000000;stroke-width:1.2664;stroke-miterlimit:10;}
	.グラフィックスタイル_x0020_7{fill:none;stroke:#000000;stroke-width:1.5;stroke-linejoin:bevel;stroke-miterlimit:10;}
	.st0{fill:#FFFFFF;}
	.st1{fill:#D8EACC;stroke:#000000;stroke-width:2;}
	.st2{fill:none;stroke:#000000;stroke-width:1.4318;stroke-linecap:round;stroke-linejoin:round;}
	.st3{fill:none;stroke:#000000;stroke-width:1.8264;stroke-linecap:round;stroke-linejoin:round;}
	.st4{fill:#FFFFFF;stroke:#000000;stroke-width:1.2664;stroke-miterlimit:10;}
	.st5{fill:#030201;}
	.st6{fill:#242323;}
	.st7{fill:none;stroke:#000000;stroke-width:2;stroke-linejoin:round;stroke-miterlimit:10;}
	.st8{fill:none;stroke:#000000;stroke-width:2;stroke-miterlimit:10;}
	.st9{fill:none;stroke:#000000;stroke-width:2;stroke-linejoin:bevel;stroke-miterlimit:10;}
	.st10{fill:#E83589;}
	.st11{fill:none;stroke:#000000;stroke-width:2;stroke-miterlimit:10;stroke-dasharray:5.901,5.901;}
	.st12{fill:none;stroke:#000000;stroke-width:1.5;stroke-linejoin:bevel;stroke-miterlimit:10;}
	.st13{fill:#D8EACC;stroke:#000000;stroke-width:1.5;}
	.st14{fill:none;stroke:#000000;stroke-width:1.5;stroke-miterlimit:10;}
	.st15{fill:none;stroke:#000000;stroke-linejoin:bevel;stroke-miterlimit:10;}
	.st16{fill:#FFFFFF;stroke:#000000;stroke-width:1.5;stroke-miterlimit:10;}
	.st17{fill:#FFFFFF;stroke:#DE0000;stroke-width:2;stroke-miterlimit:10;}
	.st18{fill:#DE0000;}
	.st19{fill:none;stroke:#000000;stroke-miterlimit:10;}
	.st20{fill:none;stroke:#000000;stroke-miterlimit:10;stroke-dasharray:3.0312,3.0312;}
	.st21{fill:url(#);stroke:#000000;stroke-width:1.1494;}
	.st22{fill:#FFFFFF;stroke:#000000;stroke-miterlimit:10;}
	.st23{fill:none;stroke:#000000;stroke-width:3;stroke-miterlimit:10;stroke-dasharray:5;}
	.st24{fill:none;stroke:#FFFFFF;stroke-width:0.75;stroke-linejoin:round;}
	.st25{fill:none;stroke:#000000;stroke-miterlimit:10;stroke-dasharray:5;}
	.st26{fill:none;stroke:#FFFFFF;stroke-width:3;stroke-linejoin:round;}
	.st27{fill:none;stroke:#000000;stroke-width:1.3;stroke-linejoin:bevel;stroke-miterlimit:10;}
	.st28{fill:none;stroke:#000000;stroke-width:1.5;stroke-miterlimit:10;stroke-dasharray:5;}
	.st29{fill:none;stroke:#47738A;stroke-linejoin:bevel;stroke-miterlimit:10;}
	.st30{fill:none;}
	.st31{fill:none;stroke:#FFFFFF;stroke-width:5;stroke-linejoin:round;}
	.st32{fill:#D8EACC;}
	.st33{fill:#D8EACC;stroke:#000000;stroke-width:0.25;}
	.st34{fill:none;stroke:#000000;stroke-width:2;}
	.st35{fill:none;stroke:#FFFFFF;stroke-linejoin:round;}
	.st36{fill:none;stroke:#000000;stroke-width:1.9773;stroke-linecap:round;stroke-linejoin:round;}
	.st37{fill:none;stroke:#000000;stroke-width:2.5222;stroke-linecap:round;stroke-linejoin:round;}
	.st38{fill:#FFFFFF;stroke:#000000;stroke-width:2;stroke-miterlimit:10;}
	.st39{fill:#FFFFFF;stroke:#000000;stroke-width:1.0238;stroke-miterlimit:10;}
	.st40{fill:#FFFFFF;stroke:#000000;stroke-width:1.089;stroke-miterlimit:10;}
	.st41{fill:#FFFFFF;stroke:#000000;stroke-width:1.2553;stroke-miterlimit:10;}
	.st42{fill:url(#);}
	.st43{fill:none;stroke:#000000;stroke-width:1.7765;stroke-linejoin:bevel;stroke-miterlimit:10;}
	.st44{fill:none;stroke:#000000;stroke-width:2.3687;stroke-miterlimit:10;}
	.st45{fill:#D8EACC;stroke:#000000;stroke-width:2.0455;}
	.st46{fill:none;stroke:#000000;stroke-width:2.0455;stroke-linecap:round;stroke-miterlimit:10;stroke-dasharray:0,6.1366;}
	.st47{fill:#FFFFFF;stroke:#000000;stroke-width:2.3687;stroke-miterlimit:10;}
	.st48{fill:#FFFFFF;stroke:#000000;stroke-width:1.4998;stroke-miterlimit:10;}
	.st49{fill:#FFFFFF;stroke:#000000;stroke-width:0.6137;stroke-miterlimit:10;}
	.st50{fill:url(#);stroke:#000000;stroke-width:1.0228;}
	.st51{fill:none;stroke:#FFFFFF;stroke-width:4.0911;stroke-linejoin:round;}
	.st52{fill:none;stroke:#000000;stroke-width:2.4559;stroke-linecap:round;stroke-linejoin:round;}
	.st53{fill:none;stroke:#000000;stroke-width:3.1327;stroke-linecap:round;stroke-linejoin:round;}
	.st54{fill:none;stroke:#FFFFFF;stroke-width:4;stroke-linejoin:round;}
</style>
<g id="レイヤー_5">
	<rect x="-1985.06" y="-1158.14" class="st0" width="5667.56" height="5248"/>
</g>
<g id="レイヤー_1">
</g>
<g id="レイヤー_3">
</g>
<g id="レイヤー_4">
</g>
<g id="レイヤー_2">
	<rect y="0" class="st0" width="700" height="500"/>
	<polygon class="グラフィックスタイル_x0020_2" points="181.72,58.18 395.43,58.18 395.43,360.31 156.02,360.31 	"/>
	<rect x="395.43" y="58.18" class="グラフィックスタイル_x0020_2" width="210.77" height="302.13"/>
	<g>
		<path d="M502.75,384.57v1.87H491.3v3.33h8.83v10.39c0,1.51-0.68,2.06-2.53,2.06c-1.07,0-2.13-0.05-3.2-0.16l-0.34-1.98
			c1.3,0.18,2.29,0.26,3.15,0.26c0.68,0,0.83-0.13,0.83-0.75v-7.99h-6.74v14.13h-2.06V391.6h-6.4v10.91h-2.06v-12.73h8.46v-3.33
			h-11.22v-1.87h11.22V381h2.06v3.57H502.75z"/>
		<path d="M511.44,400.32c2.11,2.11,4.53,2.92,8.9,2.94h10.23c-0.26,0.57-0.47,1.17-0.63,1.85h-9.89c-4.56-0.05-7.08-0.91-9.32-3.18
			c-1.17,1.38-2.66,2.79-4.06,3.83l-1.15-1.85c1.22-0.73,2.6-1.77,3.93-2.99v-6.98h-3.85v-1.77h5.83V400.32z M510.32,387.33
			c-1.22-1.74-2.55-3.31-3.8-4.43l1.43-1.2c1.51,1.33,2.84,2.76,3.91,4.24L510.32,387.33z M512.87,385.95v-1.64h4.61
			c-0.44-0.83-1.02-1.69-1.67-2.5l1.82-0.7c0.83,1.17,1.35,2.08,1.87,3.2h3.38c0.5-0.91,1.09-2.29,1.43-3.25l2.06,0.52
			c-0.42,0.91-0.96,1.95-1.48,2.73h4.87v1.64h-7.52c-0.13,0.44-0.55,1.54-0.81,2.16h6.53v13.28h-13.25v-13.28h4.79
			c0.31-0.86,0.55-1.56,0.68-2.16H512.87z M516.65,391.99h9.37v-2.4h-9.37V391.99z M516.65,395.76h9.37v-2.37h-9.37V395.76z
			 M516.65,399.85h9.37v-2.6h-9.37V399.85z"/>
		<path d="M387.51,422.32c-1.28-1.51-2.71-2.92-4.06-4.01l1.38-1.43c1.48,1.09,2.97,2.5,4.14,3.91L387.51,422.32z M384.07,432.92
			c1.54-2.03,3.18-5.08,4.58-8.54l1.64,1.28c-1.28,3.25-2.92,6.46-4.55,8.8L384.07,432.92z M388.45,415.68
			c-0.99-1.3-2.55-2.89-3.96-4.06l1.35-1.35c1.41,1.04,2.94,2.5,4.06,3.88L388.45,415.68z M398.76,423.08l-0.03,0.05
			c-0.75,2.21-2.37,5.7-3.7,8.07l-0.1,0.23l1.93-0.16c1.93-0.16,4.87-0.47,7.18-0.78c-0.81-1.35-1.74-2.76-2.73-4.14l1.64-0.91
			c2.11,2.68,3.88,5.39,5.13,7.89l-1.85,1.17c-0.6-1.22-0.86-1.74-1.3-2.53l-0.26,0.05c-2.89,0.57-9.03,1.38-13.3,1.74l-0.68-2.06
			l1.04-0.05l0.31-0.03c0.05,0,0.37-0.03,0.7-0.05c1.38-2.5,2.84-5.73,3.85-8.64h-6.56v-1.74h7.94v-5.26h-6.53v-1.8h6.53v-4.19h2.03
			v4.19h6.92v1.8h-6.92v5.26h8.28v1.74h-9.48L398.76,423.08z"/>
		<path d="M424.49,411.65v14.08h4.04v2h-4.04v5.13h-2.29v-5.13h-10.72v-1.98l10.15-14.11H424.49z M422.2,418.23
			c0-1.2,0.05-3.23,0.13-4.5h-0.1c-0.7,1.38-1.38,2.58-1.9,3.31l-6.2,8.7h8.07V418.23z"/>
		<path d="M434.25,430.81c0.68-2.79,2.97-5.57,6.48-7.91l0.68-0.44c3.64-2.37,4.61-3.51,4.61-5.42c0-2.13-1.77-3.57-4.45-3.57
			c-2.19,0-3.72,0.81-5.39,2.79l-1.64-1.38c1.98-2.45,4.09-3.49,7.13-3.49c4.06,0,7.03,2.39,7.03,5.7c0,2.63-1.01,3.85-5.67,6.82
			l-0.94,0.6c-3.1,2.03-5.05,4.27-5.29,6.14h12.21v2.21h-14.76V430.81z"/>
		<path d="M467.1,434.69h-2v-8.33c-2.37,2.97-6.01,5.62-10.13,7.29l-1.2-1.67c3.91-1.46,7.13-3.51,9.63-6.12h-9.53v-1.74h11.22
			v-2.84h2v2.84h11.4v1.74h-9.63c2.39,2.24,5.62,4.06,9.79,5.52l-1.28,1.82c-4.45-1.85-7.78-4.09-10.28-7V434.69z M474.15,412.4
			c-1.41,1.9-3.54,3.83-5.99,5.44c2.37,1.25,5.28,2.16,9.89,3.07l-1.07,1.77c-3.72-0.75-7.73-2.16-10.59-3.72
			c-3.07,1.8-6.98,3.2-10.91,3.98l-1.04-1.61c3.96-0.7,7.76-1.95,10.33-3.41c-1.02-0.73-2.5-2.06-3.7-3.28
			c-1.46,1.15-2.84,2-4.53,2.79l-1.28-1.35c3.15-1.3,6.2-3.75,7.78-6.22l1.98,0.39c-0.39,0.6-0.49,0.7-0.86,1.2h8.9L474.15,412.4z
			 M462.8,413.05c-0.18,0.21-0.26,0.26-0.42,0.42c1.09,1.22,2.58,2.45,4.09,3.41c2.21-1.48,3.7-2.71,4.66-3.83H462.8z"/>
		<path d="M488.72,414.04c-1.22,0.52-3.33,1.15-5.1,1.54l-0.52-1.88c2.39-0.57,5.08-1.56,6.27-2.32h1.69v21.48h-2.34V414.04z"/>
		<path d="M504.98,426.43l0.16-0.05l0.1-0.05c0.96-0.31,2.19-0.78,2.94-1.12l0.21,1.85c-2.19,0.99-5.7,2.29-8.41,3.07l-0.73-2
			c1.46-0.39,1.67-0.44,3.07-0.86l0.63-0.18v-12.24h-3.38V413h8.25v1.85h-2.84V426.43z M506.83,433.25
			c2.06-0.81,4.09-2.13,5.47-3.59l1.59,1.07c-1.61,1.67-3.7,3.18-5.62,4.03L506.83,433.25z M521.96,415.47v13.88h-12.5v-13.88h4.06
			c0.29-0.86,0.52-1.77,0.7-2.66h-6.51v-1.72h16.09v1.72h-7.55c-0.29,1.07-0.62,2.03-0.88,2.66H521.96z M511.39,417.06v2.53H520
			v-2.53H511.39z M511.39,423.54H520v-2.42h-8.62V423.54z M511.39,427.73H520v-2.68h-8.62V427.73z M522.37,434.66
			c-1.54-1.41-3.41-2.81-5.21-3.91l1.43-1.15c2.24,1.28,3.78,2.32,5.31,3.59L522.37,434.66z"/>
		<path d="M534.26,414.04c-1.22,0.52-3.33,1.15-5.1,1.54l-0.52-1.88c2.39-0.57,5.08-1.56,6.27-2.32h1.69v21.48h-2.34V414.04z"/>
		<path d="M552.9,422.63c-0.26,0.94-0.57,1.82-0.86,2.55h14.63c-0.21,3.18-0.73,6.01-1.38,7.45c-0.65,1.46-1.48,1.87-3.83,1.87
			c-1.38,0-3.23-0.08-4.5-0.18l-0.47-1.98c1.8,0.16,3.54,0.26,4.79,0.26c1.3,0,1.69-0.21,2.06-1.04c0.31-0.81,0.73-2.63,0.99-4.61
			h-12.99c-0.34,0.73-0.7,1.48-1.09,2.21l-2.11-0.6c0.94-1.67,1.8-3.64,2.58-5.93h-5.81v-1.77h24.73v1.77H552.9z M565.76,418.49h-17
			v-7.39h17V418.49z M550.87,416.83h12.78v-4.01h-12.78V416.83z"/>
		<path d="M578.32,429.27c2.11,2.11,4.53,2.92,8.9,2.94h10.23c-0.26,0.57-0.47,1.17-0.63,1.85h-9.89c-4.56-0.05-7.08-0.91-9.32-3.18
			c-1.17,1.38-2.66,2.79-4.06,3.83l-1.15-1.85c1.22-0.73,2.6-1.77,3.93-2.99v-6.98h-3.85v-1.77h5.83V429.27z M577.2,416.28
			c-1.22-1.74-2.55-3.31-3.8-4.42l1.43-1.2c1.51,1.33,2.84,2.76,3.91,4.24L577.2,416.28z M579.75,414.9v-1.64h4.61
			c-0.44-0.83-1.02-1.69-1.67-2.5l1.82-0.7c0.83,1.17,1.35,2.08,1.87,3.2h3.38c0.5-0.91,1.09-2.29,1.43-3.25l2.06,0.52
			c-0.42,0.91-0.96,1.95-1.48,2.73h4.87v1.64h-7.52c-0.13,0.44-0.55,1.54-0.81,2.16h6.53v13.28H581.6v-13.28h4.79
			c0.31-0.86,0.55-1.56,0.68-2.16H579.75z M583.53,420.94h9.37v-2.4h-9.37V420.94z M583.53,424.72h9.37v-2.37h-9.37V424.72z
			 M583.53,428.8h9.37v-2.6h-9.37V428.8z"/>
		<path d="M610.12,419.48h-3.36v4.11h3.38v1.72h-3.38v5.44c0.7-0.18,2.68-0.75,3.98-1.17l0.18,1.69c-3.1,1.09-6.85,2.16-10.26,2.92
			l-0.68-1.85l1.38-0.29V421.9h1.77v9.76l0.65-0.16l0.63-0.16l0.55-0.13v-11.74h-3.8v-8.46h8.96V419.48z M603.02,417.79h5.26v-5.02
			h-5.26V417.79z M622.93,412.69c-0.99,2.42-2.26,4.5-3.83,6.27c1.64,1.43,3.67,2.68,5.96,3.62l-0.99,1.72
			c-2.34-1.04-4.53-2.47-6.22-4.06c-1.9,1.8-4.14,3.23-6.74,4.29l-1.04-1.61c2.34-0.75,4.61-2.16,6.51-3.98
			c-0.86-0.96-1.74-2.19-2.34-3.31l-0.1,0.13l-0.05,0.08c-0.68,0.86-1.48,1.69-2.29,2.37l-1.28-1.38c1.95-1.48,3.85-4.24,4.76-6.9
			l1.93,0.31c-0.29,0.68-0.36,0.88-0.57,1.33h5.05L622.93,412.69z M622.83,434.69h-1.9v-1.54h-6.64v1.54h-1.9v-10.26h10.44V434.69z
			 M614.29,431.43h6.64v-5.26h-6.64V431.43z M615.2,414.23c0.73,1.3,1.43,2.26,2.58,3.49c1.17-1.35,2.06-2.73,2.81-4.4h-4.84
			c-0.1,0.18-0.21,0.36-0.44,0.75L615.2,414.23z"/>
	</g>
	<g>
		<path d="M323.52,423.48h11.38v-3.26h1.62v3.26h4.15v1.85h-4.15V434h-1.6l-11.4-8.21V423.48z M328.84,425.33
			c-0.97,0-2.61-0.04-3.64-0.11v0.08c1.12,0.57,2.08,1.12,2.67,1.54l7.03,5.01v-6.52H328.84z"/>
		<path d="M337.66,416.22h3.01v3.01h-3.01V416.22z"/>
		<path d="M332.15,401.27c5.47,0,8.84,2.42,8.84,6.31s-3.39,6.31-8.84,6.31c-5.47,0-8.84-2.42-8.84-6.33
			C323.31,403.69,326.7,401.27,332.15,401.27z M332.15,411.84c4.42,0,7.15-1.62,7.15-4.27c0-2.61-2.74-4.23-7.15-4.23
			c-4.46,0-7.17,1.62-7.17,4.27C324.97,410.22,327.73,411.84,332.15,411.84z"/>
		<path d="M325.5,393.91c0.42,0.95,0.99,2.8,1.26,4.08l-1.58,0.46c-0.4-1.94-1.2-4.1-1.87-5.09v-1.41h17.36v1.96H325.5z"/>
		<path d="M332.15,373.07c5.47,0,8.84,2.42,8.84,6.31c0,3.89-3.39,6.31-8.84,6.31c-5.47,0-8.84-2.42-8.84-6.33
			C323.31,375.49,326.7,373.07,332.15,373.07z M332.15,383.64c4.42,0,7.15-1.62,7.15-4.27c0-2.61-2.74-4.23-7.15-4.23
			c-4.46,0-7.17,1.62-7.17,4.27C324.97,382.02,327.73,383.64,332.15,383.64z"/>
	</g>
	<polyline class="st2" points="61.87,172.28 61.87,160.54 68.77,172.28 68.77,160.54 	"/>
	<g>
		<circle class="st3" cx="98.13" cy="179.51" r="24.35"/>
		<polygon points="110.36,185.6 121.72,178.55 76.87,168.92 111.58,198.92 		"/>
	</g>
	<g>
		
			<rect x="78.25" y="54.57" transform="matrix(6.123234e-17 -1 1 6.123234e-17 -4.438 200.2349)" class="st10" width="39.3" height="95.53"/>
		<g>
			<path class="st0" d="M67.36,108.18h15.55v2.09H67.36v1.41h-2.32V93.13h17.34v2.01H67.36V108.18z M68.05,105.84
				c2.12-1.08,3.67-2.24,5.41-4.02c-1.33-1.12-3.09-2.38-4.83-3.52l1.41-1.58c1.72,1.08,3.21,2.14,4.85,3.4
				c1.02-1.35,1.85-2.72,2.7-4.44l2.09,1.02c-0.93,1.85-1.97,3.5-3.01,4.85c1.16,0.95,2.7,2.32,4.25,3.79l-1.64,1.72
				c-1.35-1.35-2.86-2.74-4.08-3.79c-1.74,1.85-3.55,3.19-5.76,4.35L68.05,105.84z"/>
			<path class="st0" d="M96.53,94.95h-8.69v-1.87h19.7v1.87h-8.81v1.99h4.44v10.35H92.19V96.94h4.33V94.95z M104.74,108.64v-11.7
				h2.12v14.74h-2.12v-1.14H90.62v1.14h-2.09V96.94h2.09v11.7H104.74z M94.16,98.64v2.51h2.45v-2.51H94.16z M94.16,102.75v2.8h2.45
				v-2.8H94.16z M98.64,101.15h2.55v-2.51h-2.55V101.15z M98.64,105.55h2.55v-2.8h-2.55V105.55z"/>
			<path class="st0" d="M130.73,111.68h-2.26v-1.06h-13.44v1.06h-2.24V92.94h17.94V111.68z M115.03,108.68h13.44V94.83h-13.44
				V108.68z M126.54,107.79c-1.31-0.81-2.84-1.68-4.23-2.38c-1.51,1.27-3.34,2.28-5.37,3.01l-1.29-1.56
				c1.89-0.6,3.23-1.31,4.67-2.45l-0.54-0.25c-1.35-0.66-2.34-1.1-4.11-1.82l0.93-1.53c2.09,0.77,3.3,1.24,5.29,2.18
				c1.68-1.78,3.09-4.33,3.86-7.03l2.01,0.62c-0.85,2.63-2.38,5.5-3.94,7.34c0.1,0.06,0.1,0.06,0.19,0.1
				c1.04,0.52,2.18,1.14,3.75,2.07L126.54,107.79z M117.81,101c-0.48-1.62-1.04-2.99-1.66-4.06l1.91-0.77
				c0.66,1.16,1.22,2.49,1.72,4.04L117.81,101z M121.38,100.2c-0.5-1.58-1.06-2.92-1.68-4.09l1.83-0.73c0.75,1.33,1.39,2.8,1.72,4
				L121.38,100.2z"/>
		</g>
	</g>
	<g>
		<g>
			<g>
				<path class="st0" d="M177.46,334.75c-0.66-5.63-0.61-11.25,0.14-16.87c0.92-6.47,7.94-11.26,14.32-10.86
					c20.87,1.16,41.76,1.32,62.64,0.48c6.06-0.29,12.65,4.37,13.47,10.52c0.76,6.02,0.71,12.04-0.15,18.05
					c-0.92,6.14-7.58,10.69-13.64,10.3c-20.87-1.18-41.75-1.36-62.64-0.53C185.22,346.14,178.27,341.24,177.46,334.75z"/>
				<path class="st5" d="M176.77,326.31c0.02-2.83,0.22-5.65,0.6-8.46c0.9-6.32,7.7-11.48,14.56-11.05
					c20.76,1.16,41.83,1.32,62.62,0.48c6.5-0.31,12.91,4.7,13.71,10.71c0.76,6.02,0.71,12.11-0.15,18.11
					c-0.9,6-7.39,10.9-13.88,10.49c-20.77-1.18-41.84-1.35-62.62-0.53c-6.86,0.32-13.58-4.95-14.38-11.28l0,0
					C176.9,331.96,176.74,329.14,176.77,326.31z M268.32,327.05c0.02-3.01-0.15-6.01-0.53-9c-0.78-5.8-6.96-10.63-13.23-10.33
					c-20.8,0.84-41.89,0.68-62.67-0.48c-6.63-0.42-13.21,4.57-14.07,10.67c-0.74,5.57-0.79,11.23-0.14,16.82
					c0.77,6.11,7.26,11.21,13.9,10.9c20.8-0.82,41.88-0.64,62.67,0.53c6.27,0.4,12.53-4.33,13.4-10.12
					C268.07,333.06,268.3,330.05,268.32,327.05z"/>
			</g>
		</g>
		<g>
			<path class="st6" d="M189.17,339.86l0.22-26.91c-0.33,0.03-0.67,0.06-1,0.1l-0.21,26.69
				C188.5,339.79,188.83,339.83,189.17,339.86z"/>
		</g>
		<g>
			<path class="st5" d="M199.39,342.69l0.86-0.23c6.12-1.62,14.23-2.47,22.82-2.4c0.94,0.01,1.9,0.03,2.85,0.06l0.06,0.01
				l10.18,4.16l-0.8,0.01c-2.37,0.03-4.72,0.04-6.98,0.03c-9.65-0.08-19.11-0.6-28.11-1.55L199.39,342.69z M225.87,340.44
				c-0.94-0.03-1.88-0.05-2.81-0.06c-8.15-0.07-15.86,0.7-21.84,2.17c8.71,0.89,17.84,1.38,27.16,1.45c2,0.02,4.07,0.01,6.17-0.01
				L225.87,340.44z"/>
		</g>
		<g>
			<path class="st5" d="M199.65,310.29l0.88-0.08c9.01-0.8,18.48-1.17,28.13-1.09c2.24,0.02,4.59,0.06,6.98,0.14l0.8,0.02
				l-10.31,4.01c-0.95,0.02-1.91,0.02-2.85,0.01c-8.59-0.07-16.68-1.05-22.78-2.77L199.65,310.29z M234.82,309.56
				c-2.11-0.06-4.18-0.1-6.16-0.11c-9.31-0.07-18.45,0.27-27.18,1.01c5.95,1.56,13.65,2.45,21.8,2.52c0.93,0.01,1.87,0,2.81-0.01
				L234.82,309.56z"/>
		</g>
		<g>
			<path class="st0" d="M238.12,344.02l15.02,0.12c8.82,0.07,16.09-6.65,16.15-14.93l0.03-4.33c0.07-8.28-7.09-15.11-15.91-15.19
				l-15.02-0.12c1.33,5.64,1.99,11.44,1.93,17.24C240.3,332.61,239.54,338.4,238.12,344.02z"/>
			<path d="M237.9,344.18l0.05-0.2c1.43-5.67,2.19-11.43,2.2-17.17c0-0.07,0-0.15,0-0.23c0.05-5.65-0.6-11.36-1.93-16.97l-0.05-0.2
				l15.24,0.12c8.94,0.07,16.15,6.96,16.08,15.35l-0.03,4.33c-0.07,8.39-7.39,15.16-16.33,15.09L237.9,344.18z M269.16,324.89
				c0.07-8.21-6.99-14.95-15.74-15.02l-14.8-0.12c1.3,5.57,1.93,11.24,1.89,16.85c0,0.15,0,0.3,0,0.45
				c-0.05,5.61-0.77,11.26-2.16,16.81l14.8,0.12c8.74,0.07,15.91-6.55,15.98-14.77L269.16,324.89z"/>
		</g>
		<g>
			<path class="st0" d="M202.99,338.96c1.4-8.28,1.47-16.58,0.2-24.88c-4.6-1.18-9.21-1.57-13.82-1.17l-0.22,27.01
				C193.76,340.39,198.37,340.07,202.99,338.96z"/>
			<path d="M188.98,340.06l0.22-27.3l0.16-0.01c4.61-0.4,9.28-0.01,13.88,1.18l0.11,0.03l0.02,0.11c1.26,8.28,1.2,16.67-0.2,24.93
				l-0.02,0.11l-0.11,0.03c-4.62,1.11-9.29,1.43-13.9,0.95L188.98,340.06z M189.54,313.06l-0.21,26.71
				c4.48,0.45,9.02,0.13,13.51-0.93c1.37-8.16,1.43-16.44,0.2-24.62C198.56,313.07,194.03,312.68,189.54,313.06z"/>
		</g>
		<g>
			<path class="st6" d="M189.15,339.91l0.22-27.01c-0.33,0.03-0.67,0.06-1,0.1l-0.22,26.79
				C188.49,339.84,188.82,339.88,189.15,339.91z"/>
		</g>
		<g>
			<path class="st0" d="M188.37,313.01l-7.21-0.06c-1.92,3.28-3.15,8.05-3.19,13.37c-0.04,5.32,1.11,10.11,2.97,13.42l7.21,0.06
				L188.37,313.01z"/>
			<path d="M177.79,326.32c0.04-5.12,1.21-10.03,3.21-13.45l0.05-0.09l7.49,0.06l-0.22,27.11l-7.49-0.06l-0.05-0.09
				C178.84,336.36,177.75,331.44,177.79,326.32z M181.26,313.11c-1.94,3.37-3.08,8.18-3.12,13.21c-0.04,5.03,1.02,9.85,2.9,13.25
				l6.93,0.06l0.21-26.46L181.26,313.11z"/>
		</g>
		<g>
			<path class="st6" d="M238.22,343.91l0.97,0.34c3.44-11.37,3.54-23.46,0.28-34.88l-0.97,0.33
				C241.62,320.91,241.53,332.75,238.22,343.91z"/>
		</g>
		<g>
			<path class="st0" d="M238.54,310.18l-12.21,4.09l-0.2,24.88l12.15,4.28C241.48,332.59,241.58,321.07,238.54,310.18z"/>
			<path d="M225.95,339.26l0.2-25.11l12.51-4.18l0.05,0.17c3.05,10.93,2.96,22.46-0.27,33.34l-0.05,0.17L225.95,339.26z
				 M226.49,314.38l-0.2,24.66l11.86,4.18c3.14-10.72,3.23-22.06,0.26-32.83L226.49,314.38z"/>
		</g>
		<g>
			<g>
				<path class="st5" d="M180.95,339.69l0,0.17c-0.02,2.03,1.73,3.7,3.89,3.72l0.29,0C183.32,342.72,181.85,341.35,180.95,339.69z"
					/>
			</g>
			<g>
				<path class="st5" d="M181.16,313l0-0.17c0.02-2.03,1.79-3.67,3.95-3.65l0.29,0C183.58,310.01,182.09,311.35,181.16,313z"/>
			</g>
		</g>
		<g>
			<g>
				<path class="st0" d="M228.56,348.53c0.53,0.12,1.16,0.01,1.41-0.25l2.78-2.98c0.05-0.05,0.08-0.1,0.09-0.16l-2.57-0.02
					l-2.03,3.34L228.56,348.53z"/>
				<path class="st5" d="M227.98,348.56l2.19-3.61l2.89,0.02l-0.04,0.19c-0.02,0.08-0.06,0.16-0.13,0.23l-2.78,2.98
					c-0.29,0.31-0.98,0.44-1.58,0.3L227.98,348.56z M230.37,345.28l-1.86,3.06l0.1,0.02c0.51,0.12,1.06-0.01,1.23-0.2l2.68-2.87
					L230.37,345.28z"/>
			</g>
			<g>
				<path class="st0" d="M228.91,304.93c0.53-0.11,1.16,0.01,1.4,0.27l2.74,3.03c0.05,0.05,0.07,0.11,0.09,0.16l-2.57-0.02
					l-1.97-3.37L228.91,304.93z"/>
				<path class="st5" d="M228.33,304.89l0.55-0.12c0.6-0.13,1.29,0.01,1.57,0.33l2.74,3.03c0.06,0.07,0.11,0.15,0.12,0.23l0.04,0.2
					l-2.89-0.02L228.33,304.89z M232.82,308.22l-2.63-2.91c-0.17-0.19-0.72-0.33-1.23-0.22l-0.1,0.02l1.81,3.09L232.82,308.22z"/>
			</g>
		</g>
		<g>
			<g>
				<path class="st5" d="M247.46,335.74c5.76,0.05,10.84-0.87,13.78-2.3c-3.01,1.05-7.37,1.7-12.21,1.66
					c-2.34-0.02-4.56-0.2-6.57-0.5l-0.01,0.85C244.03,335.63,245.71,335.73,247.46,335.74z"/>
			</g>
			<g>
				<path class="st5" d="M247.6,318.01c5.76,0.05,10.82,1.05,13.74,2.52c-3-1.1-7.34-1.81-12.18-1.85
					c-2.34-0.02-4.57,0.12-6.58,0.39l0.01-0.85C244.17,318.08,245.86,318,247.6,318.01z"/>
			</g>
		</g>
		<g>
			
				<rect x="202.21" y="315.04" transform="matrix(-8.046840e-03 1 -1 -8.046840e-03 542.9839 114.595)" class="st0" width="24.89" height="23.14"/>
			<path d="M202.81,339.12l0.2-25.21l23.48,0.19l-0.2,25.21L202.81,339.12z M203.36,314.24l-0.2,24.56l22.79,0.18l0.2-24.56
				L203.36,314.24z"/>
		</g>
	</g>
	<g>
		<g>
			<g>
				<path class="st0" d="M347.59,259.37c5.63-0.66,11.25-0.61,16.87,0.14c6.47,0.92,11.26,7.94,10.86,14.32
					c-1.16,20.87-1.32,41.76-0.48,62.64c0.29,6.06-4.37,12.65-10.52,13.47c-6.02,0.76-12.04,0.71-18.05-0.15
					c-6.14-0.92-10.69-7.58-10.3-13.64c1.18-20.87,1.36-41.75,0.53-62.64C336.2,267.13,341.1,260.18,347.59,259.37z"/>
				<path class="st5" d="M356.03,258.68c2.83,0.02,5.65,0.22,8.46,0.6c6.32,0.9,11.48,7.7,11.05,14.56
					c-1.16,20.76-1.32,41.83-0.48,62.62c0.31,6.5-4.7,12.91-10.71,13.71c-6.02,0.76-12.11,0.71-18.11-0.15
					c-6-0.9-10.9-7.39-10.49-13.88c1.18-20.77,1.35-41.84,0.53-62.62c-0.32-6.86,4.95-13.58,11.28-14.38h0
					C350.38,258.81,353.2,258.66,356.03,258.68z M355.29,350.24c3.01,0.02,6.01-0.15,9-0.53c5.8-0.78,10.63-6.96,10.33-13.23
					c-0.84-20.8-0.68-41.89,0.48-62.67c0.42-6.63-4.57-13.21-10.67-14.07c-5.57-0.74-11.23-0.79-16.82-0.14
					c-6.11,0.77-11.21,7.26-10.9,13.9c0.82,20.8,0.64,41.88-0.53,62.67c-0.4,6.27,4.33,12.53,10.12,13.4
					C349.28,349.99,352.29,350.21,355.29,350.24z"/>
			</g>
		</g>
		<g>
			<path class="st6" d="M342.48,271.08l26.91,0.22c-0.03-0.33-0.06-0.67-0.1-1l-26.69-0.21
				C342.55,270.41,342.51,270.74,342.48,271.08z"/>
		</g>
		<g>
			<path class="st5" d="M339.65,281.3l0.23,0.86c1.62,6.12,2.47,14.23,2.4,22.82c-0.01,0.94-0.03,1.9-0.06,2.85l-0.01,0.06
				l-4.16,10.18l-0.01-0.8c-0.03-2.37-0.04-4.72-0.03-6.98c0.08-9.65,0.6-19.11,1.55-28.11L339.65,281.3z M341.9,307.78
				c0.03-0.94,0.05-1.88,0.06-2.81c0.07-8.15-0.7-15.86-2.17-21.84c-0.89,8.71-1.38,17.84-1.45,27.16c-0.02,2-0.01,4.07,0.01,6.17
				L341.9,307.78z"/>
		</g>
		<g>
			<path class="st5" d="M372.05,281.56l0.08,0.88c0.8,9.01,1.17,18.48,1.09,28.13c-0.02,2.24-0.06,4.59-0.14,6.98l-0.02,0.8
				l-4.01-10.31c-0.02-0.95-0.02-1.91-0.01-2.85c0.07-8.59,1.05-16.68,2.77-22.78L372.05,281.56z M372.78,316.74
				c0.06-2.11,0.1-4.18,0.11-6.16c0.07-9.31-0.27-18.45-1.01-27.18c-1.56,5.95-2.45,13.65-2.52,21.8c-0.01,0.93,0,1.87,0.01,2.81
				L372.78,316.74z"/>
		</g>
		<g>
			<path class="st0" d="M338.32,320.04l-0.12,15.02c-0.07,8.82,6.65,16.09,14.93,16.15l4.33,0.03c8.28,0.07,15.11-7.09,15.19-15.91
				l0.12-15.02c-5.64,1.33-11.44,1.99-17.24,1.93C349.73,322.21,343.94,321.46,338.32,320.04z"/>
			<path d="M338.16,319.82l0.2,0.05c5.67,1.43,11.43,2.19,17.17,2.2c0.07,0,0.15,0,0.23,0c5.65,0.05,11.36-0.6,16.97-1.93l0.2-0.05
				l-0.12,15.24c-0.07,8.94-6.96,16.15-15.35,16.08l-4.33-0.03c-8.39-0.07-15.16-7.39-15.09-16.33L338.16,319.82z M357.45,351.07
				c8.21,0.07,14.95-6.99,15.02-15.74l0.12-14.8c-5.57,1.3-11.24,1.93-16.85,1.89c-0.15,0-0.3,0-0.45,0
				c-5.61-0.05-11.26-0.77-16.81-2.16l-0.12,14.8c-0.07,8.74,6.55,15.91,14.77,15.98L357.45,351.07z"/>
		</g>
		<g>
			<path class="st0" d="M343.38,284.9c8.28,1.4,16.58,1.47,24.88,0.2c1.18-4.6,1.57-9.21,1.17-13.82l-27.01-0.22
				C341.95,275.67,342.27,280.29,343.38,284.9z"/>
			<path d="M342.28,270.89l27.3,0.22l0.01,0.16c0.4,4.61,0.01,9.28-1.18,13.88l-0.03,0.11l-0.11,0.02
				c-8.28,1.26-16.67,1.2-24.93-0.2l-0.11-0.02l-0.03-0.11c-1.11-4.62-1.43-9.29-0.95-13.9L342.28,270.89z M369.28,271.46
				l-26.71-0.21c-0.45,4.48-0.13,9.02,0.93,13.51c8.16,1.37,16.44,1.43,24.62,0.2C369.27,280.48,369.66,275.94,369.28,271.46z"/>
		</g>
		<g>
			<path class="st6" d="M342.43,271.07l27.01,0.22c-0.03-0.33-0.06-0.67-0.1-1l-26.79-0.22C342.5,270.4,342.46,270.73,342.43,271.07
				z"/>
		</g>
		<g>
			<path class="st0" d="M369.33,270.28l0.06-7.21c-3.28-1.92-8.05-3.15-13.37-3.19c-5.32-0.04-10.11,1.11-13.42,2.97l-0.06,7.21
				L369.33,270.28z"/>
			<path d="M356.02,259.71c5.12,0.04,10.03,1.21,13.45,3.21l0.09,0.05l-0.06,7.49l-27.11-0.22l0.06-7.49l0.09-0.05
				C345.98,260.76,350.9,259.67,356.02,259.71z M369.23,263.17c-3.37-1.94-8.18-3.08-13.21-3.12c-5.03-0.04-9.85,1.02-13.25,2.9
				l-0.06,6.93l26.46,0.21L369.23,263.17z"/>
		</g>
		<g>
			<path class="st6" d="M338.43,320.13l-0.34,0.97c11.37,3.44,23.46,3.54,34.88,0.28l-0.33-0.97
				C361.43,323.53,349.59,323.44,338.43,320.13z"/>
		</g>
		<g>
			<path class="st0" d="M372.16,320.45l-4.09-12.21l-24.88-0.2l-4.28,12.15C349.75,323.4,361.27,323.49,372.16,320.45z"/>
			<path d="M343.08,307.86l25.11,0.2l4.18,12.51l-0.17,0.05c-10.93,3.05-22.46,2.96-33.34-0.27l-0.17-0.05L343.08,307.86z
				 M367.96,308.41l-24.66-0.2l-4.18,11.86c10.72,3.14,22.06,3.23,32.83,0.26L367.96,308.41z"/>
		</g>
		<g>
			<g>
				<path class="st5" d="M342.65,262.86l-0.17,0c-2.03-0.02-3.7,1.73-3.72,3.89l0,0.29C339.62,265.23,340.99,263.77,342.65,262.86z"
					/>
			</g>
			<g>
				<path class="st5" d="M369.34,263.08l0.17,0c2.03,0.02,3.67,1.79,3.65,3.95l0,0.29C372.33,265.5,370.99,264.01,369.34,263.08z"/>
			</g>
		</g>
		<g>
			<g>
				<path class="st0" d="M333.81,310.48c-0.12,0.53-0.01,1.16,0.25,1.41l2.98,2.78c0.05,0.05,0.1,0.08,0.16,0.09l0.02-2.57
					l-3.34-2.03L333.81,310.48z"/>
				<path class="st5" d="M333.78,309.89l3.61,2.19l-0.02,2.89l-0.19-0.04c-0.08-0.02-0.16-0.06-0.23-0.13l-2.98-2.78
					c-0.31-0.29-0.44-0.98-0.3-1.58L333.78,309.89z M337.06,312.28l-3.06-1.86l-0.02,0.1c-0.12,0.51,0.01,1.06,0.2,1.23l2.87,2.68
					L337.06,312.28z"/>
			</g>
			<g>
				<path class="st0" d="M377.41,310.83c0.11,0.53-0.01,1.16-0.27,1.4l-3.03,2.74c-0.05,0.05-0.11,0.07-0.16,0.09l0.02-2.57
					l3.37-1.97L377.41,310.83z"/>
				<path class="st5" d="M377.45,310.24l0.12,0.55c0.13,0.6-0.01,1.29-0.33,1.57l-3.03,2.74c-0.07,0.06-0.15,0.11-0.23,0.12
					l-0.2,0.04l0.02-2.89L377.45,310.24z M374.12,314.73l2.91-2.63c0.19-0.17,0.33-0.72,0.22-1.23l-0.02-0.1l-3.09,1.81
					L374.12,314.73z"/>
			</g>
		</g>
		<g>
			<g>
				<path class="st5" d="M346.6,329.38c-0.05,5.76,0.87,10.84,2.3,13.78c-1.05-3.01-1.7-7.37-1.66-12.21
					c0.02-2.34,0.2-4.56,0.5-6.57l-0.85-0.01C346.71,325.94,346.61,327.63,346.6,329.38z"/>
			</g>
			<g>
				<path class="st5" d="M364.32,329.52c-0.05,5.76-1.05,10.82-2.52,13.74c1.1-3,1.81-7.34,1.85-12.18
					c0.02-2.34-0.12-4.57-0.39-6.58l0.85,0.01C364.26,326.09,364.34,327.77,364.32,329.52z"/>
			</g>
		</g>
		<g>
			
				<rect x="343.28" y="285" transform="matrix(-1 -8.046840e-03 8.046840e-03 -1 709.0539 595.9876)" class="st0" width="24.89" height="23.14"/>
			<path d="M343.22,284.72l25.21,0.2l-0.19,23.48l-25.21-0.2L343.22,284.72z M368.1,285.27l-24.56-0.2l-0.18,22.79l24.56,0.2
				L368.1,285.27z"/>
		</g>
	</g>
	<g>
		<g>
			<g>
				<path class="st0" d="M423.28,259.37c5.63-0.66,11.25-0.61,16.87,0.14c6.47,0.92,11.26,7.94,10.86,14.32
					c-1.16,20.87-1.32,41.76-0.48,62.64c0.29,6.06-4.37,12.65-10.52,13.47c-6.02,0.76-12.04,0.71-18.05-0.15
					c-6.14-0.92-10.69-7.58-10.3-13.64c1.18-20.87,1.36-41.75,0.53-62.64C411.89,267.13,416.79,260.18,423.28,259.37z"/>
				<path class="st5" d="M431.72,258.68c2.83,0.02,5.65,0.22,8.46,0.6c6.32,0.9,11.48,7.7,11.05,14.56
					c-1.16,20.76-1.32,41.83-0.48,62.62c0.31,6.5-4.7,12.91-10.71,13.71c-6.02,0.76-12.11,0.71-18.11-0.15
					c-6-0.9-10.9-7.39-10.49-13.88c1.18-20.77,1.35-41.84,0.53-62.62c-0.32-6.86,4.95-13.58,11.28-14.38h0
					C426.06,258.81,428.89,258.66,431.72,258.68z M430.98,350.24c3.01,0.02,6.01-0.15,9-0.53c5.8-0.78,10.63-6.96,10.33-13.23
					c-0.84-20.8-0.68-41.89,0.48-62.67c0.42-6.63-4.57-13.21-10.67-14.07c-5.57-0.74-11.23-0.79-16.82-0.14
					c-6.11,0.77-11.21,7.26-10.9,13.9c0.82,20.8,0.64,41.88-0.53,62.67c-0.4,6.27,4.33,12.53,10.12,13.4
					C424.97,349.99,427.98,350.21,430.98,350.24z"/>
			</g>
		</g>
		<g>
			<path class="st6" d="M418.16,271.08l26.91,0.22c-0.03-0.33-0.06-0.67-0.1-1l-26.69-0.21
				C418.24,270.41,418.2,270.74,418.16,271.08z"/>
		</g>
		<g>
			<path class="st5" d="M415.34,281.3l0.23,0.86c1.62,6.12,2.47,14.23,2.4,22.82c-0.01,0.94-0.03,1.9-0.06,2.85l-0.01,0.06
				l-4.16,10.18l-0.01-0.8c-0.03-2.37-0.04-4.72-0.03-6.98c0.08-9.65,0.6-19.11,1.55-28.11L415.34,281.3z M417.59,307.78
				c0.03-0.94,0.05-1.88,0.06-2.81c0.07-8.15-0.7-15.86-2.17-21.84c-0.89,8.71-1.38,17.84-1.45,27.16c-0.02,2-0.01,4.07,0.01,6.17
				L417.59,307.78z"/>
		</g>
		<g>
			<path class="st5" d="M447.73,281.56l0.08,0.88c0.8,9.01,1.17,18.48,1.09,28.13c-0.02,2.24-0.06,4.59-0.14,6.98l-0.02,0.8
				l-4.01-10.31c-0.02-0.95-0.02-1.91-0.01-2.85c0.07-8.59,1.05-16.68,2.77-22.78L447.73,281.56z M448.47,316.74
				c0.06-2.11,0.1-4.18,0.11-6.16c0.07-9.31-0.27-18.45-1.01-27.18c-1.56,5.95-2.45,13.65-2.52,21.8c-0.01,0.93,0,1.87,0.01,2.81
				L448.47,316.74z"/>
		</g>
		<g>
			<path class="st0" d="M414.01,320.04l-0.12,15.02c-0.07,8.82,6.65,16.09,14.93,16.15l4.33,0.03c8.28,0.07,15.11-7.09,15.19-15.91
				l0.12-15.02c-5.64,1.33-11.44,1.99-17.24,1.93C425.41,322.21,419.63,321.46,414.01,320.04z"/>
			<path d="M413.84,319.82l0.2,0.05c5.67,1.43,11.43,2.19,17.17,2.2c0.07,0,0.15,0,0.23,0c5.65,0.05,11.36-0.6,16.97-1.93l0.2-0.05
				l-0.12,15.24c-0.07,8.94-6.96,16.15-15.35,16.08l-4.33-0.03c-8.39-0.07-15.16-7.39-15.09-16.33L413.84,319.82z M433.14,351.07
				c8.21,0.07,14.95-6.99,15.02-15.74l0.12-14.8c-5.57,1.3-11.24,1.93-16.85,1.89c-0.15,0-0.3,0-0.45,0
				c-5.61-0.05-11.26-0.77-16.81-2.16l-0.12,14.8c-0.07,8.74,6.55,15.91,14.77,15.98L433.14,351.07z"/>
		</g>
		<g>
			<path class="st0" d="M419.07,284.9c8.28,1.4,16.58,1.47,24.88,0.2c1.18-4.6,1.57-9.21,1.17-13.82l-27.01-0.22
				C417.64,275.67,417.95,280.29,419.07,284.9z"/>
			<path d="M417.97,270.89l27.3,0.22l0.01,0.16c0.4,4.61,0.01,9.28-1.18,13.88l-0.03,0.11l-0.11,0.02
				c-8.28,1.26-16.67,1.2-24.93-0.2l-0.11-0.02l-0.03-0.11c-1.11-4.62-1.43-9.29-0.95-13.9L417.97,270.89z M444.97,271.46
				l-26.71-0.21c-0.45,4.48-0.13,9.02,0.93,13.51c8.16,1.37,16.44,1.43,24.62,0.2C444.96,280.48,445.35,275.94,444.97,271.46z"/>
		</g>
		<g>
			<path class="st6" d="M418.12,271.07l27.01,0.22c-0.03-0.33-0.06-0.67-0.1-1l-26.79-0.22
				C418.19,270.4,418.15,270.73,418.12,271.07z"/>
		</g>
		<g>
			<path class="st0" d="M445.02,270.28l0.06-7.21c-3.28-1.92-8.05-3.15-13.37-3.19s-10.11,1.11-13.42,2.97l-0.06,7.21L445.02,270.28
				z"/>
			<path d="M431.71,259.71c5.12,0.04,10.03,1.21,13.45,3.21l0.09,0.05l-0.06,7.49l-27.11-0.22l0.06-7.49l0.09-0.05
				C421.67,260.76,426.59,259.67,431.71,259.71z M444.91,263.17c-3.37-1.94-8.18-3.08-13.21-3.12c-5.03-0.04-9.85,1.02-13.25,2.9
				l-0.06,6.93l26.46,0.21L444.91,263.17z"/>
		</g>
		<g>
			<path class="st6" d="M414.12,320.13l-0.34,0.97c11.37,3.44,23.46,3.54,34.88,0.28l-0.33-0.97
				C437.12,323.53,425.27,323.44,414.12,320.13z"/>
		</g>
		<g>
			<path class="st0" d="M447.85,320.45l-4.09-12.21l-24.88-0.2l-4.28,12.15C425.44,323.4,436.95,323.49,447.85,320.45z"/>
			<path d="M418.77,307.86l25.11,0.2l4.18,12.51l-0.17,0.05c-10.93,3.05-22.46,2.96-33.34-0.27l-0.17-0.05L418.77,307.86z
				 M443.65,308.41l-24.66-0.2l-4.18,11.86c10.72,3.14,22.06,3.23,32.83,0.26L443.65,308.41z"/>
		</g>
		<g>
			<g>
				<path class="st5" d="M418.34,262.86l-0.17,0c-2.03-0.02-3.7,1.73-3.72,3.89l0,0.29C415.31,265.23,416.68,263.77,418.34,262.86z"
					/>
			</g>
			<g>
				<path class="st5" d="M445.03,263.08l0.17,0c2.03,0.02,3.67,1.79,3.65,3.95l0,0.29C448.02,265.5,446.68,264.01,445.03,263.08z"/>
			</g>
		</g>
		<g>
			<g>
				<path class="st0" d="M409.5,310.48c-0.12,0.53-0.01,1.16,0.25,1.41l2.98,2.78c0.05,0.05,0.1,0.08,0.16,0.09l0.02-2.57
					l-3.34-2.03L409.5,310.48z"/>
				<path class="st5" d="M409.47,309.89l3.61,2.19l-0.02,2.89l-0.19-0.04c-0.08-0.02-0.16-0.06-0.23-0.13l-2.98-2.78
					c-0.31-0.29-0.44-0.98-0.3-1.58L409.47,309.89z M412.75,312.28l-3.06-1.86l-0.02,0.1c-0.12,0.51,0.01,1.06,0.2,1.23l2.87,2.68
					L412.75,312.28z"/>
			</g>
			<g>
				<path class="st0" d="M453.1,310.83c0.11,0.53-0.01,1.16-0.27,1.4l-3.03,2.74c-0.05,0.05-0.11,0.07-0.16,0.09l0.02-2.57
					l3.37-1.97L453.1,310.83z"/>
				<path class="st5" d="M453.14,310.24l0.12,0.55c0.13,0.6-0.01,1.29-0.33,1.57l-3.03,2.74c-0.07,0.06-0.15,0.11-0.23,0.12
					l-0.2,0.04l0.02-2.89L453.14,310.24z M449.81,314.73l2.91-2.63c0.19-0.17,0.33-0.72,0.22-1.23l-0.02-0.1l-3.09,1.81
					L449.81,314.73z"/>
			</g>
		</g>
		<g>
			<g>
				<path class="st5" d="M422.29,329.38c-0.05,5.76,0.87,10.84,2.3,13.78c-1.05-3.01-1.7-7.37-1.66-12.21
					c0.02-2.34,0.2-4.56,0.5-6.57l-0.85-0.01C422.4,325.94,422.3,327.63,422.29,329.38z"/>
			</g>
			<g>
				<path class="st5" d="M440.01,329.52c-0.05,5.76-1.05,10.82-2.52,13.74c1.1-3,1.81-7.34,1.85-12.18
					c0.02-2.34-0.12-4.57-0.39-6.58l0.85,0.01C439.95,326.09,440.03,327.77,440.01,329.52z"/>
			</g>
		</g>
		<g>
			
				<rect x="418.97" y="285" transform="matrix(-1 -8.046840e-03 8.046840e-03 -1 860.4285 596.5967)" class="st0" width="24.89" height="23.14"/>
			<path d="M418.9,284.72l25.21,0.2l-0.19,23.48l-25.21-0.2L418.9,284.72z M443.78,285.27l-24.56-0.2l-0.18,22.79l24.56,0.2
				L443.78,285.27z"/>
		</g>
	</g>
	<g>
		<g>
			<g>
				<path class="st0" d="M597.63,315.21c0.66,5.63,0.61,11.25-0.14,16.87c-0.92,6.47-7.94,11.26-14.32,10.86
					c-20.87-1.16-41.76-1.32-62.64-0.48c-6.06,0.29-12.65-4.37-13.47-10.52c-0.76-6.02-0.71-12.04,0.15-18.05
					c0.92-6.14,7.58-10.69,13.64-10.3c20.87,1.18,41.75,1.36,62.64,0.53C589.87,303.82,596.81,308.72,597.63,315.21z"/>
				<path class="st5" d="M598.32,323.65c-0.02,2.83-0.22,5.65-0.6,8.46c-0.9,6.32-7.7,11.48-14.56,11.05
					c-20.76-1.16-41.83-1.32-62.62-0.48c-6.5,0.31-12.91-4.7-13.71-10.71c-0.76-6.02-0.71-12.11,0.15-18.11
					c0.9-6,7.39-10.9,13.88-10.49c20.77,1.18,41.84,1.35,62.62,0.53c6.86-0.32,13.58,4.95,14.38,11.28v0
					C598.19,318,598.34,320.82,598.32,323.65z M506.76,322.91c-0.02,3.01,0.15,6.01,0.53,9c0.78,5.8,6.96,10.63,13.23,10.33
					c20.8-0.84,41.89-0.68,62.67,0.48c6.63,0.42,13.21-4.57,14.07-10.67c0.74-5.57,0.79-11.23,0.14-16.82
					c-0.77-6.11-7.26-11.21-13.9-10.9c-20.8,0.82-41.88,0.64-62.67-0.53c-6.27-0.4-12.53,4.33-13.4,10.12
					C507.01,316.9,506.79,319.91,506.76,322.91z"/>
			</g>
		</g>
		<g>
			<path class="st6" d="M585.92,310.1L585.7,337c0.33-0.03,0.67-0.06,1-0.1l0.21-26.69C586.59,310.17,586.25,310.13,585.92,310.1z"
				/>
		</g>
		<g>
			<path class="st5" d="M575.7,307.27l-0.86,0.23c-6.12,1.62-14.23,2.47-22.82,2.4c-0.94-0.01-1.9-0.03-2.85-0.06l-0.06-0.01
				l-10.18-4.16l0.8-0.01c2.37-0.03,4.72-0.04,6.98-0.03c9.65,0.08,19.11,0.6,28.11,1.55L575.7,307.27z M549.21,309.52
				c0.94,0.03,1.88,0.05,2.81,0.06c8.15,0.07,15.86-0.7,21.84-2.17c-8.71-0.89-17.84-1.38-27.16-1.45c-2-0.02-4.07-0.01-6.17,0.01
				L549.21,309.52z"/>
		</g>
		<g>
			<path class="st5" d="M575.44,339.67l-0.88,0.08c-9.01,0.8-18.48,1.17-28.13,1.09c-2.24-0.02-4.59-0.06-6.98-0.14l-0.8-0.02
				l10.31-4.01c0.95-0.02,1.91-0.02,2.85-0.01c8.59,0.07,16.68,1.05,22.78,2.77L575.44,339.67z M540.26,340.4
				c2.11,0.06,4.18,0.1,6.16,0.11c9.31,0.07,18.45-0.27,27.18-1.01c-5.95-1.56-13.65-2.45-21.8-2.52c-0.93-0.01-1.87,0-2.81,0.01
				L540.26,340.4z"/>
		</g>
		<g>
			<path class="st0" d="M536.96,305.94l-15.02-0.12c-8.82-0.07-16.09,6.65-16.15,14.93l-0.03,4.33
				c-0.07,8.28,7.09,15.11,15.91,15.19l15.02,0.12c-1.33-5.64-1.99-11.44-1.93-17.24C534.78,317.35,535.54,311.56,536.96,305.94z"/>
			<path d="M537.18,305.78l-0.05,0.2c-1.43,5.67-2.19,11.43-2.2,17.17c0,0.07,0,0.15,0,0.23c-0.05,5.65,0.6,11.36,1.93,16.97
				l0.05,0.2l-15.24-0.12c-8.94-0.07-16.15-6.96-16.08-15.35l0.03-4.33c0.07-8.39,7.39-15.16,16.33-15.09L537.18,305.78z
				 M505.92,325.07c-0.07,8.21,6.99,14.95,15.74,15.02l14.8,0.12c-1.3-5.57-1.93-11.24-1.89-16.85c0-0.15,0-0.3,0-0.45
				c0.05-5.61,0.77-11.26,2.16-16.81l-14.8-0.12c-8.74-0.07-15.91,6.55-15.98,14.77L505.92,325.07z"/>
		</g>
		<g>
			<path class="st0" d="M572.09,311c-1.4,8.28-1.47,16.58-0.2,24.88c4.6,1.18,9.21,1.57,13.82,1.17l0.22-27.01
				C581.32,309.57,576.71,309.89,572.09,311z"/>
			<path d="M586.1,309.9l-0.22,27.3l-0.16,0.01c-4.61,0.4-9.28,0.01-13.88-1.18l-0.11-0.03l-0.02-0.11
				c-1.26-8.28-1.2-16.67,0.2-24.93l0.02-0.11l0.11-0.03c4.62-1.11,9.29-1.43,13.9-0.95L586.1,309.9z M585.54,336.9l0.21-26.71
				c-4.48-0.45-9.02-0.13-13.51,0.93c-1.37,8.16-1.43,16.44-0.2,24.62C576.52,336.89,581.06,337.28,585.54,336.9z"/>
		</g>
		<g>
			<path class="st6" d="M585.93,310.05l-0.22,27.01c0.33-0.03,0.67-0.06,1-0.1l0.22-26.79C586.6,310.12,586.26,310.08,585.93,310.05
				z"/>
		</g>
		<g>
			<path class="st0" d="M586.72,336.95l7.21,0.06c1.92-3.28,3.15-8.05,3.19-13.37c0.04-5.32-1.11-10.11-2.97-13.42l-7.21-0.06
				L586.72,336.95z"/>
			<path d="M597.29,323.64c-0.04,5.12-1.21,10.03-3.21,13.45l-0.05,0.09l-7.49-0.06l0.22-27.11l7.49,0.06l0.05,0.09
				C596.24,313.6,597.33,318.52,597.29,323.64z M593.82,336.85c1.94-3.37,3.08-8.18,3.12-13.21c0.04-5.03-1.02-9.85-2.9-13.25
				l-6.93-0.06l-0.21,26.46L593.82,336.85z"/>
		</g>
		<g>
			<path class="st6" d="M536.87,306.05l-0.97-0.34c-3.44,11.37-3.54,23.46-0.28,34.88l0.97-0.33
				C533.46,329.05,533.56,317.21,536.87,306.05z"/>
		</g>
		<g>
			<path class="st0" d="M536.55,339.78l12.21-4.09l0.2-24.88l-12.15-4.28C533.6,317.37,533.51,328.89,536.55,339.78z"/>
			<path d="M549.14,310.7l-0.2,25.11L536.43,340l-0.05-0.17c-3.05-10.93-2.96-22.46,0.27-33.34l0.05-0.17L549.14,310.7z
				 M548.59,335.58l0.2-24.66l-11.86-4.18c-3.14,10.72-3.23,22.06-0.26,32.83L548.59,335.58z"/>
		</g>
		<g>
			<g>
				<path class="st5" d="M594.13,310.27l0-0.17c0.02-2.03-1.73-3.7-3.89-3.72l-0.29,0C591.76,307.24,593.23,308.61,594.13,310.27z"
					/>
			</g>
			<g>
				<path class="st5" d="M593.92,336.96l0,0.17c-0.02,2.03-1.79,3.67-3.95,3.65l-0.29,0C591.5,339.95,592.99,338.61,593.92,336.96z"
					/>
			</g>
		</g>
		<g>
			<g>
				<path class="st0" d="M546.52,301.43c-0.53-0.12-1.16-0.01-1.41,0.25l-2.78,2.98c-0.05,0.05-0.08,0.1-0.09,0.16l2.57,0.02
					l2.03-3.34L546.52,301.43z"/>
				<path class="st5" d="M547.11,301.4l-2.19,3.61l-2.89-0.02l0.04-0.19c0.02-0.08,0.06-0.16,0.13-0.23l2.78-2.98
					c0.29-0.31,0.98-0.44,1.58-0.3L547.11,301.4z M544.72,304.68l1.86-3.06l-0.1-0.02c-0.51-0.12-1.06,0.01-1.23,0.2l-2.68,2.87
					L544.72,304.68z"/>
			</g>
			<g>
				<path class="st0" d="M546.17,345.03c-0.53,0.11-1.16-0.01-1.4-0.27l-2.74-3.03c-0.05-0.05-0.07-0.11-0.09-0.16l2.57,0.02
					l1.97,3.37L546.17,345.03z"/>
				<path class="st5" d="M546.76,345.07l-0.55,0.12c-0.6,0.13-1.29-0.01-1.57-0.33l-2.74-3.03c-0.07-0.07-0.11-0.15-0.12-0.23
					l-0.04-0.2l2.89,0.02L546.76,345.07z M542.27,341.74l2.63,2.91c0.17,0.19,0.72,0.33,1.23,0.22l0.1-0.02l-1.81-3.09
					L542.27,341.74z"/>
			</g>
		</g>
		<g>
			<g>
				<path class="st5" d="M527.62,314.22c-5.76-0.05-10.84,0.87-13.78,2.3c3.01-1.05,7.37-1.7,12.21-1.66
					c2.34,0.02,4.56,0.2,6.57,0.5l0.01-0.85C531.05,314.33,529.37,314.23,527.62,314.22z"/>
			</g>
			<g>
				<path class="st5" d="M527.48,331.94c-5.76-0.05-10.82-1.05-13.74-2.52c3,1.1,7.34,1.81,12.18,1.85
					c2.34,0.02,4.57-0.12,6.58-0.39l-0.01,0.85C530.91,331.88,529.23,331.96,527.48,331.94z"/>
			</g>
		</g>
		<g>
			
				<rect x="547.99" y="311.78" transform="matrix(8.046840e-03 -1 1 8.046840e-03 232.5843 881.1552)" class="st0" width="24.89" height="23.14"/>
			<path d="M572.27,310.84l-0.2,25.21l-23.48-0.19l0.2-25.21L572.27,310.84z M571.73,335.72l0.2-24.56l-22.79-0.18l-0.2,24.56
				L571.73,335.72z"/>
		</g>
	</g>
	<line class="グラフィックスタイル" x1="121.5" y1="360.31" x2="637.78" y2="360.31"/>
	<line class="st8" x1="146.84" y1="451.04" x2="617.65" y2="451.04"/>
	<polygon class="グラフィックスタイル_x0020_3" points="197.5,87.74 197.5,260.05 276.6,260.05 276.6,213.52 
		376.22,213.52 376.22,90.49 	"/>
	<polygon class="グラフィックスタイル_x0020_3" points="411.63,90.12 411.63,210.93 509.63,210.93 509.63,250.96 
		591.8,250.96 591.8,90.12 	"/>
	<g>
		
			<rect x="276.72" y="233.1" transform="matrix(-1 -1.224647e-16 1.224647e-16 -1 593.5803 472.8714)" class="グラフィックスタイル_x0020_4" width="40.15" height="6.68"/>
		
			<rect x="276.72" y="239.78" transform="matrix(-1 -1.224647e-16 1.224647e-16 -1 593.5803 486.2335)" class="グラフィックスタイル_x0020_4" width="40.15" height="6.68"/>
		
			<rect x="276.72" y="246.46" transform="matrix(-1 -1.224647e-16 1.224647e-16 -1 593.5803 499.5956)" class="グラフィックスタイル_x0020_4" width="40.15" height="6.68"/>
		
			<rect x="276.72" y="213.52" transform="matrix(-1 -1.224647e-16 1.224647e-16 -1 593.5803 446.6115)" class="st4" width="40.15" height="19.58"/>
		<polygon points="296.79,217.79 288.9,229.27 304.68,229.27 		"/>
	</g>
	<g>
		
			<rect x="469.49" y="231.79" transform="matrix(-1 -1.224647e-16 1.224647e-16 -1 979.1329 470.692)" class="グラフィックスタイル_x0020_4" width="40.15" height="7.12"/>
		
			<rect x="469.49" y="238.9" transform="matrix(-1 -1.224647e-16 1.224647e-16 -1 979.1329 484.9259)" class="グラフィックスタイル_x0020_4" width="40.15" height="7.12"/>
		
			<rect x="469.49" y="246.02" transform="matrix(-1 -1.224647e-16 1.224647e-16 -1 979.1329 499.1598)" class="グラフィックスタイル_x0020_4" width="40.15" height="7.12"/>
		
			<rect x="469.49" y="210.93" transform="matrix(-1 -1.224647e-16 1.224647e-16 -1 979.1329 442.7189)" class="st4" width="40.15" height="20.86"/>
		<polygon points="489.57,215.48 481.68,227.72 497.45,227.72 		"/>
	</g>
	<polyline class="グラフィックスタイル_x0020_7" points="356.69,375.43 346.6,360.31 346.6,450.16 338.91,438.59 	"/>
	<g>
		<path d="M483.39,143.83c1.08-4.45,4.74-8.89,10.35-12.63l1.08-0.71c5.82-3.78,7.35-5.61,7.35-8.64c0-3.41-2.83-5.69-7.1-5.69
			c-3.49,0-5.94,1.29-8.6,4.45l-2.62-2.2c3.16-3.91,6.52-5.57,11.38-5.57c6.48,0,11.22,3.82,11.22,9.1c0,4.2-1.62,6.15-9.06,10.89
			l-1.5,0.96c-4.94,3.24-8.06,6.81-8.43,9.81h19.49v3.53h-23.56V143.83z"/>
		<path d="M466.31,174.28c-0.42,1.5-0.91,2.91-1.37,4.07h23.35c-0.33,5.07-1.16,9.6-2.2,11.88c-1.04,2.33-2.37,2.99-6.11,2.99
			c-2.2,0-5.15-0.12-7.19-0.29l-0.75-3.16c2.87,0.25,5.65,0.42,7.65,0.42c2.08,0,2.7-0.33,3.28-1.66c0.5-1.29,1.16-4.2,1.58-7.35
			h-20.73c-0.54,1.16-1.12,2.37-1.75,3.53l-3.37-0.96c1.5-2.66,2.87-5.82,4.11-9.47h-9.27v-2.83h39.47v2.83H466.31z M486.84,167.67
			h-27.13v-11.8h27.13V167.67z M463.07,165.01h20.4v-6.4h-20.4V165.01z"/>
		<path d="M503.75,172.9c-1.33,4.24-3.03,8.06-5.03,11.26l-1.54-3.32c2.7-4.03,4.82-9.06,6.27-15h-5.69v-2.91h5.98v-8.89h3.07v8.89
			h4.32v2.91h-4.32v3.86c1.87,1.54,3.62,3.2,5.11,4.86l-1.75,2.78c-0.75-1.12-2.12-2.87-3.37-4.28v20.44h-3.07V172.9z
			 M526.94,178.68c2.66,3.82,6.15,6.9,10.59,9.39l-1.95,2.91c-4.36-2.74-8.23-6.56-10.72-10.64v13.17h-2.95v-12.92
			c-2.62,4.45-6.15,8.1-10.68,10.97l-2.08-2.53c4.53-2.53,8.14-5.94,10.89-10.35h-7.69v-14.79h9.56v-3.07h-11.72v-2.7h11.72v-4.07
			h2.95v4.07h11.97v2.7h-11.97v3.07h9.85v14.79H526.94z M515.3,166.42v3.53h6.61v-3.53H515.3z M515.3,172.49v3.62h6.61v-3.62H515.3z
			 M524.86,169.95h6.94v-3.53h-6.94V169.95z M524.86,176.1h6.94v-3.62h-6.94V176.1z"/>
	</g>
	<g>
		<path d="M286.03,115c-1.87,0.83-5.53,1.95-8.06,2.49l-0.91-3.12c3.82-0.79,8.1-2.37,10.05-3.7h2.78v34.28h-3.86V115z"/>
		<path d="M257.86,172.12c-0.42,1.5-0.91,2.91-1.37,4.07h23.35c-0.33,5.07-1.16,9.6-2.2,11.88c-1.04,2.33-2.37,2.99-6.11,2.99
			c-2.2,0-5.15-0.12-7.19-0.29l-0.75-3.16c2.87,0.25,5.65,0.42,7.65,0.42c2.08,0,2.7-0.33,3.28-1.66c0.5-1.29,1.16-4.2,1.58-7.35
			h-20.73c-0.54,1.16-1.12,2.37-1.75,3.53l-3.37-0.96c1.5-2.66,2.87-5.82,4.11-9.47h-9.27v-2.83h39.47v2.83H257.86z M278.38,165.52
			h-27.13v-11.8h27.13V165.52z M254.62,162.86h20.4v-6.4h-20.4V162.86z"/>
		<path d="M295.3,170.75c-1.33,4.24-3.03,8.06-5.03,11.26l-1.54-3.32c2.7-4.03,4.82-9.06,6.27-15h-5.69v-2.91h5.98v-8.89h3.07v8.89
			h4.32v2.91h-4.32v3.86c1.87,1.54,3.62,3.2,5.11,4.86l-1.75,2.78c-0.75-1.12-2.12-2.87-3.37-4.28v20.44h-3.07V170.75z
			 M318.48,176.53c2.66,3.82,6.15,6.9,10.59,9.39l-1.95,2.91c-4.36-2.74-8.23-6.56-10.72-10.64v13.17h-2.95v-12.92
			c-2.62,4.45-6.15,8.1-10.68,10.97l-2.08-2.53c4.53-2.53,8.14-5.94,10.89-10.35h-7.69v-14.79h9.56v-3.07h-11.72v-2.7h11.72v-4.07
			h2.95v4.07h11.97v2.7H316.4v3.07h9.85v14.79H318.48z M306.85,164.27v3.53h6.61v-3.53H306.85z M306.85,170.34v3.62h6.61v-3.62
			H306.85z M316.4,167.8h6.94v-3.53h-6.94V167.8z M316.4,173.95h6.94v-3.62h-6.94V173.95z"/>
	</g>
</g>
</svg>
