<?xml version="1.0" encoding="utf-8"?>
<!-- Generator: Adobe Illustrator 23.0.3, SVG Export Plug-In . SVG Version: 6.00 Build 0)  -->
<svg version="1.1" xmlns="http://www.w3.org/2000/svg" xmlns:xlink="http://www.w3.org/1999/xlink" x="0px" y="0px"
	 viewBox="0 0 700 278.25" style="enable-background:new 0 0 700 278.25;" xml:space="preserve">
<style type="text/css">
	.st0{fill:#980051;}
	.st1{fill:none;stroke:#980051;stroke-width:1.7614;stroke-miterlimit:10;}
</style>
<g id="レイヤー_1">
</g>
<g id="レイヤー_3">
</g>
<g id="レイヤー_4">
</g>
<g id="レイヤー_2">
	<g>
		<g>
			<path d="M108.21,69.98c-1.91-2.08-7.31-9.75-7.31-20.25c0-10.5,5.41-18.17,7.31-20.25l0.49,0.35c-1.55,2.44-1.64,2.57-2.22,3.77
				c-3.68,7.71-3.68,14.05-3.68,16.13c0,2.08,0,8.42,3.68,16.13c0.58,1.2,0.67,1.33,2.22,3.77L108.21,69.98z M111.93,36.21
				c0-1.11-0.09-2.79-0.35-5.05l2.92,0.75c0.49,0.13,1.24,0.35,1.24,0.71c0,0.53-0.67,0.84-1.24,1.33v6.03h0.75l0.93-1.46
				c0.13-0.22,0.4-0.62,0.62-0.62c0.22,0,0.62,0.44,0.71,0.58l0.97,1.42c0.09,0.13,0.22,0.53,0.22,0.71c0,0.31-0.18,0.35-0.35,0.35
				h-3.86v4.34c1.33,0.8,4.03,2.44,4.03,4.79c0,1.24-0.84,1.91-1.59,1.91c-1.42,0-1.64-1.99-1.68-3.06
				c-0.09-1.46-0.22-2.17-0.75-3.06v7.89c0,1.73,0.13,10.06,0.13,11.92c0,0.58,0,2.53-2.13,2.53c-1.24,0-1.24-1.37-1.24-1.86
				c0-0.84,0.4-5.01,0.44-5.94c0.13-2.17,0.22-4.3,0.22-7.58v-4.34c-0.8,1.99-2.39,6.12-6.42,10.19l-0.35-0.35
				c3.9-6.29,5.89-13.91,6.51-17.37c-1.82,0-2.75,0-4.39,0.27l-0.67-1.6c1.77,0.22,3.9,0.35,4.52,0.35h0.8V36.21z M140.42,61.12
				c-1.86,0.53-2.97,1.73-3.59,2.53c-4.08-4.21-6.03-8.6-7.67-13.38v5.18c0,1.55,0,3.19,0.04,4.79c0.04,0.8,0.31,4.74,0.31,5.63
				c0,1.68-1.11,2.39-2.17,2.39c-0.71,0-1.11-0.35-1.11-1.46c0-0.67,0.13-3.81,0.13-4.52c0.09-2.88,0.09-4.65,0.09-6.2v-4.21
				c-2.92,5.23-5.76,8.06-10.06,11.21l-0.27-0.44c3.41-3.46,7.13-9.35,9.04-13.6c-1.68,0-3.54,0-5.63,0.22l-0.71-1.55
				c1.33,0.13,4.92,0.31,5.76,0.31h1.86v-6.69h-4.48c-1.15,2.04-2.35,3.86-4.03,5.54l-0.35-0.31c0.44-0.97,3.41-6.91,3.46-12.5
				l3.54,1.73c0.18,0.04,0.44,0.22,0.44,0.44c0,0.49-0.53,0.58-1.2,1.06c-0.44,1.15-0.93,2.22-1.33,3.01h3.94v-3.68
				c0-0.53-0.09-3.01-0.58-5.36l3.81,0.84c0.31,0.09,0.62,0.22,0.62,0.44c0,0.31-0.53,0.84-1.15,1.64v6.12h3.32l1.29-1.77
				c0.18-0.22,0.4-0.53,0.62-0.53c0.22,0,0.62,0.35,0.71,0.49l1.77,1.77c0.22,0.22,0.49,0.53,0.49,0.71c0,0.27-0.18,0.35-0.35,0.35
				h-7.84V48h5.05l1.33-1.86c0.13-0.13,0.4-0.49,0.53-0.49c0.27,0,0.53,0.31,0.71,0.44l2.26,1.99c0.13,0.13,0.35,0.4,0.35,0.62
				c0,0.31-0.31,0.31-0.44,0.31h-9.62c4.17,9.53,10.68,11.48,11.12,11.56L140.42,61.12z M136.92,29.48
				c2.22,2.44,7.31,10.06,7.31,20.25c0,10.19-5.1,17.81-7.31,20.25l-0.49-0.35c1.55-2.44,1.64-2.57,2.21-3.77
				c3.68-7.71,3.68-14.05,3.68-16.13c0-2.08,0-8.42-3.68-16.13c-0.58-1.2-0.66-1.33-2.21-3.77L136.92,29.48z"/>
			<path d="M163.33,44.28c-0.22,0.27-0.44,0.53-0.8,1.24c-2.97,5.63-8.15,13.12-16.04,16l-0.18-0.35c9.84-9,12.63-17.15,12.63-18.57
				s-1.37-2.22-2.79-2.92c0.44-0.31,0.75-0.58,2.04-0.58c3.24,0,6.12,2.7,6.12,3.85C164.31,43.26,163.91,43.66,163.33,44.28z
				 M183.4,58.68c-0.4,0.62-1.02,0.93-1.64,0.93c-1.42,0-1.77-1.51-1.99-2.53c-1.42-6.56-4.87-12.5-9.7-17.19
				c8.15,3.63,13.87,10.99,13.87,16.53C183.94,56.82,183.89,57.93,183.4,58.68z"/>
			<path d="M219.74,44.99c-0.98,0.58-1.02,0.75-1.33,1.99c-1.59,6.29-3.9,10.59-8.51,14.62c-0.71,0.67-5.72,5.01-10.06,5.76
				l-0.13-0.31c5.63-3.46,10.19-8.42,12.94-14.45c1.28-2.84,2.7-7.58,2.7-8.29c0-0.62-0.4-0.67-0.89-0.67c-4.34,0-5.23,0-8.77,0.27
				c-1.2,0.09-7.58,0.8-7.62,0.8c-0.27,0-0.4-0.04-1.59-0.44c0,0.35,0.13,3.99,0.13,4.56s0.22,3.01,0.22,3.54
				c0,1.55-0.35,1.99-0.89,1.99c-0.8,0-2.17-1.06-2.44-1.64c-0.35-0.71-0.4-1.82-0.4-2.7c0-6.74-0.58-7.49-2.97-8.55
				c0.62-0.22,1.6-0.53,2.53-0.53c1.02,0,1.37,0.18,2.88,0.93c0.13,0.04,1.51,0.62,2.26,0.62c1.02,0,5.49-0.44,6.42-0.53
				c-0.04-1.64-0.13-4.12-0.4-4.83c-0.31-0.84-0.53-0.89-3.81-1.77c1.68-1.51,3.15-1.51,3.32-1.51c1.11,0,4.96,0.89,4.96,2.3
				c0,0.31-0.58,1.68-0.62,1.95c-0.04,0.31-0.27,2.75-0.27,3.63c1.15-0.13,4.79-0.44,5.94-0.44c1.24,0,1.46,0,2.17-0.49
				c1.2-0.84,1.33-0.93,1.51-0.93c0.44,0,3.85,3.5,3.85,3.99C220.89,44.28,220.58,44.45,219.74,44.99z"/>
			<path d="M257.22,65.15c-1.2,0-1.86-1.15-2.3-1.86c-3.41-5.67-5.45-8.51-9-11.3c-6.78,8.06-13.51,12.36-19.76,13.47V65.1
				c10.59-4.92,21.54-19.76,23-26.06c-0.13,0.04-9,1.64-11.34,2.79c-1.29,0.66-1.46,0.71-1.82,0.71c-0.66,0-3.46-2.04-3.46-4.87
				c0-1.15,0.18-1.46,0.4-1.95c1.82,2.35,2.17,2.84,3.63,2.84c1.06,0,10.77-0.84,12.58-1.99c0.31-0.22,1.73-1.42,2.08-1.42
				c0.58,0,4.03,3.28,4.03,3.99c0,0.49-0.31,0.62-1.73,1.15c-0.4,0.18-0.58,0.49-1.24,1.68c-2.92,5.32-3.41,6.2-5.72,9.17
				c5.41,2.26,12.36,7.58,12.36,11.56C258.95,63.77,258.55,65.15,257.22,65.15z"/>
			<path d="M294.62,42.11c-0.49,0.22-0.89,0.44-1.42,1.99c-5.5,16.57-15.51,20.83-21.98,22.64l-0.13-0.4
				c8.91-5.01,16.97-15.11,19.45-26.23c-1.86-0.09-16,1.64-18.79,3.1c-0.71,0.4-0.84,0.49-1.11,0.49c-0.53,0-3.9-1.82-3.9-5.63
				c0-0.71,0.22-1.24,0.49-1.91c0.4,0.4,1.91,2.26,2.3,2.57c0.44,0.31,1.06,0.58,2.26,0.58c3.01,0,17.1-1.33,18.21-1.82
				c0.35-0.18,1.73-1.24,2.08-1.24c0.49,0,2.92,2.39,3.32,2.84c0.44,0.44,0.71,0.84,0.71,1.46
				C296.12,41.4,295.81,41.57,294.62,42.11z"/>
			<path d="M309.46,38.25c-0.4,0.89-0.71,1.77-0.71,5.01c0,1.11,0.18,5.98,0.18,7c0,0.67,0,3.63-1.64,3.63
				c-0.84,0-2.44-1.37-2.44-3.77c0-0.4,0.22-1.95,0.31-2.79c0.13-1.42,0.18-4.43,0.18-6.69c0-3.24,0-4.12-3.72-5.01
				c0.71-0.44,1.77-1.06,2.79-1.06c1.24,0,5.41,1.42,5.41,2.66C309.81,37.45,309.77,37.63,309.46,38.25z M324.48,38.07
				c-0.22,1.73-0.09,4.52-0.13,6.25c-0.18,8.2-0.75,13.78-5.41,18.74c-1.55,1.64-4.61,4.34-8.46,4.79l-0.13-0.31
				c5.85-3.23,8.69-9.66,9.44-13.34c0.98-4.92,0.98-11.92,0.98-13.29c0-6.16-0.22-6.29-4.3-7.13c0.67-0.53,1.6-1.28,3.37-1.28
				c2.21,0,5.45,1.33,5.45,2.39C325.28,35.37,324.53,37.59,324.48,38.07z"/>
			<path d="M365.73,51.77c-0.71,0-1.82-0.04-2.7-0.13c-0.84-0.04-11.65-0.13-12.41-0.13c-2.57,0-9.35,0.13-11.39,0.71
				c-0.8,0.22-1.15,0.31-1.51,0.31c-1.64,0-4.12-3.5-4.12-5.27c0-0.58,0.18-1.33,0.71-2.48c1.55,3.1,2.61,3.63,7.89,3.63
				c2.57,0,17.95-0.04,19.45-0.58c0.67-0.22,1.2-0.44,1.77-0.44c0.09,0,5.27,0.4,5.27,2.75C368.7,50.88,367.86,51.77,365.73,51.77z"
				/>
			<path d="M402.55,42.81c-0.93,0.44-1.15,0.67-1.68,1.77c-1.59,3.37-5.67,10.19-9.3,14.27c-3.99,4.43-9.48,7.18-15.24,8.86
				l-0.13-0.31c5.98-3.1,11.57-8.29,15.02-13.16c-0.75-0.27-1.51-1.15-2.3-2.08c-2.44-2.75-3.32-3.32-4.79-4.25
				c-1.64,1.68-3.77,3.59-7.71,5.72l-0.18-0.22c4.48-4.34,10.81-13.91,10.81-16.71c0-0.84-0.84-1.33-2.48-2.17
				c1.77-0.71,1.99-0.75,2.53-0.75c1.2,0,5.27,2.13,5.27,3.19c0,0.44-0.22,0.62-0.97,1.37c-0.35,0.31-1.02,1.29-1.29,1.64
				c1.02,0.18,7.44-0.35,8.82-1.24c0.22-0.13,1.11-0.71,1.29-0.71c0.75,0,3.68,3.19,3.68,3.81
				C403.88,42.19,403.53,42.33,402.55,42.81z M391.61,42.59c-0.93,0-1.73-0.53-2.57-1.11c-0.44,0.66-2.97,4.25-4.34,5.76
				c6.43,0.8,7.98,2.39,8.11,4.56c1.82-2.79,4.56-7.84,5.23-10.28C397.01,41.66,392.09,42.59,391.61,42.59z M404.94,39.67
				c-0.8,0-1.2-0.49-2.53-2.08c-1.28-1.6-2.88-2.7-4.03-3.5c4.21,0.62,7.75,1.15,7.75,4.03C406.14,38.96,405.61,39.67,404.94,39.67z
				 M409.33,37.85c-0.62,0-1.33-0.67-1.95-1.33c-1.42-1.6-2.44-2.7-4.87-3.94c2.39-0.13,7.98,0.58,7.98,3.63
				C410.48,37.19,410,37.85,409.33,37.85z"/>
			<path d="M442.47,63.69c-1.37,0-1.82-1.24-2.3-2.61c-0.13-0.4-1.68-4.61-1.77-4.83c-3.85,1.59-8.68,2.79-17.86,5.14
				c-1.2,0.31-1.51,0.4-2.04,1.06c-0.44,0.49-0.67,0.67-1.06,0.67c-1.2,0-3.77-3.59-3.77-6.03c0-0.22,0-0.44,0.09-1.11
				c1.51,1.46,1.95,1.82,3.86,1.82c0.62,0,1.15-0.04,1.51-0.09c1.64-3.32,7.98-17.37,7.98-20.21c0-1.68-0.97-2.35-3.46-3.41
				c1.15-0.35,2.17-0.71,3.1-0.71c2.08,0,5.49,2.53,5.49,4.52c0,0.71-0.18,0.89-1.24,1.86c-0.62,0.62-2.08,4.21-2.44,4.87
				c-1.91,3.72-5.05,9.04-7.89,12.94c8.33-0.97,9.26-1.06,17.33-2.26c-1.91-4.17-4.7-7.22-5.94-8.55c1.42,0.58,3.41,1.51,6.78,4.83
				c4.56,4.43,5.36,7.09,5.36,9.35C444.2,62.58,443.49,63.69,442.47,63.69z"/>
			<path d="M504.64,36.88h-31.82c-2.7,0-3.68,0.13-4.79,0.31l-0.71-1.64c2.66,0.27,5.8,0.27,6.29,0.27h10.86
				c0.09-3.01-0.44-5.41-1.11-6.6l5.49,1.68c0.22,0.09,0.67,0.22,0.67,0.71c0,0.53-0.89,0.84-1.33,0.97c0,0.75,0,0.89-0.09,3.24
				h10.01l2.26-2.57c0.44-0.49,0.49-0.58,0.71-0.58s0.58,0.31,0.8,0.49l2.97,2.57c0.22,0.22,0.44,0.4,0.44,0.71
				C505.3,36.83,504.9,36.88,504.64,36.88z M502.56,53.8c-0.09,1.68,0.27,9,0.27,10.5c0,1.51,0,3.01-2.35,4.52
				c-1.51,0.93-2.75,1.06-3.59,1.15c0-1.55-1.82-3.68-4.12-4.92v-0.31c1.02,0.13,2.39,0.31,4.96,0.31c1.29,0,1.42-0.31,1.42-3.63
				c0-1.64-0.09-7.22-0.22-8.73h-25.39c-0.13,1.06-0.13,1.29-0.13,3.28c0,1.68,0.13,9.08,0.13,10.59c0,1.24,0,2.88-2.53,2.88
				c-0.97,0-1.59-0.49-1.59-1.51c0-1.51,0.31-3.9,0.4-5.41c0.13-1.99,0.13-3.32,0.13-4.43c0-2.92,0-6.96-0.53-8.73l4.56,2.26h24.46
				l1.51-1.55c0.13-0.13,0.4-0.35,0.71-0.35s0.71,0.31,0.89,0.44l2.17,1.68c0.31,0.22,0.4,0.35,0.4,0.62
				C504.11,52.83,503.97,52.92,502.56,53.8z M496.71,42.19c-0.09,0.84,0.18,4.74,0.18,5.54c0,1.68-2.66,1.86-2.79,1.86
				c-1.37,0-1.02-1.99-0.97-2.26h-14.67c0,1.2-0.04,1.55-0.35,1.91c-0.44,0.53-1.59,0.84-2.3,0.84c-1.11,0-1.11-0.66-1.11-1.11
				c0-0.97,0.18-5.41,0.18-6.29c0-0.84-0.09-4.12-0.13-4.65l4.03,1.86h14.09l1.29-1.24c0.13-0.13,0.49-0.44,0.66-0.44
				c0.27,0,0.31,0.09,0.8,0.44l2.3,1.77c0.22,0.18,0.27,0.31,0.27,0.53C498.17,41.44,498.04,41.49,496.71,42.19z M493.69,57.66
				c0,0.89,0,1.91,0.04,2.84c0.04,0.4,0.18,1.95,0.18,2.26c0,1.11-0.58,1.42-0.8,1.55c-0.49,0.27-1.24,0.53-1.77,0.53
				c-0.71,0-1.29-0.35-1.29-0.93c0-0.27,0.09-0.71,0.09-1.02h-8.68c0.09,0.93,0.27,2.61-1.99,2.61c-0.62,0-1.68-0.18-1.68-1.11
				c0-0.22,0.31-4.83,0.31-5.72c0-1.64-0.27-3.99-0.49-4.96l4.12,2.3h8.06l1.33-1.42c0.27-0.31,0.44-0.49,0.58-0.49
				c0.27,0,0.58,0.27,0.71,0.35l1.91,1.59c0.22,0.18,0.35,0.35,0.35,0.62C494.67,56.86,494.67,57.04,493.69,57.66z M493.21,40.95
				h-14.71v5.32h14.71V40.95z M490.15,57.08h-8.73v4.74h8.73V57.08z"/>
			<path d="M547.44,38.83c-0.27,0.13-2.84,1.95-4.25,2.92l-0.31-0.13c0.18-0.8,0.8-4.12,1.06-5.36h-26.1
				c-0.27,4.52-2.97,5.94-4.52,5.94c-1.06,0-2.22-0.93-2.22-1.95c0-1.55,1.06-2.26,2.48-3.19c2.75-1.77,3.23-3.32,3.72-4.83h0.31
				c0.09,0.89,0.18,1.55,0.22,2.97h11.88c0.04-3.23-0.62-4.83-1.2-6.11l5.36,1.42c0.4,0.09,0.84,0.27,0.84,0.71
				c0,0.44-0.13,0.53-1.29,1.24v2.75h10.28l1.95-1.55c0.27-0.18,0.58-0.4,0.71-0.4c0.18,0,0.62,0.4,0.8,0.53l3.01,2.88
				c0.35,0.31,0.4,0.71,0.4,0.93C550.59,38.78,549.39,38.78,547.44,38.83z M544.34,59.3c0,1.33,0.13,7.18,0.13,8.38
				c0,0.58,0,2.39-2.3,2.39c-0.09,0-1.46,0-1.46-1.51v-0.75h-19.54c0.09,1.55-1.37,2.26-2.26,2.26c-1.68,0-1.77-1.46-1.77-2.22
				c0-1.02,0.13-5.5,0.13-6.43c0-5.32-0.13-5.98-0.27-6.82l4.87,2.17h5.58c0.09-0.44,0.49-2.61,0.58-3.01
				c0.18-1.11,0.27-1.95,0.31-2.53h-4.87c-0.04,0.71-0.18,2.26-2.26,2.26c-0.97,0-1.82-0.44-1.82-1.37c0-1.42,0.22-3.72,0.22-5.14
				c0-5.14-0.18-6.12-0.49-7.62l4.43,2.35h14.05l1.46-1.55c0.22-0.22,0.4-0.4,0.58-0.4c0.22,0,0.4,0.18,0.71,0.44l2.35,1.91
				c0.31,0.27,0.4,0.31,0.4,0.53c0,0.4-0.93,1.02-1.42,1.28v3.59c0,0.53,0.27,2.84,0.27,3.32c0,2.08-2.04,2.08-2.61,2.08
				c-0.8,0-1.2-0.53-1.2-1.33v-0.35h-5.36c-1.51,2.35-2.84,3.94-4.43,5.54h11.74l1.37-1.64c0.18-0.18,0.53-0.58,0.75-0.58
				c0.27,0,0.62,0.22,0.84,0.44l2.13,1.95c0.04,0.04,0.49,0.49,0.49,0.93C545.67,58.28,545.53,58.41,544.34,59.3z M540.7,57.84
				h-19.58v8.91h19.58V57.84z M538.14,42.77h-14.67v7.4h14.67V42.77z"/>
			<path d="M595.2,37.32h-29.82c0.04,2.26,0.09,4.48,0.09,6.74c0,8.37-0.44,18.88-8.2,25.57l-0.22-0.31
				c3.63-6.16,4.7-12.67,4.7-21.76c0-4.56,0-9.75-0.93-13.69l4.79,2.39h9.35c0-2.22-0.18-4.65-1.02-6.78l5.45,1.02
				c0.35,0.04,0.62,0.35,0.62,0.62c0,0.44-1.02,1.2-1.33,1.51c-0.04,0.44-0.09,2.92-0.13,3.63h10.41l2.08-2.48
				c0.22-0.27,0.44-0.58,0.67-0.58c0.27,0,0.58,0.31,0.8,0.49l2.97,2.48c0.22,0.22,0.44,0.44,0.44,0.71
				C595.91,37.28,595.52,37.32,595.2,37.32z M593.17,46.23h-12.72v8.55h6.6l1.55-1.91c0.22-0.27,0.4-0.53,0.62-0.53
				c0.27,0,0.44,0.18,0.71,0.35l2.21,1.55c0.27,0.18,0.53,0.44,0.53,0.71c0,0.35-0.27,0.58-0.4,0.71c-0.18,0.13-0.93,0.71-1.06,0.84
				c0.04,1.51,0.18,8.15,0.22,9.53c0.04,0.31,0.13,1.73,0.13,2.04c0,0.75-0.75,1.99-2.26,1.99c-1.33,0-1.73-0.8-1.64-1.86h-15.29
				c-0.04,1.2-0.04,1.29-0.4,1.64c-0.22,0.22-0.98,0.75-2.04,0.75c-0.84,0-1.51-0.4-1.51-1.24c0-0.84,0.18-2.17,0.22-3.01
				c0.04-2.44,0.09-7,0.09-9.48c0-1.77-0.22-3.32-0.4-4.39l4.65,2.3h3.9c-0.04-10.9-0.09-14.62-0.89-16.17l4.83,0.93
				c0.44,0.09,0.93,0.22,0.93,0.71c0,0.31-0.75,1.02-1.24,1.46c-0.09,0.44-0.09,0.62-0.09,0.97v2.48h6.56l2.04-2.3
				c0.27-0.27,0.49-0.62,0.71-0.62c0.27,0,0.53,0.22,0.89,0.53l2.75,2.3c0.22,0.18,0.44,0.4,0.44,0.71
				C593.83,46.18,593.48,46.23,593.17,46.23z M587.58,55.84h-15.16v11.3h15.29L587.58,55.84z"/>
		</g>
	</g>
	<g>
		<g>
			<path d="M123.85,178.81v-1.76h14.26v1.76H123.85z M131.95,183.36v9.75h-1.94v-9.75h-6.16v-1.74h14.26v1.74H131.95z"/>
			<path d="M143.06,179.12l-0.2,5.54c0.95-0.84,1.78-1.52,3.41-1.52c3.17,0,4.69,2.62,4.69,5.04c0,3.19-2.53,5.68-5.43,5.68
				c-2.51,0-4.16-1.87-4.16-3.23c0-0.84,0.53-1.36,1.28-1.36c0.66,0,1.14,0.44,1.14,1.14c0,0.22-0.02,0.31-0.11,0.66
				c-0.04,0.18-0.07,0.48-0.07,0.62c0,0.95,0.99,1.43,1.87,1.43c1.78,0,3.45-1.69,3.45-4.64c0-2.79-1.47-4.33-3.08-4.33
				c-0.88,0-2.22,0.48-3.43,1.91l-0.33-0.18l0.33-8.49h7.66l-0.44,1.74H143.06z"/>
			<path d="M163.45,189.02c0,2.55-2,4.84-5.19,4.84c-2.51,0-4.75-1.45-4.75-3.96c0-2.38,1.89-3.5,3.92-4.69
				c-1.17-0.68-3.28-1.91-3.28-4.31c0-2.18,1.72-3.94,4.4-3.94c3.01,0,4.03,2.24,4.03,3.48c0,1.87-1.8,3.23-2.75,3.94
				C161.89,185.65,163.45,186.75,163.45,189.02z M155.36,189.83c0,1.94,1.45,3.28,3.17,3.28c1.91,0,3.34-1.69,3.34-3.32
				c0-2.09-2.18-3.32-3.79-4.22C157.09,186.31,155.36,187.66,155.36,189.83z M160.97,180.68c0-1.67-1.12-2.97-2.73-2.97
				c-1.56,0-2.6,1.19-2.6,2.62c0,1.54,1.25,2.31,3.54,3.67C159.82,183.45,160.97,182.51,160.97,180.68z"/>
			<path d="M170.8,193.86c-1.52,0-2.79-1.06-3.61-2.38c-0.92-1.52-1.34-4.22-1.34-6.27c0-4.69,2-8.25,4.95-8.25
				c2.27,0,4.95,2.44,4.95,8.45C175.75,190.8,173.48,193.86,170.8,193.86z M168.34,180.64c-0.31,1.1-0.51,2.95-0.51,4.77
				c0,4.91,1.17,7.7,2.97,7.7c1.52,0,2.2-2.02,2.44-2.86c0.31-1.12,0.53-2.99,0.53-4.84c0-5.02-1.21-7.7-2.97-7.7
				C169.24,177.71,168.56,179.87,168.34,180.64z"/>
			<path d="M182.83,188.95h-4.73v-1.43h4.73V188.95z"/>
			<path d="M190.14,193.86c-1.52,0-2.79-1.06-3.61-2.38c-0.92-1.52-1.34-4.22-1.34-6.27c0-4.69,2-8.25,4.95-8.25
				c2.27,0,4.95,2.44,4.95,8.45C195.09,190.8,192.82,193.86,190.14,193.86z M187.67,180.64c-0.31,1.1-0.51,2.95-0.51,4.77
				c0,4.91,1.17,7.7,2.97,7.7c1.52,0,2.2-2.02,2.44-2.86c0.31-1.12,0.53-2.99,0.53-4.84c0-5.02-1.21-7.7-2.97-7.7
				C188.57,177.71,187.89,179.87,187.67,180.64z"/>
			<path d="M202.46,193.86c-1.52,0-2.79-1.06-3.61-2.38c-0.92-1.52-1.34-4.22-1.34-6.27c0-4.69,2-8.25,4.95-8.25
				c2.27,0,4.95,2.44,4.95,8.45C207.41,190.8,205.14,193.86,202.46,193.86z M199.99,180.64c-0.31,1.1-0.51,2.95-0.51,4.77
				c0,4.91,1.17,7.7,2.97,7.7c1.52,0,2.2-2.02,2.44-2.86c0.31-1.12,0.53-2.99,0.53-4.84c0-5.02-1.21-7.7-2.97-7.7
				C200.9,177.71,200.21,179.87,199.99,180.64z"/>
			<path d="M216.49,176.96h0.9v11.18h2.49v0.7h-2.49v2.55c0,0.97,0.48,1.34,1.54,1.34h0.35v0.7h-5.59v-0.7h0.35
				c1.03,0,1.54-0.35,1.54-1.34v-2.55h-5.92v-0.77L216.49,176.96z M215.59,179.87l-5.08,8.27h5.08V179.87z"/>
			<path d="M230.35,185.96c1.01,0.86,1.5,1.96,1.5,3.26c0,2.71-2.22,4.64-5.13,4.64c-2.38,0-4.38-1.34-4.38-3.1
				c0-0.97,0.64-1.41,1.25-1.41c0.75,0,1.08,0.64,1.08,1.1c0,0.33-0.07,0.53-0.13,0.7c-0.04,0.13-0.07,0.29-0.07,0.51
				c0,0.84,0.95,1.45,1.98,1.45c1.69,0,3.41-1.67,3.41-3.89c0-2.27-1.67-4.03-3.43-4.03c-0.13,0-0.75,0.09-0.88,0.09
				c-0.33,0-0.48-0.2-0.48-0.46c0-0.29,0.22-0.51,0.51-0.51c0.13,0,0.79,0.13,0.95,0.13c1.85,0,3.01-1.65,3.01-3.43
				c0-1.72-1.03-3.3-2.77-3.3c-1.17,0-1.78,0.84-1.78,1.47c0,0.11,0.04,0.22,0.07,0.33c0.04,0.15,0.07,0.37,0.07,0.53
				c0,0.68-0.51,1.21-1.12,1.21c-0.73,0-1.1-0.64-1.1-1.21c0-1.21,1.41-3.08,4.22-3.08c2.71,0,4.4,1.76,4.4,3.7
				c0,0.77-0.29,1.52-0.81,2.24c-0.9,1.19-1.89,1.56-2.79,1.87C228.92,185.08,229.58,185.3,230.35,185.96z"/>
			<path d="M261.42,194.5c-4.77-2.64-7.06-6.23-7.9-12.12c-0.4,3.87-1.8,10.3-9.9,12.52l-0.09-0.18c3.17-1.54,5.79-4.09,7.08-7.39
				c0.68-1.76,1.14-3.61,1.32-5.5h-5.28c-0.18,0-1.56,0-2.6,0.2l-0.44-0.86c1.74,0.13,3.28,0.13,3.39,0.13h5
				c0.04-0.51,0.11-1.19,0.11-2.29c0-0.84-0.07-2.73-0.48-3.87l2.53,0.68c0.2,0.04,0.4,0.15,0.4,0.33c0,0.24-0.31,0.46-0.75,0.75
				c-0.02,1.43-0.09,2.79-0.18,4.4h6.03l0.99-1.14c0.11-0.13,0.22-0.26,0.33-0.26c0.11,0,0.26,0.11,0.42,0.22l1.47,1.14
				c0.09,0.07,0.22,0.2,0.22,0.33c0,0.24-0.22,0.24-0.33,0.24h-8.91c0.31,1.63,0.95,3.15,1.67,4.62c1.63,3.3,4.36,5.08,8.41,6.16
				v0.18C263.44,192.91,262.32,193.18,261.42,194.5z"/>
			<path d="M273.54,177.42c-0.48,1.12-2.22,3.96-2.79,4.75c1.03,0.7,3.01,2.6,3.01,4.99c0,1.63-0.86,2.73-2.6,2.93
				c-0.26-1.21-0.97-1.69-1.41-2.02l0.07-0.11c0.88,0.15,1.39,0.15,1.56,0.15c0.4,0,0.9,0,0.9-1.45c0-1.89-0.84-3.23-1.85-4.44
				c0.79-1.74,1.45-4.14,1.61-5.37h-2.38c0,0.29-0.04,11.38,0,14.76c0,0.31,0.09,1.74,0.09,2.02c0,0.42,0,1.34-1.23,1.34
				c-0.2,0-0.59-0.04-0.59-0.66c0-0.29,0.13-1.85,0.15-2.2c0.13-3.48,0.18-9.68,0.18-10.1c0-1.67,0-5.39-0.35-6.8l1.98,1.1h2
				l0.75-0.66c0.04-0.02,0.15-0.15,0.26-0.15c0.11,0,0.18,0.04,0.29,0.15l1.03,0.9c0.09,0.09,0.18,0.22,0.18,0.33
				C274.4,177.23,273.83,177.34,273.54,177.42z M285.03,194.43c-0.66-0.33-2.82-1.56-4.58-3.78c-1.63,1.98-3.41,3.1-7.33,4.16
				l-0.07-0.18c3.54-1.69,5.21-3.1,6.6-5.15c-0.84-1.41-1.76-3.94-2.05-7.42h-0.86c0,8.54-3.67,10.96-5.61,12.19l-0.13-0.13
				c3.61-3.96,4.27-6.51,4.27-12.92c0-3.21-0.11-4.49-0.48-5.74l2.27,1.14h6.07l0.95-0.97c0.13-0.13,0.24-0.26,0.33-0.26
				c0.18,0,0.24,0.09,0.42,0.22l1.3,0.97c0.09,0.07,0.22,0.18,0.22,0.33c0,0.2-0.2,0.24-0.33,0.24h-9.24c0,1.47-0.02,2.93-0.02,4.4
				h5.57l0.75-0.75c0.09-0.09,0.18-0.2,0.29-0.2c0.13,0,0.29,0.13,0.35,0.2l1.12,0.9c0.13,0.11,0.24,0.2,0.24,0.4
				c0,0.31-0.53,0.53-0.97,0.7c-0.81,3.52-2.33,5.94-2.79,6.67c1.56,1.67,3.72,2.64,5.96,3.15v0.15
				C286.35,193.05,285.62,193.66,285.03,194.43z M277.96,182.07c0.51,3.01,1.45,4.91,2.4,6.27c1.34-2.44,1.89-4.8,2.16-6.27H277.96z
				"/>
			<path d="M308.96,178.61h-15.45c0.15,7.9-0.31,12.26-3.37,15.53l-0.15-0.09c1.54-2.88,2.05-7.15,2.05-11.24
				c0-1.65-0.07-4.42-0.37-5.88l2.18,1.14h5.48c0-1.45-0.09-2.11-0.44-3.17l2.35,0.62c0.2,0.04,0.33,0.13,0.33,0.31
				s-0.15,0.37-0.68,0.59c-0.02,0.59-0.02,1.06-0.02,1.65h5.21l0.86-1.19c0.11-0.15,0.22-0.26,0.33-0.26c0.11,0,0.26,0.11,0.42,0.24
				l1.39,1.17c0.13,0.11,0.2,0.22,0.2,0.33C309.27,178.55,309.14,178.61,308.96,178.61z M299.72,181.14
				c-0.33,0.53-0.7,1.12-1.5,2.11c0.37,0.22,0.51,0.31,0.51,0.44c0,0.2-0.22,0.33-0.64,0.53c0,0.88-0.04,4.93-0.04,5.57
				c0,0.68,0.07,4.2,0.07,4.4c0,0.9-0.86,1.03-1.1,1.03c-0.66,0-0.66-0.4-0.66-0.66c0-0.15,0.07-0.92,0.09-1.12
				c0.13-1.96,0.13-2.2,0.22-8.45c-1.61,1.56-2.77,2.13-3.26,2.38l-0.09-0.15c3.34-3.26,4.73-6.49,4.91-6.95
				c0.2-0.57,0.22-0.97,0.24-1.32l1.94,1.39c0.13,0.11,0.24,0.22,0.24,0.33C300.64,180.92,300.42,181.03,299.72,181.14z
				 M309.73,184.4h-3.76c0.04,3.59,0.04,3.98,0.15,7.48c0,0.2,0.02,0.73,0.02,0.9c0,0.86-0.04,1.94-2.53,2.49
				c-0.22-1.28-1.8-2-2-2.09l0.02-0.18c0.88,0.13,1.83,0.13,1.96,0.13c0.4,0,0.7,0,0.86-0.18c0.13-0.13,0.13-1.5,0.13-2.33
				c0-0.95-0.02-1.47-0.04-6.23h-2.13c-0.2,0-1.56,0-2.6,0.2l-0.42-0.88c1.45,0.13,2.95,0.15,3.37,0.15h1.78
				c0-2.75-0.02-3.15-0.35-4.6l2.16,0.55c0.2,0.04,0.37,0.11,0.37,0.29c0,0.22-0.13,0.35-0.68,0.75c-0.02,0.35-0.04,2-0.07,3.01
				h1.12l0.86-0.99c0.18-0.2,0.29-0.29,0.4-0.29c0.13,0,0.26,0.09,0.48,0.29l1.03,0.95c0.13,0.13,0.2,0.24,0.2,0.37
				C310.06,184.33,309.93,184.4,309.73,184.4z M301.99,189.9c-0.59,0-0.7-0.42-0.95-1.3c-0.09-0.33-0.35-1.32-1.01-2.18l0.09-0.15
				c2,0.9,2.77,1.72,2.77,2.6C302.89,189.59,302.45,189.9,301.99,189.9z"/>
			<path d="M321.28,180.42h-2.88l-0.02,2.68c1.14,0.22,2.84,1.23,2.84,2.33c0,0.44-0.26,0.88-0.73,0.88c-0.57,0-0.7-0.35-1.19-1.58
				c-0.18-0.42-0.44-1.01-0.92-1.3c-0.02,1.63,0.04,8.82,0.04,10.28c0,0.66,0,1.43-0.99,1.43c-0.48,0-0.7-0.22-0.7-0.77
				c0-0.66,0.18-3.5,0.2-4.07c0.07-2.2,0.13-4.8,0.13-5.85c-1.45,3.17-3.28,4.75-4.09,5.46l-0.15-0.15
				c1.87-2.64,3.89-7.26,4.16-9.33h-0.4c-0.57,0-1.61,0.02-2.6,0.2l-0.44-0.88c1.43,0.13,2.93,0.15,3.5,0.15
				c-0.04-1.58-0.11-3.21-0.18-3.74c-0.02-0.31-0.09-0.44-0.31-1.1l2.33,0.77c0.15,0.04,0.33,0.15,0.33,0.37
				c0,0.15-0.07,0.22-0.77,0.75c0,0.33-0.02,1.98-0.02,2.95h0.62l0.66-0.9c0.11-0.15,0.24-0.26,0.35-0.26c0.09,0,0.29,0.11,0.4,0.22
				l0.97,0.9c0.13,0.13,0.22,0.2,0.22,0.35C321.63,180.39,321.43,180.42,321.28,180.42z M331.07,194.15c-0.84,0-1.08-0.75-1.25-1.32
				c-0.35-1.06-0.44-1.34-0.66-1.8c-1.25,0.55-3.12,0.99-3.76,1.14c-1.3,0.31-2.86,0.7-4.22,1.1c-0.09,0.13-0.24,0.42-0.29,0.48
				c-0.07,0.09-0.15,0.15-0.29,0.15c-0.18,0-0.31-0.2-0.37-0.35l-0.86-2.27c0.86,0.29,1.47,0.31,1.69,0.31
				c0.35,0,0.97-0.04,1.25-0.07c0.81-1.89,2.16-5.98,2.16-7.2c0-0.37-0.04-0.57-0.11-0.86l2.24,0.88c0.22,0.09,0.4,0.18,0.4,0.42
				c0,0.35-0.35,0.46-0.75,0.59c-0.4,0.68-1.12,2.05-1.67,3.1c-0.35,0.66-1.03,1.94-1.78,2.99c1.08-0.07,4.73-0.46,6.18-0.81
				c-0.26-0.51-1.21-1.89-1.89-2.66l0.18-0.18c1.91,0.99,4.69,3.45,4.69,5.21C331.95,193.24,331.91,194.15,331.07,194.15z
				 M325.4,178.48c-0.09,0.04-0.42,0.13-0.55,0.2c-1.39,2.88-2.66,4.51-3.96,5.74l-0.15-0.09c2.51-4.58,2.64-6.73,2.68-7.75
				l1.87,1.17c0.2,0.13,0.31,0.33,0.31,0.42C325.59,178.35,325.48,178.44,325.4,178.48z M332.02,185.7
				c-3.19-2.22-4.18-6.09-4.49-8.54c-0.79,0-1.19,0.02-1.69,0.13l-0.29-0.77c0.81,0.07,0.86,0.07,1.5,0.07l0.77-0.7
				c0.13-0.13,0.22-0.2,0.35-0.2c0.09,0,0.2,0.07,0.26,0.13l0.99,0.79c0.18,0.13,0.22,0.24,0.22,0.33c0,0.26-0.29,0.42-0.48,0.51
				c-0.26,0.13-0.75,0.35-0.95,0.44c0.33,2.57,2.71,5.1,6.14,6.25v0.11C333.16,184.42,332.57,185.08,332.02,185.7z"/>
			<path d="M355.76,177.51h-6.36c-1.36,1.96-1.5,2.18-1.89,2.66h4.14l0.66-0.66c0.11-0.11,0.22-0.22,0.31-0.22
				c0.09,0,0.2,0.09,0.31,0.18l0.99,0.79c0.13,0.11,0.2,0.2,0.2,0.33c0,0.2-0.37,0.42-0.84,0.73c0.02,0.55,0.07,3.04,0.09,3.54
				c0,0.33,0.09,1.85,0.09,2.18c0,0.75-0.53,0.99-1.1,0.99c-0.51,0-0.48-0.35-0.48-0.68h-2.42c0,0.88,0.02,4.73,0.02,5.5
				c0,1.69-1.61,2-2.16,2.09c-0.11-0.55-0.31-1.21-2.07-2.16v-0.15c0.35,0.02,1.63,0.11,2.02,0.11c0.31,0,0.55,0,0.62-0.2
				c0.07-0.24,0.07-1.83,0.07-2.2c0-0.46-0.02-2.51-0.02-2.99h-3.01c0,0.53,0,1.03-1.01,1.03c-0.33,0-0.57-0.09-0.57-0.59
				c0-0.84,0.07-4.49,0.07-5.21c0-2.38-0.04-2.79-0.11-3.34l1.94,0.95h1.76c0.15-0.64,0.31-2.07,0.31-2.66h-6.07
				c-0.02,1.01,0,5.46-0.02,6.36c-0.15,4.6-0.92,7.52-3.98,10.17l-0.09-0.11c2.02-3.21,2.57-5.98,2.57-12.23
				c0-3.92-0.22-4.86-0.44-5.77l2.24,1.06h11.35l0.79-1.06c0.13-0.2,0.24-0.33,0.35-0.33s0.24,0.07,0.42,0.22l1.47,1.14
				c0.09,0.07,0.22,0.18,0.22,0.33C356.11,177.49,355.91,177.51,355.76,177.51z M346.03,190.19c-2.46,2.33-4.42,3.17-5.88,3.63
				l-0.09-0.13c1.56-0.95,3.98-3.19,4.99-5.21l1.45,0.92c0.18,0.11,0.31,0.22,0.31,0.42C346.82,190.05,346.62,190.19,346.03,190.19z
				 M351.88,180.7h-6.97v2.75h6.97V180.7z M351.88,183.98h-6.97v2.84h6.97V183.98z M355.32,193.57c-0.64,0-0.95-0.53-1.23-1.06
				c-0.46-0.84-1.72-2.53-3.1-3.43v-0.18c1.67,0.37,5.19,1.87,5.19,3.65C356.17,193.11,355.87,193.57,355.32,193.57z"/>
			<path d="M379.71,179.27h-10.36l1.83,0.59c0.13,0.04,0.29,0.13,0.29,0.29c0,0.18-0.15,0.33-0.59,0.64
				c-0.02,0.35-0.07,1.5-0.11,2.24h4.4l0.64-0.68c0.18-0.18,0.24-0.24,0.35-0.24c0.11,0,0.24,0.09,0.4,0.22l0.88,0.7
				c0.18,0.13,0.29,0.26,0.29,0.4c0,0.29-0.42,0.55-0.66,0.73c0,1.03,0.11,5.65,0.11,6.6c0,0.64,0,2.16-2.49,2.62
				c-0.4-1.12-1.3-1.78-1.85-2.09v-0.15c0.4,0.04,0.81,0.09,1.45,0.09c0.75,0,1.19-0.09,1.25-0.42c0.07-0.35,0.04-5.98,0.02-7.24
				h-4.8c0,2.44,0,6.82,0.09,9.11c0,0.24,0.07,1.32,0.07,1.54c0,1.01-1.17,1.08-1.25,1.08c-0.64,0-0.64-0.48-0.64-0.66
				c0-1.85,0.22-4.82,0.24-6.67c0.02-1.85,0.02-2.53,0-4.4h-4.44c0,0.7-0.02,3.76-0.02,4.4c0,0.66,0.07,3.54,0.07,4.14
				c0,1.17-1.01,1.17-1.17,1.17c-0.51,0-0.62-0.26-0.62-0.55c0-0.04,0-0.2,0.02-0.44c0.07-0.95,0.18-5,0.18-7.04
				c0-1.52-0.04-2.11-0.29-3.28l2.18,1.08h4.09c-0.02-2.51-0.02-2.79-0.26-3.76h-5.92c-0.29,0-1.52,0-2.6,0.2l-0.44-0.86
				c1.47,0.11,2.97,0.13,3.39,0.13h5.88c0.04-2.38-0.35-3.28-0.57-3.83l2.42,0.53c0.2,0.04,0.42,0.11,0.42,0.33
				c0,0.15,0,0.24-0.73,0.66c0,0.37,0.02,1.98,0.02,2.31h5.74l1.06-1.23c0.15-0.2,0.24-0.26,0.35-0.26c0.11,0,0.24,0.07,0.4,0.22
				l1.41,1.23c0.13,0.11,0.22,0.2,0.22,0.35C380.04,179.25,379.87,179.27,379.71,179.27z"/>
			<path d="M388.8,176.41l0.57-0.55c0.13-0.13,0.22-0.2,0.31-0.2c0.11,0,0.22,0.09,0.29,0.13l1.1,0.92
				c0.11,0.09,0.22,0.22,0.22,0.35c0,0.18-0.22,0.33-0.88,0.73c-1.47,2.71-2,3.59-2.46,4.33c2.93,2.11,2.93,4.66,2.93,4.95
				c0,0.84-0.42,1.87-1.5,2.4c-0.35,0.18-0.51,0.22-1.23,0.35c-0.02-0.2-0.26-1.32-1.34-2l0.04-0.15c0.75,0.13,1.01,0.2,1.54,0.2
				c0.44,0,1.01,0,1.01-1.32c0-1.76-0.62-3.1-1.92-4.27c0.55-1.54,1.21-4.09,1.32-5.35h-2.6c0,0.84,0.04,16.26,0.02,16.85
				c-0.02,0.48-0.53,0.68-1.03,0.68c-0.59,0-0.59-0.4-0.59-0.73c0-1.98,0.22-10.63,0.22-12.45c0-1.76,0-4.25-0.33-5.83l1.8,0.95
				H388.8z M395.07,180.81l0.57-0.57c0.09-0.09,0.2-0.2,0.29-0.2c0.11,0,0.26,0.11,0.37,0.2l0.81,0.64
				c0.11,0.09,0.22,0.22,0.22,0.33c0,0.2-0.07,0.24-0.64,0.66c0,1.43,0.04,3.63,0.09,4.8c0,0.2,0.02,0.64,0.02,0.77
				c0,0.48-0.24,0.9-0.97,0.9c-0.53,0-0.53-0.29-0.53-1.14h-2.18c0.02,1.32,0.02,1.91-0.97,1.91c-0.48,0-0.51-0.31-0.51-0.73
				c0-0.24,0.11-3.65,0.11-4.36c0-1.34-0.11-3.08-0.29-3.96l1.74,0.75H395.07z M395.9,192.32c0.68,0.11,1.67,0.2,2.31,0.2
				c0.88,0,0.92-0.15,0.92-0.84v-14.04h-4.18c-0.4,0-1.54,0-2.6,0.2l-0.44-0.88c1.12,0.11,2.27,0.15,3.39,0.15h4.82l0.9-1.1
				c0.13-0.15,0.24-0.31,0.37-0.31c0.11,0,0.26,0.15,0.37,0.24l1.19,1.12c0.09,0.09,0.22,0.26,0.22,0.33c0,0.22-0.2,0.24-0.33,0.24
				h-2.2c0,2.02,0.02,10.76,0.04,12.3c0,0.33,0.07,1.78,0.07,2.09c0,1.96-1.8,2.64-2.93,2.77c-0.13-0.57-0.73-1.69-1.98-2.31
				L395.9,192.32z M393.13,181.34v5.32h2.2v-5.32H393.13z"/>
			<path d="M411.72,180.48c0.11,0.07,0.26,0.18,0.26,0.29c0,0.29-0.22,0.42-0.53,0.64c0,3.96,0,7.92,0.02,11.86
				c0,0.79,0,1.72-1.14,1.72c-0.57,0-0.68-0.29-0.68-0.59c0-0.33,0.2-2.77,0.22-3.3c0.13-2.9,0.13-5.28,0.15-9.46
				c-0.31,0.48-2.11,3.17-3.48,4.11l-0.13-0.11c2.27-2.95,4.62-9.22,4.62-10.36c0-0.13-0.02-0.29-0.04-0.44l2.07,1.12
				c0.15,0.09,0.31,0.22,0.31,0.42c0,0.29-0.26,0.37-0.84,0.57c-0.29,0.7-0.59,1.5-1.54,3.1L411.72,180.48z M415.09,186.31
				c-0.37,0-1.5,0-2.57,0.2l-0.44-0.88c1.12,0.09,2.24,0.15,3.39,0.15h3.01c-0.02-1.14-0.04-2.68-0.29-3.39l2.05,0.44
				c0.11,0.02,0.29,0.09,0.29,0.26c0,0.2-0.15,0.31-0.59,0.68c0,0.59-0.02,1.12-0.02,2h3.85l0.88-1.01
				c0.22-0.26,0.24-0.29,0.35-0.29c0.09,0,0.11,0.02,0.42,0.24l1.39,1.01c0.09,0.04,0.22,0.18,0.22,0.33c0,0.2-0.18,0.24-0.33,0.24
				h-6.47c0.97,2.07,3.89,4.69,7.13,5.52v0.13c-0.79,0.31-1.47,0.86-1.96,1.56c-3.37-2.29-4.93-5.85-5.46-7.22h-0.02
				c0,1.34,0.07,3.43,0.09,4.05c0.02,0.55,0.15,3.04,0.15,3.54c0,0.37,0,1.14-1.17,1.14c-0.51,0-0.68-0.26-0.68-0.73
				c0-0.02,0.15-3.45,0.15-3.85c0.02-1.17,0.04-1.98,0.04-3.01c-2.38,3.7-5.35,5.24-6.8,5.94l-0.02-0.15
				c2.31-1.91,4.14-4.03,5.85-6.93H415.09z M422.39,176.28l0.46-0.51c0.09-0.09,0.15-0.2,0.33-0.2c0.13,0,0.31,0.11,0.42,0.2
				l0.88,0.66c0.13,0.11,0.29,0.26,0.29,0.4c0,0.22-0.2,0.4-0.75,0.66c-0.02,1.47,0.02,2.46,0.02,2.73c0.02,0.31,0.11,1.8,0.11,1.96
				c0,0.57-0.26,1.01-1.08,1.01c-0.55,0-0.53-0.51-0.51-1.01h-6.21c0,0.66-0.31,1.21-1.01,1.21c-0.48,0-0.62-0.35-0.62-0.7
				c0-0.18,0.15-3.67,0.15-4.38c0-2.09-0.11-2.57-0.2-3.1l1.87,1.08H422.39z M416.32,176.81v4.84h6.25v-4.84H416.32z"/>
			<path d="M448.27,178.68c-0.02,1.39,0.02,10.36,0.04,11.24c0.04,1.28,0.09,2.33,0.11,2.68c0,0.07,0.02,0.35,0.02,0.4
				c0,0.59-0.55,0.99-1.17,0.99c-0.64,0-0.64-0.26-0.62-1.54h-13.38c0,0.86,0,0.97-0.09,1.12c-0.22,0.37-0.75,0.59-1.12,0.59
				c-0.44,0-0.62-0.29-0.62-0.68c0-0.29,0.13-1.58,0.15-1.85c0.13-2.51,0.22-7,0.22-9.42c0-1.65,0-4.33-0.18-5.85l2.02,1.08h12.74
				l0.73-0.68c0.18-0.18,0.35-0.24,0.44-0.24s0.2,0.07,0.37,0.2l0.84,0.68c0.24,0.2,0.33,0.29,0.33,0.44
				C449.12,178.06,448.62,178.41,448.27,178.68z M446.66,177.97h-4.18c0,1.12-0.02,6.65-0.02,7.9c0,0.4,0,1.12,0.07,1.23
				c0.11,0.15,0.44,0.18,0.86,0.18c0.81,0,1.21,0,1.54-2.09l0.13,0.02c0.22,0.99,0.33,1.54,0.64,1.72c0.51,0.31,0.57,0.35,0.57,0.48
				c0,0.31-0.31,0.7-0.62,0.95c-0.42,0.35-0.79,0.46-2.11,0.46c-1.78,0-2.55-0.13-2.55-1.61c0-1.32,0.04-7.77,0.04-9.24h-2.49
				c0,5.08-0.15,9.81-4.49,12.01l-0.07-0.11c2.97-2.99,2.97-5.88,3.01-11.9h-3.72v13.95h13.38V177.97z"/>
			<path d="M472.47,177.82h-8.58c0,0.62,0.09,12.7,0.09,13.36c0,1.89,0,3.48-3.06,3.78c-0.11-0.92-0.26-1.36-2.73-2.71l0.04-0.15
				c0.92,0.15,2.16,0.31,2.93,0.31c0.68,0,1.01-0.09,1.1-0.44c0.07-0.26,0.07-1.23,0.07-1.61c0-1.98,0.02-10.74,0-12.54h-6.25
				c-0.4,0-1.52,0-2.6,0.2l-0.44-0.86c1.36,0.09,2.73,0.13,3.39,0.13h12.54l1.23-1.3c0.09-0.09,0.22-0.26,0.35-0.26
				c0.11,0,0.24,0.09,0.4,0.22l1.63,1.3c0.13,0.11,0.22,0.22,0.22,0.35C472.8,177.8,472.6,177.82,472.47,177.82z"/>
			<path d="M487.71,176.72l0.62-0.64c0.13-0.15,0.24-0.26,0.37-0.26c0.11,0,0.24,0.09,0.4,0.22l1.08,0.9
				c0.2,0.18,0.24,0.29,0.24,0.4c0,0.26-0.31,0.46-0.81,0.81c-0.04,0.99-0.04,1.36-0.04,2.33c0,5.32,0.11,8.14,0.24,12.21
				c0,0.02,0.02,0.37,0.02,0.46c0,0.92-1.14,0.99-1.23,0.99c-0.64,0-0.59-0.55-0.57-0.92h-8.36c0.04,0.44,0.04,0.57-0.09,0.77
				c-0.24,0.35-0.75,0.53-1.17,0.53c-0.57,0-0.59-0.31-0.59-0.57c0-0.42,0.13-2.18,0.15-2.53c0.09-2.11,0.11-7.46,0.11-9.66
				c0-4.11-0.11-4.93-0.29-6.12l2.2,1.08H487.71z M479.66,177.25v4.73h8.38v-4.73H479.66z M479.66,182.51v4.75h8.38v-4.75H479.66z
				 M479.66,187.79v4.91h8.38v-4.91H479.66z"/>
			<path d="M495.63,192.74h1.21c1.14,0,1.54-0.44,1.54-1.34v-11.9c0-0.68-0.64-0.79-1.06-0.79h-1.67v-0.68h0.4
				c1.69,0,3.32-0.77,3.59-0.92c0.15-0.09,0.22-0.13,0.31-0.13c0.2,0,0.24,0.13,0.24,0.31v14.13c0,0.95,0.46,1.34,1.54,1.34h1.21
				v0.7h-7.31V192.74z"/>
			<path d="M525.46,186.95c-3.12-0.95-6.4-3.83-7.7-5.85v1.76c0,0.35,0.07,1.96,0.07,2.2c0,1.12-0.92,1.14-1.06,1.14
				c-0.4,0-0.59-0.22-0.59-0.64c0-0.44,0.11-2.29,0.11-2.66v-1.47c-1.8,2.29-6.16,5.59-9.46,6.31l-0.04-0.13
				c2.97-1.56,6.56-4.86,7.97-6.64h-4.47c-0.4,0-1.52,0-2.6,0.2l-0.42-0.88c1.39,0.11,2.75,0.15,3.37,0.15h5.68v-3.43
				c-0.75,0.07-2.11,0.18-3.87,0.18c-1.78,0-2.75-0.11-3.26-0.18v-0.18c4.82-0.29,8.85-1.1,11.02-1.72
				c0.66-0.18,0.81-0.26,1.21-0.55l1.32,1.14c0.11,0.11,0.24,0.24,0.24,0.35c0,0.31-0.42,0.31-0.53,0.31
				c-0.24,0-0.55-0.04-0.75-0.09c-1.85,0.35-2.49,0.42-3.94,0.59v3.56h1.36c0.62-0.79,1.45-2.29,1.69-3.56l1.63,1.01
				c0.11,0.07,0.29,0.22,0.29,0.37c0,0.35-0.42,0.42-0.95,0.48c-0.77,0.68-1.45,1.25-2.16,1.69h4.12l0.99-1.12
				c0.11-0.13,0.22-0.26,0.35-0.26s0.26,0.13,0.4,0.24l1.23,1.1c0.13,0.11,0.22,0.22,0.22,0.33c0,0.22-0.2,0.24-0.33,0.24h-8.52
				c2.66,2.53,6.05,4.05,9.22,3.89v0.2C526.37,185.63,525.93,186.03,525.46,186.95z M522.65,187.92c0,1.52-0.02,3.81,0.02,4.6
				c0,0.24,0.11,1.32,0.11,1.56c0,0.59-0.48,1.01-1.14,1.01c-0.55,0-0.55-0.24-0.51-1.1h-8.08c0.02,0.42,0.04,1.21-1.08,1.21
				c-0.57,0-0.57-0.37-0.57-0.53c0-0.09,0.04-0.53,0.04-0.64c0.09-1.63,0.13-3.43,0.13-4.69c0-2.49-0.11-3.01-0.22-3.54l1.89,0.92
				h7.59l0.53-0.59c0.13-0.13,0.2-0.22,0.31-0.22s0.24,0.11,0.35,0.2l1.12,0.81c0.09,0.07,0.18,0.18,0.18,0.31
				C523.33,187.54,522.82,187.81,522.65,187.92z M513.45,180.22c-0.55,0-0.7-0.42-0.84-0.79c-0.07-0.22-0.46-1.21-1.06-1.91
				l0.11-0.15c2.18,0.59,2.66,1.5,2.66,2.02C514.33,179.95,513.8,180.22,513.45,180.22z M516.33,187.26h-3.28v2.79h3.28V187.26z
				 M516.33,190.58h-3.28v2.88h3.28V190.58z M521.13,187.26h-3.32v2.79h3.32V187.26z M521.13,190.58h-3.32v2.88h3.32V190.58z"/>
			<path d="M538.18,185.96c1.01,0.86,1.5,1.96,1.5,3.26c0,2.71-2.22,4.64-5.13,4.64c-2.38,0-4.38-1.34-4.38-3.1
				c0-0.97,0.64-1.41,1.25-1.41c0.75,0,1.08,0.64,1.08,1.1c0,0.33-0.07,0.53-0.13,0.7c-0.04,0.13-0.07,0.29-0.07,0.51
				c0,0.84,0.95,1.45,1.98,1.45c1.69,0,3.41-1.67,3.41-3.89c0-2.27-1.67-4.03-3.43-4.03c-0.13,0-0.75,0.09-0.88,0.09
				c-0.33,0-0.48-0.2-0.48-0.46c0-0.29,0.22-0.51,0.51-0.51c0.13,0,0.79,0.13,0.95,0.13c1.85,0,3.01-1.65,3.01-3.43
				c0-1.72-1.03-3.3-2.77-3.3c-1.17,0-1.78,0.84-1.78,1.47c0,0.11,0.04,0.22,0.07,0.33c0.04,0.15,0.07,0.37,0.07,0.53
				c0,0.68-0.51,1.21-1.12,1.21c-0.73,0-1.1-0.64-1.1-1.21c0-1.21,1.41-3.08,4.22-3.08c2.71,0,4.4,1.76,4.4,3.7
				c0,0.77-0.29,1.52-0.81,2.24c-0.9,1.19-1.89,1.56-2.79,1.87C536.75,185.08,537.41,185.3,538.18,185.96z"/>
			<path d="M548.96,176.96h0.9v11.18h2.49v0.7h-2.49v2.55c0,0.97,0.48,1.34,1.54,1.34h0.35v0.7h-5.59v-0.7h0.35
				c1.03,0,1.54-0.35,1.54-1.34v-2.55h-5.92v-0.77L548.96,176.96z M548.06,179.87l-5.08,8.27h5.08V179.87z"/>
			<path d="M574.79,183.83h-10.91c-0.57,1.06-1.21,2.51-1.5,3.17h6.16l0.79-0.68c0.11-0.09,0.22-0.18,0.33-0.18
				c0.11,0,0.24,0.13,0.35,0.24l1.1,1.01c0.09,0.09,0.2,0.22,0.2,0.35c0,0.29-0.42,0.4-1.1,0.59c-0.99,4.6-1.5,7.02-5.68,6.93
				c-0.26-1.47-1.63-2.22-2.2-2.51l0.02-0.13c1.94,0.51,3.65,0.57,3.72,0.57c1.1,0,1.78-0.73,2.6-5.68h-6.51
				c-0.31,0.7-0.9,2.07-1.21,2.51c-0.18,0.24-0.46,0.37-0.86,0.37c-0.37,0-0.86-0.2-0.86-0.55c0-0.13,0.07-0.33,0.13-0.44
				c1.32-2.51,1.47-2.82,2.75-5.59H558c-0.59,0-1.63,0.02-2.6,0.2l-0.44-0.86c1.74,0.13,2.99,0.13,3.39,0.13h13.44l0.99-1.21
				c0.11-0.13,0.22-0.26,0.35-0.26c0.11,0,0.29,0.13,0.4,0.22l1.36,1.23c0.11,0.09,0.22,0.2,0.22,0.33
				C575.12,183.83,574.9,183.83,574.79,183.83z M570.28,177.14c0,0.86,0.02,3.04,0.02,3.85c0,0.31,0,0.9-0.95,0.9
				c-0.7,0-0.75-0.33-0.68-1.08h-7.61c0,0.55-0.02,1.23-1.08,1.23c-0.35,0-0.59-0.26-0.59-0.57c0-0.15,0.09-0.86,0.09-1.01
				c0.04-0.77,0.11-1.8,0.11-2.88c0-1.14-0.07-1.61-0.26-2.49l2.05,0.97h7.13l0.44-0.53c0.09-0.11,0.22-0.24,0.31-0.24
				s0.26,0.11,0.35,0.18l1.06,0.64c0.13,0.09,0.24,0.24,0.24,0.37C570.89,176.61,570.74,176.79,570.28,177.14z M568.69,176.59h-7.61
				v3.7h7.61V176.59z"/>
		</g>
	</g>
	<g>
		<g>
			<path d="M240.62,217.37c-0.02,0.76-0.03,1.48-0.03,3.46c0,2.41,0,5.08,0.09,7.47c0.02,0.31,0.11,1.64,0.11,1.91
				c0,0.38,0,1.06-1.05,1.06c-0.44,0-0.45-0.25-0.45-0.49c0-0.11,0.04-0.61,0.05-0.7h-10.77c0.02,0.43,0.02,0.52-0.03,0.68
				c-0.09,0.32-0.56,0.56-0.96,0.56c-0.44,0-0.51-0.25-0.51-0.49c0-0.31,0.04-0.79,0.05-1.1c0.17-3.24,0.21-6.5,0.21-9.76
				c0-1.69,0-3.35-0.21-4.66l1.81,0.97h10.23l0.54-0.54c0.1-0.11,0.21-0.2,0.31-0.2s0.19,0.07,0.31,0.18l0.77,0.63
				c0.09,0.07,0.19,0.18,0.19,0.32C241.29,216.81,241.13,216.94,240.62,217.37z M239.33,216.72h-10.79v12.93h10.79V216.72z
				 M238.16,227.09h-6.62c-0.47,0-1.29,0.02-2.06,0.16l-0.35-0.72c0.89,0.09,1.78,0.13,2.69,0.13h1.24v-3.78h-0.73
				c-0.14,0-1.26,0-2.06,0.16l-0.35-0.72c1.38,0.13,2.62,0.13,2.69,0.13h0.45v-2.95h-1.1c-0.45,0-1.29,0.02-2.06,0.16l-0.33-0.72
				c0.89,0.07,1.78,0.13,2.67,0.13h3.61l0.63-0.68c0.09-0.09,0.19-0.22,0.3-0.22c0.09,0,0.24,0.13,0.31,0.18l0.72,0.68
				c0.07,0.07,0.17,0.16,0.17,0.27c0,0.18-0.17,0.2-0.26,0.2h-3.51v2.95h1.05l0.56-0.59c0.1-0.13,0.21-0.23,0.3-0.23
				c0.07,0,0.19,0.11,0.31,0.2l0.75,0.59c0.07,0.05,0.17,0.16,0.17,0.27c0,0.18-0.17,0.2-0.26,0.2h-2.88v3.78h2.11l0.61-0.65
				c0.12-0.14,0.21-0.22,0.3-0.22c0.1,0,0.23,0.11,0.31,0.18l0.72,0.65c0.07,0.07,0.17,0.16,0.17,0.27
				C238.44,227.07,238.27,227.09,238.16,227.09z M236.1,225.9c-0.4,0-0.65-0.38-0.72-0.79c-0.17-1.03-0.21-1.24-0.49-1.75l0.1-0.09
				c1.22,0.49,1.75,1.26,1.75,1.87C236.75,225.63,236.43,225.9,236.1,225.9z"/>
			<path d="M258.14,221.37l0.71-0.97c0.11-0.14,0.16-0.22,0.26-0.22s0.12,0.04,0.33,0.2l1.17,0.95c0.09,0.07,0.17,0.16,0.17,0.29
				c0,0.16-0.16,0.18-0.28,0.18h-5.81c0,0.59-0.02,3.19-0.02,3.71c0,0.18,0.02,3.92,0,4.45h4.63l0.87-0.97
				c0.12-0.14,0.17-0.22,0.26-0.22c0.1,0,0.16,0.05,0.33,0.2l1.15,0.95c0.09,0.07,0.18,0.16,0.18,0.27c0,0.16-0.16,0.2-0.26,0.2
				h-13.13c-0.18,0-1.26,0-2.06,0.16l-0.35-0.72c1.17,0.11,2.36,0.13,2.69,0.13h4.45c-0.02-0.16-0.02-3.98-0.02-4.39v-3.76h-3.68
				c-0.23,0-1.21,0-2.06,0.16l-0.35-0.7c1.17,0.09,2.36,0.11,2.69,0.11h3.4c-0.04-4.09-0.04-4.56-0.44-5.87l2.11,0.58
				c0.17,0.05,0.28,0.09,0.28,0.25c0,0.14-0.09,0.22-0.16,0.27c-0.07,0.07-0.4,0.34-0.51,0.41c0,1.46-0.02,2.9-0.02,4.36H258.14z"/>
			<path d="M272.63,220.34c-0.07,0-0.17,0-0.28-0.02c-1.43,1.85-4.01,3.64-5.92,4.16l-0.05-0.11c1.71-1.06,3.47-2.99,4.31-4.12
				c0.42-0.56,0.58-0.99,0.7-1.37l1.55,0.97c0.07,0.04,0.16,0.11,0.16,0.22C273.1,220.29,272.82,220.32,272.63,220.34z
				 M280.83,231.2c-3.58-1.06-5.6-2.84-6.39-3.71c-1.01,1.03-3.25,3.21-7.89,3.71l-0.02-0.14c3.93-1.13,5.97-3.17,7.16-4.5
				c-1.52-2.07-1.87-4.09-2.01-4.92l0.16-0.02c0.91,2.3,1.73,3.42,2.43,4.21c1.01-1.33,1.87-2.83,2.06-4.52l1.61,1.12
				c0.07,0.05,0.17,0.14,0.17,0.29c0,0.22-0.21,0.29-0.66,0.38c-0.86,1.73-1.64,2.79-2.3,3.62c1.89,1.64,4.35,2.5,7.33,2.68
				l0.02,0.13C281.78,229.88,281.11,230.55,280.83,231.2z M282,218.47h-12.99c-0.44,0-1.27,0.02-2.06,0.16l-0.35-0.72
				c1.19,0.11,2.43,0.13,2.69,0.13h4.38c-0.04-1.96-0.09-2.18-0.49-3.15l2.06,0.54c0.14,0.04,0.28,0.11,0.28,0.29
				c0,0.27-0.4,0.4-0.59,0.45c-0.02,0.31-0.03,1.6-0.03,1.87h4.66l0.79-0.99c0.09-0.13,0.17-0.23,0.28-0.23
				c0.12,0,0.24,0.11,0.33,0.18l1.15,1.01c0.07,0.05,0.17,0.16,0.17,0.27C282.28,218.43,282.12,218.47,282,218.47z M280.47,223.47
				c-0.4,0-0.45-0.09-0.91-0.86c-0.44-0.72-1.59-2.4-3.11-3.19l0.05-0.09c2.86,0.47,4.68,2.36,4.68,3.37
				C281.18,222.9,281.09,223.47,280.47,223.47z"/>
			<path d="M301.52,230.94c-0.59-0.02-3.16,0.04-3.68,0.04c-1.34,0-3.23-0.05-4.76-0.52c-2.06-0.63-2.48-1.62-2.72-2.18
				c-0.26,0.36-1.59,1.85-1.85,2.18c-0.05,0.18-0.09,0.45-0.12,0.52c-0.02,0.05-0.09,0.14-0.19,0.14c-0.09,0-0.17-0.05-0.24-0.14
				l-1.27-1.57c1.24-0.02,2.55-0.65,2.88-0.86v-5.28c-0.52,0-1.41,0-2.27,0.16l-0.35-0.72c0.77,0.07,1.29,0.11,2.34,0.13l0.65-0.5
				c0.1-0.07,0.19-0.14,0.24-0.14c0.07,0,0.16,0.05,0.23,0.13l0.7,0.65c0.07,0.07,0.12,0.14,0.12,0.23c0,0.11-0.05,0.18-0.1,0.22
				c-0.09,0.07-0.26,0.23-0.37,0.32c-0.05,0.36-0.05,2.2-0.05,2.59c0,2.23,0,3.4,4.87,3.4c0.77,0,3.88-0.09,5.69-0.41
				c0.37-0.07,0.96-0.2,1.41-0.31v0.07C302.15,229.4,301.63,230.17,301.52,230.94z M290.4,218.65c-0.52,0-0.66-0.49-0.77-0.86
				c-0.26-0.9-0.73-1.75-1.48-2.3l0.04-0.11c2.13,0.41,2.93,1.78,2.93,2.47C291.12,218.27,290.84,218.65,290.4,218.65z
				 M301.8,220.27c-0.07,0.07-0.45,0.38-0.54,0.45c-0.03,0.86,0.02,5.11,0.02,6.09c0,0.61,0,1.66-1.68,2.03
				c-0.1-0.76-0.73-1.31-1.36-1.69v-0.09c0.17,0,1.03,0.05,1.22,0.05c0.58,0,0.65-0.13,0.65-0.65v-1.19h-2.72
				c0,0.18,0.05,1.93,0.05,2.25c0,0.07,0.05,0.63,0.05,0.7c0,0.32-0.28,0.65-0.8,0.65c-0.44,0-0.44-0.27-0.44-0.41
				c0-0.09,0.04-0.58,0.04-0.68c0-0.36,0-2.11,0.02-2.5h-2.69c0.02,0.36,0.03,2.09,0.03,2.48c0,0.67-0.51,0.88-0.84,0.88
				c-0.45,0-0.45-0.29-0.45-0.49c0-0.05,0.02-0.29,0.02-0.34c0.05-0.81,0.07-3.17,0.07-3.87c0-3.19-0.07-4.2-0.19-4.95l1.59,0.81
				h2.93c-0.14-0.13-0.16-0.16-0.3-0.49c-0.3-0.63-1-1.37-1.59-1.82v-0.13c0.33,0.04,1.12,0.11,2.22,0.79
				c0.42-0.41,0.91-1.03,1.41-1.66h-3.91c-0.45,0-1.29,0.02-2.06,0.16l-0.35-0.7c0.91,0.07,1.8,0.11,2.69,0.11h3.77l0.63-0.45
				c0.07-0.05,0.16-0.13,0.23-0.13c0.09,0,0.23,0.09,0.28,0.14l1.01,0.88c0.04,0.04,0.12,0.13,0.12,0.23c0,0.04-0.03,0.16-0.14,0.22
				c-0.12,0.07-0.86,0.14-1.01,0.18c-0.38,0.11-2.06,1.01-2.45,1.17c0.16,0.14,0.47,0.41,0.47,0.92c0,0.32-0.16,0.47-0.28,0.56h2.37
				l0.49-0.49c0.07-0.07,0.14-0.14,0.23-0.14c0.05,0,0.16,0.07,0.19,0.11l0.91,0.65c0.09,0.05,0.14,0.13,0.14,0.18
				C301.85,220.18,301.84,220.21,301.8,220.27z M296.3,220.23h-2.71c0,0.5,0.02,1.46,0.02,2.05h2.69V220.23z M296.3,222.72h-2.69
				v2.12h2.69V222.72z M300.11,220.23h-2.72v2.05h2.72V220.23z M300.11,222.72h-2.72v2.12h2.72V222.72z"/>
			<path d="M321.06,230.94c-3.79-2.16-5.6-5.1-6.27-9.92c-0.31,3.17-1.43,8.43-7.86,10.25l-0.07-0.14c2.51-1.26,4.59-3.35,5.62-6.05
				c0.54-1.44,0.91-2.95,1.05-4.5h-4.19c-0.14,0-1.24,0-2.06,0.16l-0.35-0.7c1.38,0.11,2.6,0.11,2.69,0.11h3.96
				c0.03-0.41,0.09-0.97,0.09-1.87c0-0.68-0.05-2.23-0.38-3.17l2.01,0.56c0.16,0.04,0.31,0.13,0.31,0.27c0,0.2-0.24,0.38-0.59,0.61
				c-0.02,1.17-0.07,2.29-0.14,3.6h4.78l0.79-0.94c0.09-0.11,0.17-0.22,0.26-0.22s0.21,0.09,0.33,0.18l1.17,0.94
				c0.07,0.05,0.17,0.16,0.17,0.27c0,0.2-0.17,0.2-0.26,0.2h-7.07c0.24,1.33,0.75,2.57,1.33,3.78c1.29,2.7,3.46,4.16,6.67,5.04v0.14
				C322.67,229.65,321.78,229.86,321.06,230.94z"/>
			<path d="M342.47,230.15h-12.55c0,0.54,0,1.26-0.87,1.26c-0.44,0-0.52-0.32-0.52-0.56c0-0.18,0.02-0.36,0.04-0.49
				c0.04-0.34,0.14-7.33,0.14-11.31c0-2.12-0.02-2.39-0.19-3.47l1.59,0.72h9.51l0.72-0.9c0.11-0.14,0.17-0.23,0.28-0.23
				c0.07,0,0.14,0.05,0.33,0.2l1.12,0.9c0.09,0.07,0.17,0.16,0.17,0.27c0,0.16-0.16,0.2-0.26,0.2h-6.16v3.51h3.04l0.47-0.49
				c0.14-0.14,0.19-0.2,0.26-0.2c0.05,0,0.1,0.04,0.21,0.14l0.84,0.76c0.12,0.11,0.17,0.16,0.17,0.27c0,0.16-0.45,0.47-0.64,0.58
				c0.02,0.65,0.14,3.51,0.14,4.09c0,0.86-0.7,0.92-0.89,0.92c-0.42,0-0.42-0.27-0.4-0.86h-3.23v4.27h4.22l0.79-0.94
				c0.14-0.18,0.19-0.23,0.28-0.23c0.07,0,0.16,0.07,0.33,0.2l1.19,0.94c0.12,0.09,0.17,0.18,0.17,0.27
				C342.74,230.12,342.59,230.15,342.47,230.15z M334.59,216.74h-4.68v3.51h4.68V216.74z M338.99,220.68h-9.08v4.34h9.08V220.68z
				 M334.54,225.45h-4.63v4.27h4.63V225.45z"/>
			<path d="M354.11,231.95c-2.72-2.25-4.14-5.49-4.14-8.71c0-3.22,1.41-6.46,4.14-8.71l0.16,0.25c-3.25,3.55-3.32,7.15-3.32,8.46
				c0,1.31,0.07,4.92,3.32,8.46L354.11,231.95z"/>
			<path d="M365.08,223.96c0.8,0.7,1.19,1.6,1.19,2.67c0,2.21-1.76,3.8-4.07,3.8c-1.89,0-3.47-1.1-3.47-2.54
				c0-0.79,0.51-1.15,0.99-1.15c0.59,0,0.86,0.52,0.86,0.9c0,0.27-0.05,0.43-0.1,0.58c-0.04,0.11-0.05,0.23-0.05,0.41
				c0,0.68,0.75,1.19,1.57,1.19c1.34,0,2.71-1.37,2.71-3.19c0-1.85-1.33-3.29-2.72-3.29c-0.1,0-0.59,0.07-0.7,0.07
				c-0.26,0-0.38-0.16-0.38-0.38c0-0.23,0.17-0.41,0.4-0.41c0.1,0,0.63,0.11,0.75,0.11c1.47,0,2.39-1.35,2.39-2.81
				c0-1.4-0.82-2.7-2.2-2.7c-0.92,0-1.41,0.68-1.41,1.21c0,0.09,0.04,0.18,0.05,0.27c0.04,0.13,0.05,0.31,0.05,0.43
				c0,0.56-0.4,0.99-0.89,0.99c-0.58,0-0.87-0.52-0.87-0.99c0-0.99,1.12-2.52,3.35-2.52c2.15,0,3.49,1.44,3.49,3.02
				c0,0.63-0.23,1.24-0.65,1.84c-0.71,0.97-1.5,1.28-2.22,1.53C363.94,223.24,364.47,223.42,365.08,223.96z"/>
			<path d="M370.88,231.95l-0.16-0.25c3.25-3.55,3.32-7.15,3.32-8.46c0-1.31-0.07-4.92-3.32-8.46l0.16-0.25
				c2.72,2.25,4.14,5.49,4.14,8.71C375.01,226.46,373.6,229.7,370.88,231.95z"/>
			<path d="M398.36,217.98h-3.04c0.96,0.63,1.43,0.94,1.43,1.6c0,0.38-0.23,0.79-0.66,0.79c-0.49,0-0.52-0.27-0.65-1.06
				c-0.12-0.79-0.31-1.19-0.38-1.33h-0.77c-0.8,1.17-1.57,2.12-3.07,3.11l-0.07-0.09c1.08-1.3,2.6-3.93,3.04-5.17
				c0.05-0.14,0.12-0.45,0.1-0.97l1.61,0.86c0.12,0.07,0.16,0.14,0.16,0.23c0,0.18-0.26,0.27-0.7,0.41
				c-0.23,0.34-0.68,1.03-0.77,1.17h1.96l0.52-0.67c0.09-0.11,0.19-0.23,0.26-0.23c0.09,0,0.19,0.09,0.33,0.2l0.79,0.67
				c0.09,0.07,0.18,0.18,0.18,0.27C398.62,217.94,398.46,217.98,398.36,217.98z M405.36,226.08c-0.49,2.36-0.73,3.62-3.16,3.91
				c-0.04-0.68-0.63-1.39-1.33-1.91l0.02-0.11c0.7,0.14,1.48,0.31,1.97,0.31c0.54,0,1.03-0.16,1.31-2.63h-5.08
				c0.02,0.63,0.05,3.71,0.07,4.41c0,0.09,0.03,0.61,0.03,0.74c0,0.52-0.45,0.76-0.85,0.76c-0.23,0-0.47-0.07-0.47-0.54
				c0-0.88,0.09-3.87,0.11-4.81c-1.73,2.14-3.96,3.78-6.53,4.7l-0.03-0.14c1.17-0.65,3.74-2.77,5.53-5.11h-3.46
				c-0.21,0.83-0.3,1.15-0.89,1.15c-0.4,0-0.61-0.14-0.61-0.43c0-0.05,0.19-0.61,0.31-0.94c0.65-1.87,0.68-2.38,0.73-3.4l1.41,0.83
				h3.56c0-0.16-0.02-1.49-0.02-1.78h-2.64c-0.14,0-1.24,0-2.06,0.18l-0.35-0.72c0.86,0.07,1.83,0.11,2.69,0.11h7.07l0.47-0.47
				c0.05-0.05,0.12-0.11,0.19-0.11c0.09,0,0.17,0.05,0.24,0.11l0.82,0.65c0.05,0.05,0.14,0.11,0.14,0.22c0,0.16-0.19,0.31-0.56,0.56
				c0,0.27,0.07,1.51,0.07,1.69c0,0.61-0.7,0.68-0.82,0.68c-0.45,0-0.44-0.4-0.42-0.68h-3.75v1.93h4.96l0.61-0.65
				c0.07-0.07,0.16-0.18,0.23-0.18c0.07,0,0.19,0.11,0.26,0.18l0.8,0.76c0.07,0.05,0.12,0.14,0.12,0.22
				C406.07,225.78,405.79,225.87,405.36,226.08z M398.01,223.29h-3.91c-0.17,0.56-0.19,0.7-0.49,1.93h4.4V223.29z M406.02,218.16
				h-5.08c1.31,0.52,1.82,0.74,1.82,1.49c0,0.49-0.37,0.67-0.63,0.67c-0.44,0-0.51-0.27-0.79-1.06c-0.11-0.32-0.4-0.79-0.68-1.1H400
				c-0.56,0.81-1.22,1.62-2.04,2.23l-0.09-0.07c1.1-1.91,2.11-3.82,2.06-5.38l1.69,0.79c0.1,0.05,0.16,0.13,0.16,0.22
				c0,0.18-0.24,0.31-0.75,0.47c-0.17,0.34-0.33,0.65-0.75,1.31h3.68l0.58-0.85c0.07-0.11,0.16-0.22,0.26-0.22
				c0.12,0,0.25,0.11,0.33,0.18l0.98,0.85c0.09,0.07,0.17,0.16,0.17,0.27C406.28,218.12,406.14,218.16,406.02,218.16z
				 M402.86,221.08h-3.77v1.78h3.77V221.08z"/>
			<path d="M418.3,216.94v0.95c-2.78,4.41-3.75,6.91-3.98,10.93c-0.04,0.47-0.09,1.6-0.98,1.6c-0.44,0-0.89-0.38-0.89-0.99
				c0-1.28,1.22-5.06,4.91-11.07h-2.99c-2.53,0-2.92,1.21-3.3,2.36l-0.52-0.13l0.72-3.66H418.3z"/>
			<path d="M425.93,230.42c-1.2,0-2.22-0.86-2.86-1.94c-0.73-1.24-1.07-3.46-1.07-5.13c0-3.84,1.59-6.75,3.93-6.75
				c1.8,0,3.93,2,3.93,6.91C429.85,227.92,428.06,230.42,425.93,230.42z M423.97,219.6c-0.24,0.9-0.4,2.41-0.4,3.91
				c0,4.02,0.92,6.3,2.36,6.3c1.21,0,1.75-1.66,1.94-2.34c0.24-0.92,0.42-2.45,0.42-3.96c0-4.11-0.96-6.3-2.36-6.3
				C424.69,217.21,424.15,218.97,423.97,219.6z"/>
			<path d="M434.55,229.5h0.96c0.91,0,1.22-0.36,1.22-1.1v-9.74c0-0.56-0.51-0.65-0.84-0.65h-1.33v-0.56h0.31
				c1.34,0,2.63-0.63,2.85-0.76c0.12-0.07,0.17-0.11,0.24-0.11c0.16,0,0.19,0.11,0.19,0.25v11.56c0,0.77,0.37,1.1,1.22,1.1h0.96
				v0.58h-5.79V229.5z"/>
			<path d="M452.87,216.94v0.95c-2.78,4.41-3.75,6.91-3.98,10.93c-0.04,0.47-0.09,1.6-0.98,1.6c-0.44,0-0.89-0.38-0.89-0.99
				c0-1.28,1.22-5.06,4.9-11.07h-2.98c-2.53,0-2.92,1.21-3.3,2.36l-0.52-0.13l0.72-3.66H452.87z"/>
			<path d="M472.58,222.21h-8.66c-0.45,0.86-0.96,2.05-1.19,2.59h4.89l0.63-0.56c0.09-0.07,0.17-0.14,0.26-0.14s0.19,0.11,0.28,0.2
				l0.87,0.83c0.07,0.07,0.16,0.18,0.16,0.29c0,0.23-0.33,0.32-0.87,0.49c-0.79,3.76-1.19,5.74-4.5,5.67
				c-0.21-1.21-1.29-1.82-1.75-2.05l0.02-0.11c1.54,0.41,2.9,0.47,2.95,0.47c0.87,0,1.41-0.59,2.06-4.65h-5.17
				c-0.24,0.58-0.71,1.69-0.96,2.05c-0.14,0.2-0.37,0.31-0.68,0.31c-0.3,0-0.68-0.16-0.68-0.45c0-0.11,0.05-0.27,0.1-0.36
				c1.05-2.05,1.17-2.3,2.18-4.57h-3.26c-0.47,0-1.29,0.02-2.06,0.16l-0.35-0.7c1.38,0.11,2.37,0.11,2.69,0.11h10.67l0.79-0.99
				c0.09-0.11,0.17-0.22,0.28-0.22c0.09,0,0.23,0.11,0.31,0.18l1.08,1.01c0.09,0.07,0.17,0.16,0.17,0.27
				C472.84,222.21,472.66,222.21,472.58,222.21z M469,216.74c0,0.7,0.02,2.48,0.02,3.15c0,0.25,0,0.74-0.75,0.74
				c-0.56,0-0.59-0.27-0.54-0.88h-6.04c0,0.45-0.02,1.01-0.85,1.01c-0.28,0-0.47-0.22-0.47-0.47c0-0.13,0.07-0.7,0.07-0.83
				c0.04-0.63,0.09-1.48,0.09-2.36c0-0.94-0.05-1.31-0.21-2.03l1.62,0.79h5.66l0.35-0.43c0.07-0.09,0.17-0.2,0.24-0.2
				s0.21,0.09,0.28,0.14l0.84,0.52c0.11,0.07,0.19,0.2,0.19,0.31C469.49,216.31,469.37,216.45,469,216.74z M467.74,216.29h-6.04
				v3.02h6.04V216.29z"/>
			<path d="M64.5,253.04c-2.57-2.12-3.91-5.18-3.91-8.23c0-3.04,1.34-6.1,3.91-8.23l0.15,0.24c-3.07,3.35-3.13,6.75-3.13,7.99
				c0,1.24,0.07,4.64,3.13,7.99L64.5,253.04z"/>
			<path d="M73.78,239.52c-1.6,2.52-2.85,4.4-6,6.29l-0.08-0.12c2.66-2.63,5-6.12,4.87-7.85l1.68,1.04c0.08,0.05,0.2,0.15,0.2,0.29
				C74.44,239.34,74.29,239.42,73.78,239.52z M80.59,251.85c-0.4,0-0.68-0.27-0.88-0.75c-0.58-1.34-0.64-1.5-0.69-1.61
				c-2.42,0.88-7.55,1.94-8.23,2.07c-0.28,0.37-0.36,0.46-0.51,0.46s-0.23-0.17-0.26-0.27l-0.54-1.77c0.35,0.07,0.81,0.15,1.35,0.15
				c0.13,0,1.09-0.08,1.29-0.1c0.86-1.82,1.93-4.64,2.21-6.14c0.07-0.31,0.07-0.68,0.05-0.99l1.71,0.75
				c0.1,0.05,0.25,0.14,0.25,0.29c0,0.2-0.2,0.29-0.56,0.41c-0.18,0.31-0.31,0.54-1.52,2.72c-0.5,0.87-1.04,1.79-1.77,2.91
				c1.9-0.2,4.24-0.49,6.35-0.78c-0.86-1.24-1.32-1.72-1.95-2.23l0.05-0.12c1.93,0.73,4.37,2.43,4.37,4.1
				C81.32,251.69,80.79,251.85,80.59,251.85z M81.65,245.27c-0.53-0.29-1.88-1.05-3.1-2.79c-1.2-1.7-1.4-2.86-1.62-4.06
				c-0.41,0.02-1.37,0.02-2.16,0.19l-0.35-0.68c0.43,0.03,1.27,0.08,2.13,0.08l0.48-0.58c0.12-0.14,0.18-0.22,0.26-0.22
				c0.08,0,0.18,0.07,0.35,0.19l0.73,0.54c0.07,0.05,0.16,0.14,0.16,0.25c0,0.15-0.12,0.22-0.38,0.34
				c-0.38,0.15-0.53,0.22-0.76,0.31c0.58,2.23,2.75,4.42,5.89,4.86v0.12C82.82,244.01,82.11,244.28,81.65,245.27z"/>
			<path d="M91.5,246.48c-0.38,0-0.56-0.32-0.69-0.58c-0.38-0.76-0.81-1.53-1.35-2.18c-0.02,4.5-0.02,5,0.02,6.24
				c0,0.26,0.07,1.39,0.07,1.62c0,0.63-0.56,0.76-0.81,0.76c-0.51,0-0.51-0.37-0.51-0.53c0-0.19,0.07-1,0.07-1.17
				c0.05-1.31,0.03-1.65,0.08-5.81c-1.52,1.56-2.77,2.23-3.27,2.5l-0.07-0.12c1.86-1.67,4.24-4.81,4.98-6.44h-2.31
				c-0.41,0-1.21,0.02-1.95,0.15l-0.31-0.66c1.12,0.08,2.29,0.1,2.52,0.1h0.43c-0.03-2.18-0.21-2.69-0.43-3.33l1.9,0.56
				c0.1,0.03,0.2,0.14,0.2,0.22c0,0.2-0.2,0.34-0.53,0.51c-0.03,0.48-0.03,0.51,0,2.04h0.59l0.41-0.44c0.12-0.12,0.2-0.17,0.3-0.17
				c0.1,0,0.17,0.07,0.26,0.15l0.74,0.68c0.08,0.07,0.12,0.15,0.12,0.24c0,0.25-0.26,0.32-0.79,0.39c-0.26,0.42-0.72,1.16-1.65,2.33
				c0.16,0.05,0.92,0.32,1.75,0.94c0.3,0.22,0.82,0.61,0.82,1.29C92.1,246.02,91.95,246.48,91.5,246.48z M100.16,251.32h-6.98
				c-0.17,0-1.17,0-1.95,0.15l-0.33-0.68c1.15,0.1,2.39,0.12,2.54,0.12h1.62c0-1.73,0.02-4.49,0-6.22
				c-0.02-0.82-0.02-0.94-0.02-1.46h-0.97c-0.17,0-1.17,0-1.95,0.15l-0.33-0.68c1.11,0.1,2.24,0.12,2.54,0.12h0.71
				c0-0.29-0.02-1.41-0.02-1.7c-0.02-2.74-0.02-3.09-0.48-4.08l1.83,0.44c0.25,0.05,0.4,0.17,0.4,0.32c0,0.22-0.31,0.41-0.56,0.51
				c-0.02,0.42-0.02,3.79-0.02,4.5h1.67l0.61-0.83c0.1-0.14,0.17-0.2,0.26-0.2c0.08,0,0.18,0.07,0.31,0.19l0.91,0.82
				c0.1,0.08,0.16,0.19,0.16,0.27c0,0.12-0.13,0.17-0.25,0.17h-3.68v4.61l0.02,3.08h1.76l0.78-0.88c0.12-0.14,0.2-0.19,0.28-0.19
				c0.08,0,0.18,0.03,0.31,0.17l0.91,0.87c0.08,0.08,0.15,0.19,0.15,0.27C100.41,251.27,100.26,251.32,100.16,251.32z"/>
			<path d="M103.74,253.04l-0.15-0.24c3.07-3.35,3.13-6.75,3.13-7.99c0-1.24-0.07-4.64-3.13-7.99l0.15-0.24
				c2.57,2.13,3.91,5.18,3.91,8.23C107.65,247.85,106.31,250.91,103.74,253.04z"/>
			<path d="M127.21,244.27c-3.23-1.41-5.51-3.99-6.42-5.98h-0.1c-2.06,3.21-5.67,6.44-8.08,7.09l-0.07-0.1
				c2.82-2.04,4.78-4.03,6.73-7.36c0.38-0.63,0.4-0.78,0.45-1.07l1.55,0.87c0.08,0.05,0.13,0.1,0.13,0.22
				c0,0.08-0.07,0.24-0.35,0.31c1.57,2.29,4.7,4.23,7.51,4.49v0.14C128.38,242.96,127.57,243.43,127.21,244.27z M127.24,251.73
				h-11.23c-0.17,0-1.19,0-1.95,0.15l-0.33-0.68c1.14,0.1,2.39,0.12,2.54,0.12h3.56v-3.28h-2.41c-0.41,0-1.2,0-1.95,0.15l-0.33-0.68
				c1.02,0.08,2.04,0.12,2.54,0.12h2.14v-3.06h-1.5c-0.41,0-1.21,0.02-1.95,0.15l-0.31-0.68c1.12,0.1,2.29,0.12,2.52,0.12h4.17
				l0.64-0.83c0.1-0.12,0.16-0.19,0.23-0.19c0.1,0,0.17,0.03,0.28,0.14l1.09,0.85c0.05,0.03,0.17,0.14,0.17,0.25
				c0,0.17-0.15,0.19-0.25,0.19h-3.94v3.06h2.46l0.59-0.8c0.07-0.1,0.16-0.2,0.25-0.2c0.07,0,0.13,0.02,0.31,0.17l0.97,0.8
				c0.08,0.07,0.17,0.14,0.17,0.26c0,0.15-0.13,0.19-0.25,0.19h-4.5v3.28h4.02l0.79-0.92c0.05-0.05,0.13-0.15,0.21-0.15
				c0.08,0,0.17,0.08,0.3,0.19l1.01,0.85c0.08,0.07,0.17,0.15,0.17,0.25C127.49,251.71,127.34,251.73,127.24,251.73z"/>
			<path d="M140.4,239.85c-0.03,0.95-0.03,1.51-0.03,2.48c0,2.99,0.08,7.1,0.15,8.13c0,0.1,0.03,0.54,0.03,0.65
				c0,0.63-0.64,0.82-0.94,0.82c-0.33,0-0.43-0.19-0.43-0.51c0-0.02,0-0.25,0.03-0.68h-6.1c0.02,0.49,0.03,1.24-0.91,1.24
				c-0.35,0-0.45-0.2-0.45-0.46c0-0.12,0.05-0.99,0.08-1.48c0.07-1.31,0.12-6.09,0.12-7.28c0-3.62-0.08-4.03-0.26-4.78l1.67,0.88
				h5.62l0.51-0.51c0.13-0.14,0.21-0.2,0.33-0.2c0.1,0,0.2,0.08,0.31,0.19l0.71,0.66c0.12,0.12,0.2,0.22,0.2,0.32
				C141.04,239.52,140.83,239.64,140.4,239.85z M139.23,239.27h-6.14v5.15h6.14V239.27z M139.23,244.83h-6.14v5.49h6.14V244.83z"/>
			<path d="M147.26,241.04c-0.41,0-1.2,0-1.95,0.15l-0.33-0.68c1.12,0.1,2.29,0.12,2.54,0.12h4.01c0-0.56,0-2.45-0.33-3.5l1.78,0.56
				c0.15,0.05,0.23,0.1,0.23,0.22c0,0.15-0.08,0.27-0.59,0.54c0,0.12-0.02,1.44-0.03,2.18h3.89l0.78-0.95
				c0.12-0.15,0.2-0.22,0.28-0.22s0.18,0.07,0.33,0.19l1.2,0.94c0.12,0.08,0.17,0.19,0.17,0.27c0,0.12-0.08,0.19-0.25,0.19h-6.05
				c1.29,3.06,4.27,6.27,7.11,6.99v0.12c-0.68,0.14-1.12,0.22-1.9,1.05c-1.95-1.5-3.08-3.03-3.81-4.28
				c-1.2-2.09-1.65-3.79-1.67-3.88h-0.08c-0.02,1.07-0.03,1.8-0.03,1.99c0,0.75,0.03,4.05,0.03,4.73h0.99l0.58-0.71
				c0.12-0.14,0.2-0.2,0.28-0.2c0.08,0,0.18,0.07,0.3,0.17l0.79,0.7c0.12,0.1,0.16,0.19,0.16,0.27c0,0.1-0.1,0.19-0.25,0.19h-2.85
				c0.02,0.54,0.1,3.01,0.1,3.52c0,0.78-0.71,0.85-0.87,0.85c-0.54,0-0.54-0.36-0.54-0.53c0-0.51,0.1-1.31,0.12-1.82
				c0.05-0.99,0.07-1.58,0.07-2.02h-0.91c-0.41,0-1.2,0-1.95,0.15l-0.33-0.68c1.02,0.08,2.04,0.12,2.54,0.12h0.64
				c0.02-0.77,0.08-4.9,0.08-5.35c-1.06,1.92-3.41,5.42-7.04,6.83l-0.05-0.1c3.91-2.98,6.07-6.99,6.47-8.09H147.26z"/>
			<path d="M176.94,239.15h-6.52l0.58,0.51c0.12,0.1,0.2,0.2,0.2,0.31c0,0.19-0.28,0.27-0.69,0.29c-0.23,0.37-0.54,0.92-1.2,1.9
				l0.94,0.31c0.13,0.05,0.26,0.1,0.26,0.27s-0.17,0.36-0.56,0.58c-0.02,0.92-0.03,1.36-0.03,3.06c0,2.24,0.02,3.43,0.05,4.27
				c0,0.19,0.05,1.12,0.05,1.33c0,0.6-0.59,0.82-0.86,0.82c-0.5,0-0.51-0.36-0.51-0.59c0-0.05,0-0.1,0.02-0.46
				c0.08-1.68,0.13-4.28,0.13-6.12c0-1.34-0.02-1.77-0.05-2.63c-1.01,1.39-3.4,4.62-6.65,6.25l-0.07-0.1
				c1.53-1.38,4.09-4.35,5.82-6.97c0.64-0.95,1.25-1.89,1.55-3.01h-4.67c-0.45,0-1.22,0.02-1.95,0.15l-0.33-0.68
				c0.84,0.07,1.7,0.12,2.54,0.12h9.57l0.74-0.9c0.1-0.12,0.18-0.2,0.28-0.2c0.1,0,0.23,0.08,0.38,0.2l1.07,0.87
				c0.07,0.05,0.17,0.15,0.17,0.25C177.21,239.11,177.07,239.15,176.94,239.15z M176.23,247.99c-0.54,0-0.73-0.32-1.39-1.46
				c-0.46-0.8-1.88-2.86-3.46-3.74l0.03-0.1c2.51,0.54,5.46,2.96,5.46,4.52C176.88,247.78,176.51,247.99,176.23,247.99z"/>
			<path d="M188.96,240.95h-3.89v1.41h1.52l0.4-0.49c0.08-0.1,0.15-0.17,0.23-0.17c0.07,0,0.16,0.03,0.28,0.15l0.61,0.56
				c0.08,0.07,0.15,0.17,0.15,0.29c0,0.12-0.08,0.24-0.41,0.46c-0.03,0.49,0.02,2.65,0.02,3.08c0,0.2,0,0.9-0.78,0.9
				c-0.21,0-0.31-0.17-0.3-0.44h-1.71v1.53h1.24l0.45-0.56c0.1-0.12,0.18-0.2,0.28-0.2c0.08,0,0.18,0.07,0.33,0.19l0.66,0.54
				c0.1,0.08,0.17,0.17,0.17,0.27s-0.08,0.17-0.26,0.17h-2.85v1.56c1.29-0.22,2.23-0.37,3.15-0.6v0.14
				c-1.75,0.85-5.44,1.9-6.76,2.19c-0.1,0.25-0.2,0.41-0.36,0.41c-0.12,0-0.2-0.07-0.26-0.2l-0.76-1.48
				c0.21,0.03,0.35,0.05,0.64,0.05c0.73,0,2.06-0.17,3.33-0.36v-1.72h-1.27c-0.15,0-1.17,0-1.95,0.15l-0.31-0.68
				c1.12,0.1,2.29,0.12,2.52,0.12h1.01v-1.53h-1.7c0.02,0.22,0.02,0.41-0.13,0.56c-0.13,0.14-0.43,0.31-0.64,0.31
				c-0.18,0-0.31-0.08-0.31-0.48c0-0.66,0.05-3.54,0.05-4.11c0-0.05-0.03-0.99-0.13-1.38l1.35,0.76h1.52v-1.41h-1.62
				c-0.41,0-1.2,0.02-1.93,0.15l-0.33-0.68c1.04,0.08,2.08,0.12,2.54,0.12h1.34v-1.33c-0.82,0.12-1.85,0.22-2.72,0.22
				c-0.36,0-0.53,0-0.78-0.02v-0.12c1.85-0.41,4.72-1.1,6.14-2.06l1.02,0.93c0.08,0.08,0.13,0.15,0.13,0.26c0,0.15-0.15,0.2-0.4,0.2
				c-0.1,0-0.23-0.03-0.35-0.07c-0.51,0.15-0.91,0.27-2.03,0.48v1.5h1.98l0.56-0.73c0.12-0.14,0.18-0.2,0.28-0.2
				c0.1,0,0.2,0.07,0.31,0.17l0.84,0.73c0.08,0.07,0.17,0.17,0.17,0.25C189.21,240.9,189.11,240.95,188.96,240.95z M184.05,242.77
				h-1.71v1.51h1.71V242.77z M184.05,244.69h-1.71v1.6h1.71V244.69z M186.8,242.77h-1.73v1.51h1.73V242.77z M186.8,244.69h-1.73v1.6
				h1.73V244.69z M194.42,242.48c0.02,5.69-0.3,7.09-0.66,8.11c-0.35,0.99-0.97,1.78-2.41,2.01c-0.15-0.93-0.97-1.48-1.78-1.9
				l0.05-0.12c0.97,0.24,1.9,0.25,2.01,0.25c0.4,0,0.79,0,1.14-0.95c0.23-0.66,0.59-4.16,0.59-6c0-0.53-0.02-1.27-0.1-1.79h-1.7
				c0,2.75-0.26,8.47-5.03,10.62l-0.08-0.1c3.76-2.96,3.89-7.46,3.96-10.52c-0.54,0.02-1.2,0.02-1.9,0.15l-0.33-0.68
				c0.64,0.05,1.09,0.08,2.23,0.12c0.05-2.48-0.07-3.65-0.31-4.64l1.72,0.59c0.18,0.07,0.28,0.15,0.28,0.27
				c0,0.1-0.05,0.17-0.12,0.24c-0.05,0.05-0.28,0.22-0.41,0.31v3.23h1.42l0.56-0.58c0.13-0.14,0.21-0.19,0.3-0.19
				c0.1,0,0.16,0.03,0.33,0.17l0.64,0.53c0.1,0.09,0.17,0.17,0.17,0.29C194.98,242.07,194.74,242.28,194.42,242.48z"/>
			<path d="M212.35,243.26h-11.23c0.15,5.24-0.53,7.45-2.79,9.32l-0.08-0.07c1.44-2.09,1.73-4.59,1.75-6.7
				c0-1.05-0.08-2.69-0.36-3.72l1.63,0.77h5.31c0.43-0.97,1.09-2.46,1.25-3.31h-6.66c-0.43,0-1.21,0.02-1.95,0.15l-0.31-0.68
				c1.04,0.08,2.06,0.12,2.52,0.12h3.46c-0.05-1.16-0.18-1.72-0.26-2.04l1.72,0.43c0.12,0.03,0.23,0.07,0.23,0.24
				s-0.4,0.39-0.58,0.49v0.88h3.48l0.71-0.82c0.13-0.15,0.18-0.22,0.26-0.22c0.07,0,0.13,0.03,0.3,0.17l1.06,0.83
				c0.08,0.07,0.17,0.15,0.17,0.25c0,0.17-0.13,0.19-0.25,0.19h-3.33l1.01,0.58c0.1,0.05,0.13,0.12,0.13,0.19
				c0,0.24-0.25,0.29-0.68,0.39c-0.74,0.92-1.07,1.27-1.93,2.16h3.22l0.61-0.77c0.1-0.14,0.17-0.2,0.25-0.2
				c0.07,0,0.17,0.05,0.33,0.17l1.09,0.76c0.12,0.08,0.18,0.15,0.18,0.25C212.59,243.23,212.46,243.26,212.35,243.26z
				 M212.48,251.85h-9.45c-0.17,0-1.17,0-1.95,0.15l-0.31-0.68c1.14,0.1,2.39,0.12,2.52,0.12h2.31v-2.43h-1.09
				c-0.41,0-1.2,0.02-1.93,0.15l-0.33-0.68c1.12,0.1,2.33,0.12,2.54,0.12h0.81v-2.09h-2.24c-0.64,1.05-1.07,1.75-2.14,2.7
				l-0.08-0.05c0.81-1.56,1.9-3.93,2.13-5.42l1.45,0.65c0.15,0.07,0.17,0.14,0.17,0.19c0,0.15-0.07,0.19-0.58,0.44
				c-0.13,0.17-0.46,0.71-0.68,1.09h1.98c-0.03-1.63-0.03-1.8-0.18-2.58l1.6,0.31c0.08,0.02,0.21,0.05,0.21,0.2
				s-0.26,0.32-0.53,0.49c0,0.24-0.02,1.34-0.02,1.58h2.42l0.58-0.82c0.1-0.14,0.18-0.22,0.26-0.22s0.15,0.07,0.3,0.19l0.96,0.82
				c0.13,0.1,0.17,0.19,0.17,0.26c0,0.15-0.15,0.19-0.26,0.19h-4.42v2.09h1.96l0.49-0.63c0.13-0.15,0.17-0.2,0.26-0.2
				c0.07,0,0.13,0.05,0.3,0.17l0.91,0.65c0.13,0.1,0.16,0.17,0.16,0.24c0,0.17-0.15,0.19-0.25,0.19h-3.84v2.43h3.56l0.74-0.71
				c0.1-0.08,0.21-0.19,0.28-0.19c0.05,0,0.13,0.05,0.3,0.17l0.99,0.7c0.08,0.07,0.17,0.15,0.17,0.26
				C212.73,251.81,212.59,251.85,212.48,251.85z M203.24,242.6c-0.4,0-0.43-0.12-0.79-1.1c-0.28-0.75-0.58-1.24-0.96-1.63l0.03-0.08
				c0.68,0.24,2.39,0.85,2.39,2.02C203.92,242.21,203.65,242.6,203.24,242.6z"/>
			<path d="M220.94,241.49h-2.33c-0.03,3.72-0.03,4.54-0.03,5.58c0,0.75,0.05,4.06,0.05,4.74c0,0.31,0,0.83-0.81,0.83
				c-0.18,0-0.48-0.07-0.48-0.48c0-0.25,0.1-1.43,0.12-1.68c0.05-1.22,0.05-1.75,0.07-5c0.02-2.4,0.02-2.53,0.03-3.99
				c-0.59,0-1.29,0.05-1.88,0.15l-0.33-0.66c0.46,0.03,1.04,0.08,2.21,0.1c0-2.52-0.03-3.38-0.38-4.1l1.81,0.53
				c0.1,0.03,0.21,0.1,0.21,0.24c0,0.17-0.05,0.2-0.58,0.51c0,0.46-0.02,2.43-0.02,2.82h0.77l0.5-0.54c0.08-0.1,0.18-0.22,0.26-0.22
				c0.07,0,0.2,0.08,0.3,0.19l0.59,0.56c0.08,0.09,0.15,0.15,0.15,0.26C221.18,241.48,221.05,241.49,220.94,241.49z M224.75,246.71
				c-0.43,4.76-0.92,5.44-2.67,5.63c-0.17-0.95-0.21-1.14-0.88-1.68l0.05-0.14c0.76,0.27,1.19,0.29,1.32,0.29
				c0.43,0,0.53-0.1,0.79-1.43c0.12-0.56,0.33-1.67,0.36-3.14h-1.2c-0.31,2.04-1.15,4.71-3.56,5.93l-0.07-0.08
				c1.24-1.12,2.31-3.08,2.57-5.83c-0.53,0-1.14,0.05-1.65,0.15l-0.33-0.68c0.61,0.05,1.09,0.08,2.01,0.1
				c0.08-1.29-0.05-1.8-0.1-2.06l1.5,0.54c0.15,0.05,0.21,0.15,0.21,0.24c0,0.14-0.36,0.37-0.45,0.42
				c-0.03,0.32-0.03,0.46-0.08,0.85h0.99l0.4-0.42c0.12-0.12,0.17-0.17,0.23-0.17c0.07,0,0.15,0.08,0.21,0.15l0.68,0.61
				c0.07,0.07,0.13,0.14,0.13,0.24C225.23,246.36,225.18,246.39,224.75,246.71z M228.56,239.81c-0.73,3.43-1.86,3.55-2.85,3.67
				c-0.08-0.58-0.15-1.04-1.04-1.8l0.07-0.1c0.63,0.31,1.37,0.41,1.48,0.41c0.84,0,1.22-1.95,1.4-2.89h-2.42
				c-0.71,2.13-1.75,3.88-4.57,4.76l-0.02-0.1c1.65-1.14,3-2.63,3.48-4.66h-0.86c-0.41,0-1.2,0-1.95,0.15l-0.33-0.68
				c1.14,0.1,2.31,0.12,2.54,0.12h0.69c0.07-0.43,0.12-0.78,0.12-1.19c0-0.36-0.05-0.49-0.12-0.66l1.68,0.53
				c0.07,0.02,0.15,0.07,0.15,0.17c0,0.1-0.26,0.27-0.53,0.44c-0.1,0.41-0.13,0.53-0.18,0.71h2.13l0.26-0.34
				c0.08-0.1,0.2-0.15,0.28-0.15c0.1,0,0.15,0.03,0.23,0.1l0.87,0.75c0.07,0.05,0.13,0.12,0.13,0.22
				C229.22,239.45,228.81,239.68,228.56,239.81z M230.32,246.42c-0.15,0.08-0.23,0.15-0.35,0.24c-0.03,1.78-0.25,4.08-0.76,4.93
				c-0.1,0.17-0.53,0.87-1.98,1c-0.35-1.05-0.36-1.09-0.94-1.67l0.05-0.14c0.84,0.29,1.32,0.29,1.4,0.29c0.66,0,0.71-0.31,0.91-1.43
				c0.12-0.73,0.31-2.79,0.25-3.37h-1.22c-0.43,2.46-1.05,4.67-3.84,6.1l-0.05-0.08c0.94-0.92,2.39-2.57,2.87-5.97
				c-0.36,0.02-0.56,0.07-0.76,0.1l-0.33-0.68c0.56,0.05,0.81,0.07,1.16,0.08c0.02-0.17,0.05-0.6,0.05-1.24
				c0-0.82-0.07-1.04-0.13-1.27l1.57,0.58c0.13,0.05,0.21,0.17,0.21,0.25c0,0.19-0.43,0.41-0.51,0.46c-0.07,0.63-0.1,0.92-0.17,1.24
				c0.13,0.02,0.2,0.02,0.36,0.02h0.64l0.41-0.49c0.07-0.08,0.15-0.17,0.2-0.17c0.07,0,0.16,0.05,0.25,0.12l0.79,0.61
				c0.07,0.05,0.15,0.15,0.15,0.22C230.55,246.29,230.44,246.36,230.32,246.42z"/>
			<path d="M247.21,244.2c-2.85-1.31-4.95-3.84-6.02-6.12l-0.07,0.02c-1.8,3.23-5.71,6.05-7.55,6.82l-0.05-0.1
				c2.47-1.78,4.49-4.15,6.07-6.78c0.38-0.61,0.43-0.85,0.5-1.16l1.67,0.54c0.08,0.03,0.26,0.12,0.26,0.29
				c0,0.2-0.17,0.24-0.51,0.32c1.01,1.73,3.63,4.11,7.29,4.76v0.12C248.21,243.16,247.62,243.52,247.21,244.2z M247.34,246.58h-6.62
				c-0.89,1.72-2.56,3.69-2.72,3.89c2.03-0.14,4.58-0.39,6.45-0.63c-0.1-0.19-0.64-1.21-1.81-2.35l0.1-0.1
				c2.26,1.05,4.06,2.77,4.06,4.2c0,0.27-0.18,0.83-0.73,0.83s-0.76-0.46-0.97-1.05c-0.2-0.6-0.26-0.78-0.49-1.24
				c-1.34,0.42-7.41,1.75-8.35,1.9c-0.1,0.22-0.15,0.37-0.3,0.37c-0.13,0-0.21-0.17-0.26-0.31l-0.69-1.72
				c0.36,0.07,0.74,0.15,1.47,0.15c0.35,0,0.68-0.02,1.19-0.05c0.54-1.26,1.01-2.52,1.35-3.91h-2.33c-0.38,0-1.2,0.02-1.93,0.15
				l-0.33-0.66c1.3,0.1,2.24,0.1,2.52,0.1h7.92l0.84-0.93c0.12-0.14,0.2-0.2,0.28-0.2c0.08,0,0.18,0.08,0.3,0.17l1.14,0.94
				c0.07,0.05,0.17,0.15,0.17,0.25C247.59,246.58,247.42,246.58,247.34,246.58z M243.73,243.64h-4.24c-0.41,0-1.21,0.02-1.95,0.15
				l-0.33-0.68c1.14,0.1,2.33,0.12,2.54,0.12h1.85l0.74-0.85c0.08-0.08,0.16-0.2,0.26-0.2c0.08,0,0.21,0.1,0.3,0.17l0.91,0.85
				c0.08,0.08,0.17,0.15,0.17,0.27C243.98,243.62,243.83,243.64,243.73,243.64z"/>
			<path d="M265.97,251.46h-12.32c-0.13,0-1.19,0-1.95,0.15l-0.33-0.66c1.3,0.1,2.51,0.1,2.54,0.1h0.56v-4.49
				c0-0.92,0-2.97-0.12-3.77c-0.03-0.27-0.1-0.44-0.17-0.6l1.7,0.53c0.13,0.03,0.23,0.1,0.23,0.26c0,0.14-0.13,0.27-0.5,0.49
				c0,1.07,0.02,6.39,0.02,7.58h2.92v-12.24h-4.01c-0.31,0-1.19,0-1.95,0.15l-0.33-0.68c0.81,0.07,1.73,0.12,2.54,0.12h8.21
				l0.71-0.9c0.12-0.14,0.18-0.2,0.26-0.2s0.18,0.07,0.31,0.17l1.04,0.9c0.08,0.08,0.17,0.15,0.17,0.26c0,0.15-0.15,0.19-0.25,0.19
				h-5.51v5.49h2.08l0.66-0.83c0.12-0.15,0.2-0.2,0.28-0.2c0.1,0,0.2,0.07,0.31,0.17l0.89,0.83c0.07,0.07,0.15,0.17,0.15,0.27
				c0,0.12-0.1,0.17-0.25,0.17h-4.12v6.34h3.81l0.79-0.92c0.13-0.15,0.23-0.24,0.31-0.24c0.08,0,0.23,0.1,0.35,0.2l1.04,0.92
				c0.08,0.08,0.15,0.15,0.15,0.25C266.22,251.42,266.07,251.46,265.97,251.46z"/>
			<path d="M282.83,244.2c-2.85-1.31-4.95-3.84-6.02-6.12l-0.07,0.02c-1.8,3.23-5.71,6.05-7.55,6.82l-0.05-0.1
				c2.47-1.78,4.49-4.15,6.07-6.78c0.38-0.61,0.43-0.85,0.5-1.16l1.67,0.54c0.08,0.03,0.26,0.12,0.26,0.29
				c0,0.2-0.17,0.24-0.51,0.32c1.01,1.73,3.63,4.11,7.29,4.76v0.12C283.83,243.16,283.24,243.52,282.83,244.2z M282.96,246.58h-6.61
				c-0.89,1.72-2.56,3.69-2.72,3.89c2.03-0.14,4.58-0.39,6.45-0.63c-0.1-0.19-0.64-1.21-1.81-2.35l0.1-0.1
				c2.26,1.05,4.06,2.77,4.06,4.2c0,0.27-0.18,0.83-0.73,0.83c-0.54,0-0.76-0.46-0.97-1.05c-0.2-0.6-0.26-0.78-0.5-1.24
				c-1.34,0.42-7.41,1.75-8.35,1.9c-0.1,0.22-0.15,0.37-0.3,0.37c-0.13,0-0.21-0.17-0.26-0.31l-0.69-1.72
				c0.36,0.07,0.74,0.15,1.47,0.15c0.35,0,0.68-0.02,1.19-0.05c0.54-1.26,1.01-2.52,1.35-3.91h-2.33c-0.38,0-1.21,0.02-1.93,0.15
				l-0.33-0.66c1.3,0.1,2.24,0.1,2.52,0.1h7.92l0.84-0.93c0.12-0.14,0.2-0.2,0.28-0.2s0.18,0.08,0.3,0.17l1.14,0.94
				c0.07,0.05,0.16,0.15,0.16,0.25C283.21,246.58,283.04,246.58,282.96,246.58z M279.35,243.64h-4.24c-0.41,0-1.2,0.02-1.95,0.15
				l-0.33-0.68c1.14,0.1,2.33,0.12,2.54,0.12h1.85l0.74-0.85c0.08-0.08,0.17-0.2,0.26-0.2c0.08,0,0.21,0.1,0.3,0.17l0.91,0.85
				c0.08,0.08,0.17,0.15,0.17,0.27C279.59,243.62,279.45,243.64,279.35,243.64z"/>
			<path d="M286.96,252.51c0.78-0.29,2.13-0.97,3.78-2.18c0.69-0.49,0.84-0.78,1.09-1.19l1.42,0.92c0.07,0.05,0.18,0.15,0.18,0.27
				c0,0.26-0.41,0.27-0.94,0.29c-1.58,1.02-3.79,1.87-5.51,2.01L286.96,252.51z M298.01,242.28l0.41-0.42
				c0.07-0.07,0.17-0.2,0.26-0.2c0.08,0,0.13,0.05,0.25,0.14l0.71,0.56c0.12,0.09,0.21,0.2,0.21,0.32c0,0.15-0.23,0.32-0.61,0.54
				c-0.03,0.71,0.1,5.22,0.1,5.64c0,0.46-0.35,0.83-0.79,0.83c-0.46,0-0.45-0.41-0.43-0.66h-7.44c-0.03,0.41-0.07,0.9-0.79,0.9
				c-0.48,0-0.48-0.37-0.48-0.51c0-0.24,0.07-0.82,0.07-0.95c0.02-0.48,0.07-2.33,0.07-4.16c0-1.7-0.03-1.96-0.18-2.6l1.53,0.58
				H298.01z M297.6,238.01l0.48-0.49c0.08-0.08,0.16-0.19,0.23-0.19c0.08,0,0.15,0.05,0.23,0.12l0.71,0.56
				c0.08,0.07,0.15,0.15,0.15,0.25c0,0.15-0.16,0.31-0.54,0.56c-0.02,0.31,0.03,1.7,0.03,1.97c0,0.51-0.41,0.7-0.69,0.7
				c-0.53,0-0.51-0.37-0.48-0.68h-6.56c0,0.25,0,0.78-0.73,0.78c-0.48,0-0.48-0.31-0.48-0.51c0-0.07,0.07-1.63,0.07-1.94
				c0-1.07-0.03-1.58-0.15-2.02l1.53,0.88H297.6z M290.71,242.68v1.61h7.42v-1.61H290.71z M290.71,244.71v1.6h7.42v-1.6H290.71z
				 M290.71,246.71v1.9h7.42v-1.9H290.71z M291.15,238.42v1.99h6.56v-1.99H291.15z M295.69,249.43c2.14,0.14,4.8,1.22,4.8,2.52
				c0,0.48-0.33,0.68-0.66,0.68c-0.41,0-0.63-0.22-1.09-0.71c-0.94-1.02-1.6-1.6-3.07-2.41L295.69,249.43z"/>
			<path d="M328.7,253.04c-2.57-2.12-3.91-5.18-3.91-8.23c0-3.04,1.34-6.1,3.91-8.23l0.15,0.24c-3.07,3.35-3.13,6.75-3.13,7.99
				c0,1.24,0.07,4.64,3.13,7.99L328.7,253.04z"/>
			<path d="M343.81,244.4l0.88-1.02c0.1-0.12,0.15-0.2,0.26-0.2c0.1,0,0.18,0.1,0.28,0.19l1.19,1.1c0.08,0.08,0.17,0.15,0.17,0.25
				c0,0.17-0.15,0.19-0.25,0.19h-11.88c-0.15,0-1.17,0-1.95,0.15l-0.31-0.78c1.24,0.12,2.42,0.12,2.52,0.12H343.81z"/>
			<path d="M355.71,246.48c-0.38,0-0.56-0.32-0.69-0.58c-0.38-0.76-0.81-1.53-1.35-2.18c-0.02,4.5-0.02,5,0.02,6.24
				c0,0.26,0.07,1.39,0.07,1.62c0,0.63-0.56,0.76-0.81,0.76c-0.51,0-0.51-0.37-0.51-0.53c0-0.19,0.07-1,0.07-1.17
				c0.05-1.31,0.03-1.65,0.08-5.81c-1.52,1.56-2.77,2.23-3.27,2.5l-0.07-0.12c1.86-1.67,4.24-4.81,4.98-6.44h-2.31
				c-0.41,0-1.21,0.02-1.95,0.15l-0.31-0.66c1.12,0.08,2.29,0.1,2.52,0.1h0.43c-0.03-2.18-0.21-2.69-0.43-3.33l1.9,0.56
				c0.1,0.03,0.2,0.14,0.2,0.22c0,0.2-0.2,0.34-0.53,0.51c-0.03,0.48-0.03,0.51,0,2.04h0.59l0.41-0.44c0.12-0.12,0.2-0.17,0.3-0.17
				c0.1,0,0.17,0.07,0.26,0.15l0.74,0.68c0.08,0.07,0.12,0.15,0.12,0.24c0,0.25-0.26,0.32-0.79,0.39c-0.26,0.42-0.72,1.16-1.65,2.33
				c0.16,0.05,0.92,0.32,1.75,0.94c0.3,0.22,0.82,0.61,0.82,1.29C356.31,246.02,356.16,246.48,355.71,246.48z M364.37,251.32h-6.98
				c-0.17,0-1.17,0-1.95,0.15l-0.33-0.68c1.15,0.1,2.39,0.12,2.54,0.12h1.62c0-1.73,0.02-4.49,0-6.22
				c-0.02-0.82-0.02-0.94-0.02-1.46h-0.97c-0.17,0-1.17,0-1.95,0.15l-0.33-0.68c1.11,0.1,2.24,0.12,2.54,0.12h0.71
				c0-0.29-0.02-1.41-0.02-1.7c-0.02-2.74-0.02-3.09-0.48-4.08l1.83,0.44c0.25,0.05,0.4,0.17,0.4,0.32c0,0.22-0.31,0.41-0.56,0.51
				c-0.02,0.42-0.02,3.79-0.02,4.5h1.67l0.61-0.83c0.1-0.14,0.17-0.2,0.26-0.2c0.08,0,0.18,0.07,0.31,0.19l0.91,0.82
				c0.1,0.08,0.16,0.19,0.16,0.27c0,0.12-0.13,0.17-0.25,0.17h-3.68v4.61l0.02,3.08h1.76l0.78-0.88c0.12-0.14,0.2-0.19,0.28-0.19
				c0.08,0,0.18,0.03,0.31,0.17l0.91,0.87c0.08,0.08,0.15,0.19,0.15,0.27C364.62,251.27,364.47,251.32,364.37,251.32z"/>
			<path d="M367.95,253.04l-0.15-0.24c3.07-3.35,3.13-6.75,3.13-7.99c0-1.24-0.07-4.64-3.13-7.99l0.15-0.24
				c2.57,2.13,3.91,5.18,3.91,8.23C371.86,247.85,370.52,250.91,367.95,253.04z"/>
			<path d="M391.25,250.89c-0.74,0.44-2.1,0.44-2.8,0.44c-1.63,0-2.64-0.07-2.64-1.92c0-0.73,0.23-3.06,0.49-6
				c0.05-0.53,0.07-0.75,0.13-1.55h-2.56c-0.3,3.04-0.79,8.11-6.63,9.72l-0.05-0.1c1.81-0.88,3.28-2.38,4.22-4.18
				c0.48-0.9,0.92-2.02,1.25-5.44h-2.59c-0.41,0-1.2,0.02-1.95,0.15l-0.31-0.68c1.12,0.1,2.29,0.12,2.52,0.12h2.36
				c0.05-0.66,0.07-1.31,0.07-1.97c0-1.46-0.1-1.84-0.25-2.28l1.77,0.37c0.1,0.02,0.38,0.08,0.38,0.27c0,0.24-0.4,0.42-0.54,0.49
				c-0.03,0.49-0.18,2.67-0.21,3.11h2.31l0.78-0.63c0.08-0.07,0.21-0.17,0.3-0.17c0.1,0,0.2,0.1,0.3,0.2l0.69,0.68
				c0.1,0.1,0.18,0.2,0.18,0.32c0,0.14-0.08,0.19-0.86,0.61c-0.33,2.18-0.56,6-0.56,6.68c0,0.85,0.36,0.94,1.22,0.94
				c2.01,0,2.03-0.07,2.61-3.09h0.12c0.02,0.22,0.18,2.23,0.46,2.58c0.05,0.05,0.23,0.24,0.26,0.29c0.05,0.05,0.1,0.14,0.1,0.24
				C391.81,250.38,391.51,250.74,391.25,250.89z"/>
			<path d="M398.98,237.67c0.36,0.1,0.4,0.19,0.4,0.31c0,0.22-0.33,0.37-0.48,0.46c0,2.55,0,4.45-0.07,5.98
				c-0.07,1.38-0.26,5.85-3.84,7.77l-0.08-0.1c2.33-2.4,2.89-4.73,2.89-10.45c0-3.08-0.13-3.5-0.49-4.4L398.98,237.67z
				 M396.38,241.32c0.17,0.51,0.38,1.14,0.38,2.11c0,1.89-0.94,2.02-1.22,2.02c-0.25,0-0.63-0.15-0.63-0.65
				c0-0.25,0.12-0.42,0.46-0.9c0.1-0.15,0.74-1.04,0.87-2.55L396.38,241.32z M399.41,241.38c0.45,0.22,2.04,1.07,2.04,2.24
				c0,0.54-0.35,0.78-0.66,0.78c-0.51,0-0.61-0.44-0.74-0.92c-0.3-1.16-0.3-1.17-0.71-2.02L399.41,241.38z M403.45,237.72
				c0.36,0.08,0.38,0.15,0.38,0.26c0,0.15-0.05,0.19-0.53,0.46v7.1c0,0.68,0.1,3.72,0.1,4.33c0,0.8-0.68,0.87-0.81,0.87
				c-0.18,0-0.5-0.08-0.5-0.51c0-0.14,0.05-0.75,0.05-0.88c0.07-1.09,0.07-2.28,0.07-3.89c0-3.77,0.02-6.17-0.1-7.14
				c-0.05-0.48-0.15-0.73-0.25-0.99L403.45,237.72z M404.09,241.8c0.81,0.34,2.24,1.29,2.24,2.38c0,0.44-0.33,0.7-0.68,0.7
				c-0.54,0-0.63-0.41-0.88-1.33c-0.21-0.85-0.54-1.33-0.79-1.67L404.09,241.8z M408.25,237.58c0.18,0.03,0.35,0.12,0.35,0.31
				c0,0.2-0.25,0.32-0.51,0.46c0,3.26,0.02,5.85,0.03,7.22c0,0.92,0.12,5.35,0.12,5.81c0,1-0.74,1-0.82,1
				c-0.07,0-0.51-0.02-0.51-0.61c0-0.24,0.03-1.31,0.05-1.53c0.02-0.65,0.03-1.33,0.03-2.6c0-5.35,0.02-7.14-0.05-8.36
				c-0.05-1.14-0.15-1.48-0.41-2.07L408.25,237.58z"/>
			<path d="M427,239.15h-6.52l0.58,0.51c0.12,0.1,0.2,0.2,0.2,0.31c0,0.19-0.28,0.27-0.69,0.29c-0.23,0.37-0.54,0.92-1.21,1.9
				l0.94,0.31c0.13,0.05,0.26,0.1,0.26,0.27s-0.17,0.36-0.56,0.58c-0.02,0.92-0.03,1.36-0.03,3.06c0,2.24,0.02,3.43,0.05,4.27
				c0,0.19,0.05,1.12,0.05,1.33c0,0.6-0.59,0.82-0.86,0.82c-0.49,0-0.51-0.36-0.51-0.59c0-0.05,0-0.1,0.02-0.46
				c0.08-1.68,0.13-4.28,0.13-6.12c0-1.34-0.02-1.77-0.05-2.63c-1.01,1.39-3.4,4.62-6.65,6.25l-0.07-0.1
				c1.53-1.38,4.09-4.35,5.82-6.97c0.64-0.95,1.25-1.89,1.55-3.01h-4.67c-0.45,0-1.22,0.02-1.95,0.15l-0.33-0.68
				c0.84,0.07,1.7,0.12,2.54,0.12h9.57l0.74-0.9c0.1-0.12,0.18-0.2,0.28-0.2c0.1,0,0.23,0.08,0.38,0.2l1.07,0.87
				c0.07,0.05,0.17,0.15,0.17,0.25C427.27,239.11,427.13,239.15,427,239.15z M426.29,247.99c-0.54,0-0.72-0.32-1.38-1.46
				c-0.46-0.8-1.88-2.86-3.46-3.74l0.03-0.1c2.51,0.54,5.46,2.96,5.46,4.52C426.94,247.78,426.57,247.99,426.29,247.99z"/>
			<path d="M439.02,240.95h-3.89v1.41h1.52l0.4-0.49c0.08-0.1,0.15-0.17,0.23-0.17c0.07,0,0.17,0.03,0.28,0.15l0.61,0.56
				c0.08,0.07,0.15,0.17,0.15,0.29c0,0.12-0.08,0.24-0.41,0.46c-0.03,0.49,0.02,2.65,0.02,3.08c0,0.2,0,0.9-0.78,0.9
				c-0.21,0-0.31-0.17-0.3-0.44h-1.72v1.53h1.24l0.45-0.56c0.1-0.12,0.18-0.2,0.28-0.2c0.08,0,0.18,0.07,0.33,0.19l0.66,0.54
				c0.1,0.08,0.17,0.17,0.17,0.27s-0.08,0.17-0.26,0.17h-2.85v1.56c1.29-0.22,2.23-0.37,3.15-0.6v0.14
				c-1.75,0.85-5.44,1.9-6.76,2.19c-0.1,0.25-0.2,0.41-0.36,0.41c-0.12,0-0.2-0.07-0.26-0.2l-0.76-1.48
				c0.21,0.03,0.35,0.05,0.64,0.05c0.73,0,2.06-0.17,3.33-0.36v-1.72h-1.27c-0.15,0-1.17,0-1.95,0.15l-0.31-0.68
				c1.12,0.1,2.29,0.12,2.52,0.12h1.01v-1.53h-1.7c0.02,0.22,0.02,0.41-0.13,0.56c-0.13,0.14-0.43,0.31-0.64,0.31
				c-0.18,0-0.31-0.08-0.31-0.48c0-0.66,0.05-3.54,0.05-4.11c0-0.05-0.03-0.99-0.13-1.38l1.35,0.76h1.52v-1.41h-1.62
				c-0.41,0-1.2,0.02-1.93,0.15l-0.33-0.68c1.04,0.08,2.08,0.12,2.54,0.12h1.34v-1.33c-0.82,0.12-1.85,0.22-2.72,0.22
				c-0.36,0-0.53,0-0.78-0.02v-0.12c1.85-0.41,4.72-1.1,6.14-2.06l1.02,0.93c0.08,0.08,0.13,0.15,0.13,0.26
				c0,0.15-0.15,0.2-0.39,0.2c-0.1,0-0.23-0.03-0.35-0.07c-0.51,0.15-0.91,0.27-2.03,0.48v1.5h1.98l0.56-0.73
				c0.12-0.14,0.18-0.2,0.28-0.2c0.1,0,0.2,0.07,0.31,0.17l0.84,0.73c0.08,0.07,0.16,0.17,0.16,0.25
				C439.27,240.9,439.17,240.95,439.02,240.95z M434.11,242.77h-1.71v1.51h1.71V242.77z M434.11,244.69h-1.71v1.6h1.71V244.69z
				 M436.86,242.77h-1.73v1.51h1.73V242.77z M436.86,244.69h-1.73v1.6h1.73V244.69z M444.48,242.48c0.02,5.69-0.3,7.09-0.66,8.11
				c-0.35,0.99-0.97,1.78-2.41,2.01c-0.15-0.93-0.97-1.48-1.78-1.9l0.05-0.12c0.97,0.24,1.9,0.25,2.01,0.25c0.4,0,0.79,0,1.14-0.95
				c0.23-0.66,0.59-4.16,0.59-6c0-0.53-0.02-1.27-0.1-1.79h-1.7c0,2.75-0.26,8.47-5.03,10.62l-0.08-0.1
				c3.76-2.96,3.89-7.46,3.96-10.52c-0.54,0.02-1.21,0.02-1.9,0.15l-0.33-0.68c0.64,0.05,1.09,0.08,2.23,0.12
				c0.05-2.48-0.07-3.65-0.31-4.64l1.72,0.59c0.18,0.07,0.28,0.15,0.28,0.27c0,0.1-0.05,0.17-0.12,0.24
				c-0.05,0.05-0.28,0.22-0.41,0.31v3.23h1.42l0.56-0.58c0.13-0.14,0.21-0.19,0.3-0.19c0.1,0,0.17,0.03,0.33,0.17l0.64,0.53
				c0.1,0.09,0.16,0.17,0.16,0.29C445.04,242.07,444.79,242.28,444.48,242.48z"/>
			<path d="M462.41,243.26h-11.23c0.15,5.24-0.53,7.45-2.79,9.32l-0.08-0.07c1.43-2.09,1.73-4.59,1.75-6.7
				c0-1.05-0.08-2.69-0.36-3.72l1.63,0.77h5.31c0.43-0.97,1.09-2.46,1.25-3.31h-6.66c-0.43,0-1.2,0.02-1.95,0.15l-0.31-0.68
				c1.04,0.08,2.06,0.12,2.52,0.12h3.46c-0.05-1.16-0.18-1.72-0.26-2.04l1.71,0.43c0.12,0.03,0.23,0.07,0.23,0.24
				s-0.4,0.39-0.58,0.49v0.88h3.48l0.71-0.82c0.13-0.15,0.18-0.22,0.26-0.22c0.07,0,0.13,0.03,0.3,0.17l1.06,0.83
				c0.08,0.07,0.16,0.15,0.16,0.25c0,0.17-0.13,0.19-0.25,0.19h-3.33l1.01,0.58c0.1,0.05,0.13,0.12,0.13,0.19
				c0,0.24-0.25,0.29-0.68,0.39c-0.74,0.92-1.07,1.27-1.93,2.16h3.22l0.61-0.77c0.1-0.14,0.17-0.2,0.25-0.2
				c0.07,0,0.16,0.05,0.33,0.17l1.09,0.76c0.12,0.08,0.18,0.15,0.18,0.25C462.65,243.23,462.52,243.26,462.41,243.26z
				 M462.54,251.85h-9.45c-0.17,0-1.17,0-1.95,0.15l-0.31-0.68c1.14,0.1,2.39,0.12,2.52,0.12h2.31v-2.43h-1.09
				c-0.41,0-1.21,0.02-1.93,0.15l-0.33-0.68c1.12,0.1,2.33,0.12,2.54,0.12h0.81v-2.09h-2.24c-0.64,1.05-1.07,1.75-2.14,2.7
				l-0.08-0.05c0.81-1.56,1.9-3.93,2.13-5.42l1.45,0.65c0.15,0.07,0.17,0.14,0.17,0.19c0,0.15-0.07,0.19-0.58,0.44
				c-0.13,0.17-0.46,0.71-0.68,1.09h1.98c-0.03-1.63-0.03-1.8-0.18-2.58l1.6,0.31c0.08,0.02,0.21,0.05,0.21,0.2
				s-0.26,0.32-0.53,0.49c0,0.24-0.02,1.34-0.02,1.58h2.42l0.58-0.82c0.1-0.14,0.18-0.22,0.26-0.22c0.08,0,0.15,0.07,0.3,0.19
				l0.96,0.82c0.13,0.1,0.16,0.19,0.16,0.26c0,0.15-0.15,0.19-0.26,0.19h-4.42v2.09h1.96l0.49-0.63c0.13-0.15,0.17-0.2,0.26-0.2
				c0.07,0,0.13,0.05,0.3,0.17l0.91,0.65c0.13,0.1,0.16,0.17,0.16,0.24c0,0.17-0.15,0.19-0.25,0.19h-3.84v2.43h3.56l0.74-0.71
				c0.1-0.08,0.21-0.19,0.28-0.19c0.05,0,0.13,0.05,0.3,0.17l0.99,0.7c0.08,0.07,0.17,0.15,0.17,0.26
				C462.79,251.81,462.65,251.85,462.54,251.85z M453.3,242.6c-0.4,0-0.43-0.12-0.79-1.1c-0.28-0.75-0.58-1.24-0.96-1.63l0.03-0.08
				c0.68,0.24,2.39,0.85,2.39,2.02C453.98,242.21,453.71,242.6,453.3,242.6z"/>
			<path d="M471.92,239.52c-1.6,2.52-2.85,4.4-6,6.29l-0.08-0.12c2.66-2.63,5-6.12,4.87-7.85l1.68,1.04c0.08,0.05,0.2,0.15,0.2,0.29
				C472.58,239.34,472.43,239.42,471.92,239.52z M478.73,251.85c-0.4,0-0.68-0.27-0.88-0.75c-0.58-1.34-0.64-1.5-0.69-1.61
				c-2.42,0.88-7.55,1.94-8.23,2.07c-0.28,0.37-0.36,0.46-0.51,0.46s-0.23-0.17-0.26-0.27l-0.54-1.77c0.35,0.07,0.81,0.15,1.35,0.15
				c0.13,0,1.09-0.08,1.29-0.1c0.86-1.82,1.93-4.64,2.21-6.14c0.07-0.31,0.07-0.68,0.05-0.99l1.71,0.75
				c0.1,0.05,0.25,0.14,0.25,0.29c0,0.2-0.2,0.29-0.56,0.41c-0.18,0.31-0.31,0.54-1.52,2.72c-0.5,0.87-1.04,1.79-1.77,2.91
				c1.9-0.2,4.24-0.49,6.35-0.78c-0.86-1.24-1.32-1.72-1.95-2.23l0.05-0.12c1.93,0.73,4.37,2.43,4.37,4.1
				C479.46,251.69,478.93,251.85,478.73,251.85z M479.79,245.27c-0.53-0.29-1.88-1.05-3.1-2.79c-1.2-1.7-1.4-2.86-1.62-4.06
				c-0.41,0.02-1.37,0.02-2.16,0.19l-0.35-0.68c0.43,0.03,1.27,0.08,2.13,0.08l0.48-0.58c0.12-0.14,0.18-0.22,0.26-0.22
				c0.08,0,0.18,0.07,0.35,0.19l0.73,0.54c0.07,0.05,0.16,0.14,0.16,0.25c0,0.15-0.12,0.22-0.38,0.34
				c-0.38,0.15-0.53,0.22-0.76,0.31c0.58,2.23,2.75,4.42,5.89,4.86v0.12C480.96,244.01,480.25,244.28,479.79,245.27z"/>
			<path d="M498.22,251.46H485.9c-0.13,0-1.19,0-1.95,0.15l-0.33-0.66c1.3,0.1,2.51,0.1,2.54,0.1h0.56v-4.49
				c0-0.92,0-2.97-0.12-3.77c-0.03-0.27-0.1-0.44-0.16-0.6l1.7,0.53c0.13,0.03,0.23,0.1,0.23,0.26c0,0.14-0.13,0.27-0.5,0.49
				c0,1.07,0.02,6.39,0.02,7.58h2.92v-12.24h-4.01c-0.31,0-1.19,0-1.95,0.15l-0.33-0.68c0.81,0.07,1.73,0.12,2.54,0.12h8.21
				l0.71-0.9c0.12-0.14,0.18-0.2,0.26-0.2c0.08,0,0.18,0.07,0.31,0.17l1.04,0.9c0.08,0.08,0.17,0.15,0.17,0.26
				c0,0.15-0.15,0.19-0.25,0.19h-5.51v5.49h2.08l0.66-0.83c0.12-0.15,0.2-0.2,0.28-0.2c0.1,0,0.2,0.07,0.31,0.17l0.89,0.83
				c0.07,0.07,0.15,0.17,0.15,0.27c0,0.12-0.1,0.17-0.25,0.17h-4.13v6.34h3.81l0.79-0.92c0.13-0.15,0.23-0.24,0.31-0.24
				s0.23,0.1,0.35,0.2l1.04,0.92c0.08,0.08,0.15,0.15,0.15,0.25C498.47,251.42,498.32,251.46,498.22,251.46z"/>
			<path d="M515.42,251.86c-1.65-0.87-2.74-2.19-3.45-3.4c-1.48,1.97-3.07,2.7-3.84,3.01c0.02,0.61,0.02,1.22-0.84,1.22
				c-0.51,0-0.51-0.32-0.51-0.65c0-0.27,0.08-1.67,0.1-1.99c0-0.32,0.02-2.04,0.02-2.43c-0.84,0.44-3.05,1.44-4.31,1.82
				c-0.13,0.42-0.23,0.56-0.39,0.56c-0.15,0-0.23-0.12-0.3-0.29l-0.63-1.67c0.48,0.08,0.54,0.1,0.74,0.1c0.36,0,1.1-0.12,1.3-0.15
				v-9.4c-0.96,0.05-1.24,0.1-1.52,0.15l-0.33-0.68c1.3,0.12,2.52,0.12,2.54,0.12h4.35l0.71-0.8c0.13-0.15,0.2-0.2,0.28-0.2
				c0.1,0,0.18,0.05,0.33,0.19l0.82,0.78c0.08,0.07,0.15,0.2,0.15,0.27c0,0.14-0.1,0.17-0.25,0.17h-2.36
				c-0.03,6.44-0.05,7.16,0.08,12.66c1.09-0.65,2.33-2.06,3.3-3.84c-1.02-2.31-1.52-4.83-1.55-7.36c-0.51,0.03-0.64,0.07-0.84,0.12
				l-0.33-0.68c1.29,0.1,2.51,0.1,2.52,0.1h2.28l0.46-0.54c0.15-0.17,0.2-0.22,0.28-0.22c0.1,0,0.18,0.05,0.35,0.19l0.76,0.59
				c0.13,0.1,0.23,0.24,0.23,0.31c0,0.12,0,0.19-0.15,0.29c-0.3,0.22-0.53,0.37-0.74,0.48c-0.64,3.93-1.8,6.31-2.14,6.87
				c0.79,1.09,2.06,2.31,4.32,3.06v0.08C516.25,250.89,515.82,251.23,515.42,251.86z M506.89,238.6h-2.44v2.72h2.44V238.6z
				 M506.89,241.73h-2.44v2.75h2.44V241.73z M506.89,244.89h-2.44v2.92c0.86-0.17,2.08-0.39,2.44-0.49V244.89z M510.97,240.02
				c-0.15,0-0.43,0.02-0.76,0.03c0.26,2.18,0.73,4.4,1.7,6.43c1.35-2.97,1.55-5.58,1.6-6.46H510.97z"/>
			<path d="M521.98,241.7h2.9v-3.11h-3.23c-0.15,0-1.17,0-1.95,0.15l-0.31-0.66c1.09,0.08,2.21,0.1,2.52,0.1h2.89l0.38-0.42
				c0.08-0.08,0.15-0.19,0.26-0.19c0.07,0,0.18,0.07,0.25,0.1l0.64,0.42c0.08,0.05,0.25,0.14,0.25,0.32c0,0.15-0.17,0.31-0.58,0.59
				c-0.02,0.51,0.07,2.77,0.07,3.21c0,0.17-0.03,0.34-0.15,0.48c-0.15,0.19-0.43,0.27-0.68,0.27c-0.36,0-0.46-0.17-0.38-0.87h-3.15
				c-0.07,0.39-0.45,2.74-0.46,2.82h3.36l0.46-0.53c0.07-0.08,0.15-0.19,0.28-0.19c0.1,0,0.18,0.07,0.26,0.12l0.68,0.51
				c0.07,0.05,0.18,0.15,0.18,0.31c0,0.2-0.23,0.36-0.5,0.49c-0.18,2.21-0.81,4.5-1.7,5.56c-0.73,0.85-1.83,1.07-2.61,1.1
				c-0.18-0.83-0.59-1.33-1.27-1.92v-0.1c0.71,0.17,1.47,0.36,2.23,0.36c0.35,0,0.74,0,1.14-0.77c0.41-0.82,0.89-2.07,1.04-4.54
				h-3.61c-0.03,0.43-0.08,0.95-0.2,1.26c-0.12,0.31-0.56,0.48-0.82,0.48c-0.25,0-0.45-0.14-0.45-0.39c0-0.15,0.46-2.13,0.53-2.48
				c0.28-1.56,0.33-2.46,0.3-3.25L521.98,241.7z M532.36,237.81c0.15,0.03,0.3,0.05,0.3,0.24c0,0.17-0.15,0.34-0.56,0.58
				c0,0.32-0.02,4.49,0.02,7.72c0,0.82,0.13,4.45,0.13,5.2c0,0.2,0,0.48-0.21,0.66c-0.21,0.17-0.54,0.27-0.74,0.27
				c-0.38,0-0.45-0.31-0.45-0.56c0-0.1,0.02-0.2,0.03-0.42c0.08-1.38,0.08-3.15,0.08-3.84c0-6.34-0.02-7.97-0.07-8.55
				c-0.05-0.59-0.13-1.02-0.3-1.7L532.36,237.81z"/>
			<path d="M541.64,241.49h-2.33c-0.03,3.72-0.03,4.54-0.03,5.58c0,0.75,0.05,4.06,0.05,4.74c0,0.31,0,0.83-0.81,0.83
				c-0.18,0-0.48-0.07-0.48-0.48c0-0.25,0.1-1.43,0.12-1.68c0.05-1.22,0.05-1.75,0.07-5c0.02-2.4,0.02-2.53,0.03-3.99
				c-0.59,0-1.29,0.05-1.88,0.15l-0.33-0.66c0.46,0.03,1.04,0.08,2.21,0.1c0-2.52-0.03-3.38-0.38-4.1l1.81,0.53
				c0.1,0.03,0.21,0.1,0.21,0.24c0,0.17-0.05,0.2-0.58,0.51c0,0.46-0.02,2.43-0.02,2.82h0.78l0.5-0.54c0.08-0.1,0.18-0.22,0.26-0.22
				c0.07,0,0.2,0.08,0.3,0.19l0.59,0.56c0.08,0.09,0.15,0.15,0.15,0.26C541.89,241.48,541.75,241.49,541.64,241.49z M545.45,246.71
				c-0.43,4.76-0.92,5.44-2.67,5.63c-0.17-0.95-0.21-1.14-0.88-1.68l0.05-0.14c0.76,0.27,1.19,0.29,1.32,0.29
				c0.43,0,0.53-0.1,0.79-1.43c0.12-0.56,0.33-1.67,0.36-3.14h-1.2c-0.31,2.04-1.16,4.71-3.56,5.93l-0.07-0.08
				c1.24-1.12,2.31-3.08,2.57-5.83c-0.53,0-1.14,0.05-1.65,0.15l-0.33-0.68c0.61,0.05,1.09,0.08,2.01,0.1
				c0.08-1.29-0.05-1.8-0.1-2.06l1.5,0.54c0.15,0.05,0.21,0.15,0.21,0.24c0,0.14-0.36,0.37-0.45,0.42
				c-0.03,0.32-0.03,0.46-0.08,0.85h0.99l0.4-0.42c0.12-0.12,0.16-0.17,0.23-0.17s0.15,0.08,0.21,0.15l0.68,0.61
				c0.07,0.07,0.13,0.14,0.13,0.24C545.93,246.36,545.88,246.39,545.45,246.71z M549.26,239.81c-0.73,3.43-1.86,3.55-2.85,3.67
				c-0.08-0.58-0.15-1.04-1.04-1.8l0.07-0.1c0.63,0.31,1.37,0.41,1.48,0.41c0.84,0,1.22-1.95,1.4-2.89h-2.42
				c-0.71,2.13-1.75,3.88-4.57,4.76l-0.02-0.1c1.65-1.14,3-2.63,3.48-4.66h-0.86c-0.41,0-1.21,0-1.95,0.15l-0.33-0.68
				c1.14,0.1,2.31,0.12,2.54,0.12h0.69c0.07-0.43,0.12-0.78,0.12-1.19c0-0.36-0.05-0.49-0.12-0.66l1.68,0.53
				c0.07,0.02,0.15,0.07,0.15,0.17c0,0.1-0.26,0.27-0.53,0.44c-0.1,0.41-0.13,0.53-0.18,0.71h2.13l0.26-0.34
				c0.08-0.1,0.2-0.15,0.28-0.15c0.1,0,0.15,0.03,0.23,0.1l0.88,0.75c0.07,0.05,0.13,0.12,0.13,0.22
				C549.92,239.45,549.51,239.68,549.26,239.81z M551.02,246.42c-0.15,0.08-0.23,0.15-0.35,0.24c-0.03,1.78-0.25,4.08-0.76,4.93
				c-0.1,0.17-0.53,0.87-1.98,1c-0.35-1.05-0.36-1.09-0.94-1.67l0.05-0.14c0.84,0.29,1.32,0.29,1.4,0.29c0.66,0,0.71-0.31,0.91-1.43
				c0.12-0.73,0.31-2.79,0.25-3.37h-1.22c-0.43,2.46-1.06,4.67-3.84,6.1l-0.05-0.08c0.94-0.92,2.39-2.57,2.87-5.97
				c-0.36,0.02-0.56,0.07-0.76,0.1l-0.33-0.68c0.56,0.05,0.81,0.07,1.15,0.08c0.02-0.17,0.05-0.6,0.05-1.24
				c0-0.82-0.07-1.04-0.13-1.27l1.57,0.58c0.13,0.05,0.21,0.17,0.21,0.25c0,0.19-0.43,0.41-0.51,0.46c-0.07,0.63-0.1,0.92-0.16,1.24
				c0.13,0.02,0.2,0.02,0.36,0.02h0.64l0.41-0.49c0.07-0.08,0.15-0.17,0.2-0.17c0.07,0,0.17,0.05,0.25,0.12l0.79,0.61
				c0.07,0.05,0.15,0.15,0.15,0.22C551.26,246.29,551.14,246.36,551.02,246.42z"/>
			<path d="M559.53,240.59h-2.94c-0.41,0-1.2,0-1.93,0.15l-0.33-0.68c1.12,0.1,2.29,0.12,2.52,0.12h1.11l0.41-0.61
				c0.03-0.05,0.15-0.2,0.26-0.2c0.1,0,0.21,0.1,0.3,0.17l0.69,0.61c0.07,0.07,0.15,0.14,0.15,0.25
				C559.78,240.56,559.65,240.59,559.53,240.59z M559.14,247.63c-0.02,0.14-0.03,0.24-0.03,0.36c0,0.49,0.1,2.67,0.1,3.11
				c0,0.36-0.28,0.68-0.71,0.68c-0.5,0-0.46-0.39-0.43-0.78h-1.96c0,0.24,0.03,0.87-0.03,1c-0.2,0.39-0.56,0.46-0.73,0.46
				c-0.13,0-0.43-0.03-0.43-0.41c0-0.05,0-0.15,0.02-0.32c0.07-0.56,0.1-2.87,0.1-3.99c0-0.85,0-1.04-0.07-1.55l1.27,0.73h1.75
				l0.28-0.44c0.03-0.05,0.15-0.19,0.21-0.19c0.08,0,0.2,0.08,0.3,0.15l0.66,0.49c0.07,0.05,0.13,0.12,0.13,0.2
				C559.56,247.33,559.45,247.38,559.14,247.63z M559.04,238.54h-2.29c-0.41,0-0.96,0.02-1.37,0.1l-0.21-0.59
				c0.87,0.07,1.67,0.08,1.7,0.08h0.66l0.41-0.49c0.08-0.1,0.17-0.2,0.25-0.2s0.15,0.05,0.31,0.17l0.63,0.49
				c0.08,0.07,0.17,0.15,0.17,0.25C559.28,238.5,559.15,238.54,559.04,238.54z M558.95,242.72h-2.21c-0.45,0-0.92,0.02-1.37,0.1
				l-0.21-0.59c0.73,0.05,1.47,0.08,1.8,0.08h0.63l0.35-0.49c0.03-0.05,0.15-0.22,0.26-0.22c0.1,0,0.25,0.14,0.3,0.19l0.56,0.49
				c0.08,0.07,0.15,0.15,0.15,0.25C559.2,242.7,559.05,242.72,558.95,242.72z M559.07,244.86h-2.28c-0.83,0-1.16,0.05-1.37,0.1
				l-0.23-0.6c0.88,0.07,1.7,0.08,1.78,0.08h0.58l0.43-0.56c0.05-0.07,0.13-0.2,0.25-0.2c0.1,0,0.23,0.1,0.31,0.17l0.61,0.56
				c0.1,0.08,0.17,0.15,0.17,0.25C559.32,244.81,559.22,244.86,559.07,244.86z M558.08,247.33h-2v3.26h2V247.33z M569.28,246.56
				h-3.71c0.08,0.63,0.17,1.22,0.43,1.95c0.17-0.2,0.79-0.93,1.07-1.63l1.02,0.8c0.08,0.07,0.15,0.08,0.15,0.2
				c0,0.24-0.25,0.24-0.61,0.22c-0.71,0.68-0.94,0.92-1.27,1.21c0.63,1.12,1.37,1.51,1.47,1.51s0.23-0.14,0.3-0.22
				c0.21-0.27,0.38-0.54,0.97-1.63h0.12c-0.18,1.02-0.3,1.7-0.3,2.18c0,0.12,0.02,0.24,0.15,0.43c0.12,0.15,0.2,0.25,0.2,0.39
				c0,0.19-0.16,0.39-0.58,0.39c-0.63,0-2.13-0.83-3.05-2.41c-0.84,0.68-1.86,1.14-2.75,1.43l-0.03-0.12
				c0.61-0.39,1.44-0.95,2.46-1.97c-0.16-0.41-0.38-0.95-0.63-2.72h-2.01v1.51c0.89-0.25,1.24-0.37,1.71-0.53l0.07,0.1
				c-0.31,0.22-0.69,0.49-1.78,1c0,0.46,0,2.18-0.02,2.43c-0.05,0.99-0.77,1.26-1.48,1.39c-0.28-0.78-0.31-0.85-1.19-1.43v-0.07
				c0.21,0.03,0.51,0.08,1.06,0.08c0.41,0,0.61-0.03,0.66-0.37c0.03-0.25,0.05-1.27,0.05-1.6c-0.21,0.1-1.12,0.51-1.3,0.61
				c-0.1,0.17-0.23,0.39-0.31,0.39c-0.13,0-0.17-0.12-0.2-0.22l-0.48-1.22c0.63,0.07,1.72-0.2,2.29-0.34c-0.02-0.19,0-1.17,0-1.75
				c-0.13,0-1.07-0.02-1.9,0.15l-0.31-0.68c0.79,0.07,1.3,0.08,2.21,0.1V245c-0.81,0.17-1.48,0.22-1.98,0.25l-0.03-0.12
				c2.38-0.87,2.79-1.16,3.22-1.58l0.79,0.7c0.07,0.07,0.1,0.12,0.1,0.19c0,0.2-0.26,0.17-0.43,0.14c-0.31,0.12-0.49,0.17-0.76,0.24
				l0.02,1.34h1.96c-0.05-0.42-0.21-2.29-0.3-2.67l1.32,0.29c0.21,0.05,0.23,0.1,0.23,0.19c0,0.12-0.13,0.22-0.38,0.39
				c-0.02,0.71-0.02,1.19,0.03,1.8h2.05l0.51-0.73c0.13-0.19,0.2-0.22,0.25-0.22c0.1,0,0.2,0.1,0.31,0.2l0.72,0.71
				c0.08,0.08,0.15,0.15,0.15,0.25C569.53,246.53,569.4,246.56,569.28,246.56z M568.92,243.19h-6.88c-0.38,0-1.2,0.02-1.93,0.15
				l-0.33-0.66c1.3,0.1,2.24,0.1,2.52,0.1h1.22v-1.33h-0.38c-0.45,0-1.22,0.02-1.95,0.15l-0.33-0.68c1.25,0.12,2.39,0.12,2.66,0.12
				v-1.31h-1.24c-0.38,0-1.21,0-1.93,0.15l-0.33-0.68c1.3,0.1,2.24,0.12,2.52,0.12h1.98c0.26-0.6,0.71-1.73,0.68-2.36l1.34,0.71
				c0.08,0.05,0.21,0.12,0.21,0.25c0,0.19-0.21,0.2-0.63,0.22c-0.2,0.22-0.33,0.36-1.27,1.17h2.06l0.48-0.58
				c0.1-0.12,0.15-0.2,0.25-0.2s0.2,0.08,0.31,0.19l0.69,0.56c0.05,0.03,0.16,0.14,0.16,0.25c0,0.17-0.16,0.19-0.25,0.19h-3.99v1.31
				h1.65l0.4-0.53c0.1-0.12,0.17-0.22,0.26-0.22c0.07,0,0.2,0.1,0.3,0.19l0.64,0.53c0.07,0.05,0.17,0.14,0.17,0.25
				c0,0.17-0.17,0.19-0.25,0.19h-3.17v1.33h2.61l0.54-0.63c0.13-0.15,0.15-0.22,0.26-0.22c0.1,0,0.18,0.07,0.31,0.19l0.69,0.65
				c0.08,0.07,0.17,0.14,0.17,0.25C569.16,243.19,569,243.19,568.92,243.19z M562.91,239.15c-0.36,0-0.46-0.22-0.64-0.7
				c-0.23-0.59-0.35-0.78-0.76-1.29l0.07-0.12c0.41,0.08,1.93,0.41,1.93,1.48C563.51,238.94,563.18,239.15,562.91,239.15z
				 M567.15,245.56c-0.35,0-0.45-0.24-0.53-0.48c-0.2-0.53-0.36-0.75-0.56-0.99l0.03-0.12c0.41,0.05,1.55,0.19,1.55,1.02
				C567.65,245.2,567.51,245.56,567.15,245.56z"/>
			<path d="M585.72,244.2c-2.85-1.31-4.95-3.84-6.02-6.12l-0.07,0.02c-1.8,3.23-5.71,6.05-7.55,6.82l-0.05-0.1
				c2.47-1.78,4.49-4.15,6.07-6.78c0.38-0.61,0.43-0.85,0.5-1.16l1.67,0.54c0.08,0.03,0.26,0.12,0.26,0.29
				c0,0.2-0.17,0.24-0.51,0.32c1.01,1.73,3.63,4.11,7.29,4.76v0.12C586.73,243.16,586.13,243.52,585.72,244.2z M585.85,246.58h-6.62
				c-0.89,1.72-2.56,3.69-2.72,3.89c2.03-0.14,4.58-0.39,6.45-0.63c-0.1-0.19-0.64-1.21-1.81-2.35l0.1-0.1
				c2.26,1.05,4.06,2.77,4.06,4.2c0,0.27-0.18,0.83-0.73,0.83s-0.76-0.46-0.97-1.05c-0.2-0.6-0.26-0.78-0.49-1.24
				c-1.34,0.42-7.41,1.75-8.35,1.9c-0.1,0.22-0.15,0.37-0.3,0.37c-0.13,0-0.21-0.17-0.26-0.31l-0.69-1.72
				c0.36,0.07,0.74,0.15,1.47,0.15c0.35,0,0.68-0.02,1.19-0.05c0.54-1.26,1.01-2.52,1.35-3.91h-2.33c-0.38,0-1.2,0.02-1.93,0.15
				l-0.33-0.66c1.3,0.1,2.24,0.1,2.52,0.1h7.92l0.84-0.93c0.12-0.14,0.2-0.2,0.28-0.2c0.08,0,0.18,0.08,0.3,0.17l1.14,0.94
				c0.07,0.05,0.17,0.15,0.17,0.25C586.1,246.58,585.93,246.58,585.85,246.58z M582.24,243.64H578c-0.41,0-1.21,0.02-1.95,0.15
				l-0.33-0.68c1.14,0.1,2.33,0.12,2.54,0.12h1.85l0.74-0.85c0.08-0.08,0.16-0.2,0.26-0.2c0.08,0,0.21,0.1,0.3,0.17l0.91,0.85
				c0.08,0.08,0.17,0.15,0.17,0.27C582.49,243.62,582.34,243.64,582.24,243.64z"/>
			<path d="M597.84,241.49c-0.05,0.05-0.33,0.24-0.43,0.32c-0.03,0.83-0.13,4.93-0.21,5.85c-0.3,3.52-0.94,4.62-2.92,4.79
				c-0.02-0.51-0.2-1.05-1.8-1.97l0.03-0.14c0.88,0.24,1.53,0.36,1.96,0.36c0.5,0,1.07,0,1.32-1.43c0.31-1.82,0.45-4.25,0.45-7.89
				h-2.28c-0.05,2.79-0.15,8.18-4.26,11.08l-0.1-0.08c1.25-1.31,1.95-3.04,2.44-4.83c0.36-1.29,0.68-2.96,0.74-6.17h-0.74
				c-0.28,0-1.19,0-1.95,0.15l-0.33-0.68c1.32,0.12,2.28,0.12,2.54,0.12h0.48c0.02-1.1,0.07-3.08-0.28-4.03l1.81,0.56
				c0.12,0.03,0.3,0.14,0.3,0.31c0,0.12-0.02,0.2-0.59,0.56c-0.02,0.25-0.02,0.37-0.02,0.56c-0.02,0.29-0.03,1.72-0.05,2.04h2.08
				l0.61-0.61c0.07-0.07,0.12-0.14,0.2-0.14c0.07,0,0.17,0.07,0.23,0.12l0.76,0.65c0.12,0.1,0.15,0.24,0.15,0.29
				C597.99,241.38,597.9,241.44,597.84,241.49z M604.39,240.95c-0.08,0.08-0.28,0.24-0.36,0.32c0,1.43,0,7.14,0.02,8.33
				c0,0.27,0.1,1.46,0.1,1.72c0,0.83-0.66,0.92-0.82,0.92c-0.43,0-0.48-0.25-0.48-0.59c0-0.2,0.02-0.44,0.05-0.75h-2.72
				c0.03,0.63,0.08,1.61-0.88,1.61c-0.46,0-0.46-0.37-0.46-0.53c0-0.1,0.03-0.49,0.03-0.56c0.08-2.02,0.13-6.46,0.13-8.55
				c0-1.34-0.02-2.55-0.21-3.59l1.58,0.94h2.33l0.54-0.49c0.05-0.05,0.1-0.1,0.16-0.1c0.08,0,0.18,0.09,0.26,0.17l0.73,0.66
				c0.05,0.05,0.15,0.17,0.15,0.27C604.54,240.81,604.45,240.88,604.39,240.95z M602.9,240.63h-2.74v9.86h2.74V240.63z"/>
			<path d="M618.34,247.33l0.43-0.43c0.08-0.07,0.21-0.17,0.26-0.17c0.07,0,0.1,0.03,0.26,0.17l0.69,0.6
				c0.1,0.08,0.17,0.2,0.17,0.27c0,0.15-0.05,0.19-0.5,0.48c-0.02,0.22-0.03,0.37-0.03,0.63c0,0.37,0.05,2.07,0.05,2.41h0.84
				l0.58-0.8c0.1-0.15,0.17-0.24,0.28-0.24c0.08,0,0.21,0.1,0.31,0.19l0.88,0.82c0.1,0.08,0.16,0.15,0.16,0.27
				c0,0.15-0.13,0.17-0.25,0.17h-12.39c-0.41,0-1.2,0.02-1.95,0.15l-0.33-0.66c0.33,0.02,1.07,0.08,2.26,0.1
				c0-3.37,0-3.79-0.18-4.74l1.48,0.78H618.34z M612.83,237.89l0.33-0.36c0.08-0.09,0.15-0.15,0.23-0.15c0.08,0,0.15,0.07,0.26,0.15
				l0.73,0.54c0.1,0.07,0.17,0.15,0.17,0.25c0,0.15-0.21,0.31-0.56,0.54c-0.03,0.36-0.03,0.78-0.03,1.12c0,0.44,0.08,3.43,0.12,3.76
				c0.02,0.14,0.03,0.25,0.03,0.31c0,0.44-0.43,0.7-0.89,0.7c-0.36,0-0.35-0.19-0.33-0.77h-2.44c0.05,0.83,0.1,1.67-0.81,1.67
				c-0.4,0-0.4-0.27-0.4-0.46c0-0.1,0.08-1.43,0.08-3.69c0-3.15,0-3.25-0.18-4.33l1.4,0.71H612.83z M610.44,238.3v2.41h2.44v-2.41
				H610.44z M610.44,241.12v2.46h2.44v-2.46H610.44z M611.23,247.73v3.55h1.68v-3.55H611.23z M616.54,243.11
				c-0.21,0.85-0.81,3.08-4.4,3.74l-0.03-0.12c2.75-1.19,3.63-2.96,3.63-6.56c0-1.07-0.02-2.16-0.31-3.2l1.53,0.82h3l0.35-0.39
				c0.1-0.1,0.15-0.17,0.21-0.17c0.03,0,0.07,0.02,0.26,0.15l0.79,0.56c0.08,0.07,0.15,0.12,0.15,0.22c0,0.25-0.43,0.51-0.54,0.56
				c-0.02,0.65-0.03,2.06,0,3.03c0.02,0.58,0.07,2.41,0.07,2.89c0,0.42,0,1.56-1.81,1.96c-0.16-0.66-0.46-1.14-1.38-1.6l0.02-0.12
				c0.25,0.03,0.56,0.05,1.07,0.05c0.71,0,0.79,0,0.89-0.15c0.07-0.12,0.08-0.26,0.08-0.92v-0.75H616.54z M614.01,247.73v3.55h1.68
				v-3.55H614.01z M620.1,242.7v-2.07h-3.28c-0.02,0.7-0.07,1.34-0.2,2.07H620.1z M618.53,251.29v-3.55h-1.73v3.55H618.53z
				 M620.1,240.22v-2.02h-3.28v2.02H620.1z"/>
			<path d="M632.52,239.61c0-1.56-0.15-2.02-0.36-2.57l1.81,0.36c0.13,0.03,0.26,0.08,0.26,0.25c0,0.12-0.05,0.15-0.54,0.56
				c0,0.07-0.02,0.97-0.02,1.39h4.22l0.71-0.82c0.08-0.1,0.16-0.22,0.25-0.22c0.13,0,0.2,0.08,0.31,0.19l0.96,0.82
				c0.08,0.08,0.16,0.14,0.16,0.27c0,0.15-0.15,0.17-0.25,0.17h-11.38c0,0.63,0.02,3.38,0.02,3.94c0,2.31-0.38,6.2-2.82,8.45
				l-0.1-0.1c1.48-2.92,1.78-4.98,1.78-8.92c0-2.14-0.07-3.47-0.33-4.61l1.58,0.83H632.52z M637.17,243.08l0.69-0.82
				c0.12-0.14,0.18-0.2,0.26-0.2c0.13,0,0.18,0.07,0.31,0.19l0.91,0.82c0.07,0.05,0.15,0.14,0.15,0.25c0,0.15-0.13,0.17-0.25,0.17
				h-4.87c0,0.51-0.02,2.89,0,3.23h2.69l0.5-0.61c0.1-0.12,0.16-0.2,0.25-0.2c0.08,0,0.18,0.08,0.3,0.17l0.68,0.51
				c0.15,0.12,0.23,0.19,0.23,0.27c0,0.12-0.07,0.15-0.58,0.56c0.02,1.05,0.02,2.62,0.07,3.62c0,0.12,0.05,0.68,0.05,0.8
				c0,0.46-0.36,0.78-0.76,0.78c-0.43,0-0.45-0.19-0.46-0.76h-6.02c0,0.48-0.02,0.93-0.81,0.93c-0.16,0-0.45-0.03-0.45-0.42
				c0-0.05,0.02-0.15,0.03-0.25c0.08-0.73,0.08-2.45,0.08-3.64c0-0.83,0-1.33-0.15-2.58l1.44,0.83h1.81
				c-0.02-0.58-0.03-3.16-0.05-3.69c-0.08-1.9-0.17-2.13-0.3-2.46l1.63,0.37c0.15,0.03,0.31,0.08,0.31,0.25s-0.28,0.36-0.49,0.49
				v1.39H637.17z M631.33,247.12v4.32h5.99v-4.32H631.33z"/>
		</g>
	</g>
	<g>
		<g>
			<g>
				<path class="st0" d="M165.55,151.06c-11.25,0-17.95-12.48-17.95-26.63c0-13.94,6.54-26.56,17.95-26.56
					c11.25,0,17.95,12.48,17.95,26.56C183.5,138.57,176.8,151.06,165.55,151.06z M165.55,99.8c-6.06,0-12.04,6.59-12.04,24.62
					c0,18.45,6.14,24.69,12.04,24.69c5.58,0,12.04-5.69,12.04-24.69C177.6,105.56,171.14,99.8,165.55,99.8z"/>
				<path class="st0" d="M195.78,149.74v-2.22h2.79c5.26,0,7.82-2.08,7.82-6.8v-31.21c0-4.51-1.83-6.52-7.9-6.52h-2.71v-1.87h1.28
					c4.87,0,10.69-1.87,12.2-2.64c0.56-0.28,1.2-0.62,1.67-0.62c0.4,0,0.56,0.35,0.56,0.69v42.17c0,3.95,1.83,6.8,7.02,6.8h3.59
					v2.22H195.78z"/>
				<path class="st0" d="M265.57,149.74H233.9v-1.87c4.63-8.6,10.85-14.36,18.03-20.74c5.02-4.44,10.85-9.99,10.85-17.62
					c0-3.61-1.44-9.57-10.53-9.57c-6.94,0-10.29,3.26-10.29,5.48c0,0.69,0.4,1.6,0.72,2.08c0.96,1.87,0.96,2.64,0.96,3.19
					c0,2.43-1.75,3.54-3.91,3.54c-2.79,0-3.67-1.73-3.67-3.88c0-6.31,6.78-12.48,17.31-12.48c9.49,0,15.55,4.99,15.55,12.83
					c0,4.65-1.91,7.42-5.9,11.37c-1.91,1.94-11.72,9.36-13.64,10.96c-1.04,0.9-6.94,6.1-10.69,12.07h15.95
					c9.41,0,11.88-5.96,13.32-9.36l1.52,0.35L265.57,149.74z"/>
				<path class="st0" d="M294.76,151.06c-11.25,0-17.95-12.48-17.95-26.63c0-13.94,6.54-26.56,17.95-26.56
					c11.25,0,17.95,12.48,17.95,26.56C312.7,138.57,306,151.06,294.76,151.06z M294.76,99.8c-6.06,0-12.04,6.59-12.04,24.62
					c0,18.45,6.14,24.69,12.04,24.69c5.58,0,12.04-5.69,12.04-24.69C306.8,105.56,300.34,99.8,294.76,99.8z"/>
				<path class="st0" d="M319.8,135.24v-3.81h16.83v3.81H319.8z"/>
				<path class="st0" d="M348.83,149.74v-2.22h2.79c5.26,0,7.82-2.08,7.82-6.8v-31.21c0-4.51-1.83-6.52-7.9-6.52h-2.71v-1.87h1.28
					c4.87,0,10.69-1.87,12.2-2.64c0.56-0.28,1.2-0.62,1.67-0.62c0.4,0,0.56,0.35,0.56,0.69v42.17c0,3.95,1.83,6.8,7.02,6.8h3.59
					v2.22H348.83z"/>
				<path class="st0" d="M399.8,151.06c-5.82,0-9.49-2.71-9.49-6.03c0-2.43,1.59-3.33,3.67-3.33c3.67,0,4.15,2.77,4.15,3.61
					c0,1.66,0.16,3.61,3.27,3.61c2.63,0,5.1-1.25,6.54-2.64c6.94-6.52,7.58-16.37,7.9-23.93c-3.75,4.65-7.18,9.02-14.44,9.02
					c-8.61,0-14.28-7-14.28-15.67c0-10.33,7.9-17.82,16.83-17.82c9.33,0,18.42,8.67,18.42,24.06
					C422.37,134.97,414.63,151.06,399.8,151.06z M412.16,104.8c-2.71-4.02-4.95-4.65-8.14-4.65c-8.69,0-10.77,9.71-10.77,15.6
					c0,3.74,0.8,12.48,9.49,12.48c8.21,0,11.88-8.18,13.08-10.96C415.11,111.32,414.31,108.06,412.16,104.8z"/>
				<path class="st0" d="M429.79,135.24v-3.81h16.83v3.81H429.79z"/>
				<path class="st0" d="M458.82,149.74v-2.22h2.79c5.26,0,7.82-2.08,7.82-6.8v-31.21c0-4.51-1.83-6.52-7.9-6.52h-2.71v-1.87h1.28
					c4.87,0,10.69-1.87,12.2-2.64c0.56-0.28,1.2-0.62,1.67-0.62c0.4,0,0.56,0.35,0.56,0.69v42.17c0,3.95,1.83,6.8,7.02,6.8h3.59
					v2.22H458.82z"/>
				<path class="st0" d="M514.09,151.06c-8.46,0-17.31-3.95-17.31-12.55c0-7,5.98-10.33,14.44-14.43
					c-4.47-1.94-12.28-5.41-12.28-13.18c0-7.28,7.42-13.04,16.27-13.04c7.98,0,14.52,4.58,14.52,11.03c0,6.66-6.3,10.4-10.05,12.69
					c4.87,2.36,13,6.17,13,14.63C532.67,144.33,525.49,151.06,514.09,151.06z M513.29,124.91c-4.39,2.64-10.61,6.38-10.61,13.38
					c0,6.66,5.26,10.61,12.04,10.61c6.46,0,13.24-3.81,13.24-11.03C527.97,131.36,521.9,128.52,513.29,124.91z M514.57,99.94
					c-4.79,0-11.01,2.91-11.01,9.08c0,3.4,1.75,5.27,4.63,7.14c2.39,1.6,5.74,3.19,9.25,4.44c2.23-1.46,7.74-5.06,7.74-10.96
					C525.17,105.14,521.58,99.94,514.57,99.94z"/>
				<path class="st0" d="M544.95,149.74v-2.22h2.79c5.26,0,7.82-2.08,7.82-6.8v-31.21c0-4.51-1.83-6.52-7.9-6.52h-2.71v-1.87h1.28
					c4.87,0,10.69-1.87,12.2-2.64c0.56-0.28,1.2-0.62,1.67-0.62c0.4,0,0.56,0.35,0.56,0.69v42.17c0,3.95,1.83,6.8,7.02,6.8h3.59
					v2.22H544.95z"/>
				<path class="st0" d="M595.92,151.06c-5.82,0-9.49-2.71-9.49-6.03c0-2.43,1.59-3.33,3.67-3.33c3.67,0,4.15,2.77,4.15,3.61
					c0,1.66,0.16,3.61,3.27,3.61c2.63,0,5.1-1.25,6.54-2.64c6.94-6.52,7.58-16.37,7.9-23.93c-3.75,4.65-7.18,9.02-14.44,9.02
					c-8.62,0-14.28-7-14.28-15.67c0-10.33,7.9-17.82,16.83-17.82c9.33,0,18.42,8.67,18.42,24.06
					C618.49,134.97,610.75,151.06,595.92,151.06z M608.28,104.8c-2.71-4.02-4.94-4.65-8.14-4.65c-8.69,0-10.77,9.71-10.77,15.6
					c0,3.74,0.8,12.48,9.49,12.48c8.21,0,11.88-8.18,13.08-10.96C611.23,111.32,610.43,108.06,608.28,104.8z"/>
			</g>
		</g>
		<g>
			<path class="st1" d="M76.66,120.4c3.31-15.08,18.21-24.63,33.3-21.33c15.08,3.31,24.63,18.21,21.33,33.3
				c-3.3,15.08-18.21,24.63-33.29,21.33C82.91,150.39,73.36,135.48,76.66,120.4z"/>
			<path class="st0" d="M98.68,119.17c1.97-1.17,3.58-2.25,4.13-2.57c0.55-0.33,0.53-1.17,0.06-1.96c-0.47-0.79-4.37-7.33-4.37-7.33
				c-0.61-1.02-1.28-2.07-2.23-1.5c-0.95,0.56-1.66,0.98-4.1,2.44c-2.45,1.45-5.69,9.64,2.81,23.9
				c8.5,14.27,17.24,15.32,19.69,13.86c2.44-1.46,3.15-1.88,4.1-2.44c0.95-0.57,0.35-1.65-0.26-2.68c0,0-3.9-6.54-4.37-7.33
				c-0.47-0.79-1.2-1.21-1.76-0.88c-0.55,0.33-2.25,1.24-4.22,2.41c-1.97,1.17-4.17-1.79-7.03-6.6
				C98.27,123.69,96.71,120.34,98.68,119.17z"/>
		</g>
	</g>
</g>
</svg>
