<?xml version="1.0" encoding="utf-8"?>
<!-- Generator: Adobe Illustrator 23.0.3, SVG Export Plug-In . SVG Version: 6.00 Build 0)  -->
<svg version="1.1" xmlns="http://www.w3.org/2000/svg" xmlns:xlink="http://www.w3.org/1999/xlink" x="0px" y="0px"
	 viewBox="0 0 700 278.25" style="enable-background:new 0 0 700 278.25;" xml:space="preserve">
<style type="text/css">
	.st0{fill:#980051;}
	.st1{fill:none;stroke:#980051;stroke-width:1.7614;stroke-miterlimit:10;}
</style>
<g id="レイヤー_1">
</g>
<g id="レイヤー_3">
</g>
<g id="レイヤー_4">
</g>
<g id="レイヤー_2">
	<g>
		<g>
			<path d="M182.12,67.87c-1.91-2.08-7.31-9.75-7.31-20.25c0-10.5,5.41-18.17,7.31-20.25l0.49,0.35c-1.55,2.44-1.64,2.57-2.21,3.77
				c-3.68,7.71-3.68,14.05-3.68,16.13c0,2.08,0,8.42,3.68,16.13c0.58,1.2,0.66,1.33,2.21,3.77L182.12,67.87z M185.84,34.1
				c0-1.11-0.09-2.79-0.35-5.05l2.92,0.75c0.49,0.13,1.24,0.35,1.24,0.71c0,0.53-0.67,0.84-1.24,1.33v6.03h0.75l0.93-1.46
				c0.13-0.22,0.4-0.62,0.62-0.62c0.22,0,0.62,0.44,0.71,0.58l0.97,1.42c0.09,0.13,0.22,0.53,0.22,0.71c0,0.31-0.18,0.35-0.36,0.35
				h-3.86v4.34c1.33,0.8,4.03,2.44,4.03,4.79c0,1.24-0.84,1.91-1.6,1.91c-1.42,0-1.64-1.99-1.68-3.06
				c-0.09-1.46-0.22-2.17-0.75-3.06v7.89c0,1.73,0.13,10.06,0.13,11.92c0,0.58,0,2.53-2.13,2.53c-1.24,0-1.24-1.37-1.24-1.86
				c0-0.84,0.4-5.01,0.44-5.94c0.13-2.17,0.22-4.3,0.22-7.58v-4.34c-0.8,1.99-2.39,6.12-6.42,10.19l-0.36-0.35
				c3.9-6.29,5.89-13.91,6.51-17.37c-1.82,0-2.75,0-4.39,0.27l-0.66-1.6c1.77,0.22,3.9,0.35,4.52,0.35h0.8V34.1z M214.33,59
				c-1.86,0.53-2.97,1.73-3.59,2.53c-4.08-4.21-6.03-8.6-7.67-13.38v5.18c0,1.55,0,3.19,0.04,4.79c0.04,0.8,0.31,4.74,0.31,5.63
				c0,1.68-1.11,2.39-2.17,2.39c-0.71,0-1.11-0.35-1.11-1.46c0-0.67,0.13-3.81,0.13-4.52c0.09-2.88,0.09-4.65,0.09-6.2v-4.21
				c-2.92,5.23-5.76,8.06-10.06,11.21l-0.27-0.44c3.41-3.46,7.13-9.35,9.04-13.6c-1.68,0-3.54,0-5.63,0.22l-0.71-1.55
				c1.33,0.13,4.92,0.31,5.76,0.31h1.86V39.2h-4.48c-1.15,2.04-2.35,3.86-4.03,5.54l-0.35-0.31c0.44-0.97,3.41-6.91,3.46-12.5
				l3.54,1.73c0.18,0.04,0.44,0.22,0.44,0.44c0,0.49-0.53,0.58-1.2,1.06c-0.44,1.15-0.93,2.22-1.33,3.01h3.94V34.5
				c0-0.53-0.09-3.01-0.58-5.36l3.81,0.84c0.31,0.09,0.62,0.22,0.62,0.44c0,0.31-0.53,0.84-1.15,1.64v6.12h3.32l1.29-1.77
				c0.18-0.22,0.4-0.53,0.62-0.53c0.22,0,0.62,0.35,0.71,0.49l1.77,1.77c0.22,0.22,0.49,0.53,0.49,0.71c0,0.27-0.18,0.35-0.35,0.35
				h-7.84v6.69h5.05l1.33-1.86c0.13-0.13,0.4-0.49,0.53-0.49c0.27,0,0.53,0.31,0.71,0.44l2.26,1.99c0.13,0.13,0.36,0.4,0.36,0.62
				c0,0.31-0.31,0.31-0.44,0.31h-9.62c4.16,9.53,10.68,11.48,11.12,11.56L214.33,59z M210.83,27.37c2.22,2.44,7.31,10.06,7.31,20.25
				c0,10.19-5.1,17.81-7.31,20.25l-0.49-0.35c1.55-2.44,1.64-2.57,2.21-3.77c3.68-7.71,3.68-14.05,3.68-16.13
				c0-2.08,0-8.42-3.68-16.13c-0.58-1.2-0.66-1.33-2.21-3.77L210.83,27.37z"/>
			<path d="M237.23,42.17c-0.22,0.27-0.44,0.53-0.8,1.24c-2.97,5.63-8.15,13.12-16.04,16l-0.18-0.35c9.84-9,12.63-17.15,12.63-18.57
				s-1.37-2.22-2.79-2.92c0.44-0.31,0.75-0.58,2.04-0.58c3.24,0,6.11,2.7,6.11,3.85C238.21,41.15,237.81,41.55,237.23,42.17z
				 M257.31,56.57c-0.4,0.62-1.02,0.93-1.64,0.93c-1.42,0-1.77-1.51-1.99-2.53c-1.42-6.56-4.87-12.5-9.7-17.19
				c8.15,3.63,13.87,10.99,13.87,16.53C257.84,54.71,257.8,55.81,257.31,56.57z"/>
			<path d="M293.64,42.87c-0.97,0.58-1.02,0.75-1.33,1.99c-1.59,6.29-3.9,10.59-8.51,14.62c-0.71,0.67-5.72,5.01-10.06,5.76
				l-0.13-0.31c5.63-3.46,10.19-8.42,12.94-14.45c1.29-2.84,2.7-7.58,2.7-8.29c0-0.62-0.4-0.67-0.89-0.67c-4.34,0-5.23,0-8.77,0.27
				c-1.2,0.09-7.58,0.8-7.62,0.8c-0.27,0-0.4-0.04-1.6-0.44c0,0.35,0.13,3.99,0.13,4.56s0.22,3.01,0.22,3.54
				c0,1.55-0.36,1.99-0.89,1.99c-0.8,0-2.17-1.06-2.44-1.64c-0.35-0.71-0.4-1.82-0.4-2.7c0-6.74-0.58-7.49-2.97-8.55
				c0.62-0.22,1.6-0.53,2.53-0.53c1.02,0,1.37,0.18,2.88,0.93c0.13,0.04,1.51,0.62,2.26,0.62c1.02,0,5.49-0.44,6.42-0.53
				c-0.04-1.64-0.13-4.12-0.4-4.83c-0.31-0.84-0.53-0.89-3.81-1.77c1.68-1.51,3.15-1.51,3.32-1.51c1.11,0,4.96,0.89,4.96,2.3
				c0,0.31-0.58,1.68-0.62,1.95c-0.04,0.31-0.27,2.75-0.27,3.63c1.15-0.13,4.79-0.44,5.94-0.44c1.24,0,1.46,0,2.17-0.49
				c1.2-0.84,1.33-0.93,1.51-0.93c0.44,0,3.86,3.5,3.86,3.99C294.79,42.17,294.48,42.34,293.64,42.87z"/>
			<path d="M331.13,63.04c-1.2,0-1.86-1.15-2.3-1.86c-3.41-5.67-5.45-8.51-9-11.3c-6.78,8.06-13.52,12.36-19.76,13.47v-0.35
				c10.59-4.92,21.54-19.76,23-26.06c-0.13,0.04-8.99,1.64-11.34,2.79c-1.29,0.66-1.46,0.71-1.82,0.71c-0.66,0-3.46-2.04-3.46-4.87
				c0-1.15,0.18-1.46,0.4-1.95c1.82,2.35,2.17,2.84,3.63,2.84c1.06,0,10.77-0.84,12.58-1.99c0.31-0.22,1.73-1.42,2.08-1.42
				c0.58,0,4.03,3.28,4.03,3.99c0,0.49-0.31,0.62-1.73,1.15c-0.4,0.18-0.58,0.49-1.24,1.68c-2.92,5.32-3.41,6.2-5.72,9.17
				c5.41,2.26,12.36,7.58,12.36,11.56C332.85,61.66,332.46,63.04,331.13,63.04z"/>
			<path d="M344.6,51.52c-2.17,0-3.9-1.73-3.9-3.9c0-2.17,1.77-3.9,3.9-3.9s3.9,1.73,3.9,3.9C348.49,49.79,346.77,51.52,344.6,51.52
				z"/>
			<path d="M360.64,45.71c-1.02,0-1.55-0.89-2.13-2.26c-1.37-3.19-2.35-4.61-4.52-6.96c4.16,1.06,8.55,3.01,8.55,7.05
				C362.54,44.6,361.83,45.71,360.64,45.71z M383.72,39.2c-0.53,0.44-0.62,0.75-1.86,3.41c-5.76,12.45-12.36,18.61-23.88,21.98
				l-0.18-0.35c14.8-6.87,21.45-23.84,21.45-26.37c0-1.2-2.08-2.57-2.75-2.97c0.49-0.27,0.8-0.44,2.13-0.44
				c1.77,0,2.35,0.44,4.79,2.35c0.58,0.44,0.93,0.71,0.93,1.33C384.34,38.62,384.16,38.8,383.72,39.2z M369.72,43.27
				c-0.93,0-1.29-0.62-1.55-1.37c-1.38-3.59-1.73-4.74-3.99-7.8c1.68,0.62,7.62,2.84,7.62,6.69
				C371.8,42.34,370.83,43.27,369.72,43.27z"/>
			<path d="M422.89,49.65c-0.71,0-1.82-0.04-2.7-0.13c-0.84-0.04-11.65-0.13-12.41-0.13c-2.57,0-9.35,0.13-11.39,0.71
				c-0.8,0.22-1.15,0.31-1.51,0.31c-1.64,0-4.12-3.5-4.12-5.27c0-0.58,0.18-1.33,0.71-2.48c1.55,3.1,2.61,3.63,7.89,3.63
				c2.57,0,17.95-0.04,19.45-0.58c0.66-0.22,1.2-0.44,1.77-0.44c0.09,0,5.27,0.4,5.27,2.75C425.86,48.77,425.02,49.65,422.89,49.65z
				"/>
			<path d="M439.73,36.14c-0.4,0.89-0.71,1.77-0.71,5.01c0,1.11,0.18,5.98,0.18,7c0,0.67,0,3.63-1.64,3.63
				c-0.84,0-2.44-1.37-2.44-3.77c0-0.4,0.22-1.95,0.31-2.79c0.13-1.42,0.18-4.43,0.18-6.69c0-3.24,0-4.12-3.72-5.01
				c0.71-0.44,1.77-1.06,2.79-1.06c1.24,0,5.41,1.42,5.41,2.66C440.08,35.34,440.04,35.52,439.73,36.14z M454.75,35.96
				c-0.22,1.73-0.09,4.52-0.13,6.25c-0.18,8.2-0.75,13.78-5.41,18.74c-1.55,1.64-4.61,4.34-8.46,4.79l-0.13-0.31
				c5.85-3.23,8.68-9.66,9.44-13.34c0.97-4.92,0.97-11.92,0.97-13.29c0-6.16-0.22-6.29-4.3-7.13c0.66-0.53,1.59-1.28,3.37-1.28
				c2.21,0,5.45,1.33,5.45,2.39C455.54,33.26,454.79,35.48,454.75,35.96z"/>
			<path d="M492.67,63.04c-1.2,0-1.86-1.15-2.3-1.86c-3.41-5.67-5.45-8.51-9-11.3c-6.78,8.06-13.52,12.36-19.76,13.47v-0.35
				c10.59-4.92,21.54-19.76,23-26.06c-0.13,0.04-8.99,1.64-11.34,2.79c-1.29,0.66-1.46,0.71-1.82,0.71c-0.66,0-3.46-2.04-3.46-4.87
				c0-1.15,0.18-1.46,0.4-1.95c1.82,2.35,2.17,2.84,3.63,2.84c1.06,0,10.77-0.84,12.58-1.99c0.31-0.22,1.73-1.42,2.08-1.42
				c0.58,0,4.03,3.28,4.03,3.99c0,0.49-0.31,0.62-1.73,1.15c-0.4,0.18-0.58,0.49-1.24,1.68c-2.92,5.32-3.41,6.2-5.72,9.17
				c5.41,2.26,12.36,7.58,12.36,11.56C494.4,61.66,494,63.04,492.67,63.04z"/>
			<path d="M520.68,52.93c-0.71,0-1.29-0.49-1.91-1.2c-4.61-5.1-5.85-6.38-9.04-7.53c-0.09,2.75,0.09,12.45,0.09,12.72
				c0,0.89,0.31,4.92,0.31,5.72c0,1.91-0.93,3.28-2.13,3.28c-1.29,0-2.39-1.91-2.39-4.34c0-0.49,0-0.67,0.31-2.7
				c0.53-3.63,0.58-9.13,0.58-11.79c0-2.26-0.09-12.54-0.53-14.18c-0.13-0.58-0.27-0.97-3.54-2.26c0.71-0.4,1.82-1.02,2.92-1.02
				c0.84,0,5.63,0.93,5.63,2.3c0,0.35-0.58,1.86-0.66,2.17c-0.53,2.17-0.58,6.65-0.58,9.04c5.05,0.62,12.76,3.46,12.76,7.62
				C522.49,52.36,521.48,52.93,520.68,52.93z"/>
		</g>
	</g>
	<g>
		<g>
			<path d="M99.1,176.7v-1.76h14.26v1.76H99.1z M107.2,181.25V191h-1.94v-9.75H99.1v-1.74h14.26v1.74H107.2z"/>
			<path d="M126.82,186.91c0,2.55-2,4.84-5.19,4.84c-2.51,0-4.75-1.45-4.75-3.96c0-2.38,1.89-3.5,3.92-4.69
				c-1.17-0.68-3.28-1.91-3.28-4.31c0-2.18,1.72-3.94,4.4-3.94c3.01,0,4.03,2.24,4.03,3.48c0,1.87-1.8,3.23-2.75,3.94
				C125.26,183.54,126.82,184.64,126.82,186.91z M118.73,187.72c0,1.94,1.45,3.28,3.17,3.28c1.91,0,3.34-1.69,3.34-3.32
				c0-2.09-2.18-3.32-3.78-4.22C120.46,184.2,118.73,185.54,118.73,187.72z M124.34,178.57c0-1.67-1.12-2.97-2.73-2.97
				c-1.56,0-2.6,1.19-2.6,2.62c0,1.54,1.25,2.31,3.54,3.67C123.19,181.34,124.34,180.4,124.34,178.57z"/>
			<path d="M130.96,190.63h1.21c1.14,0,1.54-0.44,1.54-1.34v-11.9c0-0.68-0.64-0.79-1.06-0.79h-1.67v-0.68h0.4
				c1.69,0,3.32-0.77,3.59-0.92c0.15-0.09,0.22-0.13,0.31-0.13c0.2,0,0.24,0.13,0.24,0.31v14.13c0,0.95,0.46,1.34,1.54,1.34h1.21
				v0.7h-7.31V190.63z"/>
			<path d="M151.09,191.33h-8.65v-0.59c0.44-1.39,1.47-2.93,3.23-4.93c3.23-3.74,4.33-4.99,4.33-7.19c0-1.65-1.06-3.01-2.93-3.01
				c-1.54,0-2.46,0.92-2.46,1.72c0,0.07,0,0.35,0.22,0.68c0.29,0.44,0.46,0.68,0.46,1.1c0,0.66-0.53,1.23-1.19,1.23
				c-0.77,0-1.25-0.73-1.25-1.54c0-1.61,1.56-3.94,4.73-3.94c2.73,0,4.4,1.72,4.4,4.09c0,2.22-1.28,3.43-3.26,5.13
				c-0.75,0.62-3.65,3.1-4.75,5.52h3.04c3.08,0,3.81-1.19,4.47-3.01l0.66,0.24L151.09,191.33z"/>
			<path d="M159.84,186.84h-4.73v-1.43h4.73V186.84z"/>
			<path d="M167.59,191.75c-1.52,0-2.79-1.06-3.61-2.38c-0.92-1.52-1.34-4.22-1.34-6.27c0-4.69,2-8.25,4.95-8.25
				c2.27,0,4.95,2.44,4.95,8.45C172.54,188.69,170.27,191.75,167.59,191.75z M165.12,178.52c-0.31,1.1-0.51,2.95-0.51,4.77
				c0,4.91,1.17,7.7,2.97,7.7c1.52,0,2.2-2.02,2.44-2.86c0.31-1.12,0.53-2.99,0.53-4.84c0-5.02-1.21-7.7-2.97-7.7
				C166.02,175.6,165.34,177.75,165.12,178.52z"/>
			<path d="M180.35,191.75c-1.52,0-2.79-1.06-3.61-2.38c-0.92-1.52-1.34-4.22-1.34-6.27c0-4.69,2-8.25,4.95-8.25
				c2.27,0,4.95,2.44,4.95,8.45C185.3,188.69,183.03,191.75,180.35,191.75z M177.88,178.52c-0.31,1.1-0.51,2.95-0.51,4.77
				c0,4.91,1.17,7.7,2.97,7.7c1.52,0,2.2-2.02,2.44-2.86c0.31-1.12,0.53-2.99,0.53-4.84c0-5.02-1.21-7.7-2.97-7.7
				C178.78,175.6,178.1,177.75,177.88,178.52z"/>
			<path d="M194.82,174.85h0.9v11.18h2.49v0.7h-2.49v2.55c0,0.97,0.48,1.34,1.54,1.34h0.35v0.7h-5.59v-0.7h0.35
				c1.03,0,1.54-0.35,1.54-1.34v-2.55H188v-0.77L194.82,174.85z M193.92,177.75l-5.08,8.27h5.08V177.75z"/>
			<path d="M209.58,191.33h-8.65v-0.59c0.44-1.39,1.47-2.93,3.23-4.93c3.23-3.74,4.33-4.99,4.33-7.19c0-1.65-1.06-3.01-2.93-3.01
				c-1.54,0-2.46,0.92-2.46,1.72c0,0.07,0,0.35,0.22,0.68c0.29,0.44,0.46,0.68,0.46,1.1c0,0.66-0.53,1.23-1.19,1.23
				c-0.77,0-1.25-0.73-1.25-1.54c0-1.61,1.56-3.94,4.73-3.94c2.73,0,4.4,1.72,4.4,4.09c0,2.22-1.28,3.43-3.26,5.13
				c-0.75,0.62-3.65,3.1-4.75,5.52h3.04c3.08,0,3.81-1.19,4.47-3.01l0.66,0.24L209.58,191.33z"/>
			<path d="M243.77,177.07l0.62-0.55c0.11-0.11,0.26-0.26,0.35-0.26c0.07,0,0.26,0.15,0.33,0.22l0.86,0.64
				c0.11,0.09,0.26,0.22,0.26,0.37c0,0.2-0.24,0.33-0.97,0.59c-0.44,0.66-1.19,1.87-2.49,3.34v0.15c1.58,0.29,3.23,1.1,3.23,2.31
				c0,0.55-0.51,0.84-0.84,0.84c-0.4,0-0.66-0.22-0.95-0.86c-0.37-0.79-0.64-1.34-1.45-2.02V187c0,0.33,0.09,4.71,0.09,4.86
				c0,0.73-0.24,1.12-1.12,1.12c-0.59,0-0.59-0.33-0.59-0.64c0-1.34,0.2-7.99,0.24-9.51c-1.91,1.72-3.45,2.46-4.29,2.86l-0.09-0.13
				c2.53-2.11,5.79-6.12,6.65-7.97h-2.6c-0.15,0-1.56,0-2.57,0.2l-0.44-0.88c0.92,0.09,2.27,0.15,3.23,0.15
				c0.04-2.35-0.22-3.48-0.48-4.27l2.22,0.62c0.11,0.02,0.35,0.11,0.35,0.31s-0.2,0.35-0.64,0.62c0,0.37-0.02,2.18,0,2.73H243.77z
				 M254.8,174.5l0.73-0.7c0.09-0.07,0.29-0.29,0.35-0.29c0.11,0,0.26,0.13,0.42,0.24l0.92,0.7c0.13,0.11,0.24,0.22,0.24,0.33
				c0,0.22-0.2,0.24-0.35,0.24h-8.25c-0.35,0-1.52,0-2.57,0.2l-0.44-0.88c1.61,0.13,2.99,0.15,3.39,0.15H254.8z M254.77,183.92
				l0.62-0.68c0.09-0.11,0.2-0.22,0.29-0.22c0.07,0,0.2,0.09,0.31,0.18l1.01,0.73c0.11,0.09,0.22,0.2,0.22,0.33s-0.2,0.33-0.66,0.68
				c-0.02,0.18-0.04,0.48-0.04,0.64c0,0.79,0.18,5.21,0.18,6.12c0,0.57-0.51,0.86-1.06,0.86c-0.59,0-0.59-0.26-0.55-1.03h-6.91
				c0.04,0.77-0.24,1.23-1.03,1.23c-0.55,0-0.55-0.33-0.55-0.53c0-0.77,0.09-4.14,0.09-4.82c0-1.25,0-3.5-0.24-4.64l2,1.17H254.77z
				 M253.59,177.2l0.53-0.53c0.11-0.11,0.22-0.24,0.31-0.24s0.18,0.09,0.26,0.15l0.9,0.73c0.11,0.09,0.22,0.22,0.22,0.35
				c0,0.15-0.2,0.31-0.62,0.53c0,0.51,0.11,2.68,0.11,3.12c0,0.53-0.37,0.95-1.03,0.95c-0.53,0-0.53-0.31-0.53-0.84h-4.75
				c0,0.35,0.02,1.01-0.92,1.01c-0.44,0-0.62-0.2-0.62-0.77c0-0.29,0.04-2.29,0.04-2.73c0-0.86-0.07-1.98-0.15-2.73l1.8,0.99H253.59
				z M248.15,184.44v2.9h2.71v-2.9H248.15z M248.15,187.88v3.1h2.71v-3.1H248.15z M248.97,177.73v3.17h4.8v-3.17H248.97z
				 M255.08,187.35v-2.9h-2.79v2.9H255.08z M255.08,190.98v-3.1h-2.79v3.1H255.08z"/>
			<path d="M279.57,175.77c-0.04,0.81,0.11,12.67,0.11,14.28c0,1.41,0,2.62-2.49,3.08c-0.31-1.21-1.1-1.63-2.22-2.22l0.02-0.15
				c0.44,0.04,1.78,0.18,2.18,0.18c0.55,0,0.73-0.09,0.79-0.35c0.09-0.33,0.09-6.82,0.09-7.7c0-0.7-0.02-7.26-0.02-7.9h-13.11
				c-0.02,0.79-0.02,9.37-0.02,10.91c0,0.95,0.09,5.13,0.09,5.96c0,0.64-0.31,1.21-1.19,1.21c-0.33,0-0.64-0.11-0.64-0.84
				c0-0.31,0.15-1.69,0.15-1.96c0.07-1.5,0.09-9.66,0.09-11.13c0-3.48-0.07-4.09-0.24-5.72l2.11,1.03h12.54l0.57-0.64
				c0.09-0.11,0.15-0.18,0.29-0.18c0.07,0,0.18,0.07,0.26,0.13l1.19,0.86c0.15,0.11,0.26,0.18,0.26,0.35
				C280.38,175.16,280.3,175.29,279.57,175.77z M277.19,180.88h-5.06v6.95h2.13c0.02-2.55,0.04-2.9-0.02-3.85
				c-0.02-0.55-0.09-0.77-0.33-1.45l1.94,0.33c0.2,0.04,0.46,0.11,0.46,0.37c0,0.22-0.09,0.29-0.55,0.55c0.02,0.35,0,2.02,0,2.42
				c0,0.35,0.07,2.05,0.07,2.42c0,0.97-0.86,0.97-1.01,0.97c-0.62,0-0.59-0.31-0.57-1.23h-5.68c0,0.15,0.02,0.86,0.02,1.01
				c0,1.03-0.84,1.06-0.97,1.06c-0.46,0-0.62-0.31-0.62-0.62c0-0.24,0.11-0.95,0.11-3.19c0-3.12-0.07-3.34-0.29-4.18l2.05,0.48
				c0.18,0.04,0.37,0.09,0.37,0.31s0,0.22-0.66,0.62v3.98h2.09v-6.95h-2.2c-0.51,0-1.61,0.02-2.57,0.2l-0.44-0.88
				c1.76,0.15,3.04,0.15,3.39,0.15h2.53c0.22-0.4,1.41-2.97,1.32-4.97l2.24,1.28c0.09,0.04,0.22,0.13,0.22,0.29
				c0,0.29-0.33,0.37-0.95,0.48c-0.59,0.66-1.61,1.94-2.38,2.93h2.93l0.75-0.86c0.13-0.13,0.24-0.26,0.33-0.26
				c0.13,0,0.26,0.11,0.42,0.22l1.04,0.86c0.09,0.07,0.22,0.18,0.22,0.33C277.52,180.86,277.3,180.88,277.19,180.88z M269.6,179.78
				c-0.55,0-0.71-0.46-1.01-1.39c-0.44-1.32-0.68-1.74-1.21-2.38l0.11-0.13c0.29,0.11,3.04,1.25,3.04,2.9
				C270.53,179.51,269.93,179.78,269.6,179.78z"/>
			<path d="M290.96,188.65c-0.81,0.77-2.88,2.71-6.03,3.48l-0.04-0.13c1.38-0.86,3.06-2.51,3.78-3.3c1.04-1.14,1.14-1.5,1.23-1.98
				l1.74,1.14c0.18,0.11,0.29,0.22,0.29,0.37C291.93,188.49,291.49,188.62,290.96,188.65z M304.65,186.31h-9
				c0,0.42,0,1.43,0.02,2.75c0.02,0.88,0.11,2.27,0.11,3.15c0,1.1-1.1,1.1-1.21,1.1c-0.4,0-0.64-0.15-0.64-0.68
				c0-0.55,0.13-2.99,0.13-3.5c0.04-1.56,0.02-2.4,0.02-2.82h-5.92c0.02,1.01-1.12,1.01-1.21,1.01c-0.48,0-0.55-0.33-0.55-0.62
				s0.13-2.05,0.15-2.44c0.04-1.61,0.07-3.04,0.07-4.75c0-4.29-0.09-4.73-0.24-5.46l2.07,0.64c0.22,0.07,0.44,0.13,0.44,0.33
				c0,0.2-0.29,0.42-0.68,0.68c-0.07,1.41-0.09,2.86-0.09,4.27c0,0.64,0.04,5.02,0.04,5.81h13.42l1.08-1.17
				c0.13-0.15,0.22-0.26,0.38-0.26c0.13,0,0.29,0.15,0.37,0.22l1.37,1.17c0.13,0.11,0.22,0.22,0.22,0.35
				C305,186.29,304.8,186.31,304.65,186.31z M300.62,175.22c-0.02,0.9-0.09,2.71,0.11,7.33c0,0.07,0.02,0.57,0.02,0.62
				c0,1.01-0.95,1.01-1.08,1.01c-0.64,0-0.62-0.42-0.62-1.01h-6.58c0,0.33,0.02,1.08-1.1,1.08c-0.57,0-0.59-0.29-0.59-0.53
				c0-0.09,0.02-0.37,0.02-0.46c0.02-0.51,0.15-4.42,0.15-6.71c0-1.67-0.09-2.4-0.33-3.59l2.18,1.03h6.12l0.64-0.62
				c0.15-0.15,0.22-0.24,0.37-0.24c0.11,0,0.26,0.13,0.33,0.2l0.9,0.75c0.15,0.13,0.24,0.26,0.24,0.4
				C301.41,174.7,300.91,175.03,300.62,175.22z M299.08,174.52h-6.62v2.35h6.62V174.52z M299.08,177.4h-6.62v2.29h6.62V177.4z
				 M299.08,180.22h-6.62v2.42h6.62V180.22z M302.34,192.08c-0.57,0-0.81-0.4-1.41-1.34c-0.66-1.1-2.02-2.6-3.23-3.17l0.07-0.15
				c3.06,0.51,5.52,2.33,5.52,3.74C303.29,191.84,302.71,192.08,302.34,192.08z"/>
			<path d="M314.66,177.07l0.62-0.55c0.11-0.11,0.26-0.26,0.35-0.26c0.07,0,0.26,0.15,0.33,0.22l0.86,0.64
				c0.11,0.09,0.26,0.22,0.26,0.37c0,0.2-0.24,0.33-0.97,0.59c-0.44,0.66-1.19,1.87-2.49,3.34v0.15c1.58,0.29,3.23,1.1,3.23,2.31
				c0,0.55-0.51,0.84-0.84,0.84c-0.4,0-0.66-0.22-0.95-0.86c-0.37-0.79-0.64-1.34-1.45-2.02V187c0,0.33,0.09,4.71,0.09,4.86
				c0,0.73-0.24,1.12-1.12,1.12c-0.59,0-0.59-0.33-0.59-0.64c0-1.34,0.2-7.99,0.24-9.51c-1.91,1.72-3.45,2.46-4.29,2.86l-0.09-0.13
				c2.53-2.11,5.79-6.12,6.65-7.97h-2.6c-0.15,0-1.56,0-2.57,0.2l-0.44-0.88c0.92,0.09,2.27,0.15,3.23,0.15
				c0.04-2.35-0.22-3.48-0.48-4.27l2.22,0.62c0.11,0.02,0.35,0.11,0.35,0.31s-0.2,0.35-0.64,0.62c0,0.37-0.02,2.18,0,2.73H314.66z
				 M325.68,174.5l0.73-0.7c0.09-0.07,0.29-0.29,0.35-0.29c0.11,0,0.26,0.13,0.42,0.24l0.92,0.7c0.13,0.11,0.24,0.22,0.24,0.33
				c0,0.22-0.2,0.24-0.35,0.24h-8.25c-0.35,0-1.52,0-2.57,0.2l-0.44-0.88c1.61,0.13,2.99,0.15,3.39,0.15H325.68z M325.66,183.92
				l0.62-0.68c0.09-0.11,0.2-0.22,0.29-0.22c0.07,0,0.2,0.09,0.31,0.18l1.01,0.73c0.11,0.09,0.22,0.2,0.22,0.33s-0.2,0.33-0.66,0.68
				c-0.02,0.18-0.04,0.48-0.04,0.64c0,0.79,0.18,5.21,0.18,6.12c0,0.57-0.51,0.86-1.06,0.86c-0.59,0-0.59-0.26-0.55-1.03h-6.91
				c0.04,0.77-0.24,1.23-1.03,1.23c-0.55,0-0.55-0.33-0.55-0.53c0-0.77,0.09-4.14,0.09-4.82c0-1.25,0-3.5-0.24-4.64l2,1.17H325.66z
				 M324.47,177.2l0.53-0.53c0.11-0.11,0.22-0.24,0.31-0.24s0.18,0.09,0.26,0.15l0.9,0.73c0.11,0.09,0.22,0.22,0.22,0.35
				c0,0.15-0.2,0.31-0.62,0.53c0,0.51,0.11,2.68,0.11,3.12c0,0.53-0.37,0.95-1.03,0.95c-0.53,0-0.53-0.31-0.53-0.84h-4.75
				c0,0.35,0.02,1.01-0.92,1.01c-0.44,0-0.62-0.2-0.62-0.77c0-0.29,0.04-2.29,0.04-2.73c0-0.86-0.07-1.98-0.15-2.73l1.8,0.99H324.47
				z M319.04,184.44v2.9h2.71v-2.9H319.04z M319.04,187.88v3.1h2.71v-3.1H319.04z M319.85,177.73v3.17h4.8v-3.17H319.85z
				 M325.97,187.35v-2.9h-2.79v2.9H325.97z M325.97,190.98v-3.1h-2.79v3.1H325.97z"/>
			<path d="M350.45,175.77c-0.04,0.81,0.11,12.67,0.11,14.28c0,1.41,0,2.62-2.49,3.08c-0.31-1.21-1.1-1.63-2.22-2.22l0.02-0.15
				c0.44,0.04,1.78,0.18,2.18,0.18c0.55,0,0.73-0.09,0.79-0.35c0.09-0.33,0.09-6.82,0.09-7.7c0-0.7-0.02-7.26-0.02-7.9H335.8
				c-0.02,0.79-0.02,9.37-0.02,10.91c0,0.95,0.09,5.13,0.09,5.96c0,0.64-0.31,1.21-1.19,1.21c-0.33,0-0.64-0.11-0.64-0.84
				c0-0.31,0.15-1.69,0.15-1.96c0.07-1.5,0.09-9.66,0.09-11.13c0-3.48-0.07-4.09-0.24-5.72l2.11,1.03h12.54l0.57-0.64
				c0.09-0.11,0.15-0.18,0.29-0.18c0.07,0,0.18,0.07,0.26,0.13l1.19,0.86c0.15,0.11,0.26,0.18,0.26,0.35
				C351.27,175.16,351.18,175.29,350.45,175.77z M348.08,180.88h-5.06v6.95h2.13c0.02-2.55,0.04-2.9-0.02-3.85
				c-0.02-0.55-0.09-0.77-0.33-1.45l1.94,0.33c0.2,0.04,0.46,0.11,0.46,0.37c0,0.22-0.09,0.29-0.55,0.55c0.02,0.35,0,2.02,0,2.42
				c0,0.35,0.07,2.05,0.07,2.42c0,0.97-0.86,0.97-1.01,0.97c-0.62,0-0.59-0.31-0.57-1.23h-5.68c0,0.15,0.02,0.86,0.02,1.01
				c0,1.03-0.84,1.06-0.97,1.06c-0.46,0-0.62-0.31-0.62-0.62c0-0.24,0.11-0.95,0.11-3.19c0-3.12-0.07-3.34-0.29-4.18l2.05,0.48
				c0.18,0.04,0.37,0.09,0.37,0.31s0,0.22-0.66,0.62v3.98h2.09v-6.95h-2.2c-0.51,0-1.61,0.02-2.57,0.2l-0.44-0.88
				c1.76,0.15,3.04,0.15,3.39,0.15h2.53c0.22-0.4,1.41-2.97,1.32-4.97l2.24,1.28c0.09,0.04,0.22,0.13,0.22,0.29
				c0,0.29-0.33,0.37-0.95,0.48c-0.59,0.66-1.61,1.94-2.38,2.93h2.93l0.75-0.86c0.13-0.13,0.24-0.26,0.33-0.26
				c0.13,0,0.26,0.11,0.42,0.22l1.03,0.86c0.09,0.07,0.22,0.18,0.22,0.33C348.41,180.86,348.19,180.88,348.08,180.88z
				 M340.49,179.78c-0.55,0-0.7-0.46-1.01-1.39c-0.44-1.32-0.68-1.74-1.21-2.38l0.11-0.13c0.29,0.11,3.04,1.25,3.04,2.9
				C341.41,179.51,340.82,179.78,340.49,179.78z"/>
			<path d="M375.45,177.16h-10.36l1.83,0.59c0.13,0.04,0.29,0.13,0.29,0.29c0,0.18-0.15,0.33-0.59,0.64
				c-0.02,0.35-0.07,1.5-0.11,2.24h4.4l0.64-0.68c0.18-0.18,0.24-0.24,0.35-0.24c0.11,0,0.24,0.09,0.4,0.22l0.88,0.7
				c0.18,0.13,0.29,0.26,0.29,0.4c0,0.29-0.42,0.55-0.66,0.73c0,1.03,0.11,5.65,0.11,6.6c0,0.64,0,2.16-2.49,2.62
				c-0.4-1.12-1.3-1.78-1.85-2.09v-0.15c0.4,0.04,0.81,0.09,1.45,0.09c0.75,0,1.19-0.09,1.25-0.42c0.07-0.35,0.04-5.98,0.02-7.24
				h-4.8c0,2.44,0,6.82,0.09,9.11c0,0.24,0.07,1.32,0.07,1.54c0,1.01-1.17,1.08-1.25,1.08c-0.64,0-0.64-0.48-0.64-0.66
				c0-1.85,0.22-4.82,0.24-6.67c0.02-1.85,0.02-2.53,0-4.4h-4.45c0,0.7-0.02,3.76-0.02,4.4c0,0.66,0.07,3.54,0.07,4.14
				c0,1.17-1.01,1.17-1.17,1.17c-0.51,0-0.62-0.26-0.62-0.55c0-0.04,0-0.2,0.02-0.44c0.07-0.95,0.18-5,0.18-7.04
				c0-1.52-0.04-2.11-0.29-3.28l2.18,1.08h4.09c-0.02-2.51-0.02-2.79-0.26-3.76h-5.92c-0.29,0-1.52,0-2.6,0.2l-0.44-0.86
				c1.47,0.11,2.97,0.13,3.39,0.13h5.88c0.04-2.38-0.35-3.28-0.57-3.83l2.42,0.53c0.2,0.04,0.42,0.11,0.42,0.33
				c0,0.15,0,0.24-0.73,0.66c0,0.37,0.02,1.98,0.02,2.31h5.74l1.06-1.23c0.15-0.2,0.24-0.26,0.35-0.26s0.24,0.07,0.4,0.22l1.41,1.23
				c0.13,0.11,0.22,0.2,0.22,0.35C375.78,177.14,375.6,177.16,375.45,177.16z"/>
			<path d="M385.83,179.71h-2.24c0.02,3.26,0.13,8.43,0.13,11.68c0,0.79,0,1.63-1.14,1.63c-0.46,0-0.64-0.26-0.64-0.68
				c0-0.22,0.07-1.17,0.07-1.36c0.09-2.75,0.09-5.04,0.13-11.27c-0.33,0-1.65,0-2.69,0.2l-0.42-0.86c1.21,0.09,2.29,0.13,3.08,0.13
				c0-1.61,0-4.55-0.42-5.96l2.02,0.68c0.24,0.09,0.37,0.18,0.37,0.35c0,0.18-0.13,0.33-0.51,0.62v4.31h0.59l0.46-0.62
				c0.18-0.22,0.24-0.29,0.35-0.29c0.11,0,0.26,0.09,0.4,0.24l0.57,0.62c0.13,0.13,0.22,0.22,0.22,0.35
				C386.18,179.69,385.96,179.71,385.83,179.71z M399.56,187.96h-4.53c0,0.46,0.04,2.53,0.04,2.95c0,0.64,0,1.72-2.13,2.38
				c-0.29-0.86-0.44-1.36-1.96-2.11v-0.09c-0.11,0.09-0.24,0.2-0.55,0.2c-0.62,0-0.71-0.26-1.1-1.5c-0.09-0.31-0.37-0.95-0.64-1.39
				l0.07-0.07c0.75,0.29,2.51,0.92,2.51,1.96c0,0.24-0.07,0.55-0.26,0.75c1.5,0.09,1.52,0.09,2.05,0.09c0.2,0,0.48,0,0.55-0.55
				c0.02-0.29,0-1.67-0.02-2.62h-5.61c-0.22,0-1.56,0-2.6,0.2l-0.44-0.88c1.47,0.13,3.01,0.15,3.39,0.15h5.26
				c-0.04-1.54-0.07-1.67-0.26-2.29l1.8,0.59c0.33,0.11,0.37,0.18,0.37,0.33c0,0.2-0.11,0.26-0.48,0.48c0,0.22,0,0.29,0.02,0.88
				h2.25l0.64-0.88c0.15-0.2,0.24-0.29,0.35-0.29s0.2,0.09,0.4,0.24l1.04,0.88c0.18,0.13,0.22,0.2,0.22,0.33
				C399.91,187.94,399.71,187.96,399.56,187.96z M399.01,176.94h-6.54v1.87h2.95l0.4-0.42c0.2-0.2,0.29-0.26,0.4-0.26
				c0.09,0,0.15,0.07,0.31,0.18l0.75,0.62c0.2,0.15,0.22,0.26,0.22,0.37c0,0.24-0.51,0.48-0.55,0.51c0,0.81,0.15,4.4,0.15,5.15
				c0,0.64-0.46,0.95-1.06,0.95c-0.02,0-0.48,0-0.48-0.53v-0.62h-7.28c0,0.44,0.02,1.23-0.9,1.23c-0.48,0-0.66-0.26-0.66-0.64
				c0-0.66,0.09-3.54,0.09-4.11c0-1.17,0-1.91-0.2-3.28l1.94,0.86h2.49v-1.87h-2.2c-0.22,0-1.58,0-2.6,0.2l-0.44-0.88
				c1.54,0.13,3.19,0.15,3.39,0.15h1.85c0-2.35-0.2-2.95-0.42-3.61l2,0.62c0.26,0.09,0.4,0.15,0.4,0.31c0,0.22-0.11,0.31-0.53,0.68
				v2h4.36l0.64-0.84c0.15-0.2,0.24-0.26,0.35-0.26c0.11,0,0.2,0.07,0.38,0.22l0.95,0.84c0.13,0.11,0.2,0.22,0.2,0.33
				C399.34,176.92,399.16,176.94,399.01,176.94z M391.02,179.34h-2.77v2.16h2.77V179.34z M391.02,182.02h-2.77v2.2h2.77V182.02z
				 M395.55,179.34h-3.08v2.16h3.08V179.34z M395.55,182.02h-3.08v2.2h3.08V182.02z M395.38,175.97c-0.46,0-0.55-0.18-0.95-0.95
				c-0.35-0.64-0.57-0.86-0.99-1.21v-0.13c0.59,0,2.64,0.09,2.64,1.36C396.08,175.53,395.82,175.97,395.38,175.97z"/>
			<path d="M418.13,176.21c-3.54,3.72-5.63,5.59-8.43,6.91c-1.23,0.59-4.03,1.83-6.43,2.05l-0.09-0.18
				c1.85-0.55,6.36-2.68,8.93-4.86c2.9-2.46,4.31-4.4,4.55-4.77h-4.99c-0.75,0.81-1.21,1.28-1.8,1.85c1.5,0.4,2.71,0.73,2.71,2.02
				c0,0.68-0.55,0.95-0.88,0.95c-0.62,0-0.84-0.51-1.25-1.5c-0.29-0.7-0.55-0.99-0.79-1.25c-0.97,0.88-2.84,2.46-5.74,3.63
				l-0.11-0.15c3.28-2.16,7.24-6.27,7.77-8.52l1.94,0.84c0.15,0.07,0.26,0.18,0.26,0.31c0,0.22-0.18,0.33-0.92,0.44
				c-0.24,0.31-0.37,0.46-0.7,0.86h4.62l0.86-0.64c0.13-0.09,0.22-0.18,0.31-0.18s0.18,0.07,0.29,0.15l1.28,0.95
				c0.11,0.09,0.26,0.26,0.26,0.37C419.75,175.73,419.51,175.88,418.13,176.21z M421.16,184.33c-2.18,2.62-4.8,4.82-6.49,5.88
				c-2.57,1.61-6.6,2.97-10.19,3.08l-0.04-0.2c3.26-0.73,7.04-1.78,10.56-4.71c1.89-1.58,3.67-3.45,4.6-5.04h-4.91
				c-0.92,0.84-1.8,1.54-2.75,2.18c0.18,0.04,2.95,0.79,2.95,2.29c0,0.57-0.46,1.03-0.99,1.03c-0.53,0-0.57-0.15-1.1-1.43
				c-0.22-0.53-0.4-0.75-1.17-1.69c-1.45,0.99-4.05,2.35-6.95,2.93l-0.15-0.15c3.63-1.41,6.8-3.72,9.5-6.49
				c1.43-1.5,1.61-1.94,1.83-2.53l1.78,0.95c0.13,0.07,0.26,0.15,0.26,0.31c0,0.29-0.4,0.33-0.99,0.37
				c-0.35,0.42-0.77,0.9-1.65,1.72h4.45l0.68-0.51c0.09-0.07,0.22-0.2,0.33-0.2s0.18,0.09,0.29,0.18l1.32,1.08
				c0.11,0.09,0.22,0.2,0.22,0.35C422.55,183.92,422.39,184.05,421.16,184.33z"/>
			<path d="M446.31,191.51h-15.67c0.02,0.55-0.15,1.32-1.28,1.32c-0.55,0-0.59-0.29-0.59-0.53c0-0.09,0.09-1.85,0.11-2.2
				c0.13-2.84,0.2-12.12,0.2-12.32c0-2.64-0.07-3.3-0.29-4.42l2.25,1.12h11.81l0.92-1.06c0.13-0.13,0.22-0.26,0.33-0.26
				s0.24,0.11,0.42,0.24l1.28,1.03c0.11,0.09,0.22,0.2,0.22,0.33c0,0.22-0.2,0.24-0.35,0.24h-14.96c0,1.23-0.09,6.64-0.09,7.75
				c0,2.53,0,7.08,0.02,8.23h12.65l1.01-1.14c0.15-0.18,0.24-0.26,0.35-0.26c0.09,0,0.26,0.11,0.4,0.22l1.39,1.14
				c0.09,0.09,0.22,0.2,0.22,0.33C446.66,191.48,446.46,191.51,446.31,191.51z M442.76,178.11c-1.19,2-2.22,3.5-3.17,4.67
				c1.5,1.3,3.52,3.3,3.52,4.77c0,0.57-0.4,0.9-0.86,0.9c-0.59,0-0.81-0.42-1.23-1.19c-0.53-1.01-1.32-2.18-2.33-3.39
				c-3.48,3.98-5.92,4.97-7.11,5.43l-0.07-0.18c2.71-1.83,5.46-5.3,6.23-6.29c-1.76-1.87-3.56-3.21-5.04-4.29l0.09-0.15
				c2.77,1.06,5.1,2.95,5.7,3.43c1.34-1.83,2.73-3.98,2.88-5.83l1.96,1.34c0.09,0.07,0.22,0.18,0.22,0.33
				C443.56,178.02,443.18,178.06,442.76,178.11z"/>
			<path d="M465.23,185.17l0.4-0.51c0.13-0.15,0.22-0.26,0.35-0.26c0.13,0,0.24,0.11,0.42,0.24l0.73,0.59
				c0.13,0.11,0.22,0.22,0.22,0.35c0,0.18-0.13,0.26-0.57,0.59c-0.02,0.4,0.07,2.11,0.07,2.46c0,0.62-0.81,0.75-1.06,0.75
				c-0.55,0-0.53-0.44-0.51-0.68h-2l1.32,0.59c0.15,0.07,0.29,0.15,0.29,0.31c0,0.24-0.29,0.31-0.77,0.37
				c-0.24,0.24-1.45,1.32-1.69,1.54h5.37l0.88-1.06c0.15-0.18,0.24-0.24,0.35-0.24s0.24,0.07,0.4,0.2l1.19,1.06
				c0.13,0.11,0.22,0.22,0.22,0.35c0,0.13-0.11,0.22-0.33,0.22H454.2c-0.55,0-1.61,0.02-2.6,0.2l-0.44-0.88
				c1.5,0.13,3.06,0.15,3.39,0.15h3.17c-0.24-0.2-0.26-0.31-0.46-1.32c-0.07-0.4-0.24-1.03-0.44-1.5h-0.79
				c0.02,0.24,0.04,0.44-0.09,0.59c-0.24,0.29-0.57,0.4-0.97,0.4c-0.42,0-0.53-0.22-0.53-0.57c0-0.48,0.09-2.62,0.09-3.06
				c0-0.15,0-0.99-0.13-1.8l1.91,0.9H465.23z M467.36,182.95l0.86-0.92c0.18-0.18,0.26-0.26,0.37-0.26s0.24,0.07,0.42,0.22
				l1.06,0.92c0.13,0.11,0.22,0.22,0.22,0.35s-0.13,0.22-0.33,0.22h-15.23c-0.55,0-1.61,0.02-2.6,0.2l-0.44-0.88
				c1.52,0.13,3.08,0.15,3.39,0.15H467.36z M458.23,175.84c-0.02-1.63-0.09-1.98-0.48-2.93l2.27,0.62c0.18,0.04,0.29,0.13,0.29,0.26
				c0,0.11-0.04,0.29-0.59,0.64c-0.02,0.73-0.02,0.99-0.02,1.41h2.35c-0.07-1.28-0.09-1.94-0.44-2.79l2.07,0.55
				c0.22,0.07,0.35,0.13,0.35,0.26c0,0.2-0.13,0.35-0.53,0.57c0,0.59-0.02,0.66-0.02,1.41h2.25l0.53-0.48
				c0.15-0.15,0.26-0.22,0.37-0.22c0.13,0,0.24,0.07,0.42,0.2l0.79,0.62c0.11,0.09,0.24,0.2,0.24,0.35c0,0.18-0.09,0.31-0.75,0.66
				c-0.02,0.66,0.02,3.56,0.02,4.16c0,0.95-0.81,0.95-0.97,0.95c-0.51,0-0.53-0.33-0.53-0.75h-9.92c0.02,0.64-0.51,0.92-1.06,0.92
				c-0.48,0-0.51-0.4-0.51-0.59c0-0.59,0.11-3.26,0.11-3.78c0-1.56-0.07-2.02-0.22-2.97l1.89,0.95H458.23z M455.92,176.37v1.91h2.33
				v-1.91H455.92z M455.92,178.81v1.98h2.33v-1.98H455.92z M456.03,185.7v2.49h9.26v-2.49H456.03z M457.28,188.71
				c0.57,0.29,1.78,0.95,1.78,2.05c0,0.48-0.24,0.66-0.42,0.77h3.17c0.35-0.86,0.7-1.69,0.84-2.82H457.28z M459.68,176.37v1.91h2.35
				v-1.91H459.68z M459.68,178.81v1.98h2.35v-1.98H459.68z M465.86,178.28v-1.91h-2.4v1.91H465.86z M465.86,180.79v-1.98h-2.4v1.98
				H465.86z"/>
			<path d="M475.54,190.63h1.21c1.14,0,1.54-0.44,1.54-1.34v-11.9c0-0.68-0.64-0.79-1.06-0.79h-1.67v-0.68h0.4
				c1.69,0,3.32-0.77,3.59-0.92c0.15-0.09,0.22-0.13,0.31-0.13c0.2,0,0.24,0.13,0.24,0.31v14.13c0,0.95,0.46,1.34,1.54,1.34h1.21
				v0.7h-7.31V190.63z"/>
			<path d="M506.9,175.71h-8.58c0,0.62,0.09,12.7,0.09,13.36c0,1.89,0,3.48-3.06,3.78c-0.11-0.92-0.26-1.36-2.73-2.71l0.04-0.15
				c0.92,0.15,2.16,0.31,2.93,0.31c0.68,0,1.01-0.09,1.1-0.44c0.07-0.26,0.07-1.23,0.07-1.61c0-1.98,0.02-10.74,0-12.54h-6.25
				c-0.4,0-1.52,0-2.6,0.2l-0.44-0.86c1.36,0.09,2.73,0.13,3.39,0.13h12.54l1.23-1.3c0.09-0.09,0.22-0.26,0.35-0.26
				c0.11,0,0.24,0.09,0.4,0.22l1.63,1.3c0.13,0.11,0.22,0.22,0.22,0.35C507.23,175.69,507.03,175.71,506.9,175.71z"/>
			<path d="M522.58,174.61l0.62-0.64c0.13-0.15,0.24-0.26,0.37-0.26c0.11,0,0.24,0.09,0.4,0.22l1.08,0.9
				c0.2,0.18,0.24,0.29,0.24,0.4c0,0.26-0.31,0.46-0.81,0.81c-0.04,0.99-0.04,1.36-0.04,2.33c0,5.32,0.11,8.14,0.24,12.21
				c0,0.02,0.02,0.37,0.02,0.46c0,0.92-1.14,0.99-1.23,0.99c-0.64,0-0.59-0.55-0.57-0.92h-8.36c0.04,0.44,0.04,0.57-0.09,0.77
				c-0.24,0.35-0.75,0.53-1.17,0.53c-0.57,0-0.59-0.31-0.59-0.57c0-0.42,0.13-2.18,0.15-2.53c0.09-2.11,0.11-7.46,0.11-9.66
				c0-4.11-0.11-4.93-0.29-6.12l2.2,1.08H522.58z M514.53,175.14v4.73h8.38v-4.73H514.53z M514.53,180.4v4.75h8.38v-4.75H514.53z
				 M514.53,185.68v4.91h8.38v-4.91H514.53z"/>
			<path d="M537.85,183.85c1.01,0.86,1.5,1.96,1.5,3.26c0,2.71-2.22,4.64-5.13,4.64c-2.38,0-4.38-1.34-4.38-3.1
				c0-0.97,0.64-1.41,1.25-1.41c0.75,0,1.08,0.64,1.08,1.1c0,0.33-0.07,0.53-0.13,0.7c-0.04,0.13-0.07,0.29-0.07,0.51
				c0,0.84,0.95,1.45,1.98,1.45c1.69,0,3.41-1.67,3.41-3.89c0-2.27-1.67-4.03-3.43-4.03c-0.13,0-0.75,0.09-0.88,0.09
				c-0.33,0-0.48-0.2-0.48-0.46c0-0.29,0.22-0.51,0.51-0.51c0.13,0,0.79,0.13,0.95,0.13c1.85,0,3.01-1.65,3.01-3.43
				c0-1.72-1.03-3.3-2.77-3.3c-1.17,0-1.78,0.84-1.78,1.47c0,0.11,0.04,0.22,0.07,0.33c0.04,0.15,0.07,0.37,0.07,0.53
				c0,0.68-0.51,1.21-1.12,1.21c-0.73,0-1.1-0.64-1.1-1.21c0-1.21,1.41-3.08,4.22-3.08c2.71,0,4.4,1.76,4.4,3.7
				c0,0.77-0.29,1.52-0.81,2.24c-0.9,1.19-1.89,1.56-2.79,1.87C536.42,182.97,537.08,183.19,537.85,183.85z"/>
			<path d="M561.21,184.84c-3.13-0.95-6.4-3.83-7.7-5.85v1.76c0,0.35,0.07,1.96,0.07,2.2c0,1.12-0.92,1.14-1.06,1.14
				c-0.4,0-0.59-0.22-0.59-0.64c0-0.44,0.11-2.29,0.11-2.66v-1.47c-1.8,2.29-6.16,5.59-9.46,6.31l-0.04-0.13
				c2.97-1.56,6.56-4.86,7.97-6.64h-4.47c-0.4,0-1.52,0-2.6,0.2l-0.42-0.88c1.39,0.11,2.75,0.15,3.37,0.15h5.68v-3.43
				c-0.75,0.07-2.11,0.18-3.87,0.18c-1.78,0-2.75-0.11-3.26-0.18v-0.18c4.82-0.29,8.84-1.1,11.02-1.72
				c0.66-0.18,0.81-0.26,1.21-0.55l1.32,1.14c0.11,0.11,0.24,0.24,0.24,0.35c0,0.31-0.42,0.31-0.53,0.31
				c-0.24,0-0.55-0.04-0.75-0.09c-1.85,0.35-2.49,0.42-3.94,0.59v3.56h1.36c0.62-0.79,1.45-2.29,1.69-3.56l1.63,1.01
				c0.11,0.07,0.29,0.22,0.29,0.37c0,0.35-0.42,0.42-0.95,0.48c-0.77,0.68-1.45,1.25-2.16,1.69h4.11l0.99-1.12
				c0.11-0.13,0.22-0.26,0.35-0.26s0.26,0.13,0.4,0.24l1.23,1.1c0.13,0.11,0.22,0.22,0.22,0.33c0,0.22-0.2,0.24-0.33,0.24h-8.52
				c2.66,2.53,6.05,4.05,9.22,3.89v0.2C562.12,183.52,561.68,183.92,561.21,184.84z M558.4,185.81c0,1.52-0.02,3.81,0.02,4.6
				c0,0.24,0.11,1.32,0.11,1.56c0,0.59-0.48,1.01-1.14,1.01c-0.55,0-0.55-0.24-0.51-1.1h-8.08c0.02,0.42,0.04,1.21-1.08,1.21
				c-0.57,0-0.57-0.37-0.57-0.53c0-0.09,0.04-0.53,0.04-0.64c0.09-1.63,0.13-3.43,0.13-4.69c0-2.49-0.11-3.01-0.22-3.54l1.89,0.92
				h7.59l0.53-0.59c0.13-0.13,0.2-0.22,0.31-0.22c0.11,0,0.24,0.11,0.35,0.2l1.12,0.81c0.09,0.07,0.18,0.18,0.18,0.31
				C559.08,185.43,558.57,185.7,558.4,185.81z M549.2,178.11c-0.55,0-0.7-0.42-0.84-0.79c-0.07-0.22-0.46-1.21-1.06-1.91l0.11-0.15
				c2.18,0.59,2.66,1.5,2.66,2.02C550.08,177.84,549.55,178.11,549.2,178.11z M552.08,185.15h-3.28v2.79h3.28V185.15z
				 M552.08,188.47h-3.28v2.88h3.28V188.47z M556.88,185.15h-3.32v2.79h3.32V185.15z M556.88,188.47h-3.32v2.88h3.32V188.47z"/>
			<path d="M576.08,186.91c0,2.55-2,4.84-5.19,4.84c-2.51,0-4.75-1.45-4.75-3.96c0-2.38,1.89-3.5,3.92-4.69
				c-1.17-0.68-3.28-1.91-3.28-4.31c0-2.18,1.72-3.94,4.4-3.94c3.01,0,4.03,2.24,4.03,3.48c0,1.87-1.8,3.23-2.75,3.94
				C574.52,183.54,576.08,184.64,576.08,186.91z M567.99,187.72c0,1.94,1.45,3.28,3.17,3.28c1.91,0,3.34-1.69,3.34-3.32
				c0-2.09-2.18-3.32-3.79-4.22C569.73,184.2,567.99,185.54,567.99,187.72z M573.6,178.57c0-1.67-1.12-2.97-2.73-2.97
				c-1.56,0-2.6,1.19-2.6,2.62c0,1.54,1.25,2.31,3.54,3.67C572.45,181.34,573.6,180.4,573.6,178.57z"/>
			<path d="M599.1,181.72h-10.91c-0.57,1.06-1.21,2.51-1.5,3.17h6.16l0.79-0.68c0.11-0.09,0.22-0.18,0.33-0.18
				c0.11,0,0.24,0.13,0.35,0.24l1.1,1.01c0.09,0.09,0.2,0.22,0.2,0.35c0,0.29-0.42,0.4-1.1,0.59c-0.99,4.6-1.5,7.02-5.68,6.93
				c-0.26-1.47-1.63-2.22-2.2-2.51l0.02-0.13c1.94,0.51,3.65,0.57,3.72,0.57c1.1,0,1.78-0.73,2.6-5.68h-6.51
				c-0.31,0.7-0.9,2.07-1.21,2.51c-0.18,0.24-0.46,0.37-0.86,0.37c-0.37,0-0.86-0.2-0.86-0.55c0-0.13,0.07-0.33,0.13-0.44
				c1.32-2.51,1.47-2.82,2.75-5.59h-4.12c-0.59,0-1.63,0.02-2.6,0.2l-0.44-0.86c1.74,0.13,2.99,0.13,3.39,0.13h13.44l0.99-1.21
				c0.11-0.13,0.22-0.26,0.35-0.26c0.11,0,0.29,0.13,0.4,0.22l1.36,1.23c0.11,0.09,0.22,0.2,0.22,0.33
				C599.43,181.72,599.21,181.72,599.1,181.72z M594.59,175.03c0,0.86,0.02,3.04,0.02,3.85c0,0.31,0,0.9-0.95,0.9
				c-0.7,0-0.75-0.33-0.68-1.08h-7.61c0,0.55-0.02,1.23-1.08,1.23c-0.35,0-0.59-0.26-0.59-0.57c0-0.15,0.09-0.86,0.09-1.01
				c0.04-0.77,0.11-1.8,0.11-2.88c0-1.14-0.07-1.61-0.26-2.49l2.05,0.97h7.13l0.44-0.53c0.09-0.11,0.22-0.24,0.31-0.24
				s0.26,0.11,0.35,0.18l1.06,0.64c0.13,0.09,0.24,0.24,0.24,0.37C595.2,174.5,595.05,174.67,594.59,175.03z M593,174.48h-7.61v3.7
				H593V174.48z"/>
		</g>
	</g>
	<g>
		<g>
			<path d="M239.25,215.26c-0.02,0.76-0.04,1.48-0.04,3.46c0,2.41,0,5.08,0.09,7.47c0.02,0.31,0.1,1.64,0.1,1.91
				c0,0.38,0,1.06-1.05,1.06c-0.44,0-0.45-0.25-0.45-0.49c0-0.11,0.04-0.61,0.05-0.7h-10.77c0.02,0.43,0.02,0.52-0.03,0.68
				c-0.09,0.32-0.56,0.56-0.96,0.56c-0.44,0-0.51-0.25-0.51-0.49c0-0.31,0.03-0.79,0.05-1.1c0.17-3.24,0.21-6.5,0.21-9.76
				c0-1.69,0-3.35-0.21-4.66l1.82,0.97h10.23l0.54-0.54c0.1-0.11,0.21-0.2,0.31-0.2c0.11,0,0.19,0.07,0.31,0.18l0.77,0.63
				c0.09,0.07,0.19,0.18,0.19,0.32C239.91,214.7,239.76,214.82,239.25,215.26z M237.96,214.61h-10.79v12.93h10.79V214.61z
				 M236.79,224.98h-6.62c-0.47,0-1.29,0.02-2.06,0.16l-0.35-0.72c0.89,0.09,1.78,0.13,2.69,0.13h1.24v-3.78h-0.73
				c-0.14,0-1.26,0-2.06,0.16l-0.35-0.72c1.38,0.13,2.62,0.13,2.69,0.13h0.45v-2.95h-1.1c-0.45,0-1.29,0.02-2.06,0.16l-0.33-0.72
				c0.89,0.07,1.78,0.13,2.67,0.13h3.61l0.63-0.68c0.09-0.09,0.19-0.22,0.3-0.22c0.09,0,0.24,0.13,0.31,0.18l0.71,0.68
				c0.07,0.07,0.17,0.16,0.17,0.27c0,0.18-0.17,0.2-0.26,0.2h-3.51v2.95h1.05l0.56-0.59c0.11-0.13,0.21-0.23,0.3-0.23
				c0.07,0,0.19,0.11,0.31,0.2l0.75,0.59c0.07,0.05,0.17,0.16,0.17,0.27c0,0.18-0.17,0.2-0.26,0.2h-2.88v3.78h2.11l0.61-0.65
				c0.12-0.14,0.21-0.22,0.3-0.22c0.11,0,0.23,0.11,0.31,0.18l0.72,0.65c0.07,0.07,0.17,0.16,0.17,0.27
				C237.07,224.96,236.89,224.98,236.79,224.98z M234.73,223.79c-0.4,0-0.65-0.38-0.71-0.79c-0.17-1.03-0.21-1.24-0.49-1.75
				l0.1-0.09c1.22,0.49,1.75,1.26,1.75,1.87C235.38,223.52,235.06,223.79,234.73,223.79z"/>
			<path d="M256.76,219.25l0.71-0.97c0.11-0.14,0.16-0.22,0.26-0.22c0.11,0,0.12,0.04,0.33,0.2l1.17,0.95
				c0.09,0.07,0.17,0.16,0.17,0.29c0,0.16-0.16,0.18-0.28,0.18h-5.81c0,0.59-0.02,3.19-0.02,3.71c0,0.18,0.02,3.92,0,4.45h4.63
				l0.87-0.97c0.12-0.14,0.17-0.22,0.26-0.22c0.1,0,0.16,0.05,0.33,0.2l1.15,0.95c0.09,0.07,0.17,0.16,0.17,0.27
				c0,0.16-0.16,0.2-0.26,0.2h-13.13c-0.17,0-1.26,0-2.06,0.16l-0.35-0.72c1.17,0.11,2.36,0.13,2.69,0.13h4.45
				c-0.02-0.16-0.02-3.98-0.02-4.39v-3.76h-3.68c-0.23,0-1.21,0-2.06,0.16l-0.35-0.7c1.17,0.09,2.36,0.11,2.69,0.11h3.4
				c-0.03-4.09-0.03-4.56-0.44-5.87l2.11,0.58c0.17,0.05,0.28,0.09,0.28,0.25c0,0.14-0.09,0.22-0.16,0.27
				c-0.07,0.07-0.4,0.34-0.51,0.41c0,1.46-0.02,2.9-0.02,4.36H256.76z"/>
			<path d="M271.26,218.23c-0.07,0-0.17,0-0.28-0.02c-1.43,1.85-4.01,3.64-5.92,4.16l-0.05-0.11c1.71-1.06,3.47-2.99,4.31-4.12
				c0.42-0.56,0.58-0.99,0.7-1.37l1.55,0.97c0.07,0.04,0.16,0.11,0.16,0.22C271.73,218.17,271.45,218.21,271.26,218.23z
				 M279.46,229.08c-3.58-1.06-5.6-2.84-6.39-3.71c-1.01,1.03-3.25,3.21-7.89,3.71l-0.02-0.14c3.93-1.13,5.97-3.17,7.16-4.5
				c-1.52-2.07-1.87-4.09-2.01-4.92l0.16-0.02c0.91,2.3,1.73,3.42,2.43,4.21c1.01-1.33,1.87-2.83,2.06-4.52l1.61,1.12
				c0.07,0.05,0.18,0.14,0.18,0.29c0,0.22-0.21,0.29-0.66,0.38c-0.86,1.73-1.64,2.79-2.3,3.62c1.89,1.64,4.35,2.5,7.33,2.68
				l0.02,0.13C280.4,227.77,279.74,228.44,279.46,229.08z M280.63,216.36h-12.99c-0.44,0-1.27,0.02-2.06,0.16l-0.35-0.72
				c1.19,0.11,2.43,0.13,2.69,0.13h4.38c-0.03-1.96-0.09-2.18-0.49-3.15l2.06,0.54c0.14,0.04,0.28,0.11,0.28,0.29
				c0,0.27-0.4,0.4-0.59,0.45c-0.02,0.31-0.04,1.6-0.04,1.87h4.66l0.79-0.99c0.09-0.13,0.17-0.23,0.28-0.23
				c0.12,0,0.24,0.11,0.33,0.18l1.15,1.01c0.07,0.05,0.17,0.16,0.17,0.27C280.91,216.32,280.75,216.36,280.63,216.36z
				 M279.09,221.36c-0.4,0-0.45-0.09-0.91-0.86c-0.44-0.72-1.59-2.4-3.11-3.19l0.05-0.09c2.86,0.47,4.68,2.36,4.68,3.37
				C279.81,220.78,279.72,221.36,279.09,221.36z"/>
			<path d="M300.15,228.83c-0.59-0.02-3.16,0.04-3.68,0.04c-1.34,0-3.23-0.05-4.76-0.52c-2.06-0.63-2.48-1.62-2.72-2.18
				c-0.26,0.36-1.59,1.85-1.85,2.18c-0.05,0.18-0.09,0.45-0.12,0.52c-0.02,0.05-0.09,0.14-0.19,0.14c-0.09,0-0.17-0.05-0.24-0.14
				l-1.28-1.57c1.24-0.02,2.55-0.65,2.88-0.86v-5.28c-0.52,0-1.41,0-2.27,0.16l-0.35-0.72c0.77,0.07,1.29,0.11,2.34,0.13l0.65-0.5
				c0.1-0.07,0.19-0.14,0.24-0.14c0.07,0,0.16,0.05,0.23,0.13l0.7,0.65c0.07,0.07,0.12,0.14,0.12,0.23c0,0.11-0.05,0.18-0.1,0.22
				c-0.09,0.07-0.26,0.23-0.37,0.32c-0.05,0.36-0.05,2.2-0.05,2.59c0,2.23,0,3.4,4.87,3.4c0.77,0,3.88-0.09,5.69-0.41
				c0.37-0.07,0.96-0.2,1.41-0.31v0.07C300.78,227.28,300.26,228.06,300.15,228.83z M289.03,216.54c-0.52,0-0.66-0.49-0.77-0.86
				c-0.26-0.9-0.73-1.75-1.48-2.3l0.04-0.11c2.13,0.41,2.93,1.78,2.93,2.47C289.75,216.16,289.47,216.54,289.03,216.54z
				 M300.43,218.16c-0.07,0.07-0.45,0.38-0.54,0.45c-0.04,0.86,0.02,5.11,0.02,6.09c0,0.61,0,1.66-1.68,2.03
				c-0.1-0.76-0.73-1.31-1.36-1.69v-0.09c0.17,0,1.03,0.05,1.22,0.05c0.58,0,0.65-0.13,0.65-0.65v-1.19h-2.72
				c0,0.18,0.05,1.93,0.05,2.25c0,0.07,0.05,0.63,0.05,0.7c0,0.32-0.28,0.65-0.8,0.65c-0.44,0-0.44-0.27-0.44-0.41
				c0-0.09,0.04-0.58,0.04-0.68c0-0.36,0-2.11,0.02-2.5h-2.69c0.02,0.36,0.03,2.09,0.03,2.48c0,0.67-0.51,0.88-0.84,0.88
				c-0.45,0-0.45-0.29-0.45-0.49c0-0.05,0.02-0.29,0.02-0.34c0.05-0.81,0.07-3.17,0.07-3.87c0-3.19-0.07-4.2-0.19-4.95l1.59,0.81
				h2.93c-0.14-0.13-0.16-0.16-0.3-0.49c-0.3-0.63-0.99-1.37-1.59-1.82v-0.13c0.33,0.04,1.12,0.11,2.22,0.79
				c0.42-0.41,0.91-1.03,1.41-1.66h-3.91c-0.45,0-1.29,0.02-2.06,0.16l-0.35-0.7c0.91,0.07,1.8,0.11,2.69,0.11h3.77l0.63-0.45
				c0.07-0.05,0.16-0.13,0.23-0.13c0.09,0,0.23,0.09,0.28,0.14l1.01,0.88c0.03,0.04,0.12,0.13,0.12,0.23c0,0.04-0.03,0.16-0.14,0.22
				c-0.12,0.07-0.86,0.14-1.01,0.18c-0.38,0.11-2.06,1.01-2.44,1.17c0.16,0.14,0.47,0.41,0.47,0.92c0,0.32-0.16,0.47-0.28,0.56h2.37
				l0.49-0.49c0.07-0.07,0.14-0.14,0.23-0.14c0.05,0,0.16,0.07,0.19,0.11l0.91,0.65c0.09,0.05,0.14,0.13,0.14,0.18
				C300.48,218.07,300.47,218.1,300.43,218.16z M294.93,218.12h-2.71c0,0.5,0.02,1.46,0.02,2.05h2.69V218.12z M294.93,220.6h-2.69
				v2.12h2.69V220.6z M298.74,218.12h-2.72v2.05h2.72V218.12z M298.74,220.6h-2.72v2.12h2.72V220.6z"/>
			<path d="M319.69,228.83c-3.79-2.16-5.6-5.1-6.27-9.92c-0.31,3.17-1.43,8.43-7.86,10.25l-0.07-0.14c2.51-1.26,4.59-3.35,5.62-6.05
				c0.54-1.44,0.91-2.95,1.05-4.5h-4.19c-0.14,0-1.24,0-2.06,0.16l-0.35-0.7c1.38,0.11,2.6,0.11,2.69,0.11h3.96
				c0.04-0.41,0.09-0.97,0.09-1.87c0-0.68-0.05-2.23-0.38-3.17l2.01,0.56c0.16,0.04,0.31,0.13,0.31,0.27c0,0.2-0.24,0.38-0.59,0.61
				c-0.02,1.17-0.07,2.29-0.14,3.6h4.78l0.79-0.94c0.09-0.11,0.17-0.22,0.26-0.22c0.09,0,0.21,0.09,0.33,0.18l1.17,0.94
				c0.07,0.05,0.18,0.16,0.18,0.27c0,0.2-0.18,0.2-0.26,0.2h-7.07c0.24,1.33,0.75,2.57,1.33,3.78c1.29,2.7,3.46,4.16,6.67,5.04v0.14
				C321.3,227.54,320.4,227.75,319.69,228.83z"/>
			<path d="M341.09,228.04h-12.55c0,0.54,0,1.26-0.87,1.26c-0.44,0-0.52-0.32-0.52-0.56c0-0.18,0.02-0.36,0.04-0.49
				c0.04-0.34,0.14-7.33,0.14-11.31c0-2.12-0.02-2.39-0.19-3.47l1.59,0.72h9.51l0.72-0.9c0.1-0.14,0.17-0.23,0.28-0.23
				c0.07,0,0.14,0.05,0.33,0.2l1.12,0.9c0.09,0.07,0.17,0.16,0.17,0.27c0,0.16-0.16,0.2-0.26,0.2h-6.16v3.51h3.04l0.47-0.49
				c0.14-0.14,0.19-0.2,0.26-0.2c0.05,0,0.1,0.04,0.21,0.14l0.84,0.76c0.12,0.11,0.17,0.16,0.17,0.27c0,0.16-0.45,0.47-0.65,0.58
				c0.02,0.65,0.14,3.51,0.14,4.09c0,0.86-0.7,0.92-0.89,0.92c-0.42,0-0.42-0.27-0.4-0.86h-3.23v4.27h4.22l0.79-0.94
				c0.14-0.18,0.19-0.23,0.28-0.23c0.07,0,0.16,0.07,0.33,0.2l1.19,0.94c0.12,0.09,0.17,0.18,0.17,0.27
				C341.37,228,341.22,228.04,341.09,228.04z M333.22,214.63h-4.68v3.51h4.68V214.63z M337.62,218.57h-9.08v4.34h9.08V218.57z
				 M333.17,223.34h-4.63v4.27h4.63V223.34z"/>
			<path d="M352.74,229.84c-2.72-2.25-4.14-5.49-4.14-8.71c0-3.22,1.41-6.46,4.14-8.71l0.16,0.25c-3.25,3.55-3.32,7.15-3.32,8.46
				c0,1.31,0.07,4.92,3.32,8.46L352.74,229.84z"/>
			<path d="M358.99,227.97v-0.58h1.08c0.98,0,1.38-0.32,1.38-1.1v-9.79c0-0.59-0.65-0.67-0.94-0.67h-1.5v-0.49h0.35
				c1.52,0,2.97-0.63,3.21-0.76c0.14-0.07,0.21-0.11,0.28-0.11c0.16,0,0.21,0.11,0.21,0.25v11.56c0,0.81,0.45,1.1,1.38,1.1h1.08
				v0.58H358.99z"/>
			<path d="M371.78,229.84l-0.16-0.25c3.25-3.55,3.32-7.15,3.32-8.46c0-1.31-0.07-4.92-3.32-8.46l0.16-0.25
				c2.72,2.25,4.14,5.49,4.14,8.71C375.91,224.35,374.5,227.59,371.78,229.84z"/>
			<path d="M390.65,215.87h-3.04c0.96,0.63,1.43,0.94,1.43,1.6c0,0.38-0.23,0.79-0.66,0.79c-0.49,0-0.52-0.27-0.65-1.06
				c-0.12-0.79-0.31-1.19-0.38-1.33h-0.77c-0.8,1.17-1.57,2.12-3.07,3.11l-0.07-0.09c1.08-1.3,2.6-3.93,3.04-5.17
				c0.05-0.14,0.12-0.45,0.11-0.97l1.61,0.86c0.12,0.07,0.16,0.14,0.16,0.23c0,0.18-0.26,0.27-0.7,0.41
				c-0.23,0.34-0.68,1.03-0.77,1.17h1.96l0.52-0.67c0.09-0.11,0.19-0.23,0.26-0.23c0.09,0,0.19,0.09,0.33,0.2l0.79,0.67
				c0.09,0.07,0.17,0.18,0.17,0.27C390.91,215.83,390.75,215.87,390.65,215.87z M397.65,223.97c-0.49,2.36-0.73,3.62-3.16,3.91
				c-0.03-0.68-0.63-1.39-1.33-1.91l0.02-0.11c0.7,0.14,1.48,0.31,1.97,0.31c0.54,0,1.03-0.16,1.31-2.63h-5.08
				c0.02,0.63,0.05,3.71,0.07,4.41c0,0.09,0.03,0.61,0.03,0.74c0,0.52-0.45,0.76-0.85,0.76c-0.23,0-0.47-0.07-0.47-0.54
				c0-0.88,0.09-3.87,0.11-4.81c-1.73,2.14-3.96,3.78-6.53,4.7l-0.04-0.14c1.17-0.65,3.74-2.77,5.53-5.11h-3.46
				c-0.21,0.83-0.3,1.15-0.89,1.15c-0.4,0-0.61-0.14-0.61-0.43c0-0.05,0.19-0.61,0.31-0.94c0.65-1.87,0.68-2.38,0.73-3.4l1.41,0.83
				h3.56c0-0.16-0.02-1.49-0.02-1.78h-2.64c-0.14,0-1.24,0-2.06,0.18l-0.35-0.72c0.85,0.07,1.83,0.11,2.69,0.11h7.07l0.47-0.47
				c0.05-0.05,0.12-0.11,0.19-0.11c0.09,0,0.17,0.05,0.24,0.11l0.82,0.65c0.05,0.05,0.14,0.11,0.14,0.22c0,0.16-0.19,0.31-0.56,0.56
				c0,0.27,0.07,1.51,0.07,1.69c0,0.61-0.7,0.68-0.82,0.68c-0.45,0-0.44-0.4-0.42-0.68h-3.75v1.93h4.96l0.61-0.65
				c0.07-0.07,0.16-0.18,0.23-0.18s0.19,0.11,0.26,0.18l0.8,0.76c0.07,0.05,0.12,0.14,0.12,0.22
				C398.36,223.67,398.08,223.76,397.65,223.97z M390.3,221.18h-3.91c-0.17,0.56-0.19,0.7-0.49,1.93h4.4V221.18z M398.31,216.05
				h-5.08c1.31,0.52,1.82,0.74,1.82,1.49c0,0.49-0.37,0.67-0.63,0.67c-0.44,0-0.51-0.27-0.79-1.06c-0.1-0.32-0.4-0.79-0.68-1.1
				h-0.66c-0.56,0.81-1.22,1.62-2.04,2.23l-0.09-0.07c1.1-1.91,2.11-3.82,2.06-5.38l1.69,0.79c0.1,0.05,0.16,0.13,0.16,0.22
				c0,0.18-0.24,0.31-0.75,0.47c-0.17,0.34-0.33,0.65-0.75,1.31h3.68l0.58-0.85c0.07-0.11,0.16-0.22,0.26-0.22
				c0.12,0,0.25,0.11,0.33,0.18l0.98,0.85c0.09,0.07,0.17,0.16,0.17,0.27C398.57,216.01,398.43,216.05,398.31,216.05z
				 M395.15,218.97h-3.77v1.78h3.77V218.97z"/>
			<path d="M406.64,228.31c-1.33,0-2.25-0.72-2.25-1.57c0-0.65,0.54-0.94,1.01-0.94c0.37,0,1.03,0.2,1.08,1.24
				c0.02,0.41,0.05,0.65,0.58,0.65c0.52,0,1.05-0.25,1.43-0.63c1.73-1.76,1.85-4.43,1.92-6.03c-0.35,0.52-1.43,2.18-3.42,2.18
				c-1.94,0-3.53-1.78-3.53-4c0-2.47,1.92-4.74,4.19-4.74c2.25,0,4.54,2.32,4.54,6.21C412.19,224.84,409.64,228.31,406.64,228.31z
				 M409.35,216.07c-0.37-0.5-0.86-0.97-1.59-0.97c-0.98,0-2.53,0.92-2.53,3.96c0,0.94,0.26,3.35,2.25,3.35
				c0.72,0,1.97-0.47,2.92-2.45C410.31,218.93,410.17,217.24,409.35,216.07z"/>
			<path d="M425.08,227.97h-7.84v-0.45c0.66-1.67,1.33-2.36,4.52-5.73c1.05-1.08,2.36-2.48,2.36-4.23c0-1.35-0.96-2.47-2.62-2.47
				c-1.4,0-2.22,0.76-2.22,1.4c0,0.05,0,0.29,0.19,0.56c0.24,0.32,0.42,0.54,0.42,0.9c0,0.52-0.45,1.01-1.05,1.01
				c-0.7,0-1.12-0.59-1.12-1.26c0-1.3,1.38-3.2,4.22-3.2c2.41,0,3.93,1.39,3.93,3.31c0,1.85-1.17,2.83-2.92,4.21
				c-0.7,0.56-3.16,2.48-4.31,4.52h3.02c2.85,0,3.4-1.1,3.95-2.4l0.38,0.13L425.08,227.97z"/>
			<path d="M435.29,226.71c-0.04,0.5-0.11,1.6-1.12,1.6c-0.49,0-1-0.38-1-0.99c0-0.76,0.35-1.69,0.77-2.74
				c1.31-3.22,3.18-5.96,4.8-8.34h-3.49c-2.83,0-3.28,1.21-3.7,2.36l-0.51-0.13l0.8-3.66h7.92v0.95
				C436.43,220.5,435.57,222.89,435.29,226.71z"/>
			<path d="M449.37,228.31c-2.23,0-4.52-2.3-4.52-6.21c0-4.12,2.55-7.62,5.55-7.62c1.33,0,2.25,0.74,2.25,1.58
				c0,0.65-0.54,0.94-1.01,0.94c-0.37,0-1.03-0.2-1.08-1.26c-0.02-0.4-0.05-0.65-0.58-0.65c-0.54,0-1.05,0.27-1.43,0.65
				c-1.73,1.76-1.85,4.43-1.92,6.03c0.35-0.54,1.43-2.18,3.42-2.18c1.94,0,3.53,1.78,3.53,4
				C453.57,226.06,451.65,228.31,449.37,228.31z M449.56,220.41c-0.71,0-1.97,0.45-2.91,2.45c0.09,1.03,0.23,2.72,1.05,3.87
				c0.37,0.5,0.86,0.97,1.59,0.97c0.98,0,2.53-0.92,2.53-3.96C451.81,222.82,451.53,220.41,449.56,220.41z"/>
			<path d="M473.95,220.1h-8.66c-0.45,0.86-0.96,2.05-1.19,2.59h4.89l0.63-0.56c0.09-0.07,0.17-0.14,0.26-0.14s0.19,0.11,0.28,0.2
				l0.87,0.83c0.07,0.07,0.16,0.18,0.16,0.29c0,0.23-0.33,0.32-0.87,0.49c-0.79,3.76-1.19,5.74-4.5,5.67
				c-0.21-1.21-1.29-1.82-1.75-2.05l0.02-0.11c1.54,0.41,2.9,0.47,2.95,0.47c0.87,0,1.41-0.59,2.06-4.65h-5.17
				c-0.25,0.58-0.72,1.69-0.96,2.05c-0.14,0.2-0.37,0.31-0.68,0.31c-0.3,0-0.68-0.16-0.68-0.45c0-0.11,0.05-0.27,0.11-0.36
				c1.05-2.05,1.17-2.3,2.18-4.57h-3.26c-0.47,0-1.29,0.02-2.06,0.16l-0.35-0.7c1.38,0.11,2.38,0.11,2.69,0.11h10.67l0.79-0.99
				c0.09-0.11,0.17-0.22,0.28-0.22c0.09,0,0.23,0.11,0.31,0.18l1.08,1.01c0.09,0.07,0.17,0.16,0.17,0.27
				C474.21,220.1,474.03,220.1,473.95,220.1z M470.37,214.63c0,0.7,0.02,2.48,0.02,3.15c0,0.25,0,0.74-0.75,0.74
				c-0.56,0-0.59-0.27-0.54-0.88h-6.04c0,0.45-0.02,1.01-0.86,1.01c-0.28,0-0.47-0.22-0.47-0.47c0-0.13,0.07-0.7,0.07-0.83
				c0.03-0.63,0.09-1.48,0.09-2.36c0-0.94-0.05-1.31-0.21-2.03l1.62,0.79h5.66l0.35-0.43c0.07-0.09,0.17-0.2,0.24-0.2
				c0.07,0,0.21,0.09,0.28,0.14l0.84,0.52c0.1,0.07,0.19,0.2,0.19,0.31C470.86,214.19,470.74,214.34,470.37,214.63z M469.11,214.18
				h-6.04v3.02h6.04V214.18z"/>
			<path d="M91.87,244.36c-0.38,0-0.56-0.32-0.69-0.58c-0.38-0.76-0.81-1.53-1.35-2.18c-0.02,4.5-0.02,5,0.02,6.24
				c0,0.26,0.07,1.39,0.07,1.62c0,0.63-0.56,0.76-0.81,0.76c-0.51,0-0.51-0.37-0.51-0.53c0-0.19,0.07-1,0.07-1.17
				c0.05-1.31,0.03-1.65,0.08-5.81c-1.52,1.56-2.77,2.23-3.27,2.5l-0.07-0.12c1.86-1.67,4.24-4.81,4.98-6.44h-2.31
				c-0.41,0-1.2,0.02-1.95,0.15l-0.31-0.66c1.12,0.08,2.29,0.1,2.52,0.1h0.43c-0.03-2.18-0.21-2.69-0.43-3.33l1.9,0.56
				c0.1,0.03,0.2,0.14,0.2,0.22c0,0.2-0.2,0.34-0.53,0.51c-0.03,0.48-0.03,0.51,0,2.04h0.59l0.41-0.44c0.12-0.12,0.2-0.17,0.3-0.17
				s0.17,0.07,0.26,0.15l0.74,0.68c0.08,0.07,0.12,0.15,0.12,0.24c0,0.25-0.26,0.32-0.79,0.39c-0.26,0.42-0.73,1.16-1.65,2.33
				c0.17,0.05,0.92,0.32,1.75,0.94c0.3,0.22,0.83,0.61,0.83,1.29C92.46,243.9,92.31,244.36,91.87,244.36z M100.53,249.21h-6.98
				c-0.17,0-1.17,0-1.95,0.15l-0.33-0.68c1.15,0.1,2.39,0.12,2.54,0.12h1.62c0-1.73,0.02-4.49,0-6.22
				c-0.02-0.82-0.02-0.94-0.02-1.46h-0.97c-0.17,0-1.17,0-1.95,0.15l-0.33-0.68c1.1,0.1,2.24,0.12,2.54,0.12h0.71
				c0-0.29-0.02-1.41-0.02-1.7c-0.02-2.74-0.02-3.09-0.48-4.08l1.83,0.44c0.25,0.05,0.4,0.17,0.4,0.32c0,0.22-0.31,0.41-0.56,0.51
				c-0.02,0.42-0.02,3.79-0.02,4.5h1.67l0.61-0.83c0.1-0.14,0.16-0.2,0.26-0.2c0.08,0,0.18,0.07,0.31,0.19l0.91,0.82
				c0.1,0.08,0.16,0.19,0.16,0.27c0,0.12-0.13,0.17-0.25,0.17h-3.68v4.61l0.02,3.08h1.76l0.78-0.88c0.12-0.14,0.2-0.19,0.28-0.19
				s0.18,0.03,0.31,0.17l0.91,0.87c0.08,0.08,0.15,0.19,0.15,0.27C100.77,249.16,100.63,249.21,100.53,249.21z"/>
			<path d="M117.4,237.16c0,0.39-0.02,1.07-0.02,2.28c0,2.43,0.07,5.51,0.12,8.07c0,0.31,0.05,1.65,0.05,1.94
				c0,0.82-0.63,0.87-0.86,0.87c-0.48,0-0.49-0.41-0.46-1h-10.08c0.02,0.36,0.02,0.49-0.02,0.63c-0.07,0.31-0.46,0.56-0.81,0.56
				c-0.54,0-0.54-0.41-0.54-0.63c0-0.05,0.12-3.82,0.13-4.56c0.1-3.23,0.12-4.69,0.12-5.93c0-1.05,0-3.21-0.23-4.05l1.6,0.9h9.67
				l0.54-0.46c0.08-0.07,0.21-0.2,0.3-0.2c0.1,0,0.15,0.03,0.33,0.2l0.66,0.58c0.1,0.08,0.16,0.17,0.16,0.25
				C118.06,236.78,117.71,237.02,117.4,237.16z M116.23,236.65h-10.08v12.26h10.08V236.65z M115.61,240.76h-2.42
				c0.02,4.27,0.02,4.67,0.02,5.24c-0.02,1.07-0.03,2.07-1.75,2.33c-0.12-0.48-0.48-1.12-1.48-1.67v-0.14
				c0.07,0.02,1.37,0.14,1.6,0.14c0.5,0,0.54-0.2,0.54-0.95c0-0.39-0.03-1.75-0.03-2.23c0-0.27-0.02-1.04-0.03-2.72h-3.28
				c-0.21,0-1.14,0-1.95,0.15l-0.33-0.68c1.11,0.1,2.24,0.12,2.54,0.12h3.02c0-2.4,0-2.67-0.25-3.37l1.62,0.51
				c0.13,0.05,0.26,0.12,0.26,0.27c0,0.24-0.33,0.37-0.49,0.44v2.14h0.69l0.54-0.7c0.08-0.1,0.15-0.2,0.25-0.2
				c0.1,0,0.16,0.05,0.3,0.17l0.73,0.7c0.08,0.08,0.17,0.15,0.17,0.25C115.86,240.74,115.71,240.76,115.61,240.76z M109.86,245.21
				c-0.56,0-0.64-0.39-0.78-1.22c-0.13-0.77-0.4-1.36-0.73-1.97l0.08-0.07c1.2,0.7,2.11,1.5,2.11,2.46
				C110.55,245.06,110.12,245.21,109.86,245.21z"/>
			<path d="M121.58,239.59c0.69,0.08,2.39,0.59,2.39,1.77c0,0.36-0.18,0.75-0.68,0.75c-0.45,0-0.51-0.17-0.94-1.19
				c-0.25-0.61-0.61-1.04-0.81-1.26L121.58,239.59z M126.18,237.94c-0.28,1.14-1.47,6.14-1.73,7.14c-0.28,1.1-0.4,1.5-0.4,1.82
				c0,0.37,0.03,0.61,0.23,1.27c0.13,0.48,0.35,1.22,0.35,1.46c0,0.48-0.26,0.92-0.81,0.92c-0.3,0-0.77-0.15-0.77-0.99
				c0-0.31,0.07-1.67,0.07-1.94c0-1.09-0.78-1.51-1.12-1.61l-0.02-0.1c0.89-0.14,1.14-0.48,1.4-1.04c0.76-1.68,2.57-6.66,2.67-6.95
				L126.18,237.94z M123.1,235.32c1.34,0.25,2.44,0.93,2.44,1.87c0,0.25-0.15,0.75-0.64,0.75c-0.45,0-0.56-0.27-0.86-0.95
				c-0.23-0.56-0.58-1.12-0.96-1.6L123.1,235.32z M134.07,242.83l0.73-0.9c0.12-0.14,0.15-0.2,0.26-0.2c0.1,0,0.17,0.07,0.3,0.19
				l1.01,0.88c0.08,0.07,0.16,0.15,0.16,0.25c0,0.15-0.15,0.19-0.25,0.19h-5.01c-1.86,3.28-3.23,4.96-3.25,4.98
				c1.57-0.07,3.69-0.32,5.21-0.61c-0.68-0.99-1.07-1.38-1.48-1.72l0.07-0.08c1.91,0.8,2.71,1.33,3.4,2.19
				c0.07,0.08,0.63,0.78,0.63,1.43c0,0.53-0.43,0.75-0.71,0.75c-0.3,0-0.54-0.15-0.86-0.77c-0.36-0.7-0.56-1.07-0.87-1.56
				c-0.4,0.15-2.62,0.99-6.68,1.75c-0.18,0.37-0.21,0.42-0.35,0.42c-0.15,0-0.25-0.24-0.26-0.27l-0.71-1.58
				c0.43,0.07,0.76,0.1,1.14,0.1c0.35,0,0.91-0.02,1.11-0.03c0.74-1.31,1.63-3.57,1.98-5h-1.81c-0.3,0-1.14,0-1.95,0.15l-0.33-0.68
				c1.21,0.1,2.26,0.12,2.54,0.12h1.93v-3.79h-1.14c-0.28,0-1.15,0-1.95,0.15l-0.33-0.68c0.84,0.07,1.7,0.12,2.54,0.12h0.88
				c-0.05-2.35-0.05-2.62-0.38-3.74l1.86,0.53c0.12,0.03,0.28,0.08,0.28,0.24c0,0.25-0.41,0.41-0.63,0.49v2.48h2.28l0.64-0.75
				c0.1-0.12,0.18-0.22,0.26-0.22c0.07,0,0.15,0.07,0.3,0.19l0.94,0.75c0.08,0.07,0.17,0.15,0.17,0.26c0,0.15-0.13,0.19-0.25,0.19
				h-4.34v3.79H134.07z"/>
			<path d="M154.4,248.82c-0.99,0.22-1.35,0.58-1.86,1.19c-2.03-1.29-3.38-3.42-4.22-5.71c-0.56-1.51-1.12-3.57-1.2-7.73
				c-0.07,0.02-0.1,0.02-0.18,0.03c-0.17,5.78-1.25,11.17-7.14,13.36l-0.07-0.14c2.01-1.24,3.73-3.55,4.5-5.2
				c1.19-2.53,1.45-6.14,1.45-8.04c0-0.82-0.07-1.02-0.15-1.29l2,0.53c0.28,0.07,0.33,0.1,0.33,0.24c0,0.27-0.26,0.37-0.43,0.42
				c0.12,2.96,0.99,6.53,2.52,8.79c1.6,2.33,3.65,3.11,4.47,3.42L154.4,248.82z"/>
			<path d="M171.43,242.15c-3.23-1.41-5.51-3.99-6.42-5.98h-0.1c-2.06,3.21-5.67,6.44-8.08,7.09l-0.07-0.1
				c2.82-2.04,4.78-4.03,6.73-7.36c0.38-0.63,0.4-0.78,0.45-1.07l1.55,0.87c0.08,0.05,0.13,0.1,0.13,0.22
				c0,0.08-0.07,0.24-0.35,0.31c1.57,2.29,4.7,4.23,7.5,4.49v0.14C172.61,240.85,171.8,241.32,171.43,242.15z M171.47,249.62h-11.23
				c-0.17,0-1.19,0-1.95,0.15l-0.33-0.68c1.14,0.1,2.39,0.12,2.54,0.12h3.56v-3.28h-2.41c-0.41,0-1.2,0-1.95,0.15l-0.33-0.68
				c1.02,0.08,2.05,0.12,2.54,0.12h2.14v-3.06h-1.5c-0.41,0-1.2,0.02-1.95,0.15l-0.31-0.68c1.12,0.1,2.29,0.12,2.52,0.12H167
				l0.64-0.83c0.1-0.12,0.16-0.19,0.23-0.19c0.1,0,0.16,0.03,0.28,0.14l1.09,0.85c0.05,0.03,0.16,0.14,0.16,0.25
				c0,0.17-0.15,0.19-0.25,0.19h-3.94v3.06h2.46l0.59-0.8c0.07-0.1,0.17-0.2,0.25-0.2c0.07,0,0.13,0.02,0.31,0.17l0.97,0.8
				c0.08,0.07,0.17,0.14,0.17,0.26c0,0.15-0.13,0.19-0.25,0.19h-4.5v3.28h4.03l0.79-0.92c0.05-0.05,0.13-0.15,0.21-0.15
				s0.17,0.08,0.3,0.19l1.01,0.85c0.08,0.07,0.17,0.15,0.17,0.25C171.72,249.6,171.57,249.62,171.47,249.62z"/>
			<path d="M184.63,237.73c-0.03,0.95-0.03,1.51-0.03,2.48c0,2.99,0.08,7.1,0.15,8.13c0,0.1,0.03,0.54,0.03,0.65
				c0,0.63-0.64,0.82-0.94,0.82c-0.33,0-0.43-0.19-0.43-0.51c0-0.02,0-0.25,0.03-0.68h-6.1c0.02,0.49,0.03,1.24-0.91,1.24
				c-0.35,0-0.45-0.2-0.45-0.46c0-0.12,0.05-0.99,0.08-1.48c0.07-1.31,0.12-6.09,0.12-7.28c0-3.62-0.08-4.03-0.26-4.78l1.67,0.88
				h5.63l0.51-0.51c0.13-0.14,0.21-0.2,0.33-0.2c0.1,0,0.2,0.08,0.31,0.19l0.71,0.66c0.12,0.12,0.2,0.22,0.2,0.32
				C185.27,237.41,185.06,237.53,184.63,237.73z M183.46,237.16h-6.14v5.15h6.14V237.16z M183.46,242.71h-6.14v5.49h6.14V242.71z"/>
			<path d="M191.48,238.92c-0.41,0-1.2,0-1.95,0.15l-0.33-0.68c1.12,0.1,2.29,0.12,2.54,0.12h4.01c0-0.56,0-2.45-0.33-3.5l1.78,0.56
				c0.15,0.05,0.23,0.1,0.23,0.22c0,0.15-0.08,0.27-0.59,0.54c0,0.12-0.02,1.44-0.03,2.18h3.89l0.78-0.95
				c0.12-0.15,0.2-0.22,0.28-0.22c0.08,0,0.18,0.07,0.33,0.19l1.2,0.94c0.12,0.08,0.17,0.19,0.17,0.27c0,0.12-0.08,0.19-0.25,0.19
				h-6.05c1.29,3.06,4.27,6.27,7.11,6.99v0.12c-0.68,0.14-1.12,0.22-1.9,1.05c-1.95-1.5-3.08-3.03-3.81-4.28
				c-1.2-2.09-1.65-3.79-1.67-3.88h-0.08c-0.02,1.07-0.03,1.8-0.03,1.99c0,0.75,0.03,4.05,0.03,4.73h0.99l0.58-0.71
				c0.12-0.14,0.2-0.2,0.28-0.2s0.18,0.07,0.3,0.17l0.79,0.7c0.12,0.1,0.17,0.19,0.17,0.27c0,0.1-0.1,0.19-0.25,0.19h-2.85
				c0.02,0.54,0.1,3.01,0.1,3.52c0,0.78-0.71,0.85-0.88,0.85c-0.54,0-0.54-0.36-0.54-0.53c0-0.51,0.1-1.31,0.12-1.82
				c0.05-0.99,0.07-1.58,0.07-2.02h-0.91c-0.41,0-1.2,0-1.95,0.15l-0.33-0.68c1.02,0.08,2.05,0.12,2.54,0.12h0.64
				c0.02-0.77,0.08-4.9,0.08-5.35c-1.06,1.92-3.42,5.42-7.04,6.83l-0.05-0.1c3.91-2.98,6.07-6.99,6.47-8.09H191.48z"/>
			<path d="M221.17,237.04h-6.52l0.58,0.51c0.12,0.1,0.2,0.2,0.2,0.31c0,0.19-0.28,0.27-0.69,0.29c-0.23,0.37-0.54,0.92-1.21,1.9
				l0.94,0.31c0.13,0.05,0.26,0.1,0.26,0.27s-0.17,0.36-0.56,0.58c-0.02,0.92-0.03,1.36-0.03,3.06c0,2.24,0.02,3.43,0.05,4.27
				c0,0.19,0.05,1.12,0.05,1.33c0,0.6-0.59,0.82-0.86,0.82c-0.49,0-0.51-0.36-0.51-0.59c0-0.05,0-0.1,0.02-0.46
				c0.08-1.68,0.13-4.28,0.13-6.12c0-1.34-0.02-1.77-0.05-2.63c-1.01,1.39-3.4,4.62-6.65,6.25l-0.07-0.1
				c1.53-1.38,4.09-4.35,5.82-6.97c0.64-0.95,1.25-1.89,1.55-3.01h-4.67c-0.45,0-1.22,0.02-1.95,0.15l-0.33-0.68
				c0.84,0.07,1.7,0.12,2.54,0.12h9.57l0.74-0.9c0.1-0.12,0.18-0.2,0.28-0.2c0.1,0,0.23,0.08,0.38,0.2l1.07,0.87
				c0.07,0.05,0.17,0.15,0.17,0.25C221.43,237,221.3,237.04,221.17,237.04z M220.46,245.88c-0.54,0-0.72-0.32-1.38-1.46
				c-0.46-0.8-1.88-2.86-3.46-3.74l0.03-0.1c2.51,0.54,5.46,2.96,5.46,4.52C221.1,245.67,220.74,245.88,220.46,245.88z"/>
			<path d="M233.19,238.84h-3.89v1.41h1.52l0.4-0.49c0.08-0.1,0.15-0.17,0.23-0.17c0.07,0,0.17,0.03,0.28,0.15l0.61,0.56
				c0.08,0.07,0.15,0.17,0.15,0.29c0,0.12-0.08,0.24-0.41,0.46c-0.03,0.49,0.02,2.65,0.02,3.08c0,0.2,0,0.9-0.78,0.9
				c-0.21,0-0.31-0.17-0.3-0.44h-1.72v1.53h1.24l0.45-0.56c0.1-0.12,0.18-0.2,0.28-0.2c0.08,0,0.18,0.07,0.33,0.19l0.66,0.54
				c0.1,0.08,0.17,0.17,0.17,0.27s-0.08,0.17-0.26,0.17h-2.85v1.56c1.29-0.22,2.23-0.37,3.15-0.6v0.14
				c-1.75,0.85-5.44,1.9-6.76,2.19c-0.1,0.25-0.2,0.41-0.36,0.41c-0.12,0-0.2-0.07-0.26-0.2l-0.76-1.48
				c0.21,0.03,0.35,0.05,0.64,0.05c0.72,0,2.06-0.17,3.33-0.36v-1.72H227c-0.15,0-1.17,0-1.95,0.15l-0.31-0.68
				c1.12,0.1,2.29,0.12,2.52,0.12h1.01v-1.53h-1.7c0.02,0.22,0.02,0.41-0.13,0.56c-0.13,0.14-0.43,0.31-0.64,0.31
				c-0.18,0-0.31-0.08-0.31-0.48c0-0.66,0.05-3.54,0.05-4.11c0-0.05-0.03-0.99-0.13-1.38l1.35,0.76h1.52v-1.41h-1.62
				c-0.41,0-1.2,0.02-1.93,0.15l-0.33-0.68c1.04,0.08,2.08,0.12,2.54,0.12h1.34v-1.33c-0.83,0.12-1.85,0.22-2.72,0.22
				c-0.36,0-0.53,0-0.78-0.02v-0.12c1.85-0.41,4.72-1.1,6.14-2.06l1.02,0.93c0.08,0.08,0.13,0.15,0.13,0.26c0,0.15-0.15,0.2-0.4,0.2
				c-0.1,0-0.23-0.03-0.35-0.07c-0.51,0.15-0.91,0.27-2.03,0.48v1.5h1.98l0.56-0.73c0.12-0.14,0.18-0.2,0.28-0.2s0.2,0.07,0.31,0.17
				l0.84,0.73c0.08,0.07,0.17,0.17,0.17,0.25C233.44,238.79,233.34,238.84,233.19,238.84z M228.27,240.66h-1.72v1.51h1.72V240.66z
				 M228.27,242.58h-1.72v1.6h1.72V242.58z M231.03,240.66h-1.73v1.51h1.73V240.66z M231.03,242.58h-1.73v1.6h1.73V242.58z
				 M238.65,240.37c0.02,5.69-0.3,7.09-0.66,8.11c-0.35,0.99-0.97,1.78-2.41,2.01c-0.15-0.93-0.97-1.48-1.78-1.9l0.05-0.12
				c0.97,0.24,1.9,0.25,2.01,0.25c0.4,0,0.79,0,1.14-0.95c0.23-0.66,0.59-4.16,0.59-6c0-0.53-0.02-1.27-0.1-1.79h-1.7
				c0,2.75-0.26,8.47-5.03,10.62l-0.08-0.1c3.76-2.96,3.89-7.46,3.96-10.52c-0.54,0.02-1.2,0.02-1.9,0.15l-0.33-0.68
				c0.64,0.05,1.09,0.08,2.23,0.12c0.05-2.48-0.07-3.65-0.31-4.64l1.72,0.59c0.18,0.07,0.28,0.15,0.28,0.27
				c0,0.1-0.05,0.17-0.12,0.24c-0.05,0.05-0.28,0.22-0.41,0.31v3.23h1.42l0.56-0.58c0.13-0.14,0.21-0.19,0.3-0.19
				c0.1,0,0.17,0.03,0.33,0.17l0.64,0.53c0.1,0.09,0.17,0.17,0.17,0.29C239.21,239.96,238.96,240.17,238.65,240.37z"/>
			<path d="M256.57,241.15h-11.23c0.15,5.24-0.53,7.45-2.79,9.32l-0.08-0.07c1.43-2.09,1.73-4.59,1.75-6.7
				c0-1.05-0.08-2.69-0.36-3.72l1.63,0.77h5.31c0.43-0.97,1.09-2.46,1.25-3.31h-6.66c-0.43,0-1.2,0.02-1.95,0.15l-0.31-0.68
				c1.04,0.08,2.06,0.12,2.52,0.12h3.46c-0.05-1.16-0.18-1.72-0.26-2.04l1.71,0.43c0.12,0.03,0.23,0.07,0.23,0.24
				s-0.4,0.39-0.58,0.49v0.88h3.48l0.71-0.82c0.13-0.15,0.18-0.22,0.26-0.22c0.07,0,0.13,0.03,0.3,0.17l1.06,0.83
				c0.08,0.07,0.16,0.15,0.16,0.25c0,0.17-0.13,0.19-0.25,0.19h-3.33l1.01,0.58c0.1,0.05,0.13,0.12,0.13,0.19
				c0,0.24-0.25,0.29-0.68,0.39c-0.74,0.92-1.07,1.27-1.93,2.16h3.22l0.61-0.77c0.1-0.14,0.17-0.2,0.25-0.2
				c0.07,0,0.16,0.05,0.33,0.17l1.09,0.76c0.12,0.08,0.18,0.15,0.18,0.25C256.82,241.12,256.69,241.15,256.57,241.15z
				 M256.71,249.74h-9.45c-0.17,0-1.17,0-1.95,0.15l-0.31-0.68c1.14,0.1,2.39,0.12,2.52,0.12h2.31v-2.43h-1.09
				c-0.41,0-1.2,0.02-1.93,0.15l-0.33-0.68c1.12,0.1,2.33,0.12,2.54,0.12h0.81v-2.09h-2.24c-0.64,1.05-1.07,1.75-2.14,2.7
				l-0.08-0.05c0.81-1.56,1.9-3.93,2.13-5.42l1.45,0.65c0.15,0.07,0.17,0.14,0.17,0.19c0,0.15-0.07,0.19-0.58,0.44
				c-0.13,0.17-0.46,0.71-0.68,1.09h1.98c-0.03-1.63-0.03-1.8-0.18-2.58l1.6,0.31c0.08,0.02,0.21,0.05,0.21,0.2
				s-0.26,0.32-0.53,0.49c0,0.24-0.02,1.34-0.02,1.58h2.42l0.58-0.82c0.1-0.14,0.18-0.22,0.26-0.22c0.08,0,0.15,0.07,0.3,0.19
				l0.96,0.82c0.13,0.1,0.16,0.19,0.16,0.26c0,0.15-0.15,0.19-0.26,0.19h-4.42v2.09h1.96l0.49-0.63c0.13-0.15,0.17-0.2,0.26-0.2
				c0.07,0,0.13,0.05,0.3,0.17l0.91,0.65c0.13,0.1,0.16,0.17,0.16,0.24c0,0.17-0.15,0.19-0.25,0.19h-3.84v2.43h3.56l0.74-0.71
				c0.1-0.08,0.21-0.19,0.28-0.19c0.05,0,0.13,0.05,0.3,0.17l0.99,0.7c0.08,0.07,0.17,0.15,0.17,0.26
				C256.95,249.7,256.82,249.74,256.71,249.74z M247.47,240.49c-0.4,0-0.43-0.12-0.79-1.1c-0.28-0.75-0.58-1.24-0.96-1.63l0.03-0.08
				c0.68,0.24,2.39,0.85,2.39,2.02C248.15,240.1,247.88,240.49,247.47,240.49z"/>
			<path d="M265.16,239.38h-2.33c-0.03,3.72-0.03,4.54-0.03,5.58c0,0.75,0.05,4.06,0.05,4.74c0,0.31,0,0.83-0.81,0.83
				c-0.18,0-0.48-0.07-0.48-0.48c0-0.25,0.1-1.43,0.12-1.68c0.05-1.22,0.05-1.75,0.07-5c0.02-2.4,0.02-2.53,0.03-3.99
				c-0.59,0-1.29,0.05-1.88,0.15l-0.33-0.66c0.46,0.03,1.04,0.08,2.21,0.1c0-2.52-0.03-3.38-0.38-4.1l1.81,0.53
				c0.1,0.03,0.21,0.1,0.21,0.24c0,0.17-0.05,0.2-0.58,0.51c0,0.46-0.02,2.43-0.02,2.82h0.78l0.5-0.54c0.08-0.1,0.18-0.22,0.26-0.22
				c0.07,0,0.2,0.08,0.3,0.19l0.59,0.56c0.08,0.09,0.15,0.15,0.15,0.26C265.41,239.37,265.28,239.38,265.16,239.38z M268.97,244.6
				c-0.43,4.76-0.92,5.44-2.67,5.63c-0.17-0.95-0.21-1.14-0.88-1.68l0.05-0.14c0.76,0.27,1.19,0.29,1.32,0.29
				c0.43,0,0.53-0.1,0.79-1.43c0.12-0.56,0.33-1.67,0.36-3.14h-1.2c-0.31,2.04-1.16,4.71-3.56,5.93l-0.07-0.08
				c1.24-1.12,2.31-3.08,2.57-5.83c-0.53,0-1.14,0.05-1.65,0.15l-0.33-0.68c0.61,0.05,1.09,0.08,2.01,0.1
				c0.08-1.29-0.05-1.8-0.1-2.06l1.5,0.54c0.15,0.05,0.21,0.15,0.21,0.24c0,0.14-0.36,0.37-0.45,0.42
				c-0.03,0.32-0.03,0.46-0.08,0.85h0.99l0.4-0.42c0.12-0.12,0.16-0.17,0.23-0.17s0.15,0.08,0.21,0.15l0.68,0.61
				c0.07,0.07,0.13,0.14,0.13,0.24C269.45,244.24,269.4,244.28,268.97,244.6z M272.78,237.7c-0.73,3.43-1.86,3.55-2.85,3.67
				c-0.08-0.58-0.15-1.04-1.04-1.8l0.07-0.1c0.63,0.31,1.37,0.41,1.48,0.41c0.84,0,1.22-1.95,1.4-2.89h-2.42
				c-0.71,2.13-1.75,3.88-4.57,4.76l-0.02-0.1c1.65-1.14,3-2.63,3.48-4.66h-0.86c-0.41,0-1.21,0-1.95,0.15l-0.33-0.68
				c1.14,0.1,2.31,0.12,2.54,0.12h0.69c0.07-0.43,0.12-0.78,0.12-1.19c0-0.36-0.05-0.49-0.12-0.66l1.68,0.53
				c0.07,0.02,0.15,0.07,0.15,0.17c0,0.1-0.26,0.27-0.53,0.44c-0.1,0.41-0.13,0.53-0.18,0.71h2.13l0.26-0.34
				c0.08-0.1,0.2-0.15,0.28-0.15c0.1,0,0.15,0.03,0.23,0.1l0.88,0.75c0.07,0.05,0.13,0.12,0.13,0.22
				C273.44,237.34,273.03,237.56,272.78,237.7z M274.55,244.31c-0.15,0.08-0.23,0.15-0.35,0.24c-0.03,1.78-0.25,4.08-0.76,4.93
				c-0.1,0.17-0.53,0.87-1.98,1c-0.35-1.05-0.36-1.09-0.94-1.67l0.05-0.14c0.84,0.29,1.32,0.29,1.4,0.29c0.66,0,0.71-0.31,0.91-1.43
				c0.12-0.73,0.31-2.79,0.25-3.37h-1.22c-0.43,2.46-1.06,4.67-3.84,6.1l-0.05-0.08c0.94-0.92,2.39-2.57,2.87-5.97
				c-0.36,0.02-0.56,0.07-0.76,0.1l-0.33-0.68c0.56,0.05,0.81,0.07,1.15,0.08c0.02-0.17,0.05-0.6,0.05-1.24
				c0-0.82-0.07-1.04-0.13-1.27l1.57,0.58c0.13,0.05,0.21,0.17,0.21,0.25c0,0.19-0.43,0.41-0.51,0.46c-0.07,0.63-0.1,0.92-0.16,1.24
				c0.13,0.02,0.2,0.02,0.36,0.02h0.64l0.41-0.49c0.07-0.08,0.15-0.17,0.2-0.17c0.07,0,0.17,0.05,0.25,0.12l0.79,0.61
				c0.07,0.05,0.15,0.15,0.15,0.22C274.78,244.18,274.66,244.24,274.55,244.31z"/>
			<path d="M291.43,242.09c-2.85-1.31-4.95-3.84-6.02-6.12l-0.07,0.02c-1.8,3.23-5.71,6.05-7.55,6.82l-0.05-0.1
				c2.47-1.78,4.49-4.15,6.07-6.78c0.38-0.61,0.43-0.85,0.5-1.16l1.67,0.54c0.08,0.03,0.26,0.12,0.26,0.29
				c0,0.2-0.17,0.24-0.51,0.32c1.01,1.73,3.63,4.11,7.29,4.76v0.12C292.44,241.05,291.85,241.41,291.43,242.09z M291.57,244.47
				h-6.61c-0.89,1.72-2.56,3.69-2.72,3.89c2.03-0.14,4.58-0.39,6.45-0.63c-0.1-0.19-0.64-1.21-1.81-2.35l0.1-0.1
				c2.26,1.05,4.06,2.77,4.06,4.2c0,0.27-0.18,0.83-0.73,0.83c-0.54,0-0.76-0.46-0.97-1.05c-0.2-0.6-0.26-0.78-0.5-1.24
				c-1.34,0.42-7.41,1.75-8.35,1.9c-0.1,0.22-0.15,0.37-0.3,0.37c-0.13,0-0.21-0.17-0.26-0.31l-0.69-1.72
				c0.36,0.07,0.74,0.15,1.47,0.15c0.35,0,0.68-0.02,1.19-0.05c0.54-1.26,1.01-2.52,1.35-3.91h-2.33c-0.38,0-1.21,0.02-1.93,0.15
				l-0.33-0.66c1.3,0.1,2.24,0.1,2.52,0.1h7.92l0.84-0.93c0.12-0.14,0.2-0.2,0.28-0.2s0.18,0.08,0.3,0.17l1.14,0.94
				c0.07,0.05,0.16,0.15,0.16,0.25C291.81,244.47,291.65,244.47,291.57,244.47z M287.95,241.52h-4.24c-0.41,0-1.2,0.02-1.95,0.15
				l-0.33-0.68c1.14,0.1,2.33,0.12,2.54,0.12h1.85l0.74-0.85c0.08-0.08,0.17-0.2,0.26-0.2c0.08,0,0.21,0.1,0.3,0.17l0.91,0.85
				c0.08,0.08,0.17,0.15,0.17,0.27C288.2,241.51,288.05,241.52,287.95,241.52z"/>
			<path d="M309.24,242.09c-2.85-1.31-4.95-3.84-6.02-6.12l-0.07,0.02c-1.8,3.23-5.71,6.05-7.55,6.82l-0.05-0.1
				c2.47-1.78,4.49-4.15,6.07-6.78c0.38-0.61,0.43-0.85,0.5-1.16l1.67,0.54c0.08,0.03,0.26,0.12,0.26,0.29
				c0,0.2-0.17,0.24-0.51,0.32c1.01,1.73,3.63,4.11,7.29,4.76v0.12C310.25,241.05,309.65,241.41,309.24,242.09z M309.38,244.47
				h-6.62c-0.89,1.72-2.56,3.69-2.72,3.89c2.03-0.14,4.58-0.39,6.45-0.63c-0.1-0.19-0.64-1.21-1.81-2.35l0.1-0.1
				c2.26,1.05,4.06,2.77,4.06,4.2c0,0.27-0.18,0.83-0.73,0.83s-0.76-0.46-0.97-1.05c-0.2-0.6-0.26-0.78-0.49-1.24
				c-1.34,0.42-7.41,1.75-8.35,1.9c-0.1,0.22-0.15,0.37-0.3,0.37c-0.13,0-0.21-0.17-0.26-0.31l-0.69-1.72
				c0.36,0.07,0.74,0.15,1.47,0.15c0.35,0,0.68-0.02,1.19-0.05c0.54-1.26,1.01-2.52,1.35-3.91h-2.33c-0.38,0-1.2,0.02-1.93,0.15
				l-0.33-0.66c1.3,0.1,2.24,0.1,2.52,0.1h7.92l0.84-0.93c0.12-0.14,0.2-0.2,0.28-0.2c0.08,0,0.18,0.08,0.3,0.17l1.14,0.94
				c0.07,0.05,0.17,0.15,0.17,0.25C309.62,244.47,309.46,244.47,309.38,244.47z M305.76,241.52h-4.24c-0.41,0-1.21,0.02-1.95,0.15
				l-0.33-0.68c1.14,0.1,2.33,0.12,2.54,0.12h1.85l0.74-0.85c0.08-0.08,0.16-0.2,0.26-0.2c0.08,0,0.21,0.1,0.3,0.17l0.91,0.85
				c0.08,0.08,0.17,0.15,0.17,0.27C306.01,241.51,305.86,241.52,305.76,241.52z"/>
			<path d="M313.38,250.4c0.78-0.29,2.13-0.97,3.78-2.18c0.69-0.49,0.84-0.78,1.09-1.19l1.42,0.92c0.07,0.05,0.18,0.15,0.18,0.27
				c0,0.26-0.41,0.27-0.94,0.29c-1.58,1.02-3.79,1.87-5.51,2.01L313.38,250.4z M324.43,240.17l0.41-0.42
				c0.07-0.07,0.17-0.2,0.26-0.2c0.08,0,0.13,0.05,0.25,0.14l0.71,0.56c0.12,0.09,0.21,0.2,0.21,0.32c0,0.15-0.23,0.32-0.61,0.54
				c-0.03,0.71,0.1,5.22,0.1,5.64c0,0.46-0.35,0.83-0.79,0.83c-0.46,0-0.45-0.41-0.43-0.66h-7.44c-0.03,0.41-0.07,0.9-0.79,0.9
				c-0.48,0-0.48-0.37-0.48-0.51c0-0.24,0.07-0.82,0.07-0.95c0.02-0.48,0.07-2.33,0.07-4.16c0-1.7-0.03-1.96-0.18-2.6l1.53,0.58
				H324.43z M324.02,235.9l0.48-0.49c0.08-0.08,0.16-0.19,0.23-0.19c0.08,0,0.15,0.05,0.23,0.12l0.71,0.56
				c0.08,0.07,0.15,0.15,0.15,0.25c0,0.15-0.17,0.31-0.54,0.56c-0.02,0.31,0.03,1.7,0.03,1.97c0,0.51-0.41,0.7-0.69,0.7
				c-0.53,0-0.51-0.37-0.48-0.68h-6.56c0,0.25,0,0.78-0.73,0.78c-0.48,0-0.48-0.31-0.48-0.51c0-0.07,0.07-1.63,0.07-1.94
				c0-1.07-0.03-1.58-0.15-2.02l1.53,0.88H324.02z M317.12,240.57v1.61h7.42v-1.61H317.12z M317.12,242.6v1.6h7.42v-1.6H317.12z
				 M317.12,244.6v1.9h7.42v-1.9H317.12z M317.57,236.31v1.99h6.56v-1.99H317.57z M322.1,247.32c2.14,0.14,4.8,1.22,4.8,2.52
				c0,0.48-0.33,0.68-0.66,0.68c-0.41,0-0.63-0.22-1.09-0.71c-0.94-1.02-1.6-1.6-3.07-2.41L322.1,247.32z"/>
			<path d="M354.84,237.41c-1.6,2.52-2.85,4.4-6,6.29l-0.08-0.12c2.66-2.63,5-6.12,4.87-7.85l1.68,1.04c0.08,0.05,0.2,0.15,0.2,0.29
				C355.5,237.22,355.35,237.31,354.84,237.41z M361.65,249.74c-0.4,0-0.68-0.27-0.87-0.75c-0.58-1.34-0.64-1.5-0.69-1.61
				c-2.43,0.88-7.55,1.94-8.23,2.07c-0.28,0.37-0.36,0.46-0.51,0.46s-0.23-0.17-0.26-0.27l-0.54-1.77c0.35,0.07,0.81,0.15,1.35,0.15
				c0.13,0,1.09-0.08,1.29-0.1c0.86-1.82,1.93-4.64,2.21-6.14c0.07-0.31,0.07-0.68,0.05-0.99l1.72,0.75
				c0.1,0.05,0.25,0.14,0.25,0.29c0,0.2-0.2,0.29-0.56,0.41c-0.18,0.31-0.31,0.54-1.52,2.72c-0.49,0.87-1.04,1.79-1.76,2.91
				c1.9-0.2,4.24-0.49,6.35-0.78c-0.86-1.24-1.32-1.72-1.95-2.23l0.05-0.12c1.93,0.73,4.37,2.43,4.37,4.1
				C362.38,249.58,361.85,249.74,361.65,249.74z M362.7,243.16c-0.53-0.29-1.88-1.05-3.1-2.79c-1.21-1.7-1.4-2.86-1.62-4.06
				c-0.41,0.02-1.37,0.02-2.16,0.19l-0.35-0.68c0.43,0.03,1.27,0.08,2.13,0.08l0.48-0.58c0.12-0.14,0.18-0.22,0.26-0.22
				s0.18,0.07,0.35,0.19l0.73,0.54c0.07,0.05,0.17,0.14,0.17,0.25c0,0.15-0.12,0.22-0.38,0.34c-0.38,0.15-0.53,0.22-0.76,0.31
				c0.58,2.23,2.75,4.42,5.89,4.86v0.12C363.88,241.9,363.17,242.17,362.7,243.16z"/>
			<path d="M380.37,244.79c-2.24-0.92-4.22-3.2-5.05-5.44h-1.96c-1.3,1.78-2.43,3.15-3.96,4.33l1.25,0.56h6.37l0.53-0.53
				c0.12-0.12,0.18-0.17,0.25-0.17c0.07,0,0.13,0.05,0.23,0.14l0.66,0.53c0.12,0.08,0.18,0.17,0.18,0.25c0,0.1-0.07,0.19-0.53,0.53
				c-0.03,0.59-0.03,0.8-0.03,1.97v2.4h0.92l0.66-0.92c0.12-0.17,0.18-0.22,0.28-0.22c0.1,0,0.18,0.07,0.3,0.2l0.84,0.9
				c0.1,0.12,0.17,0.2,0.17,0.29c0,0.12-0.12,0.15-0.25,0.15H369c-0.41,0-1.2,0.02-1.95,0.15l-0.33-0.66
				c0.99,0.08,2.01,0.1,2.74,0.1c-0.02-4.08-0.03-4.93-0.17-5.61c-1.35,1.02-2.39,1.41-3.07,1.67l-0.07-0.15
				c2.21-1.33,4.72-4.23,5.39-5.92h-1.73c-0.17,0-1.19,0.02-1.95,0.17l-0.33-0.68c1.15,0.1,2.39,0.1,2.54,0.1h4.88
				c1.07-1.38,2.05-2.79,2.33-4.22l1.47,1.07c0.12,0.08,0.18,0.17,0.18,0.27c0,0.24-0.43,0.31-0.84,0.36
				c-0.74,0.83-1.85,1.87-2.77,2.52h3.2l0.72-0.75c0.1-0.1,0.18-0.19,0.26-0.19c0.08,0,0.18,0.07,0.3,0.17l0.87,0.75
				c0.1,0.08,0.17,0.19,0.17,0.27c0,0.1-0.07,0.15-0.25,0.15h-5.06c0.94,1.61,2.99,3.48,6.5,4.06v0.1
				C381.49,243.7,380.91,243.89,380.37,244.79z M371.67,238.47c-0.41,0-0.51-0.22-1.01-1.27c-0.23-0.51-0.64-1.26-1.32-1.85
				l0.07-0.07c0.86,0.25,2.95,0.9,2.95,2.46C372.37,238.35,371.89,238.47,371.67,238.47z M372.02,244.65h-1.45v4.71h1.45V244.65z
				 M374.61,244.65h-1.45v4.71h1.45V244.65z M377.22,244.65h-1.5v4.71h1.5V244.65z"/>
			<path d="M390.37,244.36c-0.38,0-0.56-0.32-0.69-0.58c-0.38-0.76-0.81-1.53-1.35-2.18c-0.02,4.5-0.02,5,0.02,6.24
				c0,0.26,0.07,1.39,0.07,1.62c0,0.63-0.56,0.76-0.81,0.76c-0.51,0-0.51-0.37-0.51-0.53c0-0.19,0.07-1,0.07-1.17
				c0.05-1.31,0.03-1.65,0.08-5.81c-1.52,1.56-2.77,2.23-3.27,2.5l-0.07-0.12c1.86-1.67,4.24-4.81,4.98-6.44h-2.31
				c-0.41,0-1.2,0.02-1.95,0.15l-0.31-0.66c1.12,0.08,2.29,0.1,2.52,0.1h0.43c-0.03-2.18-0.21-2.69-0.43-3.33l1.9,0.56
				c0.1,0.03,0.2,0.14,0.2,0.22c0,0.2-0.2,0.34-0.53,0.51c-0.03,0.48-0.03,0.51,0,2.04H389l0.41-0.44c0.12-0.12,0.2-0.17,0.3-0.17
				c0.1,0,0.16,0.07,0.26,0.15l0.74,0.68c0.08,0.07,0.12,0.15,0.12,0.24c0,0.25-0.26,0.32-0.79,0.39c-0.26,0.42-0.73,1.16-1.65,2.33
				c0.17,0.05,0.92,0.32,1.75,0.94c0.3,0.22,0.83,0.61,0.83,1.29C390.97,243.9,390.82,244.36,390.37,244.36z M399.03,249.21h-6.98
				c-0.16,0-1.17,0-1.95,0.15l-0.33-0.68c1.15,0.1,2.39,0.12,2.54,0.12h1.62c0-1.73,0.02-4.49,0-6.22
				c-0.02-0.82-0.02-0.94-0.02-1.46h-0.97c-0.16,0-1.17,0-1.95,0.15l-0.33-0.68c1.1,0.1,2.24,0.12,2.54,0.12h0.71
				c0-0.29-0.02-1.41-0.02-1.7c-0.02-2.74-0.02-3.09-0.48-4.08l1.83,0.44c0.25,0.05,0.4,0.17,0.4,0.32c0,0.22-0.31,0.41-0.56,0.51
				c-0.02,0.42-0.02,3.79-0.02,4.5h1.67l0.61-0.83c0.1-0.14,0.17-0.2,0.26-0.2c0.08,0,0.18,0.07,0.31,0.19l0.91,0.82
				c0.1,0.08,0.17,0.19,0.17,0.27c0,0.12-0.13,0.17-0.25,0.17h-3.68v4.61l0.02,3.08h1.77l0.77-0.88c0.12-0.14,0.2-0.19,0.28-0.19
				c0.08,0,0.18,0.03,0.31,0.17l0.91,0.87c0.08,0.08,0.15,0.19,0.15,0.27C399.28,249.16,399.13,249.21,399.03,249.21z"/>
			<path d="M415.9,237.16c0,0.39-0.02,1.07-0.02,2.28c0,2.43,0.07,5.51,0.12,8.07c0,0.31,0.05,1.65,0.05,1.94
				c0,0.82-0.63,0.87-0.86,0.87c-0.48,0-0.5-0.41-0.46-1h-10.08c0.02,0.36,0.02,0.49-0.02,0.63c-0.07,0.31-0.46,0.56-0.81,0.56
				c-0.54,0-0.54-0.41-0.54-0.63c0-0.05,0.12-3.82,0.13-4.56c0.1-3.23,0.12-4.69,0.12-5.93c0-1.05,0-3.21-0.23-4.05l1.6,0.9h9.67
				l0.54-0.46c0.08-0.07,0.21-0.2,0.3-0.2c0.1,0,0.15,0.03,0.33,0.2l0.66,0.58c0.1,0.08,0.17,0.17,0.17,0.25
				C416.56,236.78,416.22,237.02,415.9,237.16z M414.73,236.65h-10.08v12.26h10.08V236.65z M414.12,240.76h-2.42
				c0.02,4.27,0.02,4.67,0.02,5.24c-0.02,1.07-0.03,2.07-1.75,2.33c-0.12-0.48-0.48-1.12-1.48-1.67v-0.14
				c0.07,0.02,1.37,0.14,1.6,0.14c0.5,0,0.54-0.2,0.54-0.95c0-0.39-0.03-1.75-0.03-2.23c0-0.27-0.02-1.04-0.03-2.72h-3.28
				c-0.21,0-1.14,0-1.95,0.15l-0.33-0.68c1.11,0.1,2.24,0.12,2.54,0.12h3.02c0-2.4,0-2.67-0.25-3.37l1.62,0.51
				c0.13,0.05,0.26,0.12,0.26,0.27c0,0.24-0.33,0.37-0.5,0.44v2.14h0.69l0.54-0.7c0.08-0.1,0.15-0.2,0.25-0.2
				c0.1,0,0.17,0.05,0.3,0.17l0.73,0.7c0.08,0.08,0.16,0.15,0.16,0.25C414.37,240.74,414.22,240.76,414.12,240.76z M408.36,245.21
				c-0.56,0-0.64-0.39-0.78-1.22c-0.13-0.77-0.4-1.36-0.73-1.97l0.08-0.07c1.2,0.7,2.11,1.5,2.11,2.46
				C409.06,245.06,408.63,245.21,408.36,245.21z"/>
			<path d="M420.09,239.59c0.69,0.08,2.39,0.59,2.39,1.77c0,0.36-0.18,0.75-0.68,0.75c-0.45,0-0.51-0.17-0.94-1.19
				c-0.25-0.61-0.61-1.04-0.81-1.26L420.09,239.59z M424.69,237.94c-0.28,1.14-1.47,6.14-1.73,7.14c-0.28,1.1-0.4,1.5-0.4,1.82
				c0,0.37,0.03,0.61,0.23,1.27c0.13,0.48,0.35,1.22,0.35,1.46c0,0.48-0.26,0.92-0.81,0.92c-0.3,0-0.78-0.15-0.78-0.99
				c0-0.31,0.07-1.67,0.07-1.94c0-1.09-0.78-1.51-1.12-1.61l-0.02-0.1c0.89-0.14,1.14-0.48,1.4-1.04c0.76-1.68,2.57-6.66,2.67-6.95
				L424.69,237.94z M421.6,235.32c1.34,0.25,2.44,0.93,2.44,1.87c0,0.25-0.15,0.75-0.64,0.75c-0.45,0-0.56-0.27-0.86-0.95
				c-0.23-0.56-0.58-1.12-0.96-1.6L421.6,235.32z M432.57,242.83l0.73-0.9c0.12-0.14,0.15-0.2,0.26-0.2c0.1,0,0.17,0.07,0.3,0.19
				l1.01,0.88c0.08,0.07,0.17,0.15,0.17,0.25c0,0.15-0.15,0.19-0.25,0.19h-5.01c-1.87,3.28-3.23,4.96-3.25,4.98
				c1.57-0.07,3.7-0.32,5.21-0.61c-0.68-0.99-1.07-1.38-1.49-1.72l0.07-0.08c1.91,0.8,2.71,1.33,3.4,2.19
				c0.07,0.08,0.63,0.78,0.63,1.43c0,0.53-0.43,0.75-0.71,0.75c-0.3,0-0.54-0.15-0.86-0.77c-0.36-0.7-0.56-1.07-0.88-1.56
				c-0.4,0.15-2.62,0.99-6.68,1.75c-0.18,0.37-0.21,0.42-0.35,0.42c-0.15,0-0.25-0.24-0.26-0.27l-0.71-1.58
				c0.43,0.07,0.76,0.1,1.14,0.1c0.35,0,0.91-0.02,1.11-0.03c0.74-1.31,1.63-3.57,1.98-5h-1.81c-0.3,0-1.14,0-1.95,0.15l-0.33-0.68
				c1.2,0.1,2.26,0.12,2.54,0.12h1.93v-3.79h-1.14c-0.28,0-1.16,0-1.95,0.15l-0.33-0.68c0.84,0.07,1.7,0.12,2.54,0.12h0.87
				c-0.05-2.35-0.05-2.62-0.38-3.74l1.86,0.53c0.12,0.03,0.28,0.08,0.28,0.24c0,0.25-0.41,0.41-0.63,0.49v2.48h2.28l0.64-0.75
				c0.1-0.12,0.18-0.22,0.26-0.22c0.07,0,0.15,0.07,0.3,0.19l0.94,0.75c0.08,0.07,0.17,0.15,0.17,0.26c0,0.15-0.13,0.19-0.25,0.19
				h-4.34v3.79H432.57z"/>
			<path d="M452.91,248.82c-0.99,0.22-1.35,0.58-1.86,1.19c-2.03-1.29-3.38-3.42-4.22-5.71c-0.56-1.51-1.12-3.57-1.21-7.73
				c-0.07,0.02-0.1,0.02-0.18,0.03c-0.16,5.78-1.25,11.17-7.14,13.36l-0.07-0.14c2.01-1.24,3.73-3.55,4.5-5.2
				c1.19-2.53,1.45-6.14,1.45-8.04c0-0.82-0.07-1.02-0.15-1.29l2,0.53c0.28,0.07,0.33,0.1,0.33,0.24c0,0.27-0.26,0.37-0.43,0.42
				c0.12,2.96,0.99,6.53,2.52,8.79c1.6,2.33,3.64,3.11,4.47,3.42L452.91,248.82z"/>
			<path d="M470.2,237.04h-6.52l0.58,0.51c0.12,0.1,0.2,0.2,0.2,0.31c0,0.19-0.28,0.27-0.69,0.29c-0.23,0.37-0.54,0.92-1.21,1.9
				l0.94,0.31c0.13,0.05,0.26,0.1,0.26,0.27s-0.17,0.36-0.56,0.58c-0.02,0.92-0.03,1.36-0.03,3.06c0,2.24,0.02,3.43,0.05,4.27
				c0,0.19,0.05,1.12,0.05,1.33c0,0.6-0.59,0.82-0.86,0.82c-0.49,0-0.51-0.36-0.51-0.59c0-0.05,0-0.1,0.02-0.46
				c0.08-1.68,0.13-4.28,0.13-6.12c0-1.34-0.02-1.77-0.05-2.63c-1.01,1.39-3.4,4.62-6.65,6.25l-0.07-0.1
				c1.53-1.38,4.09-4.35,5.82-6.97c0.64-0.95,1.25-1.89,1.55-3.01H458c-0.45,0-1.22,0.02-1.95,0.15l-0.33-0.68
				c0.84,0.07,1.7,0.12,2.54,0.12h9.57l0.74-0.9c0.1-0.12,0.18-0.2,0.28-0.2c0.1,0,0.23,0.08,0.38,0.2l1.07,0.87
				c0.07,0.05,0.17,0.15,0.17,0.25C470.47,237,470.34,237.04,470.2,237.04z M469.49,245.88c-0.54,0-0.72-0.32-1.38-1.46
				c-0.46-0.8-1.88-2.86-3.46-3.74l0.03-0.1c2.51,0.54,5.46,2.96,5.46,4.52C470.14,245.67,469.78,245.88,469.49,245.88z"/>
			<path d="M482.23,238.84h-3.89v1.41h1.52l0.4-0.49c0.08-0.1,0.15-0.17,0.23-0.17c0.07,0,0.17,0.03,0.28,0.15l0.61,0.56
				c0.08,0.07,0.15,0.17,0.15,0.29c0,0.12-0.08,0.24-0.41,0.46c-0.03,0.49,0.02,2.65,0.02,3.08c0,0.2,0,0.9-0.78,0.9
				c-0.21,0-0.31-0.17-0.3-0.44h-1.72v1.53h1.24l0.45-0.56c0.1-0.12,0.18-0.2,0.28-0.2c0.08,0,0.18,0.07,0.33,0.19l0.66,0.54
				c0.1,0.08,0.17,0.17,0.17,0.27s-0.08,0.17-0.26,0.17h-2.85v1.56c1.29-0.22,2.23-0.37,3.15-0.6v0.14
				c-1.75,0.85-5.44,1.9-6.76,2.19c-0.1,0.25-0.2,0.41-0.36,0.41c-0.12,0-0.2-0.07-0.26-0.2l-0.76-1.48
				c0.21,0.03,0.35,0.05,0.64,0.05c0.73,0,2.06-0.17,3.33-0.36v-1.72h-1.27c-0.15,0-1.17,0-1.95,0.15l-0.31-0.68
				c1.12,0.1,2.29,0.12,2.52,0.12h1.01v-1.53h-1.7c0.02,0.22,0.02,0.41-0.13,0.56c-0.13,0.14-0.43,0.31-0.64,0.31
				c-0.18,0-0.31-0.08-0.31-0.48c0-0.66,0.05-3.54,0.05-4.11c0-0.05-0.03-0.99-0.13-1.38l1.35,0.76h1.52v-1.41h-1.62
				c-0.41,0-1.2,0.02-1.93,0.15l-0.33-0.68c1.04,0.08,2.08,0.12,2.54,0.12h1.34v-1.33c-0.82,0.12-1.85,0.22-2.72,0.22
				c-0.36,0-0.53,0-0.78-0.02v-0.12c1.85-0.41,4.72-1.1,6.14-2.06l1.02,0.93c0.08,0.08,0.13,0.15,0.13,0.26
				c0,0.15-0.15,0.2-0.39,0.2c-0.1,0-0.23-0.03-0.35-0.07c-0.51,0.15-0.91,0.27-2.03,0.48v1.5h1.98l0.56-0.73
				c0.12-0.14,0.18-0.2,0.28-0.2c0.1,0,0.2,0.07,0.31,0.17l0.84,0.73c0.08,0.07,0.16,0.17,0.16,0.25
				C482.47,238.79,482.37,238.84,482.23,238.84z M477.31,240.66h-1.72v1.51h1.72V240.66z M477.31,242.58h-1.72v1.6h1.72V242.58z
				 M480.06,240.66h-1.73v1.51h1.73V240.66z M480.06,242.58h-1.73v1.6h1.73V242.58z M487.68,240.37c0.02,5.69-0.3,7.09-0.66,8.11
				c-0.35,0.99-0.97,1.78-2.41,2.01c-0.15-0.93-0.97-1.48-1.78-1.9l0.05-0.12c0.97,0.24,1.9,0.25,2.01,0.25c0.4,0,0.79,0,1.14-0.95
				c0.23-0.66,0.59-4.16,0.59-6c0-0.53-0.02-1.27-0.1-1.79h-1.7c0,2.75-0.26,8.47-5.03,10.62l-0.08-0.1
				c3.76-2.96,3.89-7.46,3.96-10.52c-0.54,0.02-1.21,0.02-1.9,0.15l-0.33-0.68c0.64,0.05,1.09,0.08,2.23,0.12
				c0.05-2.48-0.07-3.65-0.31-4.64l1.72,0.59c0.18,0.07,0.28,0.15,0.28,0.27c0,0.1-0.05,0.17-0.12,0.24
				c-0.05,0.05-0.28,0.22-0.41,0.31v3.23h1.42l0.56-0.58c0.13-0.14,0.21-0.19,0.3-0.19c0.1,0,0.17,0.03,0.33,0.17l0.64,0.53
				c0.1,0.09,0.16,0.17,0.16,0.29C488.24,239.96,488,240.17,487.68,240.37z"/>
			<path d="M505.61,241.15h-11.23c0.15,5.24-0.53,7.45-2.79,9.32l-0.08-0.07c1.44-2.09,1.73-4.59,1.75-6.7
				c0-1.05-0.08-2.69-0.36-3.72l1.63,0.77h5.31c0.43-0.97,1.09-2.46,1.25-3.31h-6.66c-0.43,0-1.21,0.02-1.95,0.15l-0.31-0.68
				c1.04,0.08,2.06,0.12,2.52,0.12h3.46c-0.05-1.16-0.18-1.72-0.26-2.04l1.72,0.43c0.12,0.03,0.23,0.07,0.23,0.24
				s-0.4,0.39-0.58,0.49v0.88h3.48l0.71-0.82c0.13-0.15,0.18-0.22,0.26-0.22c0.07,0,0.13,0.03,0.3,0.17l1.06,0.83
				c0.08,0.07,0.17,0.15,0.17,0.25c0,0.17-0.13,0.19-0.25,0.19h-3.33l1.01,0.58c0.1,0.05,0.13,0.12,0.13,0.19
				c0,0.24-0.25,0.29-0.68,0.39c-0.74,0.92-1.07,1.27-1.93,2.16h3.22l0.61-0.77c0.1-0.14,0.17-0.2,0.25-0.2
				c0.07,0,0.17,0.05,0.33,0.17l1.09,0.76c0.12,0.08,0.18,0.15,0.18,0.25C505.86,241.12,505.73,241.15,505.61,241.15z
				 M505.74,249.74h-9.45c-0.17,0-1.17,0-1.95,0.15l-0.31-0.68c1.14,0.1,2.39,0.12,2.52,0.12h2.31v-2.43h-1.09
				c-0.41,0-1.2,0.02-1.93,0.15l-0.33-0.68c1.12,0.1,2.33,0.12,2.54,0.12h0.81v-2.09h-2.24c-0.64,1.05-1.07,1.75-2.14,2.7
				l-0.08-0.05c0.81-1.56,1.9-3.93,2.13-5.42l1.45,0.65c0.15,0.07,0.17,0.14,0.17,0.19c0,0.15-0.07,0.19-0.58,0.44
				c-0.13,0.17-0.46,0.71-0.68,1.09h1.98c-0.03-1.63-0.03-1.8-0.18-2.58l1.6,0.31c0.08,0.02,0.21,0.05,0.21,0.2
				s-0.26,0.32-0.53,0.49c0,0.24-0.02,1.34-0.02,1.58h2.42l0.58-0.82c0.1-0.14,0.18-0.22,0.26-0.22s0.15,0.07,0.3,0.19l0.96,0.82
				c0.13,0.1,0.17,0.19,0.17,0.26c0,0.15-0.15,0.19-0.26,0.19h-4.42v2.09h1.96l0.49-0.63c0.13-0.15,0.17-0.2,0.26-0.2
				c0.07,0,0.13,0.05,0.3,0.17l0.91,0.65c0.13,0.1,0.16,0.17,0.16,0.24c0,0.17-0.15,0.19-0.25,0.19h-3.84v2.43h3.56l0.74-0.71
				c0.1-0.08,0.21-0.19,0.28-0.19c0.05,0,0.13,0.05,0.3,0.17l0.99,0.7c0.08,0.07,0.17,0.15,0.17,0.26
				C505.99,249.7,505.86,249.74,505.74,249.74z M496.5,240.49c-0.4,0-0.43-0.12-0.79-1.1c-0.28-0.75-0.58-1.24-0.96-1.63l0.03-0.08
				c0.68,0.24,2.39,0.85,2.39,2.02C497.18,240.1,496.92,240.49,496.5,240.49z"/>
			<path d="M512.75,239.15c0.08,0.05,0.2,0.14,0.2,0.22c0,0.22-0.16,0.32-0.4,0.49c0,3.06,0,6.12,0.02,9.16c0,0.61,0,1.33-0.86,1.33
				c-0.43,0-0.51-0.22-0.51-0.46c0-0.25,0.15-2.14,0.17-2.55c0.1-2.24,0.1-4.08,0.12-7.31c-0.23,0.37-1.58,2.45-2.61,3.18l-0.1-0.08
				c1.7-2.28,3.46-7.12,3.46-8.01c0-0.1-0.02-0.22-0.03-0.34l1.55,0.87c0.12,0.07,0.23,0.17,0.23,0.32c0,0.22-0.2,0.29-0.63,0.44
				c-0.21,0.54-0.45,1.16-1.15,2.4L512.75,239.15z M515.27,243.65c-0.28,0-1.12,0-1.93,0.15l-0.33-0.68
				c0.84,0.07,1.68,0.12,2.54,0.12h2.26c-0.02-0.88-0.03-2.07-0.21-2.62l1.53,0.34c0.08,0.02,0.21,0.07,0.21,0.2
				c0,0.15-0.12,0.24-0.45,0.53c0,0.46-0.02,0.87-0.02,1.55h2.89l0.66-0.78c0.17-0.2,0.18-0.22,0.26-0.22
				c0.07,0,0.08,0.02,0.31,0.19l1.04,0.78c0.07,0.03,0.16,0.14,0.16,0.25c0,0.15-0.13,0.19-0.25,0.19h-4.85
				c0.72,1.6,2.92,3.62,5.34,4.27v0.1c-0.59,0.24-1.11,0.66-1.47,1.21c-2.52-1.77-3.69-4.52-4.09-5.58h-0.02
				c0,1.04,0.05,2.65,0.07,3.13c0.02,0.43,0.12,2.35,0.12,2.74c0,0.29,0,0.88-0.87,0.88c-0.38,0-0.51-0.2-0.51-0.56
				c0-0.02,0.12-2.67,0.12-2.97c0.02-0.9,0.03-1.53,0.03-2.33c-1.78,2.86-4.01,4.05-5.1,4.59l-0.02-0.12
				c1.73-1.48,3.1-3.11,4.39-5.35H515.27z M520.75,235.9l0.35-0.39c0.07-0.07,0.12-0.15,0.25-0.15c0.1,0,0.23,0.08,0.31,0.15
				l0.66,0.51c0.1,0.08,0.21,0.2,0.21,0.31c0,0.17-0.15,0.31-0.56,0.51c-0.02,1.14,0.02,1.9,0.02,2.11
				c0.02,0.24,0.08,1.39,0.08,1.51c0,0.44-0.2,0.78-0.81,0.78c-0.41,0-0.4-0.39-0.38-0.78h-4.65c0,0.51-0.23,0.94-0.76,0.94
				c-0.36,0-0.46-0.27-0.46-0.54c0-0.14,0.12-2.84,0.12-3.38c0-1.61-0.08-1.99-0.15-2.4l1.4,0.83H520.75z M516.19,236.31v3.74h4.68
				v-3.74H516.19z"/>
			<path d="M532.88,238.84h-3.7c-0.21,0-1.14,0-1.95,0.15l-0.33-0.68c1.09,0.1,2.23,0.12,2.54,0.12h1.78l0.48-0.66
				c0.08-0.12,0.17-0.22,0.26-0.22s0.25,0.14,0.28,0.17l0.69,0.66c0.16,0.15,0.18,0.22,0.18,0.27
				C533.13,238.81,533,238.84,532.88,238.84z M532.07,241h-2.24c-0.41,0-1.21,0.02-1.95,0.17l-0.33-0.68c1.14,0.1,2.31,0.1,2.54,0.1
				h0.58l0.35-0.58c0.07-0.1,0.16-0.22,0.25-0.22c0.1,0,0.2,0.08,0.3,0.19l0.61,0.58c0.05,0.05,0.17,0.17,0.17,0.27
				C532.34,240.98,532.21,241,532.07,241z M532.11,243.21h-2.29c-0.41,0-1.2,0.02-1.93,0.15l-0.33-0.68
				c1.12,0.1,2.29,0.12,2.52,0.12h0.61l0.43-0.54c0.13-0.15,0.18-0.2,0.26-0.2c0.1,0,0.21,0.12,0.3,0.19l0.51,0.51
				c0.1,0.1,0.18,0.19,0.18,0.27C532.37,243.19,532.22,243.21,532.11,243.21z M531.99,236.41h-1.96c-0.17,0-1.19,0.02-1.95,0.17
				l-0.33-0.68c0.96,0.08,1.93,0.1,2.77,0.1l0.38-0.54c0.05-0.07,0.15-0.22,0.26-0.22c0.1,0,0.26,0.14,0.31,0.19l0.61,0.54
				c0.12,0.1,0.15,0.19,0.15,0.27C532.24,236.39,532.14,236.41,531.99,236.41z M532.35,245.5c-0.05,0.07-0.25,0.26-0.35,0.34
				c0,0.53,0.12,2.96,0.12,3.35c0,0.78-0.63,0.78-0.73,0.78c-0.48,0-0.46-0.37-0.43-1.04h-1.86c0.02,0.34,0.03,0.61,0.03,0.68
				c0,0.54-0.4,0.87-0.81,0.87c-0.43,0-0.43-0.37-0.43-0.53c0-0.14,0.03-0.71,0.03-0.83c0.02-0.83,0.03-1.51,0.03-2.12
				c0-1.07,0-1.89-0.13-2.6l1.32,0.65h1.57l0.41-0.53c0.07-0.08,0.15-0.14,0.23-0.14s0.18,0.07,0.26,0.12l0.73,0.53
				c0.08,0.05,0.15,0.1,0.15,0.22C532.5,245.33,532.42,245.43,532.35,245.5z M530.97,245.45h-1.88v3.08h1.88V245.45z M541.94,249.24
				h-7.16c-0.43,0-1.22,0.02-1.93,0.15l-0.33-0.66c0.45,0.03,0.68,0.05,1.32,0.08c0-1.34-0.02-6.8-0.08-7.75
				c-0.05-0.66-0.08-0.82-0.15-1.1l1.42,0.48c0.21,0.07,0.33,0.14,0.33,0.29c0,0.17-0.28,0.37-0.41,0.49v7.62h1.71v-11.85h-1.04
				c-0.45,0-1.22,0.02-1.95,0.15l-0.33-0.68c1.32,0.1,2.29,0.12,2.54,0.12h3.58l0.56-0.8c0.08-0.12,0.16-0.2,0.26-0.2
				s0.23,0.12,0.28,0.17l0.86,0.8c0.08,0.08,0.16,0.14,0.16,0.25c0,0.17-0.15,0.19-0.25,0.19h-3.56v5.3h1.35l0.61-0.73
				c0.1-0.1,0.18-0.22,0.26-0.22c0.07,0,0.18,0.07,0.3,0.17l0.86,0.75c0.07,0.05,0.17,0.14,0.17,0.25c0,0.17-0.17,0.19-0.25,0.19
				h-3.3v6.14h2.06l0.73-0.83c0.1-0.1,0.18-0.22,0.25-0.22c0.07,0,0.18,0.05,0.3,0.17l0.91,0.85c0.08,0.08,0.16,0.15,0.16,0.25
				C542.18,249.24,542.02,249.24,541.94,249.24z"/>
			<path d="M549.82,239.38h-2.33c-0.03,3.72-0.03,4.54-0.03,5.58c0,0.75,0.05,4.06,0.05,4.74c0,0.31,0,0.83-0.81,0.83
				c-0.18,0-0.48-0.07-0.48-0.48c0-0.25,0.1-1.43,0.12-1.68c0.05-1.22,0.05-1.75,0.07-5c0.02-2.4,0.02-2.53,0.03-3.99
				c-0.59,0-1.29,0.05-1.88,0.15l-0.33-0.66c0.46,0.03,1.04,0.08,2.21,0.1c0-2.52-0.03-3.38-0.38-4.1l1.81,0.53
				c0.1,0.03,0.21,0.1,0.21,0.24c0,0.17-0.05,0.2-0.58,0.51c0,0.46-0.02,2.43-0.02,2.82h0.78l0.5-0.54c0.08-0.1,0.18-0.22,0.26-0.22
				c0.07,0,0.2,0.08,0.3,0.19l0.59,0.56c0.08,0.09,0.15,0.15,0.15,0.26C550.07,239.37,549.93,239.38,549.82,239.38z M553.63,244.6
				c-0.43,4.76-0.92,5.44-2.67,5.63c-0.17-0.95-0.21-1.14-0.88-1.68l0.05-0.14c0.76,0.27,1.19,0.29,1.32,0.29
				c0.43,0,0.53-0.1,0.79-1.43c0.12-0.56,0.33-1.67,0.36-3.14h-1.2c-0.31,2.04-1.16,4.71-3.56,5.93l-0.07-0.08
				c1.24-1.12,2.31-3.08,2.57-5.83c-0.53,0-1.14,0.05-1.65,0.15l-0.33-0.68c0.61,0.05,1.09,0.08,2.01,0.1
				c0.08-1.29-0.05-1.8-0.1-2.06l1.5,0.54c0.15,0.05,0.21,0.15,0.21,0.24c0,0.14-0.36,0.37-0.45,0.42
				c-0.03,0.32-0.03,0.46-0.08,0.85h0.99l0.4-0.42c0.12-0.12,0.16-0.17,0.23-0.17s0.15,0.08,0.21,0.15l0.68,0.61
				c0.07,0.07,0.13,0.14,0.13,0.24C554.11,244.24,554.06,244.28,553.63,244.6z M557.44,237.7c-0.73,3.43-1.86,3.55-2.85,3.67
				c-0.08-0.58-0.15-1.04-1.04-1.8l0.07-0.1c0.63,0.31,1.37,0.41,1.48,0.41c0.84,0,1.22-1.95,1.4-2.89h-2.42
				c-0.71,2.13-1.75,3.88-4.57,4.76l-0.02-0.1c1.65-1.14,3-2.63,3.48-4.66h-0.86c-0.41,0-1.21,0-1.95,0.15l-0.33-0.68
				c1.14,0.1,2.31,0.12,2.54,0.12h0.69c0.07-0.43,0.12-0.78,0.12-1.19c0-0.36-0.05-0.49-0.12-0.66l1.68,0.53
				c0.07,0.02,0.15,0.07,0.15,0.17c0,0.1-0.26,0.27-0.53,0.44c-0.1,0.41-0.13,0.53-0.18,0.71h2.13l0.26-0.34
				c0.08-0.1,0.2-0.15,0.28-0.15c0.1,0,0.15,0.03,0.23,0.1l0.88,0.75c0.07,0.05,0.13,0.12,0.13,0.22
				C558.1,237.34,557.69,237.56,557.44,237.7z M559.2,244.31c-0.15,0.08-0.23,0.15-0.35,0.24c-0.03,1.78-0.25,4.08-0.76,4.93
				c-0.1,0.17-0.53,0.87-1.98,1c-0.35-1.05-0.36-1.09-0.94-1.67l0.05-0.14c0.84,0.29,1.32,0.29,1.4,0.29c0.66,0,0.71-0.31,0.91-1.43
				c0.12-0.73,0.31-2.79,0.25-3.37h-1.22c-0.43,2.46-1.06,4.67-3.84,6.1l-0.05-0.08c0.94-0.92,2.39-2.57,2.87-5.97
				c-0.36,0.02-0.56,0.07-0.76,0.1l-0.33-0.68c0.56,0.05,0.81,0.07,1.15,0.08c0.02-0.17,0.05-0.6,0.05-1.24
				c0-0.82-0.07-1.04-0.13-1.27l1.57,0.58c0.13,0.05,0.21,0.17,0.21,0.25c0,0.19-0.43,0.41-0.51,0.46c-0.07,0.63-0.1,0.92-0.16,1.24
				c0.13,0.02,0.2,0.02,0.36,0.02h0.64l0.41-0.49c0.07-0.08,0.15-0.17,0.2-0.17c0.07,0,0.17,0.05,0.25,0.12l0.79,0.61
				c0.07,0.05,0.15,0.15,0.15,0.22C559.43,244.18,559.32,244.24,559.2,244.31z"/>
			<path d="M576.09,242.09c-2.85-1.31-4.95-3.84-6.02-6.12l-0.07,0.02c-1.8,3.23-5.71,6.05-7.55,6.82l-0.05-0.1
				c2.47-1.78,4.49-4.15,6.07-6.78c0.38-0.61,0.43-0.85,0.5-1.16l1.67,0.54c0.08,0.03,0.26,0.12,0.26,0.29
				c0,0.2-0.17,0.24-0.51,0.32c1.01,1.73,3.63,4.11,7.29,4.76v0.12C577.09,241.05,576.5,241.41,576.09,242.09z M576.22,244.47h-6.61
				c-0.89,1.72-2.56,3.69-2.72,3.89c2.03-0.14,4.58-0.39,6.45-0.63c-0.1-0.19-0.64-1.21-1.81-2.35l0.1-0.1
				c2.26,1.05,4.06,2.77,4.06,4.2c0,0.27-0.18,0.83-0.73,0.83c-0.54,0-0.76-0.46-0.97-1.05c-0.2-0.6-0.26-0.78-0.5-1.24
				c-1.34,0.42-7.41,1.75-8.35,1.9c-0.1,0.22-0.15,0.37-0.3,0.37c-0.13,0-0.21-0.17-0.26-0.31l-0.69-1.72
				c0.36,0.07,0.74,0.15,1.47,0.15c0.35,0,0.68-0.02,1.19-0.05c0.54-1.26,1.01-2.52,1.35-3.91h-2.33c-0.38,0-1.21,0.02-1.93,0.15
				l-0.33-0.66c1.3,0.1,2.24,0.1,2.52,0.1h7.92l0.84-0.93c0.12-0.14,0.2-0.2,0.28-0.2s0.18,0.08,0.3,0.17l1.14,0.94
				c0.07,0.05,0.16,0.15,0.16,0.25C576.47,244.47,576.3,244.47,576.22,244.47z M572.61,241.52h-4.24c-0.41,0-1.2,0.02-1.95,0.15
				l-0.33-0.68c1.14,0.1,2.33,0.12,2.54,0.12h1.85l0.74-0.85c0.08-0.08,0.17-0.2,0.26-0.2c0.08,0,0.21,0.1,0.3,0.17l0.91,0.85
				c0.08,0.08,0.17,0.15,0.17,0.27C572.86,241.51,572.71,241.52,572.61,241.52z"/>
			<path d="M593.9,242.09c-2.85-1.31-4.95-3.84-6.02-6.12l-0.07,0.02c-1.8,3.23-5.71,6.05-7.55,6.82l-0.05-0.1
				c2.47-1.78,4.49-4.15,6.07-6.78c0.38-0.61,0.43-0.85,0.5-1.16l1.67,0.54c0.08,0.03,0.26,0.12,0.26,0.29
				c0,0.2-0.17,0.24-0.51,0.32c1.01,1.73,3.63,4.11,7.29,4.76v0.12C594.9,241.05,594.31,241.41,593.9,242.09z M594.03,244.47h-6.62
				c-0.89,1.72-2.56,3.69-2.72,3.89c2.03-0.14,4.58-0.39,6.45-0.63c-0.1-0.19-0.64-1.21-1.81-2.35l0.1-0.1
				c2.26,1.05,4.06,2.77,4.06,4.2c0,0.27-0.18,0.83-0.73,0.83s-0.76-0.46-0.97-1.05c-0.2-0.6-0.26-0.78-0.49-1.24
				c-1.34,0.42-7.41,1.75-8.35,1.9c-0.1,0.22-0.15,0.37-0.3,0.37c-0.13,0-0.21-0.17-0.26-0.31l-0.69-1.72
				c0.36,0.07,0.74,0.15,1.47,0.15c0.35,0,0.68-0.02,1.19-0.05c0.54-1.26,1.01-2.52,1.35-3.91h-2.33c-0.38,0-1.2,0.02-1.93,0.15
				l-0.33-0.66c1.3,0.1,2.24,0.1,2.52,0.1h7.92l0.84-0.93c0.12-0.14,0.2-0.2,0.28-0.2c0.08,0,0.18,0.08,0.3,0.17l1.14,0.94
				c0.07,0.05,0.17,0.15,0.17,0.25C594.28,244.47,594.11,244.47,594.03,244.47z M590.42,241.52h-4.24c-0.41,0-1.21,0.02-1.95,0.15
				L583.9,241c1.14,0.1,2.33,0.12,2.54,0.12h1.85l0.74-0.85c0.08-0.08,0.16-0.2,0.26-0.2c0.08,0,0.21,0.1,0.3,0.17l0.91,0.85
				c0.08,0.08,0.17,0.15,0.17,0.27C590.66,241.51,590.52,241.52,590.42,241.52z"/>
			<path d="M598.03,250.4c0.78-0.29,2.13-0.97,3.78-2.18c0.69-0.49,0.84-0.78,1.09-1.19l1.42,0.92c0.07,0.05,0.18,0.15,0.18,0.27
				c0,0.26-0.41,0.27-0.94,0.29c-1.58,1.02-3.79,1.87-5.51,2.01L598.03,250.4z M609.08,240.17l0.41-0.42
				c0.07-0.07,0.17-0.2,0.26-0.2c0.08,0,0.13,0.05,0.25,0.14l0.71,0.56c0.12,0.09,0.21,0.2,0.21,0.32c0,0.15-0.23,0.32-0.61,0.54
				c-0.03,0.71,0.1,5.22,0.1,5.64c0,0.46-0.35,0.83-0.79,0.83c-0.46,0-0.45-0.41-0.43-0.66h-7.44c-0.03,0.41-0.07,0.9-0.79,0.9
				c-0.48,0-0.48-0.37-0.48-0.51c0-0.24,0.07-0.82,0.07-0.95c0.02-0.48,0.07-2.33,0.07-4.16c0-1.7-0.03-1.96-0.18-2.6l1.53,0.58
				H609.08z M608.67,235.9l0.48-0.49c0.08-0.08,0.16-0.19,0.23-0.19c0.08,0,0.15,0.05,0.23,0.12l0.71,0.56
				c0.08,0.07,0.15,0.15,0.15,0.25c0,0.15-0.17,0.31-0.54,0.56c-0.02,0.31,0.03,1.7,0.03,1.97c0,0.51-0.41,0.7-0.69,0.7
				c-0.53,0-0.51-0.37-0.48-0.68h-6.56c0,0.25,0,0.78-0.73,0.78c-0.48,0-0.48-0.31-0.48-0.51c0-0.07,0.07-1.63,0.07-1.94
				c0-1.07-0.03-1.58-0.15-2.02l1.53,0.88H608.67z M601.78,240.57v1.61h7.42v-1.61H601.78z M601.78,242.6v1.6h7.42v-1.6H601.78z
				 M601.78,244.6v1.9h7.42v-1.9H601.78z M602.22,236.31v1.99h6.56v-1.99H602.22z M606.76,247.32c2.14,0.14,4.8,1.22,4.8,2.52
				c0,0.48-0.33,0.68-0.66,0.68c-0.41,0-0.63-0.22-1.09-0.71c-0.94-1.02-1.6-1.6-3.07-2.41L606.76,247.32z"/>
		</g>
	</g>
	<g>
		<g>
			<g>
				<path class="st0" d="M155.98,148.94c-11.25,0-17.95-12.48-17.95-26.63c0-13.94,6.54-26.56,17.95-26.56
					c11.25,0,17.95,12.48,17.95,26.56C173.93,136.46,167.23,148.94,155.98,148.94z M155.98,97.69c-6.06,0-12.04,6.59-12.04,24.62
					c0,18.45,6.14,24.69,12.04,24.69c5.58,0,12.04-5.69,12.04-24.69C168.03,103.45,161.57,97.69,155.98,97.69z"/>
				<path class="st0" d="M195.7,148.94c-5.82,0-9.49-2.71-9.49-6.03c0-2.43,1.6-3.33,3.67-3.33c3.67,0,4.15,2.77,4.15,3.61
					c0,1.66,0.16,3.61,3.27,3.61c2.63,0,5.1-1.25,6.54-2.64c6.94-6.52,7.58-16.37,7.9-23.93c-3.75,4.65-7.18,9.02-14.44,9.02
					c-8.61,0-14.28-7-14.28-15.67c0-10.33,7.9-17.82,16.83-17.82c9.33,0,18.42,8.67,18.42,24.06
					C218.27,132.85,210.54,148.94,195.7,148.94z M208.06,102.69c-2.71-4.02-4.94-4.65-8.13-4.65c-8.69,0-10.77,9.71-10.77,15.6
					c0,3.74,0.8,12.48,9.49,12.48c8.22,0,11.88-8.18,13.08-10.96C211.01,109.21,210.22,105.95,208.06,102.69z"/>
				<path class="st0" d="M259.19,147.63h-31.66v-1.87c4.63-8.6,10.85-14.36,18.03-20.74c5.03-4.44,10.85-9.99,10.85-17.62
					c0-3.61-1.44-9.57-10.53-9.57c-6.94,0-10.29,3.26-10.29,5.48c0,0.69,0.4,1.6,0.72,2.08c0.96,1.87,0.96,2.64,0.96,3.19
					c0,2.43-1.75,3.54-3.91,3.54c-2.79,0-3.67-1.73-3.67-3.88c0-6.31,6.78-12.48,17.31-12.48c9.49,0,15.55,4.99,15.55,12.83
					c0,4.65-1.91,7.42-5.9,11.37c-1.91,1.94-11.72,9.36-13.64,10.96c-1.04,0.9-6.94,6.1-10.69,12.07h15.95
					c9.41,0,11.88-5.96,13.32-9.36l1.52,0.35L259.19,147.63z"/>
				<path class="st0" d="M271.95,133.13v-3.81h16.83v3.81H271.95z"/>
				<path class="st0" d="M315.18,144.3c0,1.32-0.08,4.65-4.31,4.65c-1.83,0-3.91-0.56-3.91-4.37c0-8.46,12.36-27.6,22.41-43.07
					h-18.34c-7.18,0-9.41,5.06-11.33,9.92l-1.67-0.21L301.46,97h31.98v2.36C323.31,114.27,315.34,127.24,315.18,144.3z"/>
				<path class="st0" d="M347.24,147.63v-2.22h2.79c5.26,0,7.82-2.08,7.82-6.8V107.4c0-4.51-1.83-6.52-7.9-6.52h-2.71v-1.87h1.28
					c4.87,0,10.69-1.87,12.2-2.64c0.56-0.28,1.2-0.62,1.67-0.62c0.4,0,0.56,0.35,0.56,0.69v42.17c0,3.95,1.83,6.8,7.02,6.8h3.59
					v2.22H347.24z"/>
				<path class="st0" d="M404.74,148.94c-11.25,0-17.95-12.48-17.95-26.63c0-13.94,6.54-26.56,17.95-26.56
					c11.25,0,17.95,12.48,17.95,26.56C422.69,136.46,415.99,148.94,404.74,148.94z M404.74,97.69c-6.06,0-12.04,6.59-12.04,24.62
					c0,18.45,6.14,24.69,12.04,24.69c5.58,0,12.04-5.69,12.04-24.69C416.79,103.45,410.33,97.69,404.74,97.69z"/>
				<path class="st0" d="M431.38,133.13v-3.81h16.83v3.81H431.38z"/>
				<path class="st0" d="M483.78,133.2v7.28c0,3.19,2.47,4.92,5.58,4.92h1.28v2.22H471.9v-2.22c1.67,0,6.86,0,6.86-5.06v-7.14
					h-22.33v-2.43l25.12-35.02h2.23v35.23h9.49v2.22H483.78z M478.76,104l-19.3,26.98h19.3V104z"/>
				<path class="st0" d="M517.2,148.94c-9.49,0-14.99-6.03-14.99-10.4c0-2.15,1.6-4.02,4.07-4.02c1.91,0,3.51,1.46,3.51,3.81
					c0,0.9-0.56,2.84-0.56,3.33c0,2.43,2.95,4.92,8.29,4.92c10.13,0,13.16-8.95,13.16-15.19c0-5.83-1.99-13.25-11.88-13.25
					c-5.58,0-8.93,2.7-12.84,6.1l-1.2-0.76L506.27,97h27.52l-1.44,4.51h-23.77l-1.04,18.93c1.75-1.53,3.11-2.64,6.14-3.81
					c2.55-0.97,4.87-1.39,6.86-1.39c6.14,0,16.27,4.37,16.27,15.53C536.82,141.66,527.49,148.94,517.2,148.94z"/>
				<path class="st0" d="M563.94,144.3c0,1.32-0.08,4.65-4.31,4.65c-1.83,0-3.91-0.56-3.91-4.37c0-8.46,12.36-27.6,22.41-43.07
					h-18.34c-7.18,0-9.41,5.06-11.33,9.92l-1.68-0.21L550.22,97h31.98v2.36C572.07,114.27,564.1,127.24,563.94,144.3z"/>
				<path class="st0" d="M606.53,148.94c-9.49,0-14.99-6.03-14.99-10.4c0-2.15,1.59-4.02,4.07-4.02c1.91,0,3.51,1.46,3.51,3.81
					c0,0.9-0.56,2.84-0.56,3.33c0,2.43,2.95,4.92,8.29,4.92c10.13,0,13.16-8.95,13.16-15.19c0-5.83-1.99-13.25-11.88-13.25
					c-5.58,0-8.93,2.7-12.84,6.1l-1.2-0.76L595.6,97h27.52l-1.44,4.51h-23.77l-1.04,18.93c1.75-1.53,3.11-2.64,6.14-3.81
					c2.55-0.97,4.87-1.39,6.86-1.39c6.14,0,16.27,4.37,16.27,15.53C626.15,141.66,616.82,148.94,606.53,148.94z"/>
			</g>
		</g>
		<g>
			<path class="st1" d="M67.09,118.28c3.31-15.08,18.21-24.63,33.3-21.33s24.63,18.21,21.33,33.3
				c-3.3,15.08-18.21,24.63-33.29,21.33C73.34,148.27,63.79,133.37,67.09,118.28z"/>
			<path class="st0" d="M89.11,117.06c1.97-1.17,3.58-2.25,4.13-2.57c0.55-0.33,0.53-1.17,0.06-1.96c-0.47-0.79-4.37-7.33-4.37-7.33
				c-0.61-1.02-1.28-2.07-2.23-1.5c-0.95,0.56-1.66,0.98-4.1,2.44c-2.45,1.45-5.69,9.64,2.81,23.9
				c8.5,14.27,17.24,15.32,19.69,13.86c2.44-1.46,3.15-1.88,4.1-2.44c0.95-0.57,0.35-1.65-0.26-2.68c0,0-3.9-6.54-4.37-7.33
				c-0.47-0.79-1.2-1.21-1.76-0.88c-0.55,0.33-2.25,1.24-4.22,2.41c-1.97,1.17-4.17-1.79-7.03-6.6
				C88.7,121.58,87.13,118.23,89.11,117.06z"/>
		</g>
	</g>
</g>
</svg>
