<?xml version="1.0" encoding="utf-8"?>
<!-- Generator: Adobe Illustrator 23.0.3, SVG Export Plug-In . SVG Version: 6.00 Build 0)  -->
<svg version="1.1" xmlns="http://www.w3.org/2000/svg" xmlns:xlink="http://www.w3.org/1999/xlink" x="0px" y="0px"
	 viewBox="0 0 700 278.25" style="enable-background:new 0 0 700 278.25;" xml:space="preserve">
<style type="text/css">
	.st0{fill:#980051;}
	.st1{fill:none;stroke:#980051;stroke-width:1.7614;stroke-miterlimit:10;}
</style>
<g id="レイヤー_1">
</g>
<g id="レイヤー_3">
</g>
<g id="レイヤー_4">
</g>
<g id="レイヤー_2">
	<g>
		<g>
			<path d="M206.97,69.98c-1.91-2.08-7.31-9.75-7.31-20.25c0-10.5,5.41-18.17,7.31-20.25l0.49,0.35c-1.55,2.44-1.64,2.57-2.22,3.77
				c-3.68,7.71-3.68,14.05-3.68,16.13c0,2.08,0,8.42,3.68,16.13c0.58,1.2,0.66,1.33,2.22,3.77L206.97,69.98z M210.69,36.21
				c0-1.11-0.09-2.79-0.35-5.05l2.92,0.75c0.49,0.13,1.24,0.35,1.24,0.71c0,0.53-0.66,0.84-1.24,1.33v6.03h0.75l0.93-1.46
				c0.13-0.22,0.4-0.62,0.62-0.62c0.22,0,0.62,0.44,0.71,0.58l0.98,1.42c0.09,0.13,0.22,0.53,0.22,0.71c0,0.31-0.18,0.35-0.35,0.35
				h-3.85v4.34c1.33,0.8,4.03,2.44,4.03,4.79c0,1.24-0.84,1.91-1.6,1.91c-1.42,0-1.64-1.99-1.68-3.06
				c-0.09-1.46-0.22-2.17-0.75-3.06v7.89c0,1.73,0.13,10.06,0.13,11.92c0,0.58,0,2.53-2.13,2.53c-1.24,0-1.24-1.37-1.24-1.86
				c0-0.84,0.4-5.01,0.44-5.94c0.13-2.17,0.22-4.3,0.22-7.58v-4.34c-0.8,1.99-2.39,6.12-6.43,10.19l-0.35-0.35
				c3.9-6.29,5.89-13.91,6.51-17.37c-1.82,0-2.75,0-4.39,0.27l-0.66-1.6c1.77,0.22,3.9,0.35,4.52,0.35h0.8V36.21z M239.19,61.12
				c-1.86,0.53-2.97,1.73-3.59,2.53c-4.08-4.21-6.03-8.6-7.67-13.38v5.18c0,1.55,0,3.19,0.04,4.79c0.04,0.8,0.31,4.74,0.31,5.63
				c0,1.68-1.11,2.39-2.17,2.39c-0.71,0-1.11-0.35-1.11-1.46c0-0.67,0.13-3.81,0.13-4.52c0.09-2.88,0.09-4.65,0.09-6.2v-4.21
				c-2.92,5.23-5.76,8.06-10.06,11.21l-0.27-0.44c3.41-3.46,7.13-9.35,9.04-13.6c-1.68,0-3.54,0-5.63,0.22l-0.71-1.55
				c1.33,0.13,4.92,0.31,5.76,0.31h1.86v-6.69h-4.48c-1.15,2.04-2.35,3.86-4.03,5.54l-0.35-0.31c0.44-0.97,3.41-6.91,3.46-12.5
				l3.54,1.73c0.18,0.04,0.44,0.22,0.44,0.44c0,0.49-0.53,0.58-1.2,1.06c-0.44,1.15-0.93,2.22-1.33,3.01h3.94v-3.68
				c0-0.53-0.09-3.01-0.58-5.36l3.81,0.84c0.31,0.09,0.62,0.22,0.62,0.44c0,0.31-0.53,0.84-1.15,1.64v6.12h3.32l1.29-1.77
				c0.18-0.22,0.4-0.53,0.62-0.53s0.62,0.35,0.71,0.49l1.77,1.77c0.22,0.22,0.49,0.53,0.49,0.71c0,0.27-0.18,0.35-0.35,0.35h-7.84
				V48h5.05l1.33-1.86c0.13-0.13,0.4-0.49,0.53-0.49c0.27,0,0.53,0.31,0.71,0.44l2.26,1.99c0.13,0.13,0.35,0.4,0.35,0.62
				c0,0.31-0.31,0.31-0.44,0.31h-9.62c4.17,9.53,10.68,11.48,11.12,11.56L239.19,61.12z M235.69,29.48
				c2.22,2.44,7.31,10.06,7.31,20.25c0,10.19-5.1,17.81-7.31,20.25l-0.49-0.35c1.55-2.44,1.64-2.57,2.22-3.77
				c3.68-7.71,3.68-14.05,3.68-16.13c0-2.08,0-8.42-3.68-16.13c-0.58-1.2-0.66-1.33-2.22-3.77L235.69,29.48z"/>
			<path d="M245.3,66.57v-1.42h2.04c2.48,0,3.06-1.6,3.06-3.23v-23c0-2.57-1.42-3.23-3.06-3.23h-2.04v-1.46h14.53v1.46h-2.04
				c-2.48,0-3.06,1.55-3.06,3.23v23c0,2.57,1.42,3.23,3.06,3.23h2.04v1.42H245.3z"/>
			<path d="M284.2,66.7c4.87-2.7,10.37-8.11,12.81-11.43c2.3-3.19,5.58-9.57,6.82-14.67c-7.13,0.4-16.66,1.82-18.61,2.97
				c-0.31,0.18-0.89,0.53-1.24,0.53c-0.44,0-4.03-2.13-4.03-5.36c0-1.06,0.31-1.64,0.58-2.17c0.27,0.44,0.75,1.33,2.22,2.53
				c0.71,0.53,1.28,0.75,2.48,0.75c1.02,0,16.57-1.37,18.3-1.99c0.31-0.13,1.51-1.06,1.82-1.06c0.35,0,0.53,0.18,2.08,1.86
				c1.64,1.77,1.86,1.99,1.86,2.48s-0.18,0.62-1.73,1.55c-0.44,0.27-0.49,0.4-1.02,1.82c-3.72,9.97-7.75,13.91-9.88,15.78
				c-3.32,2.97-8.46,6.16-12.45,6.69V66.7z M316.42,35.1c0,2.3-1.91,4.21-4.21,4.21c-2.35,0-4.21-1.91-4.21-4.21
				c0-2.35,1.91-4.21,4.21-4.21S316.42,32.76,316.42,35.1z M309.81,35.1c0,1.33,1.06,2.39,2.39,2.39c1.33,0,2.35-1.11,2.35-2.39
				c0-1.37-1.11-2.39-2.35-2.39S309.81,33.73,309.81,35.1z"/>
			<path d="M346.68,47.25c-0.22,0.18-0.35,0.4-1.29,2.44c-1.99,4.25-3.99,8.73-9.48,13.12c-2.22,1.82-7.22,5.27-12.05,5.41V67.9
				c4.48-1.77,10.77-8.06,11.96-9.44c1.91-2.17,4.65-6.07,6.6-12.41c-2.66,0.27-13.56,1.37-16.09,2.44
				c-0.27,0.13-1.42,0.75-1.68,0.75c-0.93,0-4.48-2.53-4.48-5.58c0-0.49,0.09-0.93,0.35-1.59c0.35,0.49,0.8,1.15,1.95,2.04
				c1.02,0.75,1.33,0.84,2.57,0.84c2.92,0,17.02-1.11,17.55-1.37c0.35-0.22,1.55-1.73,1.91-1.73c0.44,0,3.94,2.48,3.94,3.63
				C348.45,46.05,348.01,46.36,346.68,47.25z M340.79,38.56c-2.08,0.09-8.64,0.49-10.5,0.84c-1.99,0.35-2.22,0.44-2.84,0.44
				c-2.08,0-4.08-3.1-3.85-5.32c2.08,2.13,4.52,2.13,6.29,2.13c5.01,0,8.46-0.93,9-1.11c0.4-0.09,1.95-0.89,2.3-0.89
				s2.26,0.67,2.79,0.93c0.62,0.27,1.2,0.71,1.2,1.59C345.17,38.34,344.46,38.43,340.79,38.56z"/>
			<path d="M365.91,42.99c-0.75,0-1.33-0.62-2.84-2.13c-3.63-3.68-5.8-4.65-7.4-5.41c0.8-0.09,1.33-0.13,2.17-0.13
				c1.51,0,9.79,0.62,9.79,5.54C367.64,42.24,366.62,42.99,365.91,42.99z M369.9,57.75c-1.64,1.29-4.3,3.19-5.81,4.56
				c-0.27,0.22-1.28,1.42-1.55,1.55c-0.22,0.13-0.44,0.18-0.62,0.18c-1.6,0-4.74-4.03-4.74-6.2c0-0.75,0.18-1.51,0.31-2.08
				c1.42,2.39,2.75,3.01,3.5,3.01c1.24,0,8.64-5.41,10.24-6.65c7.22-5.63,11.48-10.41,13.87-13.16l0.18,0.09
				C384.56,41.88,380.13,49.77,369.9,57.75z"/>
			<path d="M423.02,59.34c-0.44,0-3.06-0.49-4.61-0.75c-0.35-0.09-1.91-0.35-4.39-0.35c-6.07,0-12.41,0.58-18.26,2.3
				c-0.49,0.13-0.89,0.22-1.33,0.22c-1.2,0-4.43-2.75-4.43-5.76c0-0.58,0.13-0.93,0.31-1.24c1.6,1.91,2.66,2.84,5.76,2.84
				c0.22,0,12.01-1.06,14.27-1.15c2.3-0.09,5.76-0.27,6.91-0.58c0.8-0.22,1.6-0.44,1.95-0.44c1.02,0,5.1,1.46,5.1,3.54
				C424.31,58.81,423.82,59.34,423.02,59.34z M415.14,42.19c-1.77,0.13-5.01,0.35-6.69,0.44c-2.48,0.09-5.1,0.22-7.75,0.93
				c-0.31,0.09-0.53,0.13-0.89,0.13c-0.84,0-4.52-1.51-4.25-5.14c2.08,1.55,4.52,1.68,5.76,1.68c1.55,0,7.62-0.31,10.59-1.11
				c0.4-0.13,2.13-0.75,2.48-0.75c0.71,0,4.08,0.44,4.08,2.21C418.46,41.97,417.31,42.02,415.14,42.19z"/>
			<path d="M441.59,42.99c-0.75,0-1.33-0.62-2.84-2.13c-3.63-3.68-5.8-4.65-7.4-5.41c0.8-0.09,1.33-0.13,2.17-0.13
				c1.51,0,9.79,0.62,9.79,5.54C443.32,42.24,442.3,42.99,441.59,42.99z M445.58,57.75c-1.64,1.29-4.3,3.19-5.8,4.56
				c-0.27,0.22-1.29,1.42-1.55,1.55c-0.22,0.13-0.44,0.18-0.62,0.18c-1.6,0-4.74-4.03-4.74-6.2c0-0.75,0.18-1.51,0.31-2.08
				c1.42,2.39,2.75,3.01,3.5,3.01c1.24,0,8.64-5.41,10.24-6.65c7.22-5.63,11.48-10.41,13.87-13.16l0.18,0.09
				C460.24,41.88,455.81,49.77,445.58,57.75z"/>
			<path d="M464.54,67.23c9.93-6.03,17.86-14.84,22.33-25.17c-2.13,0.22-5.63,0.66-6.6,0.93c-1.02,0.27-1.02,0.27-1.2,0.27
				c-0.4,0-1.51-0.44-1.95-0.71c-3.63,4.48-6.47,7-11.79,9.97l-0.35-0.31c9.93-10.32,11.48-15.6,11.52-16.08
				c0.09-0.58-1.55-1.59-2.44-2.21c0.62-0.18,1.55-0.35,2.17-0.35c1.59,0,5.45,1.99,5.45,3.5c0,0.49-0.13,0.62-1.33,1.68
				c-0.58,0.53-1.02,1.11-1.6,1.77c1.33,0.09,6.56-0.27,7.58-0.62c0.49-0.18,2.3-1.51,2.75-1.51s0.62,0.18,2.48,1.86
				c1.37,1.29,1.55,1.42,1.55,1.95c0,0.44-0.04,0.49-1.42,1.02c-1.24,0.49-1.55,1.06-2.44,2.7c-4.3,7.75-10.94,18.12-24.59,21.62
				L464.54,67.23z M495.82,38.43c0,0.89-0.49,1.46-1.29,1.46c-0.62,0-1.02-0.44-1.46-0.97c-1.28-1.64-2.7-3.5-5.23-4.96
				C491.21,33.91,495.82,35.59,495.82,38.43z M499.94,36.17c0,1.06-0.75,1.33-1.24,1.33c-0.58,0-0.71-0.18-2.22-1.77
				c-0.4-0.44-2.48-2.44-4.65-3.32C495.47,32.36,499.94,33.29,499.94,36.17z"/>
		</g>
	</g>
	<g>
		<g>
			<path d="M111.82,178.81v-1.76h14.26v1.76H111.82z M119.92,183.36v9.75h-1.94v-9.75h-6.16v-1.74h14.26v1.74H119.92z"/>
			<path d="M139.54,189.02c0,2.55-2,4.84-5.19,4.84c-2.51,0-4.75-1.45-4.75-3.96c0-2.38,1.89-3.5,3.92-4.69
				c-1.17-0.68-3.28-1.91-3.28-4.31c0-2.18,1.72-3.94,4.4-3.94c3.01,0,4.03,2.24,4.03,3.48c0,1.87-1.8,3.23-2.75,3.94
				C137.98,185.65,139.54,186.75,139.54,189.02z M131.44,189.83c0,1.94,1.45,3.28,3.17,3.28c1.91,0,3.34-1.69,3.34-3.32
				c0-2.09-2.18-3.32-3.78-4.22C133.18,186.31,131.44,187.65,131.44,189.83z M137.05,180.68c0-1.67-1.12-2.97-2.73-2.97
				c-1.56,0-2.6,1.19-2.6,2.62c0,1.54,1.25,2.31,3.54,3.67C135.91,183.45,137.05,182.51,137.05,180.68z"/>
			<path d="M143.67,192.74h1.21c1.14,0,1.54-0.44,1.54-1.34v-11.9c0-0.68-0.64-0.79-1.06-0.79h-1.67v-0.68h0.4
				c1.69,0,3.32-0.77,3.59-0.92c0.15-0.09,0.22-0.13,0.31-0.13c0.2,0,0.24,0.13,0.24,0.31v14.13c0,0.95,0.46,1.34,1.54,1.34h1.21
				v0.7h-7.31V192.74z"/>
			<path d="M161.05,187.06c-0.46,0.29-1.14,0.57-1.91,0.57c-2.18,0-3.94-2.2-3.94-4.88c0-3.04,2.18-5.79,4.71-5.79
				c2.51,0,5.06,2.86,5.06,7.59c0,5.08-2.86,9.31-6.23,9.31c-1.47,0-2.51-0.88-2.51-1.91c0-0.79,0.62-1.14,1.12-1.14
				c0.44,0,1.17,0.29,1.21,1.52c0.02,0.48,0.07,0.79,0.66,0.79s1.19-0.29,1.61-0.77c1.96-2.16,2.07-5.41,2.16-7.37
				C162.57,185.65,162.11,186.4,161.05,187.06z M161.78,178.9c-0.37-0.59-0.95-1.19-1.78-1.19c-1.17,0-2.82,1.23-2.82,4.84
				c0,1.01,0.24,4.09,2.51,4.09c0.84,0,2.24-0.62,3.28-2.99C162.88,182.44,162.71,180.33,161.78,178.9z"/>
			<path d="M172.56,188.95h-4.73v-1.43h4.73V188.95z"/>
			<path d="M180.3,193.86c-1.52,0-2.79-1.06-3.61-2.38c-0.92-1.52-1.34-4.22-1.34-6.27c0-4.69,2-8.25,4.95-8.25
				c2.27,0,4.95,2.44,4.95,8.45C185.26,190.8,182.99,193.86,180.3,193.86z M177.84,180.64c-0.31,1.1-0.51,2.95-0.51,4.77
				c0,4.91,1.17,7.7,2.97,7.7c1.52,0,2.2-2.02,2.44-2.86c0.31-1.12,0.53-2.99,0.53-4.84c0-5.02-1.21-7.7-2.97-7.7
				C178.74,177.71,178.06,179.87,177.84,180.64z"/>
			<path d="M193.06,193.86c-1.52,0-2.79-1.06-3.61-2.38c-0.92-1.52-1.34-4.22-1.34-6.27c0-4.69,2-8.25,4.95-8.25
				c2.27,0,4.95,2.44,4.95,8.45C198.01,190.8,195.75,193.86,193.06,193.86z M190.6,180.64c-0.31,1.1-0.51,2.95-0.51,4.77
				c0,4.91,1.17,7.7,2.97,7.7c1.52,0,2.2-2.02,2.44-2.86c0.31-1.12,0.53-2.99,0.53-4.84c0-5.02-1.21-7.7-2.97-7.7
				C191.5,177.71,190.82,179.87,190.6,180.64z"/>
			<path d="M209.54,193.44h-8.65v-0.59c0.44-1.39,1.47-2.93,3.23-4.93c3.23-3.74,4.33-4.99,4.33-7.19c0-1.65-1.06-3.01-2.93-3.01
				c-1.54,0-2.46,0.92-2.46,1.72c0,0.07,0,0.35,0.22,0.68c0.29,0.44,0.46,0.68,0.46,1.1c0,0.66-0.53,1.23-1.19,1.23
				c-0.77,0-1.25-0.73-1.25-1.54c0-1.61,1.56-3.94,4.73-3.94c2.73,0,4.4,1.72,4.4,4.09c0,2.22-1.28,3.43-3.26,5.13
				c-0.75,0.62-3.65,3.1-4.75,5.52h3.04c3.08,0,3.81-1.19,4.47-3.01l0.66,0.24L209.54,193.44z"/>
			<path d="M215.48,179.12l-0.2,5.54c0.95-0.84,1.78-1.52,3.41-1.52c3.17,0,4.69,2.62,4.69,5.04c0,3.19-2.53,5.68-5.43,5.68
				c-2.51,0-4.16-1.87-4.16-3.23c0-0.84,0.53-1.36,1.28-1.36c0.66,0,1.14,0.44,1.14,1.14c0,0.22-0.02,0.31-0.11,0.66
				c-0.04,0.18-0.07,0.48-0.07,0.62c0,0.95,0.99,1.43,1.87,1.43c1.78,0,3.45-1.69,3.45-4.64c0-2.79-1.47-4.33-3.08-4.33
				c-0.88,0-2.22,0.48-3.43,1.91l-0.33-0.18l0.33-8.49h7.66l-0.44,1.74H215.48z"/>
			<path d="M256.49,179.18l0.62-0.55c0.11-0.11,0.26-0.26,0.35-0.26c0.07,0,0.26,0.15,0.33,0.22l0.86,0.64
				c0.11,0.09,0.26,0.22,0.26,0.37c0,0.2-0.24,0.33-0.97,0.59c-0.44,0.66-1.19,1.87-2.49,3.34v0.15c1.58,0.29,3.23,1.1,3.23,2.31
				c0,0.55-0.51,0.84-0.84,0.84c-0.4,0-0.66-0.22-0.95-0.86c-0.37-0.79-0.64-1.34-1.45-2.02v5.15c0,0.33,0.09,4.71,0.09,4.86
				c0,0.73-0.24,1.12-1.12,1.12c-0.59,0-0.59-0.33-0.59-0.64c0-1.34,0.2-7.99,0.24-9.5c-1.91,1.72-3.45,2.46-4.29,2.86l-0.09-0.13
				c2.53-2.11,5.79-6.12,6.65-7.97h-2.6c-0.15,0-1.56,0-2.57,0.2l-0.44-0.88c0.92,0.09,2.27,0.15,3.23,0.15
				c0.04-2.35-0.22-3.48-0.48-4.27l2.22,0.62c0.11,0.02,0.35,0.11,0.35,0.31s-0.2,0.35-0.64,0.62c0,0.37-0.02,2.18,0,2.73H256.49z
				 M267.51,176.61l0.73-0.7c0.09-0.07,0.29-0.29,0.35-0.29c0.11,0,0.26,0.13,0.42,0.24l0.92,0.7c0.13,0.11,0.24,0.22,0.24,0.33
				c0,0.22-0.2,0.24-0.35,0.24h-8.25c-0.35,0-1.52,0-2.57,0.2l-0.44-0.88c1.61,0.13,2.99,0.15,3.39,0.15H267.51z M267.49,186.03
				l0.62-0.68c0.09-0.11,0.2-0.22,0.29-0.22c0.07,0,0.2,0.09,0.31,0.18l1.01,0.73c0.11,0.09,0.22,0.2,0.22,0.33s-0.2,0.33-0.66,0.68
				c-0.02,0.18-0.04,0.48-0.04,0.64c0,0.79,0.18,5.21,0.18,6.12c0,0.57-0.51,0.86-1.06,0.86c-0.59,0-0.59-0.26-0.55-1.03h-6.91
				c0.04,0.77-0.24,1.23-1.03,1.23c-0.55,0-0.55-0.33-0.55-0.53c0-0.77,0.09-4.14,0.09-4.82c0-1.25,0-3.5-0.24-4.64l2,1.17H267.49z
				 M266.3,179.32l0.53-0.53c0.11-0.11,0.22-0.24,0.31-0.24s0.18,0.09,0.26,0.15l0.9,0.73c0.11,0.09,0.22,0.22,0.22,0.35
				c0,0.15-0.2,0.31-0.62,0.53c0,0.51,0.11,2.68,0.11,3.12c0,0.53-0.37,0.95-1.03,0.95c-0.53,0-0.53-0.31-0.53-0.84h-4.75
				c0,0.35,0.02,1.01-0.92,1.01c-0.44,0-0.62-0.2-0.62-0.77c0-0.29,0.04-2.29,0.04-2.73c0-0.86-0.07-1.98-0.15-2.73l1.8,0.99H266.3z
				 M260.87,186.55v2.91h2.71v-2.91H260.87z M260.87,189.99v3.1h2.71v-3.1H260.87z M261.68,179.84v3.17h4.8v-3.17H261.68z
				 M267.8,189.46v-2.91h-2.79v2.91H267.8z M267.8,193.09v-3.1h-2.79v3.1H267.8z"/>
			<path d="M292.29,177.89c-0.04,0.81,0.11,12.67,0.11,14.28c0,1.41,0,2.62-2.49,3.08c-0.31-1.21-1.1-1.63-2.22-2.22l0.02-0.15
				c0.44,0.04,1.78,0.18,2.18,0.18c0.55,0,0.73-0.09,0.79-0.35c0.09-0.33,0.09-6.82,0.09-7.7c0-0.7-0.02-7.26-0.02-7.9h-13.11
				c-0.02,0.79-0.02,9.37-0.02,10.91c0,0.95,0.09,5.13,0.09,5.96c0,0.64-0.31,1.21-1.19,1.21c-0.33,0-0.64-0.11-0.64-0.84
				c0-0.31,0.15-1.69,0.15-1.96c0.07-1.5,0.09-9.66,0.09-11.13c0-3.48-0.07-4.09-0.24-5.72l2.11,1.03h12.54l0.57-0.64
				c0.09-0.11,0.15-0.18,0.29-0.18c0.07,0,0.18,0.07,0.26,0.13l1.19,0.86c0.15,0.11,0.26,0.18,0.26,0.35S293.01,177.4,292.29,177.89
				z M289.91,182.99h-5.06v6.95h2.13c0.02-2.55,0.04-2.9-0.02-3.85c-0.02-0.55-0.09-0.77-0.33-1.45l1.94,0.33
				c0.2,0.04,0.46,0.11,0.46,0.37c0,0.22-0.09,0.29-0.55,0.55c0.02,0.35,0,2.02,0,2.42c0,0.35,0.07,2.05,0.07,2.42
				c0,0.97-0.86,0.97-1.01,0.97c-0.62,0-0.59-0.31-0.57-1.23h-5.68c0,0.15,0.02,0.86,0.02,1.01c0,1.03-0.84,1.06-0.97,1.06
				c-0.46,0-0.62-0.31-0.62-0.62c0-0.24,0.11-0.95,0.11-3.19c0-3.12-0.07-3.34-0.29-4.18l2.05,0.48c0.18,0.04,0.37,0.09,0.37,0.31
				c0,0.22,0,0.22-0.66,0.62v3.98h2.09v-6.95h-2.2c-0.51,0-1.61,0.02-2.57,0.2l-0.44-0.88c1.76,0.15,3.04,0.15,3.39,0.15h2.53
				c0.22-0.4,1.41-2.97,1.32-4.97l2.24,1.28c0.09,0.04,0.22,0.13,0.22,0.29c0,0.29-0.33,0.37-0.95,0.48
				c-0.59,0.66-1.61,1.94-2.38,2.93h2.93l0.75-0.86c0.13-0.13,0.24-0.26,0.33-0.26c0.13,0,0.26,0.11,0.42,0.22l1.03,0.86
				c0.09,0.07,0.22,0.18,0.22,0.33C290.24,182.97,290.02,182.99,289.91,182.99z M282.32,181.89c-0.55,0-0.7-0.46-1.01-1.39
				c-0.44-1.32-0.68-1.74-1.21-2.38l0.11-0.13c0.29,0.11,3.04,1.25,3.04,2.9C283.24,181.63,282.65,181.89,282.32,181.89z"/>
			<path d="M303.68,190.76c-0.81,0.77-2.88,2.71-6.03,3.48l-0.04-0.13c1.39-0.86,3.06-2.51,3.78-3.3c1.03-1.14,1.14-1.5,1.23-1.98
				l1.74,1.14c0.18,0.11,0.29,0.22,0.29,0.37C304.65,190.6,304.21,190.73,303.68,190.76z M317.37,188.43h-9c0,0.42,0,1.43,0.02,2.75
				c0.02,0.88,0.11,2.27,0.11,3.15c0,1.1-1.1,1.1-1.21,1.1c-0.4,0-0.64-0.15-0.64-0.68c0-0.55,0.13-2.99,0.13-3.5
				c0.04-1.56,0.02-2.4,0.02-2.82h-5.92c0.02,1.01-1.12,1.01-1.21,1.01c-0.48,0-0.55-0.33-0.55-0.62s0.13-2.05,0.15-2.44
				c0.04-1.61,0.07-3.04,0.07-4.75c0-4.29-0.09-4.73-0.24-5.46l2.07,0.64c0.22,0.07,0.44,0.13,0.44,0.33s-0.29,0.42-0.68,0.68
				c-0.07,1.41-0.09,2.86-0.09,4.27c0,0.64,0.04,5.02,0.04,5.81h13.42l1.08-1.17c0.13-0.15,0.22-0.26,0.37-0.26
				c0.13,0,0.29,0.15,0.37,0.22l1.36,1.17c0.13,0.11,0.22,0.22,0.22,0.35C317.72,188.4,317.52,188.43,317.37,188.43z M313.34,177.34
				c-0.02,0.9-0.09,2.71,0.11,7.33c0,0.07,0.02,0.57,0.02,0.62c0,1.01-0.95,1.01-1.08,1.01c-0.64,0-0.62-0.42-0.62-1.01h-6.58
				c0,0.33,0.02,1.08-1.1,1.08c-0.57,0-0.59-0.29-0.59-0.53c0-0.09,0.02-0.37,0.02-0.46c0.02-0.51,0.15-4.42,0.15-6.71
				c0-1.67-0.09-2.4-0.33-3.59l2.18,1.03h6.12l0.64-0.62c0.15-0.15,0.22-0.24,0.37-0.24c0.11,0,0.26,0.13,0.33,0.2l0.9,0.75
				c0.15,0.13,0.24,0.26,0.24,0.4C314.13,176.81,313.63,177.14,313.34,177.34z M311.8,176.63h-6.62v2.35h6.62V176.63z M311.8,179.51
				h-6.62v2.29h6.62V179.51z M311.8,182.33h-6.62v2.42h6.62V182.33z M315.06,194.19c-0.57,0-0.81-0.4-1.41-1.34
				c-0.66-1.1-2.02-2.6-3.23-3.17l0.07-0.15c3.06,0.51,5.52,2.33,5.52,3.74C316,193.95,315.43,194.19,315.06,194.19z"/>
			<path d="M327.38,179.18l0.62-0.55c0.11-0.11,0.26-0.26,0.35-0.26c0.07,0,0.26,0.15,0.33,0.22l0.86,0.64
				c0.11,0.09,0.26,0.22,0.26,0.37c0,0.2-0.24,0.33-0.97,0.59c-0.44,0.66-1.19,1.87-2.49,3.34v0.15c1.58,0.29,3.23,1.1,3.23,2.31
				c0,0.55-0.51,0.84-0.84,0.84c-0.4,0-0.66-0.22-0.95-0.86c-0.37-0.79-0.64-1.34-1.45-2.02v5.15c0,0.33,0.09,4.71,0.09,4.86
				c0,0.73-0.24,1.12-1.12,1.12c-0.59,0-0.59-0.33-0.59-0.64c0-1.34,0.2-7.99,0.24-9.5c-1.91,1.72-3.45,2.46-4.29,2.86l-0.09-0.13
				c2.53-2.11,5.79-6.12,6.65-7.97h-2.6c-0.15,0-1.56,0-2.57,0.2l-0.44-0.88c0.92,0.09,2.27,0.15,3.23,0.15
				c0.04-2.35-0.22-3.48-0.48-4.27l2.22,0.62c0.11,0.02,0.35,0.11,0.35,0.31s-0.2,0.35-0.64,0.62c0,0.37-0.02,2.18,0,2.73H327.38z
				 M338.4,176.61l0.73-0.7c0.09-0.07,0.29-0.29,0.35-0.29c0.11,0,0.26,0.13,0.42,0.24l0.92,0.7c0.13,0.11,0.24,0.22,0.24,0.33
				c0,0.22-0.2,0.24-0.35,0.24h-8.25c-0.35,0-1.52,0-2.57,0.2l-0.44-0.88c1.61,0.13,2.99,0.15,3.39,0.15H338.4z M338.38,186.03
				l0.62-0.68c0.09-0.11,0.2-0.22,0.29-0.22c0.07,0,0.2,0.09,0.31,0.18l1.01,0.73c0.11,0.09,0.22,0.2,0.22,0.33s-0.2,0.33-0.66,0.68
				c-0.02,0.18-0.04,0.48-0.04,0.64c0,0.79,0.18,5.21,0.18,6.12c0,0.57-0.51,0.86-1.06,0.86c-0.59,0-0.59-0.26-0.55-1.03h-6.91
				c0.04,0.77-0.24,1.23-1.03,1.23c-0.55,0-0.55-0.33-0.55-0.53c0-0.77,0.09-4.14,0.09-4.82c0-1.25,0-3.5-0.24-4.64l2,1.17H338.38z
				 M337.19,179.32l0.53-0.53c0.11-0.11,0.22-0.24,0.31-0.24s0.18,0.09,0.26,0.15l0.9,0.73c0.11,0.09,0.22,0.22,0.22,0.35
				c0,0.15-0.2,0.31-0.62,0.53c0,0.51,0.11,2.68,0.11,3.12c0,0.53-0.37,0.95-1.03,0.95c-0.53,0-0.53-0.31-0.53-0.84h-4.75
				c0,0.35,0.02,1.01-0.92,1.01c-0.44,0-0.62-0.2-0.62-0.77c0-0.29,0.04-2.29,0.04-2.73c0-0.86-0.07-1.98-0.15-2.73l1.8,0.99H337.19
				z M331.75,186.55v2.91h2.71v-2.91H331.75z M331.75,189.99v3.1h2.71v-3.1H331.75z M332.57,179.84v3.17h4.8v-3.17H332.57z
				 M338.68,189.46v-2.91h-2.79v2.91H338.68z M338.68,193.09v-3.1h-2.79v3.1H338.68z"/>
			<path d="M363.17,177.89c-0.04,0.81,0.11,12.67,0.11,14.28c0,1.41,0,2.62-2.49,3.08c-0.31-1.21-1.1-1.63-2.22-2.22l0.02-0.15
				c0.44,0.04,1.78,0.18,2.18,0.18c0.55,0,0.73-0.09,0.79-0.35c0.09-0.33,0.09-6.82,0.09-7.7c0-0.7-0.02-7.26-0.02-7.9h-13.11
				c-0.02,0.79-0.02,9.37-0.02,10.91c0,0.95,0.09,5.13,0.09,5.96c0,0.64-0.31,1.21-1.19,1.21c-0.33,0-0.64-0.11-0.64-0.84
				c0-0.31,0.15-1.69,0.15-1.96c0.07-1.5,0.09-9.66,0.09-11.13c0-3.48-0.07-4.09-0.24-5.72l2.11,1.03h12.54l0.57-0.64
				c0.09-0.11,0.15-0.18,0.29-0.18c0.07,0,0.18,0.07,0.26,0.13l1.19,0.86c0.15,0.11,0.26,0.18,0.26,0.35S363.9,177.4,363.17,177.89z
				 M360.79,182.99h-5.06v6.95h2.13c0.02-2.55,0.04-2.9-0.02-3.85c-0.02-0.55-0.09-0.77-0.33-1.45l1.94,0.33
				c0.2,0.04,0.46,0.11,0.46,0.37c0,0.22-0.09,0.29-0.55,0.55c0.02,0.35,0,2.02,0,2.42c0,0.35,0.07,2.05,0.07,2.42
				c0,0.97-0.86,0.97-1.01,0.97c-0.62,0-0.59-0.31-0.57-1.23h-5.68c0,0.15,0.02,0.86,0.02,1.01c0,1.03-0.84,1.06-0.97,1.06
				c-0.46,0-0.62-0.31-0.62-0.62c0-0.24,0.11-0.95,0.11-3.19c0-3.12-0.07-3.34-0.29-4.18l2.05,0.48c0.18,0.04,0.37,0.09,0.37,0.31
				c0,0.22,0,0.22-0.66,0.62v3.98h2.09v-6.95h-2.2c-0.51,0-1.61,0.02-2.57,0.2l-0.44-0.88c1.76,0.15,3.04,0.15,3.39,0.15h2.53
				c0.22-0.4,1.41-2.97,1.32-4.97l2.24,1.28c0.09,0.04,0.22,0.13,0.22,0.29c0,0.29-0.33,0.37-0.95,0.48
				c-0.59,0.66-1.61,1.94-2.38,2.93h2.93l0.75-0.86c0.13-0.13,0.24-0.26,0.33-0.26c0.13,0,0.26,0.11,0.42,0.22l1.03,0.86
				c0.09,0.07,0.22,0.18,0.22,0.33C361.12,182.97,360.9,182.99,360.79,182.99z M353.2,181.89c-0.55,0-0.7-0.46-1.01-1.39
				c-0.44-1.32-0.68-1.74-1.21-2.38l0.11-0.13c0.29,0.11,3.04,1.25,3.04,2.9C354.13,181.63,353.53,181.89,353.2,181.89z"/>
			<path d="M388.16,179.27H377.8l1.83,0.59c0.13,0.04,0.29,0.13,0.29,0.29c0,0.18-0.15,0.33-0.59,0.64
				c-0.02,0.35-0.07,1.5-0.11,2.24h4.4l0.64-0.68c0.18-0.18,0.24-0.24,0.35-0.24c0.11,0,0.24,0.09,0.4,0.22l0.88,0.7
				c0.18,0.13,0.29,0.26,0.29,0.4c0,0.29-0.42,0.55-0.66,0.73c0,1.03,0.11,5.65,0.11,6.6c0,0.64,0,2.16-2.49,2.62
				c-0.4-1.12-1.3-1.78-1.85-2.09v-0.15c0.4,0.04,0.81,0.09,1.45,0.09c0.75,0,1.19-0.09,1.25-0.42c0.07-0.35,0.04-5.98,0.02-7.24
				h-4.8c0,2.44,0,6.82,0.09,9.11c0,0.24,0.07,1.32,0.07,1.54c0,1.01-1.17,1.08-1.25,1.08c-0.64,0-0.64-0.48-0.64-0.66
				c0-1.85,0.22-4.82,0.24-6.67c0.02-1.85,0.02-2.53,0-4.4h-4.44c0,0.7-0.02,3.76-0.02,4.4c0,0.66,0.07,3.54,0.07,4.14
				c0,1.17-1.01,1.17-1.17,1.17c-0.51,0-0.62-0.26-0.62-0.55c0-0.04,0-0.2,0.02-0.44c0.07-0.95,0.18-5,0.18-7.04
				c0-1.52-0.04-2.11-0.29-3.28l2.18,1.08h4.09c-0.02-2.51-0.02-2.79-0.26-3.76h-5.92c-0.29,0-1.52,0-2.6,0.2l-0.44-0.86
				c1.47,0.11,2.97,0.13,3.39,0.13h5.88c0.04-2.38-0.35-3.28-0.57-3.83l2.42,0.53c0.2,0.04,0.42,0.11,0.42,0.33
				c0,0.15,0,0.24-0.73,0.66c0,0.37,0.02,1.98,0.02,2.31h5.74l1.06-1.23c0.15-0.2,0.24-0.26,0.35-0.26c0.11,0,0.24,0.07,0.4,0.22
				l1.41,1.23c0.13,0.11,0.22,0.2,0.22,0.35C388.49,179.25,388.32,179.27,388.16,179.27z"/>
			<path d="M411.83,177.38h-7.28v3.78h3.45l0.62-0.66c0.13-0.13,0.24-0.22,0.33-0.22c0.11,0,0.22,0.04,0.42,0.22l0.99,0.79
				c0.15,0.13,0.26,0.24,0.26,0.37c0,0.2-0.48,0.53-0.77,0.7c-0.02,0.75-0.04,1.28-0.04,2.11c0,1.89,0.07,4.75,0.26,8.23
				c0,0.07,0.04,0.79,0.04,0.81c0,0.2,0,0.55-0.33,0.77c-0.37,0.22-0.73,0.26-0.86,0.26c-0.66,0-0.64-0.4-0.62-1.19h-12.1
				c0,0.48,0.02,1.36-1.21,1.36c-0.59,0-0.62-0.37-0.62-0.59c0-0.07,0.07-0.9,0.09-1.08c0.09-1.56,0.15-6.58,0.15-8.36
				c0-2.24-0.02-3.43-0.31-4.69l2.18,1.14h2.73v-3.78h-3.78c-0.15,0-1.56,0-2.57,0.22l-0.44-0.88c1.12,0.09,2.24,0.13,3.37,0.13
				h13.07l0.88-1.03c0.15-0.18,0.26-0.29,0.4-0.29c0.13,0,0.24,0.09,0.44,0.24l1.36,1.03c0.15,0.11,0.24,0.22,0.24,0.35
				C412.19,177.34,412.03,177.38,411.83,177.38z M408.31,181.69h-3.76v5.35c0,0.48,0,0.75,0.9,0.75c0.86,0,1.17-0.02,1.5-2.35h0.2
				c0.15,0.9,0.29,1.65,0.55,1.94c0.4,0.44,0.48,0.53,0.48,0.79c0,1.14-2.11,1.14-2.73,1.14c-1.52,0-2.42-0.18-2.42-1.45v-6.16
				h-2.29c-0.11,2.62-0.24,6.05-4.47,8.32l-0.07-0.15c2.55-2.27,2.97-4.69,3.01-8.16h-3.04v11.16h12.12V181.69z M403.03,177.38
				h-2.27v3.78h2.27V177.38z"/>
			<path d="M435.26,193.62H419.6c0.02,0.55-0.15,1.32-1.28,1.32c-0.55,0-0.59-0.29-0.59-0.53c0-0.09,0.09-1.85,0.11-2.2
				c0.13-2.84,0.2-12.12,0.2-12.32c0-2.64-0.07-3.3-0.29-4.42l2.24,1.12h11.82l0.92-1.06c0.13-0.13,0.22-0.26,0.33-0.26
				s0.24,0.11,0.42,0.24l1.28,1.03c0.11,0.09,0.22,0.2,0.22,0.33c0,0.22-0.2,0.24-0.35,0.24h-14.96c0,1.23-0.09,6.64-0.09,7.75
				c0,2.53,0,7.08,0.02,8.23h12.65l1.01-1.14c0.15-0.18,0.24-0.26,0.35-0.26c0.09,0,0.26,0.11,0.4,0.22l1.39,1.14
				c0.09,0.09,0.22,0.2,0.22,0.33C435.62,193.6,435.42,193.62,435.26,193.62z M431.72,180.22c-1.19,2-2.22,3.5-3.17,4.67
				c1.5,1.3,3.52,3.3,3.52,4.77c0,0.57-0.4,0.9-0.86,0.9c-0.59,0-0.81-0.42-1.23-1.19c-0.53-1.01-1.32-2.18-2.33-3.39
				c-3.48,3.98-5.92,4.97-7.11,5.43l-0.07-0.18c2.71-1.83,5.46-5.3,6.23-6.29c-1.76-1.87-3.56-3.21-5.04-4.29l0.09-0.15
				c2.77,1.06,5.1,2.95,5.7,3.43c1.34-1.83,2.73-3.98,2.88-5.83l1.96,1.34c0.09,0.07,0.22,0.18,0.22,0.33
				C432.51,180.13,432.14,180.17,431.72,180.22z"/>
			<path d="M459.31,177.82h-9.9c-0.95,2.44-1.72,4.25-2.82,6.14l0.29,0.2h7.96l0.55-0.68c0.13-0.15,0.22-0.24,0.33-0.24
				c0.13,0,0.26,0.07,0.42,0.2l1.01,0.81c0.11,0.09,0.24,0.22,0.24,0.37c0,0.2-0.26,0.44-0.79,0.79c0,1.94,0.02,3.89,0.09,6.03
				c0.02,0.33,0.11,1.94,0.11,2.29c0,1.01-0.88,1.1-1.08,1.1c-0.77,0-0.75-0.42-0.7-1.58h-8.27c0.02,0.97,0.04,1.78-1.08,1.78
				c-0.64,0-0.66-0.42-0.66-0.73c0-1.17,0.24-6.89,0.2-8.18c-2.11,3.01-3.83,4.4-5.61,5.21l-0.07-0.13c4-3.74,6.62-9.11,7.96-13.38
				h-4.31c-0.59,0-1.63,0.02-2.6,0.2l-0.42-0.86c1.12,0.09,2.24,0.13,3.37,0.13h12.76l0.95-1.21c0.13-0.18,0.24-0.26,0.35-0.26
				c0.13,0,0.26,0.11,0.4,0.22l1.43,1.21c0.11,0.11,0.22,0.26,0.22,0.35C459.64,177.78,459.49,177.82,459.31,177.82z M455.02,184.68
				h-8.27v8.03h8.27V184.68z"/>
			<path d="M482.74,194.17c-0.68,0.31-1.67,0.33-3.72,0.33c-1.78,0-3.12-0.04-3.12-2.02c0-1.83,0.51-9.88,0.57-11.53h-3.56
				c-0.24,2.13-0.42,3.5-0.86,5.08c0.53,0.31,2.68,1.63,2.68,2.9c0,0.11,0,0.86-0.88,0.86c-0.37,0-0.53-0.18-0.68-0.35
				c-0.95-1.1-1.19-1.34-1.61-1.78c-1.25,3.45-3.5,5.3-4.93,6.21c-1.34,0.86-2.38,1.17-3.01,1.39l-0.07-0.13
				c4.36-2.53,6.07-6.03,6.82-8.58c-1.65-1.45-2.77-1.94-3.28-2.18v-0.13c1.14,0.18,2.16,0.46,3.59,1.1
				c0.42-1.78,0.55-3.39,0.59-4.38h-3.76c-0.4,0-1.52,0-2.6,0.2l-0.42-0.86c1.36,0.11,2.73,0.13,3.37,0.13h3.45
				c0.02-1.01,0.11-3.59-0.4-5.52l2.71,0.79c0.07,0.02,0.22,0.13,0.22,0.31c0,0.18-0.13,0.29-0.68,0.73
				c-0.04,2.07-0.18,3.37-0.2,3.7h3.32l0.84-0.73c0.09-0.07,0.24-0.22,0.35-0.22c0.13,0,0.26,0.09,0.35,0.15l1.08,0.92
				c0.07,0.07,0.18,0.13,0.18,0.24c0,0.22-0.29,0.37-0.99,0.77c-0.22,1.45-0.48,7.11-0.55,8.98c-0.02,0.59-0.04,1.14-0.04,1.23
				c0,1.17,0.33,1.17,2.35,1.17c0.99,0,1.5,0,1.74-0.77c0.2-0.62,0.59-2.49,0.75-3.26h0.13c0.09,0.51,0.42,2.73,0.55,3.17
				c0.09,0.24,0.13,0.29,0.44,0.57c0.09,0.07,0.2,0.24,0.2,0.48C483.67,193.46,483.42,193.88,482.74,194.17z"/>
			<path d="M488.26,192.74h1.21c1.14,0,1.54-0.44,1.54-1.34v-11.9c0-0.68-0.64-0.79-1.06-0.79h-1.67v-0.68h0.4
				c1.69,0,3.32-0.77,3.59-0.92c0.15-0.09,0.22-0.13,0.31-0.13c0.2,0,0.24,0.13,0.24,0.31v14.13c0,0.95,0.46,1.34,1.54,1.34h1.21
				v0.7h-7.31V192.74z"/>
			<path d="M504.39,188.95h-4.73v-1.43h4.73V188.95z"/>
			<path d="M515.85,193.44h-8.65v-0.59c0.44-1.39,1.47-2.93,3.23-4.93c3.23-3.74,4.33-4.99,4.33-7.19c0-1.65-1.06-3.01-2.93-3.01
				c-1.54,0-2.46,0.92-2.46,1.72c0,0.07,0,0.35,0.22,0.68c0.29,0.44,0.46,0.68,0.46,1.1c0,0.66-0.53,1.23-1.19,1.23
				c-0.77,0-1.25-0.73-1.25-1.54c0-1.61,1.56-3.94,4.73-3.94c2.73,0,4.4,1.72,4.4,4.09c0,2.22-1.28,3.43-3.26,5.13
				c-0.75,0.62-3.65,3.1-4.75,5.52h3.04c3.08,0,3.81-1.19,4.47-3.01l0.66,0.24L515.85,193.44z"/>
			<path d="M524.6,188.95h-4.73v-1.43h4.73V188.95z"/>
			<path d="M528.7,192.74h1.21c1.14,0,1.54-0.44,1.54-1.34v-11.9c0-0.68-0.64-0.79-1.06-0.79h-1.67v-0.68h0.4
				c1.69,0,3.32-0.77,3.59-0.92c0.15-0.09,0.22-0.13,0.31-0.13c0.2,0,0.24,0.13,0.24,0.31v14.13c0,0.95,0.46,1.34,1.54,1.34H536v0.7
				h-7.31V192.74z"/>
			<path d="M545.11,193.86c-1.52,0-2.79-1.06-3.61-2.38c-0.92-1.52-1.34-4.22-1.34-6.27c0-4.69,2-8.25,4.95-8.25
				c2.27,0,4.95,2.44,4.95,8.45C550.06,190.8,547.79,193.86,545.11,193.86z M542.64,180.64c-0.31,1.1-0.51,2.95-0.51,4.77
				c0,4.91,1.17,7.7,2.97,7.7c1.52,0,2.2-2.02,2.44-2.86c0.31-1.12,0.53-2.99,0.53-4.84c0-5.02-1.21-7.7-2.97-7.7
				C543.55,177.71,542.86,179.87,542.64,180.64z"/>
			<path d="M557.58,188.95h-4.73v-1.43h4.73V188.95z"/>
			<path d="M568.58,185.96c1.01,0.86,1.5,1.96,1.5,3.26c0,2.71-2.22,4.64-5.13,4.64c-2.38,0-4.38-1.34-4.38-3.1
				c0-0.97,0.64-1.41,1.25-1.41c0.75,0,1.08,0.64,1.08,1.1c0,0.33-0.07,0.53-0.13,0.7c-0.04,0.13-0.07,0.29-0.07,0.51
				c0,0.84,0.95,1.45,1.98,1.45c1.69,0,3.41-1.67,3.41-3.89c0-2.27-1.67-4.03-3.43-4.03c-0.13,0-0.75,0.09-0.88,0.09
				c-0.33,0-0.48-0.2-0.48-0.46c0-0.29,0.22-0.51,0.51-0.51c0.13,0,0.79,0.13,0.95,0.13c1.85,0,3.01-1.65,3.01-3.43
				c0-1.72-1.03-3.3-2.77-3.3c-1.17,0-1.78,0.84-1.78,1.47c0,0.11,0.04,0.22,0.07,0.33c0.04,0.15,0.07,0.38,0.07,0.53
				c0,0.68-0.51,1.21-1.12,1.21c-0.73,0-1.1-0.64-1.1-1.21c0-1.21,1.41-3.08,4.22-3.08c2.71,0,4.4,1.76,4.4,3.7
				c0,0.77-0.29,1.52-0.81,2.24c-0.9,1.19-1.89,1.56-2.79,1.87C567.15,185.08,567.81,185.3,568.58,185.96z"/>
			<path d="M579.96,193.44h-6.56v-0.7h0.79c0.97,0,1.58-0.55,1.58-1.52v-11.6c0-0.95-0.57-1.52-1.58-1.52h-0.79v-0.73h12.5
				l1.32,3.81l-0.66,0.31c-0.66-1.12-2-3.39-5.02-3.39h-2.44c-0.97,0-1.58,0.53-1.58,1.52v5.15h3.19c1.58,0,2.16-0.62,2.16-2.18
				v-0.44h0.7v6.29h-0.7v-0.79c0-1.34-0.53-2.18-2.16-2.18h-3.19v5.74c0,0.95,0.57,1.52,1.58,1.52h0.86V193.44z"/>
		</g>
	</g>
	<g>
		<g>
			<path d="M253.66,217.37c-0.02,0.76-0.04,1.48-0.04,3.46c0,2.41,0,5.08,0.09,7.47c0.02,0.31,0.1,1.64,0.1,1.91
				c0,0.38,0,1.06-1.05,1.06c-0.44,0-0.45-0.25-0.45-0.49c0-0.11,0.03-0.61,0.05-0.7h-10.77c0.02,0.43,0.02,0.52-0.03,0.68
				c-0.09,0.32-0.56,0.56-0.96,0.56c-0.44,0-0.51-0.25-0.51-0.49c0-0.31,0.03-0.79,0.05-1.1c0.17-3.24,0.21-6.5,0.21-9.76
				c0-1.69,0-3.35-0.21-4.66l1.82,0.97h10.23l0.54-0.54c0.1-0.11,0.21-0.2,0.31-0.2c0.1,0,0.19,0.07,0.31,0.18l0.77,0.63
				c0.09,0.07,0.19,0.18,0.19,0.32C254.32,216.81,254.16,216.94,253.66,217.37z M252.36,216.72h-10.79v12.93h10.79V216.72z
				 M251.19,227.09h-6.62c-0.47,0-1.29,0.02-2.06,0.16l-0.35-0.72c0.89,0.09,1.78,0.13,2.69,0.13h1.24v-3.78h-0.73
				c-0.14,0-1.26,0-2.06,0.16l-0.35-0.72c1.38,0.13,2.62,0.13,2.69,0.13h0.45v-2.95H245c-0.45,0-1.29,0.02-2.06,0.16l-0.33-0.72
				c0.89,0.07,1.78,0.13,2.67,0.13h3.61l0.63-0.68c0.09-0.09,0.19-0.22,0.3-0.22c0.09,0,0.24,0.13,0.31,0.18l0.72,0.68
				c0.07,0.07,0.17,0.16,0.17,0.27c0,0.18-0.17,0.2-0.26,0.2h-3.51v2.95h1.05l0.56-0.59c0.1-0.13,0.21-0.23,0.3-0.23
				c0.07,0,0.19,0.11,0.31,0.2l0.75,0.59c0.07,0.05,0.17,0.16,0.17,0.27c0,0.18-0.17,0.2-0.26,0.2h-2.88v3.78h2.11l0.61-0.65
				c0.12-0.14,0.21-0.22,0.3-0.22c0.1,0,0.23,0.11,0.31,0.18l0.72,0.65c0.07,0.07,0.17,0.16,0.17,0.27
				C251.47,227.07,251.3,227.09,251.19,227.09z M249.13,225.9c-0.4,0-0.65-0.38-0.72-0.79c-0.17-1.03-0.21-1.24-0.49-1.75l0.1-0.09
				c1.22,0.49,1.75,1.26,1.75,1.87C249.78,225.63,249.47,225.9,249.13,225.9z"/>
			<path d="M271.17,221.37l0.72-0.97c0.1-0.14,0.16-0.22,0.26-0.22c0.1,0,0.12,0.04,0.33,0.2l1.17,0.95
				c0.09,0.07,0.17,0.16,0.17,0.29c0,0.16-0.16,0.18-0.28,0.18h-5.81c0,0.59-0.02,3.19-0.02,3.71c0,0.18,0.02,3.92,0,4.45h4.63
				l0.87-0.97c0.12-0.14,0.17-0.22,0.26-0.22c0.1,0,0.16,0.05,0.33,0.2l1.15,0.95c0.09,0.07,0.17,0.16,0.17,0.27
				c0,0.16-0.16,0.2-0.26,0.2h-13.13c-0.17,0-1.26,0-2.06,0.16l-0.35-0.72c1.17,0.11,2.36,0.13,2.69,0.13h4.45
				c-0.02-0.16-0.02-3.98-0.02-4.39v-3.76h-3.68c-0.23,0-1.2,0-2.06,0.16l-0.35-0.7c1.17,0.09,2.36,0.11,2.69,0.11h3.4
				c-0.03-4.09-0.03-4.56-0.44-5.87l2.11,0.58c0.17,0.05,0.28,0.09,0.28,0.25c0,0.14-0.09,0.22-0.16,0.27
				c-0.07,0.07-0.4,0.34-0.51,0.41c0,1.46-0.02,2.9-0.02,4.36H271.17z"/>
			<path d="M285.66,220.34c-0.07,0-0.17,0-0.28-0.02c-1.43,1.85-4.01,3.64-5.92,4.16l-0.05-0.11c1.71-1.06,3.47-2.99,4.31-4.12
				c0.42-0.56,0.58-0.99,0.7-1.37l1.55,0.97c0.07,0.04,0.16,0.11,0.16,0.22C286.13,220.29,285.85,220.32,285.66,220.34z
				 M293.87,231.2c-3.58-1.06-5.6-2.84-6.39-3.71c-1.01,1.03-3.25,3.21-7.89,3.71l-0.02-0.14c3.93-1.13,5.97-3.17,7.16-4.5
				c-1.52-2.07-1.87-4.09-2.01-4.92l0.16-0.02c0.91,2.3,1.73,3.42,2.43,4.21c1.01-1.33,1.87-2.83,2.06-4.52l1.61,1.12
				c0.07,0.05,0.17,0.14,0.17,0.29c0,0.22-0.21,0.29-0.66,0.38c-0.85,1.73-1.64,2.79-2.3,3.62c1.89,1.64,4.35,2.5,7.33,2.68
				l0.02,0.13C294.81,229.88,294.15,230.55,293.87,231.2z M295.04,218.47h-12.99c-0.44,0-1.27,0.02-2.06,0.16l-0.35-0.72
				c1.19,0.11,2.43,0.13,2.69,0.13h4.38c-0.03-1.96-0.09-2.18-0.49-3.15l2.06,0.54c0.14,0.04,0.28,0.11,0.28,0.29
				c0,0.27-0.4,0.4-0.59,0.45c-0.02,0.31-0.03,1.6-0.03,1.87h4.66l0.79-0.99c0.09-0.13,0.17-0.23,0.28-0.23
				c0.12,0,0.24,0.11,0.33,0.18l1.15,1.01c0.07,0.05,0.17,0.16,0.17,0.27C295.32,218.43,295.16,218.47,295.04,218.47z M293.5,223.47
				c-0.4,0-0.45-0.09-0.91-0.86c-0.44-0.72-1.59-2.4-3.11-3.19l0.05-0.09c2.86,0.47,4.68,2.36,4.68,3.37
				C294.22,222.9,294.13,223.47,293.5,223.47z"/>
			<path d="M314.56,230.94c-0.59-0.02-3.16,0.04-3.68,0.04c-1.34,0-3.23-0.05-4.77-0.52c-2.06-0.63-2.48-1.62-2.72-2.18
				c-0.26,0.36-1.59,1.85-1.85,2.18c-0.05,0.18-0.09,0.45-0.12,0.52c-0.02,0.05-0.09,0.14-0.19,0.14c-0.09,0-0.17-0.05-0.24-0.14
				l-1.27-1.57c1.24-0.02,2.55-0.65,2.88-0.86v-5.28c-0.52,0-1.41,0-2.27,0.16l-0.35-0.72c0.77,0.07,1.29,0.11,2.34,0.13l0.65-0.5
				c0.1-0.07,0.19-0.14,0.24-0.14c0.07,0,0.16,0.05,0.23,0.13l0.7,0.65c0.07,0.07,0.12,0.14,0.12,0.23c0,0.11-0.05,0.18-0.1,0.22
				c-0.09,0.07-0.26,0.23-0.37,0.32c-0.05,0.36-0.05,2.2-0.05,2.59c0,2.23,0,3.4,4.87,3.4c0.77,0,3.88-0.09,5.69-0.41
				c0.37-0.07,0.96-0.2,1.41-0.31v0.07C315.18,229.4,314.66,230.17,314.56,230.94z M303.44,218.65c-0.52,0-0.66-0.49-0.77-0.86
				c-0.26-0.9-0.73-1.75-1.48-2.3l0.03-0.11c2.13,0.41,2.93,1.78,2.93,2.47C304.15,218.27,303.87,218.65,303.44,218.65z
				 M314.84,220.27c-0.07,0.07-0.45,0.38-0.54,0.45c-0.03,0.86,0.02,5.11,0.02,6.09c0,0.61,0,1.66-1.68,2.03
				c-0.1-0.76-0.73-1.31-1.36-1.69v-0.09c0.17,0,1.03,0.05,1.22,0.05c0.58,0,0.65-0.13,0.65-0.65v-1.19h-2.72
				c0,0.18,0.05,1.93,0.05,2.25c0,0.07,0.05,0.63,0.05,0.7c0,0.32-0.28,0.65-0.8,0.65c-0.44,0-0.44-0.27-0.44-0.41
				c0-0.09,0.03-0.58,0.03-0.68c0-0.36,0-2.11,0.02-2.5h-2.69c0.02,0.36,0.03,2.09,0.03,2.48c0,0.67-0.51,0.88-0.84,0.88
				c-0.45,0-0.45-0.29-0.45-0.49c0-0.05,0.02-0.29,0.02-0.34c0.05-0.81,0.07-3.17,0.07-3.87c0-3.19-0.07-4.2-0.19-4.95l1.59,0.81
				h2.93c-0.14-0.13-0.16-0.16-0.3-0.49c-0.3-0.63-1-1.37-1.59-1.82v-0.13c0.33,0.04,1.12,0.11,2.22,0.79
				c0.42-0.41,0.91-1.03,1.41-1.66h-3.91c-0.45,0-1.29,0.02-2.06,0.16l-0.35-0.7c0.91,0.07,1.8,0.11,2.69,0.11h3.77l0.63-0.45
				c0.07-0.05,0.16-0.13,0.23-0.13c0.09,0,0.23,0.09,0.28,0.14l1.01,0.88c0.03,0.04,0.12,0.13,0.12,0.23c0,0.04-0.04,0.16-0.14,0.22
				c-0.12,0.07-0.86,0.14-1.01,0.18c-0.38,0.11-2.06,1.01-2.44,1.17c0.16,0.14,0.47,0.41,0.47,0.92c0,0.32-0.16,0.47-0.28,0.56h2.37
				l0.49-0.49c0.07-0.07,0.14-0.14,0.23-0.14c0.05,0,0.16,0.07,0.19,0.11l0.91,0.65c0.09,0.05,0.14,0.13,0.14,0.18
				C314.89,220.18,314.87,220.21,314.84,220.27z M309.34,220.23h-2.71c0,0.5,0.02,1.46,0.02,2.05h2.69V220.23z M309.34,222.72h-2.69
				v2.12h2.69V222.72z M313.14,220.23h-2.72v2.05h2.72V220.23z M313.14,222.72h-2.72v2.12h2.72V222.72z"/>
			<path d="M334.09,230.94c-3.79-2.16-5.6-5.1-6.27-9.92c-0.31,3.17-1.43,8.43-7.85,10.25l-0.07-0.14c2.51-1.26,4.59-3.35,5.62-6.05
				c0.54-1.44,0.91-2.95,1.05-4.5h-4.19c-0.14,0-1.24,0-2.06,0.16l-0.35-0.7c1.38,0.11,2.6,0.11,2.69,0.11h3.96
				c0.03-0.41,0.09-0.97,0.09-1.87c0-0.68-0.05-2.23-0.38-3.17l2.01,0.56c0.16,0.04,0.31,0.13,0.31,0.27c0,0.2-0.24,0.38-0.59,0.61
				c-0.02,1.17-0.07,2.29-0.14,3.6h4.78l0.79-0.94c0.09-0.11,0.17-0.22,0.26-0.22c0.09,0,0.21,0.09,0.33,0.18l1.17,0.94
				c0.07,0.05,0.17,0.16,0.17,0.27c0,0.2-0.17,0.2-0.26,0.2h-7.07c0.24,1.33,0.75,2.57,1.33,3.78c1.29,2.7,3.46,4.16,6.67,5.04v0.14
				C335.7,229.65,334.81,229.86,334.09,230.94z"/>
			<path d="M355.5,230.15h-12.55c0,0.54,0,1.26-0.87,1.26c-0.44,0-0.52-0.32-0.52-0.56c0-0.18,0.02-0.36,0.03-0.49
				c0.04-0.34,0.14-7.33,0.14-11.31c0-2.12-0.02-2.39-0.19-3.47l1.59,0.72h9.51l0.72-0.9c0.1-0.14,0.17-0.23,0.28-0.23
				c0.07,0,0.14,0.05,0.33,0.2l1.12,0.9c0.09,0.07,0.17,0.16,0.17,0.27c0,0.16-0.16,0.2-0.26,0.2h-6.16v3.51h3.04l0.47-0.49
				c0.14-0.14,0.19-0.2,0.26-0.2c0.05,0,0.1,0.04,0.21,0.14l0.84,0.76c0.12,0.11,0.17,0.16,0.17,0.27c0,0.16-0.45,0.47-0.65,0.58
				c0.02,0.65,0.14,3.51,0.14,4.09c0,0.86-0.7,0.92-0.89,0.92c-0.42,0-0.42-0.27-0.4-0.86h-3.23v4.27h4.22l0.79-0.94
				c0.14-0.18,0.19-0.23,0.28-0.23c0.07,0,0.16,0.07,0.33,0.2l1.19,0.94c0.12,0.09,0.17,0.18,0.17,0.27
				C355.78,230.12,355.62,230.15,355.5,230.15z M347.63,216.74h-4.68v3.51h4.68V216.74z M352.03,220.68h-9.08v4.34h9.08V220.68z
				 M347.57,225.45h-4.63v4.27h4.63V225.45z"/>
			<path d="M367.15,231.95c-2.72-2.25-4.14-5.49-4.14-8.71c0-3.22,1.41-6.46,4.14-8.71l0.16,0.25c-3.25,3.55-3.32,7.15-3.32,8.46
				c0,1.31,0.07,4.92,3.32,8.46L367.15,231.95z"/>
			<path d="M372.63,229.5h0.96c0.91,0,1.22-0.36,1.22-1.1v-9.74c0-0.56-0.51-0.65-0.84-0.65h-1.33v-0.56h0.31
				c1.34,0,2.64-0.63,2.85-0.76c0.12-0.07,0.17-0.11,0.24-0.11c0.16,0,0.19,0.11,0.19,0.25v11.56c0,0.77,0.37,1.1,1.22,1.1h0.96
				v0.58h-5.8V229.5z"/>
			<path d="M383.91,231.95l-0.16-0.25c3.25-3.55,3.32-7.15,3.32-8.46c0-1.31-0.07-4.92-3.32-8.46l0.16-0.25
				c2.72,2.25,4.14,5.49,4.14,8.71C388.05,226.46,386.63,229.7,383.91,231.95z"/>
			<path d="M398.58,230.42c-1.2,0-2.22-0.86-2.86-1.94c-0.73-1.24-1.06-3.46-1.06-5.13c0-3.84,1.59-6.75,3.93-6.75
				c1.8,0,3.93,2,3.93,6.91C402.5,227.92,400.71,230.42,398.58,230.42z M396.62,219.6c-0.24,0.9-0.4,2.41-0.4,3.91
				c0,4.02,0.93,6.3,2.36,6.3c1.2,0,1.75-1.66,1.94-2.34c0.24-0.92,0.42-2.45,0.42-3.96c0-4.11-0.96-6.3-2.36-6.3
				C397.34,217.21,396.8,218.97,396.62,219.6z"/>
			<path d="M410.1,230.42c-1.2,0-2.22-0.86-2.86-1.94c-0.73-1.24-1.06-3.46-1.06-5.13c0-3.84,1.59-6.75,3.93-6.75
				c1.8,0,3.93,2,3.93,6.91C414.03,227.92,412.23,230.42,410.1,230.42z M408.14,219.6c-0.24,0.9-0.4,2.41-0.4,3.91
				c0,4.02,0.93,6.3,2.36,6.3c1.2,0,1.75-1.66,1.94-2.34c0.24-0.92,0.42-2.45,0.42-3.96c0-4.11-0.96-6.3-2.36-6.3
				C408.86,217.21,408.32,218.97,408.14,219.6z"/>
			<path d="M422.39,224.86c-0.37,0.23-0.91,0.47-1.52,0.47c-1.73,0-3.12-1.8-3.12-4c0-2.48,1.73-4.74,3.74-4.74
				c1.99,0,4.02,2.34,4.02,6.21c0,4.16-2.27,7.62-4.94,7.62c-1.17,0-1.99-0.72-1.99-1.57c0-0.65,0.49-0.94,0.89-0.94
				c0.35,0,0.92,0.23,0.96,1.24c0.02,0.4,0.05,0.65,0.52,0.65c0.47,0,0.94-0.23,1.27-0.63c1.55-1.76,1.64-4.43,1.71-6.03
				C423.6,223.71,423.23,224.32,422.39,224.86z M422.97,218.18c-0.3-0.49-0.75-0.97-1.41-0.97c-0.93,0-2.23,1.01-2.23,3.96
				c0,0.83,0.19,3.35,1.99,3.35c0.66,0,1.78-0.5,2.6-2.45C423.84,221.08,423.7,219.35,422.97,218.18z"/>
			<path d="M434.51,216.59h0.72v9.15h1.97v0.58h-1.97v2.09c0,0.79,0.38,1.1,1.22,1.1h0.28v0.58h-4.43v-0.58h0.28
				c0.82,0,1.22-0.29,1.22-1.1v-2.09h-4.7v-0.63L434.51,216.59z M433.79,218.97l-4.03,6.77h4.03V218.97z"/>
			<path d="M447.25,223.96c0.8,0.7,1.19,1.6,1.19,2.67c0,2.21-1.76,3.8-4.07,3.8c-1.89,0-3.47-1.1-3.47-2.54
				c0-0.79,0.51-1.15,0.99-1.15c0.59,0,0.86,0.52,0.86,0.9c0,0.27-0.05,0.43-0.1,0.58c-0.03,0.11-0.05,0.23-0.05,0.41
				c0,0.68,0.75,1.19,1.57,1.19c1.34,0,2.71-1.37,2.71-3.19c0-1.85-1.33-3.29-2.72-3.29c-0.1,0-0.59,0.07-0.7,0.07
				c-0.26,0-0.38-0.16-0.38-0.38c0-0.23,0.17-0.41,0.4-0.41c0.1,0,0.63,0.11,0.75,0.11c1.47,0,2.39-1.35,2.39-2.81
				c0-1.4-0.82-2.7-2.2-2.7c-0.93,0-1.41,0.68-1.41,1.21c0,0.09,0.03,0.18,0.05,0.27c0.03,0.13,0.05,0.31,0.05,0.43
				c0,0.56-0.4,0.99-0.89,0.99c-0.58,0-0.87-0.52-0.87-0.99c0-0.99,1.12-2.52,3.35-2.52c2.15,0,3.49,1.44,3.49,3.02
				c0,0.63-0.23,1.24-0.65,1.84c-0.72,0.97-1.5,1.28-2.22,1.53C446.12,223.24,446.64,223.42,447.25,223.96z"/>
			<path d="M455.43,222.18c0.37-0.23,0.91-0.47,1.52-0.47c1.73,0,3.12,1.8,3.12,3.98c0,2.5-1.73,4.74-3.74,4.74
				c-1.99,0-4.02-2.32-4.02-6.21c0-4.16,2.27-7.62,4.94-7.62c1.17,0,1.99,0.72,1.99,1.58c0,0.65-0.49,0.94-0.89,0.94
				c-0.35,0-0.92-0.23-0.96-1.26c-0.02-0.4-0.05-0.65-0.52-0.65c-0.47,0-0.94,0.27-1.27,0.65c-1.55,1.76-1.64,4.41-1.71,6.03
				C454.22,223.33,454.59,222.7,455.43,222.18z M454.85,228.84c0.3,0.49,0.75,0.97,1.41,0.97c0.93,0,2.23-0.99,2.23-3.96
				c0-0.81-0.19-3.33-1.99-3.33c-0.66,0-1.78,0.5-2.6,2.45C453.98,225.96,454.12,227.69,454.85,228.84z"/>
			<path d="M19.18,239.52c-1.6,2.52-2.85,4.4-6,6.29l-0.08-0.12c2.66-2.63,5-6.12,4.87-7.85l1.68,1.04c0.08,0.05,0.2,0.15,0.2,0.29
				C19.84,239.34,19.69,239.42,19.18,239.52z M25.99,251.85c-0.4,0-0.68-0.27-0.87-0.75c-0.58-1.34-0.64-1.5-0.69-1.61
				c-2.42,0.88-7.55,1.94-8.23,2.07c-0.28,0.37-0.36,0.46-0.51,0.46s-0.23-0.17-0.26-0.27l-0.54-1.77c0.35,0.07,0.81,0.15,1.35,0.15
				c0.13,0,1.09-0.08,1.29-0.1c0.86-1.82,1.93-4.64,2.21-6.14c0.07-0.31,0.07-0.68,0.05-0.99l1.72,0.75
				c0.1,0.05,0.25,0.14,0.25,0.29c0,0.2-0.2,0.29-0.56,0.41c-0.18,0.31-0.31,0.54-1.52,2.72c-0.49,0.87-1.04,1.79-1.76,2.91
				c1.9-0.2,4.24-0.49,6.35-0.78c-0.86-1.24-1.32-1.72-1.95-2.23l0.05-0.12c1.93,0.73,4.37,2.43,4.37,4.1
				C26.72,251.69,26.19,251.85,25.99,251.85z M27.05,245.27c-0.53-0.29-1.88-1.05-3.1-2.79c-1.2-1.7-1.4-2.86-1.62-4.06
				c-0.41,0.02-1.37,0.02-2.16,0.19l-0.35-0.68c0.43,0.03,1.27,0.08,2.13,0.08l0.48-0.58c0.12-0.14,0.18-0.22,0.26-0.22
				s0.18,0.07,0.35,0.19l0.73,0.54c0.07,0.05,0.17,0.14,0.17,0.25c0,0.15-0.12,0.22-0.38,0.34c-0.38,0.15-0.53,0.22-0.76,0.31
				c0.58,2.23,2.75,4.42,5.89,4.86v0.12C28.22,244.01,27.51,244.28,27.05,245.27z"/>
			<path d="M44.71,246.9c-2.24-0.92-4.22-3.2-5.05-5.44H37.7c-1.3,1.78-2.42,3.15-3.96,4.33l1.25,0.56h6.37l0.53-0.53
				c0.12-0.12,0.18-0.17,0.25-0.17c0.07,0,0.13,0.05,0.23,0.14l0.66,0.53c0.12,0.08,0.18,0.17,0.18,0.25c0,0.1-0.07,0.19-0.53,0.53
				c-0.03,0.59-0.03,0.8-0.03,1.97v2.4h0.92l0.66-0.92c0.12-0.17,0.18-0.22,0.28-0.22s0.18,0.07,0.3,0.2l0.84,0.9
				c0.1,0.12,0.17,0.2,0.17,0.29c0,0.12-0.12,0.15-0.25,0.15H33.34c-0.41,0-1.2,0.02-1.95,0.15l-0.33-0.66
				c0.99,0.08,2.01,0.1,2.74,0.1c-0.02-4.08-0.03-4.93-0.17-5.61c-1.35,1.02-2.39,1.41-3.07,1.67l-0.07-0.15
				c2.21-1.33,4.72-4.23,5.39-5.92h-1.73c-0.17,0-1.19,0.02-1.95,0.17l-0.33-0.68c1.15,0.1,2.39,0.1,2.54,0.1h4.88
				c1.07-1.38,2.05-2.79,2.33-4.22l1.47,1.07c0.12,0.08,0.18,0.17,0.18,0.27c0,0.24-0.43,0.31-0.84,0.36
				c-0.74,0.83-1.85,1.87-2.77,2.52h3.2l0.73-0.75c0.1-0.1,0.18-0.19,0.26-0.19c0.08,0,0.18,0.07,0.3,0.17l0.87,0.75
				c0.1,0.08,0.17,0.19,0.17,0.27c0,0.1-0.07,0.15-0.25,0.15h-5.06c0.94,1.61,2.99,3.48,6.5,4.06v0.1
				C45.83,245.81,45.25,246,44.71,246.9z M36.02,240.58c-0.41,0-0.51-0.22-1.01-1.27c-0.23-0.51-0.64-1.26-1.32-1.85l0.07-0.07
				c0.86,0.25,2.95,0.9,2.95,2.46C36.71,240.46,36.23,240.58,36.02,240.58z M36.36,246.76h-1.45v4.71h1.45V246.76z M38.95,246.76
				H37.5v4.71h1.45V246.76z M41.56,246.76h-1.5v4.71h1.5V246.76z"/>
			<path d="M54.72,246.48c-0.38,0-0.56-0.32-0.69-0.58c-0.38-0.76-0.81-1.53-1.35-2.18c-0.02,4.5-0.02,5,0.02,6.24
				c0,0.26,0.07,1.39,0.07,1.62c0,0.63-0.56,0.76-0.81,0.76c-0.51,0-0.51-0.37-0.51-0.53c0-0.19,0.07-1,0.07-1.17
				c0.05-1.31,0.03-1.65,0.08-5.81c-1.52,1.56-2.77,2.23-3.27,2.5l-0.07-0.12c1.86-1.67,4.24-4.81,4.98-6.44h-2.31
				c-0.41,0-1.2,0.02-1.95,0.15l-0.31-0.66c1.12,0.08,2.29,0.1,2.52,0.1h0.43c-0.03-2.18-0.21-2.69-0.43-3.33l1.9,0.56
				c0.1,0.03,0.2,0.14,0.2,0.22c0,0.2-0.2,0.34-0.53,0.51c-0.03,0.48-0.03,0.51,0,2.04h0.59l0.41-0.44c0.12-0.12,0.2-0.17,0.3-0.17
				c0.1,0,0.17,0.07,0.26,0.15l0.74,0.68c0.08,0.07,0.12,0.15,0.12,0.24c0,0.25-0.26,0.32-0.79,0.39c-0.26,0.42-0.73,1.16-1.65,2.33
				c0.17,0.05,0.92,0.32,1.75,0.94c0.3,0.22,0.82,0.61,0.82,1.29C55.31,246.02,55.16,246.48,54.72,246.48z M63.38,251.32H56.4
				c-0.16,0-1.17,0-1.95,0.15l-0.33-0.68c1.15,0.1,2.39,0.12,2.54,0.12h1.62c0-1.73,0.02-4.49,0-6.22
				c-0.02-0.82-0.02-0.94-0.02-1.46h-0.97c-0.17,0-1.17,0-1.95,0.15l-0.33-0.68c1.1,0.1,2.24,0.12,2.54,0.12h0.71
				c0-0.29-0.02-1.41-0.02-1.7c-0.02-2.74-0.02-3.09-0.48-4.08l1.83,0.44c0.25,0.05,0.4,0.17,0.4,0.32c0,0.22-0.31,0.41-0.56,0.51
				c-0.02,0.42-0.02,3.79-0.02,4.5h1.67l0.61-0.83c0.1-0.14,0.17-0.2,0.26-0.2c0.08,0,0.18,0.07,0.31,0.19l0.91,0.82
				c0.1,0.08,0.16,0.19,0.16,0.27c0,0.12-0.13,0.17-0.25,0.17h-3.68v4.61l0.02,3.08h1.77l0.78-0.88c0.12-0.14,0.2-0.19,0.28-0.19
				s0.18,0.03,0.31,0.17l0.91,0.87c0.08,0.08,0.15,0.19,0.15,0.27C63.62,251.27,63.47,251.32,63.38,251.32z"/>
			<path d="M80.24,239.27c0,0.39-0.02,1.07-0.02,2.28c0,2.43,0.07,5.51,0.12,8.07c0,0.31,0.05,1.65,0.05,1.94
				c0,0.82-0.63,0.87-0.86,0.87c-0.48,0-0.5-0.41-0.46-1H69c0.02,0.36,0.02,0.49-0.02,0.63c-0.07,0.31-0.46,0.56-0.81,0.56
				c-0.54,0-0.54-0.41-0.54-0.63c0-0.05,0.12-3.82,0.13-4.56c0.1-3.23,0.12-4.69,0.12-5.93c0-1.05,0-3.21-0.23-4.05l1.6,0.9h9.67
				l0.54-0.46c0.08-0.07,0.21-0.2,0.3-0.2c0.1,0,0.15,0.03,0.33,0.2l0.66,0.58c0.1,0.08,0.17,0.17,0.17,0.25
				C80.9,238.89,80.56,239.13,80.24,239.27z M79.07,238.76H69v12.26h10.08V238.76z M78.46,242.87h-2.42
				c0.02,4.27,0.02,4.67,0.02,5.24c-0.02,1.07-0.03,2.07-1.75,2.33c-0.12-0.48-0.48-1.12-1.48-1.67v-0.14
				c0.07,0.02,1.37,0.14,1.6,0.14c0.49,0,0.54-0.2,0.54-0.95c0-0.39-0.03-1.75-0.03-2.23c0-0.27-0.02-1.04-0.03-2.72h-3.28
				c-0.21,0-1.14,0-1.95,0.15l-0.33-0.68c1.1,0.1,2.24,0.12,2.54,0.12h3.02c0-2.4,0-2.67-0.25-3.37l1.62,0.51
				c0.13,0.05,0.26,0.12,0.26,0.27c0,0.24-0.33,0.37-0.5,0.44v2.14h0.69l0.54-0.7c0.08-0.1,0.15-0.2,0.25-0.2
				c0.1,0,0.17,0.05,0.3,0.17l0.73,0.7c0.08,0.08,0.17,0.15,0.17,0.25C78.71,242.85,78.56,242.87,78.46,242.87z M72.71,247.33
				c-0.56,0-0.64-0.39-0.77-1.22c-0.13-0.77-0.4-1.36-0.73-1.97l0.08-0.07c1.2,0.7,2.11,1.5,2.11,2.46
				C73.4,247.17,72.97,247.33,72.71,247.33z"/>
			<path d="M84.43,241.7c0.69,0.08,2.39,0.59,2.39,1.77c0,0.36-0.18,0.75-0.68,0.75c-0.45,0-0.51-0.17-0.94-1.19
				c-0.25-0.61-0.61-1.04-0.81-1.26L84.43,241.7z M89.03,240.05c-0.28,1.14-1.47,6.14-1.73,7.14c-0.28,1.1-0.4,1.5-0.4,1.82
				c0,0.37,0.03,0.61,0.23,1.27c0.13,0.48,0.35,1.22,0.35,1.46c0,0.48-0.26,0.92-0.81,0.92c-0.3,0-0.77-0.15-0.77-0.99
				c0-0.31,0.07-1.67,0.07-1.94c0-1.09-0.78-1.51-1.12-1.61l-0.02-0.1c0.89-0.14,1.14-0.48,1.4-1.04c0.76-1.68,2.57-6.66,2.67-6.95
				L89.03,240.05z M85.95,237.43c1.34,0.25,2.44,0.93,2.44,1.87c0,0.25-0.15,0.75-0.64,0.75c-0.45,0-0.56-0.27-0.86-0.95
				c-0.23-0.56-0.58-1.12-0.96-1.6L85.95,237.43z M96.92,244.95l0.73-0.9c0.12-0.14,0.15-0.2,0.26-0.2c0.1,0,0.17,0.07,0.3,0.19
				l1.01,0.88c0.08,0.07,0.17,0.15,0.17,0.25c0,0.15-0.15,0.19-0.25,0.19h-5.01c-1.86,3.28-3.23,4.96-3.25,4.98
				c1.57-0.07,3.69-0.32,5.21-0.61c-0.68-0.99-1.07-1.38-1.48-1.72l0.07-0.08c1.91,0.8,2.71,1.33,3.4,2.19
				c0.07,0.08,0.63,0.78,0.63,1.43c0,0.53-0.43,0.75-0.71,0.75c-0.3,0-0.54-0.15-0.86-0.77c-0.36-0.7-0.56-1.07-0.87-1.56
				c-0.4,0.15-2.62,0.99-6.68,1.75c-0.18,0.37-0.21,0.42-0.35,0.42c-0.15,0-0.25-0.24-0.26-0.27l-0.71-1.58
				c0.43,0.07,0.76,0.1,1.14,0.1c0.35,0,0.91-0.02,1.11-0.03c0.74-1.31,1.63-3.57,1.98-5h-1.81c-0.3,0-1.14,0-1.95,0.15l-0.33-0.68
				c1.2,0.1,2.26,0.12,2.54,0.12h1.93v-3.79H91.7c-0.28,0-1.15,0-1.95,0.15l-0.33-0.68c0.84,0.07,1.7,0.12,2.54,0.12h0.87
				c-0.05-2.35-0.05-2.62-0.38-3.74l1.86,0.53c0.12,0.03,0.28,0.08,0.28,0.24c0,0.25-0.41,0.41-0.63,0.49v2.48h2.28L96.9,240
				c0.1-0.12,0.18-0.22,0.26-0.22c0.07,0,0.15,0.07,0.3,0.19l0.94,0.75c0.08,0.07,0.17,0.15,0.17,0.26c0,0.15-0.13,0.19-0.25,0.19
				h-4.34v3.79H96.92z"/>
			<path d="M117.25,250.93c-0.99,0.22-1.35,0.58-1.86,1.19c-2.03-1.29-3.38-3.42-4.22-5.71c-0.56-1.51-1.12-3.57-1.2-7.73
				c-0.07,0.02-0.1,0.02-0.18,0.03c-0.17,5.78-1.25,11.17-7.14,13.36l-0.07-0.14c2.01-1.24,3.73-3.55,4.5-5.2
				c1.19-2.53,1.45-6.14,1.45-8.04c0-0.82-0.07-1.02-0.15-1.29l2,0.53c0.28,0.07,0.33,0.1,0.33,0.24c0,0.27-0.26,0.37-0.43,0.42
				c0.12,2.96,0.99,6.53,2.52,8.79c1.6,2.33,3.65,3.11,4.47,3.42L117.25,250.93z"/>
			<path d="M152.09,244.27c-3.23-1.41-5.51-3.99-6.42-5.98h-0.1c-2.06,3.21-5.67,6.44-8.08,7.09l-0.07-0.1
				c2.82-2.04,4.78-4.03,6.73-7.36c0.38-0.63,0.4-0.78,0.45-1.07l1.55,0.87c0.08,0.05,0.13,0.1,0.13,0.22
				c0,0.08-0.07,0.24-0.35,0.31c1.57,2.29,4.7,4.23,7.5,4.49v0.14C153.26,242.96,152.46,243.43,152.09,244.27z M152.13,251.73
				h-11.23c-0.17,0-1.19,0-1.95,0.15l-0.33-0.68c1.14,0.1,2.39,0.12,2.54,0.12h3.56v-3.28h-2.41c-0.41,0-1.2,0-1.95,0.15l-0.33-0.68
				c1.02,0.08,2.05,0.12,2.54,0.12h2.14v-3.06h-1.5c-0.41,0-1.2,0.02-1.95,0.15l-0.31-0.68c1.12,0.1,2.29,0.12,2.52,0.12h4.17
				l0.64-0.83c0.1-0.12,0.16-0.19,0.23-0.19c0.1,0,0.16,0.03,0.28,0.14l1.09,0.85c0.05,0.03,0.17,0.14,0.17,0.25
				c0,0.17-0.15,0.19-0.25,0.19h-3.94v3.06h2.46l0.59-0.8c0.07-0.1,0.17-0.2,0.25-0.2c0.07,0,0.13,0.02,0.31,0.17l0.97,0.8
				c0.08,0.07,0.17,0.14,0.17,0.26c0,0.15-0.13,0.19-0.25,0.19h-4.5v3.28h4.02l0.79-0.92c0.05-0.05,0.13-0.15,0.21-0.15
				s0.17,0.08,0.3,0.19l1.01,0.85c0.08,0.07,0.17,0.15,0.17,0.25C152.37,251.71,152.23,251.73,152.13,251.73z"/>
			<path d="M169.52,239.27c-0.02,0.71-0.03,1.39-0.03,3.26c0,2.28,0,4.79,0.08,7.05c0.02,0.29,0.1,1.55,0.1,1.8c0,0.36,0,1-0.99,1
				c-0.41,0-0.43-0.24-0.43-0.46c0-0.1,0.03-0.58,0.05-0.66h-10.18c0.02,0.41,0.02,0.49-0.03,0.65c-0.08,0.31-0.53,0.53-0.91,0.53
				c-0.41,0-0.48-0.24-0.48-0.46c0-0.29,0.03-0.75,0.05-1.04c0.16-3.06,0.2-6.14,0.2-9.21c0-1.6,0-3.16-0.2-4.4l1.72,0.92h9.67
				l0.51-0.51c0.1-0.1,0.2-0.19,0.3-0.19s0.18,0.07,0.3,0.17l0.73,0.6c0.08,0.07,0.18,0.17,0.18,0.31
				C170.15,238.74,170,238.86,169.52,239.27z M168.3,238.66h-10.19v12.2h10.19V238.66z M167.2,248.45h-6.25
				c-0.45,0-1.22,0.02-1.95,0.15l-0.33-0.68c0.84,0.08,1.68,0.12,2.54,0.12h1.17v-3.57h-0.69c-0.13,0-1.19,0-1.95,0.15l-0.33-0.68
				c1.3,0.12,2.47,0.12,2.54,0.12h0.43v-2.79h-1.04c-0.43,0-1.22,0.02-1.95,0.15l-0.31-0.68c0.84,0.07,1.68,0.12,2.52,0.12h3.41
				l0.59-0.65c0.08-0.08,0.18-0.2,0.28-0.2c0.08,0,0.23,0.12,0.3,0.17l0.68,0.65c0.07,0.07,0.16,0.15,0.16,0.25
				c0,0.17-0.16,0.19-0.25,0.19h-3.32v2.79h0.99l0.53-0.56c0.1-0.12,0.2-0.22,0.28-0.22c0.07,0,0.18,0.1,0.3,0.19l0.71,0.56
				c0.07,0.05,0.17,0.15,0.17,0.25c0,0.17-0.17,0.19-0.25,0.19h-2.72v3.57h2l0.58-0.61c0.12-0.14,0.2-0.2,0.28-0.2
				c0.1,0,0.21,0.1,0.3,0.17l0.68,0.61c0.07,0.07,0.17,0.15,0.17,0.25C167.46,248.43,167.3,248.45,167.2,248.45z M165.25,247.33
				c-0.38,0-0.61-0.36-0.68-0.75c-0.17-0.97-0.2-1.17-0.46-1.65l0.1-0.08c1.15,0.46,1.65,1.19,1.65,1.77
				C165.86,247.07,165.56,247.33,165.25,247.33z"/>
			<path d="M186.77,240.92c-0.53,0.27-1.01,0.63-1.48,0.99l-0.08-0.05c0.45-1.31,0.46-1.43,0.51-1.75h-9.6
				c0.05,1.9-0.96,2.8-1.67,2.8c-0.46,0-0.71-0.37-0.71-0.66c0-0.43,0.38-0.73,0.84-1.1c0.78-0.61,1.09-1.1,1.27-2.11h0.1
				c0.07,0.2,0.1,0.36,0.13,0.66h4.26c0.03-1.6-0.1-1.99-0.33-2.7l1.72,0.51c0.18,0.05,0.25,0.15,0.25,0.25
				c0,0.15-0.12,0.25-0.49,0.53v1.41h4.17l0.51-0.49c0.1-0.08,0.2-0.17,0.31-0.17c0.12,0,0.23,0.12,0.31,0.2l0.96,0.95
				c0.17,0.17,0.2,0.32,0.2,0.43C187.94,240.78,187.86,240.92,186.77,240.92z M187.73,251.51c-0.71,0.53-2.72,0.54-3.66,0.54
				c-3.74,0-4.5-0.03-4.57-1.67c-0.02-0.27-0.02-2.62-0.02-3.04l-3.4,0.65c-0.82,0.15-1.42,0.32-1.88,0.51l-0.45-0.61
				c0.84-0.08,1.68-0.19,2.52-0.34l3.2-0.61c0-0.43,0.02-2.53,0.03-3.01c-1.47,0.39-3.41,0.94-5.31,0.95v-0.12
				c0.25-0.05,7.49-2.09,8.71-3.82l1.1,1.12c0.1,0.08,0.12,0.22,0.12,0.29c0,0.15-0.17,0.22-0.25,0.22s-0.49-0.02-0.59-0.02
				c-0.45,0.2-1.07,0.48-2.62,1c0,0.46-0.03,2.67-0.03,3.16l4.98-0.93l0.61-1.02c0.08-0.14,0.15-0.25,0.25-0.25
				c0.08,0,0.21,0.07,0.3,0.12l1.12,0.66c0.1,0.05,0.21,0.17,0.21,0.27c0,0.14-0.1,0.17-0.21,0.19l-7.27,1.38
				c-0.02,1.29,0,2.23,0.03,3.09c0.02,0.27,0.08,0.44,0.33,0.54c0.3,0.12,1.06,0.14,3.03,0.14c2.51,0,2.79-0.03,3.3-3.18h0.1
				c0.08,0.46,0.2,1.16,0.31,1.73c0.12,0.58,0.13,0.65,0.33,0.83c0.23,0.22,0.26,0.24,0.26,0.41
				C188.32,251.05,187.98,251.34,187.73,251.51z"/>
			<path d="M197.09,243.14h-1.93v5.47c1.34-0.41,1.72-0.56,2.09-0.7l0.07,0.14c-0.58,0.44-1.35,0.9-2.38,1.45
				c-0.68,0.36-1.53,0.8-2.03,1.05c-0.15,0.36-0.21,0.54-0.41,0.54c-0.12,0-0.21-0.12-0.26-0.2l-0.86-1.51
				c0.56,0.03,0.84,0.07,2.71-0.46c0-0.58,0.02-3.16,0.02-3.69v-2.09h-0.33c-0.3,0-1.14,0-1.95,0.15l-0.31-0.68
				c0.97,0.08,1.96,0.12,2.59,0.12c0-0.85,0-1.7-0.02-2.55c-0.02-1.43-0.05-1.8-0.21-2.52l1.67,0.58c0.08,0.03,0.23,0.1,0.23,0.25
				c0,0.2-0.33,0.46-0.56,0.61c-0.03,1.19-0.03,1.77-0.05,3.62h0.4l0.5-0.56c0.15-0.17,0.2-0.22,0.28-0.22c0.1,0,0.2,0.12,0.28,0.19
				l0.58,0.56c0.08,0.09,0.15,0.15,0.15,0.26C197.34,243.13,197.19,243.14,197.09,243.14z M204.47,251.85
				c-0.38,0.07-3.3,0.07-3.76,0.07c-2.71,0-3.18-0.14-3.18-1.99c0-0.66,0.05-3.59,0.05-4.18c0-0.17-0.02-0.94-0.02-1.09
				c-0.66,0.31-1.02,0.49-1.6,0.9l-0.56-0.48c0.89-0.31,1.91-0.76,2.16-0.88v-3.01c0-0.8-0.03-1.17-0.18-1.97l1.53,0.54
				c0.12,0.03,0.25,0.1,0.25,0.24c0,0.15-0.13,0.27-0.53,0.56c-0.02,0.51-0.03,2.72-0.03,3.16l1.8-0.83c0.02-1.7,0.02-2.91-0.03-4.1
				c-0.03-0.63-0.15-1.22-0.2-1.5l1.58,0.54c0.17,0.05,0.28,0.14,0.28,0.25c0,0.15-0.23,0.36-0.58,0.63
				c-0.03,1.53-0.03,1.75-0.03,3.69l1.6-0.73l0.4-0.68c0.08-0.14,0.17-0.29,0.28-0.29c0.12,0,0.21,0.07,0.31,0.14l0.78,0.49
				c0.07,0.03,0.17,0.15,0.17,0.27c0,0.2-0.18,0.37-0.41,0.6c0,5.1-0.03,6.27-1.96,6.8c-0.15-0.85-0.76-1.27-0.99-1.43v-0.08
				c0.28,0.03,0.38,0.03,0.51,0.03c1.15,0,1.34-0.15,1.34-3.74c0-1.16-0.02-1.34-0.03-1.84l-1.96,0.92c0.02,2.5,0.03,4.13,0.05,4.59
				c0,0.22,0.05,1.22,0.05,1.43c0,0.82-0.69,0.85-0.84,0.85c-0.23,0-0.4-0.08-0.4-0.44c0-0.19,0.05-1.05,0.05-1.22
				c0.03-1.09,0.03-1.73,0.05-4.73l-1.8,0.83c-0.02,0.68,0,5.9,0.02,6.1c0.02,0.22,0.18,0.41,0.4,0.48
				c0.21,0.07,2.57,0.07,2.89,0.07c1.7,0,2.21,0,2.56-0.63c0.31-0.6,0.66-1.85,0.73-2.06h0.12c0.03,0.61,0.08,1.62,0.31,2.02
				c0.1,0.17,0.38,0.32,0.38,0.49C205.98,250.89,205.7,251.63,204.47,251.85z"/>
			<path d="M222.87,252.02c-5.99-0.08-8.56-0.12-10.79-2.35c-1.01,1.53-1.95,2.21-3.36,2.94l-0.1-0.1c1.3-1.16,2.13-2.06,2.85-3.54
				c-1.06-1.36-1.39-2.67-1.53-3.28l0.17-0.14c0.53,1.55,1.4,2.52,1.67,2.79c0.51-1.22,0.92-2.79,0.92-4.62h-1.39
				c-0.33,0.95-0.41,1.21-0.96,1.21c-0.12,0-0.59-0.02-0.59-0.39c0-0.1,0.25-0.8,0.4-1.21c0.86-2.28,1.53-4.13,1.73-4.88h-0.59
				c-0.28,0-1.2,0-1.95,0.15l-0.31-0.68c0.84,0.07,1.68,0.12,2.52,0.12h0.3l0.43-0.36c0.15-0.12,0.23-0.17,0.31-0.17
				c0.07,0,0.17,0.07,0.28,0.17l0.64,0.56c0.13,0.1,0.17,0.2,0.17,0.31c0,0.2-0.33,0.36-0.76,0.54c-0.36,0.95-0.58,1.53-1.48,4.22
				h1.12l0.45-0.36c0.13-0.1,0.23-0.17,0.31-0.17c0.12,0,0.2,0.07,0.31,0.19l0.51,0.54c0.13,0.14,0.2,0.25,0.2,0.36
				c0,0.15-0.16,0.25-0.51,0.48c-0.15,1.63-0.56,3.21-1.35,4.67c1.58,1.31,3.71,1.68,5.74,1.68c1.96,0,4.27-0.22,5.81-0.49
				l0.03,0.14C223.1,250.84,222.97,251.54,222.87,252.02z M223.84,241.43h-2.28c0.07,2.02,0.07,2.02,0.07,2.14
				c0,0.34,0,0.87-0.79,0.87c-0.45,0-0.43-0.27-0.41-0.56h-2.03v1.77h2.47l0.49-0.65c0.12-0.14,0.18-0.22,0.28-0.22
				c0.1,0,0.18,0.08,0.31,0.19l0.74,0.65c0.08,0.09,0.16,0.19,0.16,0.26c0,0.15-0.12,0.19-0.25,0.19h-4.22l0.02,1.8h2.94l0.63-0.75
				c0.13-0.15,0.2-0.22,0.28-0.22c0.1,0,0.18,0.07,0.3,0.19l0.77,0.75c0.12,0.1,0.17,0.2,0.17,0.29c0,0.1-0.1,0.15-0.25,0.15h-4.83
				c0,0.2,0.03,1.21,0,1.43c-0.02,0.22-0.31,0.61-0.73,0.61c-0.53,0-0.53-0.31-0.53-0.49c0-0.22,0.08-1.29,0.08-1.55h-1.12
				c-0.12,0-1.17,0-1.93,0.15l-0.33-0.66c1.29,0.1,2.51,0.1,2.54,0.1h0.86c0.02-0.46,0.02-0.88,0.03-1.8h-0.49
				c-0.43,0-1.22,0.02-1.93,0.15l-0.33-0.66c0.49,0.03,1.42,0.1,2.77,0.1v-1.77h-0.33c-0.13,0-1.17,0-1.95,0.15l-0.33-0.66
				c1.19,0.08,2.44,0.1,2.61,0.1l0.02-2.04h-1.53c-0.43,0-1.22,0.02-1.93,0.15l-0.33-0.68c0.84,0.08,1.68,0.12,2.52,0.12h1.27
				l-0.02-1.99h-0.4c-0.28,0-1.17,0.02-1.95,0.15l-0.31-0.68c1.15,0.1,2.23,0.12,2.64,0.12c0-0.85-0.02-1.04-0.25-1.58l1.58,0.39
				c0.18,0.05,0.28,0.12,0.28,0.27c0,0.17-0.2,0.31-0.46,0.46v0.46h1.91l0.41-0.37c0.12-0.1,0.2-0.17,0.3-0.17
				c0.1,0,0.18,0.08,0.3,0.19l0.46,0.46c0.12,0.1,0.2,0.22,0.2,0.32c0,0.14-0.13,0.24-0.46,0.48c-0.03,0.32-0.03,0.34,0,1.5h0.59
				l0.48-0.63c0.1-0.14,0.18-0.2,0.26-0.2c0.1,0,0.2,0.07,0.31,0.17l0.71,0.63c0.08,0.08,0.17,0.17,0.17,0.26
				C224.09,241.34,224.01,241.43,223.84,241.43z M220.46,241.43h-2.05l-0.02,2.04h2.06V241.43z M220.46,239.03h-2.01l-0.03,1.99
				h2.05V239.03z"/>
			<path d="M231.14,246.25c0,2.06,0,2.41,0.03,3.4c0.02,0.59,0.07,1.55,0.07,2.14c0,0.7-0.71,0.78-0.86,0.78
				c-0.36,0-0.45-0.22-0.45-0.48c0-0.07,0.03-0.7,0.03-0.82c0.07-1.27,0.07-1.73,0.1-4.45c-1.2,0.65-1.68,0.83-2.03,0.97
				c-0.02,0.31-0.05,0.6-0.31,0.6c-0.18,0-0.28-0.19-0.33-0.29l-0.78-1.53c1.02,0.05,1.3,0.03,3.46-0.65c0-1.5,0.02-3.18,0-4.47
				h-1.48c-0.5,2.06-1.2,3.3-1.47,3.76l-0.1-0.03c0.63-2.52,0.74-5.17,0.74-5.9c0-0.63-0.07-0.85-0.16-1.16l1.58,0.39
				c0.13,0.03,0.28,0.07,0.28,0.25c0,0.24-0.23,0.34-0.5,0.44c-0.08,0.8-0.16,1.31-0.28,1.84h1.37c-0.03-2.4-0.08-3.09-0.45-3.94
				l1.81,0.54c0.1,0.03,0.25,0.12,0.25,0.24c0,0.2-0.28,0.36-0.53,0.49c-0.02,0.36-0.02,2.16-0.02,2.67h0.33l0.46-0.65
				c0.08-0.1,0.17-0.22,0.25-0.22c0.1,0,0.21,0.1,0.3,0.19l0.66,0.65c0.07,0.07,0.15,0.15,0.15,0.25c0,0.15-0.15,0.19-0.25,0.19
				h-1.9c0,1.09-0.02,2.99,0,4.08c0.33-0.12,1.86-0.66,2.16-0.78l0.05,0.12C232.89,245.22,232.38,245.56,231.14,246.25z
				 M240.88,241.65c-0.13,3.55-0.26,6.78-1.3,8.99c-0.63,1.34-1.81,1.56-2.56,1.72c-0.12-0.77-0.38-1.24-1.4-2.01l0.05-0.12
				c1.09,0.32,1.72,0.36,2,0.36c0.4,0,0.66,0,1.12-1.21c0.58-1.56,1.04-5.29,0.92-8.23h-0.94c-0.48,3.84-2.06,8.79-6.83,10.64
				l-0.05-0.12c3.5-2.7,4.98-5.58,5.67-10.52h-0.92c-0.68,3.59-2.54,6.68-4.93,7.84l-0.05-0.1c2.03-2.09,3.33-4.96,3.78-7.73h-0.82
				c-0.53,1.22-1.25,2.41-2.23,3.38l-0.08-0.08c1.62-3.13,2.13-6.22,2.13-6.94c0-0.19-0.02-0.32-0.08-0.58l1.65,0.68
				c0.16,0.07,0.25,0.17,0.25,0.27c0,0.22-0.31,0.31-0.58,0.37c-0.43,1.36-0.71,2.06-0.87,2.48h4.75l0.4-0.42
				c0.1-0.12,0.18-0.19,0.25-0.19s0.18,0.07,0.3,0.15l0.78,0.6c0.12,0.08,0.18,0.14,0.18,0.24
				C241.44,241.38,241.06,241.56,240.88,241.65z"/>
			<path d="M258.59,251.86c-1.65-0.87-2.74-2.19-3.45-3.4c-1.48,1.97-3.07,2.7-3.84,3.01c0.02,0.61,0.02,1.22-0.84,1.22
				c-0.51,0-0.51-0.32-0.51-0.65c0-0.27,0.08-1.67,0.1-1.99c0-0.32,0.02-2.04,0.02-2.43c-0.84,0.44-3.05,1.44-4.31,1.82
				c-0.13,0.42-0.23,0.56-0.4,0.56c-0.15,0-0.23-0.12-0.3-0.29l-0.63-1.67c0.48,0.08,0.54,0.1,0.74,0.1c0.36,0,1.1-0.12,1.3-0.15
				v-9.4c-0.96,0.05-1.24,0.1-1.52,0.15l-0.33-0.68c1.3,0.12,2.52,0.12,2.54,0.12h4.35l0.71-0.8c0.13-0.15,0.2-0.2,0.28-0.2
				c0.1,0,0.18,0.05,0.33,0.19l0.82,0.78c0.08,0.07,0.15,0.2,0.15,0.27c0,0.14-0.1,0.17-0.25,0.17h-2.36
				c-0.03,6.44-0.05,7.16,0.08,12.66c1.09-0.65,2.33-2.06,3.3-3.84c-1.02-2.31-1.52-4.83-1.55-7.36c-0.51,0.03-0.64,0.07-0.84,0.12
				l-0.33-0.68c1.29,0.1,2.51,0.1,2.52,0.1h2.28l0.46-0.54c0.15-0.17,0.2-0.22,0.28-0.22c0.1,0,0.18,0.05,0.35,0.19l0.76,0.59
				c0.13,0.1,0.23,0.24,0.23,0.31c0,0.12,0,0.19-0.15,0.29c-0.3,0.22-0.53,0.37-0.74,0.48c-0.64,3.93-1.8,6.31-2.14,6.87
				c0.79,1.09,2.06,2.31,4.32,3.06v0.08C259.41,250.89,258.98,251.23,258.59,251.86z M250.06,238.6h-2.44v2.72h2.44V238.6z
				 M250.06,241.73h-2.44v2.75h2.44V241.73z M250.06,244.89h-2.44v2.92c0.86-0.17,2.08-0.39,2.44-0.49V244.89z M254.13,240.02
				c-0.15,0-0.43,0.02-0.76,0.03c0.26,2.18,0.73,4.4,1.7,6.43c1.35-2.97,1.55-5.58,1.6-6.46H254.13z"/>
			<path d="M265.15,241.7h2.9v-3.11h-3.23c-0.15,0-1.17,0-1.95,0.15l-0.31-0.66c1.09,0.08,2.21,0.1,2.52,0.1h2.89l0.38-0.42
				c0.08-0.08,0.15-0.19,0.26-0.19c0.07,0,0.18,0.07,0.25,0.1l0.64,0.42c0.08,0.05,0.25,0.14,0.25,0.32c0,0.15-0.16,0.31-0.58,0.59
				c-0.02,0.51,0.07,2.77,0.07,3.21c0,0.17-0.03,0.34-0.15,0.48c-0.15,0.19-0.43,0.27-0.68,0.27c-0.36,0-0.46-0.17-0.38-0.87h-3.15
				c-0.07,0.39-0.45,2.74-0.46,2.82h3.36l0.46-0.53c0.07-0.08,0.15-0.19,0.28-0.19c0.1,0,0.18,0.07,0.26,0.12l0.68,0.51
				c0.07,0.05,0.18,0.15,0.18,0.31c0,0.2-0.23,0.36-0.5,0.49c-0.18,2.21-0.81,4.5-1.7,5.56c-0.73,0.85-1.83,1.07-2.61,1.1
				c-0.18-0.83-0.59-1.33-1.27-1.92v-0.1c0.71,0.17,1.47,0.36,2.23,0.36c0.35,0,0.74,0,1.14-0.77c0.41-0.82,0.89-2.07,1.04-4.54
				h-3.61c-0.03,0.43-0.08,0.95-0.2,1.26c-0.12,0.31-0.56,0.48-0.82,0.48c-0.25,0-0.45-0.14-0.45-0.39c0-0.15,0.46-2.13,0.53-2.48
				c0.28-1.56,0.33-2.46,0.3-3.25L265.15,241.7z M275.52,237.81c0.15,0.03,0.3,0.05,0.3,0.24c0,0.17-0.15,0.34-0.56,0.58
				c0,0.32-0.02,4.49,0.02,7.72c0,0.82,0.13,4.45,0.13,5.2c0,0.2,0,0.48-0.21,0.66c-0.21,0.17-0.54,0.27-0.74,0.27
				c-0.38,0-0.45-0.31-0.45-0.56c0-0.1,0.02-0.2,0.03-0.42c0.08-1.38,0.08-3.15,0.08-3.84c0-6.34-0.02-7.97-0.07-8.55
				c-0.05-0.59-0.13-1.02-0.3-1.7L275.52,237.81z"/>
			<path d="M294.4,240.92h-5.15l0.86,0.53c0.07,0.05,0.17,0.15,0.17,0.24c0,0.2-0.31,0.24-0.61,0.25c-0.46,0.51-1.14,1.1-1.45,1.38
				h2.82l0.64-0.75c0.08-0.1,0.18-0.2,0.26-0.2s0.23,0.1,0.3,0.17l0.76,0.75c0.08,0.08,0.15,0.15,0.15,0.25
				c0,0.17-0.13,0.19-0.25,0.19h-5.26c0,0.2,0.02,1.14,0.02,1.33h2.33l0.58-0.61c0.1-0.1,0.2-0.2,0.28-0.2s0.17,0.08,0.31,0.19
				l0.81,0.58c0.08,0.07,0.18,0.15,0.18,0.27c0,0.15-0.13,0.19-0.25,0.19h-4.24v1.48h4.24l0.74-0.87c0.12-0.14,0.17-0.2,0.26-0.2
				c0.12,0,0.21,0.1,0.3,0.17l0.91,0.87c0.08,0.08,0.16,0.15,0.16,0.27c0,0.15-0.15,0.17-0.26,0.17h-6.02
				c1.14,1.39,3.63,3.08,6.43,3.28l0.02,0.1c-0.53,0.25-1.1,0.54-1.52,1.38c-2.13-0.82-4.19-2.75-5.21-4.76h-0.05
				c0.02,1.55,0.03,1.85,0.03,2.18c0.02,0.39,0.1,2.07,0.1,2.43c0,0.51-0.49,0.7-0.84,0.7c-0.45,0-0.48-0.27-0.48-0.53
				c0-0.37,0.05-1,0.07-1.39c0.02-0.56,0.02-0.82,0.05-3.18c-1.19,1.63-3.4,3.74-6.55,4.59l-0.03-0.1c2.23-1.22,3.74-2.6,5.28-4.69
				h-2.92c-0.17,0-1.19,0-1.95,0.15l-0.33-0.68c1.11,0.1,2.23,0.12,2.54,0.12h3.96v-1.48h-2.89c-0.43,0-1.2,0.02-1.95,0.15
				l-0.33-0.68c1.14,0.1,2.33,0.12,2.54,0.12h2.62v-1.33h-3.46c-0.15,0-1.17,0-1.93,0.15l-0.33-0.68c1.11,0.1,2.26,0.12,2.54,0.12
				h4.49c0.21-0.39,0.73-1.6,0.82-2.4h-4.68c0.96,0.32,1.83,0.83,1.83,1.65c0,0.49-0.4,0.68-0.66,0.68c-0.38,0-0.43-0.1-0.82-1.12
				c-0.08-0.22-0.3-0.77-0.68-1.21h-1.72c-0.41,0-1.2,0-1.95,0.15l-0.31-0.68c1.12,0.1,2.29,0.12,2.52,0.12h3.1
				c-0.05-2.45-0.05-2.63-0.28-3.5l1.6,0.48c0.15,0.05,0.23,0.1,0.23,0.25c0,0.19-0.18,0.29-0.49,0.41v2.36h1.22
				c0-2.16,0-2.65-0.35-3.5l1.68,0.46c0.1,0.03,0.28,0.08,0.28,0.25c0,0.26-0.4,0.39-0.54,0.44v2.35h0.71
				c0.38-0.75,0.79-2.01,0.86-2.38c0.07-0.29,0.08-0.54,0.08-0.82l1.47,0.77c0.1,0.05,0.2,0.12,0.2,0.24c0,0.25-0.4,0.31-0.58,0.32
				c-0.51,0.56-1.39,1.53-1.72,1.87h2.59l0.71-0.77c0.13-0.14,0.2-0.22,0.26-0.22c0.1,0,0.21,0.08,0.33,0.19l0.86,0.75
				c0.1,0.08,0.18,0.15,0.18,0.27C294.65,240.88,294.5,240.92,294.4,240.92z M283.68,240.13c-0.4,0-0.51-0.27-0.82-1.04
				c-0.05-0.12-0.31-0.76-0.96-1.34l0.07-0.12c0.66,0.17,2.31,0.63,2.31,1.82C284.28,239.68,284.16,240.13,283.68,240.13z"/>
			<path d="M301.16,241.26c0.08,0.05,0.2,0.14,0.2,0.22c0,0.22-0.17,0.32-0.4,0.49c0,3.06,0,6.12,0.02,9.16c0,0.61,0,1.33-0.86,1.33
				c-0.43,0-0.51-0.22-0.51-0.46c0-0.25,0.15-2.14,0.17-2.55c0.1-2.24,0.1-4.08,0.12-7.31c-0.23,0.37-1.58,2.45-2.61,3.18l-0.1-0.08
				c1.7-2.28,3.46-7.12,3.46-8.01c0-0.1-0.02-0.22-0.03-0.34l1.55,0.87c0.12,0.07,0.23,0.17,0.23,0.32c0,0.22-0.2,0.29-0.63,0.44
				c-0.21,0.54-0.45,1.16-1.15,2.4L301.16,241.26z M303.69,245.76c-0.28,0-1.12,0-1.93,0.15l-0.33-0.68
				c0.84,0.07,1.68,0.12,2.54,0.12h2.26c-0.02-0.88-0.03-2.07-0.21-2.62l1.53,0.34c0.08,0.02,0.21,0.07,0.21,0.2
				c0,0.15-0.12,0.24-0.45,0.53c0,0.46-0.02,0.87-0.02,1.55h2.89l0.66-0.78c0.17-0.2,0.18-0.22,0.26-0.22
				c0.07,0,0.08,0.02,0.31,0.19l1.04,0.78c0.07,0.03,0.17,0.14,0.17,0.25c0,0.15-0.13,0.19-0.25,0.19h-4.85
				c0.73,1.6,2.92,3.62,5.34,4.27v0.1c-0.59,0.24-1.11,0.66-1.47,1.21c-2.52-1.77-3.69-4.52-4.09-5.58h-0.02
				c0,1.04,0.05,2.65,0.07,3.13c0.02,0.43,0.12,2.35,0.12,2.74c0,0.29,0,0.88-0.87,0.88c-0.38,0-0.51-0.2-0.51-0.56
				c0-0.02,0.12-2.67,0.12-2.97c0.02-0.9,0.03-1.53,0.03-2.33c-1.78,2.86-4.01,4.05-5.1,4.59l-0.02-0.12
				c1.73-1.48,3.1-3.11,4.39-5.35H303.69z M309.16,238.01l0.35-0.39c0.07-0.07,0.12-0.15,0.25-0.15c0.1,0,0.23,0.08,0.31,0.15
				l0.66,0.51c0.1,0.08,0.21,0.2,0.21,0.31c0,0.17-0.15,0.31-0.56,0.51c-0.02,1.14,0.02,1.9,0.02,2.11
				c0.02,0.24,0.08,1.39,0.08,1.51c0,0.44-0.2,0.78-0.81,0.78c-0.41,0-0.4-0.39-0.38-0.78h-4.65c0,0.51-0.23,0.94-0.76,0.94
				c-0.36,0-0.46-0.27-0.46-0.54c0-0.14,0.12-2.84,0.12-3.38c0-1.61-0.08-1.99-0.15-2.4l1.4,0.83H309.16z M304.61,238.42v3.74h4.68
				v-3.74H304.61z"/>
			<path d="M321.3,240.95h-3.69c-0.21,0-1.14,0-1.95,0.15l-0.33-0.68c1.09,0.1,2.23,0.12,2.54,0.12h1.78l0.48-0.66
				c0.08-0.12,0.17-0.22,0.26-0.22c0.1,0,0.25,0.14,0.28,0.17l0.69,0.66c0.17,0.15,0.18,0.22,0.18,0.27
				C321.54,240.92,321.41,240.95,321.3,240.95z M320.49,243.11h-2.24c-0.41,0-1.2,0.02-1.95,0.17l-0.33-0.68
				c1.14,0.1,2.31,0.1,2.54,0.1h0.58l0.35-0.58c0.07-0.1,0.17-0.22,0.25-0.22c0.1,0,0.2,0.08,0.3,0.19l0.61,0.58
				c0.05,0.05,0.17,0.17,0.17,0.27C320.75,243.09,320.62,243.11,320.49,243.11z M320.52,245.32h-2.29c-0.41,0-1.2,0.02-1.93,0.15
				l-0.33-0.68c1.12,0.1,2.29,0.12,2.52,0.12h0.61l0.43-0.54c0.13-0.15,0.18-0.2,0.26-0.2c0.1,0,0.21,0.12,0.3,0.19l0.51,0.51
				c0.1,0.1,0.18,0.19,0.18,0.27C320.79,245.3,320.64,245.32,320.52,245.32z M320.41,238.52h-1.96c-0.17,0-1.19,0.02-1.95,0.17
				l-0.33-0.68c0.96,0.08,1.93,0.1,2.77,0.1l0.38-0.54c0.05-0.07,0.15-0.22,0.26-0.22c0.1,0,0.26,0.14,0.31,0.19l0.61,0.54
				c0.12,0.1,0.15,0.19,0.15,0.27C320.65,238.5,320.55,238.52,320.41,238.52z M320.77,247.61c-0.05,0.07-0.25,0.26-0.35,0.34
				c0,0.53,0.12,2.96,0.12,3.35c0,0.78-0.63,0.78-0.73,0.78c-0.48,0-0.46-0.37-0.43-1.04h-1.86c0.02,0.34,0.03,0.61,0.03,0.68
				c0,0.54-0.4,0.87-0.81,0.87c-0.43,0-0.43-0.37-0.43-0.53c0-0.14,0.03-0.71,0.03-0.83c0.02-0.83,0.03-1.51,0.03-2.12
				c0-1.07,0-1.89-0.13-2.6l1.32,0.65h1.57l0.41-0.53c0.07-0.08,0.15-0.14,0.23-0.14c0.08,0,0.18,0.07,0.26,0.12l0.73,0.53
				c0.08,0.05,0.15,0.1,0.15,0.22C320.92,247.44,320.84,247.55,320.77,247.61z M319.38,247.56h-1.88v3.08h1.88V247.56z
				 M330.35,251.35h-7.16c-0.43,0-1.22,0.02-1.93,0.15l-0.33-0.66c0.45,0.03,0.68,0.05,1.32,0.08c0-1.34-0.02-6.8-0.08-7.75
				c-0.05-0.66-0.08-0.82-0.15-1.1l1.42,0.48c0.21,0.07,0.33,0.14,0.33,0.29c0,0.17-0.28,0.37-0.41,0.49v7.62h1.72V239.1h-1.04
				c-0.45,0-1.22,0.02-1.95,0.15l-0.33-0.68c1.32,0.1,2.29,0.12,2.54,0.12h3.58l0.56-0.8c0.08-0.12,0.16-0.2,0.26-0.2
				s0.23,0.12,0.28,0.17l0.86,0.8c0.08,0.08,0.17,0.14,0.17,0.25c0,0.17-0.15,0.19-0.25,0.19h-3.56v5.3h1.35l0.61-0.73
				c0.1-0.1,0.18-0.22,0.26-0.22c0.07,0,0.18,0.07,0.3,0.17l0.86,0.75c0.07,0.05,0.17,0.14,0.17,0.25c0,0.17-0.17,0.19-0.25,0.19
				h-3.3v6.14h2.06l0.73-0.83c0.1-0.1,0.18-0.22,0.25-0.22s0.18,0.05,0.3,0.17l0.91,0.85c0.08,0.08,0.17,0.15,0.17,0.25
				C330.6,251.35,330.44,251.35,330.35,251.35z"/>
			<path d="M338.23,241.49h-2.33c-0.03,3.72-0.03,4.54-0.03,5.58c0,0.75,0.05,4.06,0.05,4.74c0,0.31,0,0.83-0.81,0.83
				c-0.18,0-0.48-0.07-0.48-0.48c0-0.25,0.1-1.43,0.12-1.68c0.05-1.22,0.05-1.75,0.07-5c0.02-2.4,0.02-2.53,0.03-3.99
				c-0.59,0-1.29,0.05-1.88,0.15l-0.33-0.66c0.46,0.03,1.04,0.08,2.21,0.1c0-2.52-0.03-3.38-0.38-4.1l1.81,0.53
				c0.1,0.03,0.21,0.1,0.21,0.24c0,0.17-0.05,0.2-0.58,0.51c0,0.46-0.02,2.43-0.02,2.82h0.77l0.5-0.54c0.08-0.1,0.18-0.22,0.26-0.22
				c0.07,0,0.2,0.08,0.3,0.19l0.59,0.56c0.08,0.09,0.15,0.15,0.15,0.26C338.48,241.48,338.35,241.49,338.23,241.49z M342.04,246.71
				c-0.43,4.76-0.92,5.44-2.67,5.63c-0.17-0.95-0.21-1.14-0.87-1.68l0.05-0.14c0.76,0.27,1.19,0.29,1.32,0.29
				c0.43,0,0.53-0.1,0.79-1.43c0.12-0.56,0.33-1.67,0.36-3.14h-1.2c-0.31,2.04-1.15,4.71-3.56,5.93l-0.07-0.08
				c1.24-1.12,2.31-3.08,2.57-5.83c-0.53,0-1.14,0.05-1.65,0.15l-0.33-0.68c0.61,0.05,1.09,0.08,2.01,0.1
				c0.08-1.29-0.05-1.8-0.1-2.06l1.5,0.54c0.15,0.05,0.21,0.15,0.21,0.24c0,0.14-0.36,0.37-0.45,0.42
				c-0.03,0.32-0.03,0.46-0.08,0.85h0.99l0.4-0.42c0.12-0.12,0.16-0.17,0.23-0.17c0.07,0,0.15,0.08,0.21,0.15l0.68,0.61
				c0.07,0.07,0.13,0.14,0.13,0.24C342.52,246.36,342.47,246.39,342.04,246.71z M345.85,239.81c-0.73,3.43-1.86,3.55-2.85,3.67
				c-0.08-0.58-0.15-1.04-1.04-1.8l0.07-0.1c0.63,0.31,1.37,0.41,1.48,0.41c0.84,0,1.22-1.95,1.4-2.89h-2.42
				c-0.71,2.13-1.75,3.88-4.57,4.76l-0.02-0.1c1.65-1.14,3-2.63,3.48-4.66h-0.86c-0.41,0-1.2,0-1.95,0.15l-0.33-0.68
				c1.14,0.1,2.31,0.12,2.54,0.12h0.69c0.07-0.43,0.12-0.78,0.12-1.19c0-0.36-0.05-0.49-0.12-0.66l1.68,0.53
				c0.07,0.02,0.15,0.07,0.15,0.17c0,0.1-0.26,0.27-0.53,0.44c-0.1,0.41-0.13,0.53-0.18,0.71h2.13l0.26-0.34
				c0.08-0.1,0.2-0.15,0.28-0.15c0.1,0,0.15,0.03,0.23,0.1l0.87,0.75c0.07,0.05,0.13,0.12,0.13,0.22
				C346.51,239.45,346.1,239.68,345.85,239.81z M347.62,246.42c-0.15,0.08-0.23,0.15-0.35,0.24c-0.03,1.78-0.25,4.08-0.76,4.93
				c-0.1,0.17-0.53,0.87-1.98,1c-0.35-1.05-0.36-1.09-0.94-1.67l0.05-0.14c0.84,0.29,1.32,0.29,1.4,0.29c0.66,0,0.71-0.31,0.91-1.43
				c0.12-0.73,0.31-2.79,0.25-3.37h-1.22c-0.43,2.46-1.06,4.67-3.84,6.1l-0.05-0.08c0.94-0.92,2.39-2.57,2.87-5.97
				c-0.36,0.02-0.56,0.07-0.76,0.1l-0.33-0.68c0.56,0.05,0.81,0.07,1.15,0.08c0.02-0.17,0.05-0.6,0.05-1.24
				c0-0.82-0.07-1.04-0.13-1.27l1.57,0.58c0.13,0.05,0.21,0.17,0.21,0.25c0,0.19-0.43,0.41-0.51,0.46c-0.07,0.63-0.1,0.92-0.16,1.24
				c0.13,0.02,0.2,0.02,0.36,0.02h0.64l0.41-0.49c0.07-0.08,0.15-0.17,0.2-0.17c0.07,0,0.17,0.05,0.25,0.12l0.79,0.61
				c0.07,0.05,0.15,0.15,0.15,0.22C347.85,246.29,347.73,246.36,347.62,246.42z"/>
			<path d="M364.5,244.2c-2.85-1.31-4.95-3.84-6.02-6.12l-0.07,0.02c-1.8,3.23-5.71,6.05-7.55,6.82l-0.05-0.1
				c2.47-1.78,4.49-4.15,6.07-6.78c0.38-0.61,0.43-0.85,0.49-1.16l1.67,0.54c0.08,0.03,0.26,0.12,0.26,0.29
				c0,0.2-0.17,0.24-0.51,0.32c1.01,1.73,3.63,4.11,7.29,4.76v0.12C365.51,243.16,364.92,243.52,364.5,244.2z M364.64,246.58h-6.61
				c-0.89,1.72-2.56,3.69-2.72,3.89c2.03-0.14,4.59-0.39,6.45-0.63c-0.1-0.19-0.64-1.21-1.81-2.35l0.1-0.1
				c2.26,1.05,4.06,2.77,4.06,4.2c0,0.27-0.18,0.83-0.73,0.83s-0.76-0.46-0.97-1.05c-0.2-0.6-0.26-0.78-0.5-1.24
				c-1.34,0.42-7.41,1.75-8.35,1.9c-0.1,0.22-0.15,0.37-0.3,0.37c-0.13,0-0.21-0.17-0.26-0.31l-0.69-1.72
				c0.36,0.07,0.74,0.15,1.47,0.15c0.35,0,0.68-0.02,1.19-0.05c0.54-1.26,1.01-2.52,1.35-3.91h-2.33c-0.38,0-1.2,0.02-1.93,0.15
				l-0.33-0.66c1.3,0.1,2.24,0.1,2.52,0.1h7.92l0.84-0.93c0.12-0.14,0.2-0.2,0.28-0.2s0.18,0.08,0.3,0.17l1.14,0.94
				c0.07,0.05,0.17,0.15,0.17,0.25C364.88,246.58,364.72,246.58,364.64,246.58z M361.02,243.64h-4.24c-0.41,0-1.2,0.02-1.95,0.15
				l-0.33-0.68c1.14,0.1,2.33,0.12,2.54,0.12h1.85l0.74-0.85c0.08-0.08,0.17-0.2,0.26-0.2c0.08,0,0.21,0.1,0.3,0.17l0.91,0.85
				c0.08,0.08,0.17,0.15,0.17,0.27C361.27,243.62,361.12,243.64,361.02,243.64z"/>
			<path d="M392.5,246.48c-0.38,0-0.56-0.32-0.69-0.58c-0.38-0.76-0.81-1.53-1.35-2.18c-0.02,4.5-0.02,5,0.02,6.24
				c0,0.26,0.07,1.39,0.07,1.62c0,0.63-0.56,0.76-0.81,0.76c-0.51,0-0.51-0.37-0.51-0.53c0-0.19,0.07-1,0.07-1.17
				c0.05-1.31,0.03-1.65,0.08-5.81c-1.52,1.56-2.77,2.23-3.27,2.5l-0.07-0.12c1.86-1.67,4.24-4.81,4.98-6.44h-2.31
				c-0.41,0-1.2,0.02-1.95,0.15l-0.31-0.66c1.12,0.08,2.29,0.1,2.52,0.1h0.43c-0.03-2.18-0.21-2.69-0.43-3.33l1.9,0.56
				c0.1,0.03,0.2,0.14,0.2,0.22c0,0.2-0.2,0.34-0.53,0.51c-0.03,0.48-0.03,0.51,0,2.04h0.59l0.41-0.44c0.12-0.12,0.2-0.17,0.3-0.17
				c0.1,0,0.17,0.07,0.26,0.15l0.74,0.68c0.08,0.07,0.12,0.15,0.12,0.24c0,0.25-0.26,0.32-0.79,0.39c-0.26,0.42-0.73,1.16-1.65,2.33
				c0.17,0.05,0.92,0.32,1.75,0.94c0.3,0.22,0.82,0.61,0.82,1.29C393.1,246.02,392.95,246.48,392.5,246.48z M401.16,251.32h-6.98
				c-0.16,0-1.17,0-1.95,0.15l-0.33-0.68c1.15,0.1,2.39,0.12,2.54,0.12h1.62c0-1.73,0.02-4.49,0-6.22
				c-0.02-0.82-0.02-0.94-0.02-1.46h-0.97c-0.17,0-1.17,0-1.95,0.15l-0.33-0.68c1.1,0.1,2.24,0.12,2.54,0.12h0.71
				c0-0.29-0.02-1.41-0.02-1.7c-0.02-2.74-0.02-3.09-0.48-4.08l1.83,0.44c0.25,0.05,0.4,0.17,0.4,0.32c0,0.22-0.31,0.41-0.56,0.51
				c-0.02,0.42-0.02,3.79-0.02,4.5h1.67l0.61-0.83c0.1-0.14,0.17-0.2,0.26-0.2c0.08,0,0.18,0.07,0.31,0.19l0.91,0.82
				c0.1,0.08,0.16,0.19,0.16,0.27c0,0.12-0.13,0.17-0.25,0.17h-3.68v4.61l0.02,3.08h1.77l0.78-0.88c0.12-0.14,0.2-0.19,0.28-0.19
				s0.18,0.03,0.31,0.17l0.91,0.87c0.08,0.08,0.15,0.19,0.15,0.27C401.41,251.27,401.26,251.32,401.16,251.32z"/>
			<path d="M418.03,239.27c0,0.39-0.02,1.07-0.02,2.28c0,2.43,0.07,5.51,0.12,8.07c0,0.31,0.05,1.65,0.05,1.94
				c0,0.82-0.63,0.87-0.86,0.87c-0.48,0-0.5-0.41-0.46-1h-10.08c0.02,0.36,0.02,0.49-0.02,0.63c-0.07,0.31-0.46,0.56-0.81,0.56
				c-0.54,0-0.54-0.41-0.54-0.63c0-0.05,0.12-3.82,0.13-4.56c0.1-3.23,0.12-4.69,0.12-5.93c0-1.05,0-3.21-0.23-4.05l1.6,0.9h9.67
				l0.54-0.46c0.08-0.07,0.21-0.2,0.3-0.2c0.1,0,0.15,0.03,0.33,0.2l0.66,0.58c0.1,0.08,0.17,0.17,0.17,0.25
				C418.69,238.89,418.34,239.13,418.03,239.27z M416.86,238.76h-10.08v12.26h10.08V238.76z M416.25,242.87h-2.42
				c0.02,4.27,0.02,4.67,0.02,5.24c-0.02,1.07-0.03,2.07-1.75,2.33c-0.12-0.48-0.48-1.12-1.48-1.67v-0.14
				c0.07,0.02,1.37,0.14,1.6,0.14c0.49,0,0.54-0.2,0.54-0.95c0-0.39-0.03-1.75-0.03-2.23c0-0.27-0.02-1.04-0.03-2.72h-3.28
				c-0.21,0-1.14,0-1.95,0.15l-0.33-0.68c1.1,0.1,2.24,0.12,2.54,0.12h3.02c0-2.4,0-2.67-0.25-3.37l1.62,0.51
				c0.13,0.05,0.26,0.12,0.26,0.27c0,0.24-0.33,0.37-0.5,0.44v2.14h0.69l0.54-0.7c0.08-0.1,0.15-0.2,0.25-0.2
				c0.1,0,0.17,0.05,0.3,0.17l0.73,0.7c0.08,0.08,0.17,0.15,0.17,0.25C416.5,242.85,416.35,242.87,416.25,242.87z M410.49,247.33
				c-0.56,0-0.64-0.39-0.77-1.22c-0.13-0.77-0.4-1.36-0.73-1.97l0.08-0.07c1.2,0.7,2.11,1.5,2.11,2.46
				C411.19,247.17,410.76,247.33,410.49,247.33z"/>
			<path d="M422.22,241.7c0.69,0.08,2.39,0.59,2.39,1.77c0,0.36-0.18,0.75-0.68,0.75c-0.45,0-0.51-0.17-0.94-1.19
				c-0.25-0.61-0.61-1.04-0.81-1.26L422.22,241.7z M426.82,240.05c-0.28,1.14-1.47,6.14-1.73,7.14c-0.28,1.1-0.4,1.5-0.4,1.82
				c0,0.37,0.03,0.61,0.23,1.27c0.13,0.48,0.35,1.22,0.35,1.46c0,0.48-0.26,0.92-0.81,0.92c-0.3,0-0.77-0.15-0.77-0.99
				c0-0.31,0.07-1.67,0.07-1.94c0-1.09-0.78-1.51-1.12-1.61l-0.02-0.1c0.89-0.14,1.14-0.48,1.4-1.04c0.76-1.68,2.57-6.66,2.67-6.95
				L426.82,240.05z M423.73,237.43c1.34,0.25,2.44,0.93,2.44,1.87c0,0.25-0.15,0.75-0.64,0.75c-0.45,0-0.56-0.27-0.86-0.95
				c-0.23-0.56-0.58-1.12-0.96-1.6L423.73,237.43z M434.7,244.95l0.73-0.9c0.12-0.14,0.15-0.2,0.26-0.2c0.1,0,0.17,0.07,0.3,0.19
				l1.01,0.88c0.08,0.07,0.17,0.15,0.17,0.25c0,0.15-0.15,0.19-0.25,0.19h-5.01c-1.86,3.28-3.23,4.96-3.25,4.98
				c1.57-0.07,3.69-0.32,5.21-0.61c-0.68-0.99-1.07-1.38-1.48-1.72l0.07-0.08c1.91,0.8,2.71,1.33,3.4,2.19
				c0.07,0.08,0.63,0.78,0.63,1.43c0,0.53-0.43,0.75-0.71,0.75c-0.3,0-0.54-0.15-0.86-0.77c-0.36-0.7-0.56-1.07-0.87-1.56
				c-0.4,0.15-2.62,0.99-6.68,1.75c-0.18,0.37-0.21,0.42-0.35,0.42c-0.15,0-0.25-0.24-0.26-0.27l-0.71-1.58
				c0.43,0.07,0.76,0.1,1.14,0.1c0.35,0,0.91-0.02,1.11-0.03c0.74-1.31,1.63-3.57,1.98-5h-1.81c-0.3,0-1.14,0-1.95,0.15l-0.33-0.68
				c1.2,0.1,2.26,0.12,2.54,0.12h1.93v-3.79h-1.14c-0.28,0-1.15,0-1.95,0.15l-0.33-0.68c0.84,0.07,1.7,0.12,2.54,0.12h0.87
				c-0.05-2.35-0.05-2.62-0.38-3.74l1.86,0.53c0.12,0.03,0.28,0.08,0.28,0.24c0,0.25-0.41,0.41-0.63,0.49v2.48h2.28l0.64-0.75
				c0.1-0.12,0.18-0.22,0.26-0.22c0.07,0,0.15,0.07,0.3,0.19l0.94,0.75c0.08,0.07,0.17,0.15,0.17,0.26c0,0.15-0.13,0.19-0.25,0.19
				h-4.34v3.79H434.7z"/>
			<path d="M455.04,250.93c-0.99,0.22-1.35,0.58-1.86,1.19c-2.03-1.29-3.38-3.42-4.22-5.71c-0.56-1.51-1.12-3.57-1.2-7.73
				c-0.07,0.02-0.1,0.02-0.18,0.03c-0.17,5.78-1.25,11.17-7.14,13.36l-0.07-0.14c2.01-1.24,3.73-3.55,4.5-5.2
				c1.19-2.53,1.45-6.14,1.45-8.04c0-0.82-0.07-1.02-0.15-1.29l2,0.53c0.28,0.07,0.33,0.1,0.33,0.24c0,0.27-0.26,0.37-0.43,0.42
				c0.12,2.96,0.99,6.53,2.52,8.79c1.6,2.33,3.65,3.11,4.47,3.42L455.04,250.93z"/>
			<path d="M489.71,250.89c-0.74,0.44-2.09,0.44-2.8,0.44c-1.63,0-2.64-0.07-2.64-1.92c0-0.73,0.23-3.06,0.49-6
				c0.05-0.53,0.07-0.75,0.13-1.55h-2.56c-0.3,3.04-0.79,8.11-6.63,9.72l-0.05-0.1c1.81-0.88,3.28-2.38,4.22-4.18
				c0.48-0.9,0.92-2.02,1.25-5.44h-2.59c-0.41,0-1.2,0.02-1.95,0.15l-0.31-0.68c1.12,0.1,2.29,0.12,2.52,0.12h2.36
				c0.05-0.66,0.07-1.31,0.07-1.97c0-1.46-0.1-1.84-0.25-2.28l1.77,0.37c0.1,0.02,0.38,0.08,0.38,0.27c0,0.24-0.4,0.42-0.54,0.49
				c-0.03,0.49-0.18,2.67-0.21,3.11h2.31l0.78-0.63c0.08-0.07,0.21-0.17,0.3-0.17c0.1,0,0.2,0.1,0.3,0.2l0.69,0.68
				c0.1,0.1,0.18,0.2,0.18,0.32c0,0.14-0.08,0.19-0.86,0.61c-0.33,2.18-0.56,6-0.56,6.68c0,0.85,0.36,0.94,1.22,0.94
				c2.01,0,2.03-0.07,2.61-3.09h0.12c0.02,0.22,0.18,2.23,0.46,2.58c0.05,0.05,0.23,0.24,0.26,0.29c0.05,0.05,0.1,0.14,0.1,0.24
				C490.28,250.38,489.98,250.74,489.71,250.89z"/>
			<path d="M497.44,237.67c0.36,0.1,0.4,0.19,0.4,0.31c0,0.22-0.33,0.37-0.48,0.46c0,2.55,0,4.45-0.07,5.98
				c-0.07,1.38-0.26,5.85-3.84,7.77l-0.08-0.1c2.33-2.4,2.89-4.73,2.89-10.45c0-3.08-0.13-3.5-0.49-4.4L497.44,237.67z
				 M494.84,241.32c0.17,0.51,0.38,1.14,0.38,2.11c0,1.89-0.94,2.02-1.22,2.02c-0.25,0-0.63-0.15-0.63-0.65
				c0-0.25,0.12-0.42,0.46-0.9c0.1-0.15,0.74-1.04,0.87-2.55L494.84,241.32z M497.87,241.38c0.45,0.22,2.04,1.07,2.04,2.24
				c0,0.54-0.35,0.78-0.66,0.78c-0.51,0-0.61-0.44-0.74-0.92c-0.3-1.16-0.3-1.17-0.71-2.02L497.87,241.38z M501.92,237.72
				c0.36,0.08,0.38,0.15,0.38,0.26c0,0.15-0.05,0.19-0.53,0.46v7.1c0,0.68,0.1,3.72,0.1,4.33c0,0.8-0.68,0.87-0.81,0.87
				c-0.18,0-0.49-0.08-0.49-0.51c0-0.14,0.05-0.75,0.05-0.88c0.07-1.09,0.07-2.28,0.07-3.89c0-3.77,0.02-6.17-0.1-7.14
				c-0.05-0.48-0.15-0.73-0.25-0.99L501.92,237.72z M502.56,241.8c0.81,0.34,2.24,1.29,2.24,2.38c0,0.44-0.33,0.7-0.68,0.7
				c-0.54,0-0.63-0.41-0.87-1.33c-0.21-0.85-0.54-1.33-0.79-1.67L502.56,241.8z M506.71,237.58c0.18,0.03,0.35,0.12,0.35,0.31
				c0,0.2-0.25,0.32-0.51,0.46c0,3.26,0.02,5.85,0.03,7.22c0,0.92,0.12,5.35,0.12,5.81c0,1-0.74,1-0.82,1
				c-0.07,0-0.51-0.02-0.51-0.61c0-0.24,0.03-1.31,0.05-1.53c0.02-0.65,0.03-1.33,0.03-2.6c0-5.35,0.02-7.14-0.05-8.36
				c-0.05-1.14-0.15-1.48-0.41-2.07L506.71,237.58z"/>
			<path d="M525.46,239.15h-6.52l0.58,0.51c0.12,0.1,0.2,0.2,0.2,0.31c0,0.19-0.28,0.27-0.69,0.29c-0.23,0.37-0.54,0.92-1.2,1.9
				l0.94,0.31c0.13,0.05,0.26,0.1,0.26,0.27s-0.17,0.36-0.56,0.58c-0.02,0.92-0.03,1.36-0.03,3.06c0,2.24,0.02,3.43,0.05,4.27
				c0,0.19,0.05,1.12,0.05,1.33c0,0.6-0.59,0.82-0.86,0.82c-0.49,0-0.51-0.36-0.51-0.59c0-0.05,0-0.1,0.02-0.46
				c0.08-1.68,0.13-4.28,0.13-6.12c0-1.34-0.02-1.77-0.05-2.63c-1.01,1.39-3.4,4.62-6.65,6.25l-0.07-0.1
				c1.53-1.38,4.09-4.35,5.82-6.97c0.64-0.95,1.25-1.89,1.55-3.01h-4.67c-0.45,0-1.22,0.02-1.95,0.15l-0.33-0.68
				c0.84,0.07,1.7,0.12,2.54,0.12h9.57l0.74-0.9c0.1-0.12,0.18-0.2,0.28-0.2c0.1,0,0.23,0.08,0.38,0.2l1.07,0.87
				c0.07,0.05,0.17,0.15,0.17,0.25C525.73,239.11,525.6,239.15,525.46,239.15z M524.76,247.99c-0.54,0-0.73-0.32-1.39-1.46
				c-0.46-0.8-1.88-2.86-3.46-3.74l0.03-0.1c2.51,0.54,5.46,2.96,5.46,4.52C525.4,247.78,525.04,247.99,524.76,247.99z"/>
			<path d="M537.48,240.95h-3.89v1.41h1.52l0.4-0.49c0.08-0.1,0.15-0.17,0.23-0.17c0.07,0,0.17,0.03,0.28,0.15l0.61,0.56
				c0.08,0.07,0.15,0.17,0.15,0.29c0,0.12-0.08,0.24-0.41,0.46c-0.03,0.49,0.02,2.65,0.02,3.08c0,0.2,0,0.9-0.77,0.9
				c-0.21,0-0.31-0.17-0.3-0.44h-1.72v1.53h1.24l0.45-0.56c0.1-0.12,0.18-0.2,0.28-0.2c0.08,0,0.18,0.07,0.33,0.19l0.66,0.54
				c0.1,0.08,0.17,0.17,0.17,0.27s-0.08,0.17-0.26,0.17h-2.85v1.56c1.29-0.22,2.23-0.37,3.15-0.6v0.14
				c-1.75,0.85-5.44,1.9-6.76,2.19c-0.1,0.25-0.2,0.41-0.36,0.41c-0.12,0-0.2-0.07-0.26-0.2l-0.76-1.48
				c0.21,0.03,0.35,0.05,0.64,0.05c0.73,0,2.06-0.17,3.33-0.36v-1.72h-1.27c-0.15,0-1.17,0-1.95,0.15l-0.31-0.68
				c1.12,0.1,2.29,0.12,2.52,0.12h1.01v-1.53h-1.7c0.02,0.22,0.02,0.41-0.13,0.56c-0.13,0.14-0.43,0.31-0.64,0.31
				c-0.18,0-0.31-0.08-0.31-0.48c0-0.66,0.05-3.54,0.05-4.11c0-0.05-0.03-0.99-0.13-1.38l1.35,0.76h1.52v-1.41h-1.62
				c-0.41,0-1.2,0.02-1.93,0.15l-0.33-0.68c1.04,0.08,2.08,0.12,2.54,0.12h1.34v-1.33c-0.82,0.12-1.85,0.22-2.72,0.22
				c-0.36,0-0.53,0-0.78-0.02v-0.12c1.85-0.41,4.72-1.1,6.14-2.06l1.02,0.93c0.08,0.08,0.13,0.15,0.13,0.26c0,0.15-0.15,0.2-0.4,0.2
				c-0.1,0-0.23-0.03-0.35-0.07c-0.51,0.15-0.91,0.27-2.03,0.48v1.5h1.98l0.56-0.73c0.12-0.14,0.18-0.2,0.28-0.2
				c0.1,0,0.2,0.07,0.31,0.17l0.84,0.73c0.08,0.07,0.17,0.17,0.17,0.25C537.73,240.9,537.63,240.95,537.48,240.95z M532.57,242.77
				h-1.72v1.51h1.72V242.77z M532.57,244.69h-1.72v1.6h1.72V244.69z M535.32,242.77h-1.73v1.51h1.73V242.77z M535.32,244.69h-1.73
				v1.6h1.73V244.69z M542.94,242.48c0.02,5.69-0.3,7.09-0.66,8.11c-0.35,0.99-0.97,1.78-2.41,2.01c-0.15-0.93-0.97-1.48-1.78-1.9
				l0.05-0.12c0.97,0.24,1.9,0.25,2.01,0.25c0.4,0,0.79,0,1.14-0.95c0.23-0.66,0.59-4.16,0.59-6c0-0.53-0.02-1.27-0.1-1.79h-1.7
				c0,2.75-0.26,8.47-5.03,10.62l-0.08-0.1c3.76-2.96,3.89-7.46,3.96-10.52c-0.54,0.02-1.2,0.02-1.9,0.15l-0.33-0.68
				c0.64,0.05,1.09,0.08,2.23,0.12c0.05-2.48-0.07-3.65-0.31-4.64l1.72,0.59c0.18,0.07,0.28,0.15,0.28,0.27
				c0,0.1-0.05,0.17-0.12,0.24c-0.05,0.05-0.28,0.22-0.41,0.31v3.23h1.42l0.56-0.58c0.13-0.14,0.21-0.19,0.3-0.19
				c0.1,0,0.17,0.03,0.33,0.17l0.64,0.53c0.1,0.09,0.17,0.17,0.17,0.29C543.51,242.07,543.26,242.28,542.94,242.48z"/>
			<path d="M560.87,243.26h-11.23c0.15,5.24-0.53,7.45-2.79,9.32l-0.08-0.07c1.44-2.09,1.73-4.59,1.75-6.7
				c0-1.05-0.08-2.69-0.36-3.72l1.63,0.77h5.31c0.43-0.97,1.09-2.46,1.25-3.31h-6.66c-0.43,0-1.2,0.02-1.95,0.15l-0.31-0.68
				c1.04,0.08,2.06,0.12,2.52,0.12h3.46c-0.05-1.16-0.18-1.72-0.26-2.04l1.72,0.43c0.12,0.03,0.23,0.07,0.23,0.24
				s-0.4,0.39-0.58,0.49v0.88H558l0.71-0.82c0.13-0.15,0.18-0.22,0.26-0.22c0.07,0,0.13,0.03,0.3,0.17l1.06,0.83
				c0.08,0.07,0.17,0.15,0.17,0.25c0,0.17-0.13,0.19-0.25,0.19h-3.33l1.01,0.58c0.1,0.05,0.13,0.12,0.13,0.19
				c0,0.24-0.25,0.29-0.68,0.39c-0.74,0.92-1.07,1.27-1.93,2.16h3.22l0.61-0.77c0.1-0.14,0.17-0.2,0.25-0.2
				c0.07,0,0.16,0.05,0.33,0.17l1.09,0.76c0.12,0.08,0.18,0.15,0.18,0.25C561.12,243.23,560.98,243.26,560.87,243.26z M561,251.85
				h-9.45c-0.17,0-1.17,0-1.95,0.15l-0.31-0.68c1.14,0.1,2.39,0.12,2.52,0.12h2.31v-2.43h-1.09c-0.41,0-1.2,0.02-1.93,0.15
				l-0.33-0.68c1.12,0.1,2.33,0.12,2.54,0.12h0.81v-2.09h-2.24c-0.64,1.05-1.07,1.75-2.14,2.7l-0.08-0.05
				c0.81-1.56,1.9-3.93,2.13-5.42l1.45,0.65c0.15,0.07,0.17,0.14,0.17,0.19c0,0.15-0.07,0.19-0.58,0.44
				c-0.13,0.17-0.46,0.71-0.68,1.09h1.98c-0.03-1.63-0.03-1.8-0.18-2.58l1.6,0.31c0.08,0.02,0.21,0.05,0.21,0.2
				s-0.26,0.32-0.53,0.49c0,0.24-0.02,1.34-0.02,1.58h2.42l0.58-0.82c0.1-0.14,0.18-0.22,0.26-0.22s0.15,0.07,0.3,0.19l0.96,0.82
				c0.13,0.1,0.17,0.19,0.17,0.26c0,0.15-0.15,0.19-0.26,0.19h-4.42v2.09h1.96l0.49-0.63c0.13-0.15,0.17-0.2,0.26-0.2
				c0.07,0,0.13,0.05,0.3,0.17l0.91,0.65c0.13,0.1,0.16,0.17,0.16,0.24c0,0.17-0.15,0.19-0.25,0.19h-3.84v2.43h3.56l0.74-0.71
				c0.1-0.08,0.21-0.19,0.28-0.19c0.05,0,0.13,0.05,0.3,0.17l0.99,0.7c0.08,0.07,0.17,0.15,0.17,0.26
				C561.25,251.81,561.12,251.85,561,251.85z M551.76,242.6c-0.4,0-0.43-0.12-0.79-1.1c-0.28-0.75-0.58-1.24-0.96-1.63l0.03-0.08
				c0.68,0.24,2.39,0.85,2.39,2.02C552.44,242.21,552.18,242.6,551.76,242.6z"/>
			<path d="M570.38,239.52c-1.6,2.52-2.85,4.4-6,6.29l-0.08-0.12c2.66-2.63,5-6.12,4.87-7.85l1.68,1.04c0.08,0.05,0.2,0.15,0.2,0.29
				C571.04,239.34,570.89,239.42,570.38,239.52z M577.19,251.85c-0.4,0-0.68-0.27-0.87-0.75c-0.58-1.34-0.64-1.5-0.69-1.61
				c-2.42,0.88-7.55,1.94-8.23,2.07c-0.28,0.37-0.36,0.46-0.51,0.46s-0.23-0.17-0.26-0.27l-0.54-1.77c0.35,0.07,0.81,0.15,1.35,0.15
				c0.13,0,1.09-0.08,1.29-0.1c0.86-1.82,1.93-4.64,2.21-6.14c0.07-0.31,0.07-0.68,0.05-0.99l1.72,0.75
				c0.1,0.05,0.25,0.14,0.25,0.29c0,0.2-0.2,0.29-0.56,0.41c-0.18,0.31-0.31,0.54-1.52,2.72c-0.49,0.87-1.04,1.79-1.76,2.91
				c1.9-0.2,4.24-0.49,6.35-0.78c-0.86-1.24-1.32-1.72-1.95-2.23l0.05-0.12c1.93,0.73,4.37,2.43,4.37,4.1
				C577.92,251.69,577.39,251.85,577.19,251.85z M578.25,245.27c-0.53-0.29-1.88-1.05-3.1-2.79c-1.2-1.7-1.4-2.86-1.62-4.06
				c-0.41,0.02-1.37,0.02-2.16,0.19l-0.35-0.68c0.43,0.03,1.27,0.08,2.13,0.08l0.48-0.58c0.12-0.14,0.18-0.22,0.26-0.22
				s0.18,0.07,0.35,0.19l0.73,0.54c0.07,0.05,0.17,0.14,0.17,0.25c0,0.15-0.12,0.22-0.38,0.34c-0.38,0.15-0.53,0.22-0.76,0.31
				c0.58,2.23,2.75,4.42,5.89,4.86v0.12C579.42,244.01,578.71,244.28,578.25,245.27z"/>
			<path d="M596.69,251.46h-12.32c-0.13,0-1.19,0-1.95,0.15l-0.33-0.66c1.3,0.1,2.51,0.1,2.54,0.1h0.56v-4.49
				c0-0.92,0-2.97-0.12-3.77c-0.03-0.27-0.1-0.44-0.17-0.6l1.7,0.53c0.13,0.03,0.23,0.1,0.23,0.26c0,0.14-0.13,0.27-0.5,0.49
				c0,1.07,0.02,6.39,0.02,7.58h2.92v-12.24h-4.01c-0.31,0-1.19,0-1.95,0.15l-0.33-0.68c0.81,0.07,1.73,0.12,2.54,0.12h8.21
				l0.71-0.9c0.12-0.14,0.18-0.2,0.26-0.2s0.18,0.07,0.31,0.17l1.04,0.9c0.08,0.08,0.17,0.15,0.17,0.26c0,0.15-0.15,0.19-0.25,0.19
				h-5.51v5.49h2.08l0.66-0.83c0.12-0.15,0.2-0.2,0.28-0.2c0.1,0,0.2,0.07,0.31,0.17l0.89,0.83c0.07,0.07,0.15,0.17,0.15,0.27
				c0,0.12-0.1,0.17-0.25,0.17h-4.12v6.34h3.81l0.79-0.92c0.13-0.15,0.23-0.24,0.31-0.24s0.23,0.1,0.35,0.2l1.04,0.92
				c0.08,0.08,0.15,0.15,0.15,0.25C596.93,251.42,596.79,251.46,596.69,251.46z"/>
			<path d="M613.89,251.86c-1.65-0.87-2.74-2.19-3.45-3.4c-1.48,1.97-3.07,2.7-3.84,3.01c0.02,0.61,0.02,1.22-0.84,1.22
				c-0.51,0-0.51-0.32-0.51-0.65c0-0.27,0.08-1.67,0.1-1.99c0-0.32,0.02-2.04,0.02-2.43c-0.84,0.44-3.05,1.44-4.31,1.82
				c-0.13,0.42-0.23,0.56-0.4,0.56c-0.15,0-0.23-0.12-0.3-0.29l-0.63-1.67c0.48,0.08,0.54,0.1,0.74,0.1c0.36,0,1.1-0.12,1.3-0.15
				v-9.4c-0.96,0.05-1.24,0.1-1.52,0.15l-0.33-0.68c1.3,0.12,2.52,0.12,2.54,0.12h4.35l0.71-0.8c0.13-0.15,0.2-0.2,0.28-0.2
				c0.1,0,0.18,0.05,0.33,0.19l0.82,0.78c0.08,0.07,0.15,0.2,0.15,0.27c0,0.14-0.1,0.17-0.25,0.17h-2.36
				c-0.03,6.44-0.05,7.16,0.08,12.66c1.09-0.65,2.33-2.06,3.3-3.84c-1.02-2.31-1.52-4.83-1.55-7.36c-0.51,0.03-0.64,0.07-0.84,0.12
				l-0.33-0.68c1.29,0.1,2.51,0.1,2.52,0.1h2.28l0.46-0.54c0.15-0.17,0.2-0.22,0.28-0.22c0.1,0,0.18,0.05,0.35,0.19l0.76,0.59
				c0.13,0.1,0.23,0.24,0.23,0.31c0,0.12,0,0.19-0.15,0.29c-0.3,0.22-0.53,0.37-0.74,0.48c-0.64,3.93-1.8,6.31-2.14,6.87
				c0.79,1.09,2.06,2.31,4.32,3.06v0.08C614.71,250.89,614.28,251.23,613.89,251.86z M605.36,238.6h-2.44v2.72h2.44V238.6z
				 M605.36,241.73h-2.44v2.75h2.44V241.73z M605.36,244.89h-2.44v2.92c0.86-0.17,2.08-0.39,2.44-0.49V244.89z M609.43,240.02
				c-0.15,0-0.43,0.02-0.76,0.03c0.26,2.18,0.73,4.4,1.7,6.43c1.35-2.97,1.55-5.58,1.6-6.46H609.43z"/>
			<path d="M620.45,241.7h2.9v-3.11h-3.23c-0.15,0-1.17,0-1.95,0.15l-0.31-0.66c1.09,0.08,2.21,0.1,2.52,0.1h2.89l0.38-0.42
				c0.08-0.08,0.15-0.19,0.26-0.19c0.07,0,0.18,0.07,0.25,0.1l0.64,0.42c0.08,0.05,0.25,0.14,0.25,0.32c0,0.15-0.16,0.31-0.58,0.59
				c-0.02,0.51,0.07,2.77,0.07,3.21c0,0.17-0.03,0.34-0.15,0.48c-0.15,0.19-0.43,0.27-0.68,0.27c-0.36,0-0.46-0.17-0.38-0.87h-3.15
				c-0.07,0.39-0.45,2.74-0.46,2.82h3.36l0.46-0.53c0.07-0.08,0.15-0.19,0.28-0.19c0.1,0,0.18,0.07,0.26,0.12l0.68,0.51
				c0.07,0.05,0.18,0.15,0.18,0.31c0,0.2-0.23,0.36-0.5,0.49c-0.18,2.21-0.81,4.5-1.7,5.56c-0.73,0.85-1.83,1.07-2.61,1.1
				c-0.18-0.83-0.59-1.33-1.27-1.92v-0.1c0.71,0.17,1.47,0.36,2.23,0.36c0.35,0,0.74,0,1.14-0.77c0.41-0.82,0.89-2.07,1.04-4.54
				h-3.61c-0.03,0.43-0.08,0.95-0.2,1.26c-0.12,0.31-0.56,0.48-0.82,0.48c-0.25,0-0.45-0.14-0.45-0.39c0-0.15,0.46-2.13,0.53-2.48
				c0.28-1.56,0.33-2.46,0.3-3.25L620.45,241.7z M630.82,237.81c0.15,0.03,0.3,0.05,0.3,0.24c0,0.17-0.15,0.34-0.56,0.58
				c0,0.32-0.02,4.49,0.02,7.72c0,0.82,0.13,4.45,0.13,5.2c0,0.2,0,0.48-0.21,0.66c-0.21,0.17-0.54,0.27-0.74,0.27
				c-0.38,0-0.45-0.31-0.45-0.56c0-0.1,0.02-0.2,0.03-0.42c0.08-1.38,0.08-3.15,0.08-3.84c0-6.34-0.02-7.97-0.07-8.55
				c-0.05-0.59-0.13-1.02-0.3-1.7L630.82,237.81z"/>
			<path d="M640.1,241.49h-2.33c-0.03,3.72-0.03,4.54-0.03,5.58c0,0.75,0.05,4.06,0.05,4.74c0,0.31,0,0.83-0.81,0.83
				c-0.18,0-0.48-0.07-0.48-0.48c0-0.25,0.1-1.43,0.12-1.68c0.05-1.22,0.05-1.75,0.07-5c0.02-2.4,0.02-2.53,0.03-3.99
				c-0.59,0-1.29,0.05-1.88,0.15l-0.33-0.66c0.46,0.03,1.04,0.08,2.21,0.1c0-2.52-0.03-3.38-0.38-4.1l1.81,0.53
				c0.1,0.03,0.21,0.1,0.21,0.24c0,0.17-0.05,0.2-0.58,0.51c0,0.46-0.02,2.43-0.02,2.82h0.77l0.5-0.54c0.08-0.1,0.18-0.22,0.26-0.22
				c0.07,0,0.2,0.08,0.3,0.19l0.59,0.56c0.08,0.09,0.15,0.15,0.15,0.26C640.35,241.48,640.22,241.49,640.1,241.49z M643.91,246.71
				c-0.43,4.76-0.92,5.44-2.67,5.63c-0.17-0.95-0.21-1.14-0.87-1.68l0.05-0.14c0.76,0.27,1.19,0.29,1.32,0.29
				c0.43,0,0.53-0.1,0.79-1.43c0.12-0.56,0.33-1.67,0.36-3.14h-1.2c-0.31,2.04-1.15,4.71-3.56,5.93l-0.07-0.08
				c1.24-1.12,2.31-3.08,2.57-5.83c-0.53,0-1.14,0.05-1.65,0.15l-0.33-0.68c0.61,0.05,1.09,0.08,2.01,0.1
				c0.08-1.29-0.05-1.8-0.1-2.06l1.5,0.54c0.15,0.05,0.21,0.15,0.21,0.24c0,0.14-0.36,0.37-0.45,0.42
				c-0.03,0.32-0.03,0.46-0.08,0.85h0.99l0.4-0.42c0.12-0.12,0.16-0.17,0.23-0.17c0.07,0,0.15,0.08,0.21,0.15l0.68,0.61
				c0.07,0.07,0.13,0.14,0.13,0.24C644.39,246.36,644.34,246.39,643.91,246.71z M647.72,239.81c-0.73,3.43-1.86,3.55-2.85,3.67
				c-0.08-0.58-0.15-1.04-1.04-1.8l0.07-0.1c0.63,0.31,1.37,0.41,1.48,0.41c0.84,0,1.22-1.95,1.4-2.89h-2.42
				c-0.71,2.13-1.75,3.88-4.57,4.76l-0.02-0.1c1.65-1.14,3-2.63,3.48-4.66h-0.86c-0.41,0-1.2,0-1.95,0.15l-0.33-0.68
				c1.14,0.1,2.31,0.12,2.54,0.12h0.69c0.07-0.43,0.12-0.78,0.12-1.19c0-0.36-0.05-0.49-0.12-0.66l1.68,0.53
				c0.07,0.02,0.15,0.07,0.15,0.17c0,0.1-0.26,0.27-0.53,0.44c-0.1,0.41-0.13,0.53-0.18,0.71h2.13l0.26-0.34
				c0.08-0.1,0.2-0.15,0.28-0.15c0.1,0,0.15,0.03,0.23,0.1l0.87,0.75c0.07,0.05,0.13,0.12,0.13,0.22
				C648.38,239.45,647.97,239.68,647.72,239.81z M649.49,246.42c-0.15,0.08-0.23,0.15-0.35,0.24c-0.03,1.78-0.25,4.08-0.76,4.93
				c-0.1,0.17-0.53,0.87-1.98,1c-0.35-1.05-0.36-1.09-0.94-1.67l0.05-0.14c0.84,0.29,1.32,0.29,1.4,0.29c0.66,0,0.71-0.31,0.91-1.43
				c0.12-0.73,0.31-2.79,0.25-3.37h-1.22c-0.43,2.46-1.06,4.67-3.84,6.1l-0.05-0.08c0.94-0.92,2.39-2.57,2.87-5.97
				c-0.36,0.02-0.56,0.07-0.76,0.1l-0.33-0.68c0.56,0.05,0.81,0.07,1.15,0.08c0.02-0.17,0.05-0.6,0.05-1.24
				c0-0.82-0.07-1.04-0.13-1.27l1.57,0.58c0.13,0.05,0.21,0.17,0.21,0.25c0,0.19-0.43,0.41-0.51,0.46c-0.07,0.63-0.1,0.92-0.16,1.24
				c0.13,0.02,0.2,0.02,0.36,0.02h0.64l0.41-0.49c0.07-0.08,0.15-0.17,0.2-0.17c0.07,0,0.17,0.05,0.25,0.12l0.79,0.61
				c0.07,0.05,0.15,0.15,0.15,0.22C649.72,246.29,649.6,246.36,649.49,246.42z"/>
			<path d="M657.99,240.59h-2.94c-0.41,0-1.2,0-1.93,0.15l-0.33-0.68c1.12,0.1,2.29,0.12,2.52,0.12h1.11l0.41-0.61
				c0.03-0.05,0.15-0.2,0.26-0.2c0.1,0,0.21,0.1,0.3,0.17l0.69,0.61c0.07,0.07,0.15,0.14,0.15,0.25
				C658.24,240.56,658.11,240.59,657.99,240.59z M657.6,247.63c-0.02,0.14-0.03,0.24-0.03,0.36c0,0.49,0.1,2.67,0.1,3.11
				c0,0.36-0.28,0.68-0.71,0.68c-0.5,0-0.46-0.39-0.43-0.78h-1.96c0,0.24,0.03,0.87-0.03,1c-0.2,0.39-0.56,0.46-0.73,0.46
				c-0.13,0-0.43-0.03-0.43-0.41c0-0.05,0-0.15,0.02-0.32c0.07-0.56,0.1-2.87,0.1-3.99c0-0.85,0-1.04-0.07-1.55l1.27,0.73h1.75
				l0.28-0.44c0.03-0.05,0.15-0.19,0.21-0.19c0.08,0,0.2,0.08,0.3,0.15l0.66,0.49c0.07,0.05,0.13,0.12,0.13,0.2
				C658.03,247.33,657.91,247.38,657.6,247.63z M657.5,238.54h-2.29c-0.41,0-0.96,0.02-1.37,0.1l-0.21-0.59
				c0.87,0.07,1.67,0.08,1.7,0.08h0.66l0.41-0.49c0.08-0.1,0.17-0.2,0.25-0.2s0.15,0.05,0.31,0.17l0.63,0.49
				c0.08,0.07,0.17,0.15,0.17,0.25C657.75,238.5,657.61,238.54,657.5,238.54z M657.42,242.72h-2.21c-0.45,0-0.92,0.02-1.37,0.1
				l-0.21-0.59c0.73,0.05,1.47,0.08,1.8,0.08h0.63l0.35-0.49c0.03-0.05,0.15-0.22,0.26-0.22c0.1,0,0.25,0.14,0.3,0.19l0.56,0.49
				c0.08,0.07,0.15,0.15,0.15,0.25C657.66,242.7,657.52,242.72,657.42,242.72z M657.53,244.86h-2.28c-0.82,0-1.15,0.05-1.37,0.1
				l-0.23-0.6c0.87,0.07,1.7,0.08,1.78,0.08h0.58l0.43-0.56c0.05-0.07,0.13-0.2,0.25-0.2c0.1,0,0.23,0.1,0.31,0.17l0.61,0.56
				c0.1,0.08,0.17,0.15,0.17,0.25C657.78,244.81,657.68,244.86,657.53,244.86z M656.54,247.33h-2v3.26h2V247.33z M667.74,246.56
				h-3.71c0.08,0.63,0.17,1.22,0.43,1.95c0.17-0.2,0.79-0.93,1.07-1.63l1.02,0.8c0.08,0.07,0.15,0.08,0.15,0.2
				c0,0.24-0.25,0.24-0.61,0.22c-0.71,0.68-0.94,0.92-1.27,1.21c0.63,1.12,1.37,1.51,1.47,1.51c0.1,0,0.23-0.14,0.3-0.22
				c0.21-0.27,0.38-0.54,0.97-1.63h0.12c-0.18,1.02-0.3,1.7-0.3,2.18c0,0.12,0.02,0.24,0.15,0.43c0.12,0.15,0.2,0.25,0.2,0.39
				c0,0.19-0.17,0.39-0.58,0.39c-0.63,0-2.13-0.83-3.05-2.41c-0.84,0.68-1.86,1.14-2.75,1.43l-0.03-0.12
				c0.61-0.39,1.44-0.95,2.46-1.97c-0.17-0.41-0.38-0.95-0.63-2.72h-2.01v1.51c0.89-0.25,1.24-0.37,1.72-0.53l0.07,0.1
				c-0.31,0.22-0.69,0.49-1.78,1c0,0.46,0,2.18-0.02,2.43c-0.05,0.99-0.77,1.26-1.48,1.39c-0.28-0.78-0.31-0.85-1.19-1.43v-0.07
				c0.21,0.03,0.51,0.08,1.06,0.08c0.41,0,0.61-0.03,0.66-0.37c0.03-0.25,0.05-1.27,0.05-1.6c-0.21,0.1-1.12,0.51-1.3,0.61
				c-0.1,0.17-0.23,0.39-0.31,0.39c-0.13,0-0.17-0.12-0.2-0.22l-0.48-1.22c0.63,0.07,1.72-0.2,2.29-0.34c-0.02-0.19,0-1.17,0-1.75
				c-0.13,0-1.07-0.02-1.9,0.15l-0.31-0.68c0.79,0.07,1.3,0.08,2.21,0.1V245c-0.81,0.17-1.48,0.22-1.98,0.25l-0.03-0.12
				c2.38-0.87,2.79-1.16,3.22-1.58l0.79,0.7c0.07,0.07,0.1,0.12,0.1,0.19c0,0.2-0.26,0.17-0.43,0.14c-0.31,0.12-0.49,0.17-0.76,0.24
				l0.02,1.34h1.96c-0.05-0.42-0.21-2.29-0.3-2.67l1.32,0.29c0.21,0.05,0.23,0.1,0.23,0.19c0,0.12-0.13,0.22-0.38,0.39
				c-0.02,0.71-0.02,1.19,0.03,1.8h2.05l0.51-0.73c0.13-0.19,0.2-0.22,0.25-0.22c0.1,0,0.2,0.1,0.31,0.2l0.73,0.71
				c0.08,0.08,0.15,0.15,0.15,0.25C667.99,246.53,667.86,246.56,667.74,246.56z M667.38,243.19h-6.88c-0.38,0-1.2,0.02-1.93,0.15
				l-0.33-0.66c1.3,0.1,2.24,0.1,2.52,0.1h1.22v-1.33h-0.38c-0.45,0-1.22,0.02-1.95,0.15l-0.33-0.68c1.25,0.12,2.39,0.12,2.66,0.12
				v-1.31h-1.24c-0.38,0-1.2,0-1.93,0.15l-0.33-0.68c1.3,0.1,2.24,0.12,2.52,0.12h1.98c0.26-0.6,0.71-1.73,0.68-2.36l1.34,0.71
				c0.08,0.05,0.21,0.12,0.21,0.25c0,0.19-0.21,0.2-0.63,0.22c-0.2,0.22-0.33,0.36-1.27,1.17h2.06l0.48-0.58
				c0.1-0.12,0.15-0.2,0.25-0.2c0.1,0,0.2,0.08,0.31,0.19l0.69,0.56c0.05,0.03,0.17,0.14,0.17,0.25c0,0.17-0.17,0.19-0.25,0.19
				h-3.99v1.31h1.65l0.4-0.53c0.1-0.12,0.17-0.22,0.26-0.22c0.07,0,0.2,0.1,0.3,0.19l0.64,0.53c0.07,0.05,0.17,0.14,0.17,0.25
				c0,0.17-0.17,0.19-0.25,0.19h-3.17v1.33h2.61l0.54-0.63c0.13-0.15,0.15-0.22,0.26-0.22c0.1,0,0.18,0.07,0.31,0.19l0.69,0.65
				c0.08,0.07,0.17,0.14,0.17,0.25C667.63,243.19,667.46,243.19,667.38,243.19z M661.38,239.15c-0.36,0-0.46-0.22-0.64-0.7
				c-0.23-0.59-0.35-0.78-0.76-1.29l0.07-0.12c0.41,0.08,1.93,0.41,1.93,1.48C661.97,238.94,661.64,239.15,661.38,239.15z
				 M665.61,245.56c-0.35,0-0.45-0.24-0.53-0.48c-0.2-0.53-0.36-0.75-0.56-0.99l0.03-0.12c0.41,0.05,1.55,0.19,1.55,1.02
				C666.11,245.2,665.98,245.56,665.61,245.56z"/>
			<path d="M684.18,244.2c-2.85-1.31-4.95-3.84-6.02-6.12l-0.07,0.02c-1.8,3.23-5.71,6.05-7.55,6.82l-0.05-0.1
				c2.47-1.78,4.49-4.15,6.07-6.78c0.38-0.61,0.43-0.85,0.49-1.16l1.67,0.54c0.08,0.03,0.26,0.12,0.26,0.29
				c0,0.2-0.17,0.24-0.51,0.32c1.01,1.73,3.63,4.11,7.29,4.76v0.12C685.19,243.16,684.6,243.52,684.18,244.2z M684.32,246.58h-6.61
				c-0.89,1.72-2.56,3.69-2.72,3.89c2.03-0.14,4.59-0.39,6.45-0.63c-0.1-0.19-0.64-1.21-1.81-2.35l0.1-0.1
				c2.26,1.05,4.06,2.77,4.06,4.2c0,0.27-0.18,0.83-0.73,0.83s-0.76-0.46-0.97-1.05c-0.2-0.6-0.26-0.78-0.5-1.24
				c-1.34,0.42-7.41,1.75-8.35,1.9c-0.1,0.22-0.15,0.37-0.3,0.37c-0.13,0-0.21-0.17-0.26-0.31l-0.69-1.72
				c0.36,0.07,0.74,0.15,1.47,0.15c0.35,0,0.68-0.02,1.19-0.05c0.54-1.26,1.01-2.52,1.35-3.91h-2.33c-0.38,0-1.2,0.02-1.93,0.15
				l-0.33-0.66c1.3,0.1,2.24,0.1,2.52,0.1h7.92l0.84-0.93c0.12-0.14,0.2-0.2,0.28-0.2s0.18,0.08,0.3,0.17l1.14,0.94
				c0.07,0.05,0.17,0.15,0.17,0.25C684.56,246.58,684.4,246.58,684.32,246.58z M680.7,243.64h-4.24c-0.41,0-1.2,0.02-1.95,0.15
				l-0.33-0.68c1.14,0.1,2.33,0.12,2.54,0.12h1.85l0.74-0.85c0.08-0.08,0.17-0.2,0.26-0.2c0.08,0,0.21,0.1,0.3,0.17l0.91,0.85
				c0.08,0.08,0.17,0.15,0.17,0.27C680.95,243.62,680.8,243.64,680.7,243.64z"/>
		</g>
	</g>
	<g>
		<g>
			<g>
				<path class="st0" d="M155.98,151.06c-11.25,0-17.95-12.48-17.95-26.63c0-13.94,6.54-26.56,17.95-26.56
					c11.25,0,17.95,12.48,17.95,26.56C173.93,138.57,167.23,151.06,155.98,151.06z M155.98,99.8c-6.06,0-12.04,6.59-12.04,24.62
					c0,18.45,6.14,24.69,12.04,24.69c5.58,0,12.04-5.69,12.04-24.69C168.03,105.56,161.57,99.8,155.98,99.8z"/>
				<path class="st0" d="M195.7,151.06c-5.82,0-9.49-2.71-9.49-6.03c0-2.43,1.6-3.33,3.67-3.33c3.67,0,4.15,2.77,4.15,3.61
					c0,1.66,0.16,3.61,3.27,3.61c2.63,0,5.1-1.25,6.54-2.64c6.94-6.52,7.58-16.37,7.9-23.93c-3.75,4.65-7.18,9.02-14.44,9.02
					c-8.61,0-14.28-7-14.28-15.67c0-10.33,7.9-17.82,16.83-17.82c9.33,0,18.42,8.67,18.42,24.06
					C218.27,134.97,210.54,151.06,195.7,151.06z M208.06,104.8c-2.71-4.02-4.94-4.65-8.14-4.65c-8.69,0-10.77,9.71-10.77,15.6
					c0,3.74,0.8,12.48,9.49,12.48c8.22,0,11.88-8.18,13.08-10.96C211.01,111.32,210.22,108.06,208.06,104.8z"/>
				<path class="st0" d="M259.19,149.74h-31.66v-1.87c4.63-8.6,10.85-14.36,18.03-20.74c5.02-4.44,10.85-9.99,10.85-17.62
					c0-3.61-1.44-9.57-10.53-9.57c-6.94,0-10.29,3.26-10.29,5.48c0,0.69,0.4,1.6,0.72,2.08c0.96,1.87,0.96,2.64,0.96,3.19
					c0,2.43-1.75,3.54-3.91,3.54c-2.79,0-3.67-1.73-3.67-3.88c0-6.31,6.78-12.48,17.31-12.48c9.49,0,15.55,4.99,15.55,12.83
					c0,4.65-1.91,7.42-5.9,11.37c-1.91,1.94-11.72,9.36-13.64,10.96c-1.04,0.9-6.94,6.1-10.69,12.07h15.95
					c9.41,0,11.88-5.96,13.32-9.36l1.52,0.35L259.19,149.74z"/>
				<path class="st0" d="M271.95,135.24v-3.81h16.83v3.81H271.95z"/>
				<path class="st0" d="M314.78,151.06c-8.45,0-17.31-3.95-17.31-12.55c0-7,5.98-10.33,14.44-14.43
					c-4.47-1.94-12.28-5.41-12.28-13.18c0-7.28,7.42-13.04,16.27-13.04c7.98,0,14.52,4.58,14.52,11.03c0,6.66-6.3,10.4-10.05,12.69
					c4.87,2.36,13,6.17,13,14.63C333.36,144.33,326.18,151.06,314.78,151.06z M313.98,124.91c-4.39,2.64-10.61,6.38-10.61,13.38
					c0,6.66,5.26,10.61,12.04,10.61c6.46,0,13.24-3.81,13.24-11.03C328.65,131.36,322.59,128.52,313.98,124.91z M315.26,99.94
					c-4.79,0-11.01,2.91-11.01,9.08c0,3.4,1.75,5.27,4.63,7.14c2.39,1.6,5.74,3.19,9.25,4.44c2.23-1.46,7.74-5.06,7.74-10.96
					C325.86,105.14,322.27,99.94,315.26,99.94z"/>
				<path class="st0" d="M377.55,136.42c0,7.91-7.9,14.63-18.98,14.63c-9.81,0-15.95-5.34-15.95-10.13c0-2.22,1.28-4.09,3.91-4.09
					c2.63,0,3.83,2.01,3.83,3.75c0,0.76-0.72,2.77-0.72,3.33c0,1.73,2.87,4.79,8.53,4.79c7.1,0,12.84-4.92,12.84-12.55
					c0-7.14-4.87-12.28-12.92-12.28c-0.4,0-2.55,0.21-3.03,0.21s-2.15,0-2.15-1.46c0-1.04,0.96-1.25,2.07-1.25
					c0.4,0,2.55,0.21,3.03,0.21c4.47,0,11.8-3.26,11.8-11.23c0-6.73-5.34-10.13-10.61-10.13c-4.79,0-7.5,2.64-7.5,4.72
					c0,0.35,0.24,2.08,0.24,2.5c0,1.6-0.88,4.09-3.75,4.09c-2.31,0-3.27-1.87-3.27-3.68c0-5.13,6.86-9.99,14.99-9.99
					c8.93,0,16.19,4.92,16.19,11.86c0,4.99-4.55,10.89-13.96,12.83C374.04,123.94,377.55,131.64,377.55,136.42z"/>
				<path class="st0" d="M413.68,135.31v7.28c0,3.19,2.47,4.92,5.58,4.92h1.28v2.22h-18.74v-2.22c1.67,0,6.86,0,6.86-5.06v-7.14
					h-22.33v-2.43l25.12-35.02h2.23v35.23h9.49v2.22H413.68z M408.65,106.12l-19.3,26.98h19.3V106.12z"/>
				<path class="st0" d="M431.38,135.24v-3.81h16.83v3.81H431.38z"/>
				<path class="st0" d="M488.73,149.74h-31.66v-1.87c4.63-8.6,10.85-14.36,18.03-20.74c5.02-4.44,10.85-9.99,10.85-17.62
					c0-3.61-1.44-9.57-10.53-9.57c-6.94,0-10.29,3.26-10.29,5.48c0,0.69,0.4,1.6,0.72,2.08c0.96,1.87,0.96,2.64,0.96,3.19
					c0,2.43-1.75,3.54-3.91,3.54c-2.79,0-3.67-1.73-3.67-3.88c0-6.31,6.78-12.48,17.31-12.48c9.49,0,15.55,4.99,15.55,12.83
					c0,4.65-1.91,7.42-5.9,11.37c-1.91,1.94-11.72,9.36-13.64,10.96c-1.04,0.9-6.94,6.1-10.69,12.07h15.95
					c9.41,0,11.88-5.96,13.32-9.36l1.52,0.35L488.73,149.74z"/>
				<path class="st0" d="M514.57,151.06c-5.82,0-9.49-2.71-9.49-6.03c0-2.43,1.6-3.33,3.67-3.33c3.67,0,4.15,2.77,4.15,3.61
					c0,1.66,0.16,3.61,3.27,3.61c2.63,0,5.1-1.25,6.54-2.64c6.94-6.52,7.58-16.37,7.9-23.93c-3.75,4.65-7.18,9.02-14.44,9.02
					c-8.61,0-14.28-7-14.28-15.67c0-10.33,7.9-17.82,16.83-17.82c9.33,0,18.42,8.67,18.42,24.06
					C537.14,134.97,529.4,151.06,514.57,151.06z M526.93,104.8c-2.71-4.02-4.94-4.65-8.14-4.65c-8.69,0-10.77,9.71-10.77,15.6
					c0,3.74,0.8,12.48,9.49,12.48c8.22,0,11.88-8.18,13.08-10.96C529.88,111.32,529.08,108.06,526.93,104.8z"/>
				<path class="st0" d="M563.54,151.06c-8.45,0-17.31-3.95-17.31-12.55c0-7,5.98-10.33,14.44-14.43
					c-4.47-1.94-12.28-5.41-12.28-13.18c0-7.28,7.42-13.04,16.27-13.04c7.98,0,14.52,4.58,14.52,11.03c0,6.66-6.3,10.4-10.05,12.69
					c4.87,2.36,13,6.17,13,14.63C582.12,144.33,574.94,151.06,563.54,151.06z M562.74,124.91c-4.39,2.64-10.61,6.38-10.61,13.38
					c0,6.66,5.26,10.61,12.04,10.61c6.46,0,13.24-3.81,13.24-11.03C577.42,131.36,571.35,128.52,562.74,124.91z M564.02,99.94
					c-4.79,0-11.01,2.91-11.01,9.08c0,3.4,1.75,5.27,4.63,7.14c2.39,1.6,5.74,3.19,9.25,4.44c2.23-1.46,7.74-5.06,7.74-10.96
					C574.62,105.14,571.03,99.94,564.02,99.94z"/>
				<path class="st0" d="M608.84,151.06c-11.25,0-17.95-12.48-17.95-26.63c0-13.94,6.54-26.56,17.95-26.56
					c11.25,0,17.95,12.48,17.95,26.56C626.78,138.57,620.08,151.06,608.84,151.06z M608.84,99.8c-6.06,0-12.04,6.59-12.04,24.62
					c0,18.45,6.14,24.69,12.04,24.69c5.58,0,12.04-5.69,12.04-24.69C620.88,105.56,614.42,99.8,608.84,99.8z"/>
			</g>
		</g>
		<g>
			<path class="st1" d="M67.09,120.4c3.31-15.08,18.21-24.63,33.3-21.33c15.08,3.31,24.63,18.21,21.33,33.3
				c-3.3,15.08-18.21,24.63-33.29,21.33S63.79,135.48,67.09,120.4z"/>
			<path class="st0" d="M89.11,119.17c1.97-1.17,3.58-2.25,4.13-2.57c0.55-0.33,0.53-1.17,0.06-1.96c-0.47-0.79-4.37-7.33-4.37-7.33
				c-0.61-1.02-1.28-2.07-2.23-1.5c-0.95,0.56-1.66,0.98-4.1,2.44c-2.45,1.45-5.69,9.64,2.81,23.9
				c8.5,14.27,17.24,15.32,19.69,13.86c2.44-1.46,3.15-1.88,4.1-2.44c0.95-0.57,0.35-1.65-0.26-2.68c0,0-3.9-6.54-4.37-7.33
				c-0.47-0.79-1.2-1.21-1.76-0.88c-0.55,0.33-2.25,1.24-4.22,2.41c-1.97,1.17-4.17-1.79-7.03-6.6
				C88.7,123.69,87.13,120.34,89.11,119.17z"/>
		</g>
	</g>
</g>
</svg>
